<svg width="71" height="50" viewBox="0 0 71 50" xmlns="http://www.w3.org/2000/svg">
    <g fill="#377C6D" fill-rule="nonzero" opacity=".9">
        <path d="M48.035 48.1v-2.181a.614.614 0 0 0-.601-.602.59.59 0 0 0-.602.602v2.18c.007.33.272.595.602.602a.59.59 0 0 0 .601-.602z"/>
        <path d="M47.437 49.074a.988.988 0 0 1-.975-.975v-2.18a.964.964 0 0 1 .975-.974c.535.007.967.439.974.974v2.18a.964.964 0 0 1-.974.975zm0-3.378a.214.214 0 0 0-.223.223v2.18a.24.24 0 0 0 .223.223.214.214 0 0 0 .222-.223v-2.18a.24.24 0 0 0-.222-.223z"/>
        <path d="M48.035 44.37V32.68a.589.589 0 0 0-1.177 0V44.37a.589.589 0 0 0 1.177 0z"/>
        <path d="M47.446 45.33a.938.938 0 0 1-.964-.955V32.679a.965.965 0 1 1 1.93 0V44.37a.938.938 0 0 1-.966.96zm0-12.854a.19.19 0 0 0-.212.203V44.37a.214.214 0 0 0 .425 0V32.68a.19.19 0 0 0-.213-.203zM40.335 44.375v-7.307a.589.589 0 1 0-1.178 0v7.314a.589.589 0 0 0 1.178 0v-.007z"/>
        <path d="M39.745 45.33a.938.938 0 0 1-.964-.955v-7.307a.965.965 0 1 1 1.93 0v7.314a.938.938 0 0 1-.966.947zm0-8.472a.19.19 0 0 0-.212.203v7.314a.214.214 0 0 0 .426 0v-7.307a.19.19 0 0 0-.214-.21z"/>
        <path d="M40.335 48.1v-2.181a.614.614 0 0 0-.602-.602.59.59 0 0 0-.601.602v2.18c.006.33.272.595.601.602a.59.59 0 0 0 .602-.602z"/>
        <path d="M39.736 49.074a.988.988 0 0 1-.974-.975v-2.18a.964.964 0 0 1 .974-.974c.535.007.967.439.975.974v2.18a.964.964 0 0 1-.975.975zm0-3.378a.214.214 0 0 0-.222.223v2.18a.24.24 0 0 0 .222.223.214.214 0 0 0 .223-.223v-2.18a.24.24 0 0 0-.223-.223zM32.634 48.1v-2.181a.614.614 0 0 0-.601-.602.59.59 0 0 0-.602.602v2.18c.007.33.272.595.602.602a.59.59 0 0 0 .601-.602z"/>
        <path d="M32.036 49.074a.988.988 0 0 1-.975-.975v-2.18a.964.964 0 0 1 .975-.974c.535.007.967.439.974.974v2.18a.964.964 0 0 1-.974.975zm0-3.378a.214.214 0 0 0-.223.223v2.18a.24.24 0 0 0 .223.223.214.214 0 0 0 .222-.223v-2.18a.24.24 0 0 0-.222-.223zM40.335 34.994v-2.177a.614.614 0 0 0-.602-.601.59.59 0 0 0-.601.601v2.18c.006.33.272.596.601.602a.59.59 0 0 0 .602-.602v-.003z"/>
        <path d="M39.736 35.975a.988.988 0 0 1-.974-.975v-2.183a.964.964 0 0 1 .974-.974c.535.007.967.439.975.974v2.18a.964.964 0 0 1-.975.978zm0-3.377a.214.214 0 0 0-.222.222V35a.24.24 0 0 0 .222.223.214.214 0 0 0 .223-.223v-2.183a.24.24 0 0 0-.223-.225v.006zM32.634 34.994v-2.177a.614.614 0 0 0-.601-.601.59.59 0 0 0-.602.601v2.18c.007.33.272.596.602.602a.59.59 0 0 0 .601-.602v-.003z"/>
        <path d="M32.036 35.975A.988.988 0 0 1 31.06 35v-2.183a.964.964 0 0 1 .975-.974c.535.007.967.439.974.974v2.18a.964.964 0 0 1-.974.978zm0-3.377a.214.214 0 0 0-.223.222V35a.24.24 0 0 0 .223.223.214.214 0 0 0 .222-.223v-2.183a.24.24 0 0 0-.222-.225v.006zM32.634 44.375v-7.307a.589.589 0 1 0-1.177 0v7.314a.589.589 0 1 0 1.177 0v-.007z"/>
        <path d="M32.045 45.33a.938.938 0 0 1-.964-.955v-7.307a.965.965 0 0 1 1.93 0v7.314a.938.938 0 0 1-.966.947zm0-8.472a.19.19 0 0 0-.212.203v7.314a.214.214 0 0 0 .425 0v-7.307a.19.19 0 0 0-.213-.21zM24.94 48.1v-2.181a.614.614 0 0 0-.602-.602.59.59 0 0 0-.601.602v2.18c.006.33.272.595.601.602a.59.59 0 0 0 .602-.602z"/>
        <path d="M24.338 49.074a.988.988 0 0 1-.974-.975v-2.18a.964.964 0 0 1 .974-.974c.535.007.967.439.975.974v2.18a.964.964 0 0 1-.975.975zm0-3.378a.214.214 0 0 0-.222.223v2.18a.24.24 0 0 0 .222.223.214.214 0 0 0 .223-.223v-2.18a.24.24 0 0 0-.223-.223z"/>
        <path d="M24.934 44.37V32.68a.589.589 0 0 0-1.178 0V44.37a.589.589 0 0 0 1.178 0z"/>
        <path d="M24.343 45.33a.938.938 0 0 1-.964-.955V32.679a.965.965 0 0 1 1.93 0V44.37a.938.938 0 0 1-.966.96zm0-12.854a.19.19 0 0 0-.212.203V44.37a.214.214 0 0 0 .425 0V32.68a.19.19 0 0 0-.213-.203z"/>
        <path d="M46.144 44.973h1.312l-.601-.601v1.544c0 .332.27.601.601.601h11.31l-.602-.601v3.087l.602-.601H11.483l.602.601v-3.084l-.602.601h12.834c.332 0 .602-.269.602-.601v-1.544l-.602.601h1.235a.589.589 0 0 0 0-1.177h-1.235a.601.601 0 0 0-.601.601v1.544l.601-.601H11.483a.601.601 0 0 0-.601.601v3.088c0 .332.269.601.601.601h47.263c.332 0 .602-.27.602-.601v-3.094a.601.601 0 0 0-.602-.601h-11.31l.602.601v-1.54a.601.601 0 0 0-.601-.602h-1.313a.589.589 0 0 0 0 1.177h.02z"/>
        <path d="M24.317 43.42h1.235a.965.965 0 0 1 0 1.929h-.262v.57a.976.976 0 0 1-.974.974H12.458v1.14H57.79v-1.14H47.456a.976.976 0 0 1-.974-.974v-.57h-.358a.965.965 0 0 1 0-1.93h1.313c.538.002.973.437.974.975v.57h10.335c.538 0 .974.437.975.974v3.088a.976.976 0 0 1-.975.974H11.483a.976.976 0 0 1-.974-.974v-3.088c0-.537.436-.973.974-.974h11.86v-.567a.976.976 0 0 1 .974-.977zm22.165.752h-.358a.214.214 0 0 0 0 .425h.358v-.425zm-23.14 1.544H12.459v.425h10.885v-.425zm34.45 0h-9.375v.425h9.38l-.006-.425zm-46.086 1.177h-.451v1.14h.45v-1.14zm47.263 0h-.426v1.14h.426v-1.14zm-1.178 1.892H12.458v.465H57.79v-.465z"/>
        <path d="M23.738 44.375v1.544l.602-.602H11.503l.601.602V31.252l-.601.601 7.893-.039-.522-.887-.695 1.353a.601.601 0 0 0 .522.887h32.885a.601.601 0 0 0 .521-.887c-.27-.502-.54-.985-.81-1.485l-.522.887c2.663 0 5.326-.02 7.99-.04l-.602-.6v14.857l.601-.601H47.456l.602.601v-1.544a.589.589 0 1 0-1.178 0V45.9c0 .333.27.602.602.602h11.31c.332 0 .6-.27.6-.602V31.04a.601.601 0 0 0-.6-.6l-7.99.038a.601.601 0 0 0-.522.887c.271.503.54.985.81 1.486l.523-.887H18.68l.522.887.695-1.353a.601.601 0 0 0-.522-.887c-2.624 0-5.25.02-7.893.039a.601.601 0 0 0-.601.601v14.667c0 .333.269.602.601.602h12.834c.332 0 .602-.27.602-.602v-1.542a.589.589 0 0 0-1.178 0h-.003z"/>
        <path d="M24.317 46.893H11.483a.976.976 0 0 1-.974-.974V31.252c0-.538.436-.974.974-.975h.06c2.382-.018 4.84-.034 7.26-.037l.05-.095.055.095h.468a.938.938 0 0 1 .817.45c.165.273.193.607.076.903h29.697l-.024-.044a.982.982 0 0 1 .02-.966.958.958 0 0 1 .833-.476h.469l.046-.08.043.08 7.43-.036c.538 0 .974.436.975.975v14.853a.976.976 0 0 1-.974.975H47.476a.976.976 0 0 1-.974-.975v-1.544a.965.965 0 1 1 1.929 0v.57h9.36V32.02c-1.804.014-3.593.024-5.377.029l.026.046a.982.982 0 0 1-.02.967.958.958 0 0 1-.833.475h-.463l-.048.083-.044-.083h-31.76l-.048.095-.055-.095H18.7a.96.96 0 0 1-.836-.469.988.988 0 0 1-.062-.873l-5.324.027v12.723h10.885v-.57a.965.965 0 1 1 1.93 0v1.544a.976.976 0 0 1-.977.974zm-11.84-.752h10.885v-.45H12.48l-.002.45zm35.954-.02h9.36v-.45h-9.36v.45zm-24.317-1.176h.426v-.57a.214.214 0 0 0-.426 0v.57zm-12.853 0h.466v-12.72h-.465l-.001 12.72zm47.282-.02h.465V32.013h-.465v12.912zm-11.29 0h.426v-.57a.214.214 0 0 0-.426 0v.57zM19.66 32.787h30.962l-.244-.451h-30.49l-.228.451zm-7.181-1.765v.45l5.714-.028.231-.45c-1.988 0-3.99.014-5.945.028zm39.281-.172.245.451c1.922 0 3.838-.016 5.788-.03v-.45l-6.033.03z"/>
        <path d="m20.438 27.897-1.564 3.03.522-.29c-2.624 0-5.25.02-7.893.039l.601.601v-3.055l-.601.601h9.456a.589.589 0 0 0 0-1.177h-9.456a.601.601 0 0 0-.602.601v3.05c0 .332.27.601.602.601 2.624 0 5.25-.02 7.893-.039a.633.633 0 0 0 .521-.29l1.564-3.03c.348-.675-.675-1.274-1.022-.601l-.021-.041z"/>
        <path d="m20.444 27.064.102.203h.257c.466-.052.907.221 1.068.662a.952.952 0 0 1-.054.774l-1.569 3.04c-.18.298-.502.48-.85.483h-.047c-2.575.018-5.236.038-7.845.038a.976.976 0 0 1-.975-.975v-3.048c.001-.538.437-.973.975-.974h8.835l.103-.203zm-.493.955h-7.468v.425h7.248l.22-.425zm1.016 0h-.096a.162.162 0 0 0-.08.085l-.174.34h.342a.177.177 0 0 0 .16-.064.266.266 0 0 0 .037-.21.3.3 0 0 0-.189-.151zm-9.236 1.177h-.45v1.107h.45v-1.107zm7.618 0h-6.866v1.093c2.143-.015 4.242-.028 6.316-.031l.55-1.062zm.847 0-.548 1.062h.525l.547-1.062h-.524zm-.602 2.185.3-.592-1.243.691h.749a.275.275 0 0 0 .187-.099h.007zm-7.783.125-.53-.523v.3c0 .123.1.221.222.223h.308zm6.353-.03.244-.472c-1.955 0-3.92.016-5.93.03v.472c1.892 0 3.806-.01 5.685-.023l.001-.007zM58.166 28.202v2.857l.601-.601c-2.663 0-5.326.02-7.989.039l.522.29-1.567-2.898-.522.888h9.573a.589.589 0 1 0 0-1.178H49.21a.601.601 0 0 0-.522.887l1.564 2.895c.11.182.309.293.522.29 2.663 0 5.326-.02 7.99-.039.332 0 .6-.27.6-.601v-2.84a.589.589 0 0 0-1.177 0l-.022.011z"/>
        <path d="m49.747 27.127.054.1h8.983a.93.93 0 0 1 .953.885c.003.04.003.08 0 .12v2.806a.976.976 0 0 1-.974.975c-2.615.02-5.323.039-7.99.039a.977.977 0 0 1-.849-.483l-1.302-2.406h-.066l.034-.06-.236-.438a1.014 1.014 0 0 1 .045-.979.949.949 0 0 1 .812-.45h.472l.064-.109zm8.084.853h-7.624l.23.425h7.354v-.365l.034-.033.006-.027zm1.103.054a.24.24 0 0 0-.16-.054.19.19 0 0 0-.211.203v.15l-.02.02v.046h.242a.173.173 0 0 0 .182-.107.272.272 0 0 0 .021-.096v-.006a.236.236 0 0 0-.055-.15l.001-.006zm.054 2.05v-.947c-.066.014-.134.02-.203.02h-.242v.928h.445zm-9.004-.927h-.511l.525.971h.508l-.522-.971zm7.803 0h-6.944l.519.96c2.278-.016 4.36-.03 6.428-.032l-.003-.928zM51.443 31.3l-1.155-.642.3.55a.238.238 0 0 0 .192.092h.663zm6.348-.032v-.431c-1.954 0-3.91.015-6.023.03l.233.431c1.933-.004 3.88-.016 5.789-.03h.001z"/>
        <path d="M51.566 31.966H18.681l.522.887 2.256-4.36-.522.29h28.255l-.522-.29c.79 1.447 1.582 2.914 2.374 4.36.367.675 1.39.077 1.023-.601-.791-1.448-1.582-2.915-2.375-4.361a.602.602 0 0 0-.521-.29H20.919a.633.633 0 0 0-.522.29c-.752 1.448-1.504 2.914-2.255 4.36a.601.601 0 0 0 .521.888h32.884a.589.589 0 1 0 0-1.178l.02.005z"/>
        <path d="m19.223 33.63-.066-.112h-.495a.96.96 0 0 1-.84-.47.988.988 0 0 1-.016-.97l.236-.452-.02-.034h.038l.874-1.69 1.128-2.18v-.009c.18-.297.502-.48.85-.482h28.262a.977.977 0 0 1 .85.482c.4.726.796 1.454 1.187 2.184.391.73.787 1.456 1.187 2.18a.937.937 0 0 1-.01.95.911.911 0 0 1-.694.483.943.943 0 0 1-.3.01H19.28l-.057.11zm32.245-.864h.104a.3.3 0 0 0 .16-.108.278.278 0 0 0-.017-.238.171.171 0 0 0-.168-.078h-.354l.18.33a.179.179 0 0 0 .095.094zm-31.799 0h30.9l-.231-.426H19.89l-.22.426zm31.115-1.177h.492l-.726-1.337-.602-1.096h-.492l.725 1.333.603 1.1zm-30.504 0h29.649l-.402-.74-.92-1.693H21.54l-1.26 2.433zm-.847 0 1.259-2.433h-.525l-.562 1.087-.697 1.346h.525zm1.296-3.516-.287.555 1.167-.648h-.687a.274.274 0 0 0-.194.093h.001zm27.797-.093 1.132.628-.292-.535a.236.236 0 0 0-.19-.093h-.65zm-26.597.425h26.269l-.233-.425H22.147l-.22.425h.002zM25.167 22.105h20.3a.589.589 0 0 0 0-1.178h-20.3a.589.589 0 0 0 0 1.178z"/>
        <path d="M45.47 22.48h-20.3a.965.965 0 1 1 0-1.929h20.3a.965.965 0 1 1 0 1.93zm-20.3-1.177a.214.214 0 0 0 0 .426h20.3a.214.214 0 0 0 0-.426h-20.3z"/>
        <path d="M44.738 17.415v10.787l.601-.601H24.78l.602.601V17.415l-.602.601h20.56a.589.589 0 0 0 0-1.177H24.78a.601.601 0 0 0-.601.601V28.22c0 .332.27.601.601.601h20.56c.331 0 .6-.27.6-.601V17.434a.589.589 0 1 0-1.177 0l-.025-.02z"/>
        <path d="M24.78 16.46h20.56a.968.968 0 0 1 .974.974V28.22a.976.976 0 0 1-.975.974H24.78a.976.976 0 0 1-.974-.974V17.434c0-.538.437-.973.974-.974zm19.58.752H25.755v.425h18.604l.001-.425zm1.133.064a.251.251 0 0 0-.15-.045.19.19 0 0 0-.213.203v.203h.21a.173.173 0 0 0 .181-.104.272.272 0 0 0-.031-.257h.003zm.064 9.953v-8.864a1.053 1.053 0 0 1-.222.024h-.223v8.84h.445zm-20.554-8.84h-.451v8.84h.451v-8.84zm19.357 0H25.755v8.84h18.604l.001-8.84zm0 9.592H25.755v.465h18.604l.001-.465z"/>
        <path d="M36.785 24.844v3.339l.601-.602h-4.114l.601.602v-3.339l-.076.29s.058-.076.096-.135c.038-.058 0 0-.02.02.02-.02.04-.059.077-.077.059-.059.096-.116.15-.174l.097-.097c.02-.02.096-.076.039-.039.139-.109.296-.194.463-.25.077-.02.174-.06.27-.077.097-.018 0 0 .04 0h.424c.096 0-.136-.02.058 0 .04-.003.08.003.116.02.096.019.193.058.29.076.041.004.081.017.116.039-.077-.04.04.02.059.039.361.177.678.434.926.752a.587.587 0 0 0 .83-.83 3.475 3.475 0 0 0-2.45-1.293 2.79 2.79 0 0 0-2.336 1.08 1.07 1.07 0 0 0-.328.695v3.282c0 .332.27.601.602.601h4.11a.601.601 0 0 0 .602-.601v-3.339a.589.589 0 1 0-1.177 0l-.066.018z"/>
        <path d="M35.215 22.726h.186c1.026.075 1.98.56 2.645 1.344.23.18.36.46.35.752v3.338a.976.976 0 0 1-.974.974h-4.111a.976.976 0 0 1-.974-.974v-3.277c.017-.35.163-.68.41-.929a3.176 3.176 0 0 1 2.468-1.228zm1.669 1.303c-.45-.32-.979-.51-1.53-.547h-.14a2.418 2.418 0 0 0-1.877.941c-.173.21-.244.312-.244.451v2.327h.406v-2.133l-.065-.031.077-.29.089.012.009-.01.013-.02.627-.903v.35c.11-.065.228-.115.35-.151h.013l.08-.024c.068-.023.138-.042.208-.057a.516.516 0 0 1 .118-.017h.397a.645.645 0 0 1 .08 0h.019c.071 0 .142.011.209.035.051.012.098.025.14.039l.092.025a.612.612 0 0 1 .197.059l.025.012c.035.02.063.036.089.053l.14.075v-.16l.213.219a.914.914 0 0 1 .263-.255h.002zm-1.403.65h-.468l-.096.029-.117.034a1.179 1.179 0 0 0-.301.158l-.032.027-.015.012-.09.09a.827.827 0 0 0-.054.062c-.02.024-.042.05-.068.078v2.036h2.163v-2.052a2.152 2.152 0 0 0-.507-.34l-.054-.027-.015-.015h-.01c-.065-.014-.126-.032-.178-.047-.053-.015-.08-.024-.11-.03l-.048-.015zm2.164 2.53v-1.46a1.036 1.036 0 0 1-.483 0v1.455l.483.004zm-1.235.751h-2.164v.426h2.163l.001-.426zM53.942 18.938v-2.952a.614.614 0 0 0-.602-.601.59.59 0 0 0-.601.601v2.953c.006.33.272.595.601.602a.59.59 0 0 0 .602-.602v-.001z"/>
        <path d="M53.343 19.912a.988.988 0 0 1-.974-.974v-2.952a.964.964 0 0 1 .974-.974c.536.007.968.439.975.974v2.953a.964.964 0 0 1-.975.973zm0-4.149a.214.214 0 0 0-.222.223v2.953a.24.24 0 0 0 .222.223.214.214 0 0 0 .223-.223v-2.953a.24.24 0 0 0-.223-.223zM57.202 23.493h-7.179a1.465 1.465 0 0 0-1.061.25 2.857 2.857 0 0 0-1.082 3.008 3.42 3.42 0 0 0 .87 1.544c.184.246.451.418.751.483a9.07 9.07 0 0 0 1.255 0h6.157c.377.021.742-.136.985-.424.483-.47.812-1.076.946-1.737a2.968 2.968 0 0 0-1.353-3.069c-.638-.424-1.235.618-.602 1.023 1.274.81.887 2.335-.116 3.185l.424-.175H49.5l.424.175a2.317 2.317 0 0 1-.946-1.698c-.01-.306.07-.609.232-.87.135-.211.386-.347.502-.54.096-.15 0 .117-.174 0h7.68a.589.589 0 0 0 0-1.176l-.016.02z"/>
        <path d="M57.187 23.075c.11 0 .22.02.322.061a.902.902 0 0 1 .43.272 3.325 3.325 0 0 1 1.273 3.278 3.704 3.704 0 0 1-1.052 1.934 1.56 1.56 0 0 1-1.25.536h-6.154c-.125 0-.256 0-.394.012-.139.012-.301.013-.452.013a3.308 3.308 0 0 1-.469-.03 1.61 1.61 0 0 1-.974-.601 3.803 3.803 0 0 1-.96-1.716 3.215 3.215 0 0 1 1.222-3.396c.325-.245.729-.362 1.135-.327h7.054a.845.845 0 0 1 .269-.036zm-.917.793h-6.4a.923.923 0 0 0-.677.172c-.096.072-.186.15-.272.234h.645a.365.365 0 0 1 .185-.05h.265l.018.05h6.233a.985.985 0 0 1-.014-.258c.001-.05.006-.099.014-.148h.003zm-7.21.915-.372-.248a2.447 2.447 0 0 0-.451 2.126c.133.52.4.994.776 1.377a.955.955 0 0 0 .522.364c.122.016.245.024.368.023.134 0 .275 0 .41-.012a5 5 0 0 1 .429-.014h6.171a.836.836 0 0 0 .719-.314 2.99 2.99 0 0 0 .84-1.537 2.508 2.508 0 0 0-.434-1.976.902.902 0 0 1-.186.223l.31.225h-.322c.13.237.208.5.228.769.029.495-.092.988-.347 1.413h.15l-.552.56.033.164-.424.174-.088-.15h-6.97l-.087.15-.424-.174.03-.15-.602-.572h.15a2.335 2.335 0 0 1-.34-1.134v-.01c-.01-.379.092-.752.292-1.073.05-.074.108-.142.172-.204zm7.82.243h-6.983c-.057.062-.117.115-.173.166a1.144 1.144 0 0 0-.194.201 1.162 1.162 0 0 0-.173.662c.031.436.22.846.53 1.153h6.916c.345-.365.531-.851.518-1.353a1.182 1.182 0 0 0-.444-.829h.003z"/>
        <path d="M51.124 23.822a5.664 5.664 0 0 1 .463-2.406c.079-.167.17-.329.27-.483.077-.132.168-.255.271-.367.097-.115.212-.231.328-.347.04-.04.096-.077.15-.135.055-.059-.058.039 0 0 .06-.04.077-.059.116-.077a.782.782 0 0 1 .175-.096c.02 0 .212-.097.077-.04l.174-.058c.04 0 .212-.04.135-.04h.077c.059 0 .174.02.04 0 .059.005.118.018.174.04a.116.116 0 0 1 .076.02c.116.039-.058-.04 0 0 .12.063.236.134.348.212.076.058-.06-.06 0 0 .02 0 .039.039.058.058.077.059.136.136.212.193.056.053.106.111.15.174a.752.752 0 0 0 .077.096c.114.154.217.315.309.483.426.848.619 1.793.559 2.74a.601.601 0 0 0 1.203 0 5.413 5.413 0 0 0-2.16-4.922c-1.449-.83-2.896.328-3.61 1.582a6.284 6.284 0 0 0-.79 3.338.59.59 0 0 0 1.177 0l-.059.035z"/>
        <path d="M55.967 24.757a.988.988 0 0 1-.974-.974v-.015a4.982 4.982 0 0 0-.516-2.548 3.696 3.696 0 0 0-.278-.436l-.026-.031a.52.52 0 0 1-.067-.087.922.922 0 0 0-.092-.101 1.49 1.49 0 0 1-.122-.113.752.752 0 0 0-.066-.062l-.02-.016-.02-.02-.026-.027a2.922 2.922 0 0 0-.244-.15l-.061-.02-.045-.015h-.026a.716.716 0 0 1-.165.033l-.053.018a.845.845 0 0 1-.15.065 1.088 1.088 0 0 0-.08.051l-.03.018-.012.01-.054.038c-.032.029-.06.053-.085.073l-.034.028c-.113.113-.22.22-.3.322l-.023.025a1.7 1.7 0 0 0-.217.301c-.092.14-.174.285-.245.436v.008c-.217.482-.35.999-.392 1.526l.016.681a.902.902 0 0 1-.253.675.977.977 0 0 1-.699.283.941.941 0 0 1-.977-.941 6.616 6.616 0 0 1 .842-3.534 3.686 3.686 0 0 1 2.923-2.051c.423.001.838.115 1.203.33a4.436 4.436 0 0 1 1.889 2.34c.349.932.506 1.927.461 2.922a.995.995 0 0 1-.982.958zm-.222-.968a.226.226 0 1 0 .451-.027 5.05 5.05 0 0 0-1.971-4.572 1.654 1.654 0 0 0-.826-.231 3.007 3.007 0 0 0-2.27 1.672 5.875 5.875 0 0 0-.743 3.14v.012a.2.2 0 0 0 .225.195c.046 0 .09-.012.13-.036v-.12a6.015 6.015 0 0 1 .497-2.568 4.22 4.22 0 0 1 .293-.525c.089-.151.193-.293.312-.421.105-.125.224-.244.34-.36.028-.028.058-.054.09-.08l.03-.025a.465.465 0 0 1 .15-.113.752.752 0 0 1 .078-.05c.077-.055.161-.1.25-.132h.012l.038-.018a.601.601 0 0 1 .12-.04l.138-.059h.042l.044-.009-.029.009a.323.323 0 0 0-.067.04h.173v-.08h.15a.806.806 0 0 1 .244.043l.06.01c.09.015.174.054.242.115.065.037.126.078.188.119.045.02.087.047.123.08l.021.02.042.041v.014c.038.033.071.064.098.091.02.022.043.043.066.062l.021.016.02.02c.075.07.142.148.201.232l.056.067v.01c.124.166.237.342.337.524a5.73 5.73 0 0 1 .625 2.937l-.001-.003z"/>
        <g>
            <path d="M17.486 18.938v-2.952a.614.614 0 0 0-.602-.601.59.59 0 0 0-.601.601v2.953c.006.33.272.595.601.602a.59.59 0 0 0 .602-.602v-.001z"/>
            <path d="M16.887 19.912a.988.988 0 0 1-.974-.974v-2.952a.964.964 0 0 1 .974-.974c.536.007.968.439.975.974v2.953a.964.964 0 0 1-.975.973zm0-4.149a.214.214 0 0 0-.222.223v2.953a.24.24 0 0 0 .222.223.214.214 0 0 0 .223-.223v-2.953a.24.24 0 0 0-.223-.223zM20.726 23.493h-7.178a1.465 1.465 0 0 0-1.062.25 2.857 2.857 0 0 0-1.081 3.008 3.42 3.42 0 0 0 .868 1.547c.184.246.451.418.751.483a9.07 9.07 0 0 0 1.255 0h6.159c.376.021.741-.136.985-.424.482-.47.812-1.076.945-1.737a2.968 2.968 0 0 0-1.353-3.069c-.637-.424-1.234.618-.601 1.023 1.273.81.887 2.335-.116 3.185l.424-.175h-7.698l.424.175a2.317 2.317 0 0 1-.945-1.698c-.011-.306.07-.609.231-.87.136-.211.387-.347.502-.54.097-.15 0 .117-.174 0h7.681a.589.589 0 0 0 0-1.176l-.017.018z"/>
            <path d="M20.711 23.075c.11 0 .22.02.322.061a.902.902 0 0 1 .43.272 3.325 3.325 0 0 1 1.274 3.278 3.704 3.704 0 0 1-1.053 1.934 1.56 1.56 0 0 1-1.25.536H14.28c-.125 0-.256 0-.394.012s-.3.013-.451.013a3.308 3.308 0 0 1-.47-.03 1.61 1.61 0 0 1-.974-.601 3.803 3.803 0 0 1-.959-1.716 3.215 3.215 0 0 1 1.221-3.396c.325-.245.73-.362 1.135-.327h7.054a.845.845 0 0 1 .27-.036zm-.917.793h-6.4a.923.923 0 0 0-.676.172c-.096.072-.187.15-.273.234h.646a.365.365 0 0 1 .185-.05h.264l.018.05h6.233a.985.985 0 0 1-.013-.258c0-.05.005-.099.013-.148h.003zm-7.209.915-.373-.248a2.447 2.447 0 0 0-.45 2.126c.132.52.4.994.775 1.377a.955.955 0 0 0 .522.364c.122.016.245.024.368.023.134 0 .276 0 .41-.012a5 5 0 0 1 .43-.014h6.17a.836.836 0 0 0 .72-.314 2.99 2.99 0 0 0 .84-1.537 2.508 2.508 0 0 0-.435-1.976.902.902 0 0 1-.186.223l.31.225h-.322c.13.237.208.5.229.769.028.495-.093.988-.348 1.413h.15l-.551.566.033.164-.424.174-.089-.15h-6.97l-.087.15-.424-.174.03-.15-.601-.572h.15a2.335 2.335 0 0 1-.34-1.14v-.01c-.008-.38.097-.753.3-1.073.048-.073.102-.142.163-.204zm7.82.243H13.42c-.057.062-.117.115-.173.166a1.144 1.144 0 0 0-.194.201 1.162 1.162 0 0 0-.172.662c.03.436.219.846.529 1.153h6.917c.345-.365.53-.851.517-1.353a1.182 1.182 0 0 0-.443-.829h.003z"/>
            <path d="M14.648 23.822a5.664 5.664 0 0 1 .464-2.406c.078-.167.169-.329.27-.483.076-.132.167-.255.27-.367.097-.115.213-.231.329-.347.039-.04.096-.077.15-.135.054-.059-.059.039 0 0 .059-.04.077-.059.116-.077a.782.782 0 0 1 .174-.096c.02 0 .212-.097.077-.04l.173-.064c.039 0 .212-.04.135-.04h.077c.059 0 .174.02.039 0 .06.005.119.018.174.04a.116.116 0 0 1 .077.02c.116.039-.058-.04 0 0 .12.063.236.134.348.212.076.058-.06-.06 0 0 .02 0 .039.039.058.058.077.059.135.136.212.193.056.053.106.111.15.174a.752.752 0 0 0 .077.096c.114.154.217.315.308.483.426.848.62 1.793.56 2.74a.601.601 0 1 0 1.203 0 5.413 5.413 0 0 0-2.16-4.922c-1.448-.83-2.894.328-3.608 1.582a6.284 6.284 0 0 0-.791 3.338.59.59 0 0 0 1.177 0l-.059.04z"/>
            <path d="M19.492 24.757a.988.988 0 0 1-.975-.974v-.015a4.982 4.982 0 0 0-.515-2.548 3.696 3.696 0 0 0-.278-.436l-.026-.031a.52.52 0 0 1-.068-.087.925.925 0 0 0-.091-.101 1.49 1.49 0 0 1-.122-.113.752.752 0 0 0-.066-.062l-.021-.016-.02-.02-.02-.02a2.922 2.922 0 0 0-.243-.151l-.062-.02-.045-.015h-.025a.717.717 0 0 1-.166.033l-.053.018a.845.845 0 0 1-.15.065.742.742 0 0 0-.08.051l-.03.018-.012.01-.054.035c-.031.029-.06.053-.084.073l-.035.028c-.112.113-.22.22-.3.322l-.023.025a1.702 1.702 0 0 0-.216.301c-.092.14-.174.285-.246.436v.008c-.217.482-.35.999-.392 1.526l.017.681a.902.902 0 0 1-.253.675.977.977 0 0 1-.7.283.941.941 0 0 1-.977-.941 6.616 6.616 0 0 1 .842-3.534 3.686 3.686 0 0 1 2.915-2.055c.423 0 .838.114 1.202.329a4.436 4.436 0 0 1 1.89 2.34c.348.933.505 1.927.46 2.923-.018.53-.449.95-.978.96zm-.223-.968a.226.226 0 1 0 .451-.027 5.05 5.05 0 0 0-1.97-4.572 1.654 1.654 0 0 0-.826-.231 3.007 3.007 0 0 0-2.277 1.675 5.875 5.875 0 0 0-.743 3.14v.012a.2.2 0 0 0 .226.195.251.251 0 0 0 .135-.039v-.12a6.015 6.015 0 0 1 .498-2.568 4.22 4.22 0 0 1 .293-.525c.088-.151.193-.293.311-.421.105-.125.224-.244.34-.36a1.17 1.17 0 0 1 .09-.08l.03-.025a.465.465 0 0 1 .15-.113.752.752 0 0 1 .079-.05c.077-.055.16-.1.25-.132h.012l.037-.018a.601.601 0 0 1 .12-.04l.139-.059h.042l.043-.009-.028.009a.323.323 0 0 0-.068.04h.173v-.08h.15c.083.002.164.015.243.04l.06.01c.09.015.174.054.242.115.065.037.126.078.188.119.045.02.087.047.123.08l.023.02.04.04v.013c.038.033.071.065.098.093.02.022.043.043.066.062l.021.016.02.02c.074.07.142.148.201.232l.056.067v.01c.124.166.237.342.337.524a5.73 5.73 0 0 1 .627 2.94l-.002-.003z"/>
        </g>
        <path d="M35.8 4.734V.974a.614.614 0 0 0-.602-.601.59.59 0 0 0-.601.601v3.78c.006.329.272.594.601.6a.59.59 0 0 0 .602-.6v-.02z"/>
        <path d="M35.201 5.728a.988.988 0 0 1-.974-.975V.974A.964.964 0 0 1 35.2 0c.535.007.967.44.975.974v3.78a.964.964 0 0 1-.975.974zm0-4.98a.214.214 0 0 0-.222.226v3.78a.24.24 0 0 0 .222.222.214.214 0 0 0 .223-.223V.974A.24.24 0 0 0 35.2.75z"/>
        <path d="M27.558 17.144a9.971 9.971 0 0 1 4.979-10.305c3.357-1.654 6.91.308 8.781 3.242a10.537 10.537 0 0 1 1.486 7.067c-.096.752 1.081.752 1.177 0A11.046 11.046 0 0 0 38.172 5.72c-3.84-1.776-7.835.212-10.055 3.55a11.45 11.45 0 0 0-1.756 7.874c.096.752 1.273.752 1.177 0h.02z"/>
        <path d="M43.321 18.085a.917.917 0 0 1-.695-.3.865.865 0 0 1-.195-.694 10.115 10.115 0 0 0-1.43-6.812 7.368 7.368 0 0 0-5.919-3.675 5.332 5.332 0 0 0-2.379.567 8.45 8.45 0 0 0-3.927 4.161 10.75 10.75 0 0 0-.845 5.76l.054.423h-.113a.798.798 0 0 1-.15.27.917.917 0 0 1-.695.3 1.026 1.026 0 0 1-1.035-.893c-.403-2.84.242-5.73 1.814-8.13a9.137 9.137 0 0 1 7.407-4.384 7.385 7.385 0 0 1 3.117.7 10.225 10.225 0 0 1 4.902 4.94 12.33 12.33 0 0 1 1.122 6.872 1.026 1.026 0 0 1-1.033.895zM35.084 5.857a8.12 8.12 0 0 1 6.552 4.022 10.857 10.857 0 0 1 1.54 7.318.15.15 0 0 0 .014.102c.037.03.083.044.13.04a.278.278 0 0 0 .288-.236 11.579 11.579 0 0 0-1.052-6.45 9.48 9.48 0 0 0-4.54-4.585 6.639 6.639 0 0 0-2.803-.63 8.392 8.392 0 0 0-6.782 4.047 11.058 11.058 0 0 0-1.696 7.617.28.28 0 0 0 .289.239.183.183 0 0 0 .126-.048.15.15 0 0 0 .014-.101l-.054-.424h.027c-.179-1.962.15-3.938.955-5.737a9.192 9.192 0 0 1 4.28-4.523 6.078 6.078 0 0 1 2.712-.651z"/>
        <path d="M36.783 13.806v3.338l.602-.602H33.27l.602.602v-3.338l-.077.29s.059-.077.096-.135c.038-.06 0 0-.02.02.02-.02.04-.06.078-.078.058-.058.096-.115.15-.174l.096-.096c.02-.02.096-.077.04-.04.138-.108.295-.193.462-.25.077-.02.175-.06.271-.077.096-.018 0 0 .04 0h.423c.096 0-.135-.02.059 0 .04-.003.08.004.116.02.096.019.192.058.29.076.04.004.08.018.116.04-.077-.04.039.019.058.038.362.178.679.435.927.752a.587.587 0 0 0 .83-.83 3.475 3.475 0 0 0-2.451-1.293 2.79 2.79 0 0 0-2.336 1.081 1.07 1.07 0 0 0-.327.695v3.28c0 .332.269.6.601.6h4.111c.332 0 .602-.268.602-.6v-3.343a.589.589 0 1 0-1.178 0l-.066.024z"/>
        <path d="M35.213 11.687h.187c1.026.075 1.979.56 2.645 1.344.229.181.359.46.35.752v3.338a.976.976 0 0 1-.974.975h-4.112a.976.976 0 0 1-.974-.975v-3.276c.017-.35.164-.681.41-.93a3.176 3.176 0 0 1 2.468-1.228zm1.67 1.304c-.45-.32-.98-.51-1.53-.548h-.14a2.418 2.418 0 0 0-1.878.942c-.173.21-.244.31-.244.45v2.334h.406v-2.14l-.064-.03.076-.291.09.012.008-.01.014-.02.627-.902v.348c.11-.063.228-.114.35-.15h.012l.08-.024c.068-.023.138-.042.209-.057a.517.517 0 0 1 .117-.017h.397a.645.645 0 0 1 .081 0h.018c.072 0 .142.011.21.035.05.012.097.026.14.04l.091.025a.612.612 0 0 1 .197.058l.026.012c.034.02.063.036.088.053l.14.075v-.156l.214.218a.914.914 0 0 1 .263-.257h.001zm-1.404.65h-.467l-.097.028-.117.034a1.179 1.179 0 0 0-.3.158l-.032.027-.015.012-.09.09a.827.827 0 0 0-.055.062l-.067.078v2.04H36.4v-2.056a2.152 2.152 0 0 0-.507-.34l-.054-.027-.015-.015h-.009c-.066-.014-.126-.032-.179-.047-.052-.015-.08-.024-.11-.03l-.048-.015zm2.164 2.528v-1.458a1.036 1.036 0 0 1-.483 0v1.455l.483.003zm-1.234.752h-2.164v.426h2.162l.002-.426zM19.704 40.707h-3.59l.602.602v-3.593l-.601.602h3.589l-.602-.602v3.59c.007.329.272.595.602.601a.59.59 0 0 0 .601-.601v-3.59a.601.601 0 0 0-.601-.601h-3.59a.601.601 0 0 0-.601.601v3.59c0 .332.27.601.602.601h3.589a.614.614 0 0 0 .601-.601.59.59 0 0 0-.601-.599z"/>
        <path d="M19.704 42.28h-3.59a.976.976 0 0 1-.974-.974v-3.59c.001-.538.437-.973.975-.974h3.589c.538 0 .973.436.974.974v3.59a.964.964 0 0 1-.974.974zm-2.615-.752h1.668a.937.937 0 0 1-.028-.222v-.223h-1.64v.445zm2.392-1.203h.223c.075 0 .15.008.222.024v-1.658h-.45l.005 1.634zm-2.392 0h1.64v-1.634h-1.64v1.634zm-1.203 0h.451v-1.634h-.451v1.634zm1.203-2.392h1.64v-.451h-1.64v.45zM17.908 35.883a.589.589 0 1 0 0-1.177.589.589 0 0 0 0 1.177z"/>
        <path d="M17.908 36.26a.964.964 0 1 1 .955-.965.938.938 0 0 1-.955.964zm0-1.178a.214.214 0 1 0 .203.212.19.19 0 0 0-.203-.212zM55.163 40.707h-3.597l.602.602v-3.593l-.602.602h3.597l-.602-.602v3.59c.007.329.272.595.602.601a.59.59 0 0 0 .601-.601v-3.59a.601.601 0 0 0-.601-.601h-3.597a.601.601 0 0 0-.601.601v3.59c0 .332.269.601.601.601h3.597a.614.614 0 0 0 .601-.601.59.59 0 0 0-.601-.599z"/>
        <path d="M55.163 42.28h-3.597a.976.976 0 0 1-.974-.974v-3.59c0-.538.436-.973.974-.974h3.597c.538 0 .974.436.974.974v3.59a.964.964 0 0 1-.974.974zm-2.615-.752h1.668a.937.937 0 0 1-.027-.222v-.223H52.54l.008.445zm2.392-1.203h.223c.075 0 .15.008.222.024v-1.658h-.45l.005 1.634zm-2.392 0h1.64v-1.634H52.54l.008 1.634zm-1.203 0h.451v-1.634h-.451v1.634zm1.203-2.392h1.64v-.451H52.54l.008.45zM53.361 35.883a.589.589 0 1 0 0-1.177.589.589 0 0 0 0 1.177z"/>
        <path d="M53.361 36.26a.964.964 0 1 1 .955-.965.938.938 0 0 1-.955.964zm0-1.178a.214.214 0 1 0 .203.212.19.19 0 0 0-.203-.212zM.965 49.586h65.52c.887 0 1.813.06 2.682 0h.116a.589.589 0 0 0 0-1.177H3.763c-.887 0-1.813-.059-2.683 0H.965a.589.589 0 0 0 0 1.177z"/>
        <path d="M68.283 49.988c-.3 0-.612 0-.911-.014-.3-.013-.602-.012-.888-.012H.964a.965.965 0 0 1 0-1.929h.104c.265-.018.558-.025.903-.025.3 0 .612 0 .91.013.3.014.602.012.888.012h65.514a.965.965 0 0 1 0 1.93h-.104c-.265.016-.558.025-.896.025zM.965 48.785a.214.214 0 0 0 0 .426h65.52c.3 0 .6 0 .902.013.3.014.601.014.902.014.326 0 .601-.008.858-.026h.142a.214.214 0 0 0 0-.425H3.763c-.3 0-.601 0-.902-.014-.3-.014-.602-.014-.902-.014a12.2 12.2 0 0 0-.859.026H.965z"/>
    </g>
</svg>
