<?xml version="1.0" encoding="UTF-8"?>
<svg width="56px" height="50px" viewBox="0 0 56 50" version="1.1" xmlns="http://www.w3.org/2000/svg" xmlns:xlink="http://www.w3.org/1999/xlink">
    <title>BARODA</title>
    <g id="Page-1" stroke="none" stroke-width="1" fill="none" fill-rule="evenodd" opacity="0.900000036">
        <g id="011_UM_Personal-loan_City-Wise-V-5.0" transform="translate(-991.000000, -2469.000000)" fill="#A491C9">
            <g id="-City-Wise-Personal-loan-3" transform="translate(0.000000, 1630.000000)">
                <g id="returns-2-copy-3" transform="translate(157.000000, 30.000000)">
                    <g id="city-card-copy-21" transform="translate(807.000000, 779.000000)">
                        <g id="BARODA" transform="translate(27.000010, 30.000024)">
                            <g id="Group-3">
                                <path d="M34.6078162,4.8486314 C35.0087815,4.89282575 35.4195149,4.84720194 35.4091513,4.34200464 C35.4006936,3.92722109 35.1267125,3.60928391 34.6659478,3.5668764 C34.3051266,3.5336413 33.8116033,3.98737781 33.8422177,4.3391457 C33.8820045,4.79609851 34.203158,4.8990201 34.6078162,4.8486314 L34.6078162,4.8486314 Z M52.9354832,21.1701613 C53.3306116,21.1943431 53.7281224,21.2056597 53.7776773,20.6839044 C53.8122227,20.319867 53.2998781,19.7767888 52.9902795,19.9096101 C52.6754395,20.0445755 52.2930572,20.3570331 52.2267061,20.6554342 C52.1336716,21.0747444 52.5367812,21.2209074 52.9354832,21.1701613 L52.9354832,21.1701613 Z M43.0801453,21.2739168 C43.6147658,21.2765375 43.8823142,21.1114341 43.9013738,20.7846818 C43.9223393,20.425171 43.4868285,19.9725066 43.1118318,19.9833467 C42.6397504,19.9970458 42.3637443,20.3248701 42.3318195,20.7207132 C42.2923901,21.2092334 42.6934746,21.3029826 43.0801453,21.2739168 L43.0801453,21.2739168 Z M15.7361179,21.2699857 C16.1492338,21.3039356 16.6060674,21.2251958 16.5387634,20.7576411 C16.4973089,20.4694845 16.1038482,20.1397542 15.7925819,20.0081241 C15.4682121,19.8708953 14.9537232,20.3869328 14.985648,20.7515659 C15.0251966,21.203039 15.3386071,21.3196597 15.7361179,21.2699857 L15.7361179,21.2699857 Z M25.7121267,21.2739168 C26.2902268,21.2752271 26.5900574,21.0896347 26.5936311,20.7534718 C26.5973239,20.4045629 26.1289353,19.9597605 25.7643022,19.9831085 C25.2917444,20.0132464 25.033011,20.3435723 25.0126411,20.7484687 C24.9902461,21.1925563 25.34392,21.3226377 25.7121267,21.2739168 L25.7121267,21.2739168 Z M8.46394512,6.98330145 L9.85815149,6.98330145 L9.85815149,5.19480055 L8.46394512,5.19480055 L8.46394512,6.98330145 Z M18.0771076,36.698099 C19.956737,34.5250717 21.5679841,34.5229275 23.5410053,36.6253154 C23.6603657,35.6885383 22.5566984,34.7498553 21.2037084,34.6376421 C19.5195585,34.4979118 18.1095089,35.3902563 18.0771076,36.698099 L18.0771076,36.698099 Z M50.7750828,36.7669517 C50.8651392,36.0229143 50.4646503,35.4212281 49.709892,35.018595 C48.5079489,34.3775984 46.8738304,34.5315043 45.9176364,35.3759616 C45.4155362,35.8193345 45.2523388,36.2176792 45.4205394,36.6849956 C45.963141,35.5528581 46.8932473,35.1184194 48.0680305,35.1115103 C49.2662809,35.1044821 50.1874529,35.589786 50.7750828,36.7669517 L50.7750828,36.7669517 Z M9.15699815,4.20120437 C9.87137406,4.20203604 10.2482767,3.96450635 10.2559006,3.50850652 C10.2636435,3.03630607 9.65945564,2.4240179 9.17617683,2.41448812 C8.67776949,2.4047201 8.01616472,3.04333428 8.03486691,3.51624946 C8.052497,3.95926497 8.44750625,4.20036833 9.15699815,4.20120437 L9.15699815,4.20120437 Z M36.3685616,12.6737695 C36.3685616,13.394578 36.3605804,14.0060323 36.3753515,14.6170102 C36.3782105,14.7361324 36.4380098,14.917079 36.5253264,14.9600821 C36.9184297,15.1537749 37.3309499,15.307919 37.7817084,15.4951791 C37.7817084,14.9331605 37.7379905,14.4353488 37.7931441,13.9487346 C37.8566363,13.3873116 37.5982602,13.1039198 37.1189124,12.9363149 C36.8999658,12.8597193 36.6810191,12.7831237 36.3685616,12.6737695 L36.3685616,12.6737695 Z M42.5956752,25.3220469 L43.5814115,25.3220469 L43.5814115,22.2598913 L42.5956752,22.2598913 L42.5956752,25.3220469 Z M25.3103275,25.3148996 L26.2901077,25.3148996 L26.2901077,22.252744 L25.3103275,22.252744 L25.3103275,25.3148996 Z M15.2926259,25.305608 L16.276218,25.305608 L16.276218,22.2592957 L15.2926259,22.2592957 L15.2926259,25.305608 Z M52.4894897,25.3122789 L53.4697464,25.3122789 L53.4697464,22.1560167 L52.4894897,22.1560167 L52.4894897,25.3122789 Z M32.9148513,12.6015815 C32.4472966,12.8001582 32.0641996,12.9365531 31.7092154,13.1259574 C31.5581684,13.2064841 31.3717421,13.3924338 31.3635227,13.5395498 C31.3263566,14.2031796 31.347203,14.8700258 31.347203,15.5807089 C31.8395351,15.3653359 32.2730208,15.1880821 32.6926884,14.9825962 C32.7908451,14.93459 32.9021052,14.7925963 32.9050833,14.6907468 C32.9242619,14.0410543 32.9148513,13.3905279 32.9148513,12.6015815 L32.9148513,12.6015815 Z M33.8912961,14.6859819 L35.3940228,14.6859819 C35.3940228,13.7918506 35.4208253,12.925713 35.3827062,12.0625535 C35.3637657,11.6360959 35.0597658,11.3864158 34.6206814,11.3940396 C34.2086376,11.4010678 33.9201236,11.6484846 33.9028509,12.045519 C33.8653274,12.9096315 33.8912961,13.7764838 33.8912961,14.6859819 L33.8912961,14.6859819 Z M51.4496719,24.1012825 C51.1467441,22.0933585 49.9636223,21.0549701 48.0661246,21.0720046 C46.5329026,21.0857037 45.2414987,22.128976 45.0710348,23.4914959 C47.7462814,21.4954841 49.501309,21.6476031 51.4496719,24.1012825 L51.4496719,24.1012825 Z M38.1357396,49.1910411 L40.155695,49.1910411 C40.0412185,48.1325211 39.9686731,47.1203396 39.7953503,46.1257883 C39.7577076,45.9097006 39.3713943,45.6363151 39.122548,45.6103465 C38.9036014,45.587475 38.541589,45.8209546 38.4397395,46.0350172 C38.2595076,46.4137067 38.1795766,46.8598194 38.1475327,47.28449 C38.1014324,47.8947531 38.1357396,48.5110915 38.1357396,49.1910411 L38.1357396,49.1910411 Z M30.9818551,49.1975928 C30.8678552,48.124659 30.7979304,47.0917503 30.6172221,46.0786159 C30.5808898,45.8746787 30.106426,45.5959327 29.8660374,45.6242838 C29.624934,45.6526349 29.3902633,45.9990423 29.2199185,46.2513431 C29.1380815,46.3726095 29.2323072,46.601205 29.2101505,46.7764338 C29.1097305,47.5676435 28.9963261,48.3571856 28.8806584,49.1975928 L30.9818551,49.1975928 Z M23.8947982,23.6357529 C23.5333815,21.9237284 22.141081,20.9135721 20.4929061,21.1020234 C18.6394836,21.3138227 17.4919793,22.4346436 17.5162803,24.009201 C19.0854772,21.6322364 22.082592,21.5245499 23.8947982,23.6357529 L23.8947982,23.6357529 Z M28.8664829,17.3364512 C29.7210657,17.507868 30.3817174,16.9842068 30.3929149,16.1623826 C30.4061375,15.1924896 30.4022065,14.22212 30.3935105,13.2521079 C30.3885074,12.6974748 30.1055922,12.3683402 29.6568588,12.3575001 C29.2072915,12.3465408 28.8780378,12.6724592 28.8718434,13.2100577 C28.8560001,14.5751983 28.8664829,15.9405771 28.8664829,17.3364512 L28.8664829,17.3364512 Z M29.3737053,32.9146585 L39.6761089,32.9146585 L39.6761089,32.342038 L29.3737053,32.342038 L29.3737053,32.9146585 Z M37.8666425,12.190729 C38.3932818,11.8590927 38.8521406,11.5699831 39.336968,11.2646729 C36.1335335,9.95039751 32.9424876,9.94706209 29.7783634,11.2596697 C30.281893,11.5740333 30.7655292,11.8758889 31.2690588,12.1902525 C31.7033784,12.0545723 32.2151274,11.910077 32.713773,11.7293686 C32.8594595,11.6765975 33.0059798,11.5431806 33.0869829,11.4077387 C33.8849826,10.073689 35.425471,10.0916765 36.2220413,11.4439518 C36.3006619,11.5774878 36.4487308,11.7029235 36.5929878,11.7590301 C37.0323105,11.9294939 37.4855706,12.0642212 37.8666425,12.190729 L37.8666425,12.190729 Z M40.4542152,17.3711157 C40.4542152,15.9397432 40.4717262,14.5382704 40.4440898,13.1376314 C40.4351557,12.6862774 39.9325791,12.3159264 39.4780087,12.361312 C38.9516076,12.4138449 38.7307551,12.7469106 38.7311124,13.2541329 C38.7318272,14.1649414 38.72194,15.0758689 38.7337331,15.9865582 C38.7440967,16.7870595 39.5549616,17.4714166 40.4542152,17.3711157 L40.4542152,17.3711157 Z M16.977014,36.6393718 C17.1635594,36.1008203 17.3391455,35.593717 17.5173524,35.0795855 L15.5338484,35.0795855 L15.5338484,40.7630254 L17.7498789,40.7630254 L17.7498789,37.5831771 L16.3966506,37.5831771 L16.3966506,36.6872589 C16.6256035,36.6683185 16.8195345,36.6523561 16.977014,36.6393718 L16.977014,36.6393718 Z M51.1239918,40.7679094 L53.6100723,40.7679094 L53.6100723,35.0919743 L51.3760544,35.0919743 C51.5666499,35.622902 51.7439038,36.1166635 51.9311639,36.6384188 C52.1022234,36.6542621 52.3102108,36.673679 52.5018784,36.6915473 L52.5018784,37.6459545 L51.1239918,37.6459545 L51.1239918,40.7679094 Z M24.1090991,37.5954467 L24.1090991,40.7749376 L26.571117,40.7749376 L26.571117,35.1049586 L24.1579392,35.1049586 C24.3376946,35.6285007 24.5025598,36.1082059 24.6808857,36.6275787 C24.8754123,36.6491398 25.1200893,36.6764188 25.3608353,36.7031022 L25.3608353,37.5954467 L24.1090991,37.5954467 Z M42.3187161,40.7661226 L44.7766838,40.7661226 L44.7766838,37.5956849 L43.5447219,37.5956849 L43.5447219,36.6823749 C43.8212045,36.6611712 44.0524208,36.643422 44.2189536,36.6306759 C44.4096683,36.0769958 44.5783453,35.5872844 44.7488092,35.0920934 L42.3187161,35.0920934 L42.3187161,40.7661226 Z M33.1916913,49.1738875 L35.8564552,49.1738875 C35.8564552,48.7841196 35.8459724,48.41222 35.8583611,48.0411543 C35.896242,46.9122331 35.8595524,45.7905784 35.5935525,44.6857199 C35.4709757,44.1767107 35.1991388,43.8168425 34.6493898,43.7566857 C34.135854,43.7003409 33.7351268,43.9195258 33.5565626,44.3962529 C33.3891959,44.8430803 33.2290957,45.3192118 33.2077728,45.7889107 C33.1575032,46.8968664 33.1916913,48.008634 33.1916913,49.1738875 L33.1916913,49.1738875 Z M39.145896,25.8086611 C39.145896,24.2363671 39.1589994,22.6946874 39.1299336,21.1539607 C39.1261217,20.9532398 38.9362409,20.7272649 38.7801908,20.5625189 C36.6440913,18.3083693 32.5592715,18.3319555 30.4377049,20.6087383 C30.3096485,20.7460862 30.1563382,20.9353714 30.1540749,21.1024999 C30.1323946,22.661214 30.1412097,24.2202856 30.1412097,25.8086611 L39.145896,25.8086611 Z M0.977590569,35.8406574 L14.283899,35.8406574 L14.283899,34.6627769 L0.977590569,34.6627769 L0.977590569,35.8406574 Z M39.0756139,19.4287137 C39.0637016,17.3320436 36.9648874,15.5822575 34.5811328,15.6309784 C32.1648578,15.680295 30.1491909,17.4188837 30.1836172,19.4239488 C34.1032145,17.4045891 35.5928377,17.4010154 39.0756139,19.4287137 L39.0756139,19.4287137 Z M29.9644323,44.5476572 C31.0790589,44.7108547 31.9597294,45.7436442 31.8502561,47.0083648 C31.7973658,47.6188661 31.83072,48.2380634 31.8506134,48.8524957 C31.8544253,48.9730474 31.9754535,49.0897872 32.0424002,49.2083138 C32.109466,49.0878812 32.2320428,48.968759 32.2345443,48.8471352 C32.2519362,48.0141136 32.2201305,47.1797816 32.2514597,46.3475939 C32.2792152,45.6126098 32.1530647,44.894422 32.5766633,44.1582467 C33.1507133,43.1605982 33.8845061,42.6882786 34.9662549,42.8240779 C35.8857593,42.9395074 36.7640473,44.3147733 36.7925175,45.0798953 C36.8382605,46.3082835 36.7990693,47.539769 36.8126492,48.7698249 C36.8141978,48.9169408 36.9204548,49.0629847 36.9782291,49.209505 C37.0475582,49.0565521 37.1722791,48.9051477 37.1765675,48.750408 C37.1974139,47.99696 37.1837149,47.2426782 37.1880033,46.4887537 C37.1889563,46.3319888 37.1561976,46.1286472 37.2381537,46.0263212 C37.7391818,45.401287 38.0755829,44.5599268 39.069896,44.6116259 L39.069896,42.4880342 L29.9644323,42.4880342 L29.9644323,44.5476572 Z M5.50494937,20.5467948 L12.506953,20.5467948 L12.506953,17.5100122 L5.50494937,17.5100122 L5.50494937,20.5467948 Z M23.1091873,41.7663918 L23.1091873,37.658105 C22.9116826,37.6211771 22.7290683,37.586989 22.554316,37.5543495 C22.5038082,36.6598608 22.2413819,36.2518672 21.3922788,36.1469206 C20.835859,36.0781871 20.1339909,36.1097544 19.7028876,36.40077 C19.2533204,36.7041743 18.8381795,37.3508888 18.7824303,37.8864622 C18.6503237,39.1557094 18.7399036,40.4479472 18.7399036,41.7663918 L23.1091873,41.7663918 Z M50.1511207,41.7702037 C50.1511207,40.6743985 50.0850078,39.6226685 50.1736348,38.584161 C50.2355783,37.8575155 49.7194218,37.3729264 49.6232901,36.7334783 C49.6154281,36.6815411 49.5632525,36.6296038 49.5197729,36.5908891 C48.8818735,36.0214849 48.1453409,35.9410774 47.3538929,36.1700303 C46.6669151,36.3687261 46.2636864,36.7907761 46.3440939,37.5578041 C46.1322946,37.5999733 45.9511097,37.6360673 45.8047085,37.6651332 L45.8047085,41.7702037 L50.1511207,41.7702037 Z M5.50006536,16.4700753 L12.5143386,16.4700753 L12.5143386,13.1789668 L5.50006536,13.1789668 L5.50006536,16.4700753 Z M5.50602147,12.1474876 L12.5062383,12.1474876 L12.5062383,7.9789249 L5.50602147,7.9789249 L5.50602147,12.1474876 Z M41.0653122,49.1958059 C41.1193937,49.1924705 41.173356,49.1891351 41.2274375,49.1859188 L41.2274375,40.3544362 L27.790452,40.3544362 C27.5455367,41.5427994 27.6782388,48.9626838 28.0338186,49.2638247 C28.0338186,48.327405 28.0163077,47.4648411 28.0447779,46.6037066 C28.0529973,46.3581957 28.1506775,46.0895751 28.2826649,45.8788479 C28.733066,45.1603028 29.1331975,44.4605789 29.0045455,43.540598 C28.9129406,42.886498 28.9867963,42.2092882 28.9867963,41.524812 L40.0605163,41.524812 C40.0605163,42.5094762 40.0450304,43.4573316 40.0717138,44.4038767 C40.0782655,44.6353312 40.1773752,44.8956132 40.3132936,45.0858514 C40.7241462,45.6606161 41.1135567,46.2119137 41.0260018,46.9891861 C40.9620332,47.557399 41.0098012,48.1384772 41.0158764,48.7138375 C41.0176633,48.8746525 41.0480394,49.0351101 41.0653122,49.1958059 L41.0653122,49.1958059 Z M29.0886458,10.4987171 C32.9027008,8.89449822 36.6406367,8.92535087 40.3491494,10.6772812 C40.4860208,8.39740123 37.7784921,5.89881283 35.0866875,5.8048254 C31.9957043,5.69690068 29.1368903,7.91150173 29.0886458,10.4987171 L29.0886458,10.4987171 Z M5.51447914,27.0989929 L12.4982571,27.0989929 L12.4982571,21.5462301 L5.51447914,21.5462301 L5.51447914,27.0989929 Z M30.1885012,31.3243769 L39.098128,31.3243769 L39.098128,26.823225 L30.1885012,26.823225 L30.1885012,31.3243769 Z M0.990455768,40.7817276 L14.2786577,40.7817276 L14.2786577,36.8742808 L0.990455768,36.8742808 L0.990455768,40.7817276 Z M23.6972936,26.3665105 C23.366253,24.1419031 22.4902282,23.1293643 20.9252006,23.0776653 C19.3166934,23.0245368 18.4541294,23.9592888 17.926418,26.3931938 L15.2138862,26.3931938 C15.3145444,26.9761779 15.4627325,27.4600524 15.4704754,27.9461901 C15.4990647,29.7714998 15.4810773,31.5976433 15.4831024,33.4234294 C15.4833406,33.6329654 15.500256,33.8425014 15.5172904,34.2297677 C16.9319858,34.0903947 18.2767565,33.9213603 19.6266494,33.8383321 C20.4838528,33.7856801 21.3838211,33.7149215 22.2025481,33.9112349 C23.6660836,34.2622881 25.1084153,33.9822317 26.5558693,34.1155295 L26.5558693,26.3665105 L23.6972936,26.3665105 Z M0.993314701,33.6455924 L14.2835417,33.6455924 L14.2835417,28.2512621 L0.993314701,28.2512621 L0.993314701,33.6455924 Z M50.9663931,26.3788992 C50.531597,24.0817464 49.7038168,23.069565 48.1572531,23.1063738 C47.561642,23.1205493 46.9087332,23.3558157 46.3966268,23.6747058 C45.4633042,24.2560222 45.2191037,25.252003 45.2413796,26.3853318 L42.3413493,26.3853318 L42.3413493,34.1008775 C42.9533992,34.1008775 43.5256623,34.1037364 44.0979254,34.1002818 C45.0842574,34.0942066 46.0510532,34.0645452 47.0364322,33.833329 C47.8067955,33.6526206 48.6692403,33.8476236 49.4892776,33.8993227 C50.8570389,33.985448 52.2236089,34.0905138 53.6005426,34.1883132 L53.6005426,26.3788992 L50.9663931,26.3788992 Z M26.5653991,49.1915175 L26.5653991,41.7966489 L24.1015944,41.7966489 C24.0847982,42.121376 24.070027,42.4096518 24.0552559,42.696498 L17.8115842,42.696498 C17.7937159,42.370937 17.7788256,42.098981 17.762625,41.8030815 L15.5292027,41.8030815 L15.5292027,49.1915175 L26.5653991,49.1915175 Z M51.1274463,41.7906927 C51.1075529,42.107677 51.0894463,42.3953571 51.0694338,42.7121031 L44.8559001,42.7121031 C44.8368405,42.3883289 44.8200443,42.100887 44.8020568,41.7927178 L42.3345593,41.7927178 L42.3345593,49.1940191 L53.6073325,49.1940191 L53.6073325,41.7906927 L51.1274463,41.7906927 Z M0.990932257,49.1910411 L14.2950965,49.1910411 L14.2950965,41.7972445 L0.990932257,41.7972445 L0.990932257,49.1910411 Z M40.1228172,21.0312648 L40.1228172,31.2794679 C40.2930429,31.3306904 40.4561212,31.3797688 40.6082402,31.4256308 L40.6082402,33.8571534 L28.4358561,33.8571534 L28.4358561,31.4128847 C28.7055488,31.3710728 28.9329531,31.3358127 29.1428464,31.3032923 L29.1428464,21.0331708 C28.8718434,21.0025564 28.6408654,20.9763495 28.4008342,20.9491896 L28.4008342,20.0848388 C28.6811287,20.0512464 28.9128214,20.0233718 29.1424891,19.9958545 C29.1949028,19.4528955 29.2438621,18.9460305 29.2955611,18.4106953 L27.7470915,18.4106953 L27.7470915,39.3352266 L41.2925973,39.3352266 L41.2925973,18.4021185 L39.9585477,18.4021185 C40.0259709,18.9590148 40.0889865,19.4799362 40.1511683,19.9944251 C40.3992999,20.0364752 40.6066916,20.0714972 40.8080082,20.1055661 L40.8080082,20.9509764 C40.5707167,20.9787319 40.3776196,21.0013651 40.1228172,21.0312648 L40.1228172,21.0312648 Z M0.0180611497,50 C0.0122241613,47.5981388 0.0026943843,45.1962777 0.00138403997,42.7942974 C-0.0012366487,37.8708572 0.000669306696,32.9474171 0.000669306696,28.0239769 C0.000669306696,27.7926416 0.000669306696,27.5613062 0.000669306696,27.2694568 L4.49014724,27.2694568 L4.49014724,21.5593336 C4.23522571,21.5394402 4.00520072,21.5215718 3.74491868,21.5014402 L3.74491868,20.6193402 C3.97375245,20.5952775 4.2185486,20.5695471 4.49360179,20.5407195 L4.49360179,17.4985765 C4.2324859,17.470821 4.0024609,17.4462818 3.74420395,17.4187646 L3.74420395,16.545837 C3.97482455,16.5241568 4.20365832,16.5027148 4.47942624,16.4768653 L4.47942624,13.1782521 C4.25106896,13.1488289 4.00412862,13.1170233 3.73717574,13.082597 L3.73717574,12.2239641 C3.98876185,12.1954938 4.21902509,12.1694061 4.5017021,12.1373622 L4.5017021,7.02475598 L7.45783892,7.02475598 C7.38136246,5.99137079 7.66701752,5.0154025 7.21304277,4.05634957 C6.85746297,3.30480753 7.25390169,2.21686437 8.12635277,1.78719055 C8.68432121,1.51237561 8.73566289,1.16025035 8.69921149,0.66768 C8.68348736,0.455761584 8.6965908,0.241698969 8.6965908,0 L9.58643373,0 C9.60585065,0.07969276 9.6431359,0.154739754 9.6388475,0.227285181 C9.59727385,0.943209677 9.63753715,1.51332858 10.4063519,1.98826884 C11.3078688,2.54516519 11.2664143,3.32565392 10.9719442,4.40108925 C10.754427,5.19575353 10.860684,6.07904474 10.819706,6.98758985 L13.4925702,6.98758985 L13.4925702,27.2351496 L14.2803254,27.2351496 L14.2803254,26.4008177 C14.0978301,26.369012 13.9245073,26.338755 13.7077049,26.3008741 L13.7077049,25.4630876 C13.8981813,25.4256832 14.0850841,25.3891127 14.312131,25.344561 C14.312131,24.1442856 14.312131,22.9560415 14.3118928,21.7677975 C14.3118928,21.7480232 14.3135605,21.7253899 14.3051028,21.7089511 C13.7091344,20.5623998 14.0948521,19.7421242 15.1434849,19.122927 C15.2309206,19.0712279 15.2704692,18.8907578 15.2807137,18.7659177 C15.3015601,18.5131404 15.2869081,18.2575041 15.2869081,17.942545 C15.6018672,17.925987 15.8684627,17.9119306 16.1323184,17.8981124 C16.1736538,17.9824509 16.2253529,18.0366515 16.219635,18.083943 C16.1462557,18.6984945 16.3418544,19.1072028 16.890293,19.4949456 C17.6255153,20.0145567 17.6773335,20.6229139 17.2588572,21.7476658 C18.2905747,20.5469139 19.5049065,20.1199799 20.8648057,20.1328451 C22.2694948,20.1460677 23.435463,20.7054656 24.328284,21.8460607 C24.2926664,21.7214589 24.2702715,21.5910201 24.2194063,21.47297 C23.8963468,20.7241678 24.0107042,20.1137855 24.59345,19.5203187 C25.2704216,18.8309584 25.2704216,18.8309584 25.395619,17.9485011 L26.1764651,17.9485011 C26.5008349,18.3114665 25.9427473,19.0197671 26.7580197,19.2612279 L26.7580197,17.4684386 C27.1698252,17.437705 27.5168282,17.4118555 27.9146964,17.3821941 C27.9146964,16.8792601 27.90743,16.4058684 27.9160068,15.932715 C27.9465021,14.2468975 27.9596055,12.5601269 28.0216682,10.8753815 C28.1132732,8.38799058 29.8983195,6.10215444 32.3798734,5.23744631 C32.5823812,5.16692596 32.7856037,5.09854981 32.9845378,5.0304119 C32.751773,3.95938409 32.9902556,3.40522756 33.8760484,2.77554755 C34.0186377,2.67417454 34.0992834,2.4400994 34.1396659,2.25260103 C34.1843367,2.0448519 34.1499104,1.82006828 34.1499104,1.55168594 L35.0567878,1.55168594 C35.0700103,1.67426269 35.1034837,1.79064509 35.091095,1.90190524 C35.0386812,2.37100851 35.1569696,2.68751623 35.620355,2.95113369 C36.2674268,3.31922132 36.4308625,3.94365996 36.3346118,5.01599811 C37.4531693,5.3135654 38.4796454,5.81471255 39.3392313,6.60782824 C40.7261712,7.88731992 41.4133873,9.47915004 41.4100518,11.3693813 C41.4064782,13.3525279 41.409218,15.3356745 41.409218,17.3667082 C41.6905847,17.4005389 41.9377632,17.4303195 42.2792866,17.4715357 L42.2792866,19.1301934 C42.3651737,19.1396041 42.45118,19.1490147 42.5370671,19.1584254 C42.5926972,18.7727077 42.6483272,18.3871091 42.711462,17.9496923 L43.5567532,17.9496923 C43.5712861,18.095617 43.6020197,18.2123568 43.5909413,18.3249273 C43.5454366,18.7874788 43.6562203,19.0933847 44.1098377,19.3785632 C44.897712,19.8739925 45.0383953,20.6655596 44.6523202,21.5132333 C44.606339,21.6144872 44.5903767,21.729321 44.5983579,21.8817974 C45.4099375,20.8014781 46.4810844,20.2108701 47.8046513,20.1449956 C49.1166634,20.0797166 50.3184874,20.405635 51.3891578,21.4604621 C50.9987943,20.2999736 51.4522926,19.6205005 52.278286,19.0824254 C52.4081292,18.9978487 52.4896088,18.7867641 52.5233204,18.619993 C52.564894,18.4139116 52.5332075,18.1929399 52.5332075,17.9409964 L53.4098279,17.9409964 C53.4344862,18.0229525 53.4802291,18.0974039 53.4743921,18.1675668 C53.4329376,18.6650212 53.5238279,19.0145258 54.0325988,19.3225758 C54.7741346,19.7714283 54.9038587,20.5508449 54.5645986,21.3692145 C54.5198087,21.4771393 54.4625109,21.5920922 54.4617962,21.7040671 C54.4544106,22.910656 54.4571504,24.1172448 54.4571504,25.3361033 C54.7385171,25.3797021 54.9699715,25.4155578 55.2334698,25.4564168 L55.2334698,26.2928929 C55.0238148,26.3325606 54.8342913,26.3684164 54.5934262,26.4140402 C54.5934262,26.6638395 54.5934262,26.897319 54.5934262,27.1306794 C54.5934262,34.4960058 54.5936644,41.8613322 54.5927115,49.2266586 C54.5927115,49.4844391 54.5818713,49.7422195 54.5760344,50 L0.0180611497,50 Z" id="Fill-1"></path>
                            </g>
                            <path d="M49.3185636,27.7049795 C49.5838488,26.9088858 49.2941436,26.2453751 48.9723945,25.616648 C48.6151469,24.9185919 47.5849781,24.8778521 47.2031914,25.5562531 C46.8395112,26.2027293 46.5343201,26.9010237 46.8105646,27.7049795 L49.3185636,27.7049795 Z M50.2844065,28.6508099 L45.785637,28.6508099 C45.785637,27.7826472 45.6742578,26.9161523 45.8257812,26.0983783 C45.9223893,25.5773377 46.3542074,25.0773818 46.7396868,24.6653381 C46.9866272,24.4012441 47.4085581,24.2257771 47.7774795,24.1649056 C48.7991908,23.996586 49.5571654,24.4972566 50.002206,25.5349302 C50.3637419,26.3780772 50.4591588,27.3908543 50.2844065,28.6508099 L50.2844065,28.6508099 Z" id="Fill-53"></path>
                            <polygon id="Fill-54" points="45.090011 31.0064159 50.9596389 31.0064159 50.9596389 30.1387297 45.090011 30.1387297"></polygon>
                            <polygon id="Fill-55" points="48.8994202 33.1097568 49.7769935 33.1097568 49.7769935 31.868146 48.8994202 31.868146"></polygon>
                            <polygon id="Fill-55-Copy" points="51.8994202 33.1097568 52.7769935 33.1097568 52.7769935 31.868146 51.8994202 31.868146"></polygon>
                            <path d="M46.2515121,33.1789907 L46.2515121,31.8746024 L47.1137187,31.8746024 C47.1137187,32.2599628 47.1688723,32.6639062 47.0776246,33.0315174 C47.052609,33.1324139 46.5894618,33.1246709 46.2515121,33.1789907" id="Fill-56"></path>
                            <polygon id="Fill-57" points="43.599673 33.1010609 44.4677165 33.1010609 44.4677165 31.876961 43.599673 31.876961"></polygon>
                            <path d="M22.3127838,27.696772 C22.1187337,26.950114 22.0216491,26.28434 21.7582699,25.6924217 C21.6353358,25.4160582 21.1986337,25.1420771 20.8895116,25.124447 C20.5806277,25.106936 20.1153363,25.3296945 19.9619069,25.5903339 C19.5970356,26.2100077 19.2841016,26.8978193 19.5674933,27.696772 L22.3127838,27.696772 Z M18.5494749,28.641292 C18.5494749,27.7914742 18.4411928,26.94523 18.5878322,26.1456817 C18.6845595,25.6177321 19.0860013,25.1000269 19.4685027,24.6861964 C19.7252111,24.4082842 20.1726341,24.2278141 20.5607343,24.165394 C21.5874486,24.0001715 22.2170095,24.5525412 22.791536,25.5382775 C23.3921502,26.5688038 22.8923134,27.5950417 23.1602192,28.641292 L18.5494749,28.641292 Z" id="Fill-58"></path>
                            <polygon id="Fill-59" points="17.9444412 30.9943846 23.8386083 30.9943846 23.8386083 30.1327736 17.9444412 30.1327736"></polygon>
                            <path d="M22.6197022,33.1042772 L21.8126492,33.1042772 C21.5309252,31.9652306 21.6456398,31.7844031 22.6197022,31.8804156 L22.6197022,33.1042772 Z" id="Fill-60"></path>
                            <polygon id="Fill-61" points="19.1092182 33.0987976 19.9988229 33.0987976 19.9988229 31.872077 19.1092182 31.872077"></polygon>
                            <polygon id="Fill-62" points="16.4759026 33.0970107 17.3500214 33.0970107 17.3500214 31.8731491 16.4759026 31.8731491"></polygon>
                            <polygon id="Fill-63" points="24.4207586 33.1012991 25.2891595 33.1012991 25.2891595 31.8768419 24.4207586 31.8768419"></polygon>
                            <polygon id="Fill-64" points="1.70772634 39.7264001 2.58244075 39.7264001 2.58244075 38.468946 1.70772634 38.468946"></polygon>
                            <polygon id="Fill-65" points="5.29008863 39.7100804 6.1441949 39.7100804 6.1441949 38.4472658 5.29008863 38.4472658"></polygon>
                            <polygon id="Fill-66" points="8.85803713 39.7229456 9.72917787 39.7229456 9.72917787 38.4587015 8.85803713 38.4587015"></polygon>
                            <polygon id="Fill-67" points="12.4377787 39.7385506 13.2927189 39.7385506 13.2927189 38.4566764 12.4377787 38.4566764"></polygon>
                            <polygon id="Fill-68" points="10.430093 11.2023481 11.2876538 11.2023481 11.2876538 9.65185342 10.430093 9.65185342"></polygon>
                            <polygon id="Fill-69" points="8.41740407 11.1878152 9.29092725 11.1878152 9.29092725 9.6645995 8.41740407 9.6645995"></polygon>
                            <polygon id="Fill-70" points="6.39232646 11.1878152 7.26584965 11.1878152 7.26584965 9.6645995 6.39232646 9.6645995"></polygon>
                            <path d="M36.8080034,22.0433867 L36.8080034,24.5868842 L37.7602664,24.5868842 C37.9514575,22.6220824 37.7962413,22.1943145 36.8080034,22.0433867 L36.8080034,22.0433867 Z M31.4582249,24.6035613 L32.7206821,24.6035613 C32.7206821,23.9318311 32.7321178,23.2834489 32.7140112,22.6360197 C32.7082934,22.4356561 32.6300301,22.0705466 32.5718984,22.0678067 C32.3334158,22.0569666 32.0364441,22.0913929 31.8625257,22.2335057 C31.6700242,22.3907471 31.5015854,22.6746153 31.4759741,22.9192923 C31.4191528,23.461894 31.4582249,24.0143828 31.4582249,24.6035613 L31.4582249,24.6035613 Z M35.7754521,24.606182 C35.7754521,23.521336 35.8233392,22.4547157 35.7552013,21.3956001 C35.7214897,20.8699138 35.2820479,20.5927164 34.7415904,20.5781835 C34.2259104,20.5642462 33.737271,20.9172053 33.7103494,21.4506346 C33.6578165,22.4928348 33.6949827,23.5395617 33.6949827,24.606182 L35.7754521,24.606182 Z M38.7500528,25.5491534 L30.386125,25.5491534 C30.4643883,24.4675237 30.4455669,23.3781511 30.6500998,22.3326154 C30.8142502,21.4932803 31.5481621,21.1394873 32.3926195,21.0459764 C32.5795223,21.0252491 32.8201491,20.8825407 32.9140174,20.7238699 C33.7857538,19.2492561 35.6832515,19.2378203 36.5593954,20.7031427 C36.6592198,20.870152 36.8837652,21.0262021 37.0750754,21.0643212 C38.1297835,21.2743337 38.7402848,21.9728663 38.7488616,23.0523518 C38.7551751,23.8608343 38.7500528,24.6694359 38.7500528,25.5491534 L38.7500528,25.5491534 Z" id="Fill-71"></path>
                        </g>
                    </g>
                </g>
            </g>
        </g>
    </g>
</svg>