<svg width="62" height="60" viewBox="0 0 62 60" xmlns="http://www.w3.org/2000/svg" xmlns:xlink="http://www.w3.org/1999/xlink">
    <defs>
        <path id="lvmu5ladba" d="M0 60h61.726V0H0z"/>
    </defs>
    <g fill="none" fill-rule="evenodd" opacity=".9">
        <path fill="#C99E95" d="M0 60h61.726v-1.925H0z"/>
        <path fill="#C99E95" d="M4.563 59.242H2.638V41.187h17.535v1.925H4.563zM1.1 40.682h19.073v-1.925H1.1z"/>
        <path d="M9.84 51.74h2.912v-4.89H9.84v4.89zm-1.925 1.925h6.762v-8.741H7.915v8.741zM58.319 59.242h-1.925v-16.13h-15.61v-1.925h17.535zM40.784 40.682h19.074v-1.925H40.784z" fill="#C99E95"/>
        <path d="M47.812 51.74h2.912v-4.89h-2.912v4.89zm-1.925 1.925h6.762v-8.741h-6.762v8.741zM18.36 58.584l-.045-36.042 1.925-.002.044 36.041zM40.125 58.584l-.044-35.78 1.925-.002.044 35.78z" fill="#C99E95"/>
        <g>
            <path d="M30.397 33.878h-1.925v-6.899c0-.955.777-1.732 1.732-1.732h.88c.954 0 1.731.777 1.731 1.732v6.606h-1.924v-6.413h-.494v6.706z" fill="#C99E95"/>
            <mask id="tjorck4eob" fill="#fff">
                <use xlink:href="#lvmu5ladba"/>
            </mask>
            <path fill="#C99E95" mask="url(#tjorck4eob)" d="M28.362 33.878h4.563v-1.925h-4.563zM30.397 45.42h-1.925v-6.899c0-.954.777-1.731 1.732-1.731h.88c.954 0 1.731.777 1.731 1.731v6.606h-1.924v-6.412h-.494v6.706z"/>
            <path fill="#C99E95" mask="url(#tjorck4eob)" d="M28.362 45.42h4.563v-1.925h-4.563zM42.777 22.225H17.853a.963.963 0 0 1 0-1.925h24.924a.963.963 0 1 1 0 1.925"/>
            <path d="M18.818 21.3a.963.963 0 0 1-.963-.963v-4.35c0-.532.43-.963.963-.963H41.42c.531 0 .962.43.962.962v4.104a.963.963 0 1 1-1.925 0V16.95H19.78v3.388c0 .532-.431.963-.962.963" fill="#C99E95" mask="url(#tjorck4eob)"/>
            <path d="M23.022 20.514v-1.92c0-.347.328-.63.732-.63.405 0 .734.283.734.63v2.046l-1.466-.126zM27.614 20.514v-1.92c0-.347.328-.63.733-.63.405 0 .733.283.733.63v2.046l-1.466-.126zM32.207 20.514v-1.92c0-.347.328-.63.733-.63.405 0 .733.283.733.63v2.046l-1.466-.126zM36.8 20.514v-1.92c0-.347.328-.63.733-.63.404 0 .732.283.732.63v2.046l-1.465-.126zM20.305 16.436a.962.962 0 0 1-.963-.963v-2.492c0-.53.43-.962.963-.962h2.198c.532 0 .962.431.962.962v2.346a.963.963 0 1 1-1.925 0v-1.383h-.273v1.53a.963.963 0 0 1-.962.962" fill="#C99E95" mask="url(#tjorck4eob)"/>
            <path d="M21.404 13.431a.963.963 0 0 1-.963-.962V5.286a.963.963 0 0 1 1.925 0v7.183a.963.963 0 0 1-.962.962M24.488 16.436a.963.963 0 0 1-.963-.963V9.464a.963.963 0 0 1 1.925 0v6.01a.963.963 0 0 1-.962.962M36.653 16.436a.963.963 0 0 1-.963-.963V9.464a.963.963 0 1 1 1.925 0v6.01c0 .53-.43.962-.962.962" fill="#C99E95" mask="url(#tjorck4eob)"/>
            <path d="M37.533 9.986H23.608a.962.962 0 1 1 0-1.924h13.925a.962.962 0 0 1 0 1.924" fill="#C99E95" mask="url(#tjorck4eob)"/>
            <path d="M36.73 9.769 31.65 7.703a.963.963 0 0 1 .726-1.783l5.078 2.066-.725 1.783zM24.341 9.694a.964.964 0 0 1-.361-1.855c.035-.015 3.55-1.437 5.172-2.082a.963.963 0 1 1 .711 1.788c-1.617.644-5.126 2.064-5.161 2.078a.95.95 0 0 1-.36.07" fill="#C99E95" mask="url(#tjorck4eob)"/>
            <path d="M29.544 7.489a.963.963 0 0 1-.963-.976v-.84c0-.906.737-1.642 1.642-1.642h.84c.906 0 1.642.736 1.642 1.641v.715a.962.962 0 0 1-1.925 0v-.431h-.274v.548a.963.963 0 0 1-.962.985" fill="#C99E95" mask="url(#tjorck4eob)"/>
            <path d="M30.496 5.296a.962.962 0 0 1-.962-.962V.963a.963.963 0 1 1 1.925 0v3.37a.963.963 0 0 1-.963.963M55.08 56.804H5.612a.963.963 0 0 1 0-1.925h49.47a.963.963 0 1 1 0 1.925" fill="#C99E95" mask="url(#tjorck4eob)"/>
        </g>
    </g>
</svg>
