<svg width="243" height="145" viewBox="0 0 243 145" fill="none" xmlns="http://www.w3.org/2000/svg">
    <mask id="8co7069jya" style="mask-type:alpha" maskUnits="userSpaceOnUse" x="0" y="0" width="243" height="145">
        <path d="M0 .567h243v144.157H0V.567z" fill="#fff"/>
    </mask>
    <g mask="url(#8co7069jya)">
        <path d="M116.484 187.009H-9.926a3.731 3.731 0 0 1-3.732-3.726V6.157a3.732 3.732 0 0 1 3.732-3.693h126.41a3.732 3.732 0 0 1 3.738 3.726v177.093a3.732 3.732 0 0 1-3.738 3.726zM-9.926 2.594a3.569 3.569 0 0 0-3.568 3.563v177.126a3.568 3.568 0 0 0 3.568 3.563h126.41a3.575 3.575 0 0 0 3.575-3.563V6.157a3.576 3.576 0 0 0-3.575-3.563H-9.926zM258.096 187.009H131.679a3.738 3.738 0 0 1-3.738-3.726V6.157a3.739 3.739 0 0 1 3.738-3.693h126.417a3.732 3.732 0 0 1 3.725 3.693v177.126a3.732 3.732 0 0 1-3.725 3.726zM131.679 2.594a3.574 3.574 0 0 0-3.574 3.563v177.126a3.573 3.573 0 0 0 3.574 3.563h126.417a3.575 3.575 0 0 0 3.575-3.563V6.157a3.576 3.576 0 0 0-3.575-3.563H131.679z" fill="#474DBB"/>
        <path d="M42.48 116.807H1.877v95.986H42.48v-95.986z" fill="#E09F5E"/>
        <path d="M38.153 122.099H6.205v17.136h31.948v-17.136z" fill="#F4CEA8"/>
        <path d="M38.153 144.357H6.205v17.137h31.948v-17.137z" fill="#F0F0F0"/>
        <path d="M17.913 131.848h8.525a1.175 1.175 0 0 0 0-2.35h-8.525a1.175 1.175 0 0 0 0 2.35z" fill="#E09F5E"/>
        <path d="M82.586 144.357H50.638v17.137h31.948v-17.137z" fill="#F0F0F0"/>
        <path d="M141.146 208.994h101.127V18.256H141.146v190.738z" fill="#E09F5E"/>
        <path d="M139.129 208.994h101.127V18.256H139.129v190.738z" fill="#F4CEA8"/>
        <path d="M236.656 22.295v182.653H142.75V22.295h93.906z" fill="#fff"/>
        <path d="M144.269 22.302v182.653h-1.519V22.302h1.519z" fill="#E09F5E"/>
        <path d="M140.622 81.535h98.142v-5.43h-98.142v5.43z" fill="#F4CEA8"/>
        <path d="M28.785 94.515h54.422V14.079H28.785v80.436z" fill="#43609B"/>
        <path d="M25.479 94.515H82.16V14.079H25.48v80.436z" fill="#DCE5F8"/>
        <path d="M30.225 88.179V20.423h47.182v67.756H30.225z" fill="#fff"/>
        <path d="M56.726 62.598c-1.565 1.305-4.262 5.22-10.383-.887-6.121-6.108-2.22-8.79-.884-10.343 1.335-1.554-5.604-11.094-9.067-5.991-3.464 5.103-.792 11.224 7.149 19.133 7.94 7.91 14.082 10.578 19.188 7.126 5.107-3.452-4.438-10.362-6.003-9.038zM60.955 60.581a.654.654 0 0 1-.655-.652c-.007-6.694-5.448-12.118-12.163-12.125a.654.654 0 1 1 0-1.305c7.438.007 13.465 6.016 13.473 13.43 0 .36-.293.652-.655.652z" fill="#D1DDF6"/>
        <path d="M66.46 59.83a.654.654 0 0 1-.654-.652c-.01-9.31-7.577-16.855-16.916-16.869a.654.654 0 1 1 0-1.305c10.064.01 18.218 8.142 18.226 18.174a.652.652 0 0 1-.655.652z" fill="#D1DDF6"/>
        <path d="M72.667 59.89a.654.654 0 0 1-.654-.653C71.995 46.495 61.634 36.17 48.85 36.156a.654.654 0 1 1 0-1.305c13.507.014 24.454 10.923 24.472 24.386 0 .36-.293.652-.655.652z" fill="#D1DDF6"/>
        <path d="M3.278 79.114c1.46.568 5.434-.039 4.112 2.036a18.091 18.091 0 0 1-2.717 3.054c-1.48 1.41-1.198 2.937.55 3.492.358.094.688.273.962.522.805.887-1.093 2.088-2.03 2.975-.935.888-1.309 1.775-.615 2.44.694.667 2.344.464 3.601.654 3.031.528-.085 3.758.236 5.422.222 1.136 1.414 1.449 3.03 1.612 1.31.131 3.084.222 3.156 1.266.066.907-1.46 1.958-1.859 2.884a2.39 2.39 0 0 0 .295 2.513 3.714 3.714 0 0 0 2.356 1.233c1.5.248 3.765 0 3.876 1.305.046.588-.478 1.103-.111 1.645.462.478 1.09.763 1.754.796a16.37 16.37 0 0 0 4.328-.059c1.76-.248 4.36-1.448 3.404-2.61a2.23 2.23 0 0 0-1.362-.607c-.425-.065-1.656.039-1.813-.183-.157-.222.268-1.07.288-1.383a5.13 5.13 0 0 0-.517-2.493 7.626 7.626 0 0 0-2.272-2.786c-.412-.327-1.08-.568-1.165-1.044-.085-.477.3-.999.726-1.469.655-.73 1.722-1.429 2.095-2.212.596-1.233-.844-1.625-2.173-1.905-1.205-.255-2.79-.581-2.383-1.71.301-.816 1.63-1.488 2.03-2.284.53-1.064-.773-1.11-1.71-1.488a1.724 1.724 0 0 1-1.067-2.5c.72-1.846 5.1-4.456 2.861-5.65-.57-.307-1.1-.412-1.44-.868-.34-.457-.419-1.103-.897-1.547-.753-.705-2.31-.822-3.13-1.475-1.668-1.344 1.965-3.726-1.354-4.294a4.595 4.595 0 0 1-1.925-.62c-.301-.215-.543-1.266-.884-1.344-1.512-.326-4.242 1.958-5.1 2.65-1.028.848-4.884 3.354-3.136 4.032z" fill="#37773C"/>
        <path d="M29.217 110.424c-.897-1.305-4.819-2.571-2.213-4.066a24.743 24.743 0 0 1 4.504-1.814c2.278-.737 3.09-2.434 1.964-3.843a1.956 1.956 0 0 1-.491-.992c-.092-1.305 2.416-1.612 3.856-2.082 1.44-.47 2.377-1.181 2.232-2.2-.163-1.115-1.754-1.598-2.71-2.427-2.304-2.003 2.678-3.817 3.548-5.67.59-1.266-.242-2.167-1.558-3.107-1.073-.77-2.566-1.71-1.905-2.812.57-.96 2.619-1.305 3.64-2.062a3.43 3.43 0 0 0 1.473-2.709 3.149 3.149 0 0 0-1.263-2.375c-1.152-.972-3.333-1.8-2.52-3.19.36-.653 1.184-.901 1.23-1.626a2.178 2.178 0 0 0-.995-1.67 13.764 13.764 0 0 0-3.856-2.01c-1.728-.594-4.851-.614-4.805 1.03.068.516.35.978.779 1.273.327.274 1.486.757 1.473 1.057-.014.3-.976.973-1.212 1.306a7.298 7.298 0 0 0-1.27 2.806 8.195 8.195 0 0 0 .073 3.915c.143.535.569 1.096.314 1.625a3.07 3.07 0 0 1-1.663 1.155c-1.1.424-2.508.653-3.385 1.266-1.375.972-.373 2.069.602 2.995.976.927 2.063 1.958.917 2.891-.825.692-2.461.738-3.358 1.364-1.212.835-.092 1.507.464 2.343.734 1.09.393 2.14-.772 3.08-1.918 1.54-7.588 2.108-6.442 4.411.295.587.655.946.655 1.58 0 .632-.393 1.304-.282 2.009.177 1.09 1.473 1.958 1.735 3.022.55 2.179-4.288 2.884-1.774 5.044a3.693 3.693 0 0 1 1.31 1.56c.11.365-.4 1.559-.152 1.801 1.107 1.057 5.087.045 6.325-.261 1.466-.372 6.605-1.084 5.532-2.617z" fill="#4E9654"/>
        <path d="M34.1 103.344s-.346 13.462-13.518 13.462-13.513-13.462-13.513-13.462h27.032z" fill="#474DBB"/>
        <path d="M115.036 199.245h25.177c19.726-.062 36.415-14.535 39.183-33.982l6.905-48.411h44.486l-6.904 48.411c-2.769 19.447-19.457 33.92-39.184 33.982h-69.663z" fill="#263238"/>
        <path d="M115.036 202.918a3.7 3.7 0 0 1-3.33-1.791 3.667 3.667 0 0 1 0-3.769 3.702 3.702 0 0 1 3.33-1.791h25.249c17.846-.144 32.909-13.25 35.442-30.839l6.905-48.412a3.698 3.698 0 0 1 3.656-3.163h44.486c1.07 0 2.088.464 2.789 1.268a3.67 3.67 0 0 1 .867 2.928l-6.904 48.411c-3.02 21.18-21.436 37.158-42.84 37.158h-69.65zm74.475-82.406-6.459 45.248a43.321 43.321 0 0 1-18.81 29.826H184.7c17.876-.101 32.986-13.213 35.527-30.832l6.308-44.223-37.024-.019z" fill="#263238"/>
        <path opacity=".2" d="M159.516 202.918a3.7 3.7 0 0 1-3.33-1.792 3.665 3.665 0 0 1 0-3.768 3.7 3.7 0 0 1 3.33-1.792H184.7c17.876-.101 32.986-13.214 35.527-30.832l6.905-48.412a3.682 3.682 0 0 1 2.252-3.02 3.708 3.708 0 0 1 3.74.528 3.67 3.67 0 0 1 1.319 3.525l-6.904 48.411c-3.019 21.18-21.436 37.158-42.839 37.158l-25.184-.006z" fill="#fff"/>
        <path d="m193.009 157.904-4.811 9.979c-7.063 14.73-24.462 22.135-38.357 16.338-8.112-3.385-16.966-10.541-22.971-13.815-5.153 11.247-14.801 23.65-22.185 32.283l-14.938-7.483c5.579-12.749 14.262-32.675 19.776-45.588a13.299 13.299 0 0 1 11.61-8.031c24.836-.667 71.876 16.317 71.876 16.317z" fill="#407BFF"/>
        <path d="M177.585 54.612c-2.803-.921-5.999.85-6.038 7.084-.04 6.234 5.651 9.574 8.053 1.516 1.444-4.862.065-7.927-2.015-8.6z" fill="#353535"/>
        <path d="m158.315 107.363-.584.372-.473.288-.919.529a37.65 37.65 0 0 1-1.824.954c-1.215.615-2.462 1.144-3.728 1.647a44.744 44.744 0 0 1-7.949 2.313 44.598 44.598 0 0 1-4.253.595 36.901 36.901 0 0 1-4.437.072 30.405 30.405 0 0 1-4.561-.529 29.349 29.349 0 0 1-4.542-1.307l-.604-.222a6.376 6.376 0 0 1-2.409-1.575 14.49 14.49 0 0 1-3.202-5.228 17.863 17.863 0 0 1-.965-4.784 27.247 27.247 0 0 1 .656-7.842c.52-2.274 1.227-4.5 2.113-6.66a49.025 49.025 0 0 1 1.405-3.084l.781-1.503c.289-.503.551-.954.886-1.523a4.268 4.268 0 0 1 4.821-1.916 4.243 4.243 0 0 1 3.101 4.145v.653c0 .399-.066.928-.092 1.399l-.111 1.457c-.079.967-.125 1.96-.171 2.889a66.434 66.434 0 0 0-.072 2.81c-.007.915 0 1.823.059 2.686.043 1.522.279 3.032.702 4.496.12.426.321.825.591 1.176.184.19.269.098.171-.118l-3.013-1.797c1.48.267 2.989.344 4.489.229.822-.06 1.64-.169 2.448-.327.834-.144 1.687-.32 2.547-.555.86-.235 1.72-.51 2.593-.797.872-.288 1.739-.654 2.625-.994.886-.34 1.726-.751 2.586-1.144.42-.196.84-.405 1.24-.607l.591-.3.276-.138c.059-.033.197-.111.151-.072a8.531 8.531 0 0 1 8.493-.336 8.462 8.462 0 0 1 4.539 7.156 8.456 8.456 0 0 1-3.955 7.492z" fill="#FFBEA2"/>
        <path d="m124.933 84.373 4.896.228c4.903-1.588 1.759-7.509 1.759-7.509l-.361-3.45a2.621 2.621 0 0 0-2.572-2.157l-3.42-.19c-1.562-.084-2.914.955-2.993 2.301l-.19 3.02c-.054.88.111 1.76.479 2.561l2.402 5.195z" fill="#FFBEA2"/>
        <path d="M166.539 85.889c-2.068-2.758-8.769-2.111-12.642 2.248-1.601-.066-7.876 5.587-12.68 6.796-4.804 1.21-8.27 6.993-6.931 10.254 2.475 6.019 4.155 8.901 8.624 9.384 4.47.484 10.351-2.398 15.096-5.934 4.745-3.535 12.182-17.853 8.533-22.748z" fill="#646AE2"/>
        <path d="M139.156 94.815c-3.735-2.391-7.404 1.621-7.404 6.666s1.188 9.345 3.006 12.305c1.819 2.961 5.028 2.713 8.021 2.575 2.586-.124 3.859-1.052 2.625-3.391-1.234-2.34-5.782-5.725-6.458-12.299-.374-3.327 1.936-4.751.21-5.856z" fill="#343AA6"/>
        <path d="M138.198 141.574c-.801.824-1.379 4.013.249 8.79 1.123 3.313 5.54 1.66 5.54 1.66s.774 6.005 6.274 7.293c9.064 2.117 43.253 1.549 49.061-2.941-18.219-.189-61.124-14.802-61.124-14.802z" fill="#FAFAFA"/>
        <path d="M168.862 83.693c8.945.05 17.866.912 26.654 2.575a10.888 10.888 0 0 1 7.045 4.93 10.798 10.798 0 0 1 1.244 8.486c-6.563 24.892-2.861 52.228-3.38 57.214 0 0-52.461 7.522-60.501-8.005-10.797-17.566 7.581-29.042 13.862-53.718 1.66-6.522 8.322-11.521 15.076-11.482z" fill="#474DBB"/>
        <path opacity=".4" d="m186.406 84.85-.092-.04-.289-.098-.079.059a156.693 156.693 0 0 0-13.369-1c-1.07-.04-2.127-.059-3.164-.072a6.677 6.677 0 0 0-2.98 3.457c-1.312 3.307-.38 6.993 2.58 9.855l.243.235.347-.032c6.433-.621 18.457-5.751 18.962-9.705.085-.666-.085-1.908-2.159-2.66z" fill="#1C2F59"/>
        <path d="m205.052 103.115.479.915.427.837c.282.555.532 1.111.794 1.666.519 1.105.978 2.222 1.444 3.346.893 2.248 1.726 4.529 2.422 6.869.361 1.163.656 2.339 1.011 3.528.354 1.19.571 2.392.82 3.614a65.27 65.27 0 0 1 1.129 7.463l.066.654a6.806 6.806 0 0 1-.341 2.856 12.275 12.275 0 0 1-2.258 3.921 12.9 12.9 0 0 1-2.921 2.522 17.244 17.244 0 0 1-5.349 2.183 30.89 30.89 0 0 1-8.657.653 53 53 0 0 1-7.653-1.006 56.782 56.782 0 0 1-3.656-.863c-1.208-.32-2.363-.653-3.636-1.124a4.258 4.258 0 0 1-2.813-4.557 4.272 4.272 0 0 1 3.876-3.703h.25l3.281-.274c1.123-.079 2.232-.19 3.328-.301 1.096-.111 2.186-.235 3.249-.373 1.063-.137 2.1-.3 3.104-.496a22.414 22.414 0 0 0 5.159-1.477c.604-.294 1.031-.654.991-.725-.039-.072-.157 0-.361.169a2.71 2.71 0 0 0-.591.857l-.275 3.489c-.492-1.908-1.011-3.816-1.641-5.744a64.145 64.145 0 0 0-1.004-2.889c-.348-.928-.657-1.96-1.063-2.895-.762-1.921-1.517-3.855-2.337-5.77l-1.234-2.856-1.194-2.686-.151-.353c-1.824-4.162-.02-9.016 4.086-10.993 4.106-1.978 9.048-.373 11.193 3.635l.026-.092z" fill="#FFBEA2"/>
        <path d="M164.81 127.177h-8.844a1.38 1.38 0 0 0-1.38 1.38v11.63c0 .762.618 1.38 1.38 1.38h8.844a1.38 1.38 0 0 0 1.38-1.38v-11.63a1.38 1.38 0 0 0-1.38-1.38z" fill="#E09F5E"/>
        <path d="M165.285 129.968a4.434 4.434 0 0 1 3.978 2.153 4.394 4.394 0 0 1 0 4.509 4.436 4.436 0 0 1-3.978 2.153h-.059a4.436 4.436 0 0 1-3.979-2.153 4.394 4.394 0 0 1 0-4.509 4.434 4.434 0 0 1 3.979-2.153h.078-.019zm.019-1.307h-.078a5.769 5.769 0 0 0-5.153 2.809 5.718 5.718 0 0 0 0 5.85 5.769 5.769 0 0 0 5.153 2.809h.078a5.769 5.769 0 0 0 5.153-2.809 5.718 5.718 0 0 0 0-5.85 5.769 5.769 0 0 0-5.153-2.809z" fill="#E09F5E"/>
        <path d="m180.657 135.163-.04 3.085c-1.884 4.777-7.633 1.307-7.633 1.307l-3.439-.562a2.616 2.616 0 0 1-2.009-2.686v-3.412a2.71 2.71 0 0 1 2.481-2.842h3.085a5.38 5.38 0 0 1 2.534.653l3.472 1.843a2.954 2.954 0 0 1 1.549 2.614z" fill="#FFBEA2"/>
        <path d="M197.557 88.85c3.4-.654 7.876 4.358 7.784 10.181 1.221 1.026 3.334 9.58 6.039 13.724 2.704 4.143 1.312 10.717-1.864 12.214-5.907 2.764-9.11 3.757-12.733 1.104-3.623-2.653-7.785-8.829-8.388-14.691-.854-8.593 3.13-21.402 9.162-22.532z" fill="#646AE2"/>
        <path d="M192.877 122.701c-2.152 3.869 2.107 7.26 7.135 6.966 5.027-.294 9.28-1.79 12.135-3.79 2.856-2 2.396-5.163 2.055-8.136-.289-2.562-1.313-3.764-3.564-2.385-2.251 1.378-5.362 6.116-11.906 7.188-3.282.575-4.864-1.627-5.855.157z" fill="#343AA6"/>
        <path d="M167.969 86.862a6.832 6.832 0 0 1 3.453-2.875 6.306 6.306 0 0 0 .367-4.222l16.225-4.078c-1.608 5.163-2.868 9.241-1.07 11.9-3.242 1.713-9.189 4.778-15.424 4.222-6.235-.555-4.699-2.81-3.551-4.947z" fill="#FFBEA2"/>
        <path opacity=".2" d="m171.888 80.262 11.985.032c-3.978 3.745-9.734 4.895-12.215 3.124a6.325 6.325 0 0 0 .23-3.156z" fill="#000"/>
        <path d="M191.611 67.8c-2.311 7.26-4.037 12.136-9.117 14.181-10.088 4.052-14.203-1.241-14.118-9.057.079-7.039 3.846-17.723 11.814-18.782 3.593-.48 7.181.913 9.501 3.687a10.462 10.462 0 0 1 1.92 9.971z" fill="#FFBEA2"/>
        <path d="M186.787 73.511c-3-1.306-2.094-2.215-2.094-2.215s2.428-2.692 2.816-4.26c.387-1.57-1.969-4.922-1.136-6.68.834-1.757 9.642-2.614 13.376 1.876-.875.192-1.768.288-2.664.288a5.523 5.523 0 0 1 .859 6.195c-1.719 3.614-7.961 6.228-11.157 4.796z" fill="#353535"/>
        <path d="m170.477 74.27 7.751.117s-1.096 1.863-4.352 2.15c-3.255.288-3.399-2.268-3.399-2.268z" fill="#263238"/>
        <path d="M170.634 74.27c.243.496.978 1.241 3.203 1.045a9.031 9.031 0 0 0 3.485-.94c-1.371-.014-4.121-.06-6.688-.106z" fill="#fff"/>
        <path d="M192.576 75.433a7.23 7.23 0 0 1-4.864 2.614c-2.54.241-3.38-2.13-2.317-4.28.952-1.961 3.426-4.399 5.796-3.64 2.369.757 2.842 3.47 1.385 5.306z" fill="#646BE2"/>
        <path d="M179.468 66.702c-.151.601-.59 1.006-.984.908-.394-.098-.591-.653-.44-1.274.151-.62.591-1.007.984-.902.394.105.591.673.44 1.268zM173.056 65.193c-.151.601-.591 1.006-.984.902-.394-.105-.591-.654-.44-1.268.151-.614.591-1.006.984-.902.394.105.591.667.44 1.268z" fill="#263238"/>
        <path d="m175.012 66.192-1.254 5.052s-2.047 0-2.973-1.17c1.326-2.437 4.227-3.882 4.227-3.882z" fill="#EEA88A"/>
        <path d="M181.956 65.232a.336.336 0 0 0 .177 0 .36.36 0 0 0 .197-.477 3.662 3.662 0 0 0-2.514-2.203.368.368 0 0 0-.43.486.367.367 0 0 0 .299.233c.9.245 1.63.9 1.969 1.765a.362.362 0 0 0 .302.196zM170.044 62.507a.368.368 0 0 0 .334-.085 2.916 2.916 0 0 1 2.507-.804.355.355 0 0 0 .434-.268.367.367 0 0 0-.269-.438 3.615 3.615 0 0 0-3.171.974.366.366 0 0 0 0 .516.38.38 0 0 0 .165.105z" fill="#353535"/>
        <path d="M131.057 84.98c3.577-2.209 3.209-5.96 3.839-8.946.112-.51-1.056-1.255-1.746-.614a4.32 4.32 0 0 0-1.627 2.954c-1.313.196-4.654 2-4.129 5.665a5.349 5.349 0 0 0 3.663.941z" fill="#FFBEA2"/>
        <path d="M169.531 96.482c8.533-.83 23.307-8.495 16.625-10.94-4.207 3.327-11.275 4.654-14.603 4.66-1.234-1.183-1.621-4.483-.131-6.215-3.485-.294-7.863 6.712-1.891 12.495z" fill="#343AA6"/>
        <path d="M171.553 90.202c3.098-2.123 12.91-7.28 15.66-7.234a6.616 6.616 0 0 1 .151 3.268s-3.623 3.947-15.811 3.966zM171.553 90.202s.479-6.66-.125-8.064a3.153 3.153 0 0 0-1.969 2.398s.644 4.647 2.094 5.666z" fill="#fff"/>
        <path d="M194.827 60.16c-4.444.53-17.61-.705-21.915-5.646-4.306-4.94-1.169-8.293 3.439-5.437 0 0-3.059-4.143 1.857-3.104 4.641.98 10.134 9.005 17.111 8.665 5.94-.294 3.899 5.02-.492 5.522z" fill="#353535"/>
        <path d="M192.753 77.916c-2.068 1.667-4.792 1.726-6.084.138-1.293-1.588-.657-4.228 1.397-5.882 2.055-1.653 4.792-1.725 6.085-.137 1.293 1.588.663 4.215-1.398 5.881z" fill="#474DBB"/>
        <path d="M175.635 80.464a1.344 1.344 0 0 1-.82-1.626 1.352 1.352 0 0 1 2.645.509 1.537 1.537 0 0 1-1.825 1.117z" fill="#343AA6"/>
        <path d="M192.615 73.537a.75.75 0 0 1-.591-.294.733.733 0 0 1 .138-1.026c1.66-1.26 2.671-4.398 2.527-7.842-.092-2.182-.86-7.613-5.907-10.822a.732.732 0 0 1 .05-1.27.74.74 0 0 1 .737.029c3.978 2.522 6.386 6.9 6.603 12.005.164 3.92-1.05 7.476-3.104 9.038a.734.734 0 0 1-.453.182z" fill="#474DBB"/>
        <path d="M179.291 80.465a24.713 24.713 0 0 1-3.223-.216.367.367 0 0 1-.321-.412.373.373 0 0 1 .413-.314c7.876 1.026 12.582-2.195 12.628-2.228a.372.372 0 0 1 .516.088.368.368 0 0 1-.089.513c-.171.124-3.728 2.569-9.924 2.569z" fill="#343AA6"/>
        <path d="M219.64 140.647H31.954v5.109H219.64v-5.109z" fill="#F4CEA8"/>
        <path opacity=".5" d="M219.64 140.647h-42.736v5.109h42.736v-5.109z" fill="#fff"/>
        <path d="M175.897 145.749h1v-5.108h-1v5.108z" fill="#fff"/>
        <path d="M116.811 127.414H47.685l-6.272-41.95h69.132l6.266 41.95z" fill="#D6D6D6"/>
        <path opacity=".3" d="M78.329 127.414h9.51l-2.274-19.332-2.936 8.145-4.3 11.187zM116.811 127.414h-.793l-6.267-41.95h.794l6.266 41.95z" fill="#000"/>
        <path d="M91.74 138.87H72.926v1.777h20.438l-1.626-1.777zM75.365 115.021l-.262 1.934h-.786a1.652 1.652 0 0 0-1.626 1.377l-1.619 9.882a1.645 1.645 0 0 0 1.62 1.915h.655v.794h-4.36v-15.902h6.379z" fill="#959595"/>
        <path d="m68.988 106.442-5.617 34.205h17.35l5.617-34.205h-17.35zm9.616 12.427-1.626 9.876a1.647 1.647 0 0 1-1.619 1.384h-3.35a1.654 1.654 0 0 1-1.625-1.915l1.626-9.883a1.646 1.646 0 0 1 1.625-1.377h3.343a1.646 1.646 0 0 1 1.645 1.915h-.02z" fill="#BDBDBD"/>
        <path opacity=".3" d="m80.74 140.647-.839-.112 5.598-34.093h.859l-5.618 34.205zM78.361 98.049h-1.003l-1.304-8.722h1.003l1.304 8.722zM80.23 98.049h-1.01l-1.298-8.722h1.003l1.304 8.722zM82.097 98.049h-1.009l-1.304-8.722h1.01l1.303 8.722zM83.965 98.049h-1.01l-1.304-8.722h1.01l1.304 8.722zM85.827 98.049h-1.003l-1.305-8.722h1.01l1.298 8.722zM76.493 98.049H75.49l-1.304-8.722h1.003l1.304 8.722zM74.625 98.049h-1.003l-1.304-8.722h1.01l1.297 8.722zM72.757 98.049h-1.003l-1.304-8.722h1.01l1.297 8.722zM70.895 98.049h-1.01l-1.303-8.722h1.009l1.304 8.722z" fill="#000"/>
    </g>
</svg>
