<svg width="19" height="23" viewBox="0 0 19 23" xmlns="http://www.w3.org/2000/svg">
    <g fill-rule="nonzero" fill="none">
        <path d="M18.84 4.043a.707.707 0 0 0 .087-.76.734.734 0 0 0-.659-.407H13.94l1.04-1.801a.712.712 0 0 0-.273-.98.736.736 0 0 0-.996.27l-1.452 2.51H.731a.73.73 0 0 0-.658.408.704.704 0 0 0 .088.76l8.608 10.584v6.936H5.846a.725.725 0 0 0-.73.718c0 .397.326.719.73.719h7.307c.403 0 .73-.322.73-.719a.725.725 0 0 0-.73-.718H10.23v-6.936l8.61-10.584zM9.5 13.225 2.25 4.313h9.178l-.882 1.525 1.202.828 1.36-2.353h3.64L9.5 13.225z" fill="#787878"/>
        <path d="M10.5 10c1.379 0 2.5-1.122 2.5-2.5S11.879 5 10.5 5A2.503 2.503 0 0 0 8 7.5C8 8.878 9.122 10 10.5 10zm0-3.75c.69 0 1.25.56 1.25 1.25s-.56 1.25-1.25 1.25-1.25-.56-1.25-1.25.56-1.25 1.25-1.25z" fill="#AB001F"/>
    </g>
</svg>
