<svg width="24" height="25" viewBox="0 0 24 25" xmlns="http://www.w3.org/2000/svg">
    <g fill="none" fill-rule="evenodd">
        <path d="M0 1h24v24H0z"/>
        <g fill="#777" fill-rule="nonzero" stroke="#777" stroke-width=".68">
            <path d="M20.967 15.931h-.442c-.748 0-1.483.192-2.136.557l-3.225 1.803h-.92a2.546 2.546 0 0 0-2.502-2.087h-5.81a.456.456 0 0 0-.347.16l-1.76 2.087h-.777L3 24.041c.08 0 .392-.017.936-.05l9.272-.425c.009 0 .018 0 .026-.002a6.55 6.55 0 0 0 3.873-1.819l4.457-4.346a.853.853 0 0 0 .196-.934.853.853 0 0 0-.793-.534zm-4.494 5.164a5.635 5.635 0 0 1-3.32 1.563l-9.216.423V19.73l2.208-2.617h5.597c.767.002 1.43.537 1.595 1.286L8.73 19.53a.455.455 0 0 0 .217.883l4.937-1.212h1.398c.078 0 .154-.02.222-.058l3.33-1.861c.516-.29 1.099-.442 1.691-.442h.312l-4.364 4.255zM12.878 14.477A6.738 6.738 0 1 0 6.14 7.738a6.746 6.746 0 0 0 6.738 6.739zm0-12.568A5.829 5.829 0 1 1 7.05 7.74a5.836 5.836 0 0 1 5.83-5.83z"/>
        </g>
        <path d="m15.052 10.857-1.833-2.322a4.323 4.323 0 0 0-.403-.462c.454-.094.822-.274 1.096-.548.206-.215.326-.472.377-.78h.917l.18-.53h-1.08a1.789 1.789 0 0 0-.376-.943h1.276l.171-.531h-4.026l-.18.53h.891c.429 0 .754.095.977.292.18.154.291.368.334.651H11.36l-.171.531h2.167a.917.917 0 0 1-.36.548c-.274.189-.685.292-1.225.292h-.522v.625c.205 0 .394.06.565.171.145.103.291.249.437.446l1.533 2.03h1.268z" fill="#AB001F" fill-rule="nonzero"/>
    </g>
</svg>
