<svg width="180" height="135" viewBox="0 0 180 135" xmlns="http://www.w3.org/2000/svg" xmlns:xlink="http://www.w3.org/1999/xlink">
    <defs>
        <path id="lxb1hokuha" d="M0 0h179.063v106.875H0z"/>
    </defs>
    <g fill="none" fill-rule="evenodd">
        <g>
            <mask id="hx1cntd9eb" fill="#fff">
                <use xlink:href="#lxb1hokuha"/>
            </mask>
            <path d="M168.95 106.875H10.273S-.107 86.678 0 70.043c.105-16.155 12.58-31.829 29.347-37.79 8.518-3.03 19.955-3.518 27.854-7.68 5.788-3.048 10.147-7.814 15.216-11.751 18.145-14.1 45.926-16.585 67.653-7.387 21.727 9.199 35.223 28.957 38.38 50.28 3.55 23.978-9.5 51.16-9.5 51.16" fill="#ECF1FF" mask="url(#hx1cntd9eb)"/>
        </g>
        <path d="M50.632 83.301c-3.836 6.66-6.03 14.39-6.03 22.636h-27.72v-.152c0-.157 0-.314.002-.47.109-13.087 3.641-25.348 9.74-35.94l24.008 13.926z" fill="#2EB99E"/>
        <path d="M67.494 66.637A46.108 46.108 0 0 0 50.76 83.322l-.067.115-24.45-14.117v-.002a74.427 74.427 0 0 1 27.133-27.13l14.118 24.449z" fill="#54E2B6"/>
        <path d="m126.563 43.557-13.924 24.005a1.028 1.028 0 0 0-.07-.037C105.928 63.713 98.22 61.533 90 61.533v-27.72c13.294 0 25.755 3.534 36.496 9.706l.067.038" fill="#FF9E7E"/>
        <path d="M153.75 70.262v.002l-24.452 14.118c-.021-.039-.045-.078-.067-.116A46.119 46.119 0 0 0 112.5 67.58l14.115-24.45a74.456 74.456 0 0 1 27.135 27.13" fill="#FA7570"/>
        <path d="M163.125 106.73v.152h-27.717c0-8.247-2.195-15.977-6.033-22.637l24.01-13.926c6.099 10.592 9.629 22.853 9.738 35.94.002.156.002.313.002.47" fill="#EC574E"/>
        <path d="M8.431 66.493c.36-.729.542-1.09.913-1.805l6.036 3.414c.562-1.085.85-1.62 1.44-2.671l.986.606a75.9 75.9 0 0 0-2.25 4.275l-7.125-3.819M18.818 61.402l-3.731-2.39c-.45-.289-.856-.166-1.213.374-.357.54-.305.955.151 1.233l3.785 2.31c.456.277.847.16 1.18-.343.332-.504.277-.896-.172-1.184m-.359 3.166c-.548.204-1.103.149-1.666-.178l-3.695-2.148c-.562-.327-.87-.79-.912-1.391-.043-.602.19-1.302.704-2.08s1.067-1.268 1.643-1.474c.576-.205 1.133-.121 1.672.24l3.543 2.378c.54.362.825.827.866 1.39.04.565-.175 1.19-.64 1.896-.467.706-.967 1.163-1.515 1.367M14.994 56.083c.431-.621.65-.929 1.09-1.537a283.303 283.303 0 0 1 5.652 3.188l.02-.026a280.944 280.944 0 0 1-4.588-4.626c.51-.675.767-1.009 1.289-1.668a271.445 271.445 0 0 1 5.537 3.399l.02-.026a301.259 301.259 0 0 1-4.427-4.772c.42-.511.633-.764 1.061-1.265a501.952 501.952 0 0 0 5.596 6.38 69.496 69.496 0 0 0-1.369 1.69 245.985 245.985 0 0 0-4.925-2.882l-.02.027a257.736 257.736 0 0 0 3.95 4.144A70.886 70.886 0 0 0 22.488 60a466.102 466.102 0 0 0-7.494-3.917" fill="#D11919"/>
        <path d="M158.13 49.638c.439.583.655.877 1.084 1.473l-2.536 2.028c.443.615.662.926 1.095 1.555l2.578-1.968c.418.608.625.916 1.034 1.538l-6.427 4.695c-.372-.565-.56-.845-.94-1.398l2.85-2.176c-.426-.62-.643-.927-1.08-1.534l-2.803 2.242c-.39-.541-.587-.809-.985-1.339l6.13-5.116" fill="#098D03"/>
        <g fill="#EB6D18" fill-rule="nonzero">
            <path d="M88 18.02v1.13h-2.91v1.79h2.23v1.11h-2.23V25h-1.4v-6.98zM93.263 23.67h-2.78l-.46 1.33h-1.47l2.51-6.99h1.63l2.51 6.99h-1.48l-.46-1.33zm-.38-1.12-1.01-2.92-1.01 2.92h2.02zM97.536 18.02V25h-1.4v-6.98zM102.509 25l-1.54-2.72h-.66V25h-1.4v-6.98h2.62c.54 0 1 .095 1.38.285.38.19.665.447.855.77.19.323.285.685.285 1.085 0 .46-.134.875-.4 1.245-.267.37-.664.625-1.19.765l1.67 2.83h-1.62zm-2.2-3.77h1.17c.38 0 .663-.092.85-.275.186-.183.28-.438.28-.765 0-.32-.094-.568-.28-.745-.187-.177-.47-.265-.85-.265h-1.17v2.05z"/>
        </g>
        <path d="M169.562 64.659c.386.608.577.915.954 1.535l-2.716 1.722c.39.64.58.963.958 1.615l2.752-1.66c.364.632.544.951.898 1.594l-6.842 3.932a66.493 66.493 0 0 0-.816-1.449l3.042-1.834c-.372-.644-.56-.963-.944-1.594l-3.001 1.903a66.82 66.82 0 0 0-.868-1.395l6.583-4.369M162.93 56.096c.444.55.665.827 1.1 1.389l-6.339 4.518c-.396-.51-.596-.763-1-1.263l6.238-4.644M159.386 63.367c.032-.565.313-1.042.85-1.428l3.494-2.505c.537-.386 1.09-.49 1.661-.302.57.19 1.125.667 1.649 1.438.524.772.767 1.469.734 2.07-.033.603-.334 1.079-.896 1.43l-.595.37a76.23 76.23 0 0 0-.966-1.488l.656-.428c.45-.294.494-.718.126-1.26-.369-.543-.778-.658-1.221-.354l-3.69 2.53c-.438.3-.481.698-.138 1.204.343.506.733.618 1.177.328l1.34-.876a74.996 74.996 0 0 0-.508-.757l.971-.65c.599.883.893 1.331 1.47 2.241l-2.27 1.419c-.561.35-1.114.426-1.657.238-.543-.187-1.046-.633-1.52-1.332-.476-.7-.7-1.322-.667-1.888" fill="#098D03"/>
        <path fill="#FFF" d="M89.063 60.938h1.874V32.811h-1.874zM112.865 67.5l-1.302-.78 13.693-24.532 1.306.773-.065.118zM49.845 84.375l-24.532-13.69.773-1.31.067.037 24.472 13.656zM66.197 67.5 52.5 42.96l1.307-.773.065.119L67.5 66.72zM129.217 84.375l-.78-1.307 24.54-13.693.773 1.31-.067.038z"/>
        <path d="M164.063 106.875h-.775c0-12.886-3.392-25.559-9.809-36.648a73.64 73.64 0 0 0-26.83-26.83c-11.09-6.417-23.763-9.809-36.649-9.809s-25.56 3.392-36.649 9.809a73.64 73.64 0 0 0-26.83 26.83c-6.417 11.09-9.809 23.762-9.809 36.648h-.774c0-13.022 3.427-25.83 9.912-37.037a74.41 74.41 0 0 1 27.113-27.113C64.171 36.24 76.978 32.812 90 32.812c13.022 0 25.829 3.428 37.037 9.913a74.412 74.412 0 0 1 27.113 27.113c6.485 11.208 9.912 24.015 9.912 37.037" fill="#1E1919"/>
        <path d="M91.875 31v30.554a45.682 45.682 0 0 0-2.377-.063A44.496 44.496 0 0 0 65.474 68.5L50.625 42.266l.074-.043C62.822 35.086 76.879 31 91.875 31" fill="#F1D581"/>
        <path d="M91.875 60.561a45.604 45.604 0 0 0-2.381-.063A44.671 44.671 0 0 0 65.426 67.5L50.675 41.511l-.05-.261 41.25 19.311z" fill="#F1D581"/>
        <path d="m50.734 41.801 14.47 25.542a45.128 45.128 0 0 1 25.904-6.81l-.001-29.748A80.967 80.967 0 0 0 50.734 41.8zm14.202 26.636L49.687 41.52l.398-.242A81.723 81.723 0 0 1 91.491 30h.384v31.356l-.404-.02a44.372 44.372 0 0 0-26.198 6.886l-.337.215zM130.313 106.875h-.775c0-7.116-1.852-14.114-5.355-20.235l-.062-.107A40.46 40.46 0 0 0 109.497 71.8a39.668 39.668 0 0 0-19.967-5.393 39.649 39.649 0 0 0-19.946 5.382l-.065.037a40.447 40.447 0 0 0-14.582 14.71l-.057.099c-3.505 6.127-5.356 13.124-5.356 20.239h-.774c0-7.252 1.887-14.385 5.458-20.627l.056-.099a41.24 41.24 0 0 1 14.874-15.003l.066-.038a40.41 40.41 0 0 1 20.326-5.483 40.404 40.404 0 0 1 20.398 5.522 41.238 41.238 0 0 1 14.865 14.997l.062.108c3.57 6.236 5.457 13.37 5.457 20.623" fill="#1E1919"/>
        <path fill="#5E3B3B" d="M60 111.563h2.26l1.007 7.38h.029l1.007-7.38h2.26v10.312h-1.497v-7.808h-.03l-1.15 7.808h-1.324l-1.152-7.808h-.029v7.808H60zM68.438 111.563h4.687v1.473h-2.969v2.725h2.36v1.473h-2.36v3.168h2.969v1.473h-4.688zM75.648 113.036h-1.585v-1.474h4.687v1.474h-1.585v8.839h-1.517zM82.241 118.457l-.73-5.097h-.03l-.717 5.097h1.477zm-1.79-6.894h2.223l1.701 10.312h-1.641l-.299-2.048v.03H80.57l-.298 2.018H78.75l1.7-10.313zM87.698 120.402c.266 0 .464-.076.592-.229.13-.152.193-.414.193-.788v-.898c0-.472-.076-.798-.227-.98-.152-.182-.402-.273-.751-.273h-.676v3.168h.869zm-.276-4.64c.303 0 .53-.084.682-.251.152-.167.228-.447.228-.84v-.575c0-.373-.062-.643-.186-.81-.124-.167-.32-.25-.586-.25h-.731v2.725h.593zm-2.11-4.2h2.289c.781 0 1.351.195 1.71.582.358.388.537.985.537 1.79v.413c0 .53-.08.962-.241 1.296-.16.334-.407.575-.738.722v.03c.754.275 1.131.992 1.131 2.15v.884c0 .796-.196 1.403-.586 1.82-.39.418-.963.626-1.716.626h-2.385v-10.313zM95.019 120.172v-5.97c0-.718-.267-1.077-.8-1.077s-.8.36-.8 1.078v5.969c0 .719.267 1.078.8 1.078s.8-.36.8-1.078m-2.54 1.922c-.403-.48-.604-1.156-.604-2.032v-5.75c0-.875.201-1.552.604-2.03.402-.48.982-.72 1.74-.72s1.338.24 1.74.72c.402.478.603 1.155.603 2.03v5.75c0 .876-.2 1.553-.603 2.032-.402.479-.982.719-1.74.719s-1.338-.24-1.74-.72M97.5 111.563h1.772v8.839h2.915v1.473H97.5zM103.125 121.875H105v-10.313h-1.875zM107.46 122.102c-.39-.474-.585-1.154-.585-2.04v-.624h1.486v.75c0 .708.272 1.062.815 1.062.266 0 .47-.086.607-.258.138-.172.208-.45.208-.836 0-.458-.096-.862-.286-1.21-.191-.35-.543-.769-1.058-1.259-.648-.625-1.1-1.19-1.357-1.695-.258-.505-.387-1.075-.387-1.71 0-.865.2-1.535.6-2.009.4-.474.982-.71 1.744-.71.753 0 1.322.236 1.708.71.386.474.58 1.154.58 2.04v.452h-1.487v-.562c0-.375-.067-.649-.2-.82-.134-.172-.33-.258-.586-.258-.524 0-.786.349-.786 1.047 0 .396.097.765.293 1.11.195.343.55.76 1.064 1.249.658.625 1.11 1.193 1.358 1.703s.371 1.11.371 1.797c0 .896-.202 1.584-.607 2.063-.405.479-.993.719-1.765.719-.762 0-1.339-.237-1.73-.711M112.5 111.563h2.26l1.007 7.38h.029l1.007-7.38h2.26v10.312h-1.497v-7.808h-.029l-1.151 7.808h-1.324l-1.152-7.808h-.028v7.808H112.5zM77.813 124.688h1.417v8.839h2.332V135h-3.75zM81.563 124.688h4.687v1.473h-2.969v2.725h2.36v1.473h-2.36v3.168h2.969V135h-4.688zM87.188 124.688h1.743l1.132 8h.031l1.132-8h1.587L91.147 135h-2.294z"/>
        <path fill="#5E3B3B" d="M92.813 124.688H97.5v1.473h-2.969v2.725h2.36v1.473h-2.36v3.168H97.5V135h-4.688zM98.438 124.688h1.417v8.839h2.332V135h-3.75zM90 70.313h-.938v-4.686l.938-.002z"/>
        <path fill="#1E1919" d="m64.195 81.563-3.257-3.258.492-.493 3.258 3.258zM114.912 81.563l-.537-.538 3.212-3.213.538.538zM55.982 93.75l-4.42-2.055.266-.757.267.122 4.155 1.934zM102.995 73.125l-.808-.292 2.006-4.395.807.291zM75.184 74.063l-2.059-4.402.755-.286.052.113 2.005 4.287zM122.19 92.813l-.315-.809L126.248 90l.314.808zM55.156 100.313l-5.468-1.056.153-.82.35.067 5.121.99zM96.481 71.25l-.856-.14 1.019-4.547.856.14zM68.686 77.813l-3.061-4.249.69-.439 3.06 4.247zM118.607 86.25l-.482-.56 4.206-2.252.481.56zM59.585 88.125l-4.273-3.045.415-.705L60 87.42zM109.322 76.875l-.572-.454 2.24-4.234.573.454zM81.706 71.25l-1.081-4.53.793-.157.015.06 1.067 4.476zM124.853 99.375l-.165-.834 4.522-1.041.165.834zM59.063 106.875h61.874v-.938H59.063z"/>
        <path d="m86.97 106.865 5.623-1.524-1.557-4.17-8.25-22.092c-.287-.698-1.075-.485-.981.268l3.498 22.225.822 5.21.845.083z" fill="#EC574E"/>
        <path d="m87.478 106.874-.197-.755 5.233-1.422-9.691-26.019c-.059-.142-.142-.184-.178-.173-.037.01-.089.088-.068.256l4.334 27.59-.758.125-4.335-27.604c-.08-.636.271-1.025.63-1.122.357-.098.85.061 1.088.64l9.996 26.839-6.054 1.645z" fill="#1E1919"/>
        <path d="M96.563 106.875a6.562 6.562 0 0 0-12.05-3.596 6.508 6.508 0 0 0-1.076 3.596h13.126z" fill="#1E1919"/>
    </g>
</svg>
