<svg width="56" height="62" viewBox="0 0 56 62" xmlns="http://www.w3.org/2000/svg">
    <g fill="none" fill-rule="evenodd">
        <path d="M46.001 60.296c.084 0 .16-.031.218-.083a.328.328 0 0 0 .546-.245v-4.925l-.002-.044c-.173-2.17-1.357-3.986-3.018-4.628l-.275-.106-.275.106a4.166 4.166 0 0 0-1.632 1.165.328.328 0 0 0 .134.524l-.033.043a.328.328 0 0 0-.54.014 5.677 5.677 0 0 0-.49.936.329.329 0 0 0 .296.452 6.063 6.063 0 0 0-.286 1.224.327.327 0 0 0-.467.271l-.003.03v4.938a.328.328 0 0 0 .547.245.328.328 0 0 0 .546-.245v-4.895c.137-1.666 1.014-3.105 2.203-3.633 1.188.528 2.066 1.967 2.203 3.633v4.895c0 .181.147.328.328.328zm-15.11-.014a.327.327 0 0 0 .246-.11.327.327 0 0 0 .575-.218V54.4l-.003-.045a.328.328 0 0 0-.519-.241 6.794 6.794 0 0 0-.348-1.493.328.328 0 0 0 .353-.45 6.359 6.359 0 0 0-.547-1.047.328.328 0 0 0-.57.037c-.038-.05-.075-.1-.113-.148a.328.328 0 0 0 .191-.54c-.526-.6-1.14-1.038-1.823-1.302l-.296-.114-.296.114c-1.857.718-3.182 2.752-3.376 5.184l-.002.032v5.567a.328.328 0 0 0 .574.217.327.327 0 0 0 .574-.217v-5.521c.156-1.903 1.163-3.547 2.526-4.142 1.363.595 2.37 2.239 2.526 4.142v5.521c0 .181.147.328.329.328zM17.962 45.59h20.152v-1.822H17.96v1.822zm1.245-14.055h.677V29.8l-.001-.01h.385v1.415a.328.328 0 0 0 .656 0V29.79h.294v1.415c0 .155.107.285.25.32V42.93c0 .067.02.128.053.18h-2.367a.327.327 0 0 0 .054-.18V31.534zm-.274-1.744h.294v1.087h-.294V29.79zm11.944 0h.294v1.087h-.294V29.79zm-1.99 0h.294v1.087h-.294V29.79zm-3.982 0h.294v1.087h-.294V29.79zm-1.99 0h.294v1.087h-.294V29.79zm11.09 13.32H22.07a.327.327 0 0 0 .054-.18V31.546a.328.328 0 0 0-.252-.32l.001-.02V29.79h.384v1.744h1.607V29.79h.384v1.744h1.607V29.79h.384v1.744h1.278a.328.328 0 0 0 0-.657h-.622V29.79h1.335l-.001.01v1.734h1.607V29.79h.384v1.744h1.607V29.79h.384v1.415a.328.328 0 0 0 .656 0V29.79h.294v1.415a.328.328 0 0 0 .656 0V29.79h.385l-.001.01v1.427a.328.328 0 0 0-.25.319V42.93c0 .067.02.128.053.18zm2.845-12.233V29.8l-.001-.01h.294v1.087h-.293zm-2.242.657h.873a.328.328 0 0 0 0-.657h-.622V29.79h1.334v1.744h.676V42.93c0 .067.02.128.053.18h-2.367a.327.327 0 0 0 .053-.18V31.534zm-16.194-2.401v-1.715h3.132a.328.328 0 1 0 0-.657H19.78V15.79h2.261v10.955a.328.328 0 0 0 .656 0V15.79h10.68v4.675a.328.328 0 1 0 .657 0v-4.66l-.001-.015h2.262l-.001.015v10.955h-2.261v-5.486a.328.328 0 0 0-.656 0v5.486h-8.483a.328.328 0 0 0 0 .657h12.767v1.715H18.413zm.273-14V13.42h18.702v1.715h-1.432V13.77a.328.328 0 1 0-.657 0v1.364H20.775V13.77a.328.328 0 0 0-.657 0v1.364h-1.432zm1.724-2.424c0-3.59 2.493-6.608 5.839-7.415-1.291 1.347-2.159 4.13-2.159 7.415 0 .018.002.036.005.053h-3.69a.329.329 0 0 0 .005-.053zm7.627-7.627c1.784 0 3.29 3.493 3.29 7.627 0 .018.002.036.005.053h-6.59a.329.329 0 0 0 .005-.053c0-4.134 1.507-7.627 3.29-7.627zm0-1.748.645 1.116a8.345 8.345 0 0 0-1.29 0l.645-1.116zm7.627 9.375c0 .018.002.036.005.053h-3.69a.329.329 0 0 0 .005-.053c0-3.286-.868-6.068-2.159-7.415 3.346.807 5.84 3.825 5.84 7.415zm1.906 33.563v1.14h-.336v-1.14c0-.008 0-.017-.002-.026h.34a.338.338 0 0 0-.002.026zm-2.08 0v1.14h-.337v-1.14c0-.008 0-.017-.002-.026h.34a.338.338 0 0 0-.002.026zm-2.082 0v1.14h-.336v-1.14l-.002-.026h.34a.318.318 0 0 0-.002.026zm-4.162 0v1.14h-.337v-1.14l-.001-.026h.34a.338.338 0 0 0-.002.026zm-4.162 0v1.14h-.337v-1.14l-.001-.026h.34a.318.318 0 0 0-.002.026zm-2.081 0v1.14h-.337v-1.14l-.001-.026h.339a.338.338 0 0 0-.001.026zm-4.163 0v1.14h-.336v-1.14l-.001-.026h.339a.318.318 0 0 0-.002.026zm-14.048.764v1.065H4.51v-1.065h.281zm6.983 0v1.065h-.282v-1.065h.282zm3.93 0v1.065h-.282v-1.065h.282zm35.709.007V48.1h-.282v-1.065h.282v.007zm-6.983 0V48.1h-.281v-1.065h.281v.007zm-3.93 0V48.1h-.281v-1.065h.281v.007zM17.847 48.07h.288a.326.326 0 0 0-.001.027v11.902a.328.328 0 0 0 .657 0V48.097c0-.01 0-.018-.002-.027h.708v-1.798l-.001-.026h.433a.318.318 0 0 0 0 .026v1.47a.328.328 0 0 0 .656 0v-1.47l-.001-.026h.339a.318.318 0 0 0-.001.026v1.47c0 .158.113.291.263.321a.333.333 0 0 0-.002.034v11.902a.328.328 0 0 0 .657 0V48.097a.328.328 0 0 0-.263-.322.333.333 0 0 0 .001-.034v-1.469l-.001-.026h.434a.338.338 0 0 0-.002.026v1.798h1.65v-1.824h.433a.318.318 0 0 0-.002.026v1.798h1.65v-1.824h.433a.318.318 0 0 0-.002.026v1.47a.328.328 0 0 0 .657 0v-1.47l-.001-.026h.34a.318.318 0 0 0-.002.026v1.47a.328.328 0 1 0 .657 0v-1.47l-.002-.026h.434a.318.318 0 0 0-.001.026v1.798h1.65v-1.798c0-.008 0-.017-.002-.026h.434a.318.318 0 0 0-.001.026v1.798h1.321a.328.328 0 1 0 0-.657h-.665V46.246h1.426a.338.338 0 0 0-.001.026v1.798h1.65v-1.798l-.001-.026h.433a.318.318 0 0 0-.001.026v1.503a.328.328 0 0 0-.262.322v11.902a.328.328 0 1 0 .657 0V48.097l-.001-.027h1.256v-1.798l-.001-.026h.433a.318.318 0 0 0-.001.026v1.798h.708a.345.345 0 0 0-.001.027v11.902a.328.328 0 0 0 .656 0V48.097l-.001-.027h.288v-1.798l-.001-.026h.544V44.68c.03.01.064.015.099.015h13.057v1.685H38.869a.328.328 0 0 0 0 .656h.694v1.722h1.595v-1.722h1.308v1.065h-.61a.328.328 0 1 0 0 .657h1.267v-1.722h.37v1.722h1.595v-1.722h.37v1.394a.328.328 0 0 0 .657 0v-1.394h.281v1.394a.328.328 0 1 0 .657 0v-1.394h1.458V48.447a.328.328 0 0 0-.248.318v11.238a.328.328 0 0 0 .657 0V48.748a.328.328 0 0 0 .247-.318v-1.394h.282v1.394a.328.328 0 1 0 .656 0v-1.394h.37v1.722h.668v11.245a.328.328 0 0 0 .656 0V48.758h.271v-1.722h.512v-2.998H38.87a.328.328 0 0 0-.1.016v-.944h-1.298a.327.327 0 0 0 .053-.18V31.534h.275V29.79h.519v-3.03H36.95V15.792h1.095v-3.03h-1.729a.329.329 0 0 0 .005-.052c0-4.125-3.03-7.555-6.982-8.181a.328.328 0 0 0-.02-.287l-.953-1.652V1.33a.328.328 0 1 0-.657 0v1.26l-.954 1.652a.328.328 0 0 0-.02.287c-3.951.626-6.982 4.056-6.982 8.181 0 .018.002.036.005.053H18.03v3.029h1.094v10.97h-1.367v3.029h.519v1.744h.274V42.93c0 .067.02.128.053.18h-1.298v1.043a.328.328 0 0 0-.25-.115H3.343v2.998h.512v1.722h.271v11.245a.328.328 0 0 0 .657 0V48.758h.667v-1.722h.37v1.394a.328.328 0 0 0 .657 0v-1.394h.281v1.394c0 .153.105.282.248.318V60.003a.328.328 0 0 0 .656 0V48.765a.328.328 0 0 0-.248-.318V47.036h1.46l-.001.007v1.387a.328.328 0 0 0 .657 0v-1.394h.281v1.394a.328.328 0 0 0 .656 0v-1.394h.371v1.722h1.594v-1.722h.371v1.722h1.266a.328.328 0 1 0 0-.657h-.61v-1.065h1.309v1.722h1.594v-1.722h.695a.328.328 0 1 0 0-.656H3.999v-1.685h13.057c.1 0 .188-.044.249-.114v1.665h.543a.318.318 0 0 0-.001.026v1.798zm6.135-21.31h-.74a.328.328 0 0 0 0 .658h.74a.328.328 0 0 0 0-.657zm8.03 13.085h-3.156v-3.027c.1-1.21.727-2.255 1.578-2.652.852.397 1.479 1.442 1.579 2.652v3.027zm-3.813.492h-.323v-1.135a.328.328 0 1 0-.657 0v.643H24.06v-3.027c.1-1.21.728-2.255 1.579-2.652.851.397 1.478 1.442 1.579 2.652v1.44a.328.328 0 1 0 .656 0v-1.186c.037.02.077.033.121.039h.002l.012.002h.013a.326.326 0 0 0 .029 0h.012l.01-.002h.005a.326.326 0 0 0 .12-.04v3.266zm2.53-7.293-.295-.114-.295.114c-.941.364-1.691 1.19-2.102 2.248-.41-1.059-1.16-1.884-2.102-2.248l-.295-.114-.296.114c-1.337.517-2.29 1.968-2.429 3.696l-.002 4.254h.165a.328.328 0 0 0 .163.613h1.456a.328.328 0 0 0 .163-.613H29.162a.328.328 0 0 0 .284-.492h1.768a.327.327 0 0 0 .125.45.328.328 0 0 0 .038.655h1.456a.328.328 0 0 0 .163-.613h.165v-4.209l-.002-.045c-.138-1.728-1.091-3.179-2.43-3.696zm7.087 27.3H18.215a.328.328 0 1 0 0 .656h19.601a.328.328 0 1 0 0-.657zm-20.618 0H1.328a.328.328 0 1 0 0 .656h15.87a.328.328 0 1 0 0-.657zm-2.837-8.808a4.165 4.165 0 0 0-1.631-1.165l-.276-.106-.275.106c-1.66.642-2.845 2.458-3.018 4.63l-.002.03v4.937a.328.328 0 0 0 .546.245.328.328 0 0 0 .546-.245v-4.895c.137-1.666 1.015-3.105 2.203-3.633 1.189.528 2.066 1.967 2.203 3.633v4.895a.328.328 0 0 0 .547.245.328.328 0 0 0 .546-.245v-4.925L15.748 55a.328.328 0 0 0-.467-.271 6.06 6.06 0 0 0-.286-1.224.327.327 0 0 0 .294-.452 5.676 5.676 0 0 0-.488-.936.328.328 0 0 0-.54-.014c-.011-.014-.023-.028-.033-.043a.328.328 0 0 0 .133-.524zm10.876-31.654h-.107a2.91 2.91 0 0 1 .62-1.494l.075.075a.327.327 0 0 0 .464 0 .328.328 0 0 0 0-.465l-.074-.074c.42-.335.933-.557 1.494-.62v.107c0 .059.016.114.043.162a.327.327 0 0 0-.043.162v2.623l1.5 1.331a.327.327 0 0 0 .465-.028.328.328 0 0 0-.028-.463l-1.28-1.135v-2.328a.327.327 0 0 0-.044-.162.327.327 0 0 0 .044-.162v-.107a2.911 2.911 0 0 1 1.493.62l-.074.074a.328.328 0 1 0 .464.465l.075-.075c.335.42.557.933.62 1.494h-.107a.328.328 0 0 0 0 .657h.107a2.91 2.91 0 0 1-.62 1.494l-.075-.075a.328.328 0 1 0-.464.464l.074.075c-.42.335-.933.557-1.493.62v-.107a.328.328 0 0 0-.657 0v.107a2.912 2.912 0 0 1-1.494-.62l.075-.075a.328.328 0 0 0-.465-.464l-.074.075a2.91 2.91 0 0 1-.62-1.494h.106a.328.328 0 0 0 0-.657zm2.8 3.911a3.587 3.587 0 0 0 3.583-3.583 3.587 3.587 0 0 0-3.583-3.582 3.587 3.587 0 0 0-3.582 3.582 3.587 3.587 0 0 0 3.582 3.583zm26.634 36.55h-6.08a.328.328 0 1 0 0 .657h6.08a.328.328 0 0 0 0-.657zm-7.018 0h-9.13a.328.328 0 0 0 0 .657h9.13a.328.328 0 0 0 0-.657z" fill="#6E9A99"/>
        <path d="M46.001 60.296c.084 0 .16-.031.218-.083a.328.328 0 0 0 .546-.245v-4.925l-.002-.044c-.173-2.17-1.357-3.986-3.018-4.628l-.275-.106-.275.106a4.166 4.166 0 0 0-1.632 1.165.328.328 0 0 0 .134.524l-.033.043a.328.328 0 0 0-.54.014 5.677 5.677 0 0 0-.49.936.329.329 0 0 0 .296.452 6.063 6.063 0 0 0-.286 1.224.327.327 0 0 0-.467.271l-.003.03v4.938a.328.328 0 0 0 .547.245.328.328 0 0 0 .546-.245v-4.895c.137-1.666 1.014-3.105 2.203-3.633 1.188.528 2.066 1.967 2.203 3.633v4.895c0 .181.147.328.328.328zm-15.11-.014a.327.327 0 0 0 .246-.11.327.327 0 0 0 .575-.218V54.4l-.003-.045a.328.328 0 0 0-.519-.241 6.794 6.794 0 0 0-.348-1.493.328.328 0 0 0 .353-.45 6.359 6.359 0 0 0-.547-1.047.328.328 0 0 0-.57.037c-.038-.05-.075-.1-.113-.148a.328.328 0 0 0 .191-.54c-.526-.6-1.14-1.038-1.823-1.302l-.296-.114-.296.114c-1.857.718-3.182 2.752-3.376 5.184l-.002.032v5.567a.328.328 0 0 0 .574.217.327.327 0 0 0 .574-.217v-5.521c.156-1.903 1.163-3.547 2.526-4.142 1.363.595 2.37 2.239 2.526 4.142v5.521c0 .181.147.328.329.328zM17.962 45.59h20.152v-1.822H17.96v1.822zm1.245-14.055h.677V29.8l-.001-.01h.385v1.415a.328.328 0 0 0 .656 0V29.79h.294v1.415c0 .155.107.285.25.32V42.93c0 .067.02.128.053.18h-2.367a.327.327 0 0 0 .054-.18V31.534zm-.274-1.744h.294v1.087h-.294V29.79zm11.944 0h.294v1.087h-.294V29.79zm-1.99 0h.294v1.087h-.294V29.79zm-3.982 0h.294v1.087h-.294V29.79zm-1.99 0h.294v1.087h-.294V29.79zm11.09 13.32H22.07a.327.327 0 0 0 .054-.18V31.546a.328.328 0 0 0-.252-.32l.001-.02V29.79h.384v1.744h1.607V29.79h.384v1.744h1.607V29.79h.384v1.744h1.278a.328.328 0 0 0 0-.657h-.622V29.79h1.335l-.001.01v1.734h1.607V29.79h.384v1.744h1.607V29.79h.384v1.415a.328.328 0 0 0 .656 0V29.79h.294v1.415a.328.328 0 0 0 .656 0V29.79h.385l-.001.01v1.427a.328.328 0 0 0-.25.319V42.93c0 .067.02.128.053.18zm2.845-12.233V29.8l-.001-.01h.294v1.087h-.293zm-2.242.657h.873a.328.328 0 0 0 0-.657h-.622V29.79h1.334v1.744h.676V42.93c0 .067.02.128.053.18h-2.367a.327.327 0 0 0 .053-.18V31.534zm-16.194-2.401v-1.715h3.132a.328.328 0 1 0 0-.657H19.78V15.79h2.261v10.955a.328.328 0 0 0 .656 0V15.79h10.68v4.675a.328.328 0 1 0 .657 0v-4.66l-.001-.015h2.262l-.001.015v10.955h-2.261v-5.486a.328.328 0 0 0-.656 0v5.486h-8.483a.328.328 0 0 0 0 .657h12.767v1.715H18.413zm.273-14V13.42h18.702v1.715h-1.432V13.77a.328.328 0 1 0-.657 0v1.364H20.775V13.77a.328.328 0 0 0-.657 0v1.364h-1.432zm1.724-2.424c0-3.59 2.493-6.608 5.839-7.415-1.291 1.347-2.159 4.13-2.159 7.415 0 .018.002.036.005.053h-3.69a.329.329 0 0 0 .005-.053zm7.627-7.627c1.784 0 3.29 3.493 3.29 7.627 0 .018.002.036.005.053h-6.59a.329.329 0 0 0 .005-.053c0-4.134 1.507-7.627 3.29-7.627zm0-1.748.645 1.116a8.345 8.345 0 0 0-1.29 0l.645-1.116zm7.627 9.375c0 .018.002.036.005.053h-3.69a.329.329 0 0 0 .005-.053c0-3.286-.868-6.068-2.159-7.415 3.346.807 5.84 3.825 5.84 7.415zm1.906 33.563v1.14h-.336v-1.14c0-.008 0-.017-.002-.026h.34a.338.338 0 0 0-.002.026zm-2.08 0v1.14h-.337v-1.14c0-.008 0-.017-.002-.026h.34a.338.338 0 0 0-.002.026zm-2.082 0v1.14h-.336v-1.14l-.002-.026h.34a.318.318 0 0 0-.002.026zm-4.162 0v1.14h-.337v-1.14l-.001-.026h.34a.338.338 0 0 0-.002.026zm-4.162 0v1.14h-.337v-1.14l-.001-.026h.34a.318.318 0 0 0-.002.026zm-2.081 0v1.14h-.337v-1.14l-.001-.026h.339a.338.338 0 0 0-.001.026zm-4.163 0v1.14h-.336v-1.14l-.001-.026h.339a.318.318 0 0 0-.002.026zm-14.048.764v1.065H4.51v-1.065h.281zm6.983 0v1.065h-.282v-1.065h.282zm3.93 0v1.065h-.282v-1.065h.282zm35.709.007V48.1h-.282v-1.065h.282v.007zm-6.983 0V48.1h-.281v-1.065h.281v.007zm-3.93 0V48.1h-.281v-1.065h.281v.007zM17.847 48.07h.288a.326.326 0 0 0-.001.027v11.902a.328.328 0 0 0 .657 0V48.097c0-.01 0-.018-.002-.027h.708v-1.798l-.001-.026h.433a.318.318 0 0 0 0 .026v1.47a.328.328 0 0 0 .656 0v-1.47l-.001-.026h.339a.318.318 0 0 0-.001.026v1.47c0 .158.113.291.263.321a.333.333 0 0 0-.002.034v11.902a.328.328 0 0 0 .657 0V48.097a.328.328 0 0 0-.263-.322.333.333 0 0 0 .001-.034v-1.469l-.001-.026h.434a.338.338 0 0 0-.002.026v1.798h1.65v-1.824h.433a.318.318 0 0 0-.002.026v1.798h1.65v-1.824h.433a.318.318 0 0 0-.002.026v1.47a.328.328 0 0 0 .657 0v-1.47l-.001-.026h.34a.318.318 0 0 0-.002.026v1.47a.328.328 0 1 0 .657 0v-1.47l-.002-.026h.434a.318.318 0 0 0-.001.026v1.798h1.65v-1.798c0-.008 0-.017-.002-.026h.434a.318.318 0 0 0-.001.026v1.798h1.321a.328.328 0 1 0 0-.657h-.665V46.246h1.426a.338.338 0 0 0-.001.026v1.798h1.65v-1.798l-.001-.026h.433a.318.318 0 0 0-.001.026v1.503a.328.328 0 0 0-.262.322v11.902a.328.328 0 1 0 .657 0V48.097l-.001-.027h1.256v-1.798l-.001-.026h.433a.318.318 0 0 0-.001.026v1.798h.708a.345.345 0 0 0-.001.027v11.902a.328.328 0 0 0 .656 0V48.097l-.001-.027h.288v-1.798l-.001-.026h.544V44.68c.03.01.064.015.099.015h13.057v1.685H38.869a.328.328 0 0 0 0 .656h.694v1.722h1.595v-1.722h1.308v1.065h-.61a.328.328 0 1 0 0 .657h1.267v-1.722h.37v1.722h1.595v-1.722h.37v1.394a.328.328 0 0 0 .657 0v-1.394h.281v1.394a.328.328 0 1 0 .657 0v-1.394h1.458V48.447a.328.328 0 0 0-.248.318v11.238a.328.328 0 0 0 .657 0V48.748a.328.328 0 0 0 .247-.318v-1.394h.282v1.394a.328.328 0 1 0 .656 0v-1.394h.37v1.722h.668v11.245a.328.328 0 0 0 .656 0V48.758h.271v-1.722h.512v-2.998H38.87a.328.328 0 0 0-.1.016v-.944h-1.298a.327.327 0 0 0 .053-.18V31.534h.275V29.79h.519v-3.03H36.95V15.792h1.095v-3.03h-1.729a.329.329 0 0 0 .005-.052c0-4.125-3.03-7.555-6.982-8.181a.328.328 0 0 0-.02-.287l-.953-1.652V1.33a.328.328 0 1 0-.657 0v1.26l-.954 1.652a.328.328 0 0 0-.02.287c-3.951.626-6.982 4.056-6.982 8.181 0 .018.002.036.005.053H18.03v3.029h1.094v10.97h-1.367v3.029h.519v1.744h.274V42.93c0 .067.02.128.053.18h-1.298v1.043a.328.328 0 0 0-.25-.115H3.343v2.998h.512v1.722h.271v11.245a.328.328 0 0 0 .657 0V48.758h.667v-1.722h.37v1.394a.328.328 0 0 0 .657 0v-1.394h.281v1.394c0 .153.105.282.248.318V60.003a.328.328 0 0 0 .656 0V48.765a.328.328 0 0 0-.248-.318V47.036h1.46l-.001.007v1.387a.328.328 0 0 0 .657 0v-1.394h.281v1.394a.328.328 0 0 0 .656 0v-1.394h.371v1.722h1.594v-1.722h.371v1.722h1.266a.328.328 0 1 0 0-.657h-.61v-1.065h1.309v1.722h1.594v-1.722h.695a.328.328 0 1 0 0-.656H3.999v-1.685h13.057c.1 0 .188-.044.249-.114v1.665h.543a.318.318 0 0 0-.001.026v1.798zm6.135-21.31h-.74a.328.328 0 0 0 0 .658h.74a.328.328 0 0 0 0-.657zm8.03 13.085h-3.156v-3.027c.1-1.21.727-2.255 1.578-2.652.852.397 1.479 1.442 1.579 2.652v3.027zm-3.813.492h-.323v-1.135a.328.328 0 1 0-.657 0v.643H24.06v-3.027c.1-1.21.728-2.255 1.579-2.652.851.397 1.478 1.442 1.579 2.652v1.44a.328.328 0 1 0 .656 0v-1.186c.037.02.077.033.121.039h.002l.012.002h.013a.326.326 0 0 0 .029 0h.012l.01-.002h.005a.326.326 0 0 0 .12-.04v3.266zm2.53-7.293-.295-.114-.295.114c-.941.364-1.691 1.19-2.102 2.248-.41-1.059-1.16-1.884-2.102-2.248l-.295-.114-.296.114c-1.337.517-2.29 1.968-2.429 3.696l-.002 4.254h.165a.328.328 0 0 0 .163.613h1.456a.328.328 0 0 0 .163-.613H29.162a.328.328 0 0 0 .284-.492h1.768a.327.327 0 0 0 .125.45.328.328 0 0 0 .038.655h1.456a.328.328 0 0 0 .163-.613h.165v-4.209l-.002-.045c-.138-1.728-1.091-3.179-2.43-3.696zm7.087 27.3H18.215a.328.328 0 1 0 0 .656h19.601a.328.328 0 1 0 0-.657zm-20.618 0H1.328a.328.328 0 1 0 0 .656h15.87a.328.328 0 1 0 0-.657zm-2.837-8.808a4.165 4.165 0 0 0-1.631-1.165l-.276-.106-.275.106c-1.66.642-2.845 2.458-3.018 4.63l-.002.03v4.937a.328.328 0 0 0 .546.245.328.328 0 0 0 .546-.245v-4.895c.137-1.666 1.015-3.105 2.203-3.633 1.189.528 2.066 1.967 2.203 3.633v4.895a.328.328 0 0 0 .547.245.328.328 0 0 0 .546-.245v-4.925L15.748 55a.328.328 0 0 0-.467-.271 6.06 6.06 0 0 0-.286-1.224.327.327 0 0 0 .294-.452 5.676 5.676 0 0 0-.488-.936.328.328 0 0 0-.54-.014c-.011-.014-.023-.028-.033-.043a.328.328 0 0 0 .133-.524zm10.876-31.654h-.107a2.91 2.91 0 0 1 .62-1.494l.075.075a.327.327 0 0 0 .464 0 .328.328 0 0 0 0-.465l-.074-.074c.42-.335.933-.557 1.494-.62v.107c0 .059.016.114.043.162a.327.327 0 0 0-.043.162v2.623l1.5 1.331a.327.327 0 0 0 .465-.028.328.328 0 0 0-.028-.463l-1.28-1.135v-2.328a.327.327 0 0 0-.044-.162.327.327 0 0 0 .044-.162v-.107a2.911 2.911 0 0 1 1.493.62l-.074.074a.328.328 0 1 0 .464.465l.075-.075c.335.42.557.933.62 1.494h-.107a.328.328 0 0 0 0 .657h.107a2.91 2.91 0 0 1-.62 1.494l-.075-.075a.328.328 0 1 0-.464.464l.074.075c-.42.335-.933.557-1.493.62v-.107a.328.328 0 0 0-.657 0v.107a2.912 2.912 0 0 1-1.494-.62l.075-.075a.328.328 0 0 0-.465-.464l-.074.075a2.91 2.91 0 0 1-.62-1.494h.106a.328.328 0 0 0 0-.657zm2.8 3.911a3.587 3.587 0 0 0 3.583-3.583 3.587 3.587 0 0 0-3.583-3.582 3.587 3.587 0 0 0-3.582 3.582 3.587 3.587 0 0 0 3.582 3.583zm26.634 36.55h-6.08a.328.328 0 1 0 0 .657h6.08a.328.328 0 0 0 0-.657zm-7.018 0h-9.13a.328.328 0 0 0 0 .657h9.13a.328.328 0 0 0 0-.657z" stroke="#6E9A99" stroke-width=".5"/>
    </g>
</svg>
