<svg id="Capa_1" enable-background="new 0 0 511.8 511.8" height="512" viewBox="0 0 511.8 511.8" width="512" xmlns="http://www.w3.org/2000/svg"><g><g><g><path d="m406.093 337.299-77.88 122.88c-6.595 10.41-17.586 17.225-29.845 18.482l-135.058 14.004c-3.547.372-6.862 1.942-9.386 4.466l-5.93 5.93c-2.018 2.018-5.324 1.898-7.19-.261l-61.841-71.524 44.093-18.016 169.764-28.67 69.425-79.951c6.537-7.537 16.411-10.701 25.704-8.979 3.594.663 7.118 2.059 10.328 4.234 1.489 1 2.838 2.128 4.059 3.35 8.897 8.897 10.735 23.029 3.757 34.055z" fill="#ffe5c2"/><path d="m406.093 337.299-77.88 122.88c-6.595 10.41-17.586 17.225-29.845 18.482l-135.058 14.004c-3.547.372-6.862 1.942-9.386 4.466l-5.931 5.931c-2.017 2.017-5.323 1.898-7.189-.26l-16.876-19.512.279-.279c7.572-7.572 17.516-12.294 28.17-13.399l124.078-12.864c12.259-1.268 23.25-8.083 29.845-18.493l77.881-122.88c3.792-6.002 4.99-12.934 3.838-19.435-.023-.104-.047-.186-.07-.279 3.594.663 7.118 2.059 10.328 4.234 1.489 1 2.838 2.128 4.059 3.35 8.897 8.896 10.735 23.028 3.757 34.054z" fill="#fed2a4"/><path d="m297.821 400.117c0 7.328-2.978 13.957-7.77 18.772-4.815 4.792-11.445 7.769-18.772 7.769h-100.677l-83.812 13.667-7.828-9.049-5.002-5.783c-1.827-2.112-1.528-5.319.656-7.058l62.64-49.85c25.704-20.447 62.679-18.307 85.859 4.978h48.164c14.655.001 26.542 11.888 26.542 26.554z" fill="#ffe5c2"/><path d="m170.596 425.412v1.258l100.679-.006c7.332.006 13.967-2.972 18.774-7.779 4.801-4.801 7.773-11.43 7.773-18.768 0-4.49-1.113-8.712-3.078-12.418-1.244 2.35-2.83 4.484-4.695 6.349-4.807 4.807-11.442 7.773-18.774 7.779l-77.088-.004c-13.028-.001-23.591 10.56-23.591 23.589z" fill="#fed2a4"/></g><g><path d="m280.1 103.719-41.129 81.176c-5.382 10.626-17.851 15.566-29.049 11.507-1.449-.523-2.809-1.179-4.08-1.94-9.281-5.554-13.77-16.952-10.261-27.598l39.182-118.738z" fill="#fed2a4"/><path d="m208.814 60.836.025-.065c.18-.278.359-.555.539-.825z" fill="#fed2a4"/><g><circle cx="240.949" cy="234.796" fill="#ffe177" r="84.029"/><path d="m255.12 317.625c-4.61.79-9.34 1.2-14.17 1.2-46.41 0-84.03-37.63-84.03-84.03 0-46.41 37.62-84.03 84.03-84.03 4.83 0 9.56.41 14.17 1.2-39.66 6.73-69.85 41.25-69.85 82.83 0 41.57 30.19 76.1 69.85 82.83z" fill="#fec165"/></g><path d="m153.865 147.548 66.93-105.617c5.663-8.937 15.114-14.798 25.656-15.889l116.069-12.03c3.057-.316 5.907-1.668 8.071-3.833l1.436-1.437c1.657-1.657 4.343-1.657 6 0l59.776 59.776c1.884 1.884 1.586 5.017-.619 6.512l-54.348 36.842c-3.3 2.236-4.842 6.312-3.86 10.181.821 3.192 1.208 6.412 1.208 9.604 0 12.589-6.159 24.655-16.899 31.977l-16.782 11.453-10.812 22.148c-4.77 9.775-15.538 15.105-26.197 12.968-11.561-2.318-19.244-12.454-19.244-23.446 0-2.886.523-5.825 1.65-8.702l24.943-63.982c3.355-8.603-3.959-17.594-13.067-16.052l-48.372 8.17c-2.705.451-5.167 1.84-6.971 3.914l-56.885 65.497c-7.809 9-21.102 10.749-30.976 4.085-1.28-.857-2.435-1.822-3.481-2.877-7.645-7.646-9.223-19.793-3.226-29.262z" fill="#ffe5c2"/><path d="m295.806 202.052c7.368-1.308 13.906-6.033 17.341-13.067l10.803-22.148 16.791-11.462c10.731-7.322 16.899-19.388 16.899-31.977 0-3.192-.397-6.412-1.208-9.595-.992-3.878.55-7.945 3.86-10.19l66.362-46.244 11.149 11.149c1.884 1.884 1.586 5.017-.619 6.512l-54.348 36.842c-3.3 2.245-4.851 6.312-3.86 10.181.821 3.192 1.217 6.412 1.217 9.604 0 12.598-6.168 24.646-16.908 31.986l-16.791 11.444-10.803 22.157c-4.77 9.775-15.529 15.096-26.197 12.968-5.635-1.126-10.352-4.12-13.688-8.16z" fill="#fed2a4"/></g></g><g><path d="m237.231 478.529-75.139 7.786c-5.263.535-10.233 2.9-13.993 6.66l-5.959 5.959c-2.943 2.943-2.943 7.715 0 10.658 1.471 1.471 3.4 2.207 5.329 2.207s3.858-.736 5.329-2.207l5.959-5.959c1.313-1.312 3.038-2.138 4.873-2.324l75.154-7.788c4.14-.429 7.149-4.133 6.72-8.273s-4.132-7.151-8.273-6.719z"/><path d="m403.185 293.858c-14.673-9.905-34.501-7.294-46.123 6.078l-64.392 74.149c-5.851-4.678-13.26-7.485-21.316-7.485h-45.364c-26.122-24.05-65.97-25.664-94.005-3.362l-62.947 50.105c-3.257 2.592-3.795 7.334-1.203 10.59s7.333 3.795 10.59 1.203l62.945-50.103c22.858-18.183 55.636-16.282 76.244 4.421 1.415 1.42 3.336 2.219 5.341 2.219h48.398c10.551 0 19.135 8.589 19.135 19.146 0 5.099-1.993 9.91-5.587 13.521-3.638 3.62-8.449 5.613-13.548 5.613h-101.166c-4.162 0-7.537 3.374-7.537 7.537 0 4.162 3.374 7.536 7.537 7.536h101.167c9.112 0 17.699-3.552 24.206-10.028 6.449-6.481 10.002-15.068 10.002-24.18 0-5.276-1.201-10.275-3.342-14.742l66.222-76.256c6.629-7.628 17.938-9.121 26.328-3.458 1.034.694 2.026 1.514 2.95 2.437 6.556 6.557 7.709 17.009 2.742 24.852l-78.258 123.484c-5.432 8.56-14.331 14.068-24.416 15.112l-25.634 2.652c-4.14.428-7.15 4.132-6.721 8.272.401 3.877 3.673 6.761 7.487 6.761.259 0 .521-.013.784-.041l25.635-2.652c14.701-1.522 27.674-9.551 35.594-22.032l78.261-123.49c8.85-13.973 6.869-31.892-4.815-43.576-1.614-1.611-3.367-3.057-5.194-4.283z"/><path d="m240.341 265.143c-7.712.059-10.106-.331-16.036-4.211-3.483-2.279-8.154-1.303-10.433 2.181-2.279 3.483-1.302 8.154 2.181 10.433 6.366 4.164 11.035 5.814 16.799 6.393v3.91c0 4.162 3.374 7.537 7.537 7.537s7.537-3.374 7.537-7.537v-4.635c11.66-3.133 19.132-13.164 20.796-23.062 2.169-12.9-4.833-24.556-17.422-29.007-7.156-2.529-15.073-5.587-19.535-9.087-1.512-1.185-2.149-3.755-1.623-6.546.527-2.797 2.411-6.184 6.117-7.301 8.535-2.571 14.173 1.838 14.786 2.349 3.2 2.662 7.952 2.227 10.614-.973s2.227-7.952-.973-10.614c-1.245-1.036-5.818-4.496-12.76-5.971v-3.469c0-4.162-3.374-7.537-7.537-7.537s-7.537 3.374-7.537 7.537v3.983c-.313.085-.625.167-.942.262-8.509 2.563-14.862 9.821-16.581 18.941-1.58 8.385 1.153 16.507 7.132 21.198 4.98 3.905 11.879 7.219 23.814 11.437 8.22 2.905 8.039 9.567 7.581 12.296-.923 5.5-5.547 11.44-13.515 11.493z"/><path d="m155.895 185.566c1.74 1.174 3.563 2.144 5.437 2.927-8.156 13.966-12.426 29.732-12.426 46.204 0 12.868 2.605 25.307 7.744 36.973 1.243 2.821 4.005 4.5 6.901 4.5 1.015 0 2.046-.206 3.034-.641 3.809-1.678 5.537-6.126 3.859-9.935-4.29-9.739-6.465-20.134-6.465-30.896 0-15.989 4.803-31.18 13.92-44.14 7.166-1.054 13.976-4.58 19.032-10.406l14.211-16.362c9.428-3.962 19.416-5.994 29.729-5.994 4.508 0 9.027.394 13.436 1.172 11.444 2.012 22.309 6.646 31.721 13.486l-.961 2.467c-1.448 3.678-2.182 7.549-2.182 11.503 0 14.99 10.68 28.004 25.388 30.944 2.076.417 4.156.619 6.213.619.485 0 .966-.029 1.448-.051 1.217 5.47 1.842 11.083 1.842 16.762 0 42.399-34.498 76.893-76.903 76.893-19.235 0-37.639-7.136-51.822-20.094-3.073-2.808-7.841-2.593-10.648.48-2.808 3.073-2.592 7.84.48 10.648 16.967 15.502 38.982 24.039 61.989 24.039 50.715 0 91.976-41.256 91.976-91.966 0-7.136-.818-14.191-2.429-21.055 5.24-3.065 9.63-7.634 12.437-13.382l9.987-20.463 15.212-10.38c12.693-8.663 20.271-23.003 20.271-38.361 0-3.887-.489-7.765-1.447-11.512-.206-.812.118-1.671.802-2.135l12.099-8.2c3.445-2.335 4.345-7.022 2.01-10.467-2.336-3.446-7.021-4.346-10.467-2.01l-12.103 8.203c-5.92 4.018-8.713 11.381-6.947 18.334.651 2.541.98 5.16.98 7.787 0 10.372-5.12 20.058-13.694 25.91l-16.862 11.505c-1.08.737-1.951 1.744-2.525 2.92l-10.861 22.256c-3.291 6.739-10.722 10.415-18.079 8.94-7.692-1.537-13.274-8.335-13.274-16.164 0-2.056.382-4.069 1.144-6.005l25.062-64.303c2.58-6.622 1.439-13.867-3.052-19.382-4.489-5.513-11.351-8.096-18.359-6.913l-48.589 8.207c-4.438.739-8.509 3.027-11.455 6.431l-57.159 65.811c-5.342 6.156-14.467 7.361-21.236 2.793-.857-.576-1.638-1.22-2.371-1.967-5.287-5.287-6.216-13.715-2.209-20.039l67.258-106.137c4.484-7.083 11.844-11.639 20.194-12.502l116.62-12.088c4.761-.484 9.259-2.616 12.695-6.036l1.437-1.447c2.932-2.954 2.915-7.725-.038-10.658-2.953-2.932-7.725-2.917-10.658.038l-1.404 1.415c-.962.957-2.225 1.558-3.571 1.695l-116.633 12.087c-12.971 1.34-24.408 8.423-31.376 19.43l-67.257 106.135c-7.874 12.428-6.113 28.369 4.232 38.714 1.398 1.424 2.97 2.727 4.662 3.863zm149.369-80.884c2.288-.384 3.672.968 4.16 1.568.49.601 1.537 2.232.696 4.392l-18.466 47.379c-7.706-5.11-16.136-9.029-24.988-11.615l19.509-38.5zm-51.167 9.65c.661-.764 1.565-1.274 2.561-1.44l11.038-1.864-16.37 32.306c-3.466-.393-6.961-.612-10.453-.612-4.084 0-8.127.265-12.118.79z"/><path d="m444.307 69.921c-2.336-3.446-7.022-4.346-10.468-2.011l-13.627 9.235c-3.445 2.335-4.345 7.021-2.011 10.467 1.457 2.15 3.83 3.309 6.246 3.309 1.455 0 2.926-.421 4.222-1.299l13.627-9.235c3.445-2.334 4.345-7.02 2.011-10.466z"/></g></g></svg>