<svg width="31" height="30" viewBox="0 0 31 30" xmlns="http://www.w3.org/2000/svg">
    <g fill="#FFF" fill-rule="nonzero">
        <path d="M20.274 19.29c-.72 0-1.304-.506-1.304-1.129 0-.622.585-1.129 1.304-1.129.72 0 1.304.507 1.304 1.13a.593.593 0 0 0 1.186 0c0-1.087-.81-2-1.897-2.249v-.308a.593.593 0 0 0-1.186 0v.308c-1.088.248-1.897 1.162-1.897 2.248 0 1.276 1.117 2.315 2.49 2.315.72 0 1.304.506 1.304 1.129 0 .622-.585 1.129-1.304 1.129-.72 0-1.304-.507-1.304-1.13a.593.593 0 0 0-1.186 0c0 1.087.81 2 1.897 2.249v.256a.593.593 0 0 0 1.186 0v-.256c1.088-.248 1.897-1.162 1.897-2.248 0-1.277-1.117-2.315-2.49-2.315zM26.768 15.763a7.725 7.725 0 0 0-3.156-2.792.593.593 0 1 0-.514 1.068 6.56 6.56 0 0 1 3.7 5.882 6.534 6.534 0 0 1-.76 3.059.593.593 0 1 0 1.047.557 7.723 7.723 0 0 0-.317-7.774zM21.206 12.214h-.04a.593.593 0 0 0 0 1.185H21.203a.593.593 0 0 0 .003-1.185zM17.455 25.802a6.561 6.561 0 0 1-3.7-5.881c0-1.067.263-2.124.76-3.059a.593.593 0 1 0-1.047-.557 7.723 7.723 0 0 0 .318 7.774 7.726 7.726 0 0 0 3.155 2.792.59.59 0 0 0 .791-.277.593.593 0 0 0-.277-.792zM19.387 26.443h-.034a.592.592 0 1 0-.005 1.185h.04a.593.593 0 0 0 0-1.185z"/>
        <path d="M22.969 10.208a2.721 2.721 0 0 0-.264-.485h1.544a2.73 2.73 0 0 0 2.727-2.727 2.73 2.73 0 0 0-2.727-2.727h-4.748c.302-.44.48-.97.48-1.542A2.73 2.73 0 0 0 17.252 0H2.727A2.73 2.73 0 0 0 0 2.727a2.73 2.73 0 0 0 2.727 2.728h4.748c-.302.438-.479.97-.479 1.541 0 .572.177 1.103.48 1.542H5.928a2.73 2.73 0 0 0-2.727 2.727c0 .863.404 1.634 1.032 2.134a2.723 2.723 0 0 0 0 4.269 2.723 2.723 0 0 0 0 4.269 2.723 2.723 0 0 0-1.032 2.134 2.73 2.73 0 0 0 2.727 2.727h6.987A10.052 10.052 0 0 0 20.276 30c5.558 0 10.08-4.521 10.08-10.079 0-4.626-3.132-8.533-7.387-9.713zm1.28-4.753c.85 0 1.541.691 1.541 1.541S25.1 8.538 24.25 8.538H9.723c-.85 0-1.541-.692-1.541-1.542 0-.85.691-1.541 1.541-1.541H24.25zM2.727 4.269c-.85 0-1.541-.692-1.541-1.542 0-.85.691-1.541 1.541-1.541h14.526c.85 0 1.541.691 1.541 1.541s-.691 1.542-1.541 1.542H2.727zM5.93 9.723h14.526c.238 0 .467.056.672.155a10.048 10.048 0 0 0-7.983 2.928H5.93c-.85 0-1.542-.691-1.542-1.541S5.08 9.723 5.93 9.723zm0 4.27h6.202a10.05 10.05 0 0 0-1.524 3.082H5.93c-.85 0-1.542-.691-1.542-1.541s.692-1.542 1.542-1.542zm0 4.268h4.406a10.103 10.103 0 0 0-.036 3.083h-4.37c-.85 0-1.542-.692-1.542-1.542 0-.85.692-1.541 1.542-1.541zm0 7.352c-.85 0-1.542-.692-1.542-1.542 0-.85.692-1.541 1.542-1.541h4.612a10.04 10.04 0 0 0 1.422 3.083H5.93zm14.348 3.201c-4.904 0-8.894-3.99-8.894-8.893 0-4.904 3.99-8.893 8.894-8.893 4.903 0 8.893 3.99 8.893 8.893 0 4.904-3.99 8.893-8.893 8.893z"/>
    </g>
</svg>
