<svg width="19" height="18" viewBox="0 0 19 18" xmlns="http://www.w3.org/2000/svg">
        <g  fill="#454ec2" fill-rule="nonzero">
            <path d="M12.164 11.574c-.431 0-.782-.304-.782-.677 0-.374.35-.678.782-.678.432 0 .783.304.783.678a.356.356 0 0 0 .711 0c0-.652-.485-1.2-1.138-1.35v-.184a.356.356 0 0 0-.711 0v.185c-.653.149-1.139.697-1.139 1.349 0 .765.67 1.388 1.494 1.388.432 0 .783.304.783.678 0 .373-.351.677-.783.677-.431 0-.782-.304-.782-.677a.356.356 0 0 0-.712 0c0 .652.486 1.2 1.139 1.349v.153a.356.356 0 0 0 .711 0v-.153c.653-.15 1.138-.697 1.138-1.35 0-.765-.67-1.388-1.494-1.388zM16.06 9.458a4.635 4.635 0 0 0-1.893-1.676.356.356 0 1 0-.308.642 3.937 3.937 0 0 1 2.22 3.529 3.92 3.92 0 0 1-.456 1.835.356.356 0 1 0 .628.334 4.634 4.634 0 0 0-.19-4.664zM12.724 7.328H12.7a.356.356 0 0 0 0 .712h.022a.356.356 0 0 0 .002-.712zM10.473 15.481a3.937 3.937 0 0 1-2.22-3.528c0-.64.158-1.275.456-1.836a.356.356 0 1 0-.628-.334 4.634 4.634 0 0 0 .19 4.664 4.635 4.635 0 0 0 1.894 1.676.354.354 0 0 0 .474-.167.356.356 0 0 0-.166-.475zM11.632 15.866h-.02a.355.355 0 1 0-.003.711h.023a.356.356 0 0 0 0-.711z"/>
            <path d="M13.781 6.125a1.633 1.633 0 0 0-.158-.291h.926c.903 0 1.637-.734 1.637-1.636 0-.903-.734-1.637-1.637-1.637h-2.848A1.638 1.638 0 0 0 10.352 0H1.636C.734 0 0 .734 0 1.636c0 .903.734 1.637 1.636 1.637h2.85a1.627 1.627 0 0 0 0 1.85h-.929A1.634 1.634 0 0 0 2.54 8.04a1.634 1.634 0 0 0 0 2.56 1.634 1.634 0 0 0 0 2.562 1.634 1.634 0 0 0 1.017 2.917H7.75A6.031 6.031 0 0 0 12.166 18a6.054 6.054 0 0 0 6.047-6.047c0-2.776-1.879-5.12-4.432-5.828zm.768-2.852a.926.926 0 0 1 0 1.85H5.834a.926.926 0 0 1 0-1.85h8.715zM1.636 2.56a.926.926 0 0 1 0-1.85h8.716a.926.926 0 0 1 0 1.85H1.636zm1.921 3.273h8.716c.143 0 .28.033.403.093a6.029 6.029 0 0 0-4.79 1.757H3.558a.926.926 0 0 1 0-1.85zm0 2.561H7.28a6.03 6.03 0 0 0-.915 1.85H3.557a.926.926 0 0 1 0-1.85zm0 2.562h2.644a6.062 6.062 0 0 0-.022 1.85H3.557a.926.926 0 0 1 0-1.85zm0 4.41a.926.926 0 0 1 0-1.85h2.767c.18.67.471 1.294.854 1.85h-3.62zm8.609 1.922a5.342 5.342 0 0 1-5.336-5.336 5.342 5.342 0 0 1 5.336-5.336 5.342 5.342 0 0 1 5.336 5.336 5.342 5.342 0 0 1-5.336 5.336z"/>
        </g>
</svg>
