<?xml version="1.0" encoding="UTF-8"?>
<svg width="52px" height="50px" viewBox="0 0 52 50" version="1.1" xmlns="http://www.w3.org/2000/svg" xmlns:xlink="http://www.w3.org/1999/xlink">
    <title>Delhi-2</title>
    <g id="Page-1" stroke="none" stroke-width="1" fill="none" fill-rule="evenodd" opacity="0.900000036">
        <g id="011_UM_Personal-loan_City-Wise-V-5.0" transform="translate(-214.000000, -2468.000000)" fill="#9F485B" fill-rule="nonzero">
            <g id="-City-Wise-Personal-loan-3" transform="translate(0.000000, 1630.000000)">
                <g id="returns-2-copy-3" transform="translate(157.000000, 30.000000)">
                    <g id="city-card-copy-22" transform="translate(29.000000, 779.000000)">
                        <g id="Delhi-2" transform="translate(28.000000, 29.000000)">
                            <g id="Group_24304" transform="translate(-0.000000, -0.000000)">
                                <path d="M41.20085,9.43198575 L41.20085,15.3856287 L41.802368,14.7841108 C31.0776058,14.8425703 20.3528437,14.9071835 9.62808157,14.9779503 L10.2295995,15.5794682 L10.2295995,9.41198643 L9.62808157,10.0135044 L41.802368,10.0135044 C42.1173414,9.99743617 42.3644795,9.73736915 42.3644795,9.42198609 C42.3644795,9.10660303 42.1173414,8.84653601 41.802368,8.83046782 L9.60962066,8.83046782 C9.27811103,8.83215064 9.00978555,9.10047612 9.00810273,9.43198575 L9.00810273,15.5994675 C9.00978555,15.9309772 9.27811103,16.1993026 9.60962066,16.2009855 C20.336434,16.1425259 31.0611961,16.0773999 41.7839071,16.0056075 C42.1154167,16.0039247 42.3837422,15.7355992 42.385425,15.4040896 L42.385425,9.45044666 C42.3693568,9.13547319 42.1092898,8.88833514 41.7939067,8.88833514 C41.4785237,8.88833514 41.2184566,9.13547319 41.2023884,9.45044666 L41.20085,9.43198575 Z" id="Path_25175"></path>
                                <path d="M9.60962066,8.44586556 L41.802368,8.44586556 C42.0611012,8.43980071 42.3109222,8.54050807 42.4931136,8.7243176 C42.675902,8.91634587 42.7749524,9.17310226 42.7687864,9.43813938 L42.7687864,15.405628 C42.7676417,15.9498959 42.3266365,16.3909011 41.7823687,16.3917482 C36.4225516,16.420978 30.97043,16.454823 25.6983023,16.488668 C20.4261745,16.522513 14.9740529,16.556358 9.61115907,16.5855877 C9.06629051,16.5855877 8.62434918,16.1443354 8.62350047,15.5994675 L8.62350047,9.43198575 C8.62434758,8.88771788 9.06535279,8.44671267 9.60962066,8.44586556 Z M40.8393239,9.21507008 L10.6142018,9.21507008 L10.6142018,9.6289021 L40.8162478,9.6289021 L40.8162478,9.43198575 C40.8177254,9.35890058 40.8270086,9.28618253 40.8439391,9.21507008 L40.8393239,9.21507008 Z M42.0069764,14.3979701 L42.0069764,10.3811841 C41.9419762,10.392706 41.8760729,10.3983696 41.81006,10.3981066 L41.5931443,10.3981066 L41.5931443,14.3979701 L42.0069764,14.3979701 Z M9.85422769,10.3981066 L9.39270498,10.3981066 L9.39270498,14.5995017 L9.84499724,14.5995017 L9.85422769,10.3981066 Z M40.8254782,10.3981066 L10.6142018,10.3981066 L10.6142018,14.5887328 C15.6509529,14.5610414 20.7677013,14.5287349 25.7136864,14.4964283 C30.6596714,14.4641217 35.7779582,14.4333535 40.8177862,14.4041237 L40.8254782,10.3981066 Z M40.8254782,15.6286973 L40.8254782,15.1748666 C35.7887271,15.202558 30.6719787,15.2348646 25.727532,15.2671712 C20.7830854,15.2994778 15.6632602,15.330246 10.6234322,15.3594757 L10.6234322,15.811768 C15.658645,15.7840766 20.7600093,15.75177 25.6998407,15.7210019 C30.6396721,15.6902337 35.7656509,15.6548503 40.8162478,15.6271589 L40.8254782,15.6286973 Z M9.92037928,15.8133064 L9.39270498,15.2856321 L9.39270498,15.5933139 C9.39435949,15.7124211 9.49051349,15.8085751 9.60962066,15.8102296 L9.92037928,15.8133064 Z" id="Path_25175_-_Outline"></path>
                                <path d="M41.20085,20.0270087 L41.20085,48.8967925 L41.802368,48.2952746 L33.1334331,48.2952746 L33.734951,48.8967925 L33.734951,32.917338 C33.8335951,31.408737 33.6775741,29.8942934 33.2734283,28.4374909 C32.3261545,25.4493255 29.7750407,23.250582 26.6798072,22.7546079 C23.6368883,22.4097972 20.6704679,23.8623948 19.0769898,26.4775578 C18.0874931,28.1465632 17.6023389,30.0663418 17.6801144,32.0050614 L17.6801144,48.8967925 L18.2816323,48.2952746 L9.60962066,48.2952746 L10.2111386,48.8967925 L10.2111386,20.1808496 L9.60962066,20.7823676 L40.8516312,20.7823676 C41.4669948,20.7823676 41.8992877,20.8792873 42.3054277,20.3208448 C42.7669504,19.7054812 41.7239091,19.117809 41.2777705,19.7193269 L41.1608514,19.8931671 L41.6839105,19.6024078 L9.60962066,19.6024078 C9.27811103,19.6040907 9.00978555,19.8724161 9.00810273,20.2039258 L9.00810273,48.9260223 C9.00978555,49.2575319 9.27811103,49.5258574 9.60962066,49.5275402 L18.2785555,49.5275402 C18.6100652,49.5258574 18.8783906,49.2575319 18.8800735,48.9260223 L18.8800735,33.7511557 C18.8800735,32.7234984 18.8216139,31.657381 18.9000728,30.6281853 C19.12808,27.4621483 21.3658754,24.8016237 24.4460373,24.0345642 C27.6477564,23.5369607 30.7663133,25.3266634 31.951935,28.3421095 C32.4336281,29.7242056 32.6314166,31.1893051 32.5334536,32.6496548 L32.5334536,48.9167919 C32.5351364,49.2483015 32.8034619,49.516627 33.1349715,49.5183098 L41.8039064,49.5183098 C42.135416,49.516627 42.4037415,49.2483015 42.4054243,48.9167919 L42.4054243,20.039316 C42.3893561,19.7243425 42.1292891,19.4772045 41.813906,19.4772045 C41.498523,19.4772045 41.238456,19.7243425 41.2223878,20.039316 L41.20085,20.0270087 Z" id="Path_25176"></path>
                                <path d="M41.9300559,19.0178124 L41.9100566,19.0778104 C42.0563604,19.0907486 42.1980964,19.1353691 42.325427,19.2085751 L43.1700136,19.2085751 L42.6438777,19.5008728 C42.7863853,19.6938052 42.8385486,19.9389165 42.7869497,20.1731576 L42.7869497,48.9167919 C42.7861026,49.4610597 42.3450974,49.9020649 41.8008296,49.902912 L33.1334331,49.902912 C32.5891652,49.9020649 32.14816,49.4610597 32.1473129,48.9167919 L32.1473129,32.6419627 C32.2426179,31.2344001 32.0548227,29.8220128 31.5950241,28.4882584 C30.6068489,26.0368292 28.2703261,24.3949972 25.6290739,24.2960938 C25.2583666,24.2957919 24.8886548,24.3344647 24.5260346,24.4114745 C21.6158818,25.1494233 19.5041659,27.6663804 19.2831366,30.6604919 C19.2308307,31.3620064 19.243138,32.1004428 19.2539069,32.8142646 C19.2539069,33.1219464 19.2646757,33.440397 19.2646757,33.7496172 L19.2646757,48.9152534 C19.2638286,49.4595213 18.8228234,49.9005265 18.2785555,49.9013736 L9.60962066,49.9013736 C9.06535279,49.9005265 8.62434758,49.4595213 8.62350047,48.9152534 L8.62350047,20.1946953 C8.62434758,19.6504274 9.06535279,19.2094222 9.60962066,19.2085751 L40.8162478,19.2085751 L40.8162478,19.091656 L40.9347053,19.2101135 L41.2700784,19.2101135 C41.4341399,19.1146588 41.6219184,19.0677142 41.8115984,19.0747335 L41.8315977,19.0747335 L41.9300559,19.0178124 Z M40.3116496,19.9777796 L10.5957408,19.9777796 L10.5957408,20.3916117 L40.6608685,20.3916117 L40.7993253,19.9777796 L40.3116496,19.9777796 Z M42.0192836,47.9106723 L42.0192836,21.0454355 C41.8812306,21.1041756 41.7348616,21.1410274 41.5854523,21.1546625 L41.5854523,47.9122108 L42.0192836,47.9106723 Z M9.82653633,21.1608162 L9.39270498,21.1608162 L9.39270498,47.9122108 L9.82653633,47.9122108 L9.82653633,21.1608162 Z M40.8177862,21.1608162 L10.5957408,21.1608162 L10.5957408,47.9122108 L17.2924353,47.9122108 L17.2924353,32.0050614 C17.2072187,29.9932194 17.7131593,28.0004766 18.7477703,26.2729494 C20.2368839,23.8478169 22.8620612,22.3518604 25.7075327,22.3069309 C26.0475709,22.3069223 26.3872499,22.3290195 26.7244211,22.3730825 C29.96443,22.8884654 32.6369857,25.1866252 33.6318776,28.3128797 C34.0356322,29.7110488 34.199996,31.1674372 34.1180149,32.620425 L34.1180149,47.916826 L40.8147094,47.916826 L40.8177862,21.1608162 Z M33.3503488,47.9122108 L33.3503488,32.6142714 C33.4316462,31.2481428 33.2813267,29.8781027 32.9057486,28.562102 C32.0056008,25.7111471 29.5745154,23.6116274 26.6228861,23.1361334 C26.316842,23.0960254 26.0085017,23.0761346 25.6998407,23.0761346 C23.1185358,23.1229382 20.7398428,24.4845949 19.3923637,26.6867814 C18.4376829,28.2917625 17.9734978,30.141016 18.0570246,32.0065998 L18.0570246,47.9122108 L18.490856,47.9122108 L18.490856,33.7588477 C18.490856,33.4511659 18.490856,33.1434841 18.4800871,32.8358023 C18.4677798,32.1035196 18.4554726,31.3450839 18.5108553,30.6066476 C18.6515754,28.982924 19.2807017,27.4398752 20.3154091,26.1806448 C21.3385014,24.9023143 22.7685906,24.0129877 24.3675785,23.6607308 C24.783295,23.5723958 25.2071528,23.5280506 25.6321507,23.5284277 C28.5836687,23.632131 31.1986148,25.4607857 32.3088459,28.1974991 C32.8142879,29.6243372 33.0236689,31.139209 32.9242095,32.6496548 L32.9242095,47.9152876 L33.3503488,47.9122108 Z M40.8162478,48.6814153 L34.1195533,48.6814153 L34.1195533,49.1337075 L40.8162478,49.1337075 L40.8162478,48.6814153 Z M17.2924353,48.6814153 L10.5957408,48.6814153 L10.5957408,49.1337075 L17.2924353,49.1337075 L17.2924353,48.6814153 Z" id="Path_25176_-_Outline"></path>
                                <path d="M32.5334536,31.2097039 L32.5334536,48.9014078 L33.1349715,48.2998898 L18.2785555,48.2998898 L18.8800735,48.9014078 L18.8800735,31.4235428 C18.7885786,28.1910711 20.783492,25.2654049 23.8260585,24.1699442 C28.4228247,22.7161477 32.441149,26.7683171 32.5534529,31.2097039 C32.5695211,31.5246774 32.8295881,31.7718155 33.1449712,31.7718155 C33.4603542,31.7718155 33.7204212,31.5246774 33.7364894,31.2097039 C33.7594131,27.0912267 30.8395565,23.5431448 26.7936495,22.7730688 C22.8157688,22.2973059 19.097525,24.8317554 18.0862544,28.7082509 C17.6848632,30.5933662 17.554323,32.5260857 17.6985753,34.4480549 L17.6985753,48.9090998 C17.7002581,49.2406094 17.9685836,49.5089349 18.3000933,49.5106177 L33.1534324,49.5106177 C33.484942,49.5089349 33.7532675,49.2406094 33.7549503,48.9090998 L33.7549503,31.217396 C33.7388822,30.9024225 33.4788151,30.6552845 33.1634321,30.6552845 C32.848049,30.6552845 32.587982,30.9024225 32.5719138,31.217396 L32.5334536,31.2097039 Z" id="Path_25177"></path>
                                <path d="M25.7044559,22.3115425 C28.1757209,22.3091953 30.5083482,23.4530634 32.019625,25.4083635 C33.2840589,27.0029943 34.0144494,28.9551877 34.107246,30.988173 C34.1256058,31.0668513 34.1349374,31.1473729 34.1349374,31.2281649 L34.1349374,48.9198687 C34.1340903,49.4641365 33.6930851,49.9051417 33.1488172,49.9059889 L18.2985548,49.9059889 C17.754287,49.9051417 17.3132818,49.4641365 17.3124347,48.9198687 L17.3124347,34.4588238 C17.3124347,34.117297 17.3124347,33.7650013 17.3016658,33.4234745 C17.1957065,31.8067132 17.3352328,30.1832283 17.7154978,28.6082543 C18.2305488,26.8560138 19.2588398,25.2983056 20.6677047,24.1360992 C22.0835196,22.9609767 23.8645031,22.315819 25.7044559,22.3115425 L25.7044559,22.3115425 Z M33.2765051,30.2681976 C33.0665206,28.6667827 32.4246259,27.1527195 31.4196454,25.8883471 C30.2713645,24.4065993 28.5933054,23.4277774 26.7382668,23.1576711 C26.3958089,23.1089588 26.0503606,23.0842839 25.7044559,23.0838275 C24.0429886,23.0859316 22.4340648,23.6662973 21.153842,24.7253099 C19.8650181,25.7894247 18.9246087,27.2153104 18.4539342,28.8190163 C18.0984579,30.3200566 17.9693434,31.8658003 18.0708703,33.4050136 C18.0708703,33.7496172 18.0816392,34.1049897 18.0816392,34.4511318 L18.0816392,47.9106723 L18.4954712,47.9106723 L18.4954712,31.4235428 C18.4956232,29.77658 18.969295,28.1643872 19.86004,26.7790859 C20.7556071,25.3689379 22.1161607,24.3164137 23.7060626,23.8038029 C24.3591003,23.5948726 25.0403511,23.4874705 25.7259936,23.4853522 C27.6758616,23.5123509 29.5204824,24.3744436 30.7919746,25.8529637 C31.9076323,27.1026219 32.6272325,28.6553307 32.8595963,30.3143499 C32.9941975,30.271788 33.1358538,30.2561065 33.2765051,30.2681976 Z M32.1488513,30.8404858 C31.9933963,27.3330984 29.2327641,24.4996787 25.7306089,24.2530183 C25.1232387,24.2551511 24.5198042,24.3506214 23.9414392,24.5360856 C22.5201167,24.9953695 21.3042749,25.9374564 20.5046334,27.1990716 C19.6948533,28.4592296 19.2644385,29.9256302 19.2646756,31.4235428 L19.2646756,47.9106723 L32.1488513,47.9106723 L32.1488513,30.8404858 Z M33.1580476,32.1681328 C33.0773277,32.1683476 32.9968348,32.1595759 32.9180558,32.1419798 L32.9180558,47.9106723 L33.3703481,47.9106723 L33.3703481,32.1481335 C33.2999839,32.1625498 33.228335,32.1697662 33.1565092,32.1696712 L33.1580476,32.1681328 Z M32.1488513,48.6798769 L19.2646757,48.6798769 L19.2646757,49.1321691 L32.1488513,49.1321691 L32.1488513,48.6798769 Z" id="Path_25177_-_Outline"></path>
                                <path d="M44.7499597,15.0564092 C43.5469238,16.665585 42.3638873,18.2762992 41.1623898,19.8854751 L41.6854489,19.5947158 L9.49270157,19.5947158 L10.0157606,19.8854751 C8.90964455,18.3470661 7.78506755,16.8409636 6.68048987,15.3087082 L6.1574308,16.2009855 C19.1898065,16.1230394 32.2288486,16.0389397 45.2745571,15.9486864 C45.5895306,15.9326182 45.8366687,15.6725512 45.8366687,15.3571681 C45.8366687,15.0417851 45.5895306,14.781718 45.2745571,14.7656498 C32.2421815,14.8435959 19.2031394,14.9276956 6.1574308,15.0179489 C5.74975241,15.0179489 5.36207333,15.541008 5.63437173,15.9102262 L8.77580296,20.2177714 C9.04656295,20.5869896 9.20194227,20.7608298 9.62961998,20.7808291 C10.2311379,20.8192894 10.8711161,20.7808291 11.4757108,20.7808291 L39.1070754,20.7808291 C39.8762799,20.7808291 40.677791,20.8008285 41.4531491,20.7808291 C41.7566515,20.8016549 42.0487656,20.6614401 42.2223536,20.411611 C43.4900027,18.9024317 44.5945804,17.2471036 45.7514639,15.6563887 C46.2129867,15.0410251 45.1699453,14.4533528 44.7238067,15.0548707 L44.7499597,15.0564092 Z" id="Path_25178"></path>
                                <path d="M45.2899412,14.3795092 C45.657587,14.3687918 45.9948787,14.582491 46.1422198,14.9194908 C46.2951268,15.179156 46.2951268,15.5013353 46.1422198,15.7610005 C46.0901138,15.8836861 46.0131072,15.9942194 45.9160737,16.0856048 C45.6376217,16.4686686 45.3560928,16.8548093 45.0853328,17.2424884 C44.2715145,18.3824495 43.4315431,19.5593324 42.5177282,20.6546796 C42.2700222,20.991868 41.8694674,21.1820303 41.4516107,21.1608162 C41.2177725,21.1608162 40.9608582,21.1700466 40.6654837,21.1700466 L39.8747415,21.1700466 L39.1055369,21.1700466 L11.4710956,21.1700466 C11.2757176,21.1700466 11.0803397,21.1700466 10.8726545,21.1777387 C10.6649693,21.1854307 10.4526688,21.1869691 10.2403684,21.1869691 C10.0003766,21.1869691 9.79269133,21.1869691 9.60500543,21.1685082 C9.1247278,21.1486571 8.69118708,20.8750578 8.46658275,20.4500712 L5.65283264,16.5871261 L5.48360765,16.5871261 L5.55898969,16.4578998 L5.3220747,16.1332955 C5.1264282,15.8626829 5.10310814,15.5039126 5.26207675,15.2102501 C5.43082817,14.8673879 5.77402404,14.6446945 6.15589239,14.6302699 L6.63279919,14.6302699 L6.64664487,14.6056553 L6.66356737,14.6302699 C19.5585118,14.5348885 32.6272965,14.4564296 45.277634,14.382586 L45.2899412,14.3795092 Z M43.9807552,15.439473 L43.9669095,15.439473 L44.1776715,15.1548673 C32.0519316,15.2271726 19.5631271,15.3087082 7.21739462,15.3933207 L7.52507643,15.8071528 C18.7246941,15.7394628 31.3996461,15.6717728 43.8838354,15.5733146 L43.9807552,15.439473 Z M45.4530126,15.2779401 C45.3925735,15.2199696 45.3121507,15.18747 45.2284049,15.1871739 C45.1844828,15.1862815 45.1412294,15.1980293 45.1037937,15.2210189 L45.0561031,15.2856321 L44.8468794,15.5656225 L45.2684035,15.5656225 C45.3000415,15.5668348 45.3315577,15.5610569 45.3607081,15.5487 L45.4453205,15.431781 L45.4453205,15.431781 C45.4619118,15.3822463 45.4656178,15.329303 45.4560894,15.2779401 L45.4530126,15.2779401 Z M42.6961836,19.2101135 C43.3115472,18.4193713 43.8930658,17.5978609 44.465354,16.7963498 L44.7930351,16.3348271 L44.2730529,16.3348271 L43.2669334,17.6917038 L42.1454332,19.2039599 L42.6961836,19.2101135 Z M41.1870044,19.2101135 C41.6762184,18.5537257 42.1633813,17.8973378 42.6484929,17.24095 L43.3100088,16.3486727 C31.2181139,16.4363621 18.972378,16.5025136 8.08044208,16.5748189 L8.66349911,17.3701763 C9.1050225,17.9716943 9.56039157,18.6009036 10.0065302,19.2162672 L41.1870044,19.2101135 Z M9.05117818,19.2101135 C8.71118979,18.7485908 8.37120139,18.2793761 8.03736663,17.8255454 L7.12662849,16.5809725 L6.59895419,16.5809725 L8.52196548,19.2101135 L9.05117818,19.2101135 Z M41.4531491,20.3931501 C41.6468885,20.4166625 41.8364532,20.3245882 41.937748,20.1577735 C42.0690255,19.9998302 42.1997903,19.8398356 42.3300423,19.6777899 L41.3485373,20.2223867 L41.1362369,19.979318 L10.0449904,19.979318 L9.82961315,20.2223867 L8.86503069,19.6870203 L9.08656159,19.9947021 C9.3434759,20.3423826 9.40655067,20.3885348 9.64654247,20.3993037 C9.82499792,20.4100726 10.0172991,20.4162262 10.2403684,20.4162262 C10.4634377,20.4162262 10.6542004,20.4162262 10.855732,20.4069958 C11.0572636,20.3977653 11.2680256,20.3977653 11.4710956,20.3977653 L39.1070754,20.3977653 L39.8885871,20.3977653 L40.6731757,20.3977653 C40.963935,20.3977653 41.2162341,20.3977653 41.4423803,20.3885348 L41.4531491,20.3931501 Z" id="Path_25178_-_Outline"></path>
                                <path d="M9.74500065,12.9810954 C20.3918167,12.9031493 31.0324792,12.8190496 41.666988,12.7287963 C41.9819614,12.7127281 42.2290995,12.4526611 42.2290995,12.137278 C42.2290995,11.821895 41.9819614,11.5618279 41.666988,11.5457598 C31.0201719,11.6237058 20.3795095,11.7078055 9.74500065,11.7980588 C9.43002718,11.814127 9.18288914,12.074194 9.18288914,12.3895771 C9.18288914,12.7049602 9.43002718,12.9650272 9.74500065,12.9810954 L9.74500065,12.9810954 Z" id="Path_25179"></path>
                                <path d="M9.73423179,13.3656976 C9.47941053,13.3706117 9.23389796,13.2699448 9.05587706,13.0875535 C8.87785617,12.9051622 8.78317219,12.6572808 8.79426387,12.4026536 C8.78417007,12.1426882 8.88087651,11.8899117 9.06190955,11.703067 C9.24294259,11.5162223 9.49253817,11.4115795 9.7526927,11.4134566 C15.0417429,11.3749964 20.4277129,11.3303825 25.6383043,11.287307 C30.8935096,11.2442316 36.3271702,11.1996177 41.6731416,11.1611575 L41.6946793,11.1611575 C41.9495006,11.1562434 42.1950132,11.2569104 42.3730341,11.4393017 C42.551055,11.621693 42.6457389,11.8695744 42.6346473,12.1242015 C42.6447411,12.384167 42.5480346,12.6369434 42.3670016,12.8237881 C42.1859685,13.0106328 41.936373,13.1152756 41.6762184,13.1133986 C36.3871682,13.1518588 31.0011982,13.1964726 25.7921452,13.2395481 C20.53694,13.2826235 15.1032793,13.3272374 9.75730792,13.3656976 L9.73423179,13.3656976 Z M41.6854489,11.930362 L41.6762184,11.930362 C36.3240934,11.9688222 30.8904327,12.0134361 25.6352275,12.0565115 C20.4261745,12.099587 15.0386661,12.1426625 9.74653906,12.1826611 C9.69035613,12.1820751 9.63672705,12.2060897 9.59974927,12.2483923 C9.56277148,12.2906949 9.54614409,12.3470536 9.55423793,12.4026536 C9.55423793,12.5318799 9.61115907,12.5964931 9.72500133,12.5964931 L9.73423179,12.5964931 C15.0863568,12.5580329 20.5200175,12.513419 25.7752227,12.4703436 C30.9842757,12.4272681 36.3717841,12.3841927 41.6639112,12.344194 C41.7200941,12.3447801 41.7737232,12.3207654 41.810701,12.2784629 C41.8476787,12.2361603 41.8643061,12.1798015 41.8562123,12.1242015 C41.8577507,11.9949752 41.7992912,11.930362 41.6854489,11.930362 Z" id="Path_25179_-_Outline"></path>
                                <path d="M0.959146695,49.6152296 C13.7792219,49.55677 26.604938,49.4921568 39.4362949,49.42139 C43.1023236,49.42139 46.7868132,49.3829298 50.4513035,49.3629305 C50.766277,49.3468623 51.013415,49.0867953 51.013415,48.7714122 C51.013415,48.4560291 50.766277,48.1959621 50.4513035,48.1798939 C37.6312283,48.2383535 24.8055122,48.3029666 11.9741553,48.3737335 C8.30812662,48.3737335 4.623637,48.4121937 0.959146695,48.432193 C0.644173225,48.4482612 0.397035182,48.7083282 0.397035182,49.0237113 C0.397035182,49.3390943 0.644173225,49.5991614 0.959146695,49.6152296 L0.959146695,49.6152296 Z" id="Path_25180"></path>
                                <path d="M0.940685787,49.9998318 C0.686699723,50.0046776 0.441943555,49.9046345 0.264070801,49.7232684 C0.0861980472,49.5419022 -0.00906625445,49.2952468 0.000717871107,49.041403 C-0.00937592996,48.7814376 0.0873305058,48.5286611 0.268363549,48.3418164 C0.449396592,48.1549717 0.698992164,48.0503289 0.959146695,48.052206 L4.61748336,48.0291298 C7.03124713,48.0122073 9.52654657,47.9952848 11.9756937,47.9952848 C18.3831673,47.9660551 24.8983296,47.9322101 31.2058066,47.8983651 C37.5132836,47.8645201 44.0345995,47.8306751 50.4451499,47.8014453 L50.4651492,47.8014453 C50.7199705,47.7965312 50.965483,47.8971982 51.1435039,48.0795895 C51.3215248,48.2619808 51.4162088,48.5098622 51.4051171,48.7644894 C51.4152109,49.0244548 51.3185045,49.2772312 51.1374714,49.4640759 C50.9564384,49.6509206 50.7068428,49.7555634 50.4466883,49.7536864 L46.7883516,49.7767625 C44.3745879,49.793685 41.8792884,49.8106075 39.4301412,49.8106075 C33.0226676,49.8398373 26.5075054,49.8736823 20.2000284,49.9075273 C13.8925514,49.9413723 7.37123552,49.9644484 0.960685104,49.9998318 L0.940685787,49.9998318 Z M50.4774565,48.5644962 L50.460534,48.5644962 C44.051522,48.593726 37.5286677,48.627571 31.2227291,48.661416 C24.9167905,48.695261 18.3939362,48.729106 11.9833858,48.7583357 C9.53577702,48.7583357 7.04201599,48.7752582 4.62979064,48.7921807 L0.968377149,48.8152569 C0.912194221,48.8146708 0.858565137,48.8386855 0.821587355,48.880988 C0.784609573,48.9232906 0.767982183,48.9796494 0.776076021,49.0352493 C0.776076021,49.1644757 0.832997155,49.2290889 0.946839423,49.2290889 L0.957608286,49.2290889 C7.3666203,49.1998591 13.8894746,49.1660141 20.1954132,49.1321691 C26.5013518,49.0983241 33.0242061,49.0644791 39.4347565,49.0352493 C41.8823652,49.0352493 44.3761263,49.0183268 46.7883516,49.0014043 L50.4497651,48.9783282 C50.505948,48.9789142 50.5595771,48.9548996 50.5965549,48.912597 C50.6335327,48.8702944 50.6501601,48.8139357 50.6420662,48.7583357 C50.6420662,48.6291094 50.5836067,48.5644962 50.4697644,48.5644962 L50.4774565,48.5644962 Z" id="Path_25180_-_Outline"></path>
                                <path d="M7.63122665,35.7680099 C11.7233947,35.7480106 15.8155627,35.7095503 19.9077307,35.6910894 C20.2227042,35.6750213 20.4698422,35.4149542 20.4698422,35.0995712 C20.4698422,34.7841881 20.2227042,34.5241211 19.9077307,34.5080529 C15.8155627,34.5280522 11.7233947,34.5665124 7.63122665,34.5849734 C7.31625318,34.6010415 7.06911514,34.8611086 7.06911514,35.1764916 C7.06911514,35.4918747 7.31625318,35.7519417 7.63122665,35.7680099 L7.63122665,35.7680099 Z" id="Path_25181"></path>
                                <path d="M7.61276574,36.1541506 C7.35794448,36.1590646 7.11243191,36.0583977 6.93441102,35.8760064 C6.75639012,35.6936151 6.66170614,35.4457337 6.67279782,35.1911065 C6.66270402,34.9311411 6.75941046,34.6783646 6.9404435,34.4915199 C7.12147654,34.3046752 7.37107212,34.2000324 7.63122665,34.2019095 C9.67423384,34.192679 11.7557013,34.177295 13.7664019,34.1634493 C15.7771024,34.1496036 17.8585699,34.1342195 19.9046539,34.1249891 L19.9246532,34.1249891 C20.1794744,34.120075 20.424987,34.2207419 20.6030079,34.4031332 C20.7810288,34.5855245 20.8757128,34.8334059 20.8646211,35.0880331 C20.8747149,35.3479985 20.7780085,35.600775 20.5969754,35.7876197 C20.4159424,35.9744644 20.1663468,36.0791072 19.9061923,36.0772301 C17.8631851,36.0864606 15.7817177,36.1018447 13.7710171,36.1156903 C11.7603165,36.129536 9.67884906,36.1449201 7.63276506,36.1541506 L7.61276574,36.1541506 L7.61276574,36.1541506 Z M19.920038,34.8926552 L19.9123459,34.8926552 C17.8662619,34.9018856 15.7863329,34.9172697 13.7756323,34.9311154 C11.7649317,34.9449611 9.68346429,34.9603452 7.63738028,34.9695756 C7.58119736,34.9689896 7.52756827,34.9930042 7.49059049,35.0353068 C7.45361271,35.0776094 7.43698532,35.1339681 7.44507916,35.1895681 C7.44507916,35.3187945 7.5035387,35.3834076 7.61584256,35.3834076 L7.63276506,35.3834076 C9.67884906,35.3741772 11.7587781,35.3587931 13.7694787,35.3449474 C15.7801793,35.3311017 17.8616467,35.3157176 19.9077307,35.3064872 C19.9639136,35.3070732 20.0175427,35.2830586 20.0545205,35.240756 C20.0914983,35.1984534 20.1081257,35.1420946 20.1000318,35.0864947 C20.096955,34.9572683 20.0400339,34.8926552 19.9261916,34.8926552 L19.920038,34.8926552 Z" id="Path_25181_-_Outline"></path>
                                <path d="M7.63122665,44.1846457 C11.7233947,44.1646464 15.8155627,44.1261861 19.9077307,44.1077252 C20.2227042,44.091657 20.4698422,43.83159 20.4698422,43.516207 C20.4698422,43.2008239 20.2227042,42.9407569 19.9077307,42.9246887 C15.8155627,42.944688 11.7233947,42.9831482 7.63122665,43.0016091 C7.31625318,43.0176773 7.06911514,43.2777444 7.06911514,43.5931274 C7.06911514,43.9085105 7.31625318,44.1685775 7.63122665,44.1846457 L7.63122665,44.1846457 L7.63122665,44.1846457 Z" id="Path_25182"></path>
                                <path d="M7.61276574,44.5707863 C7.35794448,44.5757004 7.11243191,44.4750335 6.93441102,44.2926422 C6.75639012,44.1102509 6.66170614,43.8623695 6.67279782,43.6077423 C6.66270402,43.3477769 6.75941046,43.0950004 6.9404435,42.9081557 C7.12147654,42.721311 7.37107212,42.6166682 7.63122665,42.6185453 C9.67423384,42.6093148 11.7526244,42.5939307 13.7648634,42.5800851 C15.7771024,42.5662394 17.8585699,42.5508553 19.9061923,42.5416248 L19.9261916,42.5416248 C20.1810129,42.5367108 20.4265254,42.6373777 20.6045463,42.819769 C20.7825672,43.0021603 20.8772512,43.2500417 20.8661595,43.5046689 C20.8762533,43.7646343 20.7795469,44.0174108 20.5985138,44.2042555 C20.4174808,44.3911002 20.1678852,44.495743 19.9077307,44.4938659 C17.8647235,44.5030964 15.7832561,44.5184804 13.7725555,44.5323261 C11.7618549,44.5461718 9.68038747,44.5615559 7.63430347,44.5707863 L7.61276574,44.5707863 L7.61276574,44.5707863 Z M19.920038,43.3092909 L19.9123459,43.3092909 C17.8662619,43.3185214 15.7847945,43.3339055 13.7725555,43.3477512 C11.7603165,43.3615969 9.68192588,43.3769809 7.63584188,43.3862114 C7.57965895,43.3856254 7.52602986,43.40964 7.48905208,43.4519426 C7.4520743,43.4942452 7.43544691,43.5506039 7.44354075,43.6062039 C7.44354075,43.7354302 7.50200029,43.8000434 7.61430415,43.8000434 L7.63122665,43.8000434 C9.67731065,43.790813 11.7572397,43.7754289 13.7679403,43.7615832 C15.7786409,43.7477375 17.8601083,43.7323534 19.9061923,43.723123 C19.9623752,43.723709 20.0160043,43.6996944 20.0529821,43.6573918 C20.0899599,43.6150892 20.1065872,43.5587304 20.0984934,43.5031305 C20.096955,43.3739041 20.0400339,43.3092909 19.9261916,43.3092909 L19.920038,43.3092909 Z" id="Path_25182_-_Outline"></path>
                                <path d="M31.1550391,35.7680099 C35.2472071,35.7480106 39.3393751,35.7095503 43.4315431,35.6910894 C43.7465166,35.6750213 43.9936546,35.4149542 43.9936546,35.0995712 C43.9936546,34.7841881 43.7465166,34.5241211 43.4315431,34.5080529 C39.3393751,34.5280522 35.2472071,34.5665124 31.1550391,34.5849734 C30.8400656,34.6010415 30.5929276,34.8611086 30.5929276,35.1764916 C30.5929276,35.4918747 30.8400656,35.7519417 31.1550391,35.7680099 L31.1550391,35.7680099 Z" id="Path_25183"></path>
                                <path d="M31.1365782,36.1541506 C30.8817569,36.1590646 30.6362444,36.0583977 30.4582235,35.8760064 C30.2802026,35.6936151 30.1855186,35.4457337 30.1966103,35.1911065 C30.1865165,34.9311411 30.2832229,34.6783646 30.4642559,34.4915199 C30.645289,34.3046752 30.8948846,34.2000324 31.1550391,34.2019095 C33.1980463,34.192679 35.2795137,34.177295 37.2902143,34.1634493 C39.3009149,34.1496036 41.3823823,34.1342195 43.4284663,34.1249891 L43.4484656,34.1249891 C43.7032869,34.120075 43.9487995,34.2207419 44.1268204,34.4031332 C44.3048412,34.5855245 44.3995252,34.8334059 44.3884335,35.0880331 C44.3985273,35.3479985 44.3018209,35.600775 44.1207879,35.7876197 C43.9397548,35.9744644 43.6901593,36.0791072 43.4300047,36.0772301 C41.3869975,36.0864606 39.3055301,36.1018447 37.2948295,36.1156903 C35.2841289,36.129536 33.2026615,36.1449201 31.1565775,36.1541506 L31.1365782,36.1541506 L31.1365782,36.1541506 Z M43.4438504,34.8926552 L43.4269279,34.8926552 C41.3808439,34.9018856 39.3009149,34.9172697 37.2902143,34.9311154 C35.2795137,34.9449611 33.1980463,34.9603452 31.1519623,34.9695756 C31.0957793,34.9689896 31.0421503,34.9930042 31.0051725,35.0353068 C30.9681947,35.0776094 30.9515673,35.1339681 30.9596611,35.1895681 C30.9596611,35.3187945 31.0165823,35.3834076 31.1304245,35.3834076 L31.147347,35.3834076 C33.1934311,35.3741772 35.2733601,35.3587931 37.2840607,35.3449474 C39.2947613,35.3311017 41.3762287,35.3157176 43.4223127,35.3064872 C43.4784956,35.3070732 43.5321247,35.2830586 43.5691025,35.240756 C43.6060803,35.1984534 43.6227076,35.1420946 43.6146138,35.0864947 C43.6207674,34.9572683 43.5638463,34.8926552 43.450004,34.8926552 L43.4438504,34.8926552 Z" id="Path_25183_-_Outline"></path>
                                <path d="M31.1550391,44.1846457 C35.2472071,44.1646464 39.3393751,44.1261861 43.4315431,44.1077252 C43.7465166,44.091657 43.9936546,43.83159 43.9936546,43.516207 C43.9936546,43.2008239 43.7465166,42.9407569 43.4315431,42.9246887 C39.3393751,42.944688 35.2472071,42.9831482 31.1550391,43.0016091 C30.8400656,43.0176773 30.5929276,43.2777444 30.5929276,43.5931274 C30.5929276,43.9085105 30.8400656,44.1685775 31.1550391,44.1846457 L31.1550391,44.1846457 L31.1550391,44.1846457 Z" id="Path_25184"></path>
                                <path d="M31.1365782,44.5707863 C30.8817569,44.5757004 30.6362444,44.4750335 30.4582235,44.2926422 C30.2802026,44.1102509 30.1855186,43.8623695 30.1966103,43.6077423 C30.1865165,43.3477769 30.2832229,43.0950004 30.4642559,42.9081557 C30.645289,42.721311 30.8948846,42.6166682 31.1550391,42.6185453 C33.1980463,42.6093148 35.2764369,42.5939307 37.2886759,42.5800851 C39.3009149,42.5662394 41.3823823,42.5508553 43.4300047,42.5416248 L43.450004,42.5416248 C43.7048253,42.5367108 43.9503379,42.6373777 44.1283588,42.819769 C44.3063797,43.0021603 44.4010636,43.2500417 44.389972,43.5046689 C44.4000658,43.7646343 44.3033593,44.0174108 44.1223263,44.2042555 C43.9412932,44.3911002 43.6916977,44.495743 43.4315431,44.4938659 C41.3885359,44.5030964 39.3070685,44.5184804 37.2963679,44.5323261 C35.2856673,44.5461718 33.2041999,44.5615559 31.1581159,44.5707863 L31.1381166,44.5707863 L31.1365782,44.5707863 Z M43.4438504,43.3092909 L43.4269279,43.3092909 C41.3808439,43.3185214 39.2993765,43.3339055 37.2871375,43.3477512 C35.2748985,43.3615969 33.1965079,43.3769809 31.1504239,43.3862114 C31.0942409,43.3856254 31.0406119,43.40964 31.0036341,43.4519426 C30.9666563,43.4942452 30.9500289,43.5506039 30.9581227,43.6062039 C30.9581227,43.7354302 31.0150439,43.8000434 31.1288861,43.8000434 L31.1458086,43.8000434 C33.1918926,43.790813 35.2718216,43.7754289 37.2825222,43.7615832 C39.2932228,43.7477375 41.3746903,43.7323534 43.4207743,43.723123 C43.4769572,43.723709 43.5305863,43.6996944 43.5675641,43.6573918 C43.6045418,43.6150892 43.6211692,43.5587304 43.6130754,43.5031305 C43.6207674,43.3739041 43.5638463,43.3092909 43.450004,43.3092909 L43.4438504,43.3092909 Z" id="Path_25184_-_Outline"></path>
                                <path d="M32.5334536,31.2097039 L32.5334536,48.9014078 L33.1349715,48.2998898 L18.2785555,48.2998898 L18.8800735,48.9014078 L18.8800735,31.4235428 C18.7885786,28.1910711 20.783492,25.2654049 23.8260585,24.1699442 C28.4228247,22.7161477 32.441149,26.7683171 32.5534529,31.2097039 C32.5695211,31.5246774 32.8295881,31.7718155 33.1449712,31.7718155 C33.4603542,31.7718155 33.7204212,31.5246774 33.7364894,31.2097039 C33.7594131,27.0912267 30.8395565,23.5431448 26.7936495,22.7730688 C22.8157688,22.2973059 19.097525,24.8317554 18.0862544,28.7082509 C17.6848632,30.5933662 17.554323,32.5260857 17.6985753,34.4480549 L17.6985753,48.9090998 C17.7002581,49.2406094 17.9685836,49.5089349 18.3000933,49.5106177 L33.1534324,49.5106177 C33.484942,49.5089349 33.7532675,49.2406094 33.7549503,48.9090998 L33.7549503,31.217396 C33.7388822,30.9024225 33.4788151,30.6552845 33.1634321,30.6552845 C32.848049,30.6552845 32.587982,30.9024225 32.5719138,31.217396 L32.5334536,31.2097039 Z" id="Path_25185"></path>
                                <path d="M25.7044559,22.3115425 C28.1757209,22.3091953 30.5083482,23.4530634 32.019625,25.4083635 C33.2840589,27.0029943 34.0144494,28.9551877 34.107246,30.988173 C34.1256058,31.0668513 34.1349374,31.1473729 34.1349374,31.2281649 L34.1349374,48.9198687 C34.1340903,49.4641365 33.6930851,49.9051417 33.1488172,49.9059889 L18.2985548,49.9059889 C17.754287,49.9051417 17.3132818,49.4641365 17.3124347,48.9198687 L17.3124347,34.4588238 C17.3124347,34.117297 17.3124347,33.7650013 17.3016658,33.4234745 C17.1957065,31.8067132 17.3352328,30.1832283 17.7154978,28.6082543 C18.2305488,26.8560138 19.2588398,25.2983056 20.6677047,24.1360992 C22.0835196,22.9609767 23.8645031,22.315819 25.7044559,22.3115425 L25.7044559,22.3115425 Z M33.2765051,30.2681976 C33.0665206,28.6667827 32.4246259,27.1527195 31.4196454,25.8883471 C30.2713645,24.4065993 28.5933054,23.4277774 26.7382668,23.1576711 C26.3958089,23.1089588 26.0503606,23.0842839 25.7044559,23.0838275 C24.0429886,23.0859316 22.4340648,23.6662973 21.153842,24.7253099 C19.8650181,25.7894247 18.9246087,27.2153104 18.4539342,28.8190163 C18.0984579,30.3200566 17.9693434,31.8658003 18.0708703,33.4050136 C18.0708703,33.7496172 18.0816392,34.1049897 18.0816392,34.4511318 L18.0816392,47.9106723 L18.4954712,47.9106723 L18.4954712,31.4235428 C18.4956232,29.77658 18.969295,28.1643872 19.86004,26.7790859 C20.7556071,25.3689379 22.1161607,24.3164137 23.7060626,23.8038029 C24.3591003,23.5948726 25.0403511,23.4874705 25.7259936,23.4853522 C27.6758616,23.5123509 29.5204824,24.3744436 30.7919746,25.8529637 C31.9076323,27.1026219 32.6272325,28.6553307 32.8595963,30.3143499 C32.9941975,30.271788 33.1358538,30.2561065 33.2765051,30.2681976 Z M32.1488513,30.8404858 C31.9933963,27.3330984 29.2327641,24.4996787 25.7306089,24.2530183 C25.1232387,24.2551511 24.5198042,24.3506214 23.9414392,24.5360856 C22.5201167,24.9953695 21.3042749,25.9374564 20.5046334,27.1990716 C19.6948533,28.4592296 19.2644385,29.9256302 19.2646756,31.4235428 L19.2646756,47.9106723 L32.1488513,47.9106723 L32.1488513,30.8404858 Z M33.1580476,32.1681328 C33.0773277,32.1683476 32.9968348,32.1595759 32.9180558,32.1419798 L32.9180558,47.9106723 L33.3703481,47.9106723 L33.3703481,32.1481335 C33.2999839,32.1625498 33.228335,32.1697662 33.1565092,32.1696712 L33.1580476,32.1681328 Z M32.1488513,48.6798769 L19.2646757,48.6798769 L19.2646757,49.1321691 L32.1488513,49.1321691 L32.1488513,48.6798769 Z" id="Path_25185_-_Outline"></path>
                                <path d="M34.5503078,3.4768044 L34.5503078,9.41198643 L35.1518257,8.8104685 L16.2817006,8.8104685 L16.8832185,9.41198643 L16.8832185,3.4768044 L16.2817006,4.07832233 L35.1518257,4.07832233 C35.4667992,4.06225414 35.7139373,3.80218712 35.7139373,3.48680406 C35.7139373,3.171421 35.4667992,2.91135398 35.1518257,2.89528579 L16.2817006,2.89528579 C15.950191,2.89696861 15.6818655,3.16529409 15.6801827,3.49680372 L15.6801827,9.43044734 C15.6818655,9.76195697 15.950191,10.0302824 16.2817006,10.0319653 L35.1518257,10.0319653 C35.4833354,10.0302824 35.7516609,9.76195697 35.7533437,9.43044734 L35.7533437,3.4768044 C35.7372755,3.16183093 35.4772085,2.91469289 35.1618254,2.91469289 C34.8464423,2.91469289 34.5863753,3.16183093 34.5703071,3.4768044 L34.5503078,3.4768044 Z" id="Path_25186"></path>
                                <path d="M16.2817006,2.51068353 L35.164133,2.51068353 C35.4229495,2.50436455 35.6731499,2.60386621 35.8569398,2.78620433 C36.0407296,2.96854245 36.1422123,3.21794595 36.1380752,3.4768044 L36.1380752,9.43044734 C36.1370988,9.97471521 35.6960936,10.4157204 35.1518257,10.4165675 L16.2817006,10.4165675 C15.7374327,10.4157204 15.2964275,9.97471521 15.2955804,9.43044734 L15.2955804,3.49680372 C15.2964275,2.95253585 15.7374327,2.51153064 16.2817006,2.51068353 L16.2817006,2.51068353 Z M34.1657056,3.27988805 L17.2678208,3.27988805 L17.2678208,3.69372008 L34.1657056,3.69372008 L34.1657056,3.27988805 Z M35.3687414,8.42586624 L35.3687414,4.43984845 C35.297456,4.45519155 35.2247437,4.4629269 35.1518257,4.46292459 L34.9349101,4.46292459 L34.9349101,8.42586624 L35.3687414,8.42586624 Z M16.4986163,4.46292459 L16.0647849,4.46292459 L16.0647849,8.42586624 L16.4986163,8.42586624 L16.4986163,4.46292459 Z M34.1657056,4.46292459 L17.2678208,4.46292459 L17.2678208,8.42586624 L34.1657056,8.42586624 L34.1657056,4.46292459 Z M34.1657056,9.19507076 L17.2678208,9.19507076 L17.2678208,9.64736301 L34.1657056,9.64736301 L34.1657056,9.19507076 Z" id="Path_25186_-_Outline"></path>
                                <path d="M29.8766212,2.89528579 L21.5553668,2.89528579 L22.0784258,3.78756303 C22.6414835,2.95374533 23.2230021,2.13838855 23.7845214,1.30457086 L23.2614624,1.59533016 L28.1489878,1.59533016 L27.6259288,1.30457086 C28.1889865,2.13838855 28.7705051,2.95374533 29.3320244,3.78756303 C29.7581637,4.40292664 30.8058202,3.82602325 30.3596816,3.1860451 C29.9720025,2.62298739 29.5904771,2.0614681 29.1766451,1.49379517 C28.9058851,1.10611609 28.6335867,0.446138618 28.0905283,0.407678392 C27.6828499,0.387679075 27.2567106,0.407678392 26.8490322,0.407678392 C25.7013791,0.392294302 24.5229578,0.373833394 23.3399212,0.392294302 C22.8353231,0.392294302 22.6414835,0.818433603 22.3707235,1.20611268 C21.9245849,1.86609015 21.4599854,2.50606831 21.0138468,3.16450737 C20.9082394,3.34994758 20.9096658,3.57766061 21.0175881,3.76176324 C21.1255103,3.94586588 21.3235082,4.05834733 21.5369058,4.05680068 L29.8550835,4.05680068 C30.1700569,4.04071642 30.417195,3.78064939 30.417195,3.46526633 C30.417195,3.14988328 30.1700569,2.88981625 29.8550835,2.87374806 L29.8766212,2.89528579 Z" id="Path_25187"></path>
                                <path d="M22.0568881,4.50907686 L22.0184279,4.44446368 L21.5369058,4.44446368 C21.1596197,4.43730635 20.8168064,4.22334356 20.6446286,3.88755961 C20.482087,3.58901771 20.5029554,3.22411796 20.6984729,2.94605329 L20.9369263,2.59837285 L20.8846204,2.51068353 L20.9969243,2.51068353 L21.3769113,1.96608674 C21.5999806,1.64763607 21.830742,1.31995495 22.0522729,0.992273823 C22.0938099,0.932275871 22.1307317,0.876893146 22.1676536,0.821510421 C22.3780039,0.353780423 22.8296654,0.0406363163 23.3414596,0.00769204514 C23.6676024,0.00769204514 24.0091292,-6.8319085e-16 24.3798857,-6.8319085e-16 C25.2367796,-6.8319085e-16 26.0982886,0.0138456812 26.8582627,0.0276913625 L27.2551722,0.0276913625 L27.6797731,0.0276913625 C27.841306,0.0276913625 27.9874549,0.0276913625 28.1105276,0.0369218167 L28.1197581,0.0369218167 C28.7489674,0.0815356785 29.0904942,0.636901337 29.338178,1.04304132 C29.3935608,1.13226904 29.4443283,1.21688154 29.4920189,1.28610995 C29.8489298,1.77993924 30.1981487,2.282999 30.5258298,2.75682898 C30.6290605,2.85626172 30.7084736,2.977748 30.7581296,3.11220146 C30.9355348,3.46075821 30.8587732,3.88483454 30.5704437,4.14908915 C30.3874476,4.34900507 30.1276127,4.46100288 29.8566219,4.45677095 L22.101502,4.45677095 L22.0568881,4.50907686 Z M22.6214842,3.67525917 L28.7905044,3.67525917 L28.5197444,3.28142646 L22.8922442,3.28142646 L22.6214842,3.67525917 Z M28.9289612,2.51222194 L28.9535758,2.51222194 L28.932038,2.49222262 L29.4150985,2.49222262 C29.296641,2.32299763 29.1766451,2.15223423 29.0535724,1.98147083 L28.5582047,1.98147083 L28.7981965,2.32761286 L28.9289612,2.51222194 Z M23.4322258,2.51222194 L27.9936085,2.51222194 L27.6274672,1.98147083 L23.7922135,1.98147083 L23.4322258,2.51222194 Z M22.4953347,2.51222194 L22.4953347,2.51222194 L22.6230226,2.32915127 L22.8630144,1.98300924 L22.312264,1.98300924 L22.0122742,2.41068695 L21.939969,2.51376035 L22.4953347,2.51222194 Z M24.3783473,0.770742923 C24.0106676,0.770742923 23.673756,0.770742923 23.3460749,0.778434968 C23.1368512,0.778434968 23.0383931,0.906122917 22.8076317,1.23995768 C22.7676331,1.29995563 22.7276344,1.36149199 22.684559,1.42148994 L22.6322531,1.49841039 L23.5983739,0.961505642 L23.8214433,1.20457427 L27.5905454,1.20457427 L27.8136147,0.961505642 L28.6951231,1.45225812 L28.6812774,1.43687403 C28.5028219,1.14611473 28.3012903,0.821510421 28.0659138,0.796895876 C27.9520715,0.796895876 27.8243835,0.789203831 27.6766963,0.789203831 L27.2644027,0.789203831 L26.8490322,0.789203831 C26.0875198,0.784588604 25.2290875,0.770742923 24.3783473,0.770742923 Z" id="Path_25187_-_Outline"></path>
                                <path d="M38.4670972,25.2575994 L38.4670972,25.4314396 L38.4670972,25.4314396 C38.4589056,25.5237667 38.4392686,25.6147174 38.4086377,25.7021996 C38.4086377,25.7606592 38.3701774,25.7991194 38.3501781,25.8560405 C38.3501781,25.8360412 38.3886383,25.7791201 38.3501781,25.8560405 C38.3117179,25.932961 38.233259,26.0498801 38.1763379,26.1467998 C38.0794181,26.2821798 38.2147981,26.1083396 38.1563386,26.1852601 C38.1178783,26.2237203 38.097879,26.2621805 38.0594188,26.2821798 L37.9824984,26.3591003 C37.9824984,26.3591003 37.8471184,26.4760194 37.9440381,26.3975605 C37.8671177,26.45602 37.7901972,26.4944803 37.7117384,26.5514014 C37.6732781,26.5514014 37.6532788,26.5898616 37.6148186,26.609861 C37.5763584,26.6298603 37.5563591,26.6483212 37.6148186,26.609861 C37.5860436,26.615108 37.5593608,26.6284494 37.5378981,26.6483212 C37.4503989,26.6828176 37.3597049,26.708583 37.2671382,26.7252416 C37.2471388,26.7252416 37.1132973,26.7452409 37.2286779,26.7252416 L36.8025386,26.7252416 C36.7056189,26.7252416 36.9379186,26.7637019 36.7640784,26.7252416 C36.7044658,26.7216707 36.6457937,26.7086901 36.5902382,26.6867814 C36.537806,26.6704728 36.4864284,26.6509493 36.4363973,26.6283219 L36.4363973,26.6283219 C36.3549278,26.5905072 36.2771585,26.5451847 36.2040975,26.4929419 C36.1656373,26.4729425 36.1271771,26.4344823 36.0871784,26.4160214 C36.010258,26.3575619 36.1840982,26.5129412 36.0487182,26.3960221 L35.8164184,26.1637223 L35.8164184,26.1637223 C35.7779582,26.1252621 35.7579589,26.0668026 35.7194987,26.0283423 C35.7194987,25.9898821 35.6810384,25.9698828 35.6610391,25.9314226 C35.6610391,25.9314226 35.5841187,25.7575823 35.6225789,25.872963 C35.5855762,25.7863312 35.5597292,25.6953496 35.5456585,25.602203 C35.5486226,25.5621824 35.5417568,25.522044 35.5256591,25.485284 L35.5256591,25.485284 L35.5256591,25.1360651 C35.5256591,25.1360651 35.5456585,24.9422256 35.5256591,25.0591447 C35.522695,25.019124 35.5295608,24.9789856 35.5456585,24.9422256 C35.5656578,24.8453058 35.604118,24.7683853 35.6225789,24.6714656 C35.6810384,24.5176247 35.5641194,24.748386 35.6425782,24.613006 C35.6625775,24.5745458 35.7010378,24.5160863 35.7194987,24.477626 C35.7379596,24.4391658 35.7779582,24.4007056 35.7964191,24.360707 C35.81488,24.3207083 35.8933389,24.2437879 35.8164184,24.3222467 C35.8710234,24.2483457 35.9363569,24.1830122 36.010258,24.1284072 C36.010258,24.1284072 36.145638,24.0114881 36.0687175,24.0699476 L36.145638,24.0114881 C36.2384269,23.9527543 36.3356392,23.9013192 36.4363973,23.8576472 C36.416398,23.8576472 36.3394775,23.8961074 36.4363973,23.8576472 C36.4948568,23.8576472 36.5333171,23.819187 36.5902382,23.7991877 C36.6302588,23.8021518 36.6703972,23.795286 36.7071573,23.7791883 C36.7071573,23.7791883 36.8809975,23.7407281 36.804077,23.7791883 C36.7271566,23.8176486 36.9009968,23.7791883 36.9009968,23.7791883 L37.2086786,23.7791883 C37.3440586,23.7791883 37.1502191,23.759189 37.2855991,23.7791883 C37.3977795,23.8025379 37.5078806,23.8349509 37.6148186,23.8761081 C37.7886588,23.9345677 37.5563591,23.8376479 37.6532788,23.8761081 C37.7150978,23.9009191 37.7735126,23.9334866 37.827119,23.9730279 C37.8655793,23.9730279 37.8855786,24.0114881 37.9240388,24.0314874 C37.962499,24.0514867 37.9824984,24.0699476 38.0209586,24.089947 C37.962499,24.0514867 37.9824984,24.0514867 38.0209586,24.089947 L38.2147981,24.2837865 C38.3317172,24.4007056 38.1563386,24.1868667 38.2532583,24.342246 C38.2917186,24.3807063 38.3117179,24.4391658 38.3501781,24.477626 C38.3829255,24.5183267 38.4088988,24.5640396 38.4270986,24.613006 C38.4855581,24.7099258 38.4270986,24.5545465 38.4470979,24.6714656 C38.4670972,24.7883847 38.5055574,24.8853044 38.5440176,25.0006851 L38.5440176,25.0006851 L38.5440176,25.2329849 C38.5440176,25.5651941 38.8133264,25.8345028 39.1455356,25.8345028 C39.4777448,25.8345028 39.7470535,25.5651941 39.7470535,25.2329849 C39.7407096,24.0968392 39.0292193,23.0841921 37.962499,22.6930716 C36.9049903,22.2964875 35.7123391,22.6161353 34.994908,23.488429 C34.2720479,24.3751036 34.1646755,25.6135472 34.724148,26.6113994 C35.3122042,27.5920873 36.4537447,28.0966322 37.57482,27.8713564 C38.8265728,27.6087754 39.7289536,26.5133925 39.7470535,25.2345233 C39.7453707,24.9030137 39.4770452,24.6346882 39.1455356,24.6330054 C38.8164085,24.640331 38.5513433,24.9053962 38.5440176,25.2345233 L38.4670972,25.2575994 Z" id="Path_25188"></path>
                                <path d="M37.0486841,28.3098029 C35.958371,28.3216602 34.9449651,27.749529 34.3918517,26.8098541 C33.753855,25.6720576 33.8758509,24.2599548 34.6995335,23.2484372 C35.277656,22.5502624 36.1360722,22.1450088 37.0425304,22.1423199 C37.4048347,22.1419919 37.7641176,22.2082167 38.1024943,22.3376991 C39.319685,22.7842328 40.1304087,23.9410944 40.1347326,25.2376001 C40.1347326,25.2499074 40.1347326,25.2622146 40.1347326,25.2745219 C40.0935072,26.7223825 39.0658429,27.9535447 37.6486636,28.2528818 C37.4508962,28.2906164 37.2500192,28.309674 37.0486841,28.3098029 Z M37.040992,22.9130641 C36.364963,22.9150397 35.7247206,23.2171259 35.2933594,23.7376513 C34.6711614,24.4991631 34.5772347,25.5634616 35.0564444,26.422175 C35.4735571,27.1275927 36.2369684,27.5551031 37.0563761,27.5421368 C37.2112337,27.5424236 37.3657683,27.5279967 37.5178988,27.4990614 C38.2285893,27.3529806 38.8291942,26.8811582 39.1393819,26.2252587 C38.977349,26.2215164 38.818774,26.177644 38.6778592,26.0975707 C38.6486295,26.1483382 38.6147845,26.2021826 38.5824779,26.2514116 L38.5424792,26.3160248 C38.5265556,26.3521183 38.5064163,26.3862003 38.4824813,26.4175598 L38.4655588,26.4390975 L38.4455595,26.4590969 L38.4347906,26.4714041 C38.4018894,26.5136311 38.363619,26.5513844 38.3209483,26.583708 L38.2501815,26.6529364 L38.199414,26.6975503 L38.199414,26.6975503 C38.1728393,26.7197536 38.1445466,26.7398158 38.1148015,26.7575482 L38.0471115,26.8006237 C38.0132665,26.8221614 37.9840368,26.8406223 37.9578838,26.8590832 L37.8548104,26.9360037 L37.8332727,26.9360037 L37.8332727,26.9360037 L37.7794284,26.9667718 L37.7794284,26.9667718 L37.7055847,26.9960016 C37.5961903,27.0392435 37.4828362,27.071704 37.3671347,27.0929214 L37.3302129,27.0929214 L37.3071368,27.0929214 L37.2840607,27.0929214 L37.2071402,27.0929214 L37.2071402,27.0929214 L37.2071402,27.1006134 L36.8625366,27.1006134 C36.8130435,27.1004262 36.7638307,27.0931738 36.7163877,27.0790757 C36.6460995,27.0693374 36.5770131,27.0523236 36.5102409,27.0283082 L36.3933218,27.0021553 L36.3933218,26.9883096 L36.3102477,26.9544646 L36.2902484,26.9467725 L36.2902484,26.9467725 L36.2794796,26.9467725 L36.2794796,26.9467725 C36.253068,26.9353973 36.2278224,26.9214865 36.2040975,26.9052355 C36.1416756,26.8729796 36.0815369,26.8364851 36.0241037,26.7960084 L36.0010275,26.7821628 C35.9359537,26.7548455 35.8764939,26.7157272 35.8256489,26.6667821 L35.8041112,26.6467828 L35.5718114,26.414483 L35.5641194,26.406791 L35.5641194,26.406791 L35.5502737,26.3883301 C35.5188995,26.3521093 35.4910802,26.3129561 35.4671996,26.271411 L35.4671996,26.2637189 L35.3687414,26.1652607 L35.3687414,26.1129548 L35.3518189,26.0806482 L35.3518189,26.0652642 L35.3302812,26.0191119 L35.3195123,26.0191119 C35.2661833,25.9021061 35.2289238,25.7784252 35.2087469,25.6514321 L35.2087469,25.6145103 L35.2087469,25.5898958 L35.1887476,25.5514355 L35.1887476,25.0729903 L35.1887476,25.0345301 L35.1887476,25.0345301 C35.1861744,24.9555809 35.1981691,24.8768332 35.224131,24.8022303 C35.2379766,24.748386 35.2533607,24.7006953 35.265668,24.6606967 L35.2764369,24.6283901 C35.2807321,24.5347056 35.3134662,24.4445527 35.3702798,24.3699374 L35.3979712,24.3237851 L35.3979712,24.3237851 L35.4225857,24.2807097 C35.4318162,24.2637872 35.4410466,24.2468647 35.4502771,24.233019 L36.0502566,23.1884393 L36.0502566,23.6253474 C36.1025625,23.5945793 36.1579452,23.5638111 36.213328,23.5345813 C36.2713109,23.4960121 36.3368818,23.4703083 36.4056291,23.4591993 C36.4246843,23.4490845 36.4441911,23.4398444 36.4640886,23.4315079 L36.5225482,23.4115086 L36.5717773,23.4115086 L36.6179295,23.4007397 C36.6798046,23.384855 36.7432898,23.3760806 36.8071539,23.3745868 C36.8356022,23.3747141 36.8639597,23.3778076 36.8917664,23.3838172 L37.2332932,23.3838172 C37.2695482,23.3836756 37.3056936,23.3878065 37.3409818,23.3961245 L37.3563659,23.3961245 L37.4317479,23.4115086 C37.5061965,23.4296551 37.5796304,23.4517366 37.6517404,23.4776602 C37.6983629,23.4807381 37.744132,23.4916603 37.7871204,23.5099668 C37.8586343,23.5368531 37.9267814,23.5719591 37.9901904,23.6145786 L38.0332659,23.6345779 L38.0332659,23.4099702 L38.4040224,23.9176452 L38.4440211,23.9576438 C38.524775,24.0110971 38.5866685,24.0885984 38.6209381,24.1791747 L38.6378606,24.2053276 L38.6378606,24.2145581 C38.6726059,24.2522747 38.702574,24.2941267 38.7270883,24.3391692 C38.8559509,24.2760474 38.9974299,24.2429129 39.1409204,24.2422495 C38.8731354,23.6895745 38.4025641,23.2614317 37.827119,23.0469056 C37.5755612,22.9540822 37.3091086,22.908196 37.040992,22.9115256 L37.040992,22.9130641 Z M36.8025386,26.346793 L37.2256011,26.346793 C37.2683396,26.3382555 37.3104782,26.32695 37.3517507,26.312948 C37.3786115,26.2956577 37.4069218,26.2807304 37.4363631,26.2683341 C37.4681625,26.2442315 37.5027742,26.2240844 37.5394366,26.2083362 L37.6240491,26.1544919 L37.676355,26.1206469 L37.7209688,26.0821867 L37.8348111,25.9698828 L37.8548104,25.940653 L37.9132699,25.8468101 C37.9424997,25.8006578 37.9732679,25.7498903 37.9948056,25.7145069 C38.0048636,25.6878465 38.0172172,25.6621097 38.0317274,25.6375864 L38.0317274,25.6129719 C38.0317274,25.5883574 38.0455731,25.560666 38.0548036,25.5329746 C38.0656334,25.5008678 38.0738647,25.4679424 38.0794181,25.4345165 L38.0794181,24.9606865 L38.124032,24.9499176 L38.124032,24.9499176 C38.1117247,24.9037653 38.0994174,24.8560747 38.0824949,24.8053072 L38.0717261,24.7730006 L38.0624956,24.7514628 L38.0624956,24.7376172 C38.0303831,24.7005225 38.0020394,24.6603261 37.9778831,24.6176213 L37.9778831,24.6099292 L37.9609606,24.5930067 L37.9378845,24.5560849 L37.928654,24.5422392 L37.7948125,24.4083976 L37.7686595,24.3914751 L37.7578906,24.3914751 L37.7286609,24.376091 L37.7117384,24.376091 L37.6148186,24.3114779 L37.5732816,24.2837865 L37.4932843,24.259172 L37.4209791,24.2345574 C37.3636855,24.2130109 37.3051141,24.1950285 37.2456004,24.1807131 L36.9379186,24.1807131 C36.8899044,24.1913085 36.8409347,24.1969787 36.7917698,24.1976356 C36.7672051,24.1998526 36.7424908,24.1998526 36.7179261,24.1976356 L36.6825427,24.1976356 C36.6368673,24.2213957 36.5882387,24.2389848 36.5379323,24.2499415 C36.4825496,24.2760945 36.4225516,24.3114779 36.3579384,24.3499381 L36.3394775,24.3637838 C36.3102477,24.3930135 36.281018,24.4191665 36.2564034,24.4391658 L36.2364041,24.4545499 C36.2123304,24.4722158 36.1896961,24.4917636 36.1687141,24.5130094 C36.1563037,24.5325044 36.1424173,24.5510195 36.1271771,24.5683922 L36.1271771,24.5683922 C36.1076129,24.6028154 36.0855006,24.6357267 36.0610255,24.6668503 L36.051795,24.6791576 C36.0394878,24.7037722 36.0225653,24.7314635 36.0056428,24.7606933 L35.9933355,24.782231 L35.9933355,24.7960767 C35.9794898,24.8545363 35.9625673,24.9037653 35.9487216,24.9499176 C35.938317,24.9791395 35.9295852,25.0089303 35.9225687,25.0391453 L35.9225687,25.0606831 C35.9225687,25.0976049 35.9225687,25.1376035 35.9148766,25.1776021 L35.9148766,25.4314396 C35.9261625,25.4767613 35.9323544,25.5232011 35.9333375,25.5698964 C35.9333375,25.5991262 35.9456448,25.6298944 35.9533368,25.6560474 C35.9704104,25.6848852 35.9858197,25.7146765 35.9994891,25.7452751 C36.0263565,25.7777223 36.0490935,25.8133781 36.0671791,25.8514253 C36.0810248,25.8714246 36.0933321,25.8914239 36.1025625,25.906808 L36.1025625,25.9145001 L36.2733259,26.0852635 L36.2948637,26.0991092 C36.3230769,26.1159989 36.3503,26.1344901 36.3763993,26.1544919 L36.3871682,26.1621839 L36.4071675,26.1714144 L36.4348589,26.1929521 C36.4897251,26.2313743 36.5479012,26.2648384 36.6086991,26.2929487 C36.6256216,26.3006407 36.6779275,26.3191016 36.7133109,26.3298705 L36.7748473,26.3483314 L36.8025386,26.346793 Z M38.9301583,25.248369 C38.939643,25.3606931 39.0335809,25.4470332 39.1463048,25.4470332 C39.2590286,25.4470332 39.3529666,25.3606931 39.3624513,25.248369 L39.3624513,25.2345233 C39.3591629,25.1166192 39.2634746,25.0222882 39.1455356,25.0206844 C39.0259793,25.0301201 38.9329426,25.1284732 38.9301583,25.248369 L38.9301583,25.248369 Z" id="Path_25188_-_Outline"></path>
                                <path d="M15.9509427,25.2575994 L15.9509427,25.4314396 L15.9509427,25.4314396 C15.9427511,25.5237667 15.923114,25.6147174 15.8924831,25.7021996 C15.8924831,25.7606592 15.8540229,25.7991194 15.8340236,25.8560405 C15.8340236,25.8360412 15.8724838,25.7791201 15.8340236,25.8560405 C15.7955634,25.932961 15.7171045,26.0498801 15.6601834,26.1467998 C15.5632636,26.2821798 15.6986436,26.1083396 15.640184,26.1852601 C15.6017238,26.2237203 15.5817245,26.2621805 15.5432643,26.2821798 L15.4663438,26.3591003 C15.4663438,26.3591003 15.3309638,26.4760194 15.4278836,26.3975605 C15.3509631,26.45602 15.2740427,26.4944803 15.1955838,26.5514014 C15.1571236,26.5514014 15.1371243,26.5898616 15.0986641,26.609861 C15.0602038,26.6298603 15.0402045,26.6483212 15.0986641,26.609861 C15.0698891,26.615108 15.0432062,26.6284494 15.0217436,26.6483212 C14.9342412,26.6828081 14.8435481,26.7085732 14.7509836,26.7252416 C14.7309843,26.7252416 14.5971427,26.7452409 14.7125234,26.7252416 L14.2879225,26.7252416 C14.1910027,26.7252416 14.4233025,26.7637019 14.2494623,26.7252416 C14.1898497,26.7216707 14.1311776,26.7086901 14.0756221,26.6867814 C14.0231899,26.6704728 13.9718122,26.6509493 13.9217812,26.6283219 L13.9217812,26.6283219 C13.8403117,26.5905072 13.7625424,26.5451847 13.6894814,26.4929419 C13.6510212,26.4729425 13.6125609,26.4344823 13.5725623,26.4160214 C13.4956419,26.3575619 13.6694821,26.5129412 13.5341021,26.3960221 L13.3018023,26.1637223 L13.3018023,26.1637223 C13.2633421,26.1252621 13.2433428,26.0668026 13.2048826,26.0283423 C13.2048826,25.9898821 13.1664223,25.9698828 13.146423,25.9314226 C13.146423,25.9314226 13.0695026,25.7575823 13.1079628,25.872963 C13.0709601,25.7863312 13.0451131,25.6953496 13.0310423,25.602203 C13.0340065,25.5621824 13.0271407,25.522044 13.011043,25.485284 L13.011043,25.485284 L13.011043,25.1360651 C13.011043,25.1360651 13.0310423,24.9422256 13.011043,25.0591447 C13.0080789,25.019124 13.0149446,24.9789856 13.0310423,24.9422256 C13.0510417,24.8453058 13.0895019,24.7683853 13.1079628,24.6714656 C13.1664223,24.5176247 13.0495032,24.748386 13.1279621,24.613006 C13.1479614,24.5745458 13.1864216,24.5160863 13.2048826,24.477626 C13.2233435,24.4391658 13.2633421,24.4007056 13.281803,24.360707 C13.3002639,24.3207083 13.3787228,24.2437879 13.3018023,24.3222467 C13.3564073,24.2483457 13.4217408,24.1830122 13.4956419,24.1284072 C13.4956419,24.1284072 13.6310219,24.0114881 13.5541014,24.0699476 L13.6310219,24.0114881 C13.7238107,23.9527543 13.8210231,23.9013192 13.9217812,23.8576472 C13.9017818,23.8576472 13.8248614,23.8961074 13.9217812,23.8576472 C13.9802407,23.8576472 14.0187009,23.819187 14.0756221,23.7991877 C14.1156427,23.8021518 14.1557811,23.795286 14.1925412,23.7791883 C14.1925412,23.7791883 14.3663814,23.7407281 14.2894609,23.7791883 C14.2125405,23.8176486 14.3863807,23.7791883 14.3863807,23.7791883 L14.6940625,23.7791883 C14.8294425,23.7791883 14.635603,23.759189 14.7709829,23.7791883 C14.8831634,23.8025379 14.9932645,23.8349509 15.1002025,23.8761081 C15.2740427,23.9345677 15.0417429,23.8376479 15.1386627,23.8761081 C15.2004816,23.9009191 15.2588964,23.9334866 15.3125029,23.9730279 C15.3509631,23.9730279 15.3709625,24.0114881 15.4094227,24.0314874 C15.4478829,24.0514867 15.4678822,24.0699476 15.5063425,24.089947 C15.4478829,24.0514867 15.4678822,24.0514867 15.5063425,24.089947 L15.700182,24.2837865 C15.8171011,24.4007056 15.6417225,24.1868667 15.7386422,24.342246 C15.7771024,24.3807063 15.7971018,24.4391658 15.835562,24.477626 C15.8683094,24.5183267 15.8942827,24.5640396 15.9124824,24.613006 C15.970942,24.7099258 15.9124824,24.5545465 15.9324818,24.6714656 C15.9524811,24.7883847 15.9909413,24.8853044 16.0294015,25.0006851 L16.0294015,25.0006851 L16.0294015,25.2329849 C16.0294015,25.5651941 16.2987103,25.8345028 16.6309195,25.8345028 C16.9631286,25.8345028 17.2324374,25.5651941 17.2324374,25.2329849 C17.2260935,24.0968392 16.5146031,23.0841921 15.4478829,22.6930716 C14.3903742,22.2964875 13.1977229,22.6161353 12.4802919,23.488429 C11.7574318,24.3751036 11.6500593,25.6135472 12.2095319,26.6113994 C12.7958594,27.5926283 13.9360262,28.0989585 15.057127,27.8759716 C16.3088799,27.6133906 17.2112607,26.5180077 17.2293606,25.2391385 C17.2276777,24.9076289 16.9593523,24.6393034 16.6278426,24.6376206 C16.2987156,24.6449463 16.0336504,24.9100115 16.0263247,25.2391385 L15.9509427,25.2575994 Z" id="Path_25189"></path>
                                <path d="M14.5325295,28.3098029 C13.4440252,28.3223842 12.4316276,27.7528373 11.8772356,26.8160078 C11.2392389,25.6782112 11.3612348,24.2661085 12.1849174,23.2545909 C12.7630399,22.5564161 13.6214561,22.1511625 14.5279143,22.1484735 C14.8902185,22.1481455 15.2495015,22.2143704 15.5878781,22.3438527 C16.8050689,22.7903864 17.6157926,23.9472481 17.6201165,25.2437537 C17.6201165,25.256061 17.6201165,25.2683683 17.6201165,25.2806756 C17.5788911,26.7285361 16.5512267,27.9596984 15.1340475,28.2590354 C14.9355797,28.2948024 14.7341846,28.3117999 14.5325295,28.3098029 L14.5325295,28.3098029 Z M14.5248375,22.9130641 C13.8488084,22.9150397 13.208566,23.2171259 12.7772048,23.7376513 C12.1550068,24.4991631 12.0610802,25.5634616 12.5402899,26.422175 C12.9574025,27.1275927 13.7208139,27.5551031 14.5402216,27.5421368 C14.6950792,27.5424236 14.8496138,27.5279967 15.0017443,27.4990614 C15.7124348,27.3529806 16.3130397,26.8811582 16.6232274,26.2252587 C16.4611945,26.2215164 16.3026194,26.177644 16.1617047,26.0975707 C16.1324749,26.1483382 16.0986299,26.2021826 16.0663233,26.2514116 L16.0263247,26.3160248 C16.010414,26.3521249 15.9902737,26.3862084 15.9663268,26.4175598 L15.9494043,26.4390975 L15.9294049,26.4590969 L15.9186361,26.4714041 C15.8857349,26.5136311 15.8474644,26.5513844 15.8047938,26.583708 L15.734027,26.6529364 L15.6832595,26.6975503 L15.6832595,26.6975503 C15.6566848,26.7197536 15.628392,26.7398158 15.598647,26.7575482 L15.530957,26.8006237 C15.497112,26.8221614 15.4678822,26.8406223 15.4417293,26.8590832 L15.3386559,26.9360037 L15.3017341,26.9360037 L15.3017341,26.9360037 L15.2478897,26.9667718 L15.2478897,26.9667718 L15.1740461,26.9960016 C15.0646517,27.0392435 14.9512976,27.071704 14.8355961,27.0929214 L14.7986743,27.0929214 L14.7632909,27.0929214 L14.7402148,27.0929214 L14.6632943,27.0929214 L14.6632943,27.0929214 L14.6632943,27.1006134 L14.3109986,27.1006134 C14.2615056,27.1004262 14.2122928,27.0931738 14.1648498,27.0790757 C14.0945616,27.0693374 14.0254752,27.0523236 13.958703,27.0283082 L13.8417839,27.0021553 L13.8417839,26.9883096 L13.7587098,26.9544646 L13.7387105,26.9467725 L13.7387105,26.9467725 L13.7279416,26.9467725 L13.7279416,26.9467725 C13.7009992,26.9354873 13.6752346,26.9215744 13.6510212,26.9052355 C13.5891262,26.8729184 13.5295032,26.8364251 13.4725657,26.7960084 L13.451028,26.8160078 C13.3859541,26.7886905 13.3264944,26.7495722 13.2756494,26.7006271 L13.2541116,26.6806278 L13.0218119,26.448328 L13.078733,26.3914069 L13.078733,26.3914069 L13.0218119,26.448328 L13.0141198,26.440636 L13.0141198,26.440636 L13.0002742,26.422175 C12.9689074,26.3859484 12.9410886,26.346796 12.9172001,26.305256 L12.9172001,26.2975639 L12.8187419,26.1991057 L12.8187419,26.1467998 L12.7956658,26.1083396 L12.7956658,26.0929555 L12.774128,26.0468032 L12.7633592,26.0468032 C12.7100301,25.9297974 12.6727706,25.8061166 12.6525937,25.6791235 L12.6525937,25.6422017 L12.6525937,25.6175871 L12.6187487,25.5852805 L12.6187487,25.1068353 L12.6187487,25.0683751 L12.6187487,25.0683751 C12.6161755,24.9894259 12.6281702,24.9106782 12.6541321,24.8360753 C12.6679778,24.782231 12.6833619,24.7345403 12.6956692,24.6945417 L12.706438,24.6622351 C12.7107332,24.5685506 12.7434673,24.4783977 12.800281,24.4037824 L12.8279723,24.3576301 L12.8279723,24.3576301 L12.8525869,24.3145547 C12.8618173,24.2976322 12.8710478,24.2807097 12.8802783,24.266864 L13.4802578,23.2222843 L13.4802578,23.6591924 C13.5325637,23.6284243 13.5879464,23.5976561 13.6433291,23.5684263 C13.7013121,23.5298571 13.7668829,23.5041533 13.8356303,23.4930443 C13.8711326,23.4691875 13.9087204,23.4485914 13.9479341,23.4315079 L14.0063937,23.4115086 L14.0571612,23.4115086 L14.1033134,23.4007397 C14.1651885,23.384855 14.2286737,23.3760806 14.2925377,23.3745868 C14.3209861,23.3747141 14.3493436,23.3778076 14.3771502,23.3838172 L14.718677,23.3838172 C14.7549321,23.3836756 14.7910775,23.3878065 14.8263657,23.3961245 L14.8417498,23.3961245 L14.9171318,23.4115086 C14.9915819,23.4296495 15.0650161,23.4517311 15.1371243,23.4776602 C15.1837468,23.4807381 15.2295159,23.4916603 15.2725043,23.5099668 C15.3440182,23.5368531 15.4121653,23.5719591 15.4755743,23.6145786 L15.5186497,23.6345779 L15.5186497,23.4099702 L15.8909447,23.9191836 L15.9309434,23.9591822 C16.0116973,24.0126355 16.0735908,24.0901369 16.1078604,24.1807131 L16.1247829,24.206866 L16.1247829,24.2160965 C16.1595404,24.2538032 16.1895096,24.2956568 16.2140106,24.3407076 C16.3428732,24.2775858 16.4843522,24.2444513 16.6278426,24.2437879 C16.3600577,23.6911129 15.8894864,23.2629701 15.3140413,23.0484441 C15.0616144,22.9547245 14.7940816,22.9083104 14.5248375,22.9115256 L14.5248375,22.9130641 Z M14.2879225,26.346793 L14.710985,26.346793 C14.7537235,26.3382555 14.7958621,26.32695 14.8371345,26.312948 C14.8639993,26.2956644 14.892309,26.2807374 14.921747,26.2683341 C14.9535464,26.2442315 14.9881581,26.2240844 15.0248204,26.2083362 L15.1094329,26.1544919 L15.1617388,26.1206469 L15.2063527,26.0821867 L15.320195,25.9698828 L15.3401943,25.940653 L15.3986538,25.8468101 C15.4278836,25.8006578 15.4586518,25.7498903 15.4786511,25.7145069 C15.4887019,25.6878435 15.5010558,25.6621061 15.5155729,25.6375864 L15.5155729,25.6129719 C15.5155729,25.5883574 15.5294186,25.560666 15.5386491,25.5329746 C15.5494725,25.5008659 15.5577037,25.467941 15.5632636,25.4345165 L15.5632636,24.9606865 L15.6078775,24.9499176 L15.6078775,24.9499176 C15.5955702,24.9037653 15.5832629,24.8560747 15.564802,24.8053072 L15.5540331,24.7730006 L15.5448027,24.7514628 L15.5448027,24.7376172 C15.5126981,24.7005163 15.4843551,24.6603206 15.4601902,24.6176213 L15.4601902,24.6099292 L15.4432677,24.5930067 L15.4201916,24.5560849 L15.4109611,24.5422392 L15.2771195,24.4083976 L15.2509666,24.3914751 L15.2401977,24.3914751 L15.2109679,24.3545533 L15.1940454,24.3545533 L15.0971257,24.2899401 L15.057127,24.2699408 L14.9771298,24.2453263 L14.9032861,24.2207117 C14.8459925,24.1991652 14.7874212,24.1811828 14.7279075,24.1668674 L14.4202257,24.1668674 C14.3722115,24.1774628 14.3232418,24.183133 14.2740768,24.1837899 C14.2495122,24.1860069 14.2247978,24.1860069 14.2002332,24.1837899 L14.1648498,24.1837899 C14.1191743,24.20755 14.0705458,24.2251391 14.0202393,24.2360958 C13.9648566,24.2622488 13.9048587,24.2976322 13.8402455,24.3360924 L13.8263998,24.3545533 C13.79717,24.3837831 13.7679403,24.4083976 13.7433257,24.4299354 L13.7233264,24.4453194 C13.6992567,24.4629904 13.6766227,24.4825379 13.6556364,24.503779 C13.6431968,24.5232538 13.629312,24.5417667 13.6140994,24.5591617 L13.6140994,24.5591617 C13.5945352,24.5935849 13.5724229,24.6264962 13.5479478,24.6576199 L13.5341021,24.6622351 C13.5217948,24.6868497 13.5048723,24.714541 13.4879498,24.7437708 L13.4756425,24.7653085 L13.4756425,24.7791542 C13.4617969,24.8376138 13.4448744,24.8868428 13.4310287,24.9329951 C13.420624,24.962217 13.4118922,24.9920078 13.4048757,25.0222228 L13.4048757,25.0437606 C13.4048757,25.0806824 13.4048757,25.120681 13.3971837,25.1606796 L13.3971837,25.4314396 C13.4084695,25.4767613 13.4146615,25.5232011 13.4156446,25.5698964 C13.4156446,25.5991262 13.4279519,25.6298944 13.4356439,25.6560474 C13.4527175,25.6848852 13.4681268,25.7146765 13.4817962,25.7452751 C13.5086635,25.7777223 13.5314006,25.8133781 13.5494862,25.8514253 C13.5633319,25.8714246 13.5756391,25.8914239 13.5848696,25.906808 L13.5848696,25.9145001 L13.755633,26.0852635 L13.7771707,26.0991092 C13.8053839,26.1159989 13.832607,26.1344901 13.8587064,26.1544919 L13.8694753,26.1621839 L13.8894746,26.1714144 L13.9171659,26.1929521 C13.9720278,26.2313812 14.0302045,26.2648457 14.0910062,26.2929487 C14.1079287,26.3006407 14.1602346,26.3191016 14.195618,26.3298705 L14.2571543,26.3483314 L14.2879225,26.346793 Z M16.4155422,25.248369 C16.4250268,25.3606931 16.5189648,25.4470332 16.6316887,25.4470332 C16.7444125,25.4470332 16.8383505,25.3606931 16.8478351,25.248369 L16.8478351,25.2345233 C16.8445467,25.1166192 16.7488584,25.0222882 16.6309195,25.0206844 C16.5107577,25.0293691 16.4168608,25.1279276 16.4140038,25.248369 L16.4155422,25.248369 Z" id="Path_25189_-_Outline"></path>
                            </g>
                        </g>
                    </g>
                </g>
            </g>
        </g>
    </g>
</svg>