<svg width="22" height="22" viewBox="0 0 22 22" xmlns="http://www.w3.org/2000/svg" xmlns:xlink="http://www.w3.org/1999/xlink">
    <defs>
        <path id="au0ufminba" d="M0 0h21.192v21.15H0z"/>
    </defs>
    <g fill="none" fill-rule="evenodd">
        <g>
            <mask id="pvefyl2gwb" fill="#fff">
                <use xlink:href="#au0ufminba"/>
            </mask>
            <path d="m18.075 11.12-.272 1.012-2.495-.665.272-1.013a.347.347 0 0 1 .427-.246l1.821.486a.347.347 0 0 1 .247.426m-8.826 1.878a.567.567 0 0 0-.108 1.047 3.17 3.17 0 0 1 1.674 2.793 3.182 3.182 0 0 1-3.185 3.173 3.182 3.182 0 0 1-3.184-3.173c0-1.164.639-2.233 1.667-2.79a.566.566 0 0 0 .23-.772.567.567 0 0 0-.504-.297.57.57 0 0 0-.272.069 4.309 4.309 0 0 0-2.002 5.268 3.035 3.035 0 0 1-1.794-1.139 3.024 3.024 0 0 1-.513-2.667l.804-2.886a2.235 2.235 0 0 1 3.064-1.431l7.129 3.198a2.114 2.114 0 0 0 2.681-.845l2.57.686-.847 3.152a2.711 2.711 0 0 1-2.617 2h-2.371a4.307 4.307 0 0 0-1.987-5.341.57.57 0 0 0-.435-.045M20.769.02a.573.573 0 0 0-.701.402l-2.432 9.042-.855-.229L19.07.717a.57.57 0 0 0-.837-.64.566.566 0 0 0-.266.345l-2.33 8.662a1.481 1.481 0 0 0-1.162 1.075l-.421 1.565a.968.968 0 0 1-1.33.629l-7.13-3.199a3.381 3.381 0 0 0-2.816.021A3.36 3.36 0 0 0 .96 11.32l-.804 2.886a4.15 4.15 0 0 0 .705 3.661 4.185 4.185 0 0 0 3.353 1.657h.032a4.305 4.305 0 0 0 3.385 1.627 4.305 4.305 0 0 0 3.384-1.627h3.028c1.74 0 3.27-1.17 3.72-2.844l1.416-5.264c.104-.384.05-.785-.149-1.128a1.478 1.478 0 0 0-.327-.391l2.47-9.179a.57.57 0 0 0-.405-.697" fill="#787878" fill-rule="nonzero" mask="url(#pvefyl2gwb)"/>
        </g>
        <path d="M7.63 12.528a.572.572 0 0 0-.572.57.572.572 0 0 0 1.144-.001.572.572 0 0 0-.572-.57" fill="#AB001F" fill-rule="nonzero"/>
    </g>
</svg>
