<svg width="30" height="30" viewBox="0 0 30 30" xmlns="http://www.w3.org/2000/svg">
    <g fill-rule="nonzero" fill="none">
        <path d="M20.858 27.813a.44.44 0 0 1-.44-.44V3.809a.44.44 0 1 1 .88 0v23.566a.44.44 0 0 1-.44.44z" fill="#000"/>
        <path d="M23.014 29.53H2.595A2.156 2.156 0 0 1 .44 27.374V2.963A2.523 2.523 0 0 1 2.963.439h20.051v29.09z" fill="#EFF2FA"/>
        <path d="M23.014 29.53H2.595A2.156 2.156 0 0 1 .44 27.374V2.963A2.523 2.523 0 0 1 2.963.439h20.051v29.09z" fill="#EFF2FA"/>
        <path d="M23.014 29.97a2.598 2.598 0 0 1-2.595-2.596V22.19a.44.44 0 0 1 .439-.44h3.56c.657 0 1.191.536 1.191 1.193v4.43a2.598 2.598 0 0 1-2.595 2.595zm-1.717-7.34v4.744c0 .946.77 1.716 1.717 1.716.947 0 1.717-.77 1.717-1.716v-4.43a.314.314 0 0 0-.314-.313h-3.12z" fill="#000"/>
        <path d="M23.014 29.53V3.167H11.277c-1.233 0-2.233 1-2.233 2.233v24.13h13.97z" fill="#D7DEED"/>
        <path d="M20.858 7.778V2.595a2.156 2.156 0 0 1 4.312 0v4.196a.987.987 0 0 1-.987.987h-3.325z" fill="#AFB9D2"/>
        <path d="M27.965 29.56H12.23c-.57 0-1.033-.462-1.033-1.032V6.548c0-.57.463-1.033 1.033-1.033h15.735c.57 0 1.032.462 1.032 1.033v21.98c0 .57-.462 1.032-1.032 1.032z" fill="#95C6F0"/>
        <path d="M27.965 5.515h-1.69v10.44c0 6.38-5.173 11.554-11.554 11.554h-3.524v1.019c0 .57.463 1.033 1.033 1.033h15.735c.57 0 1.032-.463 1.032-1.033V6.548c0-.57-.462-1.033-1.032-1.033z" fill="#7FAFDA"/>
        <path d="M26.616 11.586H13.428a.607.607 0 0 1-.607-.607V7.696c0-.335.272-.607.607-.607h13.188c.335 0 .607.272.607.607v3.283a.607.607 0 0 1-.607.607z" fill="#E9EAEB"/>
        <g fill="#EFF2FA">
            <path d="M14.717 15.655h-1.446a.45.45 0 0 1-.45-.45v-1.413a.45.45 0 0 1 .45-.45h1.446a.45.45 0 0 1 .45.45v1.413a.45.45 0 0 1-.45.45zM18.736 15.655H17.29a.45.45 0 0 1-.45-.45v-1.413a.45.45 0 0 1 .45-.45h1.446a.45.45 0 0 1 .45.45v1.413a.45.45 0 0 1-.45.45zM22.754 15.655h-1.446a.45.45 0 0 1-.45-.45v-1.413a.45.45 0 0 1 .45-.45h1.446a.45.45 0 0 1 .45.45v1.413a.45.45 0 0 1-.45.45z"/>
        </g>
        <path d="M26.773 15.655h-1.446a.45.45 0 0 1-.45-.45v-1.413a.45.45 0 0 1 .45-.45h1.446a.45.45 0 0 1 .45.45v1.413a.45.45 0 0 1-.45.45z" fill="#FFBF6E"/>
        <g fill="#EFF2FA">
            <path d="M14.717 19.721h-1.446a.45.45 0 0 1-.45-.45V17.86a.45.45 0 0 1 .45-.45h1.446a.45.45 0 0 1 .45.45v1.412a.45.45 0 0 1-.45.45zM18.736 19.721H17.29a.45.45 0 0 1-.45-.45V17.86a.45.45 0 0 1 .45-.45h1.446a.45.45 0 0 1 .45.45v1.412a.45.45 0 0 1-.45.45zM22.754 19.721h-1.446a.45.45 0 0 1-.45-.45V17.86a.45.45 0 0 1 .45-.45h1.446a.45.45 0 0 1 .45.45v1.412a.45.45 0 0 1-.45.45z"/>
        </g>
        <path d="M26.773 19.721h-1.446a.45.45 0 0 1-.45-.45V17.86a.45.45 0 0 1 .45-.45h1.446a.45.45 0 0 1 .45.45v1.412a.45.45 0 0 1-.45.45z" fill="#FF8DBB"/>
        <g fill="#EFF2FA">
            <path d="M14.717 23.788h-1.446a.45.45 0 0 1-.45-.45v-1.412a.45.45 0 0 1 .45-.45h1.446a.45.45 0 0 1 .45.45v1.412a.45.45 0 0 1-.45.45zM18.736 23.788H17.29a.45.45 0 0 1-.45-.45v-1.412a.45.45 0 0 1 .45-.45h1.446a.45.45 0 0 1 .45.45v1.412a.45.45 0 0 1-.45.45zM22.754 23.788h-1.446a.45.45 0 0 1-.45-.45v-1.412a.45.45 0 0 1 .45-.45h1.446a.45.45 0 0 1 .45.45v1.412a.45.45 0 0 1-.45.45z"/>
        </g>
        <path d="M26.773 27.61h-1.446a.45.45 0 0 1-.45-.45v-5.234a.45.45 0 0 1 .45-.45h1.446a.45.45 0 0 1 .45.45v5.234a.45.45 0 0 1-.45.45z" fill="#FF6465"/>
        <path d="M14.717 27.61h-1.446a.45.45 0 0 1-.45-.45v-1.412a.45.45 0 0 1 .45-.45h1.446a.45.45 0 0 1 .45.45v1.412a.45.45 0 0 1-.45.45z" fill="#AFB9D2"/>
        <path d="M18.736 27.61H17.29a.45.45 0 0 1-.45-.45v-1.412a.45.45 0 0 1 .45-.45h1.446a.45.45 0 0 1 .45.45v1.412a.45.45 0 0 1-.45.45z" fill="#EFF2FA"/>
        <path d="M22.754 27.61h-1.446a.45.45 0 0 1-.45-.45v-1.412a.45.45 0 0 1 .45-.45h1.446a.45.45 0 0 1 .45.45v1.412a.45.45 0 0 1-.45.45z" fill="#AFB9D2"/>
        <path d="M4.034 8.023a.438.438 0 0 0 .31-.129l1.42-1.42a.44.44 0 1 0-.62-.621l-1.11 1.109-.473-.473a.44.44 0 1 0-.622.621l.784.784a.438.438 0 0 0 .31.129zM6.335 11.281a.868.868 0 0 0-.867-.867H3.236a.868.868 0 0 0-.867.867v2.232c0 .478.389.867.867.867h2.232a.868.868 0 0 0 .867-.867v-2.232zm-.879 2.22H3.248v-2.208h2.208v2.208zM6.335 17.45a.868.868 0 0 0-.867-.868H3.236a.868.868 0 0 0-.867.867v2.232c0 .478.389.867.867.867h2.232a.868.868 0 0 0 .867-.867V17.45zm-.879 2.22H3.248V17.46h2.208v2.208zM5.468 22.881H3.236a.868.868 0 0 0-.867.867v2.233c0 .478.389.867.867.867h2.232a.868.868 0 0 0 .867-.867v-2.233a.868.868 0 0 0-.867-.867zm-.012 3.088H3.248V23.76h2.208v2.209z" fill="#000"/>
        <path d="M28.997 10.832a.44.44 0 0 0 .44-.44V6.549c0-.812-.66-1.472-1.472-1.472H25.61v-2.48A2.598 2.598 0 0 0 23.014 0H2.963A2.966 2.966 0 0 0 0 2.963v24.41a2.598 2.598 0 0 0 2.595 2.596h7.036a.44.44 0 1 0 0-.879H2.595c-.946 0-1.716-.77-1.716-1.716V2.963c0-1.15.935-2.084 2.084-2.084H21.07a2.584 2.584 0 0 0-.651 1.716v1.213a.44.44 0 1 0 .879 0V2.595c0-.946.77-1.716 1.716-1.716.947 0 1.717.77 1.717 1.716v2.48h-12.5c-.813 0-1.473.661-1.473 1.473v.304H8.475a.44.44 0 1 0 0 .879h2.283v4.227H8.475a.44.44 0 1 0 0 .879h2.283v5.289H8.475a.44.44 0 1 0 0 .879h2.283v5.42H8.475a.44.44 0 1 0 0 .879h2.283v3.224c0 .812.66 1.472 1.472 1.472h15.735c.811 0 1.472-.66 1.472-1.472V12.194a.44.44 0 1 0-.879 0v16.334a.594.594 0 0 1-.593.593H12.23a.594.594 0 0 1-.593-.593V6.548c0-.327.266-.594.593-.594h15.735c.327 0 .593.267.593.594v3.845c0 .242.197.44.44.44z" fill="#000"/>
        <path d="M27.662 7.696c0-.577-.469-1.047-1.046-1.047H13.428c-.577 0-1.046.47-1.046 1.047v3.283c0 .577.469 1.047 1.046 1.047h13.188c.577 0 1.046-.47 1.046-1.047V7.696zm-.878 3.283a.167.167 0 0 1-.168.168H13.428a.167.167 0 0 1-.168-.168V7.696c0-.093.076-.168.168-.168h13.188c.092 0 .168.075.168.168v3.283zM15.607 13.792a.89.89 0 0 0-.89-.89h-1.446a.89.89 0 0 0-.89.89v1.413c0 .49.4.89.89.89h1.446a.89.89 0 0 0 .89-.89v-1.413zm-.88 1.413a.01.01 0 0 1-.01.01h-1.446a.01.01 0 0 1-.01-.01v-1.413a.01.01 0 0 1 .01-.01h1.446a.01.01 0 0 1 .01.01v1.413zM19.625 13.792a.89.89 0 0 0-.89-.89H17.29a.89.89 0 0 0-.89.89v1.413c0 .49.4.89.89.89h1.447a.89.89 0 0 0 .89-.89v-1.413zm-.879 1.413a.01.01 0 0 1-.01.01h-1.447a.01.01 0 0 1-.01-.01v-1.413a.01.01 0 0 1 .01-.01h1.447a.01.01 0 0 1 .01.01v1.413zM23.644 13.792a.89.89 0 0 0-.89-.89h-1.446a.89.89 0 0 0-.89.89v1.413c0 .49.4.89.89.89h1.446a.89.89 0 0 0 .89-.89v-1.413zm-.88 1.413a.01.01 0 0 1-.01.01h-1.446a.01.01 0 0 1-.01-.01v-1.413a.01.01 0 0 1 .01-.01h1.446a.01.01 0 0 1 .01.01v1.413zM27.662 13.792a.89.89 0 0 0-.89-.89h-1.445a.89.89 0 0 0-.89.89v1.413c0 .49.4.89.89.89h1.446a.89.89 0 0 0 .89-.89v-1.413zm-.878 1.413a.01.01 0 0 1-.011.01h-1.446a.01.01 0 0 1-.011-.01v-1.413a.01.01 0 0 1 .01-.01h1.447a.01.01 0 0 1 .01.01v1.413zM15.607 17.86a.89.89 0 0 0-.89-.89h-1.446a.89.89 0 0 0-.89.89v1.411c0 .49.4.89.89.89h1.446a.89.89 0 0 0 .89-.89V17.86zm-.88 1.411a.01.01 0 0 1-.01.011h-1.446a.01.01 0 0 1-.01-.01v-1.413a.01.01 0 0 1 .01-.01h1.446a.01.01 0 0 1 .01.01v1.412zM19.625 17.86a.89.89 0 0 0-.89-.89H17.29a.89.89 0 0 0-.89.89v1.411c0 .49.4.89.89.89h1.447a.89.89 0 0 0 .89-.89V17.86zm-.879 1.411a.01.01 0 0 1-.01.011h-1.447a.01.01 0 0 1-.01-.01v-1.413a.01.01 0 0 1 .01-.01h1.447a.01.01 0 0 1 .01.01v1.412zM23.644 17.86a.89.89 0 0 0-.89-.89h-1.446a.89.89 0 0 0-.89.89v1.411c0 .49.4.89.89.89h1.446a.89.89 0 0 0 .89-.89V17.86zm-.88 1.411a.01.01 0 0 1-.01.011h-1.446a.01.01 0 0 1-.01-.01v-1.413a.01.01 0 0 1 .01-.01h1.446a.01.01 0 0 1 .01.01v1.412zM27.662 17.86a.89.89 0 0 0-.89-.89h-1.445a.89.89 0 0 0-.89.89v1.411c0 .49.4.89.89.89h1.446a.89.89 0 0 0 .89-.89V17.86zm-.878 1.411a.01.01 0 0 1-.011.011h-1.446a.01.01 0 0 1-.011-.01v-1.413a.01.01 0 0 1 .01-.01h1.447a.01.01 0 0 1 .01.01v1.412zM15.607 21.926a.89.89 0 0 0-.89-.89h-1.446a.89.89 0 0 0-.89.89v1.412c0 .49.4.89.89.89h1.446a.89.89 0 0 0 .89-.89v-1.412zm-.88 1.412a.01.01 0 0 1-.01.01h-1.446a.01.01 0 0 1-.01-.01v-1.412a.01.01 0 0 1 .01-.01h1.446a.01.01 0 0 1 .01.01v1.412zM19.625 21.926a.89.89 0 0 0-.89-.89H17.29a.89.89 0 0 0-.89.89v1.412c0 .49.4.89.89.89h1.447a.89.89 0 0 0 .89-.89v-1.412zm-.879 1.412a.01.01 0 0 1-.01.01h-1.447a.01.01 0 0 1-.01-.01v-1.412a.01.01 0 0 1 .01-.01h1.447a.01.01 0 0 1 .01.01v1.412zM23.644 21.926a.89.89 0 0 0-.89-.89h-1.446a.89.89 0 0 0-.89.89v1.412c0 .49.4.89.89.89h1.446a.89.89 0 0 0 .89-.89v-1.412zm-.88 1.412a.01.01 0 0 1-.01.01h-1.446a.01.01 0 0 1-.01-.01v-1.412a.01.01 0 0 1 .01-.01h1.446a.01.01 0 0 1 .01.01v1.412zM26.773 21.036h-1.446a.89.89 0 0 0-.89.89v5.234c0 .49.4.89.89.89h1.446a.89.89 0 0 0 .89-.89v-5.234a.89.89 0 0 0-.89-.89zm.01 6.124a.01.01 0 0 1-.01.01h-1.446a.01.01 0 0 1-.011-.01v-5.234a.01.01 0 0 1 .01-.01h1.447a.01.01 0 0 1 .01.01v5.234zM14.717 24.858h-1.446a.89.89 0 0 0-.89.89v1.412c0 .49.4.89.89.89h1.446a.89.89 0 0 0 .89-.89v-1.412c0-.49-.4-.89-.89-.89zm.01 2.302a.01.01 0 0 1-.01.01h-1.446a.01.01 0 0 1-.01-.01v-1.412a.01.01 0 0 1 .01-.01h1.446a.01.01 0 0 1 .01.01v1.412zM18.736 24.858H17.29a.89.89 0 0 0-.89.89v1.412c0 .49.4.89.89.89h1.446a.89.89 0 0 0 .89-.89v-1.412c0-.49-.4-.89-.89-.89zm.01 2.302a.01.01 0 0 1-.01.01h-1.447a.01.01 0 0 1-.01-.01v-1.412a.01.01 0 0 1 .01-.01h1.447a.01.01 0 0 1 .01.01v1.412zM22.754 24.858h-1.446a.89.89 0 0 0-.89.89v1.412c0 .49.4.89.89.89h1.446a.89.89 0 0 0 .89-.89v-1.412c0-.49-.4-.89-.89-.89zm.01 2.302a.01.01 0 0 1-.01.01h-1.446a.01.01 0 0 1-.01-.01v-1.412a.01.01 0 0 1 .01-.01h1.446a.01.01 0 0 1 .01.01v1.412z" fill="#000"/>
    </g>
</svg>
