<svg width="18" height="18" viewBox="0 0 18 18" xmlns="http://www.w3.org/2000/svg">
    <g fill="#454ec2" fill-rule="nonzero">
        <circle cx="3.164" cy="3.428" r="1"/>
        <circle cx="14.836" cy="3.428" r="1"/>
        <path d="m17.97 9.933-2.732-5.25a1.32 1.32 0 0 0 .916-1.255 1.32 1.32 0 0 0-1.318-1.319h-4.563a.787.787 0 0 0-.538-1.026.792.792 0 1 0-1.47 0 .792.792 0 0 0-.538 1.026H3.164a1.32 1.32 0 0 0-1.318 1.319c0 .587.385 1.085.916 1.255L.03 9.933a.264.264 0 0 0-.03.122C0 11.072.828 11.9 1.846 11.9h2.636a1.848 1.848 0 0 0 1.846-1.845.264.264 0 0 0-.03-.122l-2.732-5.25c.45-.144.794-.523.89-.992h3.753v6.1a.792.792 0 0 0-.283 1.53l-.31 3.515H5.801c-.937 0-1.712.7-1.83 1.605a1.32 1.32 0 0 0-1.07 1.295c0 .146.117.264.263.264h11.672a.264.264 0 0 0 .264-.264 1.32 1.32 0 0 0-1.07-1.295 1.849 1.849 0 0 0-1.83-1.605h-1.816l-.31-3.515a.792.792 0 0 0-.283-1.53v-6.1h3.753c.096.47.44.848.89.992l-2.732 5.25a.264.264 0 0 0-.03.122c0 1.017.828 1.845 1.846 1.845h2.636A1.848 1.848 0 0 0 18 10.055a.263.263 0 0 0-.03-.122zm-3.398-.142H12.37l2.202-4.23v4.23zm.528-4.23 2.202 4.23H15.1v-4.23zM9 .526a.264.264 0 1 1 0 .528.264.264 0 0 1 0-.528zM.698 9.791 2.9 5.561v4.23H.698zm2.73-4.23L5.63 9.79H3.428v-4.23zm1.054 5.812H1.846a1.32 1.32 0 0 1-1.292-1.055h5.22a1.32 1.32 0 0 1-1.292 1.055zM4.22 3.164a.264.264 0 0 0-.264.264.792.792 0 0 1-1.582 0c0-.436.355-.791.791-.791H8.21v.527h-3.99zm9.272 13.254H5.273a.264.264 0 1 0 0 .527h8.508c.344 0 .637.22.746.528H3.473a.792.792 0 0 1 .746-.528.264.264 0 0 0 .263-.263 1.32 1.32 0 0 1 1.319-1.319h6.398c.637 0 1.17.454 1.292 1.055zm-3.436-5.836a.264.264 0 0 1-.264.264.264.264 0 0 0-.263.287l.327 3.703h-1.71l.327-3.703a.264.264 0 0 0-.263-.287.264.264 0 0 1 0-.528h1.582c.145 0 .264.119.264.264zm-1.319-.791V2.373a.264.264 0 0 0-.263-.264.264.264 0 0 1 0-.527h1.054a.264.264 0 0 1 0 .527.264.264 0 0 0-.263.264v7.418h-.528zm5.309-6.363a.264.264 0 0 0-.264-.264h-3.99v-.527h5.045a.792.792 0 0 1 0 1.582.792.792 0 0 1-.791-.791zm2.11 7.945h-2.637a1.32 1.32 0 0 1-1.292-1.055h5.22a1.32 1.32 0 0 1-1.292 1.055z"/>
    </g>
</svg>
