<svg width="55" height="50" viewBox="0 0 55 50" xmlns="http://www.w3.org/2000/svg">
    <g fill="#B68A88" fill-rule="nonzero" opacity=".85">
        <g transform="translate(3.22)">
            <path d="M43.448 48.27H4.66l.672.672V30.89l-.672.672h38.788l-.671-.672v18.05a.664.664 0 0 0 1.326 0v-18.05a.684.684 0 0 0-.671-.672H4.66a.684.684 0 0 0-.672.672v18.05a.684.684 0 0 0 .672.673h38.788a.664.664 0 0 0 0-1.327v-.017z"/>
            <path d="M43.448 50H4.66a1.076 1.076 0 0 1-1.056-1.057V30.891a1.076 1.076 0 0 1 1.056-1.057h38.775c.578.011 1.045.478 1.056 1.057v18.05c.003.211-.06.418-.179.591a.984.984 0 0 1-.864.468zm-37.735-.77h36.718a1.064 1.064 0 0 1-.039-.287v-.287H5.713v.575zm-1.345-.705v.417c.01.154.133.278.287.287h.417l-.704-.704zm38.793.154v.27a.248.248 0 0 0 .28.253.307.307 0 0 0 .227-.088.37.37 0 0 0 0-.327.218.218 0 0 0-.21-.11l-.297.002zm0-.787h.55V31.948h-.558l.008 15.944zm-37.448 0h36.68V31.948H5.712v15.944zm-1.345 0h.576V31.948h-.576v15.944zm.292-17.289a.307.307 0 0 0-.287.288v.416l.705-.705-.418.001zm38.375 0 .687.687v-.4a.307.307 0 0 0-.287-.287h-.4zm-37.319.577h36.676v-.577H5.713l.003.577zM17.593 26.68l2.601-15.935.373-2.264-.637.495h4.938a.664.664 0 0 0 0-1.327h-4.94a.664.664 0 0 0-.636.495l-2.601 15.928-.372 2.265c-.142.831 1.15 1.204 1.274.353v-.01z"/>
            <path d="M17.057 27.564a1.17 1.17 0 0 1-.883-.412 1.056 1.056 0 0 1-.234-.872l.186-1.133.185-1.129 2.6-15.923a1.04 1.04 0 0 1 1.017-.824h4.939a1.012 1.012 0 0 1 1.02 1.048 1.012 1.012 0 0 1-1.02 1.049H20.81l-.052.315-.186 1.132-2.596 15.895v.042a.898.898 0 0 1-.92.812zm2.426-18.202L17.07 24.135c-.061.38-.123.755-.186 1.13-.063.375-.124.753-.186 1.135a.289.289 0 0 0 .063.25.409.409 0 0 0 .296.14c.092 0 .133-.034.153-.129v-.017l2.614-15.959c.061-.38.124-.756.186-1.133l.03-.19h-.557zm.445-1.327a.317.317 0 0 0-.255.154v.013l-.09.554.934-.727-.589.006zm1.009.558h3.928a.281.281 0 0 0 0-.558h-3.843l-.091.558h.006z"/>
            <path d="m31.91 26.324-2.602-15.926-.372-2.265a.68.68 0 0 0-.636-.495h-4.938a.664.664 0 0 0 0 1.327H28.3a11.908 11.908 0 0 1-.637-.495l2.602 15.928.372 2.265c.141.85 1.416.478 1.274-.354l-.001.015z"/>
            <path d="M31.181 27.528a.912.912 0 0 1-.922-.802c-.062-.382-.123-.755-.186-1.13-.063-.375-.125-.755-.186-1.137L27.414 9.348h-4.052a1.012 1.012 0 0 1-1.021-1.049 1.084 1.084 0 0 1 .25-.705.992.992 0 0 1 .77-.343h4.937c.483.006.9.34 1.015.808v.01L29.5 9.2c.062.375.125.754.186 1.133l2.598 15.908a1.06 1.06 0 0 1-.233.877 1.16 1.16 0 0 1-.869.41zm-2.986-18.18 2.448 14.985c.061.382.125.758.186 1.135l.186 1.13c.022.132.08.154.165.154a.398.398 0 0 0 .287-.137.288.288 0 0 0 .066-.235L28.93 10.46l-.183-1.112h-.55zm-.473-1.327.183.154c.204.17.407.323.615.483l.124.086-.089-.545a.307.307 0 0 0-.258-.18l-.575.002zm-4.363 0a.281.281 0 0 0 0 .558h3.932l-.09-.558h-3.842zM25.858 26.025H8.055a8.551 8.551 0 0 0-3.221.089C4.02 26.52 3.33 27.6 2.727 28.22L.575 30.414a.67.67 0 0 0 .478 1.133h27.644a.664.664 0 0 0 0-1.327H1.064l.478 1.133 1.682-1.7a14.641 14.641 0 0 0 2.265-2.306c.247-.425-.196.054-.212 0 .053.054.407 0 .478 0 .672.035 1.362 0 2.035 0h18.085a.664.664 0 0 0 0-1.327l-.017.005z"/>
            <path d="M6.033 25.522c.398 0 .818.035 1.188.068.308.026.603.05.832.05h17.822a1.049 1.049 0 0 1 0 2.096H7.79c-.22 0-.448 0-.669.007-.221.008-.461.008-.69.008-.256 0-.478 0-.681-.015h-.053a8.639 8.639 0 0 1-1.451 1.491c-.24.21-.461.41-.661.601H28.69a1.049 1.049 0 0 1 0 2.096H1.51l-.099.1-.041-.1h-.323a1.055 1.055 0 0 1-.75-1.788l.223-.226-.034-.082H.6l1.854-1.885c.169-.173.352-.395.546-.628a5.825 5.825 0 0 1 1.662-1.552 3.044 3.044 0 0 1 1.371-.241zm19.842 1.445a.281.281 0 0 0 0-.558H8.055c-.262 0-.57-.026-.897-.054a13.256 13.256 0 0 0-1.123-.064 2.385 2.385 0 0 0-1.029.166c-.551.36-1.03.82-1.414 1.354-.205.246-.397.478-.588.675L1.68 29.834h.818l.447-.452c.23-.235.501-.473.789-.727.425-.352.82-.739 1.182-1.156l-.009-.026.057-.035a2.63 2.63 0 0 0 .175-.26l.011-.019a.818.818 0 0 0 .041-.077.297.297 0 0 0-.016.116l.09.055h.013v-.275a.338.338 0 0 0-.179.048c.017-.011.039-.03.06-.047a.615.615 0 0 1 .388-.183c.133 0 .257.068.33.179l.285-.014-.016.026h.279c.224 0 .46 0 .676-.008.215-.007.461-.007.681-.007l18.094-.005zm2.814 4.194a.281.281 0 0 0 0-.558H2.823l-.554.558h26.42zM10.58 16.752v-2.266a.681.681 0 0 0-.654-.672c-.371 0-.672.301-.672.672v2.266a.681.681 0 0 0 .655.672c.371 0 .672-.3.672-.672z"/>
            <path d="M9.914 17.808a1.062 1.062 0 0 1-1.04-1.056v-2.266a1.049 1.049 0 1 1 2.096 0v2.266c-.001.583-.473 1.056-1.056 1.056zm.016-3.61a.289.289 0 0 0-.287.288v2.266c.005.15.12.274.27.288.159-.001.287-.13.288-.288v-2.266a.298.298 0 0 0-.27-.287zM22.494 8.327V5.56l-.195.478 2.23-2.177h-.938c.76.725 1.537 1.451 2.306 2.177l-.195-.478v2.767a.664.664 0 0 0 1.326 0V5.56a.922.922 0 0 0-.407-.672l-2.09-1.976a.684.684 0 0 0-.939 0c-.69.69-1.397 1.362-2.088 2.053a.962.962 0 0 0-.336.707v2.655a.664.664 0 0 0 1.326 0z"/>
            <path d="M26.361 9.35a1.012 1.012 0 0 1-1.048-1.021V6.024l-.837-.79-.406-.383-1.193 1.164V8.32a1.049 1.049 0 0 1-2.095 0V5.673c.008-.374.17-.728.449-.979.347-.347.702-.693 1.047-1.03.344-.337.698-.68 1.04-1.022l.01-.01a1.076 1.076 0 0 1 1.462 0l2.09 1.985c.312.221.506.571.528.952v2.767a1.012 1.012 0 0 1-1.047 1.013zm-.28-3.337v2.314a.281.281 0 0 0 .558 0V5.56c0-.119-.076-.2-.28-.386h-.007l-1.324-1.256-.407.398.383.361.307.29.526.5.214-.041.195.478-.165.11zm-2.978-2.08-.287.28c-.343.333-.698.68-1.041 1.022a.581.581 0 0 0-.223.437v2.655a.281.281 0 0 0 .558 0V6.012l-.166-.113.195-.478.208.04 1.167-1.14-.186-.176-.225-.212zm.462-.45h1.011l-.307-.293a.307.307 0 0 0-.408 0l-.296.292z"/>
            <path d="M24.76 3.355V1.089a.681.681 0 0 0-.654-.672c-.371 0-.672.3-.672.672v2.266a.681.681 0 0 0 .655.672c.37 0 .672-.301.672-.672z"/>
            <path d="M24.089 4.414a1.062 1.062 0 0 1-1.04-1.056v-2.27a1.049 1.049 0 1 1 2.096 0v2.267a1.058 1.058 0 0 1-1.056 1.06zm.017-3.613a.289.289 0 0 0-.288.288v2.266c.005.15.121.274.27.287.16 0 .287-.129.288-.287V1.089a.298.298 0 0 0-.27-.288zM22.07 27.353h19.68c.176 0 .831.106.991 0-.247.177-.53-.443-.283 0 .135.176.29.337.462.478l1.416 1.433 2.052 2.088.478-1.133H19.203a.664.664 0 0 0 0 1.327h27.662a.675.675 0 0 0 .478-1.133 46.124 46.124 0 0 0-4.024-4.087c-.69-.549-1.859-.308-2.707-.308H22.07a.664.664 0 0 0 0 1.327v.008z"/>
            <path d="M41.957 25.585a2.57 2.57 0 0 1 1.607.44 22.99 22.99 0 0 1 2.756 2.726c.326.36.661.731.997 1.083h.127l-.038.093.21.216c.293.308.372.761.202 1.15a1.025 1.025 0 0 1-.953.637h-.308l-.043.101-.1-.101H19.201a1.049 1.049 0 0 1 0-2.096h25.153l-.297-.307-1.414-1.433a2.275 2.275 0 0 0-.122-.112 3.38 3.38 0 0 1-.216-.208c-.127 0-.256-.018-.365-.027-.072 0-.163-.016-.192-.016h-19.68a1.049 1.049 0 0 1 0-2.095h18.548c.183 0 .386-.013.602-.026.241-.007.488-.025.74-.025zm4.305 4.25c-.174-.19-.346-.38-.517-.57a22.427 22.427 0 0 0-2.661-2.638 1.788 1.788 0 0 0-1.132-.275c-.226 0-.46.014-.69.03-.229.015-.441.027-.649.027H22.07a.281.281 0 0 0 0 .558h19.68c.066 0 .153.008.264.019h.02l.1-.183h.424l.117.153c.014.02.031.039.05.054l-.02-.01c.029.049.06.105.085.155l.013.018c.071.088.151.169.238.241l.154.14 2.244 2.277.823.003zm-1.155.768H19.203a.281.281 0 0 0 0 .558H45.66l-.554-.558z"/>
            <path d="M35.733 27.353h4.525a.684.684 0 0 0 .672-.672v-7.533a.97.97 0 0 0-.266-.743c-.69-.726-1.451-1.416-2.152-2.106a.684.684 0 0 0-.938 0l-1.947 1.845c-.282.283-.53.478-.548.902-.019.495 0 1.009 0 1.504v6.159a.664.664 0 0 0 1.326 0v-7.734l-.195.479c.761-.726 1.538-1.452 2.306-2.177h-.938l2.23 2.177-.196-.479v7.734l.672-.672H35.75a.664.664 0 0 0 0 1.327l-.017-.011z"/>
            <path d="M40.258 27.737h-4.525c-.204 0-.403-.063-.571-.178a.984.984 0 0 1-.462-.861v-6.653c0-.336-.007-.684 0-1.023a1.51 1.51 0 0 1 .575-1.077l.086-.084 1.947-1.845a1.076 1.076 0 0 1 1.463 0c.233.226.476.461.71.68.488.462.99.943 1.46 1.437.258.27.392.635.372 1.008v7.534a1.076 1.076 0 0 1-1.055 1.062zm-3.508-.768h2.469v-.558h-2.43v.287c.001.091-.01.182-.033.27h-.006zm-1.166-.047c.048.024.1.036.154.036a.248.248 0 0 0 .28-.252v-.288h-.27a.221.221 0 0 0-.236.165.337.337 0 0 0 .072.34zm.308-8.508-.088.086c-.238.234-.336.339-.346.557-.01.32 0 .658 0 .985v5.643a1.09 1.09 0 0 1 .288-.039h.27v-6.235l-.166-.114.196-.478.213.041.526-.5.308-.29.382-.361-.418-.41-1.165 1.115zm4.099 7.226h.558v-6.499a.595.595 0 0 0-.163-.482c-.434-.462-.907-.909-1.369-1.347l-.242.232-.186.177 1.166 1.14.208-.04.195.477-.166.113-.001 6.23zm-3.203 0h2.434v-6.226l-1.193-1.164-.406.383-.835.788v6.22zm.72-8.763h1.059l-.321-.308a.307.307 0 0 0-.41 0l-.328.308z"/>
            <path d="M38.67 16.752v-2.266a.684.684 0 0 0-.672-.672.661.661 0 0 0-.672.672v2.266a.684.684 0 0 0 .672.672.661.661 0 0 0 .672-.672z"/>
            <path d="M37.997 17.808a1.076 1.076 0 0 1-1.057-1.056v-2.266a1.045 1.045 0 0 1 1.057-1.056c.578.01 1.045.477 1.056 1.056v2.266a1.045 1.045 0 0 1-1.056 1.056zm0-3.61a.278.278 0 0 0-.288.288v2.266c.01.155.133.278.288.288a.278.278 0 0 0 .287-.288v-2.266a.307.307 0 0 0-.287-.287zM35.732 23.477h4.459a.664.664 0 1 0 0-1.327h-4.46a.664.664 0 1 0 0 1.327z"/>
            <path d="M40.192 23.861h-4.459a1.049 1.049 0 1 1 0-2.095h4.46a1.049 1.049 0 1 1 0 2.095zm-4.459-1.326a.28.28 0 1 0 0 .558h4.46a.28.28 0 1 0 0-.558h-4.46zM18.955 15.512h10.441a.664.664 0 0 0 0-1.327h-10.44a.664.664 0 0 0 0 1.327z"/>
            <path d="M29.398 15.896H18.955a1.049 1.049 0 0 1 0-2.096h10.441a1.049 1.049 0 0 1 0 2.096h.002zm-10.443-1.327a.281.281 0 0 0 0 .558h10.441a.281.281 0 0 0 0-.558h-10.44zM30.106 20.468H18.248a.664.664 0 0 0 0 1.327h11.857a.664.664 0 0 0 0-1.327h.001z"/>
            <path d="M18.248 20.084h11.857a1.049 1.049 0 0 1 0 2.095H18.248a1.049 1.049 0 0 1 0-2.095zm11.857 1.327a.281.281 0 0 0 0-.558H18.248a.281.281 0 0 0 0 .558h11.857zM15.38 31.88v16.996a.664.664 0 1 0 1.328 0V31.879a.664.664 0 1 0-1.327 0z"/>
            <path d="M16.045 30.79a1.046 1.046 0 0 1 1.048 1.09v16.996a1.049 1.049 0 1 1-2.095 0V31.879a1.045 1.045 0 0 1 1.047-1.088zm0 18.406c.066 0 .28-.024.28-.32V31.879c0-.296-.214-.32-.28-.32-.066 0-.28.024-.28.32v16.997c0 .296.214.318.28.318v.002zM31.486 31.88v16.996a.664.664 0 1 0 1.326 0V31.879a.664.664 0 1 0-1.326 0z"/>
            <path d="M32.15 30.79a1.046 1.046 0 0 1 1.048 1.09v16.996a1.049 1.049 0 1 1-2.095 0V31.879a1.045 1.045 0 0 1 1.047-1.088zm0 18.406c.066 0 .28-.024.28-.32V31.879c0-.296-.214-.32-.28-.32-.066 0-.28.024-.28.32v16.997c0 .296.214.318.28.318v.002z"/>
            <rect x="23.309" y="10.221" width="1.539" height="2.637" rx=".39"/>
            <path d="M23.909 9.837h.34c.543 0 .983.44.984.984v1.437c-.001.543-.441.983-.984.984h-.34a.986.986 0 0 1-.984-.984v-1.437c0-.543.44-.983.984-.984zm.34 2.637a.215.215 0 0 0 .215-.216v-1.437a.215.215 0 0 0-.215-.215h-.34a.215.215 0 0 0-.215.215v1.437c0 .12.096.216.215.216h.34z"/>
            <rect x="23.309" y="16.769" width="1.539" height="2.637" rx=".39"/>
            <path d="M23.909 16.385h.34c.543 0 .983.44.984.984v1.437c-.001.543-.441.983-.984.984h-.34a.986.986 0 0 1-.984-.984V17.37c0-.543.44-.983.984-.984zm.34 2.637a.215.215 0 0 0 .215-.216V17.37a.215.215 0 0 0-.215-.215h-.34a.215.215 0 0 0-.215.215v1.437c0 .12.096.216.215.216h.34z"/>
            <rect x="23.309" y="23.866" width="1.539" height="2.637" rx=".39"/>
            <path d="M23.909 23.482h.34c.543 0 .983.44.984.984v1.437c-.001.543-.441.983-.984.984h-.34a.986.986 0 0 1-.984-.984v-1.437c0-.543.44-.983.984-.984zm.34 2.636a.215.215 0 0 0 .215-.215v-1.437a.215.215 0 0 0-.215-.216h-.34a.215.215 0 0 0-.215.216v1.437c0 .119.096.215.215.215h.34z"/>
            <path d="M25.858 26.025H8.055a8.551 8.551 0 0 0-3.221.089C4.02 26.52 3.33 27.6 2.727 28.22L.575 30.414a.67.67 0 0 0 .478 1.133h27.644a.664.664 0 0 0 0-1.327H1.064l.478 1.133 1.682-1.7a14.641 14.641 0 0 0 2.265-2.306c.247-.425-.196.054-.212 0 .053.054.407 0 .478 0 .672.035 1.362 0 2.035 0h18.085a.664.664 0 0 0 0-1.327l-.017.005z"/>
            <path d="M6.033 25.522c.398 0 .818.035 1.188.068.308.026.603.05.832.05h17.822a1.049 1.049 0 0 1 0 2.096H7.79c-.22 0-.448 0-.669.007-.221.008-.461.008-.69.008-.256 0-.478 0-.681-.015h-.053a8.639 8.639 0 0 1-1.451 1.491c-.24.21-.461.41-.661.601H28.69a1.049 1.049 0 0 1 0 2.096H1.51l-.099.1-.041-.1h-.323a1.055 1.055 0 0 1-.75-1.788l.223-.226-.034-.082H.6l1.854-1.885c.169-.173.352-.395.546-.628a5.825 5.825 0 0 1 1.662-1.552 3.044 3.044 0 0 1 1.371-.241zm19.842 1.445a.281.281 0 0 0 0-.558H8.055c-.262 0-.57-.026-.897-.054a13.256 13.256 0 0 0-1.123-.064 2.385 2.385 0 0 0-1.029.166c-.551.36-1.03.82-1.414 1.354-.205.246-.397.478-.588.675L1.68 29.834h.818l.447-.452c.23-.235.501-.473.789-.727.425-.352.82-.739 1.182-1.156l-.009-.026.057-.035a2.63 2.63 0 0 0 .175-.26l.011-.019a.818.818 0 0 0 .041-.077.297.297 0 0 0-.016.116l.09.055h.013v-.275a.338.338 0 0 0-.179.048c.017-.011.039-.03.06-.047a.615.615 0 0 1 .388-.183c.133 0 .257.068.33.179l.285-.014-.016.026h.279c.224 0 .46 0 .676-.008.215-.007.461-.007.681-.007l18.094-.005zm2.814 4.194a.281.281 0 0 0 0-.558H2.823l-.554.558h26.42z"/>
            <path d="M12.178 26.025h-4.53l.671.671v-7.733l-.195.478 2.23-2.177h-.939c.761.726 1.538 1.452 2.307 2.177l-.196-.478v7.733a.664.664 0 0 0 1.327 0v-7.533a.97.97 0 0 0-.266-.743c-.707-.742-1.487-1.416-2.23-2.106a.684.684 0 0 0-.937 0L7.526 18.16c-.283.283-.53.495-.549.902-.018.496 0 1.01 0 1.504v6.14a.684.684 0 0 0 .672.673h4.53a.664.664 0 0 0 0-1.327v-.026z"/>
            <path d="M12.178 27.754h-4.53a1.076 1.076 0 0 1-1.057-1.056v-6.636c0-.336-.008-.684 0-1.024.04-.431.256-.828.597-1.096l.064-.063 1.904-1.845a1.076 1.076 0 0 1 1.462 0c.198.185.4.37.602.554.55.5 1.117 1.016 1.642 1.568.258.27.393.635.372 1.009v7.533a1.069 1.069 0 0 1-1.056 1.056zm-3.473-.768h2.472a1.065 1.065 0 0 1-.038-.288v-.287H8.704l.001.575zm-1.347-.706v.416c.01.155.133.278.288.288h.416l-.704-.704zm4.548.154v.27a.248.248 0 0 0 .28.252.338.338 0 0 0 .189-.053.364.364 0 0 0 .025-.337.218.218 0 0 0-.223-.132h-.27zm0-.788h.558v-6.488a.595.595 0 0 0-.163-.482 28.854 28.854 0 0 0-1.433-1.376l-.421.412.384.362.308.29.526.5.213-.042.196.478-.166.114-.002 6.232zm-3.202 0h2.435v-6.225l-.835-.788-.407-.385-1.193 1.164v6.234zm-1.346 0h.577V19.41l-.166-.112.195-.478.208.04 1.167-1.14-.187-.173-.229-.219L7.73 18.49c-.25.247-.36.365-.37.58-.01.319 0 .659 0 .986v5.59zm2.022-8.763h1.027l-.307-.29a.307.307 0 0 0-.412 0l-.308.29z"/>
            <path d="M10.58 16.752v-2.266a.681.681 0 0 0-.654-.672c-.371 0-.672.301-.672.672v2.266a.681.681 0 0 0 .655.672c.371 0 .672-.3.672-.672z"/>
            <path d="M9.914 17.808a1.062 1.062 0 0 1-1.04-1.056v-2.266a1.049 1.049 0 1 1 2.096 0v2.266c-.001.583-.473 1.056-1.056 1.056zm.016-3.61a.289.289 0 0 0-.287.288v2.266c.005.15.12.274.27.288.159-.001.287-.13.288-.288v-2.266a.298.298 0 0 0-.27-.287zM25.858 26.025H8.055a8.551 8.551 0 0 0-3.221.089C4.02 26.52 3.33 27.6 2.727 28.22L.575 30.414a.67.67 0 0 0 .478 1.133h27.644a.664.664 0 0 0 0-1.327H1.064l.478 1.133 1.682-1.7a14.641 14.641 0 0 0 2.265-2.306c.247-.425-.196.054-.212 0 .053.054.407 0 .478 0 .672.035 1.362 0 2.035 0h18.085a.664.664 0 0 0 0-1.327l-.017.005z"/>
            <path d="M6.033 25.522c.398 0 .818.035 1.188.068.308.026.603.05.832.05h17.822a1.049 1.049 0 0 1 0 2.096H7.79c-.22 0-.448 0-.669.007-.221.008-.461.008-.69.008-.256 0-.478 0-.681-.015h-.053a8.639 8.639 0 0 1-1.451 1.491c-.24.21-.461.41-.661.601H28.69a1.049 1.049 0 0 1 0 2.096H1.51l-.099.1-.041-.1h-.323a1.055 1.055 0 0 1-.75-1.788l.223-.226-.034-.082H.6l1.854-1.885c.169-.173.352-.395.546-.628a5.825 5.825 0 0 1 1.662-1.552 3.044 3.044 0 0 1 1.371-.241zm19.842 1.445a.281.281 0 0 0 0-.558H8.055c-.262 0-.57-.026-.897-.054a13.256 13.256 0 0 0-1.123-.064 2.385 2.385 0 0 0-1.029.166c-.551.36-1.03.82-1.414 1.354-.205.246-.397.478-.588.675L1.68 29.834h.818l.447-.452c.23-.235.501-.473.789-.727.425-.352.82-.739 1.182-1.156l-.009-.026.057-.035a2.63 2.63 0 0 0 .175-.26l.011-.019a.818.818 0 0 0 .041-.077.297.297 0 0 0-.016.116l.09.055h.013v-.275a.338.338 0 0 0-.179.048c.017-.011.039-.03.06-.047a.615.615 0 0 1 .388-.183c.133 0 .257.068.33.179l.285-.014-.016.026h.279c.224 0 .46 0 .676-.008.215-.007.461-.007.681-.007l18.094-.005zm2.814 4.194a.281.281 0 0 0 0-.558H2.823l-.554.558h26.42zM10.58 16.752v-2.266a.681.681 0 0 0-.654-.672c-.371 0-.672.301-.672.672v2.266a.681.681 0 0 0 .655.672c.371 0 .672-.3.672-.672z"/>
            <path d="M9.914 17.808a1.062 1.062 0 0 1-1.04-1.056v-2.266a1.049 1.049 0 1 1 2.096 0v2.266c-.001.583-.473 1.056-1.056 1.056zm.016-3.61a.289.289 0 0 0-.287.288v2.266c.005.15.12.274.27.288.159-.001.287-.13.288-.288v-2.266a.298.298 0 0 0-.27-.287zM12.178 22.255H7.7a.684.684 0 0 0-.672.672.672.672 0 0 0 .672.672h4.478a.684.684 0 0 0 .672-.672c0-.371-.3-.672-.672-.672z"/>
            <path d="M7.7 21.87h4.478c.583.001 1.056.474 1.056 1.057a1.076 1.076 0 0 1-1.056 1.056H7.7a1.058 1.058 0 0 1-1.057-1.056A1.076 1.076 0 0 1 7.7 21.87zm4.477 1.346a.307.307 0 0 0 .287-.288.289.289 0 0 0-.287-.287H7.7a.307.307 0 0 0-.288.287c0 .159.13.287.288.288h4.477zM8.373 44.748v-4.796a4.864 4.864 0 0 1 .154-1.964 1.576 1.576 0 0 1 2.884.106c.115.414.15.846.106 1.274v5.381l.672-.672h-4.47a.664.664 0 0 0 0 1.327h4.478a.684.684 0 0 0 .671-.672v-5.227a7.258 7.258 0 0 0-.07-1.522A2.921 2.921 0 0 0 8.745 36a2.998 2.998 0 0 0-1.593 1.982c-.067.38-.091.765-.07 1.15v5.592a.664.664 0 0 0 1.326 0l-.035.023z"/>
            <path d="M12.197 45.795H7.72a.99.99 0 0 1-.72-.288 1.076 1.076 0 0 1-.307-.769v-5.765c-.016-.36.011-.722.081-1.076.237-.979.897-1.801 1.802-2.243a3.16 3.16 0 0 1 1.362-.308 3.33 3.33 0 0 1 3.229 2.55c.077.43.105.868.083 1.305V44.735a1.076 1.076 0 0 1-1.053 1.06zm-3.44-.769h2.382v-.558H8.793v.27c.001.097-.01.194-.036.288zm-1.288-.284a.248.248 0 0 0 .28.249.281.281 0 0 0 .24-.119v-.412h-.27a.246.246 0 0 0-.253.275l.003.007zm2.475-8.61c-.357 0-.71.079-1.031.232a2.629 2.629 0 0 0-1.384 1.72 3.891 3.891 0 0 0-.062.895v4.74a1.14 1.14 0 0 1 .253-.028h.269v-3.739c0-.121 0-.255-.01-.398a3.754 3.754 0 0 1 .208-1.734 1.96 1.96 0 0 1 3.587.13c.125.378.172.776.138 1.172V43.691h.577v-4.489a5.094 5.094 0 0 0-.065-1.128 2.554 2.554 0 0 0-2.483-1.953l.003.01zm-1.187 7.56h2.382v-4.588c.028-.293 0-.588-.085-.869a1.182 1.182 0 0 0-1.113-.752 1.167 1.167 0 0 0-1.068.674c-.141.442-.186.91-.131 1.371 0 .154.01.29.01.424l.005 3.74zM36.528 44.748v-4.796a4.865 4.865 0 0 1 .154-1.964 1.576 1.576 0 0 1 2.884.106c.115.414.151.846.106 1.274v5.381l.672-.672h-4.47a.664.664 0 0 0 0 1.327h4.478a.684.684 0 0 0 .672-.672v-5.227a7.258 7.258 0 0 0-.07-1.522 2.921 2.921 0 0 0-4.057-1.977 2.998 2.998 0 0 0-1.592 1.982c-.068.379-.092.765-.071 1.15v5.591a.664.664 0 0 0 1.327 0l-.033.019z"/>
            <path d="M40.352 45.795h-4.477a.99.99 0 0 1-.72-.288 1.076 1.076 0 0 1-.307-.769v-5.765c-.016-.36.012-.722.081-1.076.237-.979.898-1.801 1.802-2.243a3.16 3.16 0 0 1 1.362-.308 3.33 3.33 0 0 1 3.23 2.55c.076.43.104.868.082 1.305V44.735a1.076 1.076 0 0 1-1.053 1.06zm-3.442-.769h2.384v-.558h-2.346v.27c0 .098-.012.194-.038.288zm-1.289-.284a.248.248 0 0 0 .28.249.281.281 0 0 0 .245-.111v-.412h-.271a.246.246 0 0 0-.254.267v.007zm2.476-8.61c-.357 0-.71.079-1.032.232a2.629 2.629 0 0 0-1.384 1.72 3.893 3.893 0 0 0-.061.895v4.74a1.14 1.14 0 0 1 .252-.028h.27v-3.739c0-.121 0-.255-.009-.398a3.754 3.754 0 0 1 .208-1.734 1.96 1.96 0 0 1 3.587.13c.125.378.172.776.138 1.172V43.691h.577v-4.489a5.094 5.094 0 0 0-.065-1.128 2.554 2.554 0 0 0-2.481-1.953v.01zm-1.184 7.57h2.381v-4.598c.028-.293 0-.588-.084-.869a1.182 1.182 0 0 0-1.113-.752 1.167 1.167 0 0 0-1.069.674c-.14.442-.185.91-.13 1.371 0 .154.01.29.01.424l.005 3.75zM21.363 48.942V41.35a5.642 5.642 0 0 1 .495-3.346 3.3 3.3 0 0 1 5.61.53c.206.664.273 1.363.195 2.053v8.353l.672-.672h-7.627a.664.664 0 0 0 0 1.327h7.627a.684.684 0 0 0 .672-.672v-8.351a7.637 7.637 0 0 0-.141-2.106 4.59 4.59 0 0 0-6.124-2.797 4.394 4.394 0 0 0-2.495 2.614 5.709 5.709 0 0 0-.196 1.894v8.725a.664.664 0 0 0 1.327 0l-.015.04z"/>
            <path d="M28.335 49.981h-7.627a.98.98 0 0 1-.93-.6 1.038 1.038 0 0 1-.11-.474v-8.855a5.6 5.6 0 0 1 .216-1.882 4.766 4.766 0 0 1 2.712-2.848 5.003 5.003 0 0 1 6.64 3.04c.142.603.193 1.225.154 1.844V48.93a1.076 1.076 0 0 1-1.055 1.051zm-6.61-.769h5.554v-.55h-5.535v.25h.019c0 .101-.014.203-.042.3h.003zm-1.248-.153a.29.29 0 0 0 .243.107.25.25 0 0 0 .277-.213h-.015v-.29h-.271a.215.215 0 0 0-.201.093.363.363 0 0 0-.036.297l.003.006zm4.01-13.342a4.107 4.107 0 0 0-1.593.307 3.997 3.997 0 0 0-2.288 2.388 4.941 4.941 0 0 0-.169 1.64v7.875c.089-.022.18-.034.271-.034h.27V41.35c0-.185 0-.372-.01-.572a4.775 4.775 0 0 1 .578-2.996 3.627 3.627 0 0 1 2.973-1.481 3.493 3.493 0 0 1 3.303 2.085c.211.58.29 1.2.232 1.814v7.693h.576v-7.701a5.662 5.662 0 0 0-.13-1.622 4.105 4.105 0 0 0-4.016-2.86l.003.007zm-2.74 12.176h5.535V40.18a3.508 3.508 0 0 0-.169-1.49 2.752 2.752 0 0 0-2.595-1.62 2.86 2.86 0 0 0-2.348 1.158 4.151 4.151 0 0 0-.435 2.531c0 .195.01.397.01.592l.002 6.543z"/>
        </g>
        <path d="M1.008 49.592H53.34a.664.664 0 0 0 0-1.327H1.008a.664.664 0 0 0 0 1.327z"/>
        <path d="M53.34 49.981H1.008a1.049 1.049 0 0 1 0-2.095H53.34a1.049 1.049 0 0 1 0 2.095zM1.008 48.654a.281.281 0 0 0 0 .558H53.34a.281.281 0 0 0 0-.558H1.008z"/>
    </g>
</svg>
