<svg width="307" height="198" viewBox="0 0 307 198" fill="none" xmlns="http://www.w3.org/2000/svg">
    <path fill-rule="evenodd" clip-rule="evenodd" d="M248.336 52.166c-21.158-65.21-134.843-68.045-143.575 5.12 0 0-6.739 1.337-12.684.425C59.66 52.739 2.938 114.98 46.47 162.543H289.58c26.302-45.423 7.41-91.9-41.243-110.377z" fill="#979BEB"/>
    <path fill-rule="evenodd" clip-rule="evenodd" d="m194.693 113.327-.494-.481C226.149 80 227.418 62.034 229.34 34.842c.681-9.63 1.45-20.524 3.664-33.671-15.132 7.033-27.395 16.773-36.464 28.96-7.348 9.877-12.626 21.375-15.687 34.176-5.219 21.816-2.136 40.092-2.104 40.274l-.679.119c-.032-.184-3.137-18.578 2.106-40.528 3.081-12.897 8.397-24.484 15.803-34.44 9.256-12.444 21.816-22.356 37.331-29.46l.592-.272-.109.643c-2.292 13.403-3.074 24.477-3.765 34.247-1.933 27.344-3.21 45.41-35.335 78.437z" fill="#4DBC4A"/>
    <path fill-rule="evenodd" clip-rule="evenodd" d="m188.671 106.272-.668-.172c.128-.492 12.851-49.607 28.857-76.87l.595.348c-15.96 27.181-28.658 76.201-28.784 76.694z" fill="#4DBC4A"/>
    <path fill-rule="evenodd" clip-rule="evenodd" d="m206.314 52.31-.689-.024c.004-.098.292-9.957-4.859-19.446l.606-.328c5.243 9.66 4.946 19.699 4.942 19.799zM198.971 72.28l-.485-.488c7.321-7.27 16.887-9.516 16.982-9.538l.153.672c-.093.02-9.473 2.228-16.65 9.354zM218.996 134.374l-.068-.686c12.458-1.234 22.564-9.583 30.894-25.523 7.381-14.121 12.449-32.165 17.353-49.614 3.178-11.313 6.185-22.012 9.694-31.278-35.851 8.96-50.712 37.38-50.859 37.668l-.613-.313c.149-.292 15.316-29.324 51.948-38.181l.636-.154-.234.612c-3.599 9.376-6.664 20.284-9.908 31.833-4.913 17.483-9.993 35.561-17.407 49.746-8.447 16.162-18.729 24.63-31.436 25.89z" fill="#4DBC4A"/>
    <path fill-rule="evenodd" clip-rule="evenodd" d="m215.944 117.455-.629-.279c.208-.472 21.151-47.37 38.743-61.006l.422.544c-7.212 5.59-16.159 17.858-25.874 35.48-7.353 13.333-12.61 25.144-12.662 25.261z" fill="#4DBC4A"/>
    <path fill-rule="evenodd" clip-rule="evenodd" d="m239.085 74.44-.677-.127c.011-.052.982-5.363 1.848-18.194l.686.046c-.869 12.881-1.846 18.222-1.857 18.274zM227.344 94.416l-.39-.567c.095-.066 9.662-6.59 22.221-9.454l.152.672c-12.431 2.835-21.889 9.284-21.983 9.35zM60.534 179.39c-30.94-31.809-32.17-49.206-34.03-75.541-.666-9.408-1.42-20.072-3.626-32.979l-.11-.642.593.271c33.846 15.498 46.51 42.022 51.174 61.543 5.05 21.14 2.059 38.857 2.028 39.034l-.678-.119c.03-.176 2.997-17.773-2.026-38.78-4.604-19.248-17.055-45.364-50.193-60.778 2.128 12.65 2.87 23.134 3.524 32.402 1.85 26.184 3.073 43.481 33.838 75.109l-.494.48z" fill="#4DBC4A"/>
    <path fill-rule="evenodd" clip-rule="evenodd" d="M66.33 172.589c-.12-.473-12.35-47.679-27.717-73.851l.594-.35c15.416 26.258 27.67 73.555 27.791 74.03l-.667.171z" fill="#4DBC4A"/>
    <path fill-rule="evenodd" clip-rule="evenodd" d="M49.34 120.623c-.004-.098-.29-9.768 4.76-19.073l.606.328c-4.958 9.135-4.681 18.625-4.678 18.72l-.688.025z" fill="#4DBC4A"/>
    <path fill-rule="evenodd" clip-rule="evenodd" d="M56.415 139.863c-6.909-6.86-15.937-8.985-16.028-9.006l.154-.67c.092.02 9.306 2.183 16.36 9.186l-.486.49zM218.876 49.878c-.855 0-1.551.696-1.551 1.55 0 .855.696 1.55 1.551 1.55.854 0 1.55-.695 1.55-1.55 0-.854-.696-1.55-1.55-1.55zm0 3.79a2.242 2.242 0 0 1-2.239-2.24 2.242 2.242 0 0 1 2.239-2.238 2.242 2.242 0 0 1 2.238 2.238 2.242 2.242 0 0 1-2.238 2.24zM33.246 84.492c-.854 0-1.55.695-1.55 1.55 0 .854.696 1.55 1.55 1.55.855 0 1.55-.696 1.55-1.55 0-.855-.695-1.55-1.55-1.55zm0 3.788a2.241 2.241 0 0 1-2.239-2.239 2.241 2.241 0 0 1 2.24-2.238 2.241 2.241 0 0 1 2.238 2.239 2.241 2.241 0 0 1-2.239 2.238zM240.916 134.375c-.854 0-1.55.696-1.55 1.55 0 .854.696 1.549 1.55 1.549.854 0 1.551-.695 1.551-1.549s-.697-1.55-1.551-1.55zm0 3.788a2.24 2.24 0 0 1-2.238-2.238 2.24 2.24 0 0 1 2.238-2.238 2.24 2.24 0 0 1 2.238 2.238 2.24 2.24 0 0 1-2.238 2.238zM235.062 106.364c0 .857-.694 1.549-1.55 1.549a1.549 1.549 0 1 1 0-3.099c.856 0 1.55.694 1.55 1.55zM192.357 62.105a1.55 1.55 0 1 1-3.1 0 1.55 1.55 0 0 1 3.1 0z" fill="#DADADA"/>
    <path fill-rule="evenodd" clip-rule="evenodd" d="M69.274 23.376c-.262 0-.525.009-.788.026-6.515.424-11.471 6.053-11.049 12.547.423 6.495 6.073 11.432 12.582 11.01a11.781 11.781 0 0 0 8.13-3.995 11.709 11.709 0 0 0 2.918-8.553 11.708 11.708 0 0 0-4.003-8.104 11.767 11.767 0 0 0-7.79-2.93zm-.035 24.296c-6.54 0-12.06-5.08-12.489-11.678-.447-6.873 4.797-12.83 11.69-13.28 3.34-.217 6.563.875 9.078 3.075a12.39 12.39 0 0 1 4.236 8.577 12.39 12.39 0 0 1-3.089 9.053 12.463 12.463 0 0 1-8.601 4.226c-.277.018-.552.027-.825.027zm-15.093 2.052.2.2a21.154 21.154 0 0 0 5.235 3.801l.255.132-1.625 5.394a1.389 1.389 0 0 0 .938 1.736l4.284 1.28a1.401 1.401 0 0 0 1.743-.936l1.63-5.414.282.029a21.346 21.346 0 0 0 7-.456l.277-.065 2.319 5.157a1.403 1.403 0 0 0 1.85.702l4.08-1.825c.342-.152.603-.429.736-.778a1.38 1.38 0 0 0-.031-1.064l-2.31-5.14.235-.162a21.103 21.103 0 0 0 4.697-4.449l.173-.224 5.014 2.506a1.403 1.403 0 0 0 1.88-.622l2.003-3.985c.168-.332.195-.71.078-1.062a1.384 1.384 0 0 0-.7-.808l-4.968-2.484.08-.276c.664-2.257.938-4.605.816-6.98l-.015-.283 5.333-1.328c.363-.09.669-.316.861-.637.192-.319.248-.693.158-1.053l-1.082-4.326a1.4 1.4 0 0 0-1.696-1.015l-5.278 1.315-.118-.262a21.02 21.02 0 0 0-3.707-5.582l-.193-.21 3.198-4.321c.222-.3.314-.668.258-1.035a1.382 1.382 0 0 0-.552-.914l-3.6-2.647a1.404 1.404 0 0 0-1.957.295l-3.175 4.29-.258-.125a20.987 20.987 0 0 0-6.688-1.97l-.284-.034-.344-5.299a1.4 1.4 0 0 0-1.488-1.3l-4.463.29a1.4 1.4 0 0 0-1.306 1.483l.345 5.298-.277.07a20.982 20.982 0 0 0-6.378 2.821l-.239.158-3.705-3.842a1.404 1.404 0 0 0-1.98-.038l-3.224 3.09c-.27.259-.422.606-.43.978-.007.373.132.725.39.993l3.734 3.871-.165.233a20.98 20.98 0 0 0-2.953 6.015l-.084.274-5.403-.619a1.394 1.394 0 0 0-1.55 1.227l-.512 4.43a1.39 1.39 0 0 0 1.23 1.544l5.459.625.022.282c.189 2.37.765 4.663 1.713 6.816l.116.263-4.603 3.107c-.31.209-.52.526-.59.892-.07.365.006.736.215 1.044l2.505 3.69a1.403 1.403 0 0 0 1.944.374l4.645-3.135zm9.688 13.291c-.198 0-.399-.029-.598-.088l-4.284-1.28a2.072 2.072 0 0 1-1.24-1.01 2.063 2.063 0 0 1-.16-1.584l1.46-4.848a21.84 21.84 0 0 1-4.948-3.595l-4.177 2.82a2.094 2.094 0 0 1-2.9-.557l-2.505-3.692a2.064 2.064 0 0 1-.321-1.56 2.07 2.07 0 0 1 .88-1.333l4.129-2.786a21.666 21.666 0 0 1-1.631-6.491l-4.898-.56a2.074 2.074 0 0 1-1.398-.777 2.065 2.065 0 0 1-.438-1.531l.513-4.43a2.09 2.09 0 0 1 2.313-1.832l4.834.554a21.647 21.647 0 0 1 2.801-5.704l-3.338-3.462a2.065 2.065 0 0 1-.583-1.484 2.07 2.07 0 0 1 .641-1.462l3.225-3.09a2.093 2.093 0 0 1 2.952.057l3.309 3.431a21.667 21.667 0 0 1 6.07-2.684l-.308-4.73a2.088 2.088 0 0 1 1.948-2.214l4.463-.29a2.08 2.08 0 0 1 2.22 1.942l.308 4.73c2.209.296 4.347.926 6.364 1.875l2.837-3.832a2.094 2.094 0 0 1 2.919-.44l3.599 2.647c.449.33.742.815.825 1.366.083.55-.054 1.1-.385 1.547l-2.86 3.865a21.706 21.706 0 0 1 3.515 5.294l4.722-1.177a2.09 2.09 0 0 1 2.531 1.517l1.082 4.326c.134.539.05 1.098-.236 1.575a2.072 2.072 0 0 1-1.285.95l-4.784 1.192a21.551 21.551 0 0 1-.775 6.648l4.455 2.227c.499.25.87.678 1.046 1.207a2.062 2.062 0 0 1-.116 1.589l-2.004 3.985a2.095 2.095 0 0 1-2.803.928l-4.51-2.253a21.785 21.785 0 0 1-4.44 4.206l2.077 4.617c.228.508.245 1.073.046 1.592a2.072 2.072 0 0 1-1.098 1.162l-4.08 1.825a2.093 2.093 0 0 1-2.76-1.048l-2.086-4.642a22 22 0 0 1-6.667.435l-1.466 4.872a2.092 2.092 0 0 1-2.002 1.485z" fill="#8B91FF"/>
    <path fill-rule="evenodd" clip-rule="evenodd" d="M174.581 194.65H72.121a6.42 6.42 0 0 1-6.42-6.42V38.467a6.42 6.42 0 0 1 6.42-6.42h102.46a6.42 6.42 0 0 1 6.42 6.42V188.23a6.42 6.42 0 0 1-6.42 6.42z" fill="#99CEFF"/>
    <path fill-rule="evenodd" clip-rule="evenodd" d="M103.031 46.022h40.639V39.2h-40.639v6.822z" fill="#fff"/>
    <path fill-rule="evenodd" clip-rule="evenodd" d="M77.202 76.89H169.5V56.42H77.202v20.47z" fill="#DADADA"/>
    <path fill-rule="evenodd" clip-rule="evenodd" d="M81.24 74.092h84.22v-14.87H81.24v14.87z" fill="#fff"/>
    <path fill-rule="evenodd" clip-rule="evenodd" d="M145.428 94.652h-6.272a3.407 3.407 0 0 1-3.407-3.408v-1.45a3.407 3.407 0 0 1 3.407-3.408h6.272a3.408 3.408 0 0 1 3.407 3.408v1.45a3.408 3.408 0 0 1-3.407 3.408zM166.092 94.652h-6.272a3.408 3.408 0 0 1-3.407-3.408v-1.45a3.408 3.408 0 0 1 3.407-3.408h6.272a3.408 3.408 0 0 1 3.407 3.408v1.45a3.408 3.408 0 0 1-3.407 3.408zM167.874 115.433h-12.595a1.623 1.623 0 0 1-1.624-1.622v-7.547c0-.897.727-1.623 1.624-1.623h12.595c.896 0 1.623.726 1.623 1.623v7.547c0 .895-.727 1.622-1.623 1.622zM142.6 115.433h-12.596a1.624 1.624 0 0 1-1.623-1.622v-7.547c0-.897.728-1.623 1.623-1.623H142.6c.896 0 1.622.726 1.622 1.623v7.547c0 .895-.726 1.622-1.622 1.622zM117.326 115.433H104.73a1.622 1.622 0 0 1-1.622-1.622v-7.547c0-.897.726-1.623 1.622-1.623h12.596c.897 0 1.623.726 1.623 1.623v7.547c0 .895-.726 1.622-1.623 1.622zM92.051 115.433H79.456a1.623 1.623 0 0 1-1.623-1.622v-7.547c0-.897.727-1.623 1.623-1.623h12.595c.897 0 1.624.726 1.624 1.623v7.547c0 .895-.727 1.622-1.624 1.622zM167.874 134.949h-12.595a1.623 1.623 0 0 1-1.624-1.622v-7.547c0-.895.727-1.622 1.624-1.622h12.595c.896 0 1.623.727 1.623 1.622v7.547c0 .896-.727 1.622-1.623 1.622z" fill="#8B91FF"/>
    <path fill-rule="evenodd" clip-rule="evenodd" d="M142.6 134.949h-12.596a1.623 1.623 0 0 1-1.623-1.622v-7.547c0-.895.728-1.622 1.623-1.622H142.6c.896 0 1.622.727 1.622 1.622v7.547c0 .896-.726 1.622-1.622 1.622zM117.326 134.949H104.73a1.622 1.622 0 0 1-1.622-1.622v-7.547c0-.895.726-1.622 1.622-1.622h12.596c.897 0 1.623.727 1.623 1.622v7.547c0 .896-.726 1.622-1.623 1.622zM92.051 134.949H79.456a1.622 1.622 0 0 1-1.623-1.622v-7.547c0-.895.727-1.622 1.623-1.622h12.595c.897 0 1.624.727 1.624 1.622v7.547c0 .896-.727 1.622-1.624 1.622z" fill="#fff"/>
    <path fill-rule="evenodd" clip-rule="evenodd" d="M167.874 154.467h-12.595a1.625 1.625 0 0 1-1.624-1.624v-7.546c0-.896.727-1.622 1.624-1.622h12.595c.896 0 1.623.726 1.623 1.622v7.546c0 .896-.727 1.624-1.623 1.624z" fill="#1F3C88"/>
    <path fill-rule="evenodd" clip-rule="evenodd" d="M142.6 154.467h-12.596a1.625 1.625 0 0 1-1.623-1.624v-7.546c0-.896.728-1.622 1.623-1.622H142.6c.896 0 1.622.726 1.622 1.622v7.546c0 .896-.726 1.624-1.622 1.624zM117.326 154.467H104.73a1.623 1.623 0 0 1-1.622-1.624v-7.546c0-.896.726-1.622 1.622-1.622h12.596c.897 0 1.623.726 1.623 1.622v7.546c0 .896-.726 1.624-1.623 1.624z" fill="#fff"/>
    <path fill-rule="evenodd" clip-rule="evenodd" d="M92.051 154.467H79.456a1.624 1.624 0 0 1-1.623-1.624v-7.546c0-.896.727-1.622 1.623-1.622h12.595c.897 0 1.624.726 1.624 1.622v7.546c0 .896-.727 1.624-1.624 1.624z" fill="#D3DFFF"/>
    <path fill-rule="evenodd" clip-rule="evenodd" d="M167.874 174.673h-12.595a1.623 1.623 0 0 1-1.624-1.624v-7.545c0-.897.727-1.623 1.624-1.623h12.595c.896 0 1.623.726 1.623 1.623v7.545c0 .898-.727 1.624-1.623 1.624z" fill="#FBC343"/>
    <path fill-rule="evenodd" clip-rule="evenodd" d="M142.6 174.673h-12.596a1.624 1.624 0 0 1-1.623-1.624v-7.545c0-.897.728-1.623 1.623-1.623H142.6c.896 0 1.622.726 1.622 1.623v7.545c0 .898-.726 1.624-1.622 1.624zM117.326 174.673H104.73a1.622 1.622 0 0 1-1.622-1.624v-7.545c0-.897.726-1.623 1.622-1.623h12.596c.897 0 1.623.726 1.623 1.623v7.545c0 .898-.726 1.624-1.623 1.624z" fill="#fff"/>
    <path fill-rule="evenodd" clip-rule="evenodd" d="M92.051 174.673H79.456a1.623 1.623 0 0 1-1.623-1.624v-7.545c0-.897.727-1.623 1.623-1.623h12.595c.897 0 1.624.726 1.624 1.623v7.545c0 .898-.727 1.624-1.624 1.624z" fill="#D3DFFF"/>
    <path fill-rule="evenodd" clip-rule="evenodd" d="M147.532 65.237c0 1.037.628 1.767 1.6 1.767.757 0 1.345-.371 1.639-.87a.743.743 0 0 0 .102-.41c0-1.421-.525-2.51-1.702-2.51-.961 0-1.639.845-1.639 2.023zm-.41 4.789c.243.026.526 0 .91-.039a3.136 3.136 0 0 0 1.741-.806c.549-.5.948-1.23 1.1-2.215h-.038c-.461.563-1.126.896-1.958.896-1.498 0-2.458-1.126-2.458-2.548 0-1.575 1.139-2.958 2.842-2.958 1.702 0 2.751 1.383 2.751 3.509 0 1.83-.613 3.111-1.433 3.905-.639.627-1.524 1.011-2.419 1.114-.41.064-.768.077-1.038.064v-.922zM154.103 65.237c0 1.037.629 1.767 1.602 1.767.755 0 1.344-.371 1.638-.87a.734.734 0 0 0 .103-.41c0-1.421-.525-2.51-1.703-2.51-.96 0-1.64.845-1.64 2.023zm-.408 4.789c.242.026.524 0 .908-.039.653-.089 1.269-.358 1.741-.806.551-.5.948-1.23 1.102-2.215h-.038c-.462.563-1.128.896-1.96.896-1.497 0-2.458-1.126-2.458-2.548 0-1.575 1.141-2.958 2.842-2.958 1.703 0 2.753 1.383 2.753 3.509 0 1.83-.615 3.111-1.434 3.905-.64.627-1.524 1.011-2.419 1.114-.41.064-.769.077-1.037.064v-.922z" fill="#3A6BEA"/>
    <path fill-rule="evenodd" clip-rule="evenodd" d="M211.298 194.992h62.907v-46.145h-62.907v46.145z" fill="#FBC343"/>
    <path fill-rule="evenodd" clip-rule="evenodd" d="M257.447 159.982h16.76v-.687h-16.76v.687zM245.048 185.241h29.159v-.689h-29.159v.689zM242.658 165.568c0 5.311-.798 10.65-2.424 15.837a18.885 18.885 0 0 1-18.018 13.239h-10.918v-45.793h28.653a52.973 52.973 0 0 1 2.707 16.717z" fill="#E49B31"/>
    <path fill-rule="evenodd" clip-rule="evenodd" d="M185.124 186.948v4.917a3.126 3.126 0 0 1-3.128 3.128h-51.859a3.124 3.124 0 0 1-3.126-3.128v-4.917a3.124 3.124 0 0 1 3.126-3.128h51.859a3.126 3.126 0 0 1 3.128 3.128z" fill="#FBC343"/>
    <path fill-rule="evenodd" clip-rule="evenodd" d="M178.697 175.766v4.925a3.128 3.128 0 0 1-3.127 3.128h-51.858a3.126 3.126 0 0 1-3.128-3.128v-4.925a3.13 3.13 0 0 1 3.128-3.127h51.858a3.133 3.133 0 0 1 3.127 3.127z" fill="#FBC343"/>
    <path fill-rule="evenodd" clip-rule="evenodd" d="M185.124 186.946v4.918a3.124 3.124 0 0 1-3.127 3.127h-37.188c-2.57-3.168-4.14-7.253-5.084-11.172-1.087-4.492-1.37-8.756-1.432-11.18h37.277a3.134 3.134 0 0 1 3.128 3.127v4.925a3.13 3.13 0 0 1-3.128 3.128h6.427a3.124 3.124 0 0 1 3.127 3.127z" fill="#E49B31"/>
    <path fill-rule="evenodd" clip-rule="evenodd" d="m212.379 95.319-6.44 19.783-.014.042-6.261-.138-24.025-.544-1.756-5.029-.297-.841-4.648-13.273c14.422 4.994 26.311-5.924 43.441 0z" fill="#FBC343"/>
    <path fill-rule="evenodd" clip-rule="evenodd" d="m207.882 109.13-1.942 5.972-6.276-.096-24.024-.544-1.757-5.029c8.259-.144 22.469-.337 33.999-.303z" fill="#E49B31"/>
    <path fill-rule="evenodd" clip-rule="evenodd" d="M234.724 181.754a18.889 18.889 0 0 1-6.84 9.575 18.845 18.845 0 0 1-11.179 3.664H162.29a17.494 17.494 0 0 1-16.861-12.847 54.938 54.938 0 0 1-1.956-13.267c-.007-.428-.014-.855-.014-1.282 0-.503.007-1.009.021-1.513.444-16.052 8.287-31.004 20.878-40.972l13.017-10.306 29.791.688 16.375 15.67c2.303 2.204 4.355 4.667 6.002 7.398a52.828 52.828 0 0 1 4.781 10.292 52.942 52.942 0 0 1 .4 32.9z" fill="#FBC343"/>
    <path d="M203.236 142.23v2.753a.841.841 0 0 1-.243.621.841.841 0 0 1-.621.243h-4.534c-.414 2.591-1.574 4.696-3.481 6.315-1.908 1.619-4.391 2.609-7.449 2.969 3.004 3.202 7.134 8.024 12.387 14.466.252.287.288.593.108.917-.144.324-.404.486-.782.486h-5.263a.796.796 0 0 1-.675-.324c-5.505-6.603-9.986-11.74-13.44-15.41a.808.808 0 0 1-.243-.594v-3.428c0-.234.085-.436.256-.607a.83.83 0 0 1 .608-.256h3.022c2.375 0 4.287-.387 5.735-1.161 1.449-.774 2.371-1.898 2.767-3.373h-11.524a.841.841 0 0 1-.621-.243.841.841 0 0 1-.243-.621v-2.753c0-.252.081-.459.243-.621a.841.841 0 0 1 .621-.243h11.146c-1.026-2.033-3.437-3.049-7.233-3.049h-3.913a.832.832 0 0 1-.608-.257.829.829 0 0 1-.256-.607v-3.589c0-.252.081-.459.243-.621a.841.841 0 0 1 .621-.243h22.454c.252 0 .459.081.621.243a.841.841 0 0 1 .243.621v2.752a.841.841 0 0 1-.243.621.841.841 0 0 1-.621.243h-6.288c.845 1.098 1.421 2.393 1.727 3.886h4.615c.252 0 .459.081.621.243a.841.841 0 0 1 .243.621z" fill="#fff"/>
    <path fill-rule="evenodd" clip-rule="evenodd" d="M212.095 120.367h-42.14a3.178 3.178 0 0 1-3.169-3.169v-1.349a3.178 3.178 0 0 1 3.169-3.169h42.14a3.178 3.178 0 0 1 3.169 3.169v1.349a3.179 3.179 0 0 1-3.169 3.169z" fill="#ED7545"/>
    <path fill-rule="evenodd" clip-rule="evenodd" d="M216.706 194.993H162.29a17.492 17.492 0 0 1-16.86-12.847 54.883 54.883 0 0 1-1.957-13.267c9.003 8.584 19.61 19.805 44.407 20.15.442.005.884.009 1.32.009 29.852 0 42.775-14.391 45.124-40.184a53.011 53.011 0 0 1 2.824 17.097 52.874 52.874 0 0 1-2.424 15.803 18.885 18.885 0 0 1-18.018 13.239z" fill="#F2B33C"/>
    <path fill-rule="evenodd" clip-rule="evenodd" d="m23.373 185.465-5.51-2.068-12.8 11.252h15.148l3.162-9.184z" fill="#102048"/>
    <path fill-rule="evenodd" clip-rule="evenodd" d="M23.373 185.465h12.17l-1.379 8.724-13.953.46 3.163-9.184z" fill="#F9B384"/>
    <path fill-rule="evenodd" clip-rule="evenodd" d="m72.218 136.554-.448 3.052-2.934 20.106-.655 4.505-2.906 19.88a12.463 12.463 0 0 1-12.337 10.663H26.014l.034-.343.875-8.955.124-1.261 18.77-3.617 2.52-18.31c-1.24-5.323-.937-10.449-.4-14.044.455-3.066 1.089-5.015 1.089-5.015l8.376-2.404 14.816-4.257z" fill="#1F3C88"/>
    <path fill-rule="evenodd" clip-rule="evenodd" d="m66.466 175.957-1.191 8.141a12.464 12.464 0 0 1-12.337 10.664h-1.377c12.336-2.207 9.925-17.965 14.905-18.805z" fill="#102048"/>
    <path fill-rule="evenodd" clip-rule="evenodd" d="m14.367 194.832-.585-.364 2.64-4.247.586.363-2.64 4.248z" fill="#fff"/>
    <path fill-rule="evenodd" clip-rule="evenodd" d="m69.573 154.662-1.392 9.554c-3.877-1.108-8.99-6.652-8.99-6.652l10.382-2.902zM98.1 179.035s-6.541 3.358-18.251 1.205l9.729-6.457 8.523 5.252z" fill="#102048"/>
    <path fill-rule="evenodd" clip-rule="evenodd" d="m94.5 183.664-10.462.235-.062-2.26-.165-6.193 9.298.689.44 2.39.951 5.139z" fill="#F9B384"/>
    <path fill-rule="evenodd" clip-rule="evenodd" d="m93.55 178.525-9.574 3.114-.165-6.193 9.298.689.44 2.39z" fill="#E28B6D"/>
    <path fill-rule="evenodd" clip-rule="evenodd" d="m106.367 194.735-11.537-9.299-.328-1.769-10.466.232.29 10.836h22.041z" fill="#102048"/>
    <path fill-rule="evenodd" clip-rule="evenodd" d="m94.73 191.209-.365-.584 4.132-2.582.366.585-4.132 2.581z" fill="#fff"/>
    <path fill-rule="evenodd" clip-rule="evenodd" d="m49.025 143.215 37.44-5.946a9.187 9.187 0 0 1 5.165.679 9.172 9.172 0 0 1 5.444 8.101l1.027 32.987s-10.676-2.24-18.252 1.204l-.69-22.558c-4.577 2.083-12.507 2.524-20.542 1.721l-9.592-16.188z" fill="#1F3C88"/>
    <path fill-rule="evenodd" clip-rule="evenodd" d="M92.826 178.002h-.69c0-5.708.139-10.446.26-14.627.296-10.179.458-15.786-2.135-18.16-2.098-1.92-6.291-1.86-12.376-1.14-6.521.76-9.121-6.183-9.147-6.252l.648-.236c.097.267 2.44 6.523 8.418 5.803 6.44-.76 10.62-.79 12.922 1.317 2.826 2.586 2.67 7.967 2.359 18.689-.121 4.176-.26 8.907-.26 14.606z" fill="#3A6BEA"/>
    <path fill-rule="evenodd" clip-rule="evenodd" d="m79.861 176.084-.244-.644c.087-.033 8.82-3.283 18.459-.874l-.168.669c-9.42-2.358-17.961.817-18.047.849zM29.838 194.859c-1.072-2.145.588-11.034.659-11.412l.677.129c-.473 2.506-1.524 9.365-.72 10.976l-.616.307z" fill="#3A6BEA"/>
    <path fill-rule="evenodd" clip-rule="evenodd" d="M68.492 140.461s-2.645 5.627-8.61 9.416c-2.025 1.281-4.016 1.867-5.8 1.874-2.693.007-4.931-1.303-6.144-3.52.455-3.066 1.089-5.015 1.089-5.015l8.375-2.404 8.452-.269 2.638-.082z" fill="#102048"/>
    <path fill-rule="evenodd" clip-rule="evenodd" d="M61.768 106.542v7.972h7.806v-6.895l-7.806-1.077z" fill="#ED7545"/>
    <path fill-rule="evenodd" clip-rule="evenodd" d="M69.574 102.688h-7.806v3.854l7.806 1.077v-4.931z" fill="#F9B384"/>
    <path fill-rule="evenodd" clip-rule="evenodd" d="M64.07 103.777c.172 0 1.882 2.685 5.504 3.84l-.052-4.183-5.453.343z" fill="#102048"/>
    <path fill-rule="evenodd" clip-rule="evenodd" d="M70.493 93.158s4.304 11.596-1.263 12.342c-5.568.747-6.429-1.779-6.429-1.779l-1.722-6.143 3.846-5.166 5.568.746z" fill="#F9B384"/>
    <path fill-rule="evenodd" clip-rule="evenodd" d="M73.133 98.727a1.205 1.205 0 1 1-2.41.001 1.205 1.205 0 0 1 2.41 0z" fill="#F9B384"/>
    <path fill-rule="evenodd" clip-rule="evenodd" d="M64.638 98.67s.287-6.2 5.854-5.51c0 0-3.747-4.813-8.684-2.947-2.507.948-4.184 3.342-4.43 6.012-.317 3.449 1.698 7.382 4.51 8.071 0 0 .918-2.123 2.463-4.823l.287-.803z" fill="#102048"/>
    <path fill-rule="evenodd" clip-rule="evenodd" d="M65.969 98.38c.465.99.157 2.116-.69 2.513-.846.398-1.91-.081-2.375-1.072-.465-.99-.156-2.114.69-2.513.846-.397 1.91.082 2.375 1.072z" fill="#F9B384"/>
    <path fill-rule="evenodd" clip-rule="evenodd" d="M64.787 99.76a.173.173 0 0 1-.173-.172c0-.04-.02-1.002-1.085-1.15a.174.174 0 0 1-.147-.195.177.177 0 0 1 .194-.148c1.367.192 1.383 1.48 1.383 1.491a.173.173 0 0 1-.172.173z" fill="#102048"/>
    <path fill-rule="evenodd" clip-rule="evenodd" d="M90.87 95.167s6.02.46 9.298 4.305l-7.456 1.837-1.843-6.142z" fill="#BA5C36"/>
    <path fill-rule="evenodd" clip-rule="evenodd" d="M101.539 91.868c.028.552-1.488 3.3-2.604 5.25-.653 1.122-1.164 1.976-1.164 1.976l-4.015 1.172-2.865-4.319-.138-.213s.041-.187.117-.518v-.006c.007-.007.007-.021.014-.042.482-2.046 2.19-9.017 3.175-9.251.867-.2.358 3.616.358 3.616s2.142-6.206 3.41-5.951c1.012.2-.971 6.151-.971 6.151s.71-.744 1.426-.51c.764.255.86.972.86.972s.51-.358 1.02-.055c.51.31.461 1.274.461 1.274s.862-.407.916.454z" fill="#F9B384"/>
    <path fill-rule="evenodd" clip-rule="evenodd" d="m59.943 111.715-6.956 27.196c-2.873 1.273-5.904 1.742-8.307 1.342-2.79-.461-4.74-2.087-4.608-4.959.344-7.75 19.871-23.579 19.871-23.579z" fill="#ED7545"/>
    <path fill-rule="evenodd" clip-rule="evenodd" d="m59.42 114.742-2.204 7.635-4.229 16.533c-2.872 1.273-5.903 1.742-8.307 1.342 6.13-17.589 14.74-25.51 14.74-25.51z" fill="#BA5C36"/>
    <path fill-rule="evenodd" clip-rule="evenodd" d="M76.468 138.867c-5.683.386-23.591 15.196-27.896 5.642 0 0 .6-35.641 18.997-34.979a7.762 7.762 0 0 1 7.101 5.392c.44 1.407.882 3.238 1.226 5.594.351 2.39.613 5.325.703 8.9.075 2.755.04 5.889-.131 9.451z" fill="#ED7545"/>
    <path fill-rule="evenodd" clip-rule="evenodd" d="M76.599 129.418c-2.845-1.84-5.814-7.385-5.814-7.385l5.11-1.515c.352 2.39.614 5.325.704 8.9z" fill="#BA5C36"/>
    <path fill-rule="evenodd" clip-rule="evenodd" d="M98.935 97.117a226.101 226.101 0 0 1-1.164 1.976l-4.015 1.172-2.865-4.319-.02-.73v-.049h.013l8.051 1.95z" fill="#E28B6D"/>
    <path fill-rule="evenodd" clip-rule="evenodd" d="M67.57 109.53s8.834.619 14.172 1.653l9.127-16.016c2.788 2.23 5.885 3.67 9.299 4.305l-7.988 18.821a10.813 10.813 0 0 1-9.329 6.026l-13.679.469-1.603-15.258z" fill="#ED7545"/>
    <path fill-rule="evenodd" clip-rule="evenodd" d="M81.742 111.442a.256.256 0 0 1-.047-.004c-.168-.031-16.851-3.091-19.694-.578a.258.258 0 1 1-.342-.386c3.03-2.679 19.433.326 20.13.455a.259.259 0 0 1-.047.513z" fill="#BA5C36"/>
    <path fill-rule="evenodd" clip-rule="evenodd" d="m264.564 179.952 1.147 14.696h-19.113l9.643-6.659-.172-9.185 8.495 1.148zM292.748 173.696l5.165 12.572-13.086 11.022 1.894-12.399-2.583-8.267 8.61-2.928z" fill="#102048"/>
    <path fill-rule="evenodd" clip-rule="evenodd" d="M269.618 102.801c-.173.482-.331 1.101-.483 1.832-.254 1.274-.475 2.899-.661 4.814-.606 6.255-.861 15.547-.93 25.419-.145 22.229.697 47.385.697 47.385l-3.5-.055-8.61-.13-3.044-.048c-4.616-35.214-3.3-64.951-2.604-75.305.021-.358.048-.688.062-.998.145-1.903.241-2.914.241-2.914h18.832z" fill="#1F3C88"/>
    <path fill-rule="evenodd" clip-rule="evenodd" d="m296.018 176.969-1.749.434-9.175 2.293-5.606 1.406s-6.64-24.64-11.945-46.234c-2.548-10.416-4.794-20.121-5.826-26.012-.358-2.08-.572-3.684-.6-4.676l8.017.454 10.126.578s.247 1.454.73 4.065c1.929 10.408 7.583 39.229 16.028 67.692z" fill="#1F3C88"/>
    <path fill-rule="evenodd" clip-rule="evenodd" d="M279.992 109.276a86.86 86.86 0 0 1-11.518.171 94.872 94.872 0 0 1-6.756-.592c-5.124-.641-9.078-1.57-11.234-2.142-1.177-.316-1.818-.523-1.818-.523l1.88-.475 11.6-2.914h7.473c-.173.482-.331 1.101-.483 1.832l10.125.578s.248 1.454.731 4.065z" fill="#102048"/>
    <path fill-rule="evenodd" clip-rule="evenodd" d="M267.902 137.556c-.556-2.336-3.188-13.396-3.531-15.27l-5.324-1.996.243-.645 5.733 2.15v.239c.04.51 2.145 9.468 3.55 15.362l-.671.16zM254.386 147.637c-2.505 0-4.096-.622-4.185-.658l.255-.64c.028.012 2.837 1.1 6.81.327l.131.677a15.724 15.724 0 0 1-3.011.294zM274.327 147.152c-1.604 0-2.949-.25-3.054-.269l.129-.677c.047.009 4.705.871 6.855-.632l.396.563c-1.147.803-2.847 1.015-4.326 1.015z" fill="#3A6BEA"/>
    <path fill-rule="evenodd" clip-rule="evenodd" d="m258.729 190.33-2.697-2.066.419-.547 2.698 2.067-.42.546zM290.265 186.701l-3.674-1.492.259-.638 3.674 1.492-.259.638z" fill="#fff"/>
    <path fill-rule="evenodd" clip-rule="evenodd" d="M259.513 65.147s-11.824 1.492-14.808 14.81l3.558 15.843-1.607 10.562s16.072 1.608 32.603-1.148l-5.023-26.922-14.723-13.145z" fill="#ED7545"/>
    <path fill-rule="evenodd" clip-rule="evenodd" d="M266.86 98.9s-3.558-2.613 1.091-14.064l3.099 11.28-4.19 2.784z" fill="#6E3620"/>
    <path fill-rule="evenodd" clip-rule="evenodd" d="m252.993 84.506-.859-1.624 13.231-7.005a.756.756 0 0 1 1.023.315l.151.285a.758.758 0 0 1-.315 1.024l-13.231 7.005z" fill="#102048"/>
    <path fill-rule="evenodd" clip-rule="evenodd" d="m269.844 95.168-.351-.192-4.567-2.466-7.653-4.14c-.136-.923-.033-1.709.517-2.246l-.379-.152a2.016 2.016 0 0 1-1.197-1.487l-.015-.083c-.199-.668-.103-1.288-.041-1.633l.179-.234c.448-.585.647-.882 1.227-1.343l-.979.055s-2.41.661-1.288-.889c.772-1.074 2.5-1.984 3.485-2.438.413-.193.917-.11 1.233.22 3.314 3.438 9.14 7.557 9.14 7.557l.063.84.565 7.736.061.895z" fill="#F9B384"/>
    <path fill-rule="evenodd" clip-rule="evenodd" d="m260.815 82.007-2.086-1.019a1.13 1.13 0 0 0-.698-.1l-2.22.387-.06-.34 2.222-.385c.31-.055.625-.01.908.129l2.085 1.018-.151.31zM260.427 83.964l-2.5-.958a.977.977 0 0 0-.349-.064h-1.423v-.344h1.423c.163 0 .321.029.472.086l2.501.959-.124.32zM260.083 85.915l-2.27-.858a1.212 1.212 0 0 0-.564-.07l-.931.106-.039-.343.931-.105c.242-.028.494.003.725.09l2.269.858-.121.322zM269.784 94.273l-.29.703-4.566-2.466 3.023-7.674 1.268 1.701.565 7.736z" fill="#E28B6D"/>
    <path fill-rule="evenodd" clip-rule="evenodd" d="M266.86 98.9s6.832 6.487 12.399 6.314l-1.608-7.635-10.791 1.322z" fill="#BA5C36"/>
    <path fill-rule="evenodd" clip-rule="evenodd" d="M259.514 65.145s.841-.087 2.243-.039c13.788.472 24.35 12.336 23.677 26.116-.279 5.697-1.758 11.351-6.519 11.465l-12.054-3.788c1.136-4.264 1.985-8.685 1.091-14.064l5.596 2.669-14.034-22.359z" fill="#ED7545"/>
    <path fill-rule="evenodd" clip-rule="evenodd" d="m263.446 98.37-16.848.413-.462-1.425-6.598-20.273 16.847-.413 7.061 21.698z" fill="#D3DFFF"/>
    <path fill-rule="evenodd" clip-rule="evenodd" d="m246.136 97.36-1.694-5.207 3.574-1.805s-.027 4.656-1.88 7.012z" fill="#9DAEDB"/>
    <path fill-rule="evenodd" clip-rule="evenodd" d="M239.846 89.983c.531-1.714 1.499-3.295 2.561-4.722.338-.454 1.075-1.57 1.781-1.4 1.435.343 0 2.87 0 2.87s1.378-2.067 1.894-1.034c.517 1.033-.229 2.181-.229 2.181s2.181-1.435 1.378 1.435c0 0 1.778-.23.689 1.722-.779 1.393-1.283 2.946-2.258 4.226-.983 1.29-2.828 2.012-4.362 1.278-1.803-.864-2.033-3.17-1.811-4.926a9.67 9.67 0 0 1 .357-1.63z" fill="#F9B384"/>
    <path fill-rule="evenodd" clip-rule="evenodd" d="M242.939 89.528a.172.172 0 0 1-.158-.242l1.637-3.702a.172.172 0 1 1 .313.14l-1.635 3.702a.172.172 0 0 1-.157.102zM244.619 90.907a.171.171 0 0 1-.156-.245l1.549-3.315a.174.174 0 0 1 .229-.083c.086.04.124.143.084.23l-1.551 3.314a.171.171 0 0 1-.155.1zM245.91 92.026a.171.171 0 0 1-.151-.253l1.334-2.54a.172.172 0 0 1 .305.16l-1.336 2.54a.17.17 0 0 1-.152.093z" fill="#E28B6D"/>
    <path fill-rule="evenodd" clip-rule="evenodd" d="M251.478 78.178h-6.027l-1.034-2.067h6.027l1.034 2.067z" fill="#102048"/>
    <path fill-rule="evenodd" clip-rule="evenodd" d="M259.349 71.875c-1.787 0-2.962-.884-2.979-.898a.258.258 0 1 1 .315-.409c.099.075 2.436 1.814 5.565-.074a.258.258 0 1 1 .265.443c-1.166.705-2.247.938-3.166.938zM266.861 99.159a.258.258 0 0 1-.247-.332c2.476-8.387 1.102-13.87 1.088-13.926l-.1-.385 10.667 1.788a.258.258 0 0 1 .211.297.26.26 0 0 1-.297.212l-9.9-1.66c.264 1.403.97 6.56-1.173 13.82a.26.26 0 0 1-.249.186z" fill="#BA5C36"/>
    <path fill-rule="evenodd" clip-rule="evenodd" d="M274.667 86.128h-.015a.26.26 0 0 1-.244-.274c.004-.056.289-5.612-3.571-11.32a.257.257 0 0 1 .069-.359.259.259 0 0 1 .359.07c3.963 5.86 3.663 11.583 3.66 11.64a.259.259 0 0 1-.258.243z" fill="#BA5C36"/>
    <path fill-rule="evenodd" clip-rule="evenodd" d="M264.249 58.808v6.647c0 2.145-1.672 3.883-3.736 3.883-2.063 0-3.734-1.738-3.734-3.883v-6.647h7.47z" fill="#F9B384"/>
    <path fill-rule="evenodd" clip-rule="evenodd" d="M260.719 59.693s-.388 4.108-3.94 5.296v-5.835l3.94.54z" fill="#102048"/>
    <path fill-rule="evenodd" clip-rule="evenodd" d="M253.959 51.23s-1.158 9.323 2.477 10.43c3.634 1.106 6.952-2.108 6.952-2.108l-.684-7.691-5.374-3.16-3.371 2.528z" fill="#F9B384"/>
    <path fill-rule="evenodd" clip-rule="evenodd" d="m274.638 69.352-7.17.475c-.907-1-1.42-2.403-1.756-3.989-.302 1.632-.064 2.987.737 4.058l-1.943.13c-1.721-2.576-3.167-8.28-1.459-13.156l.199-1.15s-1.227-3.713-3.002-3.872c0 0-6.096 4.112-8.811-.475-2.025-3.417-.316-7.908 4.553-4.595 0 0 11.702-5.49 11.675 5.766-.007 2.018.751 4.002 2.246 5.352.124.124.262.241.406.351 2.625 2.08 5.455 6.228 4.325 11.105z" fill="#102048"/>
    <path fill-rule="evenodd" clip-rule="evenodd" d="M265.07 56.307c-.346 1.074-1.371 1.705-2.29 1.409-.921-.297-1.384-1.408-1.038-2.482.347-1.074 1.371-1.705 2.292-1.409.918.296 1.382 1.407 1.036 2.482z" fill="#F9B384"/>
    <path fill-rule="evenodd" clip-rule="evenodd" d="M0 194.993h306.81v-.687H0v.687z" fill="#102048"/>
</svg>
