<svg width="24" height="30" viewBox="0 0 24 30" xmlns="http://www.w3.org/2000/svg">
    <g fill="#FFF" fill-rule="nonzero">
        <path d="M11.836 4.391c.425 0 .772.29.772.646a.586.586 0 0 0 1.171 0c0-.811-.571-1.5-1.357-1.733v-.081a.586.586 0 0 0-1.172 0v.081c-.786.233-1.358.922-1.358 1.733 0 1.003.872 1.818 1.944 1.818.425 0 .772.29.772.646 0 .357-.347.647-.772.647-.426 0-.772-.29-.772-.647a.586.586 0 0 0-1.172 0c0 .812.572 1.5 1.358 1.734v.081a.586.586 0 0 0 1.172 0v-.081c.786-.233 1.357-.922 1.357-1.733 0-1.003-.871-1.818-1.943-1.818-.426 0-.772-.29-.772-.646 0-.357.346-.647.772-.647z"/>
        <path d="M23.086 16.068h-2.678a6.298 6.298 0 0 0-6.291 6.291v2.435l-1.695 1.696V12.51a6.278 6.278 0 0 0 5.366-8.216.586.586 0 0 0-1.112.369 5.103 5.103 0 0 1-4.84 6.703A5.103 5.103 0 0 1 6.738 6.27 5.103 5.103 0 0 1 13.352 1.4.586.586 0 0 0 13.7.282 6.277 6.277 0 0 0 5.566 6.27c0 3.259 2.5 5.945 5.684 6.241v8.926l-1.695-1.695v-2.435a6.298 6.298 0 0 0-6.291-6.291H.586a.586.586 0 0 0-.586.586v2.678a6.298 6.298 0 0 0 6.291 6.29h2.435l2.524 2.524v5.734H5.381a.586.586 0 0 0 0 1.172h12.91a.586.586 0 0 0 0-1.172h-5.87v-.681l2.525-2.524h2.435a6.298 6.298 0 0 0 6.29-6.29v-2.679a.586.586 0 0 0-.585-.586zM6.29 19.398a5.125 5.125 0 0 1-5.12-5.118v-2.092h2.093a5.125 5.125 0 0 1 5.12 5.119v1.263l-2.588-2.587a.586.586 0 0 0-.83.828L7.555 19.4H6.291zm16.209-.066a5.125 5.125 0 0 1-5.12 5.12h-1.262l2.587-2.588a.586.586 0 0 0-.829-.829l-2.587 2.588v-1.264a5.125 5.125 0 0 1 5.119-5.119H22.5v2.092z"/>
        <path d="M15.843 2.824a.59.59 0 0 0 .586-.586.59.59 0 0 0-.586-.586.59.59 0 0 0-.586.586.59.59 0 0 0 .586.586z"/>
    </g>
</svg>
