<svg width="56" height="55" viewBox="0 0 56 55" xmlns="http://www.w3.org/2000/svg">
    <g fill="#BA8941" fill-rule="nonzero" opacity=".9">
        <path d="M18.75 32.795a.637.637 0 1 0 0-1.274.637.637 0 0 0 0 1.274z"/>
        <path d="M18.75 33.218a1.06 1.06 0 1 1 1.05-1.059 1.032 1.032 0 0 1-1.05 1.06zM24.494 32.795a.637.637 0 1 0 0-1.274.637.637 0 0 0 0 1.274z"/>
        <path d="M24.494 33.218a1.06 1.06 0 1 1 1.049-1.059 1.032 1.032 0 0 1-1.05 1.06zM30.237 32.795a.637.637 0 1 0 0-1.274.637.637 0 0 0 0 1.274z"/>
        <path d="M30.237 33.218a1.06 1.06 0 1 1 1.05-1.059 1.032 1.032 0 0 1-1.05 1.06zM35.98 32.795a.637.637 0 1 0 0-1.274.637.637 0 0 0 0 1.274z"/>
        <path d="M35.98 33.218a1.06 1.06 0 1 1 1.048-1.059 1.032 1.032 0 0 1-1.049 1.06zM33.515 39.791a.637.637 0 1 0 0-1.274.637.637 0 0 0 0 1.274z"/>
        <path d="M33.515 40.214a1.06 1.06 0 1 1 1.05-1.06 1.032 1.032 0 0 1-1.05 1.06zM21.695 39.791a.637.637 0 1 0 0-1.274.637.637 0 0 0 0 1.274z"/>
        <path d="M21.695 40.214a1.06 1.06 0 1 1 1.049-1.06 1.032 1.032 0 0 1-1.05 1.06zM13.362 4.56V1.07a.662.662 0 0 0-.627-.648.65.65 0 0 0-.648.648V4.58c.01.355.294.64.648.649a.638.638 0 0 0 .649-.649l-.022-.02z"/>
        <path d="M12.735 5.649a1.085 1.085 0 0 1-1.07-1.071V1.07c0-.591.479-1.07 1.07-1.07.58.02 1.041.49 1.05 1.07v3.312l.02.02v.17a1.06 1.06 0 0 1-1.07 1.076zm0-4.803a.228.228 0 0 0-.225.225V4.58c.01.12.105.217.225.226a.218.218 0 0 0 .204-.122V1.07a.244.244 0 0 0-.204-.225zM9.518 9.3h6.413a.637.637 0 1 0 0-1.275H9.518a.637.637 0 1 0 0 1.274z"/>
        <path d="M15.93 9.722H9.519a1.06 1.06 0 1 1 0-2.12h6.413a1.06 1.06 0 1 1 0 2.12zM9.519 8.448a.215.215 0 0 0 0 .428h6.413a.215.215 0 0 0 0-.428H9.518zM8.495 19.658h8.461a.637.637 0 1 0 0-1.274H8.495a.637.637 0 0 0 0 1.274z"/>
        <path d="M16.953 20.076H8.49a1.06 1.06 0 1 1 0-2.12h8.462a1.06 1.06 0 1 1 0 2.12zM8.49 18.802a.215.215 0 0 0 0 .428h8.462a.215.215 0 0 0 0-.428H8.49zM8.642 36.01h8.461a.637.637 0 1 0 0-1.274H8.642a.637.637 0 0 0 0 1.275z"/>
        <path d="M17.103 36.434H8.642a1.06 1.06 0 0 1 0-2.12h8.461a1.06 1.06 0 1 1 0 2.12zm-8.461-1.275a.215.215 0 0 0 0 .429h8.461a.215.215 0 0 0 0-.429H8.642zM8.642 29.285h8.461a.637.637 0 1 0 0-1.274H8.642a.637.637 0 0 0 0 1.274z"/>
        <path d="M17.103 29.708H8.642a1.06 1.06 0 0 1 0-2.12h8.461a1.06 1.06 0 1 1 0 2.12zm-8.461-1.274a.215.215 0 0 0 0 .428h8.461a.215.215 0 0 0 0-.428H8.642z"/>
        <path d="M16.223 53.26H9.227l.648.648c.543-12.781 1.093-25.57 1.65-38.364.17-3.655.314-7.31.481-10.965l-.648.649h2.633l-.648-.649 1.755 38.365.508 10.964c.042.814 1.315.836 1.274 0-.591-12.781-1.18-25.57-1.763-38.364l-.508-10.965a.638.638 0 0 0-.648-.648h-2.625a.665.665 0 0 0-.648.648 34930.58 34930.58 0 0 1-1.65 38.365c-.17 3.655-.313 7.31-.48 10.964.008.355.293.64.647.649h6.998a.637.637 0 1 0 0-1.275l.02-.022z"/>
        <path d="M16.203 54.978H9.207a1.085 1.085 0 0 1-1.071-1.071v-.019c.083-1.826.169-3.684.24-5.481.071-1.797.157-3.656.24-5.483.271-6.392.554-12.899.826-19.191.273-6.292.554-12.785.824-19.174.022-.579.49-1.04 1.07-1.053h2.631a1.06 1.06 0 0 1 1.072 1.06l2.254 49.322a.968.968 0 0 1-.62.987c-.147.07-.307.104-.47.103zm-5.915-.846h4.908a1.102 1.102 0 0 1-.029-.203l-.012-.246h-4.848l-.019.449zm-1.306-.218c.012.117.106.209.223.218H9.5l-.508-.508-.01.29zm6.99-1.078h.426L14.242 5.657h-.42l2.15 47.179zm-5.63 0h4.783L12.967 5.657h-.587c-.067 1.467-.13 2.94-.193 4.42-.078 1.798-.157 3.658-.24 5.486-.27 6.39-.554 12.893-.824 19.182-.258 5.931-.516 12.06-.779 18.092l-.001-.001zm-.846 0c.258-6.045.523-12.185.78-18.13.273-6.289.554-12.792.825-19.182.083-1.83.169-3.688.24-5.485l.191-4.4h-.465c-.257 6.045-.523 12.184-.78 18.121-.273 6.292-.554 12.797-.826 19.19-.083 1.828-.17 3.687-.24 5.484-.061 1.44-.126 2.92-.192 4.4l.467.002zM46.004 53.26h-6.996l.649.648c.542-12.781 1.092-25.57 1.65-38.364.169-3.655.313-7.31.48-10.965l-.648.649h2.632l-.649-.649 1.755 38.365.508 10.964c.042.814 1.315.836 1.274 0l-1.755-38.364-.507-10.965a.638.638 0 0 0-.648-.648h-2.632a.665.665 0 0 0-.648.648c-.543 12.782-1.093 25.57-1.65 38.365-.17 3.655-.313 7.31-.48 10.964.008.355.293.64.647.649h6.996a.637.637 0 1 0 0-1.275l.022-.022z"/>
        <path d="M45.984 54.978h-6.996a1.085 1.085 0 0 1-1.071-1.071v-.019c.083-1.828.17-3.686.24-5.483.071-1.797.158-3.654.24-5.481.271-6.39.554-12.892.825-19.183.27-6.29.556-12.79.826-19.18.021-.579.49-1.04 1.07-1.053h2.63a1.06 1.06 0 0 1 1.072 1.06l2.254 49.32a.968.968 0 0 1-.62.987c-.146.07-.307.104-.47.103zm-5.914-.846h4.907a1.102 1.102 0 0 1-.029-.203l-.011-.246h-4.849l-.018.449zm-1.307-.218c.012.117.106.209.223.218h.295l-.508-.508-.01.29zm6.99-1.078h.426L44.023 5.657h-.427l2.156 47.179zm-5.63 0h4.783L42.748 5.657h-.587c-.066 1.467-.13 2.941-.193 4.422-.078 1.798-.157 3.656-.24 5.484-.27 6.39-.553 12.893-.824 19.182-.257 5.931-.523 12.06-.787 18.092l.007-.001zm-.845 0c.257-6.045.522-12.185.78-18.13.272-6.289.553-12.792.824-19.182.083-1.828.17-3.686.24-5.482l.191-4.4h-.465c-.257 6.047-.523 12.185-.78 18.13-.273 6.288-.554 12.792-.824 19.182-.083 1.828-.17 3.684-.24 5.48-.063 1.442-.126 2.922-.192 4.4l.466.002z"/>
        <path d="M43.151 4.56V1.07a.665.665 0 0 0-.655-.648.638.638 0 0 0-.648.648V4.58c.01.355.294.64.648.649a.638.638 0 0 0 .648-.649l.007-.02z"/>
        <path d="M42.496 5.649a1.085 1.085 0 0 1-1.07-1.071V1.07a1.06 1.06 0 0 1 1.07-1.07 1.085 1.085 0 0 1 1.072 1.07V4.58a1.06 1.06 0 0 1-1.072 1.07zm0-4.803a.215.215 0 0 0-.225.225V4.58c.01.12.105.217.225.226a.215.215 0 0 0 .225-.226V1.071a.244.244 0 0 0-.225-.225zM39.28 9.3h6.411a.637.637 0 0 0 0-1.275H39.28a.637.637 0 0 0 0 1.274z"/>
        <path d="M45.691 9.722H39.28a1.06 1.06 0 1 1 0-2.12h6.412a1.06 1.06 0 1 1 0 2.12zM39.28 8.448a.215.215 0 0 0 0 .428h6.412a.215.215 0 0 0 0-.428H39.28zM38.277 19.658h8.462a.637.637 0 0 0 0-1.274h-8.462a.637.637 0 1 0 0 1.274z"/>
        <path d="M46.736 20.076h-8.462a1.06 1.06 0 0 1 0-2.12h8.462a1.06 1.06 0 1 1 0 2.12zm-8.462-1.274a.215.215 0 0 0 0 .428h8.462a.215.215 0 0 0 0-.428h-8.462zM15.783 36.01h31.078a.637.637 0 1 0 0-1.274H15.783a.637.637 0 0 0 0 1.275z"/>
        <path d="M46.86 36.434H15.784a1.06 1.06 0 0 1 0-2.12h31.078a1.06 1.06 0 1 1 0 2.12zm-31.077-1.275a.215.215 0 0 0 0 .429h31.078a.215.215 0 0 0 0-.429H15.783zM54.17 53.262H1.06a.637.637 0 0 0 0 1.274H54.2a.637.637 0 0 0 0-1.274h-.03z"/>
        <path d="M1.06 52.839H54.2a1.06 1.06 0 1 1 0 2.12H1.06a1.06 1.06 0 1 1 0-2.12zM54.2 54.113a.215.215 0 0 0 0-.428H1.06a.215.215 0 0 0 0 .428H54.2zM16.369 29.285H46.86a.637.637 0 0 0 0-1.274H16.369a.637.637 0 0 0 0 1.274z"/>
        <path d="M46.86 29.708H16.37a1.06 1.06 0 1 1 0-2.12H46.86a1.06 1.06 0 1 1 0 2.12zM16.37 28.434a.215.215 0 0 0 0 .428H46.86a.215.215 0 0 0 0-.428H16.369zM14.907 24.608h25.396a.637.637 0 1 0 0-1.274H14.907a.637.637 0 0 0 0 1.274z"/>
        <path d="M40.303 25.031H14.907a1.06 1.06 0 0 1 0-2.12h25.396a1.06 1.06 0 1 1 0 2.12zm-25.396-1.274a.215.215 0 0 0 0 .428h25.396a.215.215 0 0 0 0-.428H14.907zM32.657 42.991v10.923l.648-.649h-11.38l.648.649V42.99l-.313.564c1.9-1.015 3.8-2.068 5.701-3.09h-.648c1.9 1.015 3.8 2.068 5.701 3.09.731.396 1.378-.71.648-1.107a195.082 195.082 0 0 0-3.09-1.67c-.523-.27-1.015-.564-1.545-.836-.375-.208-.919-.669-1.379-.669-.46 0-.899.396-1.252.606-.564.293-1.107.606-1.67.899a195.083 195.083 0 0 1-3.09 1.67.658.658 0 0 0-.314.564v10.922c.001.357.29.647.648.648h11.383a.65.65 0 0 0 .648-.648V43.007a.637.637 0 1 0-1.274 0l-.07-.016z"/>
        <path d="M27.646 38.845c.471.056.917.242 1.288.537.107.07.208.135.291.182.264.138.525.281.777.42.252.139.508.28.763.413 1.058.562 2.1 1.125 3.1 1.675.07.038.134.082.193.132.236.2.369.494.361.803v10.922c0 .591-.48 1.071-1.071 1.071H21.967c-.592 0-1.071-.48-1.071-1.071V43.007c-.003-.384.2-.74.531-.935A212.642 212.642 0 0 0 24.52 40.4h.01c.278-.143.557-.296.828-.445.27-.149.55-.3.832-.448.073-.042.154-.098.24-.157.347-.286.77-.462 1.217-.505zm4.908 3.47c-.712-.388-1.442-.78-2.176-1.17-.263-.137-.525-.28-.779-.421-.254-.14-.507-.28-.763-.413h-.01c-.11-.061-.225-.137-.347-.217a2.119 2.119 0 0 0-.826-.4c-.274.055-.53.178-.744.358-.102.07-.197.134-.295.191l-.02.01c-.278.144-.557.296-.828.445-.27.15-.555.303-.846.452-.628.339-1.273.697-1.927 1.05v.477l1.915-1.04 1.838-.998.482-.26.085-.339h.648l.085.338.482.261 1.838.999 1.872 1.015v-.254l.204.068c.031-.054.067-.105.107-.153h.005zm-.311 1.294c-.758-.41-1.517-.821-2.276-1.235-.76-.414-1.534-.835-2.324-1.261-.775.419-1.55.839-2.324 1.26-.774.423-1.546.842-2.316 1.258v9.205h9.241l-.001-9.227zm-10.493 0 .588-1.058-.511.271a.245.245 0 0 0-.088.19l.011.597zm11.588.449c-.084 0-.167-.01-.248-.03v8.81h.491v-8.81c-.08.02-.164.03-.247.03h.004zm-11.19 8.78v-8.75l-.406.218v8.53l.406.001zm10.088.845h-9.242v.478h9.242v-.478z"/>
    </g>
</svg>
