<svg width="55" height="52" viewBox="0 0 55 52" xmlns="http://www.w3.org/2000/svg">
    <g fill="#919757" fill-rule="nonzero">
        <path d="M17.253 52H52.93a.704.704 0 0 0 .684-.684v-24.7a.686.686 0 0 0-1.368 0v24.7l.684-.684H17.253a.686.686 0 0 0 0 1.368z"/>
        <path d="M23.007 51.272V12.62a12.805 12.805 0 0 1 0-2.395c.256-1.24 3.016-5.584 4.407-5.327 1.069.192 2.481 2.332 3.016 3.186A7.312 7.312 0 0 1 31.54 12c.3 6.524 0 13.112 0 19.636v19.637a.686.686 0 0 0 1.368 0V16.471c.197-2.142.19-4.298-.02-6.438a12.113 12.113 0 0 0-5.22-6.61.65.65 0 0 0-.684 0c-2.631 1.754-5.327 4.6-5.327 7.915v39.934a.686.686 0 0 0 1.368 0h-.02zM46.77 51.103V26.461a12.295 12.295 0 0 1 0-1.776 6.93 6.93 0 0 1 3.103-3.657h-.684a7.093 7.093 0 0 1 2.652 2.738 8.383 8.383 0 0 1 .406 3.72v23.617a.686.686 0 0 0 1.368 0V28.686a21.87 21.87 0 0 0-.02-4.428 8.125 8.125 0 0 0-3.701-4.428.65.65 0 0 0-.684 0c-1.797 1.111-3.786 3.037-3.786 5.304V51.1a.686.686 0 0 0 1.368 0l-.021.002z"/>
        <path d="M41.124 41.434v-20.15a11.001 11.001 0 0 1 0-1.462c.042-.325-.064.042.128-.325a6.474 6.474 0 0 1 2.353-2.568h-.684a5.465 5.465 0 0 1 2.113 2.183 7.04 7.04 0 0 1 .325 2.995v19.327a.686.686 0 0 0 1.368 0v-18.31a17.415 17.415 0 0 0-.021-3.658 6.825 6.825 0 0 0-3.088-3.7.65.65 0 0 0-.684 0 5.923 5.923 0 0 0-3.157 4.428v21.22a.686.686 0 0 0 1.368 0l-.021.02z"/>
        <path d="M32.911 47.294V17.157a8.612 8.612 0 0 1 0-1.819c.236-1.005 2.275-3.9 3.359-3.956.62-.043 1.69 1.24 2.054 1.69a5.81 5.81 0 0 1 1.433 3.72c.257 5.048 0 10.204 0 15.251v15.251a.686.686 0 0 0 1.368 0V20.407c.175-1.75.168-3.514-.02-5.262a9.615 9.615 0 0 0-4.388-5.24.65.65 0 0 0-.684 0c-2.113 1.325-4.47 3.574-4.47 6.246v31.143a.686.686 0 0 0 1.368 0h-.02z"/>
        <path d="M23.007 21.861a12.805 12.805 0 0 1 0-2.395c.256-1.24 3.016-5.584 4.407-5.327 1.069.192 2.481 2.332 3.016 3.187a7.312 7.312 0 0 1 1.111 3.914c.3 6.525 0 13.113 0 19.637v10.588h.236c.38 0 .76.02 1.137.064V25.712c.196-2.143.188-4.3-.024-6.441a12.113 12.113 0 0 0-5.22-6.609.65.65 0 0 0-.684 0c-2.63 1.753-5.326 4.599-5.326 7.914v30.91c.448 0 .92 0 1.368.043V21.84l-.021.021zM46.77 51.272V34.567a12.295 12.295 0 0 1 0-1.776 6.565 6.565 0 0 1 2.763-3.422 6.651 6.651 0 0 1 2.31 2.502 8.383 8.383 0 0 1 .407 3.721v15.763c.449 0 .899-.042 1.368-.042v-14.5a21.873 21.873 0 0 0-.02-4.428 8.125 8.125 0 0 0-3.7-4.428.65.65 0 0 0-.685 0c-1.797 1.111-3.786 3.037-3.786 5.303v17.97c.448 0 .92.042 1.368.042h-.024z"/>
        <path d="M41.124 51.551v-19.08a11.001 11.001 0 0 1 0-1.463c.042-.325-.064.043.128-.325a6.597 6.597 0 0 1 2.031-2.31 5.59 5.59 0 0 1 1.754 1.925 6.72 6.72 0 0 1 .325 2.995v18.3a15.5 15.5 0 0 1 1.027-.042h.343V34.29a17.415 17.415 0 0 0-.021-3.658 6.825 6.825 0 0 0-3.088-3.7.65.65 0 0 0-.684 0 5.923 5.923 0 0 0-3.162 4.428v20.235c.411-.05.825-.08 1.24-.086h.128l-.021.043z"/>
        <path d="M32.911 25.285a8.612 8.612 0 0 1 0-1.818c.236-1.006 2.275-3.9 3.359-3.957.62-.043 1.69 1.24 2.054 1.69a5.81 5.81 0 0 1 1.433 3.721c.257 5.047 0 10.203 0 15.25v11.265c.45-.104.908-.176 1.368-.214V28.535c.175-1.75.168-3.513-.02-5.262a9.615 9.615 0 0 0-4.388-5.24.65.65 0 0 0-.684 0c-2.113 1.326-4.47 3.575-4.47 6.246v27.186h.228c.38 0 .76.02 1.138.064V25.285h-.018z"/>
        <path d="M23.007 33.883a12.805 12.805 0 0 1 0-2.395c.256-1.24 3.016-5.584 4.407-5.327 1.069.192 2.481 2.332 3.016 3.186a7.312 7.312 0 0 1 1.111 3.915c.278 6.032.042 12.15 0 18.2h.215c.38 0 .76.02 1.137.063V37.73c.196-2.142.19-4.297-.02-6.438a12.113 12.113 0 0 0-5.22-6.609.65.65 0 0 0-.685 0c-2.63 1.754-5.326 4.599-5.326 7.914v18.866c.448 0 .92 0 1.368.042V33.86l-.003.023z"/>
        <path d="M32.911 34.245a8.612 8.612 0 0 1 0-1.818c.236-1.006 2.275-3.9 3.359-3.957.62-.042 1.69 1.24 2.054 1.69a5.81 5.81 0 0 1 1.433 3.721c.257 5.047 0 10.204 0 15.25v2.334c.45-.104.908-.176 1.368-.214V37.518c.175-1.75.168-3.513-.02-5.262a9.615 9.615 0 0 0-4.388-5.24.65.65 0 0 0-.684 0c-2.113 1.326-4.47 3.575-4.47 6.246v18.22h.228c.38-.001.76.02 1.138.063V34.268l-.018-.023z"/>
        <path d="M39.756 15.444v35.85a.686.686 0 0 0 1.368 0v-35.85a.686.686 0 0 0-1.368 0z"/>
        <path d="M18.023 39.657h35.85a.686.686 0 0 0 0-1.369h-35.85a.686.686 0 0 0 0 1.369zM42.515 43.552v3.53c.06.368.4.623.77.576.427-.021.77-.257.77-.577v-3.53a.692.692 0 0 0-.77-.576c-.427.02-.77.256-.77.577zM42.515 32.365v3.53c.06.368.4.623.77.576.427-.02.77-.256.77-.576v-3.53a.692.692 0 0 0-.77-.577c-.427.021-.77.257-.77.577zM42.515 21.177v3.53c.06.368.4.623.77.576.427-.02.77-.256.77-.577v-3.529a.692.692 0 0 0-.77-.577c-.427.021-.77.257-.77.577zM26.601.684V4a.689.689 0 0 0 .684.684A.704.704 0 0 0 27.97 4V.684A.689.689 0 0 0 27.285 0a.704.704 0 0 0-.684.684zM35.65 7.166v3.315a.689.689 0 0 0 .683.684.704.704 0 0 0 .684-.684V7.166a.689.689 0 0 0-.684-.684.704.704 0 0 0-.684.684zM48.825 18.203v2.225a.689.689 0 0 0 .684.684.704.704 0 0 0 .684-.684v-2.225a.689.689 0 0 0-.684-.684.704.704 0 0 0-.684.684z"/>
        <path d="M45.402 20.043v31.253a.686.686 0 0 0 1.369 0V20.043a.686.686 0 0 0-1.369 0zM23.03 46.932c0-.985.727-2.925 2.053-2.139.327.18.738.078.941-.236.236-.534.621-1.155 1.284-1.155s1.048.62 1.284 1.155a.67.67 0 0 0 .94.236c1.3-.812 2.032 1.177 2.055 2.139a.686.686 0 0 0 1.368 0 4.113 4.113 0 0 0-1.177-2.995 2.364 2.364 0 0 0-2.925-.343l.941.236a2.792 2.792 0 0 0-2.46-1.84 2.792 2.792 0 0 0-2.46 1.84l.94-.236c-.94-.56-2.139-.42-2.924.343a4.132 4.132 0 0 0-1.156 2.974.686.686 0 0 0 1.369 0l-.074.02z"/>
        <path d="M32.846 46.29c0-.75.577-2.096 1.54-1.562a.692.692 0 0 0 .941-.236c.192-.406.488-.833.985-.833s.792.427.983.834c.196.324.616.429.941.235.962-.556 1.54.834 1.54 1.562a.686.686 0 0 0 1.369 0 3.378 3.378 0 0 0-1.027-2.46 2.194 2.194 0 0 0-2.568-.278l.941.235a2.296 2.296 0 0 0-4.32 0l.94-.235a2.231 2.231 0 0 0-2.588.278 3.31 3.31 0 0 0-1.027 2.46.684.684 0 0 0 1.368 0h-.018zM46.77 46.117c0-.6.428-1.561 1.091-1.197a.692.692 0 0 0 .94-.236c.13-.299.344-.642.706-.642.363 0 .577.325.705.642.196.324.616.43.941.236.663-.385 1.09.6 1.09 1.197a.686.686 0 0 0 1.369 0 2.842 2.842 0 0 0-.878-2.112 1.939 1.939 0 0 0-2.275-.257l.941.236a2.112 2.112 0 0 0-1.881-1.3 2.156 2.156 0 0 0-1.882 1.3l.94-.236a1.903 1.903 0 0 0-2.274.257 2.89 2.89 0 0 0-.878 2.112.686.686 0 0 0 1.368 0h-.022z"/>
        <rect x="26.344" y="45.968" width="2.267" height="3.231" rx=".37"/>
        <rect x="26.344" y="32.193" width="2.267" height="3.231" rx=".37"/>
        <rect x="35.199" y="32.835" width="2.267" height="3.231" rx=".37"/>
        <rect x="48.376" y="32.835" width="2.267" height="3.231" rx=".37"/>
        <rect x="48.696" y="24.13" width="1.625" height="2.311" rx=".37"/>
        <rect x="35.199" y="22.781" width="2.267" height="3.231" rx=".37"/>
        <rect x="35.199" y="13.754" width="2.267" height="3.231" rx=".37"/>
        <rect x="26.344" y="19.958" width="2.267" height="3.231" rx=".37"/>
        <rect x="26.344" y="7.722" width="2.267" height="3.231" rx=".37"/>
        <rect x="35.136" y="45.968" width="2.416" height="3.231" rx=".37"/>
        <rect x="48.29" y="45.968" width="2.416" height="3.231" rx=".37"/>
        <path d="M37.258 50.63H1.575l.684.684v-24.7a.686.686 0 0 0-1.369 0v24.7c.01.374.311.674.685.684h35.683a.686.686 0 0 0 0-1.368z"/>
        <path d="M32.867 51.272V12.064c.054-.62.054-1.242 0-1.86C32.42 7.44 29.744 4.876 27.54 3.4a.65.65 0 0 0-.684 0 12.025 12.025 0 0 0-5.22 6.609 34.057 34.057 0 0 0-.02 6.438v34.824a.686.686 0 0 0 1.368 0V16.45c0-2.503-.488-5.56.791-7.83a11.911 11.911 0 0 1 2.547-3.123c.364-.325.62-.62 1.09-.555.514.063 1.797 1.561 2.16 2.03a6.705 6.705 0 0 1 1.95 4.62v39.68a.686.686 0 0 0 1.368 0h-.023zM9.105 51.101V25.626a7 7 0 0 0-3.786-5.775.65.65 0 0 0-.685 0 8.032 8.032 0 0 0-3.7 4.428 21.863 21.863 0 0 0-.02 4.428v22.394a.686.686 0 0 0 1.367 0V27.487a8.383 8.383 0 0 1 .407-3.721 7.093 7.093 0 0 1 2.652-2.738h-.684a7.345 7.345 0 0 1 3.102 3.529c.042.448.042.9 0 1.347v25.197a.686.686 0 0 0 1.368 0h-.021z"/>
        <path d="M14.75 41.434V20.6a5.876 5.876 0 0 0-3.165-4.834.65.65 0 0 0-.685 0 6.653 6.653 0 0 0-3.087 3.7 18.977 18.977 0 0 0-.021 3.658v18.31a.686.686 0 0 0 1.368 0V22.12a6.752 6.752 0 0 1 .325-2.995 5.473 5.473 0 0 1 2.113-2.183h-.676a6.393 6.393 0 0 1 2.136 2.14c.064.087.407.834.343.556v.063c.032.37.032.742 0 1.112v20.6a.686.686 0 0 0 1.369 0l-.02.021z"/>
        <path d="M22.943 47.294V16.728a8.239 8.239 0 0 0-4.47-6.803.65.65 0 0 0-.684 0 9.456 9.456 0 0 0-4.388 5.241 27.017 27.017 0 0 0-.02 5.262v26.887a.686.686 0 0 0 1.367 0v-27.25c0-2.03-.364-4.342.792-6.118.302-.45 1.864-2.63 2.587-2.61.723.022 2.096 1.798 2.502 2.375a3.868 3.868 0 0 1 .962 2.717v30.865a.686.686 0 0 0 1.369 0h-.017z"/>
        <path d="M31.499 21.861c.075-.797.075-1.598 0-2.395-.257-1.24-3.016-5.584-4.407-5.327-1.07.192-2.481 2.332-3.016 3.187a7.312 7.312 0 0 0-1.112 3.914c-.299 6.525 0 13.113 0 19.637v10.588h-.235c-.38 0-.76.02-1.138.064V25.712c-.195-2.143-.186-4.3.026-6.441a12.113 12.113 0 0 1 5.22-6.609.65.65 0 0 1 .684 0c2.63 1.753 5.327 4.599 5.327 7.914v30.91c-.449 0-.92 0-1.369.043V21.84l.02.021zM7.735 51.272V34.567c.043-.591.043-1.185 0-1.776a6.565 6.565 0 0 0-2.763-3.422 6.651 6.651 0 0 0-2.31 2.502 8.383 8.383 0 0 0-.407 3.721v15.763c-.448 0-.898-.042-1.368-.042v-14.5a21.87 21.87 0 0 1 .021-4.428 8.125 8.125 0 0 1 3.7-4.428.65.65 0 0 1 .685 0c1.797 1.111 3.786 3.037 3.786 5.303v17.97c-.449 0-.92.042-1.368.042h.024z"/>
        <path d="M13.377 51.551v-19.08c.032-.487.032-.976 0-1.463-.042-.325.063.043-.128-.325a6.597 6.597 0 0 0-2.027-2.296 5.59 5.59 0 0 0-1.753 1.926 6.72 6.72 0 0 0-.325 2.995v18.286a15.5 15.5 0 0 0-1.027-.043h-.338V34.29a17.415 17.415 0 0 1 .02-3.658 6.825 6.825 0 0 1 3.088-3.7.65.65 0 0 1 .685 0 5.923 5.923 0 0 1 3.165 4.428v20.235c-.411-.05-.825-.08-1.24-.086h-.136l.016.043z"/>
        <path d="M21.595 25.285a8.612 8.612 0 0 0 0-1.818c-.236-1.006-2.275-3.9-3.36-3.957-.62-.043-1.69 1.24-2.053 1.69a5.81 5.81 0 0 0-1.434 3.721c-.256 5.047 0 10.203 0 15.25v11.265a9.607 9.607 0 0 0-1.368-.214V28.535a25.438 25.438 0 0 1 .021-5.262 9.615 9.615 0 0 1 4.388-5.24.65.65 0 0 1 .684 0c2.112 1.326 4.47 3.575 4.47 6.246v27.186h-.235c-.38 0-.76.02-1.138.064V25.285h.025z"/>
        <path d="M31.499 33.883c.075-.797.075-1.599 0-2.395-.257-1.24-3.016-5.584-4.407-5.327-1.07.192-2.481 2.332-3.016 3.186a7.312 7.312 0 0 0-1.112 3.915c-.277 6.032-.042 12.15 0 18.2h-.214c-.38 0-.76.02-1.138.063V37.73a34.063 34.063 0 0 1 .022-6.438 12.113 12.113 0 0 1 5.22-6.609.65.65 0 0 1 .683 0c2.631 1.754 5.327 4.599 5.327 7.914v18.866c-.449 0-.92 0-1.368.042V33.86l.003.023z"/>
        <path d="M21.595 34.245a8.612 8.612 0 0 0 0-1.818c-.236-1.006-2.275-3.9-3.36-3.957-.62-.042-1.69 1.24-2.053 1.69a5.81 5.81 0 0 0-1.434 3.721c-.256 5.047 0 10.204 0 15.25v2.334a9.607 9.607 0 0 0-1.368-.214V37.518a25.438 25.438 0 0 1 .021-5.262 9.615 9.615 0 0 1 4.388-5.24.65.65 0 0 1 .684 0c2.112 1.326 4.47 3.575 4.47 6.246v18.22h-.235c-.38-.001-.76.02-1.138.063V34.268l.025-.023z"/>
        <path d="M13.382 15.444v35.85a.686.686 0 0 0 1.368 0v-35.85a.686.686 0 0 0-1.368 0z"/>
        <path d="M36.484 38.288H.64a.686.686 0 0 0 0 1.369h35.845a.686.686 0 0 0 0-1.369zM11.992 43.552v3.53a.692.692 0 0 1-.77.576c-.427-.021-.77-.257-.77-.577v-3.53c.06-.368.4-.623.77-.576.428.02.77.256.77.577zM11.992 32.365v3.53a.692.692 0 0 1-.77.576c-.427-.02-.77-.256-.77-.576v-3.53c.06-.368.4-.624.77-.577.428.021.77.257.77.577zM11.992 21.177v3.53a.692.692 0 0 1-.77.576c-.427-.02-.77-.256-.77-.577v-3.529c.06-.368.4-.624.77-.577.428.021.77.257.77.577zM26.536.684V4a.689.689 0 0 0 .684.684.704.704 0 0 0 .684-.684V.684A.689.689 0 0 0 27.22 0a.704.704 0 0 0-.684.684zM17.488 7.166v3.315a.689.689 0 0 0 .684.684.704.704 0 0 0 .684-.684V7.166a.689.689 0 0 0-.685-.684.704.704 0 0 0-.684.684h.001zM4.313 18.203v2.225a.689.689 0 0 0 .684.684.704.704 0 0 0 .684-.684v-2.225a.689.689 0 0 0-.684-.684.704.704 0 0 0-.684.684z"/>
        <path d="M7.735 20.043v31.253a.686.686 0 0 0 1.368 0V20.043a.686.686 0 0 0-1.368 0zM32.848 46.932a4.045 4.045 0 0 0-1.156-2.974 2.424 2.424 0 0 0-2.925-.343l.941.236a2.792 2.792 0 0 0-2.46-1.84 2.792 2.792 0 0 0-2.46 1.84l.94-.236a2.424 2.424 0 0 0-2.924.343 4.165 4.165 0 0 0-1.177 2.995.686.686 0 0 0 1.368 0c0-.962.728-2.951 2.054-2.139.327.18.738.078.941-.235.236-.535.62-1.156 1.284-1.156.663 0 1.048.621 1.284 1.156.195.324.616.43.94.235 1.327-.77 2.032 1.156 2.055 2.139a.686.686 0 0 0 1.368 0l-.073-.021z"/>
        <path d="M23.034 46.29a3.265 3.265 0 0 0-1.027-2.46 2.228 2.228 0 0 0-2.588-.278l.94.235a2.446 2.446 0 0 0-2.16-1.52 2.446 2.446 0 0 0-2.159 1.52l.941-.235a2.194 2.194 0 0 0-2.567.278 3.265 3.265 0 0 0-1.027 2.46.684.684 0 0 0 1.368 0c0-.728.577-2.113 1.54-1.562.327.18.738.078.941-.236.192-.406.488-.833.985-.833s.791.427.985.834c.195.324.616.429.94.235.985-.535 1.541.813 1.541 1.562a.686.686 0 0 0 1.368 0h-.02zM9.103 46.117a2.842 2.842 0 0 0-.877-2.112 1.939 1.939 0 0 0-2.275-.257l.94.236a2.112 2.112 0 0 0-1.881-1.3 2.156 2.156 0 0 0-1.882 1.3l.94-.236a1.939 1.939 0 0 0-2.274.257 2.81 2.81 0 0 0-.878 2.112.686.686 0 0 0 1.369 0c0-.6.427-1.561 1.09-1.197.327.18.738.077.94-.236.13-.299.344-.642.706-.642.363 0 .577.325.705.642.196.324.616.43.941.236.684-.364 1.09.577 1.09 1.197a.686.686 0 0 0 1.369 0h-.023z"/>
        <rect transform="rotate(180 27.03 47.56)" x="25.896" y="45.945" width="2.267" height="3.231" rx=".37"/>
        <rect transform="rotate(180 27.03 33.808)" x="25.896" y="32.193" width="2.267" height="3.231" rx=".37"/>
        <rect transform="rotate(180 18.152 34.45)" x="17.019" y="32.835" width="2.267" height="3.231" rx=".37"/>
        <rect transform="rotate(180 4.998 34.45)" x="3.864" y="32.835" width="2.267" height="3.231" rx=".37"/>
        <rect transform="rotate(180 4.997 25.283)" x="4.184" y="24.128" width="1.625" height="2.311" rx=".37"/>
        <rect transform="rotate(180 18.152 24.375)" x="17.019" y="22.76" width="2.267" height="3.231" rx=".37"/>
        <rect transform="rotate(180 18.152 15.37)" x="17.019" y="13.754" width="2.267" height="3.231" rx=".37"/>
        <rect transform="rotate(180 27.03 21.572)" x="25.896" y="19.957" width="2.267" height="3.231" rx=".37"/>
        <rect transform="rotate(180 27.03 9.316)" x="25.896" y="7.701" width="2.267" height="3.231" rx=".37"/>
        <rect transform="rotate(180 18.163 47.56)" x="16.955" y="45.945" width="2.416" height="3.231" rx=".37"/>
        <rect transform="rotate(180 4.986 47.56)" x="3.778" y="45.945" width="2.416" height="3.231" rx=".37"/>
    </g>
</svg>
