<svg width="16" height="16" viewBox="0 0 16 16" xmlns="http://www.w3.org/2000/svg">
    <g opacity=".7">
        <g opacity=".6" fill="#000" fill-rule="nonzero">
            <path d="M3.535 10.79a.558.558 0 0 1-.395-.952l2.977-2.977a.558.558 0 0 1 .704-.07L8.67 8.026l3.4-3.397a.558.558 0 0 1 .79.789l-3.721 3.72a.559.559 0 0 1-.704.07L6.586 7.975l-2.657 2.653a.554.554 0 0 1-.394.164z"/>
            <path d="M12.465 7.814a.558.558 0 0 1-.558-.558V5.58h-1.674a.558.558 0 0 1 0-1.116h2.232c.308 0 .558.25.558.558v2.233c0 .308-.25.558-.558.558z"/>
            <path d="M12.465 16h-8.93A3.54 3.54 0 0 1 0 12.465v-8.93A3.54 3.54 0 0 1 3.535 0h8.93A3.54 3.54 0 0 1 16 3.535v8.93A3.54 3.54 0 0 1 12.465 16zM3.535 1.116a2.422 2.422 0 0 0-2.419 2.419v8.93a2.422 2.422 0 0 0 2.419 2.419h8.93a2.422 2.422 0 0 0 2.419-2.419v-8.93a2.422 2.422 0 0 0-2.419-2.419h-8.93z"/>
        </g>
    </g>
</svg>
