<svg width="100" height="32" viewBox="0 0 100 32" xmlns="http://www.w3.org/2000/svg">
    <g fill="none" fill-rule="evenodd">
        <path d="M2.005 1.228H27.54c1.106 0 2.005.898 2.005 2.005v25.534a2.005 2.005 0 0 1-2.005 2.005H2.005A2.004 2.004 0 0 1 0 28.767V3.233c0-1.107.897-2.005 2.005-2.005" fill="#000"/>
        <path d="M7.517 20.72c-2.655-.043-4.76-2.265-4.76-4.919V12.87a1.35 1.35 0 1 1 2.701 0v2.945c0 1.181.927 2.19 2.107 2.206a2.153 2.153 0 0 0 2.196-2.11l.001-.023v-3.046c0-.746.605-1.352 1.351-1.352.745 0 1.35.604 1.352 1.35v3.041a4.863 4.863 0 0 1-4.88 4.842c-.023-.002-.045-.002-.068-.002" fill="#FFF"/>
        <path d="M9.976 20.694h1.668a.986.986 0 0 0 .984-.984v-1.899a5.42 5.42 0 0 1-2.652 2.883M21.771 11.49c-1.325 0-2.59.542-3.505 1.5a4.78 4.78 0 0 0-3.507-1.5c-.607.001-1.21.119-1.774.348v3.302a2.155 2.155 0 0 1 3.949 1.188v2.996a1.38 1.38 0 0 0 1.26 1.394 1.35 1.35 0 0 0 1.435-1.259l.003-.088v-2.97c0-1.18.933-2.19 2.107-2.207a2.155 2.155 0 0 1 2.197 2.113v3.031a1.35 1.35 0 0 0 1.349 1.353h.001c.747 0 1.352-.605 1.352-1.351v-3.014a4.86 4.86 0 0 0-4.867-4.84" fill="#FFF"/>
        <path d="M43.968 13.094h-.2c-.668 1.042-1.669 1.563-3.004 1.562-1.227 0-2.141-.393-2.743-1.18-.601-.788-.901-1.823-.901-3.105V4.525h3.003v5.506c-.02.468.113.927.38 1.312.253.339.647.51 1.183.511.679 0 1.195-.261 1.55-.782.354-.52.532-1.2.534-2.041V4.525h3.003v9.81h-2.8l-.005-1.24zM49.014 4.525h2.799v1.241h.2c.29-.45.681-.826 1.142-1.102a3.251 3.251 0 0 1 2.582-.327c.233.072.457.17.666.294l-.78 2.678a2.611 2.611 0 0 0-.55-.222 2.953 2.953 0 0 0-.753-.079c-.746 0-1.317.26-1.71.78-.394.522-.59 1.202-.59 2.042v4.506h-3.006V4.525zM62.889 11.854a2.447 2.447 0 0 0 1.67-.65c.226-.215.404-.474.522-.761.13-.322.196-.666.19-1.012a2.493 2.493 0 0 0-.19-1 2.29 2.29 0 0 0-.521-.762 2.281 2.281 0 0 0-.76-.49 2.512 2.512 0 0 0-1.823 0c-.282.11-.54.278-.759.49a2.29 2.29 0 0 0-.521.761 2.493 2.493 0 0 0-.19 1c-.007.347.06.691.19 1.013.118.287.296.546.521.76a2.447 2.447 0 0 0 1.67.65zm-2.383 2.483h-2.799V0h3.003v4.204l-.2 1.403h.2c.257-.417.62-.758 1.052-.992.472-.273 1.07-.41 1.791-.41.622 0 1.235.128 1.803.38.57.25 1.084.613 1.512 1.066.445.481.795 1.04 1.03 1.652a6.116 6.116 0 0 1 0 4.245 5.165 5.165 0 0 1-1.03 1.652 4.637 4.637 0 0 1-1.512 1.066 4.43 4.43 0 0 1-1.803.38c-.72 0-1.319-.137-1.79-.411a2.8 2.8 0 0 1-1.053-.99h-.2l-.004 1.092zM75.84 10.471c-.295-.116-.6-.21-.91-.28a4.35 4.35 0 0 0-.933-.1c-.532 0-.933.11-1.2.332-.26.203-.407.52-.399.85-.013.32.13.63.38.83.288.219.642.33 1.003.312.304.004.607-.053.89-.17.245-.104.466-.258.65-.452a1.965 1.965 0 0 0 .52-1.322zm0 2.985h-.199a4.414 4.414 0 0 1-1.092.86c-.408.228-.933.34-1.57.34a3.97 3.97 0 0 1-1.393-.24 3.48 3.48 0 0 1-1.141-.68 3.137 3.137 0 0 1-.771-1.067 3.318 3.318 0 0 1-.28-1.382 3.01 3.01 0 0 1 .3-1.351c.197-.405.477-.762.821-1.052a3.71 3.71 0 0 1 1.232-.68 4.737 4.737 0 0 1 1.55-.24c.5-.009 1 .031 1.491.119.358.07.708.165 1.052.281v-.267c0-.425-.196-.828-.532-1.09-.356-.3-.833-.451-1.433-.45-.867 0-1.614.356-2.242 1.067L69.591 6.18a5.4 5.4 0 0 1 1.953-1.491 5.996 5.996 0 0 1 2.452-.49c1.599 0 2.808.355 3.624 1.065.816.712 1.223 1.796 1.222 3.254v5.806H75.84v-.87zM83.732 5.767h.2c.667-1.042 1.669-1.563 3.003-1.562 1.23 0 2.142.393 2.743 1.18.6.788.902 1.823.902 3.105v5.846h-3.003V8.83a2.145 2.145 0 0 0-.382-1.312c-.252-.339-.646-.51-1.181-.51-.68 0-1.199.26-1.55.78-.353.521-.531 1.201-.534 2.042v4.506h-3.002v-9.81h2.8l.004 1.24zM37.2 17.865H40v1.24h.199c.307-.482.73-.878 1.231-1.152a3.654 3.654 0 0 1 1.772-.41c.748 0 1.37.177 1.866.533.453.306.814.733 1.042 1.232a4.047 4.047 0 0 1 1.26-1.232c.548-.356 1.236-.534 2.064-.534a3.809 3.809 0 0 1 1.54.292c.424.18.797.458 1.091.81.297.367.519.789.65 1.242a5.36 5.36 0 0 1 .222 1.582v6.207h-3.002V22.05c.02-.438-.103-.87-.351-1.23-.233-.316-.577-.471-1.03-.471a1.641 1.641 0 0 0-1.482.79c-.333.527-.501 1.232-.501 2.112v4.425h-3.003V22.05c.021-.441-.11-.875-.37-1.23-.249-.316-.632-.473-1.152-.471a1.499 1.499 0 0 0-1.382.79c-.306.527-.46 1.232-.46 2.112v4.425H37.2v-9.81zM59.826 25.193c.299.001.595-.056.87-.17.273-.113.521-.275.732-.48.218-.216.39-.475.5-.761.126-.323.19-.666.185-1.012a2.622 2.622 0 0 0-.18-1 2.304 2.304 0 0 0-.5-.761 2.266 2.266 0 0 0-3.7.76 2.65 2.65 0 0 0-.179 1c-.006.347.056.69.18 1.013.111.286.282.545.5.76a2.268 2.268 0 0 0 1.592.65m0-7.648a5.663 5.663 0 0 1 2.113.39 5.165 5.165 0 0 1 1.681 1.082c.48.468.854 1.031 1.101 1.653a5.85 5.85 0 0 1 0 4.204 4.767 4.767 0 0 1-1.101 1.652 5.138 5.138 0 0 1-1.68 1.08 5.907 5.907 0 0 1-4.227 0 5.115 5.115 0 0 1-1.68-1.08 4.77 4.77 0 0 1-1.103-1.652 5.864 5.864 0 0 1 0-4.204 4.77 4.77 0 0 1 1.103-1.653 5.148 5.148 0 0 1 1.682-1.082 5.65 5.65 0 0 1 2.111-.39M69.397 19.105h.2c.667-1.04 1.669-1.562 3.004-1.562 1.227 0 2.141.394 2.743 1.182.601.788.9 1.822.897 3.104v5.847h-3V22.17a2.134 2.134 0 0 0-.38-1.312c-.253-.342-.648-.511-1.182-.511-.68 0-1.197.26-1.552.78-.354.52-.532 1.2-.534 2.043v4.505h-3v-9.81h2.8l.004 1.239zM85.232 21.47a1.734 1.734 0 0 0-.19-.522 1.757 1.757 0 0 0-.418-.51 2.258 2.258 0 0 0-.66-.38 2.406 2.406 0 0 0-.872-.15 2.299 2.299 0 0 0-2.187 1.561h4.327zm2.666 3.823a5.47 5.47 0 0 1-1.892 1.982c-.782.481-1.727.72-2.833.722a5.624 5.624 0 0 1-2.113-.39 5.151 5.151 0 0 1-1.691-1.092 4.963 4.963 0 0 1-1.123-1.653 5.335 5.335 0 0 1-.4-2.092 5.188 5.188 0 0 1 1.511-3.674 5.436 5.436 0 0 1 1.662-1.13 5.067 5.067 0 0 1 2.073-.421 5.39 5.39 0 0 1 2.152.399 4.348 4.348 0 0 1 1.551 1.09c.421.472.741 1.024.944 1.623.216.643.324 1.319.318 1.998 0 .109 0 .215-.01.321a3.082 3.082 0 0 1-.029.28 1.76 1.76 0 0 0-.02.26h-7.227c.148.642.448 1.11.902 1.402.453.293.981.447 1.521.44.49.02.973-.105 1.392-.36.36-.233.66-.549.872-.92l2.44 1.215zM92.662 27.256l-4.16-9.39h3.464l2.267 5.405h.2l2.162-5.405h3.384L93.825 32h-3.284z" fill="#000"/>
    </g>
</svg>
