<svg width="16" height="16" viewBox="0 0 16 16" xmlns="http://www.w3.org/2000/svg">
    <g opacity=".7">
        <g opacity=".6" fill="#000" fill-rule="nonzero">
            <path d="M4.19 13.135c-.305 0-.558-.22-.558-.486v-1.34c0-.266.253-.486.558-.486.305 0 .558.22.558.485v1.341c0 .272-.253.486-.558.486zM8 13.135c-.305 0-.558-.22-.558-.486V9.961c0-.265.253-.485.558-.485.305 0 .558.22.558.485v2.688c0 .272-.253.486-.558.486zM11.81 13.135c-.305 0-.558-.22-.558-.486V8.621c0-.266.253-.486.558-.486.305 0 .558.22.558.486v4.028c0 .272-.245.486-.558.486zM4.19 9.878a.563.563 0 0 1-.543-.424.557.557 0 0 1 .409-.677 13.487 13.487 0 0 0 6.988-4.317l.342-.401c.201-.231.55-.26.789-.06.23.201.26.55.06.789l-.343.402a14.522 14.522 0 0 1-7.568 4.673c-.045.015-.09.015-.134.015z"/>
            <path d="M11.81 7.154a.562.562 0 0 1-.558-.558V4.981H9.63a.562.562 0 0 1-.558-.558c0-.305.253-.558.558-.558h2.18c.305 0 .558.253.558.558v2.18c0 .306-.245.551-.558.551z"/>
            <path d="M10.233 16H5.767C1.727 16 0 14.273 0 10.233V5.767C0 1.727 1.727 0 5.767 0h4.466C14.273 0 16 1.727 16 5.767v4.466C16 14.273 14.273 16 10.233 16zM5.767 1.116c-3.43 0-4.65 1.22-4.65 4.651v4.466c0 3.43 1.22 4.65 4.65 4.65h4.466c3.43 0 4.65-1.22 4.65-4.65V5.767c0-3.43-1.22-4.65-4.65-4.65H5.767z"/>
        </g>
    </g>
</svg>
