<svg width="24" height="24" viewBox="0 0 24 24" xmlns="http://www.w3.org/2000/svg">
    <g fill="none" fill-rule="evenodd">
        <path d="M0 0h24v24H0z"/>
        <path d="M1.163 11.4a10.96 10.96 0 0 1 10.15-9.048v-.707a.645.645 0 0 1 1.289 0v.707c5.099.297 9.365 4.074 10.235 9.047.13.231.163.445.163.601a.645.645 0 0 1-.645.645c-.243 0-.668-.171-.723-.599l-.017-.122c-.286-.224-1.134-.569-2.482-.569-1.574 0-2.466.47-2.579.67-.012.31-.248.601-.644.62a.644.644 0 0 1-.673-.61c-.236-.209-1.137-.576-2.635-.661v9.048A2.581 2.581 0 0 1 10.023 23a2.581 2.581 0 0 1-2.578-2.578v-.645a.645.645 0 0 1 1.29 0v.645c0 .71.578 1.289 1.288 1.289.711 0 1.29-.578 1.29-1.29v-9.047c-1.457.086-2.325.446-2.55.651v.006a.645.645 0 0 1-.643.615.65.65 0 0 1-.674-.622c-.113-.2-1.005-.669-2.579-.669-1.348 0-2.196.345-2.482.569l-.016.113c-.052.408-.462.608-.724.608A.645.645 0 0 1 1 12c0-.156.033-.37.163-.6zm15.257-.826c.795-.369 1.823-.508 2.713-.508.768 0 1.506.1 2.122.287-1.014-3.166-3.627-5.593-6.85-6.423 1.213 1.774 1.796 4.502 2.015 6.644zm-4.463-.508c1.018 0 2.216.128 3.164.474-.475-4.339-1.994-6.919-3.164-6.919-1.213 0-2.629 2.717-3.078 6.904.845-.311 1.964-.459 3.078-.459zm-7.09 0c.886 0 1.914.138 2.71.507.213-2.122.77-4.866 1.952-6.642a9.707 9.707 0 0 0-6.786 6.422c.617-.186 1.355-.287 2.124-.287z" fill="#767676" fill-rule="nonzero"/>
    </g>
</svg>
