<svg width="74" height="50" viewBox="0 0 74 50" xmlns="http://www.w3.org/2000/svg">
    <g fill="#7CB086" fill-rule="nonzero" opacity=".9">
        <path d="M23.63 26.872v16.24l.595-.596H12.79l.596.596v-16.24l-.596.596h11.435a.586.586 0 0 0 0-1.172H12.79a.6.6 0 0 0-.596.596v16.24a.6.6 0 0 0 .596.595h11.435a.6.6 0 0 0 .596-.596v-16.24a.586.586 0 1 0-1.173 0l-.019-.019z"/>
        <path d="M13.866 25.712v.103h9.283v-.103l.103.103h.973a1.07 1.07 0 0 1 1.076 1.077v15.144h.085l-.085.084v1.011a1.078 1.078 0 0 1-1.076 1.077h-1.011l-.065.065v-.065h-9.283v.065l-.065-.065H12.79a1.078 1.078 0 0 1-1.076-1.077v-1.01l-.085-.085h.085V27.949h-.085l.085-.085v-.972a1.078 1.078 0 0 1 1.076-1.077h.98l.096-.103zm9.283 1.064h-9.283v.212h9.283v-.212zm1.191 15.26V27.943H24.13v.104l-.02-.02v14.009h.231zM12.905 27.949h-.23v14.087h.23V27.949zm10.244 0h-9.283v14.087h9.283V27.949zm0 15.048h-9.283v.25h9.283v-.25zM45.192 22.452v20.66l.596-.596h-4.67l.596.596v-5.785c0-2.248.134-4.554 0-6.803-.039-.692-.73-1.115-1.211-1.557-1.21-1.153-2.422-2.287-3.632-3.44a.577.577 0 0 0-.827 0l-3.17 2.998c-.52.48-1.596 1.153-1.692 1.884a16.962 16.962 0 0 0 0 2.21v10.493l.596-.596h-4.151l.595.596v-20.66l-.595.596h18.2a.586.586 0 0 0 0-1.172h-18.2a.6.6 0 0 0-.596.595v20.66a.6.6 0 0 0 .596.596h4.15a.6.6 0 0 0 .597-.596V30.39l-.173.423c1.556-1.48 3.113-2.94 4.67-4.42h-.827c1.557 1.48 3.114 2.94 4.67 4.42l-.173-.423v12.742a.6.6 0 0 0 .596.596h4.67a.6.6 0 0 0 .596-.596v-20.66a.586.586 0 0 0-1.172 0l-.039-.019z"/>
        <path d="M28.703 21.291v.104h17.123c.281-.005.552.103.752.3.199.206.308.482.305.769v19.572h.066l-.066.065v1.03a1.078 1.078 0 0 1-1.076 1.077h-1.03l-.065.065v-.065h-2.518v.065l-.065-.065h-.992a1.078 1.078 0 0 1-1.076-1.077v-.991l-.104-.104h.104V30.85c-.67-.64-1.34-1.275-2.012-1.903l-1.592-1.505-1.59 1.505c-.67.633-1.342 1.267-2.013 1.903v11.185h.085l-.085.084v1.011a1.078 1.078 0 0 1-1.076 1.077h-1.011l-.065.065v-.065h-2v.065l-.065-.065h-1.01a1.078 1.078 0 0 1-1.077-1.077v-1.01l-.084-.085h.084V23.528h-.084l.084-.084v-.973a1.078 1.078 0 0 1 1.077-1.076h.972l.104-.104zm16.009 1.065h-16.01v.212h16.01v-.212zm1.21 19.68V23.525h-.249v18.507l.25.004zm-18.18-18.508h-.23v18.508h.23V23.528zm16.97 0h-16.01v18.508h2v-9.417c0-.223-.01-.454-.022-.698a9.033 9.033 0 0 1 .025-1.576c.098-.75.838-1.345 1.43-1.827.156-.125.302-.244.412-.346l2.342-2.216-.048-.046h.096l.769-.729a1.06 1.06 0 0 1 1.497 0l.769.729h.1l-.05.048.993.94c.606.572 1.212 1.149 1.819 1.73.078.072.174.151.274.236.578.368.973.965 1.084 1.64.09 1.519.06 3.076.031 4.582-.015.74-.029 1.505-.029 2.247v4.709h2.518V23.528zm-8.952 3.256-.173-.163-2.383 2.254a6.739 6.739 0 0 1-.463.384c-.437.354-1.034.836-1.082 1.207-.046.469-.052.94-.018 1.409.01.242.021.494.021.738v9.417h.231V30.724l-.136-.094.173-.423.174.034.752-.713L34.2 28.25l1.559-1.466zm5.473 15.252v-4.709c0-.751.016-1.522.031-2.266.029-1.487.06-3.026-.029-4.508-.019-.352-.37-.648-.744-.961-.103-.089-.211-.179-.313-.271a396.8 396.8 0 0 1-1.82-1.73l-1.03-.974-.171.161 1.553 1.469 1.345 1.278.752.713.174-.035.173.423-.136.094v11.316h.215zm-10.531.96h-2v.25h2v-.25zm14.01 0h-2.518v.25h2.518v-.25zM60.01 26.872v16.24l.595-.596H49.17l.596.596v-16.24l-.596.596h11.435a.586.586 0 0 0 0-1.172H49.17a.6.6 0 0 0-.595.596v16.24a.6.6 0 0 0 .595.595h11.435a.6.6 0 0 0 .596-.596v-16.24a.586.586 0 1 0-1.172 0l-.02-.019z"/>
        <path d="M50.247 25.712v.103h9.282v-.103l.104.103h.972a1.07 1.07 0 0 1 1.077 1.077v15.144h.084l-.084.084v1.011a1.078 1.078 0 0 1-1.077 1.077h-1.01l-.066.065v-.065h-9.282v.065l-.066-.065h-1.01a1.078 1.078 0 0 1-1.077-1.077v-1.01l-.084-.085h.084V27.949h-.084l.084-.085v-.972a1.078 1.078 0 0 1 1.076-1.077h.973l.104-.103zm9.282 1.064h-9.282v.212h9.282v-.212zm1.192 15.26V27.943H60.509v.104l-.019-.02v14.009h.23zM49.286 27.949h-.23v14.087h.23V27.949zm10.243 0h-9.282v14.087h9.282V27.949zm0 15.048h-9.282v.25h9.282v-.25zM12.77 16.014h11.436l-.596-.596v7.015l.596-.596H12.77l.595.596v-7.015a.586.586 0 1 0-1.172 0v7.015a.6.6 0 0 0 .596.596h11.435a.6.6 0 0 0 .596-.596v-7.015a.6.6 0 0 0-.596-.596H12.79a.586.586 0 0 0 0 1.173l-.02.019z"/>
        <path d="m23.13 14.257.084.085h1.01a1.078 1.078 0 0 1 1.077 1.076v1.019l.065.065h-.065v4.862h.065l-.065.066v1.01a1.078 1.078 0 0 1-1.076 1.077h-1.011l-.085.084v-.092h-9.282v.085l-.077-.085h-.98a1.078 1.078 0 0 1-1.076-1.076v-.972l-.104-.104h.104v-4.863h-.104l.104-.103v-.973a1.07 1.07 0 0 1 1.076-1.076h10.34v-.085zm0 1.046H13.84V15.514h.104l-.02.02h9.204v-.231zm-10.244 1.191h-.211v4.863h.211v-4.863zm10.243 0h-9.282v4.863h9.282v-4.863zm1.211 0h-.25v4.863h.25v-4.863zm-1.21 5.824h-9.283v.23h9.282v-.23zM45.192 15.437v7.015l.596-.596h-18.2l.596.596v-7.015l-.596.596h18.2a.586.586 0 0 0 0-1.172h-18.2a.6.6 0 0 0-.596.596v7.014a.6.6 0 0 0 .596.596h18.2a.6.6 0 0 0 .596-.596v-7.014a.586.586 0 1 0-1.173 0l-.019-.02z"/>
        <path d="M28.664 14.277v.103h16.048v-.103l.104.103h.972a1.07 1.07 0 0 1 1.076 1.077v5.919h.085l-.085.085v1.01a1.078 1.078 0 0 1-1.076 1.077h-1.01l-.066.065v-.065H28.664v.065l-.065-.065h-1.01a1.078 1.078 0 0 1-1.077-1.077v-1.01l-.085-.085h.085v-4.862h-.085l.085-.077v-.98a1.078 1.078 0 0 1 1.076-1.077h.98l.096-.103zm16.048 1.064H28.664v.212h16.048v-.212zm1.191 6.035v-4.868H45.692v.104l-.02-.02v4.784h.231zm-18.2-4.862h-.23v4.862h.23v-4.862zm17.009 0H28.664v4.862h16.048v-4.862zm0 5.823H28.664v.25h16.048v-.25zM60.01 15.437v7.015l.595-.596H49.17l.596.596v-7.015l-.596.596h11.435a.586.586 0 0 0 0-1.172H49.17a.6.6 0 0 0-.595.596v7.014a.6.6 0 0 0 .595.596h11.435a.6.6 0 0 0 .596-.596v-7.014a.586.586 0 1 0-1.172 0l-.02-.02z"/>
        <path d="M50.247 14.277v.103h9.282v-.103l.104.103h.972a1.07 1.07 0 0 1 1.077 1.077v5.919h.084l-.084.085v1.01a1.078 1.078 0 0 1-1.077 1.077h-1.01l-.066.065v-.065h-9.282v.065l-.066-.065h-1.01a1.078 1.078 0 0 1-1.077-1.077v-1.01l-.084-.085h.084v-4.862h-.084l.084-.077v-.98a1.078 1.078 0 0 1 1.076-1.077h.973l.104-.103zm9.282 1.064h-9.282v.212h9.282v-.212zm1.192 6.035v-4.868H60.509v.104l-.019-.02v4.784h.23zm-11.435-4.862h-.23v4.862h.23v-4.862zm10.243 0h-9.282v4.862h9.282v-4.862zm0 5.823h-9.282v.25h9.282v-.25zM31.163 43.112v5.727l.596-.596H10.042l.595.596v-5.727l-.595.596h21.697a.586.586 0 0 0 0-1.172H10.042a.6.6 0 0 0-.596.595v5.727a.6.6 0 0 0 .596.596h21.697a.6.6 0 0 0 .596-.596v-5.727a.586.586 0 1 0-1.172 0v-.019z"/>
        <path d="M11.118 41.951v.104h20.621a1.07 1.07 0 0 1 1.077 1.076v4.632h.103l-.103.104v.991a1.078 1.078 0 0 1-1.077 1.077h-.991l-.066.065v-.065H11.118V50l-.065-.065h-1.011a1.078 1.078 0 0 1-1.077-1.077v-1.01l-.084-.085h.084v-3.575h-.084l.084-.077v-.98a1.078 1.078 0 0 1 1.077-1.076h.972l.104-.104zm19.564 1.065H11.118v.211h19.564V43.016zm1.167 4.747v-3.58H31.644v3.58h.205zm-21.692-3.575h-.23v3.575h.23v-3.575zm20.525 0H11.118v3.575h19.564v-3.575zm0 4.536H11.118v.25h19.564v-.25zM62.739 43.112v5.727l.596-.596H41.118l.596.596v-5.727l-.596.596h22.217a.586.586 0 0 0 0-1.172H41.118a.6.6 0 0 0-.596.595v5.727a.6.6 0 0 0 .596.596h22.217a.6.6 0 0 0 .595-.596v-5.727a.586.586 0 1 0-1.172 0l-.02-.019z"/>
        <path d="M42.194 41.951v.104h20.064v-.104l.104.104h.973a1.07 1.07 0 0 1 1.076 1.076v4.632h.084l-.084.085v1.01a1.078 1.078 0 0 1-1.076 1.077h-1.011l-.066.065v-.065H42.194V50l-.065-.065h-1.011a1.078 1.078 0 0 1-1.076-1.077v-1.01l-.085-.085h.085v-3.575h-.085l.085-.084v-.973a1.078 1.078 0 0 1 1.076-1.076h.972l.104-.104zm20.064 1.065H42.194v.211h20.064v-.211zm1.192 4.747v-3.58H63.238v.103l-.019-.019v3.496h.23zm-22.217-3.575h-.23v3.575h.23v-3.575zm21.025 0H42.194v3.575h20.064v-3.575zm0 4.536H42.194v.25h20.064v-.25zM23.63 22.452v4.42l.595-.595H10.06l.596.595v-4.42l-.596.596h14.164a.586.586 0 0 0 0-1.172H10.06a.6.6 0 0 0-.596.595v4.42a.6.6 0 0 0 .596.596h14.164a.6.6 0 0 0 .596-.595v-4.42a.586.586 0 1 0-1.173 0l-.019-.02z"/>
        <path d="M11.137 21.291v.104H23.15v-.104l.103.104h.973a1.07 1.07 0 0 1 1.076 1.076v3.325h.085l-.085.085v1.01a1.078 1.078 0 0 1-1.076 1.077h-1.011l-.065.065v-.065H11.137v.065l-.058-.065h-1.018a1.078 1.078 0 0 1-1.076-1.076V25.88l-.085-.085h.085v-2.268H8.9l.085-.084v-.973a1.078 1.078 0 0 1 1.076-1.076h.972l.104-.104zm12.012 1.065H11.137v.212H23.15v-.212zm1.191 3.44v-2.273H24.13v.103l-.02-.019v2.19h.231zm-14.164-2.268h-.23v2.268h.23v-2.268zm12.973 0H11.137v2.268H23.15v-2.268zm0 3.23H11.137v.249H23.15v-.25zM62.739 22.452v4.42l.596-.595H49.17l.596.595v-4.42l-.596.596h14.165a.586.586 0 0 0 0-1.172H49.17a.6.6 0 0 0-.595.595v4.42a.6.6 0 0 0 .595.596h14.165a.6.6 0 0 0 .595-.595v-4.42a.586.586 0 1 0-1.172 0l-.02-.02z"/>
        <path d="M50.247 21.291v.104h12.011v-.104l.104.104h.973a1.07 1.07 0 0 1 1.076 1.076v3.325h.084l-.084.085v1.01a1.078 1.078 0 0 1-1.076 1.077h-1.011l-.066.065v-.065H50.247v.065l-.066-.065h-1.01a1.078 1.078 0 0 1-1.077-1.076V25.88l-.084-.085h.084v-2.268h-.084l.084-.084v-.973a1.078 1.078 0 0 1 1.076-1.076h.973l.104-.104zm12.011 1.065H50.247v.212h12.011v-.212zm1.192 3.44v-2.273H63.238v.103l-.019-.019v2.19h.23zm-14.164-2.268h-.23v2.268h.23v-2.268zm12.972 0H50.247v2.268h12.011v-2.268zm0 3.23H50.247v.249h12.011v-.25zM10.042 11.594h14.164l-.596-.596v4.42l.596-.596H10.042l.595.596v-4.42a.586.586 0 1 0-1.172 0v4.42a.6.6 0 0 0 .596.596h14.164a.6.6 0 0 0 .596-.596v-4.42a.6.6 0 0 0-.596-.596H10.06a.586.586 0 0 0 0 1.173l-.02.019z"/>
        <path d="m23.13 9.837.084.085h1.01a1.078 1.078 0 0 1 1.077 1.076v1.019l.065.065h-.065v2.26h.065l-.065.065v1.011a1.078 1.078 0 0 1-1.076 1.076h-1.011l-.085.085v-.085H11.118v.085l-.085-.085h-.972a1.078 1.078 0 0 1-1.076-1.076v-.972l-.104-.104h.104v-2.268H8.88l.104-.104v-.972a1.07 1.07 0 0 1 1.076-1.076h13.068v-.085zm0 1.046H11.111V11.094h.104l-.02.02H23.13v-.231zm-12.973 1.191h-.211v2.268h.211v-2.268zm12.972 0H11.118v2.268h12.011v-2.268zm1.211 0h-.25v2.268h.25v-2.268zm-1.21 3.229H11.117v.23h12.011v-.23zM45.192 9.46v5.977l.596-.595h-18.2l.596.595V9.461l-.596.595h18.2a.586.586 0 1 0 0-1.172h-18.2a.6.6 0 0 0-.596.596v5.977a.6.6 0 0 0 .596.595h18.2a.6.6 0 0 0 .596-.595V9.48a.586.586 0 1 0-1.173 0l-.019-.02z"/>
        <path d="M28.664 8.3v.104h16.048V8.3l.104.104h.972a1.07 1.07 0 0 1 1.076 1.076v4.881h.085l-.085.085v1.01a1.078 1.078 0 0 1-1.076 1.077h-1.01l-.066.065v-.065H28.664v.065l-.065-.065h-1.01a1.078 1.078 0 0 1-1.077-1.076v-1.011l-.085-.085h.085v-3.824h-.085l.085-.085V9.48a1.078 1.078 0 0 1 1.076-1.076h.98l.096-.104zm16.048 1.064H28.664v.212h16.048v-.212zm1.191 4.997v-3.83H45.692v.104l-.02-.02v3.746h.231zm-18.2-3.824h-.23v3.824h.23v-3.824zm17.009 0H28.664v3.824h16.048v-3.824zm0 4.785H28.664v.25h16.048v-.25zM62.739 11.017v4.42l.596-.595H49.17l.596.595v-4.42l-.596.596h14.165a.586.586 0 0 0 0-1.172H49.17a.6.6 0 0 0-.595.595v4.42a.6.6 0 0 0 .595.596h14.165a.6.6 0 0 0 .595-.595v-4.42a.586.586 0 1 0-1.172 0l-.02-.02z"/>
        <path d="M50.247 9.856v.104h12.011v-.104l.104.104h.973a1.07 1.07 0 0 1 1.076 1.076v3.325h.084l-.084.085v1.01a1.078 1.078 0 0 1-1.076 1.077h-1.011l-.066.065v-.065H50.247v.065l-.066-.065h-1.01a1.078 1.078 0 0 1-1.077-1.076v-1.011l-.084-.085h.084v-2.268h-.084l.084-.076v-.98A1.078 1.078 0 0 1 49.17 9.96h.973l.104-.104zm12.011 1.065H50.247v.212h12.011v-.212zm1.192 3.44v-2.273H63.238v.103l-.019-.019v2.19h.23zm-14.164-2.268h-.23v2.268h.23v-2.268zm12.972 0H50.247v2.268h12.011v-2.268zm0 3.23H50.247v.249h12.011v-.25zM45.192 6.213V9.46l.596-.596h-18.2l.596.596V6.213l-.596.595h18.2a.586.586 0 1 0 0-1.172h-18.2a.6.6 0 0 0-.596.596V9.48a.6.6 0 0 0 .596.596h18.2a.6.6 0 0 0 .596-.596V6.232a.586.586 0 1 0-1.173 0l-.019-.02z"/>
        <path d="M28.664 5.052v.104h16.048v-.104l.104.104h.972a1.07 1.07 0 0 1 1.076 1.076v2.152h.085l-.085.085v1.01a1.078 1.078 0 0 1-1.076 1.077h-1.01l-.066.065v-.065H28.664v.065l-.065-.065h-1.01a1.078 1.078 0 0 1-1.077-1.076V8.469l-.085-.085h.085V7.29h-.085l.085-.077v-.98a1.078 1.078 0 0 1 1.076-1.076h.98l.096-.104zm16.048 1.065H28.664v.21h16.048v-.21zm1.191 2.267v-1.1H45.692v.103l-.02-.02v1.017h.231zM44.712 7.29H28.664v1.095h16.048V7.29zm0 2.056H28.664v.25h16.048v-.25zM40.522 30.37v15.606l.596-.596h-9.36l.596.596V30.37l-.173.423c1.557-1.48 3.114-2.94 4.67-4.42h-.826c1.557 1.48 3.113 2.94 4.67 4.42.557.519 1.384-.307.827-.826-1.557-1.48-3.114-2.94-4.67-4.42a.577.577 0 0 0-.827 0c-1.25 1.172-2.498 2.363-3.748 3.536-.46.442-1.057.788-1.095 1.46-.058.98 0 1.98 0 2.96v12.473a.6.6 0 0 0 .596.595h9.36a.6.6 0 0 0 .595-.595V30.37a.586.586 0 1 0-1.172 0h-.039z"/>
        <path d="M36.438 24.893c.28 0 .55.111.748.31l.728.69h.14l-.069.067 1.538 1.449c.715.675 1.43 1.351 2.145 2.03.346.18.56.542.551.933v14.53h.066l-.066.065v1.01a1.078 1.078 0 0 1-1.076 1.077h-1.011l-.085.084v-.086h-7.212v.084l-.085-.084h-.972a1.078 1.078 0 0 1-1.076-1.076v-.973l-.104-.104h.104V33.503c0-.321 0-.654-.014-.975-.013-.659-.027-1.345.014-2.014a2.204 2.204 0 0 1 .96-1.537c.1-.087.193-.167.281-.25.628-.59 1.253-1.18 1.876-1.77l1.068-1.009-.067-.063h.135l.734-.692c.2-.195.47-.303.75-.3zm-.697 1.872-.154-.146-1.105 1.045c-.625.592-1.25 1.182-1.876 1.77-.102.098-.21.192-.313.28-.385.328-.613.545-.63.858-.037.636-.026 1.3-.012 1.94 0 .324.013.66.013.99V44.9h.212V30.705l-.137-.095.173-.422.175.034.752-.713 1.345-1.278 1.557-1.466zm4.68 2.82-1.563-1.479-1.57-1.483-.15.142 1.553 1.468 1.345 1.278.24.227c.043-.056.091-.108.144-.154zm-.385 1.25c-.67-.64-1.34-1.274-2.012-1.902l-1.592-1.505-1.59 1.505-2.013 1.902V44.9h7.207V30.835zm1.21 14.064V31.427c-.082.01-.166.01-.25 0V44.9h.25zm-1.21.961h-7.201v.231h7.207l-.006-.23z"/>
        <path d="M40.522 45.976v2.863l.596-.596h-9.36l.596.596v-2.863l-.595.595h9.359a.586.586 0 0 0 0-1.172h-9.36a.6.6 0 0 0-.595.596v2.863a.6.6 0 0 0 .596.596h9.359a.6.6 0 0 0 .596-.596v-2.863a.586.586 0 1 0-1.173 0l-.019-.02z"/>
        <path d="M32.835 44.815v.104h7.207v-.104l.103.104h.973a1.07 1.07 0 0 1 1.076 1.076v1.768h.085l-.085.085v1.01a1.078 1.078 0 0 1-1.076 1.077h-1.019l-.065.065v-.065h-7.2V50l-.065-.065h-1.01a1.078 1.078 0 0 1-1.077-1.077v-1.01l-.084-.085h.084v-.711h-.084l.084-.085v-.972a1.078 1.078 0 0 1 1.077-1.076h.972l.104-.104zm7.207 1.065h-7.207v.211h7.207v-.211zm0 1.172h-7.207v.711h7.207v-.711zm0 1.672h-7.207v.25h7.207v-.25zM48.575 2.561v40.551l.595-.596h-3.382l.596.596V3.311c0-.212-.02-.462 0-.673.173-1.441 1.98-1.25 2.23.077.134.75 1.268.423 1.133-.308a2.285 2.285 0 0 0-4.536.173c-.038.52 0 1.057 0 1.557v38.956a.6.6 0 0 0 .596.596h3.383a.6.6 0 0 0 .595-.596V2.56a.586.586 0 1 0-1.172 0h-.038z"/>
        <path d="M47.445.001a2.77 2.77 0 0 1 2.73 2.114c.061.14.092.292.09.444v39.477h.066l-.065.065v.992a1.078 1.078 0 0 1-1.076 1.076h-.992l-.104.104v-.104h-1.23v.104l-.104-.104h-.96a1.078 1.078 0 0 1-1.077-1.076v-.961l-.103-.104h.103V3.645c0-.357-.017-.728 0-1.1A2.644 2.644 0 0 1 47.445.002zm1.393 1.56a1.88 1.88 0 0 0-1.393-.599 1.693 1.693 0 0 0-1.755 1.651 8.39 8.39 0 0 0 0 1.007v38.415h.211V3.108c-.01-.171-.01-.342 0-.513V2.58a1.501 1.501 0 0 1 1.501-1.424c.457 0 .893.188 1.207.52.071-.048.147-.086.227-.114h.002zm-.742 1.075a.769.769 0 0 0-.694-.519c-.3 0-.488.204-.534.577a3.782 3.782 0 0 0 0 .384v38.958h1.23l-.002-39.4zm1.21 39.398V3.597c-.081.015-.165.02-.249.017v38.422l.25-.002zm-1.21.96h-1.23v.212h1.23v-.211zM27.012 2.561v40.551l.595-.596h-3.382l.596.596V3.311c0-.212-.02-.462 0-.673.173-1.441 1.98-1.25 2.229.077.135.75 1.268.423 1.134-.308a2.285 2.285 0 0 0-4.536.173c-.038.52 0 1.057 0 1.557v38.956a.6.6 0 0 0 .596.596h3.383a.6.6 0 0 0 .595-.596V2.56a.586.586 0 1 0-1.172 0h-.038z"/>
        <path d="M25.878.001a2.77 2.77 0 0 1 2.73 2.114c.061.14.092.292.091.444v39.477h.061l-.065.065v.992a1.078 1.078 0 0 1-1.076 1.076h-.992l-.104.104v-.104h-1.222v.104l-.104-.104h-.96a1.078 1.078 0 0 1-1.077-1.076v-.961l-.104-.104h.104V3.645c0-.357-.017-.728 0-1.1A2.644 2.644 0 0 1 25.878.002zm1.393 1.56a1.88 1.88 0 0 0-1.393-.599 1.693 1.693 0 0 0-1.755 1.651 8.39 8.39 0 0 0 0 1.007v38.415h.211V3.108c-.01-.171-.01-.342 0-.513V2.58a1.501 1.501 0 0 1 1.49-1.424c.456 0 .892.188 1.207.52.075-.049.157-.087.242-.114h-.002zm-.742 1.075a.769.769 0 0 0-.697-.519c-.3 0-.489.204-.535.577a3.782 3.782 0 0 0 0 .384v38.958h1.23l.002-39.4zm1.211 39.398V3.597c-.082.015-.166.02-.25.017v38.422l.25-.002zm-1.21.96H25.3v.212h1.23l-.002-.211zM19.978 37.135v5.977l.595-.596h-3.901l.596.596v-5.977c0 .077 0 0 .038-.058.057-.119.121-.234.192-.345a1.426 1.426 0 0 1 2.518.557.588.588 0 0 0 1.134-.308 2.646 2.646 0 0 0-3.056-1.94 2.531 2.531 0 0 0-1.999 2.171c-.038 1.441 0 2.883 0 4.324v1.576a.6.6 0 0 0 .596.596h3.902a.6.6 0 0 0 .595-.596v-5.977a.586.586 0 1 0-1.172 0h-.038z"/>
        <path d="M18.6 34.502c1.32.01 2.492.845 2.932 2.09.091.163.138.347.137.534v4.9h.065l-.065.066v1.01a1.078 1.078 0 0 1-1.076 1.077h-1.011l-.085.084v-.075h-1.749v.085l-.084-.085h-.973a1.078 1.078 0 0 1-1.076-1.076v-.972l-.104-.104h.104v-1.937c0-.95-.017-1.922 0-2.9a3.012 3.012 0 0 1 2.383-2.63c.198-.041.4-.064.602-.067zm1.566 1.653a2.137 2.137 0 0 0-1.98-.652 2.06 2.06 0 0 0-1.61 1.719 64.568 64.568 0 0 0 0 2.861v1.945h.211v-4.893h.385l-.354-.11a.778.778 0 0 1 .075-.182c.063-.133.134-.26.213-.384l.016-.021a1.807 1.807 0 0 1 1.468-.756 1.95 1.95 0 0 1 1.382.588c.06-.042.126-.077.194-.105v-.01zm-.669 1.103a1.024 1.024 0 0 0-.915-.617.85.85 0 0 0-.692.36c-.052.083-.1.17-.142.26v4.775h1.75v-4.778zm1.21 4.77v-3.851a1.176 1.176 0 0 1-.249 0v3.843l.25.008zm-1.21.961h-1.749v.23h1.75v-.23zM56.108 37.135v5.977l.596-.596h-3.901l.596.596v-5.977c0 .077 0 0 .038-.058.057-.119.12-.234.192-.345a1.426 1.426 0 0 1 2.518.557.588.588 0 0 0 1.134-.308 2.646 2.646 0 0 0-3.056-1.94 2.531 2.531 0 0 0-1.999 2.171c-.038 1.441 0 2.883 0 4.324v1.576a.6.6 0 0 0 .596.596h3.901a.6.6 0 0 0 .596-.596v-5.977a.586.586 0 0 0-1.172 0h-.039z"/>
        <path d="M54.73 34.502c1.32.01 2.493.845 2.933 2.09.091.163.138.347.137.534v4.9h.065l-.065.066v1.01a1.078 1.078 0 0 1-1.077 1.077h-1.01l-.085.084v-.075h-1.749v.085l-.085-.085h-.972a1.078 1.078 0 0 1-1.076-1.076v-.972l-.104-.104h.104v-1.937c0-.95-.018-1.922 0-2.9a3.012 3.012 0 0 1 2.383-2.63c.198-.041.4-.064.601-.067zm1.567 1.653a2.137 2.137 0 0 0-1.98-.652 2.06 2.06 0 0 0-1.61 1.719 64.568 64.568 0 0 0 0 2.861v1.945h.211v-4.893h.384l-.353-.11a.778.778 0 0 1 .075-.182c.063-.133.134-.26.213-.384l.015-.021a1.807 1.807 0 0 1 1.469-.756 1.95 1.95 0 0 1 1.382.588c.06-.042.125-.077.194-.105v-.01zm-.67 1.103a1.024 1.024 0 0 0-.914-.617.85.85 0 0 0-.69.36c-.052.083-.1.17-.142.26v4.775h1.749l-.002-4.778zm1.212 4.77v-3.851a1.174 1.174 0 0 1-.25 0v3.843l.25.008zm-1.211.961h-1.749v.23h1.749v-.23zM31.009 13.035a.586.586 0 1 0 0-1.172.586.586 0 0 0 0 1.172z"/>
        <path d="M31.009 13.516a1.038 1.038 0 0 1-1.057-1.067 1.09 1.09 0 0 1 .263-.719 1.065 1.065 0 0 1 1.851.719 1.09 1.09 0 0 1-.263.719 1.036 1.036 0 0 1-.794.348zM34.564 13.035a.586.586 0 1 0 0-1.172.586.586 0 0 0 0 1.172z"/>
        <path d="M34.564 13.516a1.038 1.038 0 0 1-1.057-1.067 1.09 1.09 0 0 1 .264-.719 1.065 1.065 0 0 1 1.85.719 1.09 1.09 0 0 1-.263.719 1.036 1.036 0 0 1-.794.348zM38.12 13.035a.586.586 0 1 0 0-1.172.586.586 0 0 0 0 1.172z"/>
        <path d="M38.12 13.516a1.038 1.038 0 0 1-1.057-1.067 1.09 1.09 0 0 1 .263-.719 1.065 1.065 0 0 1 1.85.719 1.09 1.09 0 0 1-.262.719 1.036 1.036 0 0 1-.794.348zM41.675 13.035a.586.586 0 1 0 0-1.172.586.586 0 0 0 0 1.172z"/>
        <path d="M41.675 13.516a1.038 1.038 0 0 1-1.057-1.067 1.09 1.09 0 0 1 .264-.719 1.065 1.065 0 0 1 1.85.719 1.09 1.09 0 0 1-.263.719 1.036 1.036 0 0 1-.794.348zM41.675 25.777a.586.586 0 1 0 0-1.172.586.586 0 0 0 0 1.172z"/>
        <path d="M41.675 26.257a1.038 1.038 0 0 1-1.057-1.066 1.09 1.09 0 0 1 .264-.719 1.065 1.065 0 0 1 1.85.719 1.09 1.09 0 0 1-.263.719 1.036 1.036 0 0 1-.794.347zM31.009 25.777a.586.586 0 1 0 0-1.172.586.586 0 0 0 0 1.172z"/>
        <path d="M31.009 26.257a1.038 1.038 0 0 1-1.057-1.066 1.09 1.09 0 0 1 .263-.719 1.065 1.065 0 0 1 1.851.719 1.09 1.09 0 0 1-.263.719 1.036 1.036 0 0 1-.794.347zM20.324 32.792a.586.586 0 1 0 0-1.173.586.586 0 0 0 0 1.173z"/>
        <path d="M20.324 33.272a1.038 1.038 0 0 1-1.057-1.066 1.09 1.09 0 0 1 .263-.72 1.065 1.065 0 0 1 1.85.72 1.09 1.09 0 0 1-.263.718 1.036 1.036 0 0 1-.793.348zM16.941 32.792a.586.586 0 1 0 0-1.173.586.586 0 0 0 0 1.173z"/>
        <path d="M16.941 33.272a1.038 1.038 0 0 1-1.057-1.076 1.09 1.09 0 0 1 .263-.719 1.065 1.065 0 0 1 1.851.719 1.09 1.09 0 0 1-.263.719c-.2.23-.49.36-.794.357z"/>
        <g>
            <path d="M20.324 19.531a.586.586 0 1 0 0-1.172.586.586 0 0 0 0 1.172z"/>
            <path d="M20.324 20.011a1.038 1.038 0 0 1-1.057-1.076 1.09 1.09 0 0 1 .269-.709 1.065 1.065 0 0 1 1.85.719 1.09 1.09 0 0 1-.263.719 1.036 1.036 0 0 1-.8.347zM16.941 19.531a.586.586 0 1 0 0-1.172.586.586 0 0 0 0 1.172z"/>
            <path d="M16.941 20.011a1.038 1.038 0 0 1-1.057-1.076 1.09 1.09 0 0 1 .263-.719 1.065 1.065 0 0 1 1.851.72 1.09 1.09 0 0 1-.263.718c-.2.23-.49.36-.794.357z"/>
        </g>
        <g>
            <path d="M56.454 19.531a.586.586 0 1 0 0-1.172.586.586 0 0 0 0 1.172z"/>
            <path d="M56.454 20.011a1.038 1.038 0 0 1-1.057-1.066 1.09 1.09 0 0 1 .264-.719 1.065 1.065 0 0 1 1.85.719 1.09 1.09 0 0 1-.263.719 1.036 1.036 0 0 1-.794.347zM53.072 19.531a.586.586 0 1 0 0-1.172.586.586 0 0 0 0 1.172z"/>
            <path d="M53.072 20.011a1.038 1.038 0 0 1-1.057-1.076 1.09 1.09 0 0 1 .263-.719 1.065 1.065 0 0 1 1.85.72 1.09 1.09 0 0 1-.262.718c-.2.23-.49.36-.794.357z"/>
        </g>
        <g>
            <path d="M56.454 32.792a.586.586 0 1 0 0-1.173.586.586 0 0 0 0 1.173z"/>
            <path d="M56.454 33.272a1.038 1.038 0 0 1-1.057-1.066 1.09 1.09 0 0 1 .264-.72 1.065 1.065 0 0 1 1.85.72 1.09 1.09 0 0 1-.263.718 1.036 1.036 0 0 1-.794.348zM53.072 32.792a.586.586 0 1 0 0-1.173.586.586 0 0 0 0 1.173z"/>
            <path d="M53.072 33.272a1.038 1.038 0 0 1-1.057-1.066 1.09 1.09 0 0 1 .263-.72 1.065 1.065 0 0 1 1.85.72 1.09 1.09 0 0 1-.262.718 1.036 1.036 0 0 1-.794.348z"/>
        </g>
        <path d="M72.31 48.243H3.969c-.923 0-1.865-.057-2.768 0h-.134a.586.586 0 0 0 0 1.173h68.321c.923 0 1.865.057 2.768 0h.134a.586.586 0 1 0 0-1.173h.02z"/>
        <path d="M2.116 47.738c.313 0 .63 0 .936.013.305.014.615.014.917.014h68.34a1.067 1.067 0 0 1-.019 2.133h-.119c-.277.017-.576.025-.928.025-.313 0-.63 0-.936-.013-.306-.014-.615-.014-.917-.014H1.067a1.067 1.067 0 1 1 0-2.133h.119c.284-.017.58-.025.93-.025zm70.174 1.197c.04 0 .096 0 .096-.105 0-.106-.055-.106-.096-.106H3.97c-.314 0-.63 0-.936-.014-.306-.013-.615-.013-.917-.013-.334 0-.623 0-.884.025h-.165c-.04 0-.096 0-.096.106 0 .105.055.105.096.105h68.321c.314 0 .63 0 .936.014.306.013.615.013.917.013.334 0 .623 0 .884-.025h.165z"/>
    </g>
</svg>
