<svg width="24" height="24" viewBox="0 0 24 24" xmlns="http://www.w3.org/2000/svg">
    <g fill="none" fill-rule="evenodd">
        <path d="M11.05 23h1.994c.229-.477.723-1.741 1.12-2.83l.08-.217 1.815-.75.195.085c1.082.472 2.36.995 2.86 1.155l1.4-1.4c-.178-.505-.717-1.74-1.204-2.78l-.098-.212.751-1.833.205-.08c1.093-.43 2.359-.962 2.832-1.204v-1.968c-.479-.23-1.74-.721-2.827-1.115l-.213-.078-.756-1.835.09-.207c.466-1.073.983-2.339 1.149-2.849l-1.405-1.404c-.454.162-1.723.718-2.794 1.218l-.2.093-1.815-.748-.081-.206C13.718 2.74 13.185 1.47 12.945 1h-1.993c-.23.476-.723 1.74-1.118 2.829l-.078.215-1.81.752-.196-.085c-1.084-.47-2.366-.993-2.866-1.153L3.486 4.96c.175.503.716 1.736 1.201 2.777l.1.212-.755 1.833-.203.08c-1.092.43-2.356.96-2.829 1.202v1.97c.479.231 1.739.723 2.825 1.119l.211.079.756 1.829-.09.206c-.465 1.072-.982 2.336-1.148 2.846l1.408 1.408c.452-.163 1.72-.72 2.792-1.22l.2-.094 1.813.753.08.207c.431 1.095.963 2.363 1.203 2.833z" stroke="#787878" stroke-width="2"/>
        <path d="M12.594 16.97a5 5 0 1 0 0-10 5 5 0 0 0 0 10zm0-9.09a4.09 4.09 0 1 1 0 8.181 4.09 4.09 0 0 1 0-8.181z" stroke="#777" stroke-width=".68" fill="#777" fill-rule="nonzero"/>
        <path d="m13.91 14.711-1.304-1.897a3.432 3.432 0 0 0-.287-.379c.324-.077.586-.224.78-.448a1.24 1.24 0 0 0 .27-.637h.652l.128-.434h-.769a1.588 1.588 0 0 0-.268-.77h.909l.122-.435h-2.866l-.128.435h.634c.305 0 .536.077.695.238.128.126.207.3.238.532h-1.433l-.122.434h1.543a.766.766 0 0 1-.257.448c-.195.154-.487.238-.871.238h-.372v.512c.146 0 .28.049.402.14.104.084.207.203.311.364l1.091 1.66h.903z" fill="#AB001F" fill-rule="nonzero"/>
    </g>
</svg>
