<?xml version="1.0" encoding="UTF-8"?>
<svg width="17px" height="15px" viewBox="0 0 17 15" version="1.1" xmlns="http://www.w3.org/2000/svg" xmlns:xlink="http://www.w3.org/1999/xlink">
    <title>finance</title>
    <g id="Page-1" stroke="none" stroke-width="1" fill="none" fill-rule="evenodd" opacity="0.699999988">
        <g id="02_Mutual-Fund_UM-V-3.0" transform="translate(-1276.000000, -1714.000000)" fill="#000000" fill-rule="nonzero">
            <g id="final-list" transform="translate(-94.000000, 1492.000000)">
                <g id="Group-20" transform="translate(0.000000, 55.000000)">
                    <g id="Group-40-Copy" transform="translate(0.000000, 146.000000)">
                        <g id="Members-Love-Us-Copy-2" transform="translate(249.000000, 0.000000)">
                            <g id="Group-46-Copy-11" transform="translate(1104.000000, 0.000000)">
                                <g id="Group-26" transform="translate(17.000000, 17.000000)">
                                    <g id="outline" transform="translate(0.000000, 4.000000)">
                                        <path d="M8.99708657,8.33257611 C8.41212143,8.33231956 7.83738218,8.48595694 7.33057076,8.7780639 C7.25195961,8.82347695 7.20354748,8.9073789 7.20357076,8.99816468 C7.20359405,9.08895047 7.25204921,9.17282757 7.33068364,9.21820029 C7.40931808,9.26357302 7.50618536,9.26354817 7.58479651,9.2181351 C8.87642233,8.47135497 10.5259435,8.85544363 11.3548252,10.095981 C12.183707,11.3365183 11.9072792,13.0074557 10.7230416,13.9149572 C9.53880389,14.8224586 7.85346938,14.654853 6.87116033,13.5318897 C5.88885128,12.4089263 5.94693069,10.7162743 7.00390252,9.66328406 C7.07003504,9.59969134 7.0967135,9.50536619 7.0736859,9.41655586 C7.0506583,9.32774554 6.98150749,9.25826792 6.89280672,9.23482187 C6.80410595,9.21137581 6.70965607,9.23760925 6.64575226,9.30344122 C5.51795973,10.4256948 5.34049354,12.188539 6.22196775,13.5130662 C7.10344196,14.8375933 8.79810646,15.3545327 10.2687813,14.7475035 C11.7394562,14.1404743 12.5761255,12.5787129 12.2667252,11.018059 C11.957325,9.45740515 10.5881142,8.33296039 8.99708657,8.33291495 L8.99708657,8.33257611 Z" id="Path"></path>
                                        <path d="M10.2101568,10.7976305 L10.0304232,10.7976305 C9.99384777,10.6922332 9.9425425,10.5925415 9.87803305,10.5015202 L10.2101568,10.5015202 C10.3482794,10.5015202 10.46025,10.3895497 10.46025,10.251427 C10.46025,10.1133044 10.3482794,10.0013338 10.2101568,10.0013338 L8.9388498,10.0013338 C8.92967971,10.0013338 8.92084309,10 8.91150628,10 L8.25009318,10 C8.11197053,10 8,10.1119705 8,10.2500932 C8,10.3882158 8.11197053,10.5001864 8.25009318,10.5001864 L8.91150628,10.5001864 C9.13708091,10.5001982 9.3481276,10.6114921 9.47554976,10.7976305 L8.26043036,10.7976305 C8.12230772,10.7976305 8.01033718,10.909601 8.01033718,11.0477237 C8.01033718,11.1858463 8.12230772,11.2978169 8.26043036,11.2978169 L9.58509057,11.2978169 C9.53031773,11.6273918 9.24560072,11.8692603 8.91150628,11.8700301 L8.25009318,11.8700301 C8.15016975,11.8700678 8.05985889,11.9295811 8.02040962,12.0213877 C7.98096034,12.1131943 7.99994493,12.2196719 8.06869226,12.2921874 L9.42086272,13.7177185 C9.48175475,13.7850003 9.57431448,13.8140192 9.66271957,13.7935443 C9.75112466,13.7730695 9.82150276,13.7063138 9.84661624,13.6191129 C9.87172972,13.5319121 9.84763782,13.4379494 9.78366456,13.3735903 L8.83197664,12.3702164 L8.91150628,12.3702164 C9.52204238,12.3694479 10.0323497,11.905519 10.0911124,11.2978169 L10.2101568,11.2978169 C10.3482794,11.2978169 10.46025,11.1858463 10.46025,11.0477237 C10.46025,10.909601 10.3482794,10.7976305 10.2101568,10.7976305 L10.2101568,10.7976305 Z" id="Path"></path>
                                        <path d="M15.0358791,4.67016844 C14.9025388,4.63747811 14.7673662,4.71670704 14.7307397,4.84902022 C14.6941133,4.98133341 14.7693026,5.11879402 14.9004726,5.15932451 C15.5873222,5.35024771 15.7420241,5.56554409 15.7420241,5.62376889 C15.7420241,5.8356801 14.7484787,6.33262205 12.8223209,6.33262205 C10.8961631,6.33262205 9.90227919,5.8356801 9.90227919,5.62376889 C9.90227919,5.41185768 10.8954861,4.91491573 12.8223209,4.91491573 C13.278011,4.91327001 13.7332001,4.94529052 14.184172,5.01071585 C14.3207124,5.02696147 14.4454239,4.9316984 14.4656644,4.7956928 C14.485905,4.6596872 14.3943381,4.53223723 14.2589841,4.50801912 C13.7832151,4.43916508 13.3030449,4.40522279 12.8223209,4.40643138 C11.1713769,4.40643138 9.39450472,4.78729508 9.39450472,5.62309186 L9.39450472,7.59833455 C9.39450472,8.43413132 11.1713769,8.81496218 12.8223209,8.81496218 C13.9319774,8.81496218 15.0964735,8.64198034 15.7420241,8.27502866 L15.7420241,8.58578663 C15.7420241,8.79769784 14.7484787,9.29463979 12.8223209,9.29463979 C12.6012698,9.29463979 12.3859734,9.28786947 12.1791399,9.27432881 C12.0393289,9.26617631 11.9188055,9.37163431 11.9083269,9.51129023 C11.9035927,9.57868266 11.9259498,9.64517767 11.9704374,9.69602063 C12.014925,9.74686359 12.0778638,9.77784964 12.1452883,9.78210328 C12.3636313,9.79632097 12.5900987,9.80376833 12.8223209,9.80376833 C13.9319774,9.80376833 15.0964735,9.63078649 15.7420241,9.26214223 L15.7420241,9.5729002 C15.7420241,9.78481141 14.7484787,10.2837845 12.8223209,10.2837845 C12.8223209,10.2837845 12.7163653,10.2858156 12.6693115,10.2837845 C12.5311914,10.2847178 12.4171938,10.3920704 12.4079769,10.5298858 C12.4039897,10.670114 12.5142016,10.7871384 12.6544168,10.7915589 L12.823675,10.7915589 C13.9333314,10.7915589 15.0978276,10.6182386 15.7433782,10.2499328 L15.7433782,10.5606908 C15.7433782,10.772602 14.7498328,11.269544 12.823675,11.269544 C12.6834569,11.269544 12.5697877,11.3832131 12.5697877,11.5234312 C12.5697877,11.6636492 12.6834569,11.7773184 12.823675,11.7773184 C13.9333314,11.7773184 15.0978276,11.6039981 15.7433782,11.2373849 L15.7433782,11.5728546 C15.7433782,11.7847658 14.7498328,12.2817077 12.823675,12.2817077 L12.7326141,12.2817077 C12.5954984,12.2876441 12.4848786,12.395929 12.4760187,12.5328868 C12.4747024,12.6730328 12.5870557,12.7878088 12.7271978,12.7894842 L12.823675,12.7894842 C14.4719109,12.7904978 16.248783,12.4096669 16.248783,11.5738701 L16.248783,5.62376889 C16.248783,5.34280035 16.0382259,4.9494444 15.0358791,4.67016844 Z M12.8213054,6.84039652 C13.9309618,6.84039652 15.095458,6.66741469 15.7410086,6.300463 L15.7410086,6.61122098 C15.7410086,6.82313219 14.7474632,7.32210523 12.8213054,7.32210523 C10.8951475,7.32210523 9.90126364,6.82482477 9.90126364,6.61122098 L9.90126364,6.300463 C10.5468143,6.66741469 11.7126644,6.84039652 12.8213054,6.84039652 Z M12.8213054,8.30786474 C10.8944705,8.30786474 9.90126364,7.81092279 9.90126364,7.59901158 L9.90126364,7.2882536 C10.5468143,7.65520529 11.7109719,7.8298797 12.8213054,7.8298797 C13.9316389,7.8298797 15.095458,7.65689787 15.7410086,7.2882536 L15.7410086,7.59901158 C15.7410086,7.81092279 14.7474632,8.30786474 12.8213054,8.30786474 Z" id="Shape"></path>
                                        <path d="M5.34855775,13.0122259 C5.25918944,13.0156111 5.1691441,13.0176422 5.0777447,13.0176422 C2.38654001,13.0176422 0.50777447,11.4736693 0.50777447,9.26315777 C0.50777447,7.46055841 1.7264332,4.79474244 3.54392728,3.69964217 C3.56863897,3.68440893 3.58928847,3.66579054 3.61163055,3.64886472 L5.68707406,3.64886472 C5.82729211,3.64886472 5.9409613,3.53519553 5.9409613,3.39497749 C5.9409613,3.25475944 5.82729211,3.14109025 5.68707406,3.14109025 L3.93186698,3.14109025 C3.96650476,2.95025581 3.92703586,2.75339561 3.82151066,2.59066273 C2.96337181,1.26130916 2.79648326,0.663150839 2.82762676,0.508110367 C2.83089681,0.510024257 2.83468882,0.51085376 2.83845929,0.510479981 C3.21971245,0.513136267 3.59858462,0.570827907 3.96334899,0.681769236 C4.31625758,0.789033151 4.68252493,0.846013137 5.05134042,0.851027392 C5.46829756,0.84079935 5.88244082,0.779638474 6.28455535,0.668905616 C6.60322583,0.581154886 6.93043313,0.528039029 7.26049788,0.510479981 C7.25135794,0.701741698 7.06178881,1.26672543 6.40608271,2.38586036 L4.46841533,2.38586036 C4.32819729,2.38586036 4.2145281,2.49952954 4.2145281,2.63974759 C4.2145281,2.77996564 4.32819729,2.89363483 4.46841533,2.89363483 L6.18198491,2.89363483 C6.16947199,2.98825999 6.17498532,3.08439864 6.19823369,3.17697298 C6.25318948,3.38942624 6.3914509,3.5707647 6.58177268,3.68000822 C7.4956894,4.27522973 8.23682144,5.10053887 8.73067423,6.07298004 C8.77272252,6.15506418 8.85597721,6.20789034 8.94815292,6.21097303 C9.04032864,6.21405572 9.12692675,6.16691005 9.17436533,6.08781867 C9.2218039,6.00872729 9.22262118,5.91013074 9.17650022,5.83026384 C8.63900579,4.77742278 7.83331877,3.88497844 6.84073766,3.24298366 C6.76723043,3.20211805 6.71320343,3.1334562 6.69077493,3.05239898 C6.67327497,2.98430354 6.68440603,2.91201279 6.72157991,2.85233584 C7.99575532,0.732546683 7.7899374,0.368641646 7.70327722,0.211908593 C7.62461093,0.0758312812 7.47714467,-0.00558781385 7.32007676,0.000335897529 C6.93086713,0.0115304953 6.54442677,0.0696102092 6.16912129,0.173317734 C5.80501349,0.274915979 5.42987932,0.33175449 5.05201746,0.34257589 C4.72705807,0.336801943 4.40454138,0.285176479 4.09401629,0.189228 C3.68669896,0.0675940294 3.26421502,0.00422713739 2.83913632,0.00101293016 C2.65381302,-0.0109905697 2.47805547,0.0844582856 2.38721704,0.246437257 C2.30191093,0.40317031 2.075105,0.819545375 3.39565714,2.86486094 C3.43580987,2.92442887 3.44919097,2.99808626 3.43255542,3.06797073 C3.41133895,3.1512673 3.35705488,3.22230119 3.28225417,3.26464871 C1.32021362,4.44844025 0,7.32210523 0,9.26315777 C0,11.7326343 2.13603794,13.5267707 5.0777447,13.5267707 C5.1752374,13.5267707 5.27205306,13.5247396 5.36819169,13.5206774 C5.45889687,13.5171097 5.54080855,13.4654224 5.58307139,13.3850855 C5.62533422,13.3047486 5.62152749,13.2079674 5.57308515,13.1311983 C5.52464281,13.0544291 5.43892441,13.0093352 5.34821923,13.012903 L5.34855775,13.0122259 Z" id="Path"></path>
                                    </g>
                                </g>
                            </g>
                        </g>
                    </g>
                </g>
            </g>
        </g>
    </g>
</svg>