<svg width="25" height="30" viewBox="0 0 25 30" xmlns="http://www.w3.org/2000/svg">
    <g fill-rule="nonzero" fill="none">
        <path fill="#F07281" d="m22.49 27.3-3.06-.82-.82 3.06-2.838-4.917-.606-1.05 2.23-2.226 1.436-.383.606 1.051z"/>
        <path fill="#EB5569" d="m16.923 23.573 2.244 3.887-.557 2.08-3.444-5.967 2.23-2.226z"/>
        <path fill="#F07281" d="m8.905 23.603-.607 1.052-2.82 4.885-.821-3.06-3.06.82 3.052-5.287.606-1.05 1.387.373z"/>
        <g fill="#EB5569">
            <path d="m6.74 21.434-3.063 5.308-2.08.558 3.658-6.337 1.387.373z"/>
            <path d="m6.642 21.336 2.263 2.267-.607 1.052-2.264-2.269-1.385-.373.606-1.05zM19.438 22.015l-1.437.383-2.229 2.225-.606-1.05 2.23-2.226 1.436-.383z"/>
        </g>
        <path fill="#FEE97D" d="m15.121 23.617-3.103-.835-3.106.829-2.27-2.275-3.103-.835-.83-3.105L.44 15.12l.836-3.104-.829-3.105 2.275-2.27.835-3.104 3.105-.829L8.936.44l3.104.835 3.105-.828 2.27 2.275 3.104.835.829 3.105 2.27 2.275-.835 3.103.828 3.106-2.275 2.27-.835 3.103-3.105.83z"/>
        <path fill="#FBD94F" d="m4.479 6.642-2.275 2.27.828 3.105-.835 3.104 2.27 2.275.83 3.105 3.103.835 1.9 1.905-1.388.37-2.27-2.275-3.104-.835-.828-3.105L.44 15.12l.834-3.104-.828-3.105 2.275-2.27.835-3.104L6.66 2.71 8.936.44l1.385.372L8.419 2.71l-3.105.828z"/>
        <path d="M12.029 20.215c-1.81 0-3.6-.62-5.043-1.745a8.085 8.085 0 0 1-2.923-4.561A8.13 8.13 0 0 1 5.07 7.728a8.13 8.13 0 0 1 5.078-3.666 8.2 8.2 0 0 1 1.88-.22c1.81 0 3.602.62 5.044 1.745a8.084 8.084 0 0 1 2.923 4.56c1.037 4.394-1.693 8.811-6.086 9.848a8.2 8.2 0 0 1-1.881.22z" fill="#F9E6CA"/>
        <path d="M12.029 18.393a6.408 6.408 0 0 1-3.922-1.36 6.28 6.28 0 0 1-2.27-3.543 6.32 6.32 0 0 1 .784-4.804 6.319 6.319 0 0 1 3.946-2.851 6.375 6.375 0 0 1 1.463-.172c1.405 0 2.798.483 3.921 1.36a6.28 6.28 0 0 1 2.272 3.543 6.37 6.37 0 0 1-6.194 7.827z" fill="#FEE97D"/>
        <path d="M12.913 18.33c-.294.042-.59.063-.884.063a6.409 6.409 0 0 1-3.922-1.36 6.28 6.28 0 0 1-2.27-3.543 6.318 6.318 0 0 1 .784-4.804 6.322 6.322 0 0 1 3.946-2.851 6.228 6.228 0 0 1 2.337-.109 6.322 6.322 0 0 0-4.526 2.96 6.318 6.318 0 0 0-.784 4.804 6.28 6.28 0 0 0 2.271 3.543 6.435 6.435 0 0 0 3.048 1.297z" fill="#FBD94F"/>
        <path d="m12.326 8.873.85 1.725 1.903.276c.272.04.38.374.184.565l-1.377 1.342.325 1.895a.331.331 0 0 1-.48.35l-1.702-.895-1.702.895a.331.331 0 0 1-.48-.35l.324-1.895-1.377-1.342a.331.331 0 0 1 .184-.565l1.903-.276.85-1.725a.331.331 0 0 1 .595 0z" fill="#FFB850"/>
        <path d="m11.138 11.439 1.377 1.342-.253 1.473-.233-.123-1.702.894a.331.331 0 0 1-.48-.349l.324-1.895-1.376-1.342a.33.33 0 0 1 .183-.565l1.903-.276.85-1.725a.331.331 0 0 1 .595 0l.85 1.725.025.003-1.88.273a.33.33 0 0 0-.183.565z" fill="#F5A30F"/>
        <g fill="#000">
            <path d="M4.287 12.303a.44.44 0 1 0-.878.03c.02.561.096 1.125.226 1.677a8.522 8.522 0 0 0 3.08 4.807 8.683 8.683 0 0 0 5.314 1.838c.664 0 1.331-.078 1.982-.232 4.628-1.093 7.505-5.747 6.413-10.376a8.524 8.524 0 0 0-3.08-4.806 8.68 8.68 0 0 0-5.314-1.839c-.664 0-1.33.079-1.982.232a8.564 8.564 0 0 0-5.35 3.863 8.644 8.644 0 0 0-1.123 2.818.44.44 0 1 0 .862.176A7.768 7.768 0 0 1 5.445 7.96a7.69 7.69 0 0 1 4.805-3.47 7.752 7.752 0 0 1 1.78-.208c1.712 0 3.407.587 4.772 1.653a7.654 7.654 0 0 1 2.767 4.315c.98 4.157-1.603 8.337-5.76 9.319a7.746 7.746 0 0 1-1.78.208 7.8 7.8 0 0 1-4.773-1.652 7.652 7.652 0 0 1-2.766-4.316 7.753 7.753 0 0 1-.203-1.505z"/>
            <path d="M15.715 6.318a6.787 6.787 0 0 0-3.685-1.093c-.523 0-1.049.061-1.564.182a6.76 6.76 0 0 0-4.219 3.048 6.755 6.755 0 0 0-.838 5.136 6.716 6.716 0 0 0 2.428 3.789 6.85 6.85 0 0 0 4.192 1.453 6.79 6.79 0 0 0 1.563-.184 6.758 6.758 0 0 0 4.222-3.046 6.756 6.756 0 0 0 .837-5.137 6.695 6.695 0 0 0-1.396-2.794.44.44 0 1 0-.673.565c.59.703.998 1.521 1.213 2.43a5.883 5.883 0 0 1-.729 4.474 5.885 5.885 0 0 1-3.676 2.653c-.448.106-.906.16-1.361.16a5.967 5.967 0 0 1-3.651-1.267 5.845 5.845 0 0 1-2.114-3.298 5.882 5.882 0 0 1 .73-4.472 5.886 5.886 0 0 1 3.674-2.654c.449-.106.907-.16 1.362-.16a5.91 5.91 0 0 1 3.209.954.44.44 0 0 0 .476-.739z"/>
            <path d="m23.238 12.04.804-2.99a.44.44 0 0 0-.113-.424l-2.187-2.192-.798-2.991a.44.44 0 0 0-.31-.312l-2.99-.804L15.455.135a.44.44 0 0 0-.424-.114L12.04.82 9.05.015a.44.44 0 0 0-.424.113L6.434 2.316l-2.991.798a.44.44 0 0 0-.311.31l-.805 2.99L.135 8.6a.44.44 0 0 0-.114.424l.798 2.992-.804 2.99a.44.44 0 0 0 .113.424l2.188 2.192.798 2.992a.44.44 0 0 0 .31.31l1.164.314-3.371 5.842c-.194.477.05.721.494.644l2.635-.707.707 2.636c.105.392.58.472.805.106l3.33-5.767 2.008-.537a.44.44 0 1 0-.227-.849l-1.925.514-2.091-2.095a.44.44 0 0 0-.197-.114l-2.858-.77-.763-2.86a.44.44 0 0 0-.114-.196L.93 14.99l.769-2.858a.44.44 0 0 0 0-.228l-.763-2.86 2.095-2.091a.44.44 0 0 0 .114-.197l.77-2.858 2.86-.764a.44.44 0 0 0 .197-.113L9.067.93l2.859.769a.44.44 0 0 0 .227 0l2.86-.763 2.091 2.095a.44.44 0 0 0 .197.114l2.859.77.763 2.86a.44.44 0 0 0 .113.197l2.092 2.095-.77 2.859a.44.44 0 0 0 0 .227l.763 2.86-2.095 2.091a.44.44 0 0 0-.114.197l-.769 2.859-2.86.763a.44.44 0 0 0-.197.113l-2.096 2.091-1.878-.505a.44.44 0 0 0-.229.848l2.031.547 3.316 5.743c.188.326.703.347.805-.106l.706-2.636 2.635.707c.472.107.687-.196.494-.645l-3.371-5.839 1.116-.298a.44.44 0 0 0 .31-.31l.805-2.99 2.192-2.187a.44.44 0 0 0 .114-.424l-.798-2.992zM6.717 22.034l-1.32 2.286c-.323.559.48.932.76.44l1.203-2.082.996.998-2.729 4.726-.546-2.036c-.093-.252-.273-.356-.538-.31l-2.035.545 2.959-5.126.947.255.303.304zM21.578 26.6l-2.034-.545c-.266-.046-.445.058-.539.31l-.545 2.036-2.745-4.756.997-.995 1.217 2.109c.369.582 1.084.119.761-.44l-1.334-2.311.267-.267.997-.266 2.958 5.125z"/>
            <path d="M15.765 10.964a.766.766 0 0 0-.622-.525l-1.674-.243-.75-1.517a.766.766 0 0 0-.69-.43.766.766 0 0 0-.691.43l-.75 1.517-1.673.243a.766.766 0 0 0-.622.525.766.766 0 0 0 .195.79l1.211 1.18-.286 1.668c-.05.292.068.58.307.754.265.175.535.195.811.059l1.498-.787 1.497.787a.766.766 0 0 0 .812-.059.766.766 0 0 0 .306-.754l-.286-1.667 1.212-1.18a.766.766 0 0 0 .195-.79zm-2.186 1.503a.44.44 0 0 0-.126.389l.288 1.679-1.508-.793a.44.44 0 0 0-.409 0l-1.508.793.288-1.68a.44.44 0 0 0-.126-.388l-1.22-1.19 1.686-.244a.44.44 0 0 0 .33-.24l.755-1.528.754 1.527a.44.44 0 0 0 .33.24l1.687.246-1.22 1.189z"/>
        </g>
    </g>
</svg>
