<?xml version="1.0" encoding="UTF-8"?>
<svg width="22px" height="22px" viewBox="0 0 22 22" version="1.1" xmlns="http://www.w3.org/2000/svg" xmlns:xlink="http://www.w3.org/1999/xlink">
    <title>ic_search</title>
    <g id="Page-1" stroke="none" stroke-width="1" fill="none" fill-rule="evenodd">
        <g id="01_Mutual-Fund_UM-V-2.0" transform="translate(-501.000000, -516.000000)" fill="#FFFFFF">
            <g id="top-banner" transform="translate(-2.576158, 76.000000)">
                <g id="Group-17" transform="translate(157.576158, 391.000000)">
                    <g id="Group-9" transform="translate(0.000000, 30.000000)">
                        <g id="Group-3" transform="translate(15.000000, 0.000000)">
                            <g id="Find-Properties" transform="translate(312.000000, 0.000000)">
                                <g id="ic_search" transform="translate(19.000000, 19.000000)">
                                    <path d="M22,20.7244213 L15.6980361,14.4173933 C18.649761,10.7423175 18.2114832,5.38984395 14.7015427,2.2477022 C11.1916022,-0.89443955 5.84317877,-0.722291858 2.54106008,2.63910708 C-0.761058613,6.00050601 -0.85670866,11.3701648 2.32358464,14.8478717 C5.50387793,18.3255785 10.8427527,18.6894785 14.4623569,15.6752556 L20.7643208,22 L22,20.7244213 Z M3.7472531,13.832753 C1.15573984,10.9860956 1.25434437,6.59699969 3.97106393,3.87045964 C6.6877835,1.14391959 11.0610707,1.04495862 13.897475,3.64583976 C16.4889883,6.4924972 16.3903838,10.8815931 13.6736642,13.6081331 C10.9569446,16.3346732 6.58365741,16.4336342 3.7472531,13.832753 L3.7472531,13.832753 Z" id="Shape"></path>
                                </g>
                            </g>
                        </g>
                    </g>
                </g>
            </g>
        </g>
    </g>
</svg>