<?xml version="1.0" encoding="UTF-8"?>
<svg width="54px" height="52px" viewBox="0 0 54 52" version="1.1" xmlns="http://www.w3.org/2000/svg" xmlns:xlink="http://www.w3.org/1999/xlink">
    <title>Surat</title>
    <g id="Page-1" stroke="none" stroke-width="1" fill="none" fill-rule="evenodd">
        <g id="011_UM_Personal-loan_City-Wise-V-5.0" transform="translate(-423.000000, -2468.000000)">
            <g id="-City-Wise-Personal-loan-3" transform="translate(0.000000, 1630.000000)">
                <g id="returns-2-copy-3" transform="translate(157.000000, 30.000000)">
                    <g id="city-card-copy-18" transform="translate(237.000000, 779.000000)">
                        <g id="Surat" transform="translate(30.000000, 30.000000)">
                            <path d="M22.3324524,0 C22.1509064,0 22.0037342,0.14717212 22.0037342,0.328718131 L22.0037342,1.97230878 L21.0175798,1.97230878 C19.7487279,1.97230878 18.7165529,3.00448372 18.7165529,4.2733357 L18.7165529,7.89975412 L18.0663485,7.89975412 C17.8848025,7.89975412 17.7376303,8.04692624 17.7376303,8.22847225 C17.7376303,8.41001826 17.8848025,8.55719038 18.0663485,8.55719038 L18.7165529,8.55719038 L18.7165529,9.88126701 L18.4700143,9.88126701 C18.2884683,9.88126701 18.1412962,10.0284391 18.1412962,10.2099851 C18.1412962,10.3915312 18.2884683,10.5387033 18.4700143,10.5387033 L18.7382483,10.5387033 L18.7382483,24.997699 L18.0808121,24.997699 L18.0808121,24.6532024 C18.0808121,24.1088451 17.6238939,23.6650757 17.0946577,23.6723075 L17.0946577,22.8393357 L17.1893285,22.7426926 C17.375383,22.5566381 17.4786004,22.3081272 17.4786004,22.0444953 C17.4786004,21.7808633 17.375383,21.5343247 17.1893285,21.3476128 L16.3399208,20.4982052 C16.2782505,20.4363788 16.1945139,20.4016319 16.1071884,20.4016319 C16.019863,20.4016319 15.9361263,20.4363788 15.874456,20.4982052 L15.0250483,21.3482703 C14.8398502,21.5330301 14.7357701,21.7838815 14.7357701,22.0454814 C14.7357701,22.3070814 14.8398502,22.5579327 15.0250483,22.7426926 L15.121034,22.8393357 L15.121034,23.6677054 C14.5786983,23.6676957 14.1381336,24.105617 14.1348796,24.6479429 L14.1348796,24.997699 L13.4774434,24.997699 L13.4774434,24.6479429 C13.4774434,24.1042431 13.0349888,23.6617885 12.491289,23.6617885 C11.9475892,23.6617885 11.5051346,24.1042431 11.5051346,24.6479429 L11.5051346,24.997699 L10.8476983,24.997699 L10.8476983,24.6479429 C10.8476983,24.1042431 10.4052437,23.6617885 9.86154392,23.6617885 C9.31784414,23.6617885 8.87538953,24.1042431 8.87538953,24.6479429 L8.87538953,24.997699 L8.21795327,24.997699 L8.21795327,24.6479429 C8.21795327,24.1042431 7.77549867,23.6617885 7.23179888,23.6617885 C6.68809909,23.6617885 6.24564448,24.1042431 6.24564448,24.6479429 L6.24564448,24.997699 L5.58820822,24.997699 L5.58820822,24.6479429 C5.58820822,24.1035857 5.13129002,23.6598162 4.60205383,23.667048 L4.60205383,22.8386783 L4.69803953,22.7440075 C4.88409399,22.557953 4.98731148,22.3087847 4.98731148,22.0451527 C4.98780858,21.7835517 4.8836482,21.5326199 4.69803953,21.3482703 L3.84863188,20.4982052 C3.78696155,20.4363788 3.7032249,20.4016319 3.61589944,20.4016319 C3.52857398,20.4016319 3.44483733,20.4363788 3.383167,20.4982052 L2.53375935,21.3482703 C2.34815789,21.5330827 2.24382149,21.7842161 2.24382149,22.0461389 C2.24382149,22.3080616 2.34815789,22.5591951 2.53375935,22.7440075 L2.62843017,22.8393357 L2.62843017,33.7711859 L2.63105992,33.9874824 L2.63105992,49.3425637 L0.328718131,49.3425637 C0.131487252,49.3425637 0,49.474051 0,49.6712819 C0,49.8685127 0.131487252,50 0.328718131,50 L52.2661828,50 C52.4634137,50 52.5949009,49.8685127 52.5949009,49.6712819 C52.5949009,49.474051 52.4634137,49.3425637 52.2661828,49.3425637 L49.9664708,49.3425637 L49.9664708,22.8386783 L50.0611416,22.7420352 C50.247196,22.5559807 50.3504135,22.3081272 50.3504135,22.0451527 C50.3518764,21.7834273 50.2481195,21.5320892 50.0624564,21.3476128 L49.2123914,20.4975478 C49.084027,20.3692221 48.8759483,20.3692221 48.7475839,20.4975478 L47.8975188,21.3476128 C47.7114644,21.5330099 47.6089043,21.7808633 47.6089043,22.0444953 C47.6089043,22.3074698 47.7114644,22.5553233 47.8981763,22.7420352 L47.994162,22.8386783 L47.994162,23.6677054 C47.4515713,23.6676977 47.0109014,24.1060174 47.0080076,24.6486003 L47.0080076,24.9983564 L46.3505713,24.9983564 L46.3505713,24.6486003 C46.3505713,24.1049005 45.9081167,23.6624459 45.3644169,23.6624459 C44.8207171,23.6624459 44.3782625,24.1049005 44.3782625,24.6486003 L44.3782625,24.9983564 L43.7208263,24.9983564 L43.7208263,24.6486003 C43.7208263,24.1049005 43.2783717,23.6624459 42.7346719,23.6624459 C42.1909721,23.6624459 41.7485175,24.1049005 41.7485175,24.6486003 L41.7485175,24.9983564 L41.0910812,24.9983564 L41.0910812,24.6486003 C41.0910812,24.1049005 40.6486266,23.6624459 40.1049268,23.6624459 C39.561227,23.6624459 39.1187724,24.1049005 39.1187724,24.6486003 L39.1187724,24.9983564 L38.4613362,24.9983564 L38.4613362,24.6486003 C38.4613362,24.1042431 38.004418,23.6604736 37.4751818,23.6677054 L37.4751818,22.8393357 L37.5698526,22.74335 C37.7559071,22.5572956 37.8591246,22.3087847 37.8591246,22.0451527 C37.8591246,21.7815208 37.7559071,21.5349822 37.5698526,21.3482703 L36.720445,20.4988626 C36.6587746,20.4370362 36.575038,20.4022893 36.4877125,20.4022893 C36.4003871,20.4022893 36.3166504,20.4370362 36.2549801,20.4988626 L35.4055724,21.3489277 C35.2203743,21.5336876 35.1162942,21.7845389 35.1162942,22.0461389 C35.1162942,22.3077388 35.2203743,22.5585902 35.4055724,22.74335 L35.5015581,22.8399932 L35.5015581,23.6729649 C34.9589675,23.6729572 34.5182975,24.1112769 34.5154037,24.6538598 L34.5154037,24.9983564 L33.8579675,24.9983564 L33.8579675,10.3894652 C33.8956576,10.3370507 33.9167299,10.2745209 33.9184516,10.2099851 C33.9174645,10.131626 33.8882915,10.056243 33.8362721,9.99763323 L33.8362721,8.55719038 L34.4739852,8.55719038 C34.6555313,8.55719038 34.8027034,8.41001826 34.8027034,8.22847225 C34.8027034,8.04692624 34.6555313,7.89975412 34.4739852,7.89975412 L33.8375869,7.89975412 L33.8375869,4.2733357 C33.8375869,3.00448372 32.805412,1.97230878 31.53656,1.97230878 L31.2078419,1.97230878 L31.2078419,0.328718131 C31.2078419,0.14717212 31.0606698,0 30.8791238,0 C30.6975778,0 30.5504056,0.14717212 30.5504056,0.328718131 L30.5504056,1.97230878 L22.6611705,1.97230878 L22.6611705,0.328718131 C22.6611705,0.14717212 22.5139984,0 22.3324524,0 L22.3324524,0 Z M21.0175798,2.62974505 L31.53656,2.62974505 C32.330743,2.62974505 32.9940962,3.19514023 33.1466214,3.94461757 L19.4075184,3.94461757 C19.5600437,3.19514023 20.2227394,2.62974505 21.0175798,2.62974505 Z M19.3739892,4.62309179 L33.1801507,4.62309179 L33.1801507,7.90106899 L19.3739892,7.90106899 L19.3739892,4.62309179 Z M19.3739892,8.55719038 L20.0084152,8.55719038 L20.0084152,9.86811829 L19.3739892,9.86811829 L19.3739892,8.55719038 Z M20.6658514,8.55719038 L21.9780942,8.55719038 L21.9780942,9.86811829 L20.6658514,9.86811829 L20.6658514,8.55719038 Z M22.6355305,8.55719038 L23.9464584,8.55719038 L23.9464584,9.86811829 L22.6355305,9.86811829 L22.6355305,8.55719038 L22.6355305,8.55719038 Z M24.6038947,8.55719038 L25.9161374,8.55719038 L25.9161374,9.86811829 L24.6038947,9.86811829 L24.6038947,8.55719038 Z M26.5735737,8.55719038 L27.8831867,8.55719038 L27.8831867,9.86811829 L26.5735737,9.86811829 L26.5735737,8.55719038 L26.5735737,8.55719038 Z M28.540623,8.55719038 L29.8528658,8.55719038 L29.8528658,9.86811829 L28.540623,9.86811829 L28.540623,8.55719038 Z M30.510302,8.55719038 L31.8225448,8.55719038 L31.8225448,9.86811829 L30.510302,9.86811829 L30.510302,8.55719038 Z M32.4799811,8.55719038 L33.1801507,8.55719038 L33.1801507,9.86811829 L32.4799811,9.86811829 L32.4799811,8.55719038 Z M19.3956846,10.5400181 L22.6828659,10.5400181 L22.6828659,23.7281896 C22.5775916,23.6892569 22.4663852,23.6687949 22.3541478,23.6677054 C21.810448,23.6677054 21.3679934,24.11016 21.3679934,24.6538598 L21.3679934,24.9983564 L20.7105571,24.9983564 L20.7105571,24.6538598 C20.7105571,24.11016 20.2681025,23.6677054 19.7244027,23.6677054 C19.6086939,23.6677054 19.4989021,23.6913731 19.3956846,23.7281896 L19.3956846,10.5406756 L19.3956846,10.5400181 Z M23.3403022,10.5400181 L29.2572285,10.5400181 L29.2572285,24.997699 L28.5997923,24.997699 L28.5997923,24.6532024 C28.5997923,24.1095026 28.1573376,23.667048 27.6136379,23.667048 C27.0699381,23.667048 26.6274835,24.1095026 26.6274835,24.6532024 L26.6274835,24.997699 L25.9700472,24.997699 L25.9700472,24.6532024 C25.9700472,24.1095026 25.5275926,23.667048 24.9838928,23.667048 C24.440193,23.667048 23.9977384,24.1095026 23.9977384,24.6532024 L23.9977384,24.997699 L23.3403022,24.997699 L23.3403022,10.5400181 Z M29.9146648,10.5400181 L33.2018461,10.5400181 L33.2018461,23.7281896 C33.0965718,23.6892569 32.9853654,23.6687949 32.873128,23.6677054 C32.3294282,23.6677054 31.8869736,24.11016 31.8869736,24.6538598 L31.8869736,24.9983564 L31.2295373,24.9983564 L31.2295373,24.6538598 C31.2295373,24.11016 30.7870827,23.6677054 30.2433829,23.6677054 C30.1276741,23.6677054 30.0178823,23.6913731 29.9146648,23.7281896 L29.9146648,10.5406756 L29.9146648,10.5400181 Z M3.61721431,21.1950876 L4.23323209,21.8124203 C4.29568853,21.8748767 4.32988943,21.9570563 4.32988943,22.0451527 C4.33069144,22.1322003 4.29631559,22.2158878 4.23454696,22.2772277 L4.13856127,22.3738709 L3.09455248,22.3738709 L2.99922423,22.2772277 C2.93694693,22.2159321 2.90187619,22.132206 2.90187619,22.044824 C2.90187619,21.957442 2.93694693,21.8737159 2.99922423,21.8124203 L3.61721431,21.1944302 L3.61721431,21.1950876 Z M16.1085033,21.1950876 L16.7245211,21.8124203 C16.7869775,21.8748767 16.8211784,21.9570563 16.8211784,22.0451527 C16.8219804,22.1322003 16.7876046,22.2158878 16.7258359,22.2772277 L16.6298502,22.3738709 L15.5858415,22.3738709 L15.4905132,22.2772277 C15.4282359,22.2159321 15.3931652,22.132206 15.3931652,22.044824 C15.3931652,21.957442 15.4282359,21.8737159 15.4905132,21.8124203 L16.1085033,21.1944302 L16.1085033,21.1950876 Z M36.4890274,21.1950876 L37.1050452,21.8124203 C37.1675016,21.8748767 37.2017025,21.9570563 37.2017025,22.0451527 C37.2025045,22.1322003 37.1681287,22.2158878 37.10636,22.2772277 L37.0103743,22.3738709 L35.9663656,22.3738709 L35.8716947,22.2772277 C35.8094174,22.2159321 35.7743467,22.132206 35.7743467,22.044824 C35.7743467,21.957442 35.8094174,21.8737159 35.8716947,21.8124203 L36.4890274,21.1944302 L36.4890274,21.1950876 Z M48.9803164,21.1950876 L49.5963341,21.8124203 C49.6587906,21.8748767 49.6929915,21.9570563 49.6929915,22.0451527 C49.6937935,22.1322003 49.6594176,22.2158878 49.597649,22.2772277 L49.5016633,22.3738709 L48.4576545,22.3738709 L48.3629837,22.2772277 C48.3007064,22.2159321 48.2656357,22.132206 48.2656357,22.044824 C48.2656357,21.957442 48.3007064,21.8737159 48.3629837,21.8124203 L48.9803164,21.1944302 L48.9803164,21.1950876 Z M3.28849618,23.0313071 L3.94593244,23.0313071 L3.94593244,25.0036159 L3.28849618,25.0036159 L3.28849618,23.0313071 Z M15.7797851,23.0313071 L16.4372214,23.0313071 L16.4372214,25.0036159 L15.7797851,25.0036159 L15.7797851,23.0313071 Z M36.1603093,23.0313071 L36.8177455,23.0313071 L36.8177455,25.0036159 L36.1603093,25.0036159 L36.1603093,23.0313071 Z M48.6515982,23.0313071 L49.3090345,23.0313071 L49.3090345,25.0036159 L48.6515982,25.0036159 L48.6515982,23.0313071 Z M4.6033687,24.3198822 C4.78416368,24.3198822 4.93208683,24.4678053 4.93208683,24.6486003 L4.93208683,24.9773184 L4.6033687,24.9773184 L4.6033687,24.3198822 Z M7.23311375,24.3198822 C7.41390872,24.3198822 7.56183188,24.4678053 7.56183188,24.6486003 L7.56183188,24.9773184 L6.90439562,24.9773184 L6.90439562,24.6486003 C6.90439562,24.4678053 7.05231878,24.3198822 7.23311375,24.3198822 Z M9.8628588,24.3198822 C10.0436538,24.3198822 10.1915769,24.4678053 10.1915769,24.6486003 L10.1915769,24.9773184 L9.53414067,24.9773184 L9.53414067,24.6486003 C9.53414067,24.4678053 9.68206382,24.3198822 9.8628588,24.3198822 Z M12.4926038,24.3198822 C12.6733988,24.3198822 12.821322,24.4678053 12.821322,24.6486003 L12.821322,24.9773184 L12.1638857,24.9773184 L12.1638857,24.6486003 C12.1638857,24.4678053 12.3118089,24.3198822 12.4926038,24.3198822 Z M15.1223489,24.3198822 L15.1223489,24.9773184 L14.7936308,24.9773184 L14.7936308,24.6486003 C14.7936308,24.4678053 14.9415539,24.3198822 15.1223489,24.3198822 Z M37.4751818,24.3198822 C37.6559768,24.3198822 37.8038999,24.4678053 37.8038999,24.6486003 L37.8038999,24.9773184 L37.4751818,24.9773184 L37.4751818,24.3198822 Z M40.1049268,24.3198822 C40.2857218,24.3198822 40.433645,24.4678053 40.433645,24.6486003 L40.433645,24.9773184 L39.7762087,24.9773184 L39.7762087,24.6486003 C39.7762087,24.4678053 39.9241319,24.3198822 40.1049268,24.3198822 Z M42.7346719,24.3198822 C42.9154668,24.3198822 43.06339,24.4678053 43.06339,24.6486003 L43.06339,24.9773184 L42.4059537,24.9773184 L42.4059537,24.6486003 C42.4059537,24.4678053 42.5538769,24.3198822 42.7346719,24.3198822 Z M45.3644169,24.3198822 C45.5452119,24.3198822 45.6931351,24.4678053 45.6931351,24.6486003 L45.6931351,24.9773184 L45.0356988,24.9773184 L45.0356988,24.6486003 C45.0356988,24.4678053 45.1836219,24.3198822 45.3644169,24.3198822 Z M47.994162,24.3198822 L47.994162,24.9773184 L47.6654438,24.9773184 L47.6654438,24.6486003 C47.6654438,24.4678053 47.813367,24.3198822 47.994162,24.3198822 Z M17.0946577,24.3251417 C17.2754526,24.3251417 17.4233758,24.4730648 17.4233758,24.6538598 L17.4233758,24.9825779 L17.0946577,24.9825779 L17.0946577,24.3251417 Z M19.7244027,24.3251417 C19.9059487,24.3251417 20.0531208,24.4723138 20.0531208,24.6538598 L20.0531208,24.9825779 L19.3956846,24.9825779 L19.3956846,24.6538598 C19.3956846,24.4730648 19.5436077,24.3251417 19.7244027,24.3251417 Z M22.3541478,24.3251417 C22.5356938,24.3251417 22.6828659,24.4723138 22.6828659,24.6538598 L22.6828659,24.9825779 L22.0254296,24.9825779 L22.0254296,24.6538598 C22.0254296,24.4730648 22.1733528,24.3251417 22.3541478,24.3251417 Z M24.9838928,24.3251417 C25.1654388,24.3251417 25.3126109,24.4723138 25.3126109,24.6538598 L25.3126109,24.9825779 L24.6551747,24.9825779 L24.6551747,24.6538598 C24.6551747,24.4730648 24.8030978,24.3251417 24.9838928,24.3251417 Z M27.6136379,24.3251417 C27.7951839,24.3251417 27.942356,24.4723138 27.942356,24.6538598 L27.942356,24.9825779 L27.2849197,24.9825779 L27.2849197,24.6538598 C27.2849197,24.4730648 27.4328429,24.3251417 27.6136379,24.3251417 Z M30.2433829,24.3251417 C30.4249289,24.3251417 30.572101,24.4723138 30.572101,24.6538598 L30.572101,24.9825779 L29.9146648,24.9825779 L29.9146648,24.6538598 C29.9146648,24.4730648 30.0625879,24.3251417 30.2433829,24.3251417 Z M32.873128,24.3251417 C33.054674,24.3251417 33.2018461,24.4723138 33.2018461,24.6538598 L33.2018461,24.9825779 L32.5444098,24.9825779 L32.5444098,24.6538598 C32.5444098,24.4730648 32.692333,24.3251417 32.873128,24.3251417 Z M35.502873,24.3251417 L35.502873,24.9825779 L35.1741549,24.9825779 L35.1741549,24.6538598 C35.1741549,24.4730648 35.322078,24.3251417 35.502873,24.3251417 Z M3.28849618,25.6610522 L3.94593244,25.6610522 L3.94593244,27.6333609 L3.28849618,27.6333609 L3.28849618,25.6610522 Z M4.6033687,25.6610522 L15.1223489,25.6610522 L15.1223489,27.6333609 L4.6033687,27.6333609 L4.6033687,25.6610522 Z M15.7797851,25.6610522 L16.4372214,25.6610522 L16.4372214,27.6333609 L15.7797851,27.6333609 L15.7797851,25.6610522 Z M17.0946577,25.6610522 L35.502873,25.6610522 L35.502873,27.6333609 L17.0946577,27.6333609 L17.0946577,25.6610522 Z M36.1603093,25.6610522 L36.8177455,25.6610522 L36.8177455,27.6333609 L36.1603093,27.6333609 L36.1603093,25.6610522 Z M37.4751818,25.6610522 L47.994162,25.6610522 L47.994162,27.6333609 L37.4751818,27.6333609 L37.4751818,25.6610522 Z M48.6515982,25.6610522 L49.3090345,25.6610522 L49.3090345,27.6333609 L48.6515982,27.6333609 L48.6515982,25.6610522 Z M5.54481743,26.3132289 C5.37231423,26.3253333 5.23868541,26.4690202 5.23910856,26.6419471 C5.23910856,26.8234931 5.38628169,26.9706652 5.5678277,26.9706652 C5.74937371,26.9706652 5.89654583,26.8234931 5.89654583,26.6419471 C5.89654583,26.4604011 5.74937371,26.3132289 5.5678277,26.3132289 C5.56015996,26.3129604 5.55248517,26.3129604 5.54481743,26.3132289 Z M9.81815313,26.3132289 C9.64564993,26.3253333 9.51202111,26.4690202 9.51244426,26.6419471 C9.51244426,26.8234931 9.65961739,26.9706652 9.8411634,26.9706652 C10.0227094,26.9706652 10.1698815,26.8234931 10.1698815,26.6419471 C10.1698815,26.4604011 10.0227094,26.3132289 9.8411634,26.3132289 C9.83349566,26.3129604 9.82582087,26.3129604 9.81815313,26.3132289 Z M14.0914888,26.3132289 C13.9189856,26.3253333 13.7853568,26.4690202 13.78578,26.6419471 C13.78578,26.8234931 13.9329531,26.9706652 14.1144991,26.9706652 C14.2960451,26.9706652 14.4432172,26.8234931 14.4432172,26.6419471 C14.4432172,26.4604011 14.2960451,26.3132289 14.1144991,26.3132289 C14.1068314,26.3129604 14.0991566,26.3129604 14.0914888,26.3132289 Z M18.0558295,26.3132289 C17.8841058,26.3263171 17.7515959,26.4697261 17.7520925,26.6419471 C17.7520925,26.8234931 17.8992661,26.9706652 18.0808121,26.9706652 C18.2623581,26.9706652 18.4095302,26.8234931 18.4095302,26.6419471 C18.4095302,26.4604011 18.2623581,26.3132289 18.0808121,26.3132289 C18.0727065,26.3129288 18.0645925,26.3129288 18.0564869,26.3132289 L18.0558295,26.3132289 Z M23.3153196,26.3132289 C23.1435959,26.3263171 23.011086,26.4697261 23.0115826,26.6419471 C23.0115826,26.8234931 23.1587561,26.9706652 23.3403022,26.9706652 C23.5218482,26.9706652 23.6690203,26.8234931 23.6690203,26.6419471 C23.6690203,26.4604011 23.5218482,26.3132289 23.3403022,26.3132289 C23.3321966,26.3129288 23.3240826,26.3129288 23.315977,26.3132289 L23.3153196,26.3132289 Z M29.2322459,26.3132289 C29.0605223,26.3263171 28.9280123,26.4697261 28.928509,26.6419471 C28.928509,26.8234931 29.0756825,26.9706652 29.2572285,26.9706652 C29.4387745,26.9706652 29.5859466,26.8234931 29.5859466,26.6419471 C29.5859466,26.4604011 29.4387745,26.3132289 29.2572285,26.3132289 C29.2491229,26.3129288 29.241009,26.3129288 29.2329034,26.3132289 L29.2322459,26.3132289 Z M34.491736,26.3132289 C34.3200124,26.3263171 34.1875024,26.4697261 34.1879991,26.6419471 C34.1879991,26.8234931 34.3351726,26.9706652 34.5167186,26.9706652 C34.6982646,26.9706652 34.8454367,26.8234931 34.8454367,26.6419471 C34.8454367,26.4604011 34.6982646,26.3132289 34.5167186,26.3132289 C34.508613,26.3129288 34.5004991,26.3129288 34.4923935,26.3132289 L34.491736,26.3132289 Z M38.4363536,26.3132289 C38.26463,26.3263171 38.13212,26.4697261 38.1326166,26.6419471 C38.1326166,26.8234931 38.2797902,26.9706652 38.4613362,26.9706652 C38.6428822,26.9706652 38.7900543,26.8234931 38.7900543,26.6419471 C38.7900543,26.4604011 38.6428822,26.3132289 38.4613362,26.3132289 C38.4532306,26.3129288 38.4451166,26.3129288 38.437011,26.3132289 L38.4363536,26.3132289 Z M42.6899662,26.3132289 C42.517463,26.3253333 42.3838342,26.4690202 42.3842573,26.6419471 C42.3842573,26.8234931 42.5314305,26.9706652 42.7129765,26.9706652 C42.8945225,26.9706652 43.0416946,26.8234931 43.0416946,26.6419471 C43.0416946,26.4604011 42.8945225,26.3132289 42.7129765,26.3132289 C42.7053087,26.3129604 42.6976339,26.3129604 42.6899662,26.3132289 Z M46.983025,26.3132289 C46.8113014,26.3263171 46.6787914,26.4697261 46.679288,26.6419471 C46.679288,26.8234931 46.8264616,26.9706652 47.0080076,26.9706652 C47.1895536,26.9706652 47.3367257,26.8234931 47.3367257,26.6419471 C47.3367257,26.4604011 47.1895536,26.3132289 47.0080076,26.3132289 C46.999902,26.3129288 46.991788,26.3129288 46.9836824,26.3132289 L46.983025,26.3132289 Z M6.88270022,26.3184884 C6.70115421,26.3184884 6.55398209,26.4656605 6.55398209,26.6472066 C6.55398209,26.8287526 6.70115421,26.9759247 6.88270022,26.9759247 L8.52629088,26.9759247 C8.70783689,26.9759247 8.85500901,26.8287526 8.85500901,26.6472066 C8.85500901,26.4656605 8.70783689,26.3184884 8.52629088,26.3184884 L6.88270022,26.3184884 Z M11.1560359,26.3184884 C10.9744899,26.3184884 10.8273178,26.4656605 10.8273178,26.6472066 C10.8273178,26.8287526 10.9744899,26.9759247 11.1560359,26.9759247 L12.7996266,26.9759247 C12.9811726,26.9759247 13.1283447,26.8287526 13.1283447,26.6472066 C13.1283447,26.4656605 12.9811726,26.3184884 12.7996266,26.3184884 L11.1560359,26.3184884 Z M19.3956846,26.3184884 C19.2141386,26.3184884 19.0669665,26.4656605 19.0669665,26.6472066 C19.0669665,26.8287526 19.2141386,26.9759247 19.3956846,26.9759247 L22.0254296,26.9759247 C22.2069756,26.9759247 22.3541478,26.8287526 22.3541478,26.6472066 C22.3541478,26.4656605 22.2069756,26.3184884 22.0254296,26.3184884 L19.3956846,26.3184884 Z M24.6551747,26.3184884 C24.4736287,26.3184884 24.3264566,26.4656605 24.3264566,26.6472066 C24.3264566,26.8287526 24.4736287,26.9759247 24.6551747,26.9759247 L27.942356,26.9759247 C28.123902,26.9759247 28.2710741,26.8287526 28.2710741,26.6472066 C28.2710741,26.4656605 28.123902,26.3184884 27.942356,26.3184884 L24.6551747,26.3184884 Z M30.572101,26.3184884 C30.390555,26.3184884 30.2433829,26.4656605 30.2433829,26.6472066 C30.2433829,26.8287526 30.390555,26.9759247 30.572101,26.9759247 L33.2018461,26.9759247 C33.3833921,26.9759247 33.5305642,26.8287526 33.5305642,26.6472066 C33.5305642,26.4656605 33.3833921,26.3184884 33.2018461,26.3184884 L30.572101,26.3184884 Z M39.7762087,26.3184884 C39.5946627,26.3184884 39.4474906,26.4656605 39.4474906,26.6472066 C39.4474906,26.8287526 39.5946627,26.9759247 39.7762087,26.9759247 L41.4197994,26.9759247 C41.6013454,26.9759247 41.7485175,26.8287526 41.7485175,26.6472066 C41.7485175,26.4656605 41.6013454,26.3184884 41.4197994,26.3184884 L39.7762087,26.3184884 Z M44.0495444,26.3184884 C43.8679984,26.3184884 43.7208263,26.4656605 43.7208263,26.6472066 C43.7208263,26.8287526 43.8679984,26.9759247 44.0495444,26.9759247 L45.6931351,26.9759247 C45.8746811,26.9759247 46.0218532,26.8287526 46.0218532,26.6472066 C46.0218532,26.4656605 45.8746811,26.3184884 45.6931351,26.3184884 L44.0495444,26.3184884 Z M3.28849618,28.2907972 L3.94593244,28.2907972 L3.94593244,33.5502873 L3.28849618,33.5502873 L3.28849618,28.2907972 Z M4.6033687,28.2907972 L15.1223489,28.2907972 L15.1223489,32.2400168 C14.579503,32.2400109 14.1387278,32.6787292 14.1361945,33.2215692 L14.1361945,33.5450278 L13.4787582,33.5450278 L13.4787582,33.2215692 C13.4787582,32.6778694 13.0363036,32.2354148 12.4926038,32.2354148 C11.9489041,32.2354148 11.5064494,32.6778694 11.5064494,33.2215692 L11.5064494,33.5450278 L10.8490132,33.5450278 L10.8490132,33.2215692 C10.8490132,32.6778694 10.4065586,32.2354148 9.8628588,32.2354148 C9.31915901,32.2354148 8.8767044,32.6778694 8.8767044,33.2215692 L8.8767044,33.5450278 L8.21926814,33.5450278 L8.21926814,33.2215692 C8.21926814,32.6778694 7.77681354,32.2354148 7.23311375,32.2354148 C6.68941396,32.2354148 6.24695936,32.6778694 6.24695936,33.2215692 L6.24695936,33.5450278 L5.5895231,33.5450278 L5.5895231,33.2215692 C5.5895231,32.6772119 5.13260489,32.232785 4.6033687,32.2400168 L4.6033687,28.2914546 L4.6033687,28.2907972 Z M15.7797851,28.2907972 L16.4372214,28.2907972 L16.4372214,33.5502873 L15.7797851,33.5502873 L15.7797851,28.2907972 Z M17.0946577,28.2907972 L24.5907459,28.2907972 L20.8413869,29.7897519 C19.9659594,30.1369214 19.3923583,30.9846719 19.3956846,31.9264197 L19.3956846,32.2952415 C19.0137141,32.4313308 18.7382483,32.7935782 18.7382483,33.2215692 L18.7382483,33.5502873 L18.0808121,33.5502873 L18.0808121,33.2215692 C18.0808121,32.6772119 17.6238939,32.232785 17.0946577,32.2400168 L17.0946577,28.2914546 L17.0946577,28.2907972 Z M28.0054699,28.2907972 L35.502873,28.2907972 L35.502873,32.2400168 C34.9600271,32.2400109 34.5192519,32.6787292 34.5167186,33.2215692 L34.5167186,33.5502873 L33.8592823,33.5502873 L33.8592823,33.2215692 C33.8592823,32.7935782 33.5838165,32.4313308 33.2018461,32.2952415 L33.2018461,31.9270772 C33.2045904,30.9851155 32.6305317,30.1374595 31.7548289,29.7904093 L28.0054699,28.2907972 L28.0054699,28.2907972 Z M36.1603093,28.2907972 L36.8177455,28.2907972 L36.8177455,33.5502873 L36.1603093,33.5502873 L36.1603093,28.2907972 Z M37.4751818,28.2907972 L41.6531892,28.2907972 L40.4671742,29.0862951 C39.829177,29.5134569 39.4466111,30.2309837 39.4474906,30.9987772 L39.4474906,32.46486 C39.2469725,32.645655 39.1187724,32.9053423 39.1187724,33.1952717 L39.1187724,33.5450278 L38.4613362,33.5450278 L38.4613362,33.2163097 C38.4613362,32.6719525 38.004418,32.228183 37.4751818,32.2354148 L37.4751818,28.2907972 L37.4751818,28.2907972 Z M43.8148397,28.2907972 L47.994162,28.2907972 L47.994162,32.2143768 C47.4515713,32.2143691 47.0109014,32.6526888 47.0080076,33.1952717 L47.0080076,33.5450278 L46.3505713,33.5450278 L46.3505713,33.1952717 C46.3505713,32.9046849 46.2223712,32.645655 46.0218532,32.4655175 L46.0218532,30.9987772 C46.0222042,30.2307934 45.6391728,29.5133186 45.0008547,29.0862951 L43.8148397,28.2907972 L43.8148397,28.2907972 Z M48.6515982,28.2907972 L49.3090345,28.2907972 L49.3090345,33.5502873 L48.6515982,33.5502873 L48.6515982,28.2907972 Z M26.2987653,28.3164372 L31.51092,30.4005102 C32.1361858,30.6488908 32.5460401,31.2542863 32.5444147,31.9270772 L32.5444147,32.2952415 C32.1624394,32.4313308 31.8869736,32.7935782 31.8869736,33.2215692 L31.8869736,33.5502873 L31.2295373,33.5502873 L31.2295373,33.2215692 C31.2295373,32.6778694 30.7870827,32.2354148 30.2433829,32.2354148 C29.6996831,32.2354148 29.2572285,32.6778694 29.2572285,33.2215692 L29.2572285,33.5502873 L28.5997923,33.5502873 L28.5997923,33.2215692 C28.5997923,32.6778694 28.1573376,32.2354148 27.6136379,32.2354148 C27.0699381,32.2354148 26.6274835,32.6778694 26.6274835,33.2215692 L26.6274835,33.5502873 L25.9700472,33.5502873 L25.9700472,33.2215692 C25.9700472,32.6778694 25.5275926,32.2354148 24.9838928,32.2354148 C24.440193,32.2354148 23.9977384,32.6778694 23.9977384,33.2215692 L23.9977384,33.5502873 L23.3403022,33.5502873 L23.3403022,33.2215692 C23.3403022,32.6778694 22.8978476,32.2354148 22.3541478,32.2354148 C21.810448,32.2354148 21.3679934,32.6778694 21.3679934,33.2215692 L21.3679934,33.5502873 L20.7105571,33.5502873 L20.7105571,33.2215692 C20.7105571,32.7935782 20.4350913,32.4313308 20.0531119,32.2952415 L20.0531119,31.9270772 C20.0509091,31.2545 20.4603057,30.6490103 21.0852958,30.4005102 L26.2987653,28.3164372 L26.2987653,28.3164372 Z M42.7346719,28.3571983 L44.636635,29.6326246 C45.0918149,29.9381998 45.3647503,30.4505393 45.3644172,30.9987772 L45.3644172,32.2091173 C44.8207171,32.2091173 44.3782625,32.6515719 44.3782625,33.1952717 L44.3782625,33.5450278 L43.7208263,33.5450278 L43.7208263,33.1952717 C43.7208263,32.6515719 43.2783717,32.2091173 42.7346719,32.2091173 C42.1909721,32.2091173 41.7485175,32.6515719 41.7485175,33.1952717 L41.7485175,33.5450278 L41.0910812,33.5450278 L41.0910812,33.1952717 C41.0910812,32.6515719 40.6486266,32.2091173 40.1049253,32.2091173 L40.1049253,30.9987772 C40.1041824,30.4507584 40.3766247,29.9384189 40.8313939,29.6326246 L42.7346719,28.3571983 L42.7346719,28.3571983 Z M40.1049268,32.867211 C40.2857218,32.867211 40.433645,33.0144767 40.433645,33.1959292 L40.433645,33.5246473 L39.7762087,33.5246473 L39.7762087,33.1959292 C39.7762087,33.0144767 39.9241319,32.867211 40.1049268,32.867211 Z M42.7346719,32.867211 C42.9154668,32.867211 43.06339,33.0144767 43.06339,33.1959292 L43.06339,33.5246473 L42.4059537,33.5246473 L42.4059537,33.1959292 C42.4059537,33.0144767 42.5538769,32.867211 42.7346719,32.867211 Z M45.3644169,32.867211 C45.5452119,32.867211 45.6931351,33.0144767 45.6931351,33.1959292 L45.6931351,33.5246473 L45.0356988,33.5246473 L45.0356988,33.1959292 C45.0356988,33.0144767 45.1836219,32.867211 45.3644169,32.867211 Z M47.994162,32.867211 L47.994162,33.5246473 L47.6654438,33.5246473 L47.6654438,33.1959292 C47.6654438,33.0144767 47.813367,32.867211 47.994162,32.867211 Z M37.4751818,32.8869341 C37.6559768,32.8869341 37.8038999,33.0355147 37.8038999,33.2156522 L37.8038999,33.5443704 L37.4751818,33.5443704 L37.4751818,32.8869341 Z M4.6033687,32.892851 C4.78416368,32.892851 4.93208683,33.0407742 4.93208683,33.2215692 L4.93208683,33.5450278 L4.6033687,33.5450278 L4.6033687,32.892851 Z M7.23311375,32.892851 C7.41390872,32.892851 7.56183188,33.0407742 7.56183188,33.2215692 L7.56183188,33.5450278 L6.90439562,33.5450278 L6.90439562,33.2215692 C6.90439562,33.0407742 7.05231878,32.892851 7.23311375,32.892851 Z M9.8628588,32.892851 C10.0436538,32.892851 10.1915769,33.0407742 10.1915769,33.2215692 L10.1915769,33.5450278 L9.53414067,33.5450278 L9.53414067,33.2215692 C9.53414067,33.0407742 9.68206382,32.892851 9.8628588,32.892851 Z M12.4926038,32.892851 C12.6733988,32.892851 12.821322,33.0407742 12.821322,33.2215692 L12.821322,33.5450278 L12.1638857,33.5450278 L12.1638857,33.2215692 C12.1638857,33.0407742 12.3118089,32.892851 12.4926038,32.892851 Z M15.1223489,32.892851 L15.1223489,33.5450278 L14.7936308,33.5450278 L14.7936308,33.2215692 C14.7936308,33.0407742 14.9415539,32.892851 15.1223489,32.892851 Z M17.0946577,32.892851 C17.2762037,32.892851 17.4233758,33.0400232 17.4233758,33.2215692 L17.4233758,33.5502873 L17.0946577,33.5502873 L17.0946577,32.892851 Z M19.7244027,32.892851 C19.9051977,32.892851 20.0531208,33.0407742 20.0531208,33.2215692 L20.0531208,33.5502873 L19.3956846,33.5502873 L19.3956846,33.2215692 C19.3956846,33.0407742 19.5436077,32.892851 19.7244027,32.892851 Z M22.3541478,32.892851 C22.5349427,32.892851 22.6828659,33.0407742 22.6828659,33.2215692 L22.6828659,33.5502873 L22.0254296,33.5502873 L22.0254296,33.2215692 C22.0254296,33.0407742 22.1733528,32.892851 22.3541478,32.892851 Z M24.9838928,32.892851 C25.1646878,32.892851 25.3126109,33.0407742 25.3126109,33.2215692 L25.3126109,33.5502873 L24.6551747,33.5502873 L24.6551747,33.2215692 C24.6551747,33.0407742 24.8030978,32.892851 24.9838928,32.892851 Z M27.6136379,32.892851 C27.7944328,32.892851 27.942356,33.0407742 27.942356,33.2215692 L27.942356,33.5502873 L27.2849197,33.5502873 L27.2849197,33.2215692 C27.2849197,33.0407742 27.4328429,32.892851 27.6136379,32.892851 Z M30.2433829,32.892851 C30.4241779,32.892851 30.572101,33.0407742 30.572101,33.2215692 L30.572101,33.5502873 L29.9146648,33.5502873 L29.9146648,33.2215692 C29.9146648,33.0407742 30.0625879,32.892851 30.2433829,32.892851 Z M32.873128,32.892851 C33.0539229,32.892851 33.2018461,33.0407742 33.2018461,33.2215692 L33.2018461,33.5502873 L32.5444098,33.5502873 L32.5444098,33.2215692 C32.5444098,33.0407742 32.692333,32.892851 32.873128,32.892851 Z M35.502873,32.892851 L35.502873,33.5502873 L35.1741549,33.5502873 L35.1741549,33.2215692 C35.1741549,33.0407742 35.322078,32.892851 35.502873,32.892851 Z M3.28849618,34.2077236 L3.94593244,34.2077236 L3.94593244,49.3287576 L3.28849618,49.3287576 L3.28849618,34.2077236 Z M4.6033687,34.2077236 L6.57567749,34.2077236 L6.57567749,49.3287576 L4.6033687,49.3287576 L4.6033687,34.2077236 Z M7.23311375,34.2077236 L12.4926038,34.2077236 L12.4926038,36.3904119 C12.337939,36.2309908 12.1610063,36.0948035 11.9673123,35.9860886 L10.0219584,34.9019763 C9.92261713,34.8467336 9.80178559,34.8467336 9.70244435,34.9019763 L7.75643301,35.9860886 C7.5635263,36.0950997 7.3872854,36.2312657 7.23311375,36.3904119 L7.23311375,34.2077236 Z M13.1500401,34.2077236 L15.1223489,34.2077236 L15.1223489,49.3287576 L13.1500401,49.3287576 L13.1500401,34.2077236 Z M15.7797851,34.2077236 L16.4372214,34.2077236 L16.4372214,49.314294 L15.7797851,49.314294 L15.7797851,34.2077236 Z M17.0946577,34.2077236 L35.502873,34.2077236 L35.502873,49.314294 L33.5305642,49.314294 L33.5305642,36.5087505 C33.5305642,36.3272045 33.3833921,36.1800323 33.2018461,36.1800323 L19.3956846,36.1800323 C19.2141386,36.1800323 19.0669665,36.3272045 19.0669665,36.5087505 L19.0669665,49.314294 L17.0946577,49.314294 L17.0946577,34.2077236 Z M36.1603093,34.2077236 L36.8177455,34.2077236 L36.8177455,49.314294 L36.1603093,49.314294 L36.1603093,34.2077236 Z M37.4751818,34.2077236 L39.4474906,34.2077236 L39.4474906,49.3228407 L37.5922054,49.3228407 C37.5777418,49.3208683 37.5639357,49.3136365 37.5494721,49.3136365 L37.4751818,49.3136365 L37.4751818,34.2077236 Z M40.1049268,34.2077236 L45.3644169,34.2077236 L45.3644169,36.3904119 C45.2097521,36.2309908 45.0328194,36.0948035 44.8391253,35.9860886 L42.8937714,34.9019763 C42.7944302,34.8467336 42.6735987,34.8467336 42.5742574,34.9019763 L40.6282461,35.9860886 C40.4353394,36.0950997 40.2590985,36.2312657 40.1049268,36.3904119 L40.1049268,34.2077236 L40.1049268,34.2077236 Z M46.0218532,34.2077236 L47.994162,34.2077236 L47.994162,49.3228407 L46.0218532,49.3228407 L46.0218532,34.2077236 Z M48.6515982,34.2077236 L49.3090345,34.2077236 L49.3090345,49.3162663 L48.6515982,49.3162663 L48.6515982,34.2077236 Z M41.0667561,34.8599003 C40.8947725,34.8726615 40.7618903,35.0161628 40.7623618,35.1886185 C40.7623618,35.3701645 40.9095352,35.5173366 41.0910812,35.5173366 C41.2726272,35.5173366 41.4197994,35.3701645 41.4197994,35.1886185 C41.4197994,35.0070725 41.2726272,34.8599003 41.0910812,34.8599003 C41.0829756,34.8596002 41.0748617,34.8596002 41.0667561,34.8599003 Z M44.3539374,34.8599003 C44.1819538,34.8726615 44.0490716,35.0161628 44.0495431,35.1886185 C44.0495431,35.3701645 44.1967165,35.5173366 44.3782625,35.5173366 C44.5598085,35.5173366 44.7069807,35.3701645 44.7069807,35.1886185 C44.7069807,35.0070725 44.5598085,34.8599003 44.3782625,34.8599003 C44.3701569,34.8596002 44.362043,34.8596002 44.3539374,34.8599003 Z M5.5895231,34.8651598 C5.40797709,34.8651598 5.26080496,35.0123319 5.26080496,35.193878 C5.26080496,35.375424 5.40797709,35.5225961 5.5895231,35.5225961 C5.77106911,35.5225961 5.91824123,35.375424 5.91824123,35.193878 C5.91824123,35.0123319 5.77106911,34.8651598 5.5895231,34.8651598 Z M38.4613362,34.8651598 C38.2797902,34.8651598 38.132618,35.0123319 38.132618,35.193878 C38.132618,35.375424 38.2797902,35.5225961 38.4613362,35.5225961 C38.6428822,35.5225961 38.7900543,35.375424 38.7900543,35.193878 C38.7900543,35.0123319 38.6428822,34.8651598 38.4613362,34.8651598 Z M47.0080076,34.8651598 C46.8264616,34.8651598 46.6792894,35.0123319 46.6792894,35.193878 C46.6792894,35.375424 46.8264616,35.5225961 47.0080076,35.5225961 C47.1895536,35.5225961 47.3367257,35.375424 47.3367257,35.193878 C47.3367257,35.0123319 47.1895536,34.8651598 47.0080076,34.8651598 Z M8.194943,34.8815957 C8.02295944,34.8943569 7.89007723,35.0378582 7.89054875,35.2103139 C7.89054875,35.3918599 8.03772213,35.539032 8.21926814,35.539032 C8.40081415,35.539032 8.54798627,35.3918599 8.54798627,35.2103139 C8.54798627,35.0287678 8.40081415,34.8815957 8.21926814,34.8815957 C8.21116254,34.8812956 8.2030486,34.8812956 8.194943,34.8815957 Z M11.4821243,34.8815957 C11.3101407,34.8943569 11.1772585,35.0378582 11.1777301,35.2103139 C11.1777301,35.3918599 11.3249034,35.539032 11.5064494,35.539032 C11.6879955,35.539032 11.8351676,35.3918599 11.8351676,35.2103139 C11.8351676,35.0287678 11.6879955,34.8815957 11.5064494,34.8815957 C11.4983438,34.8812956 11.4902299,34.8812956 11.4821243,34.8815957 Z M18.0564869,34.8815957 C17.8845034,34.8943569 17.7516211,35.0378582 17.7520927,35.2103139 C17.7520927,35.3918599 17.8992661,35.539032 18.0808121,35.539032 C18.2623581,35.539032 18.4095302,35.3918599 18.4095302,35.2103139 C18.4095302,35.0287678 18.2623581,34.8815957 18.0808121,34.8815957 C18.0727065,34.8812956 18.0645925,34.8812956 18.0564869,34.8815957 Z M23.315977,34.8815957 C23.1439935,34.8943569 23.0111112,35.0378582 23.0115828,35.2103139 C23.0115828,35.3918599 23.1587561,35.539032 23.3403022,35.539032 C23.5218482,35.539032 23.6690203,35.3918599 23.6690203,35.2103139 C23.6690203,35.0287678 23.5218482,34.8815957 23.3403022,34.8815957 C23.3321966,34.8812956 23.3240826,34.8812956 23.315977,34.8815957 Z M29.2329034,34.8815957 C29.0609198,34.8943569 28.9280376,35.0378582 28.9285091,35.2103139 C28.9285091,35.3918599 29.0756825,35.539032 29.2572285,35.539032 C29.4387745,35.539032 29.5859466,35.3918599 29.5859466,35.2103139 C29.5859466,35.0287678 29.4387745,34.8815957 29.2572285,34.8815957 C29.2491229,34.8812956 29.241009,34.8812956 29.2329034,34.8815957 Z M34.4923935,34.8815957 C34.3204099,34.8943569 34.1875277,35.0378582 34.1879992,35.2103139 C34.1879992,35.3918599 34.3351726,35.539032 34.5167186,35.539032 C34.6982646,35.539032 34.8454367,35.3918599 34.8454367,35.2103139 C34.8454367,35.0287678 34.6982646,34.8815957 34.5167186,34.8815957 C34.508613,34.8812956 34.5004991,34.8812956 34.4923935,34.8815957 Z M19.3956846,34.8868552 C19.2141386,34.8868552 19.0669665,35.0340273 19.0669665,35.2155734 C19.0669665,35.3971194 19.2141386,35.5442915 19.3956846,35.5442915 L22.0254296,35.5442915 C22.2069756,35.5442915 22.3541478,35.3971194 22.3541478,35.2155734 C22.3541478,35.0340273 22.2069756,34.8868552 22.0254296,34.8868552 L19.3956846,34.8868552 Z M24.6551747,34.8868552 C24.4736287,34.8868552 24.3264566,35.0340273 24.3264566,35.2155734 C24.3264566,35.3971194 24.4736287,35.5442915 24.6551747,35.5442915 L27.942356,35.5442915 C28.123902,35.5442915 28.2710741,35.3971194 28.2710741,35.2155734 C28.2710741,35.0340273 28.123902,34.8868552 27.942356,34.8868552 L24.6551747,34.8868552 Z M30.572101,34.8868552 C30.390555,34.8868552 30.2433829,35.0340273 30.2433829,35.2155734 C30.2433829,35.3971194 30.390555,35.5442915 30.572101,35.5442915 L33.2018461,35.5442915 C33.3833921,35.5442915 33.5305642,35.3971194 33.5305642,35.2155734 C33.5305642,35.0340273 33.3833921,34.8868552 33.2018461,34.8868552 L30.572101,34.8868552 Z M14.1296201,34.8954019 C13.9480741,34.8954019 13.800902,35.042574 13.800902,35.22412 C13.800902,35.405666 13.9480741,35.5528382 14.1296201,35.5528382 C14.3111661,35.5528382 14.4583383,35.405666 14.4583383,35.22412 C14.4583383,35.042574 14.3111661,34.8954019 14.1296201,34.8954019 Z M9.8628588,35.564672 L11.6491131,36.5600305 C12.1696755,36.8507752 12.4923342,37.4002758 12.4926038,37.9965287 L12.4926038,38.8156943 L7.23311375,38.8156943 L7.23311375,37.9965287 C7.23311375,37.4008915 7.55525752,36.8506173 8.0752896,36.5600305 L9.8628588,35.564672 L9.8628588,35.564672 Z M42.7346719,35.564672 L44.5209262,36.5600305 C45.0414886,36.8507752 45.3641472,37.4002758 45.3644169,37.9965287 L45.3644169,38.8156943 L40.1049268,38.8156943 L40.1049268,37.9965287 C40.1049268,37.4008915 40.4270706,36.8506173 40.9471027,36.5600305 L42.7346719,35.564672 L42.7346719,35.564672 Z M5.58294873,36.1800323 C5.40140272,36.1800323 5.2542306,36.3272045 5.2542306,36.5087505 L5.2542306,37.823623 C5.2542306,38.005169 5.40140272,38.1523411 5.58294873,38.1523411 C5.76449474,38.1523411 5.91166686,38.005169 5.91166686,37.823623 L5.91166686,36.5087505 C5.91166686,36.3272045 5.76449474,36.1800323 5.58294873,36.1800323 Z M38.4547618,36.1800323 C38.2732158,36.1800323 38.1260437,36.3272045 38.1260437,36.5087505 L38.1260437,37.823623 C38.1260437,38.005169 38.2732158,38.1523411 38.4547618,38.1523411 C38.6363078,38.1523411 38.7834799,38.005169 38.7834799,37.823623 L38.7834799,36.5087505 C38.7834799,36.3272045 38.6363078,36.1800323 38.4547618,36.1800323 Z M18.0742377,36.2017277 C17.8926917,36.2017277 17.7455196,36.3488999 17.7455196,36.5304459 L17.7455196,37.8453184 C17.7455196,38.0268644 17.8926917,38.1740365 18.0742377,38.1740365 C18.2557837,38.1740365 18.4029558,38.0268644 18.4029558,37.8453184 L18.4029558,36.5304459 C18.4029558,36.3488999 18.2557837,36.2017277 18.0742377,36.2017277 Z M34.5101442,36.2017277 C34.3285982,36.2017277 34.1814261,36.3488999 34.1814261,36.5304459 L34.1814261,37.8453184 C34.1814261,38.0268644 34.3285982,38.1740365 34.5101442,38.1740365 C34.6916903,38.1740365 34.8388624,38.0268644 34.8388624,37.8453184 L34.8388624,36.5304459 C34.8388624,36.3488999 34.6916903,36.2017277 34.5101442,36.2017277 Z M47.0080076,36.2083021 C46.8264616,36.2083021 46.6792894,36.3554742 46.6792894,36.5370202 L46.6792894,37.8518928 C46.6792894,38.0334388 46.8264616,38.1806109 47.0080076,38.1806109 C47.1895536,38.1806109 47.3367257,38.0334388 47.3367257,37.8518928 L47.3367257,36.5370202 C47.3367257,36.3554742 47.1895536,36.2083021 47.0080076,36.2083021 Z M14.1296201,36.2102744 C13.9480741,36.2102744 13.800902,36.3574465 13.800902,36.5389925 L13.800902,37.8538651 C13.800902,38.0354111 13.9480741,38.1825832 14.1296201,38.1825832 C14.3111661,38.1825832 14.4583383,38.0354111 14.4583383,37.8538651 L14.4583383,36.5389925 C14.4583383,36.3574465 14.3111661,36.2102744 14.1296201,36.2102744 Z M19.7244027,36.8374686 L32.873128,36.8374686 L32.873128,49.314294 L32.2156917,49.314294 L32.2156917,42.8451212 C32.2178794,41.8346731 31.7022786,40.8935405 30.8495391,40.3514654 L26.4756157,37.5586762 C26.3673713,37.4903703 26.229502,37.4903703 26.1212575,37.5586762 L21.7466767,40.3527803 C20.8942736,40.8943921 20.3790714,41.835207 20.381839,42.8451212 L20.381839,49.314294 L19.7244027,49.314294 L19.7244027,36.8374686 L19.7244027,36.8374686 Z M22.0254296,37.4949049 C21.4817298,37.4949049 21.0392752,37.9373595 21.0392752,38.4810593 C21.0392752,39.024759 21.4817298,39.4672137 22.0254296,39.4672137 C22.5691294,39.4672137 23.011584,39.024759 23.011584,38.4810593 C23.011584,37.9373595 22.5691294,37.4949049 22.0254296,37.4949049 Z M30.572101,37.4949049 C30.0284012,37.4949049 29.5859466,37.9373595 29.5859466,38.4810593 C29.5859466,39.024759 30.0284012,39.4672137 30.572101,39.4672137 C31.1158008,39.4672137 31.5582554,39.024759 31.5582554,38.4810593 C31.5582554,37.9373595 31.1158008,37.4949049 30.572101,37.4949049 Z M22.0254296,38.1523411 C22.2062246,38.1523411 22.3541478,38.3002643 22.3541478,38.4810593 C22.3541478,38.6618542 22.2062246,38.8097774 22.0254296,38.8097774 C21.8440337,38.8094157 21.6970732,38.6624552 21.6967115,38.4810593 C21.6967115,38.3002643 21.8446347,38.1523411 22.0254296,38.1523411 L22.0254296,38.1523411 Z M30.572101,38.1523411 C30.752896,38.1523411 30.9008192,38.3002643 30.9008192,38.4810593 C30.9008192,38.6618542 30.752896,38.8097774 30.572101,38.8097774 C30.3907051,38.8094157 30.2437446,38.6624552 30.2433829,38.4810593 C30.2433829,38.3002643 30.3913061,38.1523411 30.572101,38.1523411 L30.572101,38.1523411 Z M26.2961356,38.2266314 L30.4938661,40.9063416 C31.1570389,41.3278893 31.5578219,42.0599696 31.5556347,42.8457786 L31.5556347,49.314294 L30.3176732,49.314294 L30.3176732,45.198743 L30.3163583,45.1915112 L30.3176732,45.1836219 C30.3176732,44.8805438 30.1960475,44.5853549 29.9817233,44.3703733 L29.9712043,44.3618266 L29.9817233,44.3526225 C30.1921029,44.1429003 30.3071542,43.8661197 30.3150435,43.5702734 C30.3150435,43.5656713 30.3176732,43.5604118 30.3176732,43.5551523 L30.3176732,43.2113132 C30.3195215,42.5380837 29.9763697,41.9108331 29.4084389,41.5493143 L26.5505634,39.7222989 C26.4423989,39.6529022 26.3037124,39.6529022 26.1955478,39.7222989 L23.3376724,41.5499717 C22.7701261,41.9115403 22.4270633,42.5383802 22.4284381,43.2113132 L22.4284381,43.5551523 C22.4284381,43.5689585 22.4350124,43.5814498 22.4363273,43.5945985 C22.4501335,43.8812407 22.5638699,44.1494747 22.7676752,44.3526225 L22.7775367,44.3618266 L22.7676752,44.3697159 C22.5523257,44.5859836 22.4309086,44.878424 22.4297529,45.1836219 L22.4297529,45.1849368 C22.4297529,45.1901963 22.4271232,45.1934835 22.4271232,45.198743 L22.4271232,49.3129791 L21.0366455,49.3129791 L21.0366455,42.8451212 C21.0366455,42.0561977 21.4343944,41.3310455 22.0997199,40.9063416 L26.2961356,38.2266314 L26.2961356,38.2266314 Z M38.437011,38.8209538 C38.2650275,38.8337149 38.1321453,38.9772162 38.1326168,39.1496719 C38.1326168,39.3312179 38.2797902,39.4783901 38.4613362,39.4783901 C38.6428822,39.4783901 38.7900543,39.3312179 38.7900543,39.1496719 C38.7900543,38.9681259 38.6428822,38.8209538 38.4613362,38.8209538 C38.4532306,38.8206537 38.4451166,38.8206537 38.437011,38.8209538 Z M18.0808121,38.8235836 C17.8992661,38.8235836 17.7520939,38.9707557 17.7520939,39.1523017 C17.7520939,39.3338477 17.8992661,39.4810198 18.0808121,39.4810198 C18.2623581,39.4810198 18.4095302,39.3338477 18.4095302,39.1523017 C18.4095302,38.9707557 18.2623581,38.8235836 18.0808121,38.8235836 Z M5.56125334,38.828843 C5.38875013,38.8409474 5.25512132,38.9846343 5.25554447,39.1575612 C5.25554447,39.3391072 5.4027176,39.4862793 5.58426361,39.4862793 C5.76580962,39.4862793 5.91298174,39.3391072 5.91298174,39.1575612 C5.91298174,38.9760152 5.76580962,38.828843 5.58426361,38.828843 C5.57659587,38.8285745 5.56892108,38.8285745 5.56125334,38.828843 Z M34.5167186,38.8314728 C34.3351726,38.8314728 34.1880005,38.9786449 34.1880005,39.1601909 C34.1880005,39.3417369 34.3351726,39.4889091 34.5167186,39.4889091 C34.6982646,39.4889091 34.8454367,39.3417369 34.8454367,39.1601909 C34.8454367,38.9786449 34.6982646,38.8314728 34.5167186,38.8314728 Z M47.0080076,38.8380472 C46.8264616,38.8380472 46.6792894,38.9852193 46.6792894,39.1667653 C46.6792894,39.3483113 46.8264616,39.4954834 47.0080076,39.4954834 C47.1895536,39.4954834 47.3367257,39.3483113 47.3367257,39.1667653 C47.3367257,38.9852193 47.1895536,38.8380472 47.0080076,38.8380472 Z M14.1296201,38.8400195 C13.9480741,38.8400195 13.800902,38.9871916 13.800902,39.1687376 C13.800902,39.3502836 13.9480741,39.4974557 14.1296201,39.4974557 C14.3111661,39.4974557 14.4583383,39.3502836 14.4583383,39.1687376 C14.4583383,38.9871916 14.3111661,38.8400195 14.1296201,38.8400195 Z M7.23311375,39.4731306 L7.89055001,39.4731306 L7.89055001,40.129252 L7.23311375,40.129252 L7.23311375,39.4731306 Z M8.54798627,39.4731306 L9.53414067,39.4731306 L9.53414067,40.129252 L8.54798627,40.129252 L8.54798627,39.4731306 Z M10.1915769,39.4731306 L11.1777313,39.4731306 L11.1777313,40.129252 L10.1915769,40.129252 L10.1915769,39.4731306 Z M11.8351676,39.4731306 L12.4926038,39.4731306 L12.4926038,40.129252 L11.8338527,40.129252 L11.8351676,40.1266222 L11.8351676,39.4731306 L11.8351676,39.4731306 Z M40.1049268,39.4731306 L40.7623631,39.4731306 L40.7623631,40.129252 L40.1049268,40.129252 L40.1049268,39.4731306 Z M41.4197994,39.4731306 L42.4059537,39.4731306 L42.4059537,40.129252 L41.4197994,40.129252 L41.4197994,39.4731306 Z M43.06339,39.4731306 L44.0495444,39.4731306 L44.0495444,40.129252 L43.06339,40.129252 L43.06339,39.4731306 Z M44.7069807,39.4731306 L45.3644169,39.4731306 L45.3644169,40.129252 L44.7056658,40.129252 L44.7069807,40.1266222 L44.7069807,39.4731306 L44.7069807,39.4731306 Z M18.0808121,40.1239925 C17.8992661,40.1239925 17.7520939,40.2711646 17.7520939,40.4527106 L17.7520939,43.0824557 C17.7520939,43.2640017 17.8992661,43.4111738 18.0808121,43.4111738 C18.2623581,43.4111738 18.4095302,43.2640017 18.4095302,43.0824557 L18.4095302,40.4527106 C18.4095302,40.2711646 18.2623581,40.1239925 18.0808121,40.1239925 Z M5.58426361,40.1279371 C5.4027176,40.1279371 5.25554547,40.2751092 5.25554547,40.4566552 L5.25554547,43.0864003 C5.25554547,43.2679463 5.4027176,43.4151184 5.58426361,43.4151184 C5.76580962,43.4151184 5.91298174,43.2679463 5.91298174,43.0864003 L5.91298174,40.4566552 C5.91298174,40.2751092 5.76580962,40.1279371 5.58426361,40.1279371 Z M34.5140889,40.1318817 C34.3325428,40.1318817 34.1853707,40.2790538 34.1853707,40.4605998 L34.1853707,43.0903449 C34.1853707,43.2718909 34.3325428,43.419063 34.5140889,43.419063 C34.6956349,43.419063 34.842807,43.2718909 34.842807,43.0903449 L34.842807,40.4605998 C34.842807,40.2790538 34.6956349,40.1318817 34.5140889,40.1318817 Z M38.4613362,40.1358263 C38.2797902,40.1358263 38.132618,40.2829985 38.132618,40.4645445 L38.132618,43.0942895 C38.132618,43.2758355 38.2797902,43.4230076 38.4613362,43.4230076 C38.6428822,43.4230076 38.7900543,43.2758355 38.7900543,43.0942895 L38.7900543,40.4645445 C38.7900543,40.2829985 38.6428822,40.1358263 38.4613362,40.1358263 Z M47.0080076,40.1384561 C46.8264616,40.1384561 46.6792894,40.2856282 46.6792894,40.4671742 L46.6792894,43.0969193 C46.6792894,43.2784653 46.8264616,43.4256374 47.0080076,43.4256374 C47.1895536,43.4256374 47.3367257,43.2784653 47.3367257,43.0969193 L47.3367257,40.4671742 C47.3367257,40.2856282 47.1895536,40.1384561 47.0080076,40.1384561 Z M14.1296201,40.1410858 C13.9480741,40.1410858 13.800902,40.2882579 13.800902,40.469804 L13.800902,43.099549 C13.800902,43.281095 13.9480741,43.4282671 14.1296201,43.4282671 C14.3111661,43.4282671 14.4583383,43.281095 14.4583383,43.099549 L14.4583383,40.469804 C14.4583383,40.2882579 14.3111661,40.1410858 14.1296201,40.1410858 Z M26.3730556,40.3902542 L29.0540807,42.1028756 C29.4340789,42.346127 29.6602369,42.7616268 29.6602369,43.212628 L29.6602369,43.5413462 C29.6610284,43.6721241 29.6091339,43.7977134 29.5162584,43.8897874 C29.4235543,43.9818 29.2984308,44.0337381 29.1678172,44.0344234 C28.9862712,44.0344234 28.839099,44.1815955 28.839099,44.3631415 C28.839099,44.5446875 28.9862712,44.6918596 29.1678172,44.6918596 C29.2966747,44.6918596 29.4248748,44.7437971 29.5162584,44.8358382 C29.6081518,44.9286216 29.6600687,45.0536942 29.6608944,45.1842794 L29.6615518,45.1928261 C29.6622092,45.1954558 29.6602369,45.1967707 29.6602369,45.2000579 L29.6602369,49.3090345 L23.0858743,49.3090345 L23.0858743,45.198743 C23.0858743,45.1934835 23.0885041,45.1901963 23.0885041,45.1849368 C23.0885041,45.0554219 23.141099,44.9272218 23.23314,44.8358382 C23.3257643,44.7437056 23.4509392,44.6917462 23.5815813,44.6912022 C23.7631273,44.6912022 23.9102994,44.5440301 23.9102994,44.3624841 C23.9102994,44.180938 23.7631273,44.0337659 23.5815813,44.0337659 C23.3095621,44.0330434 23.0892266,43.8127079 23.0885041,43.5406887 C23.0885041,43.5367441 23.0858743,43.5321421 23.0858743,43.5281974 L23.0858743,43.212628 C23.0858743,42.7616268 23.3133473,42.3467845 23.6933454,42.1028756 L26.3730556,40.3902542 Z M7.23311375,40.7853734 L12.4926038,40.7853734 L12.4926038,41.4250588 L11.2520216,41.4250588 C11.0704756,41.4250588 10.9233035,41.572231 10.9233035,41.753777 C10.9233035,41.935323 11.0704756,42.0824951 11.2520216,42.0824951 L12.4926038,42.0824951 L12.4926038,42.7465057 L7.23311375,42.7465057 L7.23311375,42.0824951 L8.62227657,42.0824951 C8.80382258,42.0824951 8.9509947,41.935323 8.9509947,41.753777 C8.9509947,41.572231 8.80382258,41.4250588 8.62227657,41.4250588 L7.23311375,41.4250588 L7.23311375,40.7853734 Z M40.1049268,40.7853734 L45.3644169,40.7853734 L45.3644169,41.4250588 L44.1238347,41.4250588 C43.9422887,41.4250588 43.7951166,41.572231 43.7951166,41.753777 C43.7951166,41.935323 43.9422887,42.0824951 44.1238347,42.0824951 L45.3644169,42.0824951 L45.3644169,42.7465057 L40.1049268,42.7465057 L40.1049268,42.0811802 L41.4940896,42.0811802 C41.6756357,42.0811802 41.8228078,41.9340081 41.8228078,41.7524621 C41.8228078,41.5709161 41.6756357,41.423744 41.4940896,41.423744 L40.1049268,41.423744 L40.1049268,40.7860308 L40.1049268,40.7853734 Z M9.93714909,41.4197994 C9.75560308,41.4197994 9.60843096,41.5669715 9.60843096,41.7485175 C9.60843096,41.9300635 9.75560308,42.0772356 9.93714909,42.0772356 C10.1186951,42.0772356 10.2658672,41.9300635 10.2658672,41.7485175 C10.2658672,41.5669715 10.1186951,41.4197994 9.93714909,41.4197994 Z M42.8089622,41.4197994 C42.6274162,41.4197994 42.480244,41.5669715 42.480244,41.7485175 C42.480244,41.9300635 42.6274162,42.0772356 42.8089622,42.0772356 C42.9905082,42.0772356 43.1376803,41.9300635 43.1376803,41.7485175 C43.1376803,41.5669715 42.9905082,41.4197994 42.8089622,41.4197994 Z M7.23311375,43.403942 L12.4926038,43.403942 L12.4926038,45.580056 C12.3377618,45.4208337 12.1608595,45.2846698 11.9673123,45.1757327 L10.0219584,44.0922778 C9.92261713,44.0370351 9.80178559,44.0370351 9.70244435,44.0922778 L7.75643301,45.1757327 C7.56323938,45.2843111 7.38693911,45.420523 7.23311375,45.580056 L7.23311375,43.403942 L7.23311375,43.403942 Z M40.1049268,43.403942 L45.3644169,43.403942 L45.3644169,45.5636201 C45.2095749,45.4043977 45.0326726,45.2682339 44.8391253,45.1592968 L42.8937714,44.074527 C42.7944302,44.0192843 42.6735987,44.0192843 42.5742574,44.074527 L40.6282461,45.1592968 C40.4353836,45.2678435 40.2591388,45.4035696 40.1049268,45.5623052 L40.1049268,43.403942 L40.1049268,43.403942 Z M18.0808121,44.0692675 C17.8992661,44.0692675 17.7520939,44.2164396 17.7520939,44.3979856 C17.7520939,44.5795316 17.8992661,44.7267037 18.0808121,44.7267037 C18.2623581,44.7267037 18.4095302,44.5795316 18.4095302,44.3979856 C18.4095302,44.2164396 18.2623581,44.0692675 18.0808121,44.0692675 Z M5.58426361,44.0738695 C5.4027176,44.0738695 5.25554547,44.2210417 5.25554547,44.4025877 C5.25554547,44.5841337 5.4027176,44.7313058 5.58426361,44.7313058 C5.76580962,44.7313058 5.91298174,44.5841337 5.91298174,44.4025877 C5.91298174,44.2210417 5.76580962,44.0738695 5.58426361,44.0738695 Z M34.5140889,44.0764993 C34.3325428,44.0764993 34.1853707,44.2236714 34.1853707,44.4052174 C34.1853707,44.5867634 34.3325428,44.7339355 34.5140889,44.7339355 C34.6956349,44.7339355 34.842807,44.5867634 34.842807,44.4052174 C34.842807,44.2236714 34.6956349,44.0764993 34.5140889,44.0764993 Z M38.4613362,44.0804439 C38.2797902,44.0804439 38.132618,44.227616 38.132618,44.409162 C38.132618,44.590708 38.2797902,44.7378802 38.4613362,44.7378802 C38.6428822,44.7378802 38.7900543,44.590708 38.7900543,44.409162 C38.7900543,44.227616 38.6428822,44.0804439 38.4613362,44.0804439 Z M47.0080076,44.0830736 C46.8264616,44.0830736 46.6792894,44.2302458 46.6792894,44.4117918 C46.6792894,44.5933378 46.8264616,44.7405099 47.0080076,44.7405099 C47.1895536,44.7405099 47.3367257,44.5933378 47.3367257,44.4117918 C47.3367257,44.2302458 47.1895536,44.0830736 47.0080076,44.0830736 Z M14.1296201,44.0857034 C13.9480741,44.0857034 13.800902,44.2328755 13.800902,44.4144215 C13.800902,44.5959675 13.9480741,44.7431397 14.1296201,44.7431397 C14.3111661,44.7431397 14.4583383,44.5959675 14.4583383,44.4144215 C14.4583383,44.2328755 14.3111661,44.0857034 14.1296201,44.0857034 Z M42.7346719,44.7378802 L44.5196113,45.7332387 C45.0404787,46.0238486 45.3636019,46.5732839 45.3644169,47.1697369 L45.3644169,48.0059958 L40.1049268,48.0059958 L40.1049268,47.1697369 C40.1049268,46.5740996 40.4270706,46.0238255 40.9471027,45.7332387 L42.7346719,44.7378802 Z M9.8628588,44.7543161 L11.6491131,45.7496746 C12.1701853,46.040223 12.4929923,46.5902278 12.4926042,47.1868302 L12.4926042,48.0059958 L7.23311375,48.0059958 L7.23311375,47.1861728 C7.23311375,46.5905355 7.55525752,46.0389465 8.0752896,45.7490171 L9.8628588,44.7536586 L9.8628588,44.7543161 Z M18.0808121,45.38414 C17.8992661,45.38414 17.7520939,45.5313121 17.7520939,45.7128581 L17.7520939,47.0277307 C17.7520939,47.2092767 17.8992661,47.3564488 18.0808121,47.3564488 C18.2623581,47.3564488 18.4095302,47.2092767 18.4095302,47.0277307 L18.4095302,45.7128581 C18.4095302,45.5313121 18.2623581,45.38414 18.0808121,45.38414 Z M5.58426361,45.3874272 C5.4027176,45.3874272 5.25554547,45.5345993 5.25554547,45.7161453 L5.25554547,47.0310178 C5.25554547,47.2125639 5.4027176,47.359736 5.58426361,47.359736 C5.76580962,47.359736 5.91298174,47.2125639 5.91298174,47.0310178 L5.91298174,45.7161453 C5.91298174,45.5345993 5.76580962,45.3874272 5.58426361,45.3874272 Z M34.5140889,45.3913718 C34.3325428,45.3913718 34.1853707,45.5385439 34.1853707,45.7200899 L34.1853707,47.0349625 C34.1853707,47.2165085 34.3325428,47.3636806 34.5140889,47.3636806 C34.6956349,47.3636806 34.842807,47.2165085 34.842807,47.0349625 L34.842807,45.7200899 C34.842807,45.5385439 34.6956349,45.3913718 34.5140889,45.3913718 Z M47.0080076,45.3979462 C46.8264616,45.3979462 46.6792894,45.5451183 46.6792894,45.7266643 L46.6792894,47.0415368 C46.6792894,47.2230828 46.8264616,47.370255 47.0080076,47.370255 C47.1895536,47.370255 47.3367257,47.2230828 47.3367257,47.0415368 L47.3367257,45.7266643 C47.3367257,45.5451183 47.1895536,45.3979462 47.0080076,45.3979462 Z M14.1296201,45.4005759 C13.9480741,45.4005759 13.800902,45.547748 13.800902,45.729294 L13.800902,47.0441666 C13.800902,47.2257126 13.9480741,47.3728847 14.1296201,47.3728847 C14.3111661,47.3728847 14.4583383,47.2257126 14.4583383,47.0441666 L14.4583383,45.729294 C14.4583383,45.547748 14.3111661,45.4005759 14.1296201,45.4005759 L14.1296201,45.4005759 Z M38.4613362,45.4018908 C38.2797902,45.4018908 38.132618,45.5490629 38.132618,45.7306089 L38.132618,47.0454814 C38.132618,47.2270275 38.2797902,47.3741996 38.4613362,47.3741996 C38.6428822,47.3741996 38.7900543,47.2270275 38.7900543,47.0454814 L38.7900543,45.7306089 C38.7900543,45.5490629 38.6428822,45.4018908 38.4613362,45.4018908 Z M18.0808121,48.0138851 C17.8992661,48.0138851 17.7520939,48.1610572 17.7520939,48.3426032 C17.7520939,48.5241492 17.8992661,48.6713213 18.0808121,48.6713213 C18.2623581,48.6713213 18.4095302,48.5241492 18.4095302,48.3426032 C18.4095302,48.1610572 18.2623581,48.0138851 18.0808121,48.0138851 Z M5.58426361,48.0184871 C5.4027176,48.0184871 5.25554547,48.1656592 5.25554547,48.3472052 C5.25554547,48.5287512 5.4027176,48.6759234 5.58426361,48.6759234 C5.76580962,48.6759234 5.91298174,48.5287512 5.91298174,48.3472052 C5.91298174,48.1656592 5.76580962,48.0184871 5.58426361,48.0184871 Z M34.5140889,48.0211169 C34.3325428,48.0211169 34.1853707,48.168289 34.1853707,48.349835 C34.1853707,48.531381 34.3325428,48.6785531 34.5140889,48.6785531 C34.6956349,48.6785531 34.842807,48.531381 34.842807,48.349835 C34.842807,48.168289 34.6956349,48.0211169 34.5140889,48.0211169 Z M47.0080076,48.0276912 C46.8264616,48.0276912 46.6792894,48.1748633 46.6792894,48.3564093 C46.6792894,48.5379554 46.8264616,48.6851275 47.0080076,48.6851275 C47.1895536,48.6851275 47.3367257,48.5379554 47.3367257,48.3564093 C47.3367257,48.1748633 47.1895536,48.0276912 47.0080076,48.0276912 Z M14.1296201,48.030321 C13.9480741,48.030321 13.800902,48.1774931 13.800902,48.3590391 C13.800902,48.5405851 13.9480741,48.6877572 14.1296201,48.6877572 C14.3111661,48.6877572 14.4583383,48.5405851 14.4583383,48.3590391 C14.4583383,48.1774931 14.3111661,48.030321 14.1296201,48.030321 Z M38.4613362,48.0329507 C38.2797902,48.0329507 38.132618,48.1801228 38.132618,48.3616688 C38.132618,48.5432148 38.2797902,48.690387 38.4613362,48.690387 C38.6428822,48.690387 38.7900543,48.5432148 38.7900543,48.3616688 C38.7900543,48.1801228 38.6428822,48.0329507 38.4613362,48.0329507 Z M7.23311375,48.6634321 L7.96484031,48.6634321 L7.96484031,49.3195535 L7.23311375,49.3195535 L7.23311375,48.6634321 Z M8.62227657,48.6634321 L9.60843096,48.6634321 L9.60843096,49.3195535 L8.62227657,49.3195535 L8.62227657,48.6634321 Z M10.2658672,48.6634321 L11.2520216,48.6634321 L11.2520216,49.3195535 L10.2658672,49.3195535 L10.2658672,48.6634321 Z M11.9094579,48.6634321 L12.4926038,48.6634321 L12.4926038,49.3195535 L11.9094579,49.3195535 L11.9094579,48.6634321 Z M40.1049268,48.6634321 L40.8366534,48.6634321 L40.8366534,49.3024601 L40.1049268,49.3024601 L40.1049268,48.6634321 Z M41.4940896,48.6634321 L42.480244,48.6634321 L42.480244,49.3024601 L41.4940896,49.3024601 L41.4940896,48.6634321 Z M43.1376803,48.6634321 L44.1238347,48.6634321 L44.1238347,49.3024601 L43.1376803,49.3024601 L43.1376803,48.6634321 Z M44.781271,48.6634321 L45.3644169,48.6634321 L45.3644169,49.3024601 L44.781271,49.3024601 L44.781271,48.6634321 Z" id="Shape" stroke="#B292BC" stroke-width="0.2" fill="#B292BC" fill-rule="nonzero"></path>
                            <path d="M12.7989691,32.892851 C12.6174231,32.892851 12.470251,32.7456789 12.470251,32.5641329 L12.470251,30.9981197 C12.470251,30.4491605 12.1980724,29.9389899 11.7424691,29.6326246 L9.84050596,28.3578557 L7.93854286,29.6326246 C7.4833775,29.9379084 7.21041283,30.4500562 7.21076092,30.9981197 L7.21076092,32.5641329 C7.21076092,32.7456789 7.0635888,32.892851 6.88204279,32.892851 C6.70049678,32.892851 6.55332466,32.7456789 6.55332466,32.5641329 L6.55332466,30.9981197 C6.55332466,30.2295767 6.93463769,29.5149435 7.5730083,29.0869525 L9.65773868,27.689243 C9.76850075,27.6149582 9.91316861,27.6149582 10.0239307,27.689243 L12.1086611,29.0869525 C12.7460206,29.5140056 13.1282743,30.2309162 13.1276879,30.9981197 L13.1276879,32.5641329 C13.1276879,32.7456789 12.9805152,32.892851 12.7989691,32.892851 L12.7989691,32.892851 Z" id="Path" fill="#B292BC" fill-rule="nonzero"></path>
                            <polygon id="Path" points="4.25229774 33.8730885 15.4287142 33.8730885 15.4287142 49.6515588 4.25229774 49.6515588"></polygon>
                            <path d="M10.8266604,31.6049334 L8.85435157,31.6049334 C8.67280556,31.6049334 8.52563344,31.4577613 8.52563344,31.2762153 L8.52563344,29.9343879 C8.52563344,29.7528419 8.67280556,29.6056697 8.85435157,29.6056697 L10.8266604,29.6056697 C11.0082064,29.6056697 11.1553785,29.7528419 11.1553785,29.9343879 L11.1553785,31.2762153 C11.1553785,31.4577613 11.0082064,31.6049334 10.8266604,31.6049334 Z M9.1830697,30.9474971 L10.4979422,30.9474971 L10.4979422,30.263106 L9.1830697,30.263106 L9.1830697,30.9474971 Z M43.6984734,31.6049334 L41.7261646,31.6049334 C41.5446186,31.6049334 41.3974465,31.4577613 41.3974465,31.2762153 L41.3974465,29.9343879 C41.3974465,29.7528419 41.5446186,29.6056697 41.7261646,29.6056697 L43.6984734,29.6056697 C43.8800194,29.6056697 44.0271916,29.7528419 44.0271916,29.9343879 L44.0271916,31.2762153 C44.0271916,31.4577613 43.8800194,31.6049334 43.6984734,31.6049334 Z M42.0548828,30.9474971 L43.3697553,30.9474971 L43.3697553,30.263106 L42.0548828,30.263106 L42.0548828,30.9474971 Z M21.0169224,11.8345101 C20.4732226,11.8345101 20.030768,12.2769647 20.030768,12.8206645 L20.030768,15.4504096 C20.030768,15.6319556 20.1779401,15.7791277 20.3594861,15.7791277 L21.6743587,15.7791277 C21.8559047,15.7791277 22.0030768,15.6319556 22.0030768,15.4504096 L22.0030768,12.8206645 C22.0030768,12.2769647 21.5606222,11.8345101 21.0169224,11.8345101 Z M21.3456405,15.1216915 L20.6882043,15.1216915 L20.6882043,12.8206645 C20.6882043,12.6398696 20.8361274,12.4919464 21.0169224,12.4919464 C21.1977174,12.4919464 21.3456405,12.6398696 21.3456405,12.8206645 L21.3456405,15.1216915 Z M31.5359026,11.8345101 C30.9922028,11.8345101 30.5497482,12.2769647 30.5497482,12.8206645 L30.5497482,15.4504096 C30.5497482,15.6319556 30.6969203,15.7791277 30.8784663,15.7791277 L32.1933389,15.7791277 C32.3748849,15.7791277 32.522057,15.6319556 32.522057,15.4504096 L32.522057,12.8206645 C32.522057,12.2769647 32.0796024,11.8345101 31.5359026,11.8345101 Z M31.8646207,15.1216915 L31.2071845,15.1216915 L31.2071845,12.8206645 C31.2071845,12.6398696 31.3551076,12.4919464 31.5359026,12.4919464 C31.7166976,12.4919464 31.8646207,12.6398696 31.8646207,12.8206645 L31.8646207,15.1216915 Z M21.6743587,7.23245631 C21.8559047,7.23245631 22.0030768,7.08528419 22.0030768,6.90373818 L22.0030768,6.24630192 C22.0030768,5.70260213 21.5606222,5.26014753 21.0169224,5.26014753 C20.4732226,5.26014753 20.030768,5.70260213 20.030768,6.24630192 L20.030768,6.90373818 C20.030768,7.08528419 20.1779401,7.23245631 20.3594861,7.23245631 L21.6743587,7.23245631 Z M20.6882043,6.24630192 C20.6882043,6.06550695 20.8361274,5.91758379 21.0169224,5.91758379 C21.1977174,5.91758379 21.3456405,6.06550695 21.3456405,6.24630192 L21.3456405,6.57502005 L20.6882043,6.57502005 L20.6882043,6.24630192 Z M25.6189762,7.23245631 L26.9338488,7.23245631 C27.1153948,7.23245631 27.2625669,7.08528419 27.2625669,6.90373818 L27.2625669,6.24630192 C27.2625669,5.70260213 26.8201123,5.26014753 26.2764125,5.26014753 C25.7327127,5.26014753 25.2902581,5.70260213 25.2902581,6.24630192 L25.2902581,6.90373818 C25.2902581,7.08528419 25.4374302,7.23245631 25.6189762,7.23245631 Z M25.9476944,6.24630192 C25.9476944,6.06550695 26.0956175,5.91758379 26.2764125,5.91758379 C26.4572075,5.91758379 26.6051306,6.06550695 26.6051306,6.24630192 L26.6051306,6.57502005 L25.9476944,6.57502005 L25.9476944,6.24630192 Z M30.8784663,7.23245631 L32.1933389,7.23245631 C32.3748849,7.23245631 32.522057,7.08528419 32.522057,6.90373818 L32.522057,6.24630192 C32.522057,5.70260213 32.0796024,5.26014753 31.5359026,5.26014753 C30.9922028,5.26014753 30.5497482,5.70260213 30.5497482,6.24630192 L30.5497482,6.90373818 C30.5497482,7.08528419 30.6969203,7.23245631 30.8784663,7.23245631 Z M31.2071845,6.24630192 C31.2071845,6.06550695 31.3551076,5.91758379 31.5359026,5.91758379 C31.7166976,5.91758379 31.8646207,6.06550695 31.8646207,6.24630192 L31.8646207,6.57502005 L31.2071845,6.57502005 L31.2071845,6.24630192 Z M26.2764125,11.8345101 C25.0075605,11.8345101 23.9753856,12.8666851 23.9753856,14.1355371 C23.9753856,15.404389 25.0075605,16.436564 26.2764125,16.436564 C27.5452645,16.436564 28.5774394,15.404389 28.5774394,14.1355371 C28.5774394,12.8666851 27.5452645,11.8345101 26.2764125,11.8345101 Z M26.2764125,15.7791277 C25.368983,15.7784026 24.6335469,15.0429666 24.6328218,14.1355371 C24.6328218,13.2289325 25.3698079,12.4919464 26.2764125,12.4919464 C27.1830171,12.4919464 27.9200032,13.2289325 27.9200032,14.1355371 C27.9200032,15.0421417 27.1830171,15.7791277 26.2764125,15.7791277 Z" id="Shape" fill="#B292BC" fill-rule="nonzero"></path>
                            <path d="M26.6051306,13.8068189 L26.6051306,13.1493827 C26.6051306,12.9678367 26.4579585,12.8206645 26.2764125,12.8206645 C26.0948665,12.8206645 25.9476944,12.9678367 25.9476944,13.1493827 L25.9476944,14.1355371 C25.9476944,14.3170831 26.0948665,14.4642552 26.2764125,14.4642552 L27.2625669,14.4642552 C27.4441129,14.4642552 27.591285,14.3170831 27.591285,14.1355371 C27.591285,13.953991 27.4441129,13.8068189 27.2625669,13.8068189 L26.6051306,13.8068189 Z M28.5991348,29.6260503 L23.997081,29.6260503 C23.815535,29.6260503 23.6683629,29.7732224 23.6683629,29.9547684 L23.6683629,31.2696409 C23.6683629,31.4511869 23.815535,31.598359 23.997081,31.598359 L28.5991348,31.598359 C28.7806808,31.598359 28.9278529,31.4511869 28.9278529,31.2696409 L28.9278529,29.9547684 C28.9278529,29.7732224 28.7806808,29.6260503 28.5991348,29.6260503 Z M28.2704167,30.9409228 L24.3257991,30.9409228 L24.3257991,30.2834865 L28.2704167,30.2834865 L28.2704167,30.9409228 Z" id="Shape" fill="#B292BC" fill-rule="nonzero"></path>
                        </g>
                    </g>
                </g>
            </g>
        </g>
    </g>
</svg>