<?xml version="1.0" encoding="UTF-8"?>
<svg width="16px" height="16px" viewBox="0 0 16 16" version="1.1" xmlns="http://www.w3.org/2000/svg" xmlns:xlink="http://www.w3.org/1999/xlink">
    <title>statistics (2) copy 2</title>
    <g id="Page-1" stroke="none" stroke-width="1" fill="none" fill-rule="evenodd">
        <g id="Members-Love-Us-Copy-3" transform="translate(-202.000000, -21.000000)" fill="#454EC2" fill-rule="nonzero">
            <g id="Group-46-Copy-2" transform="translate(187.000000, 0.000000)">
                <g id="Group-26" transform="translate(14.000000, 17.000000)">
                    <g id="gift-box" transform="translate(1.000000, 4.000000)">
                        <polygon id="Path" points="7.44186021 8.18604623 8.55813924 8.18604623 8.55813924 15.9999995 7.44186021 15.9999995"></polygon>
                        <path d="M9.86046478,4.83720914 C8.52470636,4.83720914 7.44186021,3.75436299 7.44186021,2.41860457 C7.44186021,1.08284615 8.52470636,0 9.86046478,0 C11.1962232,0 12.2790694,1.08284615 12.2790694,2.41860457 C12.2774292,3.75368303 11.1955432,4.83556899 9.86046478,4.83720914 L9.86046478,4.83720914 Z M9.86046478,1.11627903 C9.14121025,1.11627903 8.55813924,1.69935004 8.55813924,2.41860457 C8.55813924,3.1378591 9.14121025,3.72093011 9.86046478,3.72093011 C10.5797193,3.72093011 11.1627903,3.1378591 11.1627903,2.41860457 C11.1619701,1.69969005 10.5793793,1.11709924 9.86046478,1.11627903 L9.86046478,1.11627903 Z" id="Shape"></path>
                        <path d="M6.13953468,4.83720914 C4.80377626,4.83720914 3.72093011,3.75436299 3.72093011,2.41860457 C3.72093011,1.08284615 4.80377626,0 6.13953468,0 C7.47529309,0 8.55813924,1.08284615 8.55813924,2.41860457 C8.5564991,3.75368303 7.47461313,4.83556899 6.13953468,4.83720914 Z M6.13953468,1.11627903 C5.42028014,1.11627903 4.83720914,1.69935004 4.83720914,2.41860457 C4.83720914,3.1378591 5.42028014,3.72093011 6.13953468,3.72093011 C6.85878921,3.72093011 7.44186021,3.1378591 7.44186021,2.41860457 C7.44104,1.69969005 6.85844919,1.11709924 6.13953468,1.11627903 L6.13953468,1.11627903 Z" id="Shape"></path>
                        <g id="Group" transform="translate(0.000000, 3.720930)">
                            <path d="M7.99999973,12.2790694 C7.69174779,12.2790694 7.44186021,12.0291818 7.44186021,11.7209298 L7.44186021,0.558139516 C7.44186021,0.249887573 7.69174779,0 7.99999973,0 C8.30825167,0 8.55813924,0.249887573 8.55813924,0.558139516 L8.55813924,11.7209298 C8.55813924,12.0291818 8.30825167,12.2790694 7.99999973,12.2790694 Z" id="Path"></path>
                            <path d="M13.9534879,5.58139516 L2.04651156,5.58139516 C0.916594621,5.5805743 0.000820862611,4.66480054 0,3.5348836 L0,2.04651156 C0.000820862611,0.916594621 0.916594621,0.000820862611 2.04651156,-8.8817842e-16 L13.9534879,-8.8817842e-16 C15.0834048,0.000820862611 15.9991786,0.916594621 16,2.04651156 L16,3.5348836 C15.9991786,4.66480054 15.0834048,5.5805743 13.9534879,5.58139516 L13.9534879,5.58139516 Z M2.04651156,1.11627903 C1.53309815,1.11709853 1.11709853,1.53309815 1.11627903,2.04651156 L1.11627903,3.5348836 C1.11709853,4.04829701 1.53309815,4.46429663 2.04651156,4.46511613 L13.9534879,4.46511613 C14.4669013,4.46429663 14.8829009,4.04829701 14.8837204,3.5348836 L14.8837204,2.04651156 C14.8829009,1.53309815 14.4669013,1.11709853 13.9534879,1.11627903 L2.04651156,1.11627903 Z" id="Shape"></path>
                            <path d="M12.8372089,12.2790694 L3.16279059,12.2790694 C2.03287365,12.2782485 1.11709989,11.3624747 1.11627903,10.2325578 L1.11627903,5.02325564 C1.11627903,4.7150037 1.3661666,4.46511613 1.67441855,4.46511613 L14.3255809,4.46511613 C14.6338329,4.46511613 14.8837204,4.7150037 14.8837204,5.02325564 C14.8837204,5.33150759 14.6338329,5.58139516 14.3255809,5.58139516 L2.23255806,5.58139516 L2.23255806,10.2325578 C2.23337756,10.7459712 2.64937718,11.1619708 3.16279059,11.1627903 L12.8372089,11.1627903 C13.3506223,11.1619708 13.7666219,10.7459712 13.7674414,10.2325578 L13.7674414,7.25581371 C13.7674414,6.94756176 14.017329,6.69767419 14.3255809,6.69767419 C14.6338329,6.69767419 14.8837204,6.94756176 14.8837204,7.25581371 L14.8837204,10.2325578 C14.8828996,11.3624747 13.9671258,12.2782485 12.8372089,12.2790694 L12.8372089,12.2790694 Z" id="Path"></path>
                        </g>
                    </g>
                </g>
            </g>
        </g>
    </g>
</svg>