<svg width="34" height="30" viewBox="0 0 34 30" xmlns="http://www.w3.org/2000/svg">
    <g fill="#FFF" fill-rule="nonzero">
        <path d="M7.37 24.783a.653.653 0 0 0-.653.639v.013a.652.652 0 0 0 1.305 0v-.013a.653.653 0 0 0-.652-.64z"/>
        <path d="M28.174 15.924V3.26c0-2.118-3.797-3.261-7.37-3.261-3.572 0-7.37 1.143-7.37 3.26v5.917c-1.417-.886-3.786-1.35-6.064-1.35-3.573 0-7.37 1.142-7.37 3.26v15.652C0 28.857 3.797 30 7.37 30c2.677 0 5.48-.642 6.717-1.855C15.324 29.358 18.127 30 20.804 30c1.158 0 2.388-.114 3.335-.307.672.203 1.37.307 2.078.307 3.956 0 7.174-3.218 7.174-7.174a7.196 7.196 0 0 0-5.217-6.902zm-1.304-8.75c0 .288-.417.785-1.59 1.236-1.193.458-2.824.72-4.476.72-1.651 0-3.283-.262-4.475-.72-1.174-.45-1.59-.948-1.59-1.236V5.17c1.418.886 3.787 1.35 6.065 1.35 2.279 0 4.648-.464 6.066-1.35v2.003zm-12.13 1.91c1.417.886 3.786 1.35 6.064 1.35 2.279 0 4.648-.464 6.066-1.35v2.003c0 .288-.417.785-1.59 1.236-1.193.458-2.824.72-4.476.72-1.651 0-3.283-.262-4.475-.72-1.174-.45-1.59-.948-1.59-1.236V9.084zM13.434 15c0 .288-.416.785-1.59 1.236-1.192.458-2.824.72-4.475.72-1.652 0-3.283-.262-4.476-.72-1.173-.45-1.59-.948-1.59-1.236v-2.003c1.418.886 3.787 1.35 6.066 1.35 2.278 0 4.647-.464 6.065-1.35V15zm-12.13 1.91c1.417.886 3.786 1.35 6.065 1.35 2.278 0 4.647-.464 6.065-1.35v2.003c0 .288-.416.785-1.59 1.236-1.192.458-2.824.72-4.475.72-1.652 0-3.283-.262-4.476-.72-1.173-.45-1.59-.948-1.59-1.236V16.91zm13.434 3.86c1.085.67 2.71 1.106 4.345 1.294a7.226 7.226 0 0 0 .203 2.624c-1.16-.128-2.253-.382-3.097-.726-1.002-.41-1.45-.866-1.45-1.136V20.77zm4.602.01c-1.23-.133-2.397-.412-3.265-.785-.923-.396-1.337-.83-1.337-1.082v-2.038c.327.202.73.398 1.228.581 1.304.482 3.009.77 4.72.802a7.137 7.137 0 0 0-1.346 2.523zm2.816-3.867c-.379.028-.767.044-1.157.044-1.666 0-3.336-.264-4.581-.724-1.16-.429-1.68-.928-1.68-1.233v-2.003c1.418.886 3.787 1.35 6.065 1.35 2.279 0 4.648-.464 6.066-1.35V15c0 .199-.156.428-.44.655a7.111 7.111 0 0 0-4.272 1.257zM16.33 2.025c1.192-.458 2.824-.72 4.475-.72 1.652 0 3.283.262 4.476.72 1.173.45 1.59.947 1.59 1.236 0 .288-.417.785-1.59 1.236-1.193.458-2.824.72-4.476.72-1.651 0-3.283-.262-4.475-.72-1.174-.451-1.59-.948-1.59-1.236 0-.289.416-.785 1.59-1.236zM2.894 9.851c1.193-.458 2.824-.72 4.476-.72 1.651 0 3.283.262 4.475.72 1.174.45 1.59.948 1.59 1.236 0 .288-.416.785-1.59 1.236-1.192.458-2.824.72-4.475.72-1.652 0-3.283-.262-4.476-.72-1.173-.45-1.59-.948-1.59-1.236 0-.288.417-.785 1.59-1.236zm8.951 18.124c-1.192.458-2.824.72-4.475.72-1.652 0-3.283-.262-4.476-.72-1.173-.45-1.59-.947-1.59-1.236v-2.027c1.141.707 2.712 1.038 3.354 1.15a.653.653 0 0 0 .224-1.285c-2.344-.408-3.501-1.241-3.573-1.699l-.001-.005-.003-.023v-2.027c1.417.886 3.786 1.35 6.065 1.35 2.278 0 4.647-.464 6.065-1.35v2.021l-.001.006v.002l-.002.018v.004c-.074.462-1.23 1.295-3.574 1.703a.652.652 0 0 0 .223 1.285c.642-.112 2.213-.442 3.354-1.151v2.028c0 .289-.416.785-1.59 1.236zm4.484 0c-1.174-.45-1.59-.947-1.59-1.236v-2.054c1.215.754 3.124 1.223 5.066 1.36a7.189 7.189 0 0 0 2.224 2.607c-.408.028-.823.044-1.225.044-1.651 0-3.283-.263-4.475-.721zm9.888.72a5.867 5.867 0 0 1-5.87-5.869 5.868 5.868 0 0 1 5.87-5.87c3.289 0 5.87 2.687 5.87 5.87a5.876 5.876 0 0 1-5.87 5.87z"/>
        <path d="M26.217 22.174a.653.653 0 1 1 .461-1.113.653.653 0 0 0 .923-.923c-.21-.21-.46-.366-.731-.462v-.763a.652.652 0 1 0-1.305 0v.764a1.96 1.96 0 0 0-1.304 1.845c0 1.079.878 1.956 1.956 1.956a.653.653 0 1 1-.46 1.113.653.653 0 0 0-.923.923c.21.21.46.366.731.462v.763a.652.652 0 1 0 1.305 0v-.764a1.96 1.96 0 0 0 1.304-1.845 1.959 1.959 0 0 0-1.957-1.956z"/>
    </g>
</svg>
