<?xml version="1.0" encoding="UTF-8"?>
<svg width="51px" height="50px" viewBox="0 0 51 50" version="1.1" xmlns="http://www.w3.org/2000/svg" xmlns:xlink="http://www.w3.org/1999/xlink">
    <title>thiissur</title>
    <defs>
        <polygon id="path-1" points="0 0 50.014614 0 50.014614 50 0 50"></polygon>
    </defs>
    <g id="Page-1" stroke="none" stroke-width="1" fill="none" fill-rule="evenodd" opacity="0.900000036">
        <g id="011_UM_Personal-loan_City-Wise-V-5.0" transform="translate(-1178.000000, -2469.000000)">
            <g id="-City-Wise-Personal-loan-3" transform="translate(0.000000, 1630.000000)">
                <g id="returns-2-copy-3" transform="translate(157.000000, 30.000000)">
                    <g id="city-card-copy-20" transform="translate(991.000000, 779.000000)">
                        <g id="thiissur" transform="translate(30.000000, 30.000000)">
                            <g id="Group-3">
                                <mask id="mask-2" fill="white">
                                    <use xlink:href="#path-1"></use>
                                </mask>
                                <g id="Clip-2"></g>
                                <path d="M47.4207574,18.7395092 C47.4838267,17.9736949 47.2117303,17.3308951 46.7201603,16.7681524 C46.4848706,16.498692 46.2504595,16.2249358 45.9874427,15.9839835 C45.1833572,15.2473608 44.7309371,14.3432039 44.6191501,13.260676 C44.4772928,11.8860373 43.9736166,10.7379016 42.6010282,10.1720347 C41.283894,9.62911106 40.3754414,8.69947261 39.820021,7.38946541 C39.3175163,6.20423009 38.3826059,5.57792988 37.1105769,5.45501297 C35.7734284,5.32575007 34.6465762,4.7998141 33.7632147,3.76541804 C32.8484161,2.69421525 31.6853429,2.38804573 30.3297422,2.69294605 C29.1580775,2.95654864 28.0355211,2.83880615 26.9914596,2.20557417 C26.9774984,2.19717794 26.9619751,2.19141773 26.9482092,2.18282624 C25.6434741,1.37093028 24.3431323,1.39816922 23.0426929,2.19678741 C22.0028295,2.83538908 20.8797849,2.95937992 19.7074368,2.69362947 C18.3310408,2.38160211 17.16045,2.7068096 16.2347168,3.79138778 C15.3628757,4.81270134 14.2454936,5.33043634 12.926602,5.45442719 C11.6289939,5.57646542 10.703456,6.2250254 10.1887475,7.42461242 C9.65099824,8.67799388 8.78921306,9.59523324 7.52040596,10.1252697 C6.2619477,10.6509128 5.59356871,11.6088641 5.46655131,12.9641719 C5.34636806,14.247233 4.83956769,15.3418672 3.83914707,16.184712 C3.75264637,16.2574468 3.68879597,16.3566395 3.60473603,16.4327914 C2.69472134,17.257184 2.43570739,18.3024171 2.68808246,19.4545556 C2.98478181,20.8086919 2.83062311,22.0595349 2.11342883,23.2515068 C1.413027,24.4156539 1.43167444,25.5927859 2.13246679,26.755859 C2.83062311,27.9145388 2.99093254,29.1411695 2.69550238,30.4615256 C2.42418698,31.6741951 2.71297826,32.7508652 3.65872575,33.6104049 C3.79091756,33.7304905 3.90182591,33.8740074 4.03440824,33.9936049 C4.84357054,34.7234912 5.31737178,35.6272575 5.40055304,36.713593 C5.5217126,38.2952085 6.28987005,39.3920882 7.76477532,39.9926139 C7.97419292,40.0779431 8.1978646,40.1720589 8.35963848,40.3218243 C8.81811171,40.746322 9.27746362,41.1768729 9.67784665,41.6542865 C9.92328995,41.9470806 10.077351,42.3225679 10.2439088,42.6743309 C10.7618391,43.7683792 11.6228432,44.3885287 12.8180368,44.5018778 C14.2288964,44.6356317 15.4041734,45.1937858 16.3337142,46.2745564 C17.2196142,47.3047543 18.3519337,47.575191 19.6462224,47.2894263 C20.8540104,47.0226995 22.002439,47.1353652 23.0750086,47.7938835 C24.3590461,48.5823482 25.644548,48.5929899 26.9366888,47.7995461 C27.9873892,47.1544032 29.1252737,47.0066881 30.3169526,47.2780035 C31.6714794,47.5864186 32.8355288,47.2894263 33.7532563,46.2171496 C34.6612208,45.1561004 35.8235129,44.6505692 37.1945393,44.5044162 C38.207359,44.3964368 39.1283083,43.9997637 39.5629596,43.0141829 C40.2738079,41.4020091 41.38748,40.2586573 43.0098075,39.5558147 C43.8331262,39.1991701 44.2855464,38.4747512 44.447125,37.5851413 C44.47329,37.4415267 44.5236674,37.3006458 44.5358712,37.1562501 C44.6518563,35.7822949 45.1887269,34.6284966 46.2512406,33.7198487 C47.2542972,32.8620664 47.6217788,31.7586455 47.330742,30.4732412 C47.0282824,29.1377524 47.2035293,27.899699 47.9106677,26.7228599 C48.5870524,25.5973745 48.5952533,24.4499222 47.9437644,23.3014936 C47.8157707,23.0756741 47.7135515,22.8354052 47.5957114,22.6036302 C47.207044,21.8386945 47.0873489,21.0381237 47.2359427,20.1894211 C47.319905,19.7100549 47.3606169,19.2230735 47.4207574,18.7395092 M31.2279436,48.9636932 C30.7436959,48.9081414 30.2500756,48.8941803 29.7773483,48.78747 C29.0462905,48.6222791 28.4179401,48.8320872 27.7598123,49.1222453 C26.9937051,49.4600471 26.1995779,49.7865238 25.383972,49.9463451 C24.392631,50.14063 23.4404399,49.7813494 22.5897846,49.2857765 C21.661513,48.7448055 20.7267001,48.6570356 19.6890822,48.8605953 C18.0521102,49.1818 16.5576788,48.8224218 15.4187204,47.5495142 C14.5643551,46.5945894 13.5353287,46.1363115 12.2881956,45.9812741 C10.7588125,45.7910897 9.61428914,44.9539074 8.96807229,43.5626716 C8.42807752,42.4000865 7.64654468,41.586238 6.46570273,41.0515153 C4.8960958,40.3407646 4.14063032,38.9929743 3.92496436,37.3171453 C3.81991385,36.5005631 3.6486698,35.7144416 2.9710159,35.1451577 C1.23709669,33.6887046 0.70832943,31.8402647 1.21610611,29.666715 C1.3609899,29.0464678 1.22830993,28.4888996 0.961876062,27.924009 C0.651117906,27.2652954 0.337137941,26.5966235 0.136214194,25.9000293 C-0.22072323,24.6630498 0.170287269,23.5082752 0.770813005,22.4439066 C1.24754316,21.5988162 1.35640126,20.7541164 1.16104246,19.821549 C0.789265186,18.0473084 1.20751462,16.4858048 2.5704376,15.2539997 C3.38379802,14.5188413 3.82909112,13.6540296 3.94946963,12.5592002 C4.14189952,10.8078051 5.06939009,9.53177336 6.67990424,8.79944633 C7.62057494,8.3716291 8.32829906,7.76485501 8.75308974,6.79069702 C9.52124719,5.02924598 10.9041844,4.06875627 12.8181345,3.88355105 C13.7334212,3.79500011 14.4766829,3.40935929 15.0968323,2.71813474 C16.2577576,1.42443184 17.6894126,0.791785645 19.4561357,1.07120438 C19.761036,1.11933626 20.0729657,1.13183298 20.3729845,1.19919808 C20.958768,1.33080411 21.5007154,1.23707875 22.0209888,0.954731094 C22.1922328,0.861786776 22.3739234,0.788075683 22.5438982,0.693081123 C24.2033253,-0.233921294 25.8711486,-0.23655732 27.5057775,0.718562706 C28.3894319,1.23483325 29.2817755,1.3218221 30.2672586,1.12480358 C31.9614422,0.786220702 33.4813552,1.16307477 34.6665905,2.47483932 C35.446366,3.33779607 36.3590167,3.81394044 37.5267761,3.94310571 C39.2415598,4.13270431 40.4867403,5.07122713 41.193781,6.64786347 C41.6419053,7.64711252 42.3177043,8.35288403 43.3304263,8.79046432 C45.1901914,9.59396405 45.9705527,11.1523435 46.1733314,13.0692224 C46.2489951,13.7844641 46.5447181,14.37015 47.0730949,14.8510782 C47.2531257,15.0148047 47.4069915,15.2070393 47.5824336,15.3762331 C48.7966652,16.5479954 49.2129621,17.9925376 48.8920503,19.6107646 C48.6750175,20.7053987 48.7944197,21.6750657 49.3517927,22.6463924 C50.2392548,24.1928609 50.2339827,25.7919522 49.3453491,27.3366634 C48.7860235,28.3089664 48.6748223,29.2818552 48.8940029,30.3752201 C49.2234085,32.0176595 48.7895382,33.4868045 47.5347899,34.6330853 C46.6787649,35.4151062 46.1850471,36.3185797 46.0589083,37.4894633 C45.8694074,39.2480831 44.8861697,40.4904323 43.2794632,41.2113365 C42.3465053,41.6298789 41.6668011,42.250126 41.2624153,43.2083702 C40.4441733,45.1476065 38.8388336,45.9562807 36.8487317,46.1670651 C36.2257509,46.2329657 35.7078207,46.4867076 35.2627228,46.934051 C34.8508194,47.3481023 34.4155822,47.7427251 33.9616,48.110109 C33.1686444,48.7517372 32.2418372,49.0005 31.2279436,48.9636932" id="Fill-1" fill="#5268A7" mask="url(#mask-2)"></path>
                            </g>
                            <path d="M25.7883881,15.6213347 C25.7890706,15.1991801 25.4365265,14.8417545 25.0177889,14.8399906 C24.5938769,14.8382398 24.2390874,15.187562 24.2373228,15.6085451 C24.235475,16.029333 24.5893859,16.3894922 25.0064638,16.3914536 C25.4273492,16.393495 25.7877037,16.0386079 25.7883881,15.6213347 M31.2868441,34.7130935 C30.7859992,33.8790354 30.3089762,33.0849082 29.8245332,32.2782843 C29.5113343,32.6153051 29.2050671,32.9450036 28.8902085,33.2837817 C29.4941513,34.140783 30.3089762,34.5450713 31.2868441,34.7130935 M18.3081269,34.7251021 C19.1183631,34.5774846 19.8310664,34.2461264 20.4225125,33.6412073 C20.7022241,33.3551497 20.7023217,33.0310161 20.5605621,32.7511093 C20.402303,32.438789 20.1195648,32.1896358 19.9211794,31.9495621 C19.3673211,32.9026319 18.8414828,33.8072769 18.3081269,34.7251021 M25.0108572,5.43778117 C24.470179,6.48252608 23.9543966,7.39478627 23.5228694,8.34541529 C23.2789882,8.88257878 23.5684629,9.49970171 24.0965467,9.86220408 C24.660461,10.2493094 25.4198317,10.239351 25.9666606,9.83760117 C26.4784401,9.46162579 26.738528,8.83747345 26.4884961,8.3001147 C26.0547234,7.36784023 25.5486064,6.46924832 25.0108572,5.43778117 M22.0182844,9.6471239 C19.4130122,10.4969005 16.9281185,13.6631581 16.8651468,16.9413979 C16.896291,16.9413979 16.9360266,16.9540899 16.957603,16.9396405 C18.6328462,15.822649 20.5184834,15.3185823 22.4793937,15.0203208 C22.6148073,14.9997208 22.7787291,14.8504436 22.8413103,14.7189352 C23.2825029,13.792421 23.998428,13.2768338 25.0265757,13.2798604 C26.0350996,13.2828869 26.7317915,13.7989622 27.1763036,14.6991162 C27.2502099,14.8486863 27.4551365,15.0018687 27.6195464,15.0280337 C29.528322,15.3324458 31.3692443,15.8195248 33.0051425,16.904103 C33.0490762,16.9331969 33.1126337,16.9326111 33.1754102,16.9478415 C33.0042638,13.1715881 30.2176916,10.2912905 27.9988412,9.65298173 C27.4672427,10.8960144 26.5459029,11.6394713 25.1754623,11.6990259 C23.6552565,11.7650242 22.6197865,11.0138545 22.0182844,9.6471239 M34.9003474,19.5706872 C35.1638523,19.3777692 35.3812757,19.173526 35.6368725,19.0458252 C35.8407252,18.9439965 36.1331288,18.8353336 36.3107188,18.9097281 C36.5469849,19.0088232 36.7932092,19.2507518 36.8847867,19.489068 C37.0203956,19.8417097 36.8011173,20.1332347 36.4961193,20.3507556 C35.456256,21.0924552 34.7384759,21.9697636 34.3889584,23.3049595 C34.0586741,24.5667372 34.371092,25.4792903 35.0146728,26.4449544 C35.2991683,26.871893 35.1650239,27.3471587 34.7537063,27.5802029 C34.3888608,27.7869845 33.9077372,27.6297016 33.6681518,27.2263896 C33.576379,27.0719381 33.4822631,26.9189509 33.395079,26.7751411 C32.918056,27.2548001 33.0460497,27.7470536 33.2190511,28.2568805 C33.6846513,29.6289807 34.3437554,30.8633242 35.6863712,31.5660692 C37.0613028,32.2858019 38.2866643,31.6685813 38.5610062,30.1473991 C38.5983011,29.9409105 38.613922,29.7254398 38.603085,29.5160221 C38.4774344,27.0780888 39.2417843,24.8848177 40.3997807,22.7860529 C40.9634997,21.7644465 41.5252661,20.7328817 41.9703639,19.6571879 C42.501572,18.3732481 42.112807,17.2458101 40.9486598,16.2306472 C40.0786737,15.4720576 39.103637,15.4145532 37.8704651,16.0600866 C36.8331401,16.6031079 36.0098214,17.4050455 35.2013425,18.2353937 C34.823805,18.6230847 34.7226597,19.0170242 34.9003474,19.5706872 M15.23579,19.6741756 C15.1856078,19.2343498 15.2658602,18.8126833 15.091492,18.5970174 C14.1653682,17.4519082 13.102464,16.4442629 11.7169884,15.8593581 C10.7938912,15.4696168 9.89549452,15.500761 9.12001477,16.2022367 C8.26926184,16.9716634 7.53771586,17.8775776 7.9189633,19.0909305 C8.25588645,20.1633049 8.77410961,21.1899881 9.30443895,22.1878703 C10.1611473,23.8002395 11.0215657,25.40802 11.2742337,27.2425963 C11.3955885,28.1239076 11.3765505,29.0237687 11.4406938,29.9138668 C11.5591197,31.5590398 12.877816,32.3148958 14.3504758,31.5835451 C14.5812745,31.4689268 14.803677,31.3242382 15.0023552,31.1600236 C15.9378515,30.3869846 16.4365485,29.3463402 16.850307,28.2308131 C17.0911616,27.5813745 16.9080066,27.0816035 16.5663972,26.5258902 C16.3988631,26.8065781 16.2644258,27.0651039 16.0988443,27.3017605 C15.8293839,27.6868155 15.3973686,27.7785882 15.0320349,27.551109 C14.681834,27.3329046 14.5673133,26.929495 14.7533972,26.5259878 C14.8278894,26.3643116 14.9090204,26.1992182 15.0194406,26.0614615 C15.7634833,25.1335804 15.9885218,24.1283759 15.5201879,23.0017189 C15.3357637,22.5581832 15.2572687,22.0424008 14.9792168,21.6735524 C14.6670918,21.2595987 14.2028584,20.947669 13.7696714,20.6408161 C13.3296504,20.3290816 13.1710007,19.9443195 13.399261,19.5293895 C13.6230303,19.1227581 14.065785,19.0180005 14.5415389,19.2678371 C14.7376787,19.3708374 14.9247389,19.4912159 15.23579,19.6741756 M29.33804,30.2656298 C29.4967873,30.1430058 29.5263694,30.1275801 29.5456026,30.1038559 C29.6172635,30.0155979 29.6883385,29.9265588 29.7547273,29.8342979 C31.7743136,27.0321048 33.0194941,23.9517621 33.2682569,20.4719152 C33.3377699,19.5001003 33.0502478,18.8342597 32.2709604,18.3273617 C32.0260053,18.1679309 31.7849554,18.0002992 31.5288704,17.8606875 C30.2705097,17.1746374 28.9010455,16.8424981 27.5017063,16.6021316 C27.223752,16.5543902 27.1079621,16.6823839 26.9670812,16.893266 C26.1279463,18.149674 24.3455047,18.397851 23.4060056,17.2575257 C22.8406269,16.5711827 22.3243563,16.5662036 21.626981,16.775133 C21.3321367,16.8634887 21.0224524,16.901467 20.7264365,16.9866009 C19.5330002,17.3299676 18.3861337,17.7708674 17.4231056,18.5919406 C16.9661945,18.981389 16.7291474,19.4212148 16.7543361,20.0686032 C16.8928739,23.626457 18.1235074,26.7855875 20.1529544,29.6673496 C20.1840986,29.7115762 20.237893,29.7398891 20.3271274,29.8137954 C20.3271274,29.388419 20.3142402,29.0315792 20.3303492,28.6761062 C20.3514374,28.2111894 20.6661984,27.9067772 21.1015332,27.9017004 C21.5343296,27.8966236 21.8564129,28.20416 21.8856045,28.6616569 C21.8980035,28.856137 21.8877523,29.051984 21.8928291,29.2471475 C21.973472,32.3561935 22.4057802,35.3998271 23.6329967,38.2858848 C24.6537245,40.6862304 26.1528421,42.6767228 28.5476228,43.8727951 C28.7099824,43.9538285 28.8825933,44.0145547 29.1047029,44.1074014 C29.0880081,43.0993656 29.5758681,42.5089935 30.4676259,42.1873983 C29.352587,41.0924713 28.5350284,39.9111412 28.0342811,38.5273253 C26.8011092,35.119432 27.24279,31.7421948 28.2472135,28.3821405 C28.3807721,27.9352853 28.821086,27.7430507 29.2166852,27.8791477 C29.64831,28.0275462 29.8469882,28.4179709 29.7215329,28.8920651 C29.610527,29.3113884 29.488684,29.7278805 29.33804,30.2656298 M21.0106391,35.2478162 C19.5618012,36.2453079 17.9959043,36.5204309 16.3242734,36.3177498 C16.2275215,36.3060342 16.1064595,36.3215574 16.0395826,36.2694227 C15.7991184,36.0818743 15.4862124,35.91229 15.3706178,35.6584505 C15.2184117,35.3241634 15.4135753,35.0089142 15.7367325,34.7946151 C17.079446,33.9039312 17.9138946,32.6398104 18.4318248,31.1354207 C18.6431951,30.5217148 18.6855667,29.966392 18.0712751,29.4939576 C17.9880938,29.6625657 17.8985666,29.8430846 17.8097227,30.0238965 C17.1845941,31.2958277 16.330717,32.3617585 15.031742,32.995381 C12.5447981,34.208441 10.0725964,32.7713188 9.87196555,30.0114974 C9.79786393,28.9925269 9.79679,27.9595953 9.61802839,26.9587842 C9.34007412,25.4032361 8.53013077,24.0494904 7.7708577,22.6849077 C7.16300967,21.5924214 6.53358528,20.5066716 6.33129471,19.2421603 C6.03488825,17.3892294 6.88798431,16.0255254 8.23089302,14.909803 C9.44922511,13.8976667 10.863697,13.7623507 12.2585452,14.4185259 C13.2005828,14.8615735 14.0322001,15.5399108 14.9102896,16.117591 C15.0271534,16.1945239 15.1261508,16.2985005 15.2423312,16.3975955 C15.4300748,15.6466211 15.555042,14.9120485 15.7974587,14.2184808 C16.8256064,11.276676 18.7844665,9.20202606 21.681166,8.02235568 C21.8297598,7.96192235 21.9884095,7.8369552 22.0633898,7.69910081 C22.598503,6.71488687 23.1065726,5.71612597 23.6369019,4.72927601 C23.9308676,4.18234946 24.4041807,3.8990255 25.028333,3.90365457 C25.6537546,3.90839804 26.1149615,4.20695237 26.405803,4.75417181 C26.9316413,5.74375543 27.4429327,6.74105187 27.9730668,7.72829236 C28.0343788,7.84252014 28.1615914,7.9496209 28.2830439,7.9991196 C32.0207332,9.52030177 34.1092468,12.3156607 34.6995213,16.2752644 C34.7036218,16.3029915 34.728127,16.327692 34.7707916,16.4019889 C35.0684673,16.1510783 35.3529628,15.8981174 35.6509313,15.662242 C36.6975312,14.8337488 37.8224308,14.1912419 39.1918951,14.0523136 C41.6646826,13.801403 44.467852,16.8883845 43.6008924,19.640786 C43.3009712,20.5927818 42.8360543,21.4964505 42.4044295,22.4021695 C41.9226226,23.4130366 41.3545102,24.3836799 40.894182,25.403529 C40.3387616,26.6343578 40.1198738,27.9464152 40.1690796,29.2996728 C40.204129,30.2636772 40.0408907,31.1841383 39.4899613,31.995839 C38.5476308,33.3840483 36.7731949,33.8103035 35.1456931,33.0537641 C33.8326593,32.4433776 32.9504693,31.4090792 32.3022999,30.1475944 C32.1921726,29.9333929 32.0903439,29.7148957 31.9499511,29.4271783 C31.6475891,29.8644657 31.3651439,30.2494231 31.1147214,30.6541019 C31.0613175,30.7404073 31.1017365,30.9055007 31.1371764,31.0226574 C31.603753,32.5668803 32.4594851,33.8390069 33.801027,34.7570273 C34.1269179,34.9801132 34.3342853,35.247621 34.2456367,35.6485898 C34.1523995,36.0706468 33.8320735,36.2440387 33.4280782,36.2990048 C31.9742611,36.496902 30.5755077,36.3455746 29.2604237,35.6510306 C29.1772424,35.6070968 29.0880081,35.5747811 28.9392191,35.5098567 C29.1655268,37.581773 29.8928746,39.3524013 31.3326329,40.8084639 C31.5362903,41.0143668 31.7524444,41.2310091 31.8805357,41.4842628 C32.2783804,42.2702867 31.9607881,43.1670236 31.1376646,43.5825394 C30.8323738,43.7366981 30.6879781,43.9006198 30.6563458,44.2675156 C30.5617418,45.3653715 29.4717939,45.9700954 28.4163096,45.5334914 C26.4339206,44.7133945 24.8844255,43.3583796 23.673611,41.6079608 C22.4086115,39.7793399 21.6349867,37.736127 21.108465,35.5899138 C21.0856194,35.4970671 21.0560374,35.4058802 21.0106391,35.2478162" id="Fill-4" fill="#5268A7"></path>
                            <path d="M21.9200876,21.9067528 C21.7380065,22.3946129 21.4435527,22.6695406 20.9411457,22.5673214 C20.3719594,22.4514339 20.3128929,21.9892507 20.314455,21.4721015 C20.0896117,21.5351708 19.9075307,21.5959947 19.7210563,21.6364137 C19.3223329,21.7229144 18.9056456,21.4889916 18.8003998,21.1015934 C18.6879294,20.6872492 18.8339847,20.359308 19.2164038,20.1631682 C20.302544,19.6060881 22.3910575,20.0012967 23.2216986,20.920391 C23.5082443,21.2373975 23.5500302,21.5983378 23.2838892,21.9412164 C23.0217511,22.278823 22.672917,22.3523388 22.2862023,22.1462407 C22.1727555,22.0858073 22.0697553,22.005555 21.9200876,21.9067528" id="Fill-6" fill="#5268A7"></path>
                            <path d="M28.1115362,21.9081099 C27.9443927,22.0144296 27.8289933,22.1066905 27.6988517,22.1671238 C27.3286366,22.3390513 26.9957163,22.2692454 26.7449033,21.9475527 C26.493895,21.625567 26.508442,21.2852268 26.7643318,20.9673416 C27.5242883,20.0230585 29.73855,19.591629 30.8249831,20.1762409 C31.20584,20.3811675 31.3392034,20.7072537 31.2174581,21.1169116 C31.1005943,21.51007 30.7014804,21.7229047 30.2939704,21.6301556 C30.1092533,21.5880768 29.9274651,21.5334037 29.6998882,21.4725798 C29.7218551,21.9991992 29.6469725,22.4459568 29.0823748,22.5634064 C28.5785033,22.668164 28.2901026,22.3884524 28.1115362,21.9081099" id="Fill-8" fill="#5268A7"></path>
                            <path d="M25.7915211,19.4848797 C25.7821485,19.9106467 25.4358529,20.2501082 25.0115503,20.2496206 C24.5667454,20.2491319 24.2128345,19.8784286 24.2339227,19.4352834 C24.2544251,19.0078566 24.6072621,18.6834302 25.0376177,18.696708 C25.4656302,18.7098881 25.8008936,19.0603819 25.7915211,19.4848797" id="Fill-10" fill="#5268A7"></path>
                        </g>
                    </g>
                </g>
            </g>
        </g>
    </g>
</svg>