<?xml version="1.0" encoding="UTF-8"?>
<svg width="80px" height="50px" viewBox="0 0 80 50" version="1.1" xmlns="http://www.w3.org/2000/svg" xmlns:xlink="http://www.w3.org/1999/xlink">
    <title>Trivandrum</title>
    <defs>
        <polygon id="path-1" points="0 0 79.1348715 0 79.1348715 50 0 50"></polygon>
    </defs>
    <g id="Page-1" stroke="none" stroke-width="1" fill="none" fill-rule="evenodd" opacity="0.900000036">
        <g id="011_UM_Personal-loan_City-Wise-V-5.0" transform="translate(-797.000000, -2468.000000)">
            <g id="-City-Wise-Personal-loan-3" transform="translate(0.000000, 1630.000000)">
                <g id="returns-2-copy-3" transform="translate(157.000000, 30.000000)">
                    <g id="city-card-copy-19" transform="translate(625.000000, 779.000000)">
                        <g id="Trivandrum" transform="translate(15.000000, 29.000000)">
                            <mask id="mask-2" fill="white">
                                <use xlink:href="#path-1"></use>
                            </mask>
                            <g id="Clip-2"></g>
                            <path d="M41.2232342,7.59671188 C40.7991236,6.65626118 40.5202564,5.92181397 40.1234999,5.25805185 C40.0457947,5.12830113 39.3108634,5.15589736 39.2217808,5.30961324 C38.8376121,5.97168085 38.5810155,6.7075805 38.2012042,7.59671188 L41.2232342,7.59671188 Z M42.0407122,11.0832785 C41.9015206,10.3476209 41.7981558,9.80247423 41.6935806,9.24982328 L37.4168901,9.24982328 C37.3011796,9.90341836 37.1997513,10.4759192 37.0842828,11.1292722 L38.3786431,11.1292722 C38.8700498,10.5892091 39.2101613,10.2152074 39.5505149,9.84120579 C39.8882057,10.2093977 40.2258965,10.5778317 40.7901669,11.1936635 C41.0196514,11.1735715 41.4982283,11.1312088 42.0407122,11.0832785 Z M30.1743304,47.3638572 L31.9446048,47.3638572 L31.9446048,40.1409054 L30.1743304,40.1409054 L30.1743304,47.3638572 Z M31.9717169,35.4420409 C31.0472429,35.7228447 30.2057998,35.9724212 29.3682298,36.2343434 C28.06225,36.6432034 26.7509446,37.0382653 25.4611836,37.4945715 C25.2319412,37.5756657 25.0540181,37.9070627 24.9467801,38.1624489 C24.916279,38.2350706 25.2169327,38.5746979 25.36847,38.5766345 C27.5660019,38.6044728 29.7637758,38.5957582 31.9717169,38.5957582 L31.9717169,35.4420409 Z M47.1569092,38.5456493 L54.5916743,38.5456493 C54.2215458,38.0549688 54.0625043,37.6068931 53.7848475,37.5141794 C51.6153959,36.7903834 49.4229476,36.1350938 47.1569092,35.4333263 L47.1569092,38.5456493 Z M47.1656238,47.3626469 L49.1934631,47.3626469 L49.1934631,40.1384847 L47.1656238,40.1384847 L47.1656238,47.3626469 Z M42.7937989,15.6226174 C42.6739732,14.8864757 42.5229201,14.2960614 42.4938714,13.6995954 C42.4536874,12.8743711 42.0828327,12.6080916 41.2735852,12.6475494 C40.0278814,12.7085516 38.7741892,12.6187428 37.5309061,12.6995949 C37.2273475,12.7194449 36.7918595,13.1024032 36.6940623,13.4071721 C36.4776498,14.0813434 36.4374658,14.8121595 36.3118303,15.6049461 L38.3701706,15.6049461 C38.8780382,15.0975627 39.2302533,14.7458317 39.5824685,14.3938586 C39.9109605,14.7743962 40.2394525,15.1549338 40.6434711,15.6226174 L42.7937989,15.6226174 Z M43.6136977,20.2612059 C43.4253654,19.1883417 43.2542204,18.2156953 43.0874326,17.2655618 L35.9828541,17.2655618 C35.7981529,18.2904957 35.6294286,19.2277994 35.4461799,20.2445029 L38.3157044,20.2445029 C38.8661767,19.4289615 39.23921,18.8763105 39.6122433,18.3234175 C39.9276635,18.8934976 40.2428416,19.4633357 40.6843813,20.2612059 L43.6136977,20.2612059 Z M42.4730532,7.61801423 L57.7955005,7.61801423 L57.7955005,6.16437036 L42.4730532,6.16437036 L42.4730532,7.61801423 Z M21.1522976,7.60131125 L36.9143481,7.60131125 L36.9143481,6.16558072 L21.1522976,6.16558072 L21.1522976,7.60131125 Z M11.8238013,47.3536902 L23.2985101,47.3536902 L23.2985101,45.2951078 L11.8238013,45.2951078 L11.8238013,47.3536902 Z M55.870542,47.3243995 L67.2571366,47.3243995 L67.2571366,45.2982547 L55.870542,45.2982547 L55.870542,47.3243995 Z M50.8034856,47.3452177 L54.259067,47.3452177 L54.259067,40.136064 L50.8034856,40.136064 L50.8034856,47.3452177 Z M24.9608203,47.3645835 L28.5417951,47.3645835 L28.5417951,40.1568822 L24.9608203,40.1568822 L24.9608203,47.3645835 Z M45.2411494,11.1868854 C49.2731048,11.1866434 53.3053023,11.1871275 57.3372578,11.1871275 C57.7633049,11.1871275 58.1893521,11.1871275 58.637912,11.1871275 C58.3142614,9.17332845 58.3007053,9.16170898 56.5715832,9.1624352 C54.2733493,9.16340349 51.9751153,9.16291934 49.6768813,9.16316142 C47.5877978,9.16316142 45.4987143,9.16316142 43.3275683,9.16316142 C43.4667598,11.1876117 43.4667598,11.1871275 45.2411494,11.1868854 Z M21.6052147,11.188822 C25.7153595,11.1885799 29.8255043,11.1880958 33.935649,11.1883379 C35.7083441,11.1885799 35.7083441,11.1893062 35.7722512,9.16340349 C35.3399102,9.16340349 34.9109581,9.16340349 34.4822482,9.16340349 C30.4928975,9.16340349 26.5035468,9.16340349 22.5144381,9.16340349 C20.7255242,9.16340349 20.7255242,9.16364556 20.1866714,11.188822 C20.7356912,11.188822 21.170453,11.188822 21.6052147,11.188822 Z M34.9029698,47.3522378 C34.9029698,46.2002159 34.8995807,45.121542 34.903696,44.042868 C34.9148313,41.0322154 36.8148564,38.9448264 39.5250973,38.9615294 C42.2256554,38.9782324 44.1060726,41.0733677 44.123986,44.0917666 C44.1302798,45.1675357 44.1249543,46.2430627 44.1249543,47.3391659 L45.6047419,47.3391659 C45.6047419,46.0068002 45.6270126,44.7644854 45.6003846,43.5228968 C45.5340568,40.4057324 43.2762489,37.9167456 40.2859304,37.6354576 C37.0641908,37.3326252 34.1549665,39.368937 33.6700958,42.5032885 C33.4285077,44.0641704 33.6279752,45.6933166 33.6279752,47.3522378 L34.9029698,47.3522378 Z M35.8836044,21.8685656 C35.5982013,21.8736491 35.1222872,22.2166655 35.0695155,22.4718097 C34.7294039,24.117901 34.4822482,25.783116 34.1907932,27.5245838 C35.4897529,26.8407297 36.6279766,26.1622012 37.8330123,25.6364202 C38.5689119,25.3154324 38.8855424,24.9428832 38.8577041,24.1164486 C38.8465688,23.7792419 39.302875,23.4263006 39.5463997,23.0803793 C39.7925872,23.4226695 40.0651605,23.7492249 40.277942,24.1108809 C40.5139625,24.5122367 40.5844055,25.1234691 40.9204018,25.3335878 C42.1692525,26.1135446 43.497503,26.7661714 44.8092925,27.4739907 C44.8092925,27.3265687 44.837857,27.1304902 44.8046931,26.945547 C44.5074284,25.2863837 44.1990284,23.628915 43.8700522,21.8412115 C41.1133334,21.8412115 38.4977427,21.8220877 35.8836044,21.8685656 Z M42.6463769,47.3701511 C42.6463769,46.817016 42.6475873,46.4207438 42.6458928,46.0244715 C42.6425038,45.1411498 42.6938231,44.2529867 42.6207173,43.3754748 C42.4832202,41.7230896 41.2065312,40.5207168 39.624589,40.4672188 C38.0649175,40.414205 36.5936024,41.4952996 36.4522322,43.0104299 C36.3198186,44.4311519 36.4239097,45.8739025 36.4239097,47.3701511 L42.6463769,47.3701511 Z M45.6122462,31.3970136 C45.5105758,31.0423777 45.4868527,30.7543118 45.3544392,30.530637 C44.1556974,28.5061868 42.0949364,27.5410447 40.0799269,26.7465636 C39.3493529,26.4584976 38.157147,27.3350412 37.1777227,27.6870143 C36.9516272,27.7683505 36.7143964,27.846782 36.5178337,27.9791955 C35.2740665,28.8174917 33.9540465,29.5974485 33.5827077,31.3970136 L45.6122462,31.3970136 Z M44.0779922,14.2231977 C44.0629838,15.4330748 44.6161189,15.7279188 45.7906534,15.7078268 C50.221786,15.6315741 54.6550972,15.6765995 59.0876822,15.6763574 C59.5062251,15.6763574 59.924526,15.6763574 60.5088884,15.6763574 C60.2680265,15.0138057 60.04532,14.579528 59.9557533,14.1193487 C59.720217,12.9097137 59.0436251,12.6039764 57.8303589,12.6308464 C53.8027608,12.7204132 49.7720157,12.6649786 45.742239,12.6652207 C45.149162,12.6652207 44.5560849,12.6652207 43.8446346,12.6652207 C43.943158,13.2883147 44.0835599,13.7567245 44.0779922,14.2231977 Z M34.7487697,15.6272168 C34.9235459,14.6540863 35.0898495,13.7274337 35.2806025,12.6649786 C34.7025339,12.6649786 34.3077141,12.6649786 33.9128942,12.6649786 C30.0051219,12.6649786 26.0971075,12.6647365 22.1893351,12.6649786 C19.3711299,12.6652207 19.3708879,12.6654628 18.5594617,15.376672 C18.5492946,15.4110462 18.5725336,15.4551034 18.6061816,15.6272168 L34.7487697,15.6272168 Z M33.6136929,38.9145674 C35.2982737,37.1561545 37.1900684,36.1580906 39.5311491,36.1229902 C41.9148346,36.0871635 43.8322889,37.0980572 45.5401086,38.8666371 L45.5401086,33.0644073 L33.6136929,33.0644073 L33.6136929,38.9145674 Z M62.1958899,20.1682501 C61.9075819,19.3732849 61.7294167,18.6201981 61.3629193,17.9738652 C61.1583682,17.6129354 60.6432385,17.2038333 60.2643954,17.2002022 C55.2757705,17.1498512 50.2866614,17.1672804 45.2975522,17.1733322 C45.1072835,17.1733322 44.9170147,17.2311875 44.6216865,17.2793599 C44.7957365,18.2660464 44.9603456,19.199477 45.1310065,20.1682501 L62.1958899,20.1682501 Z M18.4938601,17.1929401 C18.2205605,17.1943925 17.8204151,17.4703549 17.7010735,17.7230783 C17.3452273,18.4771334 17.099766,19.283476 16.7799886,20.1542099 L33.9366173,20.1542099 C34.109699,19.192941 34.2723715,18.2892853 34.4740177,17.1697011 C29.0479682,17.1697011 23.7707931,17.1617128 18.4938601,17.1929401 Z M46.3779207,27.163412 C46.7524065,29.3343159 46.7531327,29.2951002 49.0293381,29.2735558 C52.5611722,29.2401498 56.0934905,29.2665357 59.6255668,29.2672619 C61.5483466,29.267504 63.4711265,29.2672619 65.5638412,29.2672619 C65.3999582,28.6814471 65.265124,28.2740395 65.1736207,27.856949 C64.8894279,26.5621045 64.1753147,26.1423512 62.7945346,26.1854401 C58.9782655,26.3040555 55.1559447,26.2229613 51.3360446,26.2215089 C49.6577576,26.2207826 47.9794707,26.2212668 46.245023,26.2212668 C46.3009417,26.6214122 46.3314428,26.8937435 46.3779207,27.163412 Z M27.9153121,26.2619349 C23.7296408,26.255399 19.5442116,26.2367594 15.3587824,26.2595142 C15.0239964,26.2612087 14.5190337,26.4572872 14.389283,26.7131576 C14.0017253,27.4766535 13.7618317,28.3149497 13.4449591,29.1767269 L32.3762196,29.1767269 C32.535019,28.1808417 32.6785678,27.2822695 32.8412404,26.2624191 C31.1138128,26.2624191 29.5144414,26.2643556 27.9153121,26.2619349 Z M47.0738784,31.8547722 C47.0600803,33.5645285 47.0598382,33.5577505 48.7695945,33.5650127 C54.2711706,33.5880095 59.7727467,33.6204472 65.2743227,33.6371502 C65.8664315,33.6388447 66.4590243,33.5616237 67.0613001,33.5202293 C66.6103195,31.1927046 66.2268771,30.7126753 64.8814395,30.7180009 C63.6383985,30.7228424 62.3955995,30.7301045 61.1525585,30.7305887 C58.0591172,30.7313149 54.9656759,30.7286521 51.8719925,30.7276838 C50.312321,30.7271997 48.7526495,30.7276838 47.0743626,30.7276838 C47.0743626,31.2975219 47.0762991,31.5761471 47.0738784,31.8547722 Z M16.7959653,21.7146077 C16.5299279,21.7160601 16.1428544,22.007273 16.024239,22.2621751 C15.6766232,23.0101784 15.4360034,23.8080485 15.1150156,24.6928226 C15.6361972,24.717756 15.9903489,24.7489833 16.3445006,24.7492254 C21.0939582,24.7526144 25.8434157,24.7550352 30.5928733,24.7504358 C33.3653268,24.747773 33.3653268,24.7419633 33.5621316,21.6908846 C27.9153121,21.6908846 22.3556387,21.6831383 16.7959653,21.7146077 Z M63.3701824,23.1556638 C63.1431186,21.9445763 62.4740309,21.6366604 61.258102,21.6569945 C56.4277923,21.7380887 51.5950619,21.6904004 46.7632997,21.6901584 C46.3345898,21.6901584 45.9056377,21.6901584 45.4197987,21.6901584 C45.5117862,22.3524681 45.6291912,22.8666295 45.645168,23.3839379 C45.6802685,24.509816 46.2089543,24.8194264 47.3215183,24.7797265 C49.849963,24.6896756 52.3842174,24.7606028 54.9160511,24.7625394 C57.8451253,24.764718 60.7739575,24.7630235 63.9421991,24.7630235 C63.6829398,24.050847 63.4563601,23.6163273 63.3701824,23.1556638 Z M31.9685699,33.5437103 L31.9685699,30.731799 C30.2295229,30.731799 28.5500256,30.7228424 26.8707704,30.7337356 C23.0552275,30.7579429 19.234117,30.9319928 15.4263205,30.77513 C12.6991345,30.6628085 12.9445958,30.4928737 11.9571831,33.5437103 L31.9685699,33.5437103 Z M20.3471653,3.48075738 C20.5889954,4.39796914 21.1012203,4.6216439 22.001487,4.61389759 C26.8782746,4.57201909 31.7557884,4.61220308 36.632576,4.56790386 C37.2229902,4.5623362 37.8828792,4.32922062 38.3832425,4.00508588 C39.3692028,3.36649928 40.2181502,3.36964622 41.1491601,4.08932702 C41.4991965,4.35972173 42.0022227,4.56887215 42.4369844,4.57201909 C47.3943821,4.60639335 52.3522639,4.60179398 57.3099036,4.58097576 C57.6243554,4.5797654 58.1077737,4.44396287 58.222516,4.2212564 C58.7354671,3.22682359 59.1431168,2.17816659 59.7156176,0.855967954 C55.4106047,2.96732213 51.1593318,3.35366945 46.7979161,3.2921831 C41.1973324,3.21350961 35.5948122,3.27112281 29.9930183,3.27475389 C27.0627337,3.27669047 24.2166902,2.80247093 21.4672336,1.7811681 C20.8402664,1.54829459 20.2234663,1.28782485 19.3641098,0.945292615 C19.7574772,1.93803092 20.1375307,2.68700247 20.3471653,3.48075738 Z M14.9102225,35.2033577 L14.9102225,43.6456275 L23.3374838,43.6456275 L23.3374838,40.4686712 C22.8284058,40.018901 22.4732858,39.7051753 22.1179238,39.3914497 C22.4909571,39.0130908 22.8639905,38.6347319 23.3653221,38.126138 C22.9888997,36.7826371 23.917973,36.2616976 25.217901,35.98162 C25.8821473,35.8385553 26.5202497,35.5751807 27.1702137,35.3660302 C27.15109,35.3118061 27.1319663,35.2575819 27.1128426,35.2033577 L14.9102225,35.2033577 Z M64.481052,43.6720133 L64.481052,35.237974 L52.0842899,35.237974 C53.2919884,36.4379262 56.3997119,35.2609709 55.8724786,38.1723738 C56.4306972,38.6829042 56.772019,38.9951774 57.113583,39.3076927 C56.7199735,39.673948 56.326364,40.0404454 55.8920864,40.444464 L55.8920864,43.6720133 L64.481052,43.6720133 Z M43.9487257,1.71072508 C43.9487257,1.12321572 43.8521388,0.546841689 43.9811633,0.0261442751 C44.0750874,-0.352940871 44.4667603,-0.658193981 44.7255355,-0.996610988 C44.9552621,-0.672718316 45.3096559,-0.37545359 45.3854245,-0.0188811637 C45.4982301,0.512951573 45.4147152,1.08666281 45.4147152,1.71992382 L49.0029522,1.71992382 C49.0244966,1.2638597 48.9632524,0.776084111 49.0903403,0.343743069 C49.2292898,-0.128539894 49.5129984,-0.904623533 49.7850876,-0.927136252 C50.6645361,-1 50.5272812,-0.198982919 50.5510042,0.385863641 C50.566981,0.781651773 50.5539091,1.17840819 50.5539091,1.77753702 C51.8114745,1.61486446 52.9419519,1.46865282 53.9620443,1.33648137 C54.5783603,0.573953781 53.6199963,-0.770273433 54.9712436,-0.915274712 C55.260762,-0.94625996 55.6558239,0.006778495 56.1668384,0.743888502 C57.0985745,0.343258925 58.3082096,-0.233599251 59.5621438,-0.68821094 C60.0675907,-0.871459634 60.6701085,-0.786734346 61.2285692,-0.824013473 C61.2627014,-0.235051684 61.4595061,0.404261132 61.2965915,0.932462786 C60.9780244,1.96562716 60.4965427,2.95546059 60.0143348,3.92931726 C59.0787255,5.81869119 59.0976072,7.70951755 59.8402848,9.6465797 C62.1336774,15.627943 64.4171449,21.6131794 66.6969814,27.5998683 C67.3985068,29.4420381 68.0801822,31.2914701 68.7625839,33.14066 C69.11141,34.0866784 68.6262972,34.906335 67.5812713,35.0978142 C67.1501406,35.1769718 66.7020649,35.1622054 66.1605493,35.1963376 L66.1605493,43.5901929 C68.7332932,44.0046206 68.7320828,44.0046206 68.8521506,46.7385846 C68.8606232,46.9310321 68.9063748,47.1220271 68.9523685,47.4343003 C71.7654902,47.4343003 70.1284198,47.4127558 72.9013575,47.4495508 C73.5910213,47.4587496 74.7374755,47.0864424 74.7243877,48.2065108 C74.7106055,49.3246425 73.5626989,48.9336958 72.8749716,48.9341799 C47.7038147,48.9520933 32.1505767,48.9518512 6.97941984,48.937569 C6.31783638,48.9370848 5.24013071,49.2771963 5.20769303,48.2483893 C5.17138219,47.095157 6.29822852,47.4570551 6.98595579,47.4485825 C9.76276659,47.4139662 7.333361,47.4340582 10.2791382,47.4340582 C10.2791382,46.5863212 10.3164174,45.832024 10.2699395,45.0830525 C10.2094214,44.1079855 10.583181,43.6386074 11.5955271,43.7146181 C12.1133197,43.7535917 12.6364378,43.7216381 13.2430709,43.7216381 L13.2430709,35.2527404 C12.9438696,35.2149771 12.6422476,35.1530067 12.338931,35.1428396 C10.402353,35.0784484 9.92183959,34.4096028 10.5771292,32.6315821 C12.9039277,26.3185798 15.2377462,20.0079983 17.5691441,13.6966905 C18.0719282,12.3357603 18.563819,10.9704728 19.0811274,9.61486824 C19.7877363,7.76301551 19.796935,5.93488587 19.0118947,4.0973154 C18.536949,2.9859617 18.0685391,1.86540924 17.7117247,0.71362947 C17.5793111,0.285887801 17.6020659,-0.483175743 17.8605991,-0.667876871 C18.2166874,-0.922294807 18.9216018,-0.928830758 19.3745189,-0.762285049 C20.6785622,-0.282497846 21.931044,0.337449191 23.1583503,0.882111757 C23.3016571,0.699589279 23.3386941,0.671508898 23.3495874,0.635440133 C23.529205,0.036553382 23.180621,-0.993221977 24.1789269,-0.967078174 C25.1622244,-0.941418515 24.7983898,0.0426051883 24.9453277,0.662794297 C25.0094768,0.933189002 25.3006897,1.2987181 25.546151,1.35076364 C26.4803078,1.54926288 27.4379457,1.63737718 28.5851261,1.79375586 C28.5851261,1.01549357 28.5190403,0.374002101 28.615143,-0.242313852 C28.658716,-0.520939014 29.0252134,-0.748971075 29.245015,-1 C29.5098421,-0.748971075 29.9475087,-0.531106048 30.0034274,-0.240135202 C30.1213166,0.374002101 30.0392541,1.02662889 30.0392541,1.73130122 L33.6964816,1.73130122 C33.6964816,1.1295096 33.6122405,0.525297258 33.7274669,-0.0382469438 C33.7991203,-0.38828342 34.1731219,-0.676591472 34.411321,-0.992737832 C34.6657389,-0.690631662 35.0617691,-0.421689391 35.1414109,-0.0789150821 C35.2653519,0.454612161 35.1743327,1.03824836 35.1743327,1.69958975 L38.8351914,1.69958975 C38.8351914,1.0745592 38.7579704,0.430647008 38.8681132,-0.179859211 C38.9225795,-0.483175743 39.3210304,-0.724521778 39.5638289,-0.993948194 C39.8051749,-0.722101055 40.1963637,-0.479302586 40.2554293,-0.172354971 C40.3672667,0.406439783 40.287867,1.02202952 40.287867,1.71072508 L43.9487257,1.71072508 Z" id="Fill-1" fill="#76B0D1" mask="url(#mask-2)"></path>
                        </g>
                    </g>
                </g>
            </g>
        </g>
    </g>
</svg>