<svg width="71" height="60" viewBox="0 0 71 60" xmlns="http://www.w3.org/2000/svg" xmlns:xlink="http://www.w3.org/1999/xlink">
    <defs>
        <path id="oe3e6axgca" d="M0 0h70.636v60H0z"/>
    </defs>
    <g fill="none" fill-rule="evenodd" opacity=".9">
        <mask id="j8dlbbc9qb" fill="#fff">
            <use xlink:href="#oe3e6axgca"/>
        </mask>
        <path d="M28.108 33.554c-.077-.242-.424-.42-.853-.42-.43 0-.777.178-.854.42-.228.054-.383.191-.383.357v.2c-.07.03-.12.092-.12.163v1.536c0 .102.1.184.221.184.122 0 .22-.082.22-.184v-1.372c.071-.03.12-.092.12-.164v-.343a.324.324 0 0 1 .152-.035c.12-.002.215-.084.215-.184v-.057c0-.052.167-.154.429-.154.261 0 .428.102.428.154v.057c0 .1.096.182.215.184.08.002.132.022.152.035v.343c0 .072.049.133.12.164v1.372c0 .102.099.184.22.184.122 0 .221-.082.221-.184v-1.536c0-.07-.049-.132-.12-.163v-.2c0-.166-.155-.303-.383-.357zm-1.201 1.877h.696v-.55h-.696v.55zm-.221-.917c-.122 0-.22.082-.22.184v.917c0 .101.098.183.22.183h1.137c.122 0 .22-.082.22-.183v-.917c0-.102-.098-.184-.22-.184h-1.137zm2.69-2.71h-4.44c-.122 0-.22.083-.22.185 0 .101.098.183.22.183h4.44c.121 0 .22-.082.22-.183 0-.102-.099-.184-.22-.184zM25.69 37.69h3.128v-1.113h-3.128v1.113zm3.569.184v-1.48c0-.102-.099-.184-.22-.184h-3.57c-.122 0-.22.082-.22.183v1.481c0 .101.098.184.22.184h3.57c.121 0 .22-.083.22-.184zm7.71-3.027c.103 0 .188.07.188.156s-.085.157-.188.157c-.104 0-.188-.07-.188-.157 0-.086.084-.156.188-.156zm0 .68c.347 0 .629-.235.629-.524 0-.289-.282-.524-.629-.524-.347 0-.629.235-.629.524 0 .29.282.524.629.524zm-20.695.467c.122 0 .221-.082.221-.184v-1.536c0-.07-.049-.132-.12-.163v-.2c0-.166-.155-.303-.383-.357-.077-.242-.424-.42-.853-.42-.43 0-.777.178-.854.42-.228.054-.383.191-.383.357v.2c-.071.03-.12.092-.12.163v1.536c0 .102.1.184.22.184.123 0 .221-.082.221-.184v-1.372c.071-.03.12-.092.12-.164v-.343a.324.324 0 0 1 .152-.035c.12-.002.215-.084.215-.184v-.057c0-.052.167-.154.429-.154.261 0 .428.102.428.154v.057c0 .1.096.182.215.184.08.002.132.022.152.035v.343c0 .072.049.133.12.164v1.372c0 .102.099.184.22.184zm-2.7 1.696h3.129v-1.113h-3.129v1.113zm3.57.184v-1.48c0-.102-.099-.184-.22-.184h-3.57c-.122 0-.22.082-.22.183v1.481c0 .101.098.184.22.184h3.57c.121 0 .22-.083.22-.184zm-2.354-2.443h.697v-.55h-.697v.55zm-.22-.917c-.122 0-.22.082-.22.184v.917c0 .101.098.183.22.183h1.137c.122 0 .22-.082.22-.183v-.917c0-.102-.098-.184-.22-.184h-1.137zm-3.403-11.958c-.067-.333-.542-.583-1.137-.583-.594 0-1.07.25-1.136.583-.314.059-.531.233-.531.446v.339c-.098.018-.17.091-.17.179v2.187c0 .101.098.183.22.183s.22-.082.22-.183v-2.009c.098-.018.17-.091.17-.178v-.518c.006-.022.11-.095.309-.1.12-.002.214-.083.214-.183v-.081c0-.14.301-.297.704-.297.403 0 .704.156.704.297v.081c0 .1.095.181.215.184.198.004.302.077.308.099v.518c0 .087.073.16.17.178v2.009c0 .101.099.183.22.183.123 0 .221-.082.221-.183V23.52c0-.088-.072-.16-.17-.18v-.338c0-.213-.217-.387-.531-.446zm18.248 8.015h-4.017l-.109-.25c-.623-1.428-2.268-2.388-4.093-2.388-1.824 0-3.47.96-4.093 2.389l-.109.25h-4.016c-.122 0-.22.081-.22.183 0 .101.098.184.22.184h4.17c.093 0 .176-.049.208-.121l.161-.37c.56-1.285 2.04-2.147 3.68-2.147 1.64 0 3.118.862 3.678 2.146l.162.37c.032.073.114.122.207.122h4.17c.123 0 .221-.083.221-.184 0-.102-.098-.184-.22-.184zm-26.229-3.48h8.853c.121 0 .22-.083.22-.184 0-.102-.099-.184-.22-.184H3.187c-.122 0-.22.082-.22.184 0 .101.098.183.22.183zm18.033-4.098c.164.106.458.319.663.592a5.61 5.61 0 0 0-1.322-.005c.205-.27.496-.482.659-.587zm-3.767 2.604a.16.16 0 0 0-.015.053l-.226 2.604c-.009.101.083.19.204.197h.016c.115 0 .211-.074.22-.17l.223-2.576.001-.003c.258-1.005 1.716-1.792 3.321-1.792.79 0 1.578.188 2.218.528.633.336 1.048.784 1.171 1.263l.156 2.576c.006.101.11.18.231.174.122-.005.216-.091.21-.193l-.158-2.604a.154.154 0 0 0-.015-.056c-.246-.895-1.302-1.637-2.616-1.925a.156.156 0 0 0-.02-.107c-.266-.46-.765-.793-.956-.91v-.593c0-.102-.099-.184-.22-.184-.123 0-.221.082-.221.184v.622c-.231.146-.727.5-.96.972l-.006.016c-.444.1-.865.253-1.237.456-.697.38-1.165.9-1.321 1.468zm10.13.47c.135 0 .238.062.25.12a3.559 3.559 0 0 0-.5 0c.01-.058.114-.12.25-.12zm-2.144 1.403c.11.043.241.004.293-.088.285-.5 1.029-.836 1.85-.836 1.087 0 1.971.572 1.971 1.275 0 .036.013.07.036.1h-3.622c-.122 0-.22.081-.22.183 0 .101.098.184.22.184h3.586v.956h-3.297c-.122 0-.22.082-.22.183 0 .102.098.184.22.184h3.518c.121 0 .22-.082.22-.184v-1.323a.173.173 0 0 0-.081-.142.173.173 0 0 0 .081-.141c0-.744-.73-1.374-1.729-1.575a.154.154 0 0 0 .01-.049c0-.219-.198-.405-.472-.47v-.487c0-.101-.099-.184-.22-.184-.122 0-.22.083-.22.184v.486c-.274.066-.472.252-.472.471 0 .017.003.032.008.047-.707.14-1.288.495-1.565.98-.052.092-.005.202.105.246zm-10.627-1.403c.136 0 .239.062.25.12a3.609 3.609 0 0 0-.5 0c.011-.058.114-.12.25-.12zm0 .479c.821 0 1.565.336 1.85.836.052.092.184.131.294.088.11-.044.157-.154.104-.245-.276-.486-.858-.84-1.565-.98a.154.154 0 0 0 .008-.048c0-.219-.197-.405-.47-.47v-.487c0-.101-.1-.184-.221-.184-.122 0-.22.083-.22.184v.486c-.274.066-.472.252-.472.471 0 .017.004.033.009.049-.998.2-1.729.83-1.729 1.575 0 .057.032.108.082.141a.173.173 0 0 0-.082.142v1.323c0 .102.099.184.22.184h3.519c.122 0 .22-.082.22-.184 0-.101-.098-.183-.22-.183H12.84v-.956h3.587c.121 0 .22-.083.22-.184 0-.102-.099-.184-.22-.184h-3.622a.161.161 0 0 0 .035-.1c0-.702.884-1.274 1.97-1.274zm-8.105-3.99c-.067-.333-.542-.583-1.136-.583-.595 0-1.07.25-1.137.583-.313.059-.53.233-.53.446v.339c-.098.018-.171.091-.171.179v2.187c0 .101.099.183.22.183.122 0 .22-.082.22-.183v-2.009c.098-.018.171-.091.171-.178v-.518c.006-.022.11-.095.308-.1.12-.002.215-.083.215-.183v-.081c0-.14.301-.297.704-.297.403 0 .704.156.704.297v.081c0 .1.095.181.214.184.199.004.303.077.309.099v.518c0 .087.072.16.17.178v2.009c0 .101.099.183.22.183.122 0 .22-.082.22-.183V23.52c0-.088-.072-.16-.17-.18v-.338c0-.213-.217-.387-.53-.446zm-3.52 3.56c-.121 0-.22.082-.22.183 0 .102.098.184.22.185l9.433.02c.122 0 .22-.082.221-.183 0-.101-.098-.184-.22-.184l-9.433-.02zm14.271 5.689h-4.44c-.121 0-.22.082-.22.184 0 .101.099.183.22.183h4.44c.122 0 .22-.082.22-.183 0-.102-.098-.184-.22-.184zm-1.83-9.249c-.067-.333-.542-.583-1.136-.583-.595 0-1.07.25-1.137.583-.314.059-.531.233-.531.446v.339c-.098.018-.17.091-.17.179v2.187c0 .101.098.183.22.183s.22-.082.22-.183v-2.009c.098-.018.171-.091.171-.178v-.518c.006-.022.11-.095.308-.1.12-.002.215-.083.215-.183v-.081c0-.14.3-.297.704-.297.403 0 .704.156.704.297v.081c0 .1.095.181.214.184.199.004.303.077.309.099v.518c0 .087.072.16.17.178v2.009c0 .101.099.183.22.183.122 0 .22-.082.22-.183V23.52c0-.088-.072-.16-.17-.18v-.338c0-.213-.217-.387-.53-.446zm9.093 22.97c-.122 0-.22.083-.22.184v.296c0 .102.098.184.22.184s.22-.082.22-.184v-.296c0-.101-.098-.183-.22-.183zm-2.643 0c-.122 0-.22.083-.22.184v.296c0 .102.098.184.22.184s.22-.082.22-.184v-.296c0-.101-.098-.183-.22-.183zm1.104-3.43v-.391c0-.233-.266-.423-.645-.48-.069-.365-.633-.64-1.34-.64-.707 0-1.27.275-1.34.64-.379.057-.645.247-.645.48v.39c-.115.006-.207.086-.207.184v2.995c0 .101.099.183.22.183.122 0 .22-.082.22-.183v-2.811c.117-.006.208-.086.208-.184v-.574c.006-.028.149-.124.423-.13.12-.002.215-.084.215-.183v-.09c0-.162.396-.35.906-.35s.907.188.907.35v.09c0 .1.095.181.215.183.274.006.416.102.422.13v.574c0 .098.092.178.208.184v2.81c0 .102.098.184.22.184s.22-.082.22-.183v-2.995c0-.098-.091-.178-.207-.183zm-.223 3.43c-.122 0-.22.083-.22.184v.296c0 .102.098.184.22.184s.22-.082.22-.184v-.296c0-.101-.098-.183-.22-.183zm-1.762 0c-.122 0-.22.083-.22.184v.296c0 .102.098.184.22.184s.22-.082.22-.184v-.296c0-.101-.098-.183-.22-.183zm-3.524 0c-.122 0-.22.083-.22.184v.296c0 .102.098.184.22.184s.22-.082.22-.184v-.296c0-.101-.098-.183-.22-.183zm6.167 0c-.122 0-.22.083-.22.184v.296c0 .102.098.184.22.184s.22-.082.22-.184v-.296c0-.101-.098-.183-.22-.183zm-4.405 0c-.122 0-.22.083-.22.184v.296c0 .102.098.184.22.184s.22-.082.22-.184v-.296c0-.101-.098-.183-.22-.183zm.881 0c-.122 0-.22.083-.22.184v.296c0 .102.098.184.22.184s.22-.082.22-.184v-.296c0-.101-.098-.183-.22-.183zm-1.762 0c-.122 0-.22.083-.22.184v.296c0 .102.098.184.22.184s.22-.082.22-.184v-.296c0-.101-.098-.183-.22-.183zm2.295-10.095h.696v-.55h-.696v.55zm-.22-.917c-.122 0-.221.082-.221.184v.917c0 .101.099.183.22.183h1.138c.122 0 .22-.082.22-.183v-.917c0-.102-.098-.184-.22-.184h-1.138zm3.413 7.393h-.08v-.645c0-.31-.383-.56-.92-.621-.039-.516-.835-.914-1.845-.914s-1.806.398-1.844.914c-.538.061-.921.311-.921.621v.645h-.08c-.121 0-.22.082-.22.184v3.255c0 .102.099.184.22.184.122 0 .221-.082.221-.184v-3.072h.08c.12 0 .22-.082.22-.183v-.829c0-.104.274-.26.704-.268.12-.003.215-.084.215-.184v-.13c0-.277.577-.586 1.405-.586.828 0 1.405.309 1.405.586v.13c0 .1.096.181.216.184.43.008.704.164.704.268v.829c0 .101.099.183.22.183h.08v3.072c0 .102.098.184.22.184.121 0 .22-.082.22-.184v-3.255c0-.102-.099-.184-.22-.184zm9.461-6.068c0-.172.169-.312.375-.312.207 0 .375.14.375.312v.902h-.75v-.902zm-1.112 1.626h2.975c.122 0 .22-.082.22-.183 0-.102-.098-.184-.22-.184h-.823c.088-.025.151-.093.151-.174V35.84c0-.374-.366-.68-.816-.68-.45 0-.816.306-.816.68v1.085c0 .081.064.15.151.174h-.822c-.122 0-.22.082-.22.184 0 .101.098.183.22.183zm-11.195 1.371c.155 0 .281.089.281.197 0 .109-.126.197-.281.197-.156 0-.282-.088-.282-.197 0-.108.126-.197.282-.197zm0 .762c.398 0 .722-.253.722-.565 0-.311-.324-.564-.722-.564-.399 0-.723.253-.723.564 0 .312.324.565.723.565zm-3.98-3.204c0 .101.1.183.22.183h.002c2.455-.008 7.183-.018 7.5 0h.016c.115 0 .212-.074.22-.171.007-.102-.084-.19-.206-.196-.413-.023-7.242-.001-7.532 0-.122 0-.22.083-.22.184zm5.117-.4c.122 0 .22-.082.22-.184v-1.536c0-.07-.048-.132-.12-.163v-.2c0-.166-.154-.303-.382-.357-.077-.242-.424-.42-.854-.42s-.777.178-.853.42c-.228.054-.383.19-.383.357v.2c-.071.03-.12.092-.12.163v1.536c0 .102.099.184.22.184.122 0 .22-.082.22-.184v-1.372c.072-.03.12-.092.12-.164v-.343a.324.324 0 0 1 .153-.035c.12-.002.215-.084.215-.184v-.057c0-.052.167-.154.428-.154.262 0 .429.102.429.154v.057c0 .1.095.182.215.184.079.002.131.022.152.035v.343c0 .072.048.133.12.164v1.372c0 .102.098.184.22.184zm26.132-.155c0-.172.168-.312.375-.312s.375.14.375.312v.902h-.75v-.902zm-1.113 1.626h2.976c.121 0 .22-.082.22-.183 0-.102-.099-.184-.22-.184h-.823c.087-.025.15-.093.15-.174V35.84c0-.374-.365-.68-.815-.68-.45 0-.816.306-.816.68v1.085c0 .081.064.15.151.174h-.823c-.121 0-.22.082-.22.184 0 .101.099.183.22.183zm-33.305 6.37h1.123v-.893h-1.123v.893zm-.22-1.26c-.122 0-.22.082-.22.183v1.26c0 .102.098.184.22.184h1.564c.122 0 .22-.082.22-.183v-1.26c0-.102-.098-.184-.22-.184h-1.564zm2.344 1.896c.121 0 .22-.082.22-.183v-2.112c0-.085-.07-.157-.164-.178v-.322c0-.207-.21-.377-.514-.435-.069-.323-.529-.564-1.104-.564-.575 0-1.036.241-1.104.564-.304.058-.514.228-.514.435v.322c-.095.021-.164.093-.164.178v2.112c0 .101.098.183.22.183s.22-.082.22-.183v-1.934c.095-.02.165-.093.165-.178v-.498c.009-.023.111-.087.29-.091.12-.003.215-.084.215-.184v-.078c0-.133.287-.28.672-.28.384 0 .672.147.672.28v.078c0 .1.095.181.215.184.179.004.281.068.29.089v.5c0 .085.07.157.164.178v1.934c0 .101.099.183.22.183zm1.162 1.722v-5.34h.15c.122 0 .221-.083.221-.184v-.18c0-1.607 1.434-2.997 3.493-3.396 2.06.399 3.493 1.79 3.493 3.395v.18c0 .102.099.185.22.185h.151v5.34h-7.728zm7.942.502v.64c0 .102.099.184.22.184.122 0 .221-.082.221-.183v-.641c0-.101-.099-.184-.22-.184-.03 0-.06.005-.086.015a.218.218 0 0 0 .027-.019.17.17 0 0 0 .065-.13V40.67c0-.102-.099-.184-.22-.184h-.15c-.003-1.79-1.6-3.336-3.887-3.76a.264.264 0 0 0-.096 0c-2.286.424-3.884 1.97-3.886 3.76h-.15c-.122 0-.22.082-.22.184v5.708c0 .061.036.115.091.149a.258.258 0 0 0-.085-.015c-.122 0-.22.083-.22.184v.64c0 .102.098.184.22.184s.22-.082.22-.183v-.641a.176.176 0 0 0-.091-.148c.026.009.055.014.085.014h.285a.17.17 0 0 0-.07.134v.64c0 .102.098.184.22.184s.22-.082.22-.183v-.641a.17.17 0 0 0-.07-.134h.35a.17.17 0 0 0-.071.134v.64c0 .102.099.184.22.184.122 0 .22-.082.22-.183v-.641a.17.17 0 0 0-.07-.134h2.051a.17.17 0 0 0-.07.134v.64c0 .102.098.184.22.184s.22-.082.22-.183v-.641a.17.17 0 0 0-.07-.134h.35a.17.17 0 0 0-.071.134v.64c0 .102.098.184.22.184s.22-.082.22-.183v-.641a.17.17 0 0 0-.07-.134h.35a.17.17 0 0 0-.071.134v.64c0 .102.099.184.22.184.122 0 .221-.082.221-.183v-.641a.17.17 0 0 0-.07-.134h2.05a.17.17 0 0 0-.07.134v.64c0 .102.098.184.22.184s.22-.082.22-.183v-.641a.17.17 0 0 0-.07-.134h.35a.17.17 0 0 0-.071.134v.64c0 .102.099.184.22.184.122 0 .22-.082.22-.183v-.641a.17.17 0 0 0-.07-.134h.285a.26.26 0 0 0 .086-.015.176.176 0 0 0-.092.149zm-5.929-15.358c0-.608.83-1.103 1.851-1.103 1.02 0 1.851.495 1.851 1.103 0 .04.016.077.043.107h-3.787a.163.163 0 0 0 .042-.107zm-1.486.29v.866c0 .102.098.184.22.184s.22-.082.22-.184v-.681h5.794v.681c0 .102.099.184.22.184.122 0 .22-.082.22-.184v-.865c0-.102-.098-.184-.22-.184h-.867a.163.163 0 0 0 .042-.107c0-.811-1.028-1.47-2.292-1.47-1.264 0-2.292.659-2.292 1.47 0 .04.016.077.042.107h-.867c-.122 0-.22.082-.22.184zm12.824 17.746H12.303c-.122 0-.22.082-.22.184 0 .101.098.184.22.184h18.381c.122 0 .22-.083.22-.184 0-.102-.098-.184-.22-.184zm-19.262-6.886H.76c-.122 0-.22.082-.22.184 0 .101.098.183.22.183h10.662c.122 0 .22-.082.22-.183 0-.102-.098-.184-.22-.184zm0-.777H.76c-.122 0-.22.082-.22.184 0 .101.098.183.22.183h10.662c.122 0 .22-.082.22-.183 0-.102-.098-.184-.22-.184zm30.954 13.105h-2.034c-.122 0-.22.082-.22.183v4.017c0 .101.098.183.22.183s.22-.082.22-.183v-3.833h1.594v3.833c0 .101.098.183.22.183s.22-.082.22-.183v-4.017c0-.101-.098-.183-.22-.183zm-11.692-6.026H12.303c-.122 0-.22.082-.22.184 0 .101.098.184.22.184h18.381c.122 0 .22-.083.22-.184 0-.102-.098-.184-.22-.184zm8.116 4.953v-.74c0-.31-.243-.57-.582-.657-.006-.57-.564-1.032-1.249-1.032-.685 0-1.243.462-1.248 1.032-.34.086-.582.348-.582.656v.741c-.107.013-.19.09-.19.182v5.09c0 .102.1.184.221.184.122 0 .22-.082.22-.183v-4.91c.108-.012.19-.088.19-.181v-.923c0-.172.163-.312.37-.32.118-.003.212-.084.212-.183v-.145c0-.37.362-.673.807-.673.446 0 .808.302.808.673v.145c0 .099.093.18.211.184.208.007.37.147.37.32v.922c0 .093.083.17.19.182v4.909c0 .101.099.183.22.183.122 0 .22-.082.22-.183v-5.091c0-.093-.081-.17-.188-.182zm-32.137-5.02a.23.23 0 0 0-.19-.092.23.23 0 0 0-.191.093.23.23 0 0 0-.19-.093.23.23 0 0 0-.191.093.23.23 0 0 0-.191-.093.23.23 0 0 0-.19.093.2.2 0 0 0-.066-.06.153.153 0 0 0 .005-.038v-3.369a.176.176 0 0 0 .09-.148v-.193a.304.304 0 0 1 .06-.007c.12-.002.215-.084.215-.184V44.7a.477.477 0 0 1 .267-.062c.15 0 .241.042.267.062v.024c0 .1.095.182.215.184.025 0 .045.003.06.007v.193c0 .06.036.115.09.148v3.369c0 .013.002.025.005.037a.201.201 0 0 0-.065.06zM6.09 44.27c.112 0 .206.04.28.095a.509.509 0 0 0-.28-.086.51.51 0 0 0-.28.086.463.463 0 0 1 .28-.095zm.906.041c-.083-.24-.445-.41-.906-.41-.46 0-.823.17-.906.41-.249.051-.415.187-.415.358v.191c-.077.03-.13.093-.13.168v3.614a.257.257 0 0 0-.073-.011c-.122 0-.22.082-.22.184v.25c0 .102.098.185.22.185a.23.23 0 0 0 .19-.093.23.23 0 0 0 .191.093.23.23 0 0 0 .19-.093.23.23 0 0 0 .191.093.23.23 0 0 0 .19-.093.23.23 0 0 0 .191.093.23.23 0 0 0 .19-.093.23.23 0 0 0 .191.093.23.23 0 0 0 .19-.093.23.23 0 0 0 .191.093.23.23 0 0 0 .19-.093.23.23 0 0 0 .191.093.23.23 0 0 0 .19-.093.23.23 0 0 0 .191.093.23.23 0 0 0 .19-.093.23.23 0 0 0 .191.093c.122 0 .22-.083.22-.184v-.251c0-.102-.098-.184-.22-.184a.257.257 0 0 0-.073.011v-3.614c0-.075-.053-.139-.13-.168v-.19c0-.172-.166-.308-.415-.359zm27.608 7.287h-2.538c-.121 0-.22.082-.22.184 0 .101.099.184.22.184h1.837a.176.176 0 0 0-.093.149v7.588c0 .101.1.183.221.183.122 0 .22-.082.22-.183v-7.588a.176.176 0 0 0-.092-.15h.445c.122 0 .22-.082.22-.183 0-.102-.098-.184-.22-.184zm-24.186-2.874a.23.23 0 0 0-.19-.093.23.23 0 0 0-.19.093.23.23 0 0 0-.191-.093.23.23 0 0 0-.19.093.23.23 0 0 0-.191-.093.23.23 0 0 0-.19.093.201.201 0 0 0-.066-.06.155.155 0 0 0 .004-.038v-3.369a.176.176 0 0 0 .09-.148v-.193a.304.304 0 0 1 .06-.007c.12-.002.216-.084.216-.184V44.7a.477.477 0 0 1 .267-.062c.15 0 .241.042.267.062v.024c0 .1.095.182.215.184.024 0 .045.003.06.007v.193c0 .06.036.115.09.148v3.369c0 .013.002.025.005.037a.201.201 0 0 0-.066.06zm-.571-4.454c.112 0 .206.04.28.095a.51.51 0 0 0-.28-.086.51.51 0 0 0-.28.086.463.463 0 0 1 .28-.095zm.905.041c-.083-.24-.444-.41-.905-.41s-.823.17-.906.41c-.25.051-.415.187-.415.358v.191c-.077.03-.13.093-.13.168v3.614a.257.257 0 0 0-.073-.011c-.122 0-.22.082-.22.184v.25c0 .102.098.185.22.185a.23.23 0 0 0 .19-.093.23.23 0 0 0 .19.093.23.23 0 0 0 .191-.093.23.23 0 0 0 .19.093.23.23 0 0 0 .191-.093.23.23 0 0 0 .19.093.23.23 0 0 0 .191-.093.23.23 0 0 0 .19.093.23.23 0 0 0 .191-.093.23.23 0 0 0 .19.093.23.23 0 0 0 .191-.093.23.23 0 0 0 .19.093.23.23 0 0 0 .191-.093.23.23 0 0 0 .19.093.23.23 0 0 0 .191-.093.23.23 0 0 0 .19.093c.123 0 .221-.083.221-.184v-.251c0-.102-.098-.184-.22-.184a.257.257 0 0 0-.074.011v-3.614c0-.075-.053-.139-.129-.168v-.19c0-.172-.166-.308-.416-.359zm11.372 10.907H20.27c-.122 0-.22.082-.22.184v3.665c0 .101.098.184.22.184s.22-.083.22-.184v-3.481h1.416v3.48c0 .102.099.185.22.185.122 0 .22-.083.22-.184V55.4c0-.102-.098-.184-.22-.184zm-4.08-.021v-.5c0-.235-.174-.435-.423-.514-.027-.425-.45-.764-.967-.764-.516 0-.94.34-.966.764-.25.08-.424.28-.424.514v.5c-.08.027-.138.093-.138.17v3.7c0 .101.1.184.22.184.123 0 .221-.083.221-.184v-3.53c.081-.027.138-.093.138-.17v-.67c0-.098.093-.178.211-.182.118-.004.212-.085.212-.184v-.105c0-.242.236-.44.526-.44.29 0 .527.198.527.44v.105c0 .099.093.18.212.184.118.004.21.084.21.182v.67c0 .077.058.143.138.17v3.53c0 .101.1.184.22.184.123 0 .221-.083.221-.184v-3.7c0-.077-.056-.143-.137-.17zM10.42 40.06a.23.23 0 0 0-.19-.093.23.23 0 0 0-.19.093.23.23 0 0 0-.191-.093.23.23 0 0 0-.19.093.23.23 0 0 0-.191-.093.23.23 0 0 0-.19.093.201.201 0 0 0-.066-.06.155.155 0 0 0 .004-.038v-1.887a.176.176 0 0 0 .09-.148v-.193a.299.299 0 0 1 .06-.007c.12-.003.216-.084.216-.184v-.024a.477.477 0 0 1 .267-.062c.15 0 .241.041.267.062v.024c0 .1.095.181.215.184.024 0 .045.003.06.007v.193c0 .06.036.114.09.148v1.887c0 .013.002.026.005.038a.201.201 0 0 0-.066.06zm-.571-2.972c.112 0 .205.04.28.095a.51.51 0 0 0-.28-.086.51.51 0 0 0-.28.086.463.463 0 0 1 .28-.095zm.905.04c-.083-.24-.444-.41-.905-.41s-.823.17-.906.41c-.25.051-.415.188-.415.359v.19c-.077.03-.13.094-.13.168v2.134a.259.259 0 0 0-.073-.012c-.122 0-.22.083-.22.184v.251c0 .102.098.184.22.184a.23.23 0 0 0 .19-.093.23.23 0 0 0 .19.093.23.23 0 0 0 .191-.093.23.23 0 0 0 .19.093.23.23 0 0 0 .191-.093.23.23 0 0 0 .19.093.23.23 0 0 0 .191-.093.23.23 0 0 0 .19.093.23.23 0 0 0 .191-.093.23.23 0 0 0 .19.093.23.23 0 0 0 .191-.093.23.23 0 0 0 .19.093.23.23 0 0 0 .191-.093.23.23 0 0 0 .19.093.23.23 0 0 0 .191-.093.23.23 0 0 0 .19.093c.123 0 .221-.082.221-.184v-.25c0-.102-.098-.185-.22-.185a.259.259 0 0 0-.074.012v-2.134c0-.074-.053-.138-.129-.167v-.191c0-.171-.166-.308-.416-.358zm.67-2.244H.76c-.122 0-.22.082-.22.183 0 .102.098.184.22.184h10.662c.122 0 .22-.082.22-.184 0-.101-.098-.183-.22-.183zM2.905 40.06a.23.23 0 0 0-.19-.093.23.23 0 0 0-.191.093.23.23 0 0 0-.19-.093.23.23 0 0 0-.191.093.23.23 0 0 0-.19-.093.23.23 0 0 0-.191.093.201.201 0 0 0-.066-.06.155.155 0 0 0 .005-.038v-1.887a.176.176 0 0 0 .09-.148v-.193a.298.298 0 0 1 .06-.007c.12-.003.215-.084.215-.184v-.024a.477.477 0 0 1 .267-.062c.15 0 .242.041.267.062v.024c0 .1.096.181.216.184.024 0 .044.003.06.007v.193c0 .06.035.114.09.148v1.887c0 .013.001.026.004.038a.201.201 0 0 0-.065.06zm-.572-2.972c.112 0 .206.04.28.095a.51.51 0 0 0-.28-.086c-.1 0-.195.03-.28.086a.463.463 0 0 1 .28-.095zm.906.04c-.083-.24-.445-.41-.906-.41-.46 0-.822.17-.905.41-.25.051-.416.188-.416.359v.19c-.076.03-.13.094-.13.168v2.134a.258.258 0 0 0-.073-.012c-.122 0-.22.083-.22.184v.251c0 .102.098.184.22.184a.23.23 0 0 0 .19-.093.23.23 0 0 0 .191.093.23.23 0 0 0 .19-.093.23.23 0 0 0 .191.093.23.23 0 0 0 .19-.093.23.23 0 0 0 .191.093.23.23 0 0 0 .19-.093.23.23 0 0 0 .191.093.23.23 0 0 0 .19-.093.23.23 0 0 0 .191.093.23.23 0 0 0 .19-.093.23.23 0 0 0 .191.093.23.23 0 0 0 .19-.093.23.23 0 0 0 .191.093.23.23 0 0 0 .19-.093.23.23 0 0 0 .191.093c.122 0 .22-.082.22-.184v-.25c0-.102-.098-.185-.22-.185a.258.258 0 0 0-.073.012v-2.134c0-.074-.053-.138-.13-.167v-.191c0-.171-.166-.308-.415-.358zM30.684 50.31c.122 0 .22-.082.22-.184 0-.101-.098-.184-.22-.184H12.303c-.122 0-.22.083-.22.184v9.567c0 .101.098.184.22.184s.22-.083.22-.184v-8.628h.412c-.084.025-.145.092-.145.172v8.087c0 .101.098.183.22.183s.22-.082.22-.183v-8.087c0-.08-.06-.147-.145-.172h.59c-.085.025-.146.092-.146.172v8.087c0 .101.1.183.22.183.123 0 .221-.082.221-.183v-8.087c0-.08-.06-.147-.146-.172H28.57c-.085.025-.146.092-.146.172v8.087c0 .101.099.183.22.183.122 0 .221-.082.221-.183v-8.087c0-.08-.06-.147-.146-.172h.59c-.084.025-.145.092-.145.172v8.087c0 .101.099.183.22.183.122 0 .22-.082.22-.183v-8.087c0-.08-.06-.147-.145-.172h1.225c.122 0 .22-.083.22-.184 0-.101-.098-.184-.22-.184h-18.16v-.387h18.16zM6.663 40.06a.23.23 0 0 0-.19-.093.23.23 0 0 0-.191.093.23.23 0 0 0-.19-.093.23.23 0 0 0-.191.093.23.23 0 0 0-.191-.093.23.23 0 0 0-.19.093.201.201 0 0 0-.066-.06.153.153 0 0 0 .005-.038v-1.887a.176.176 0 0 0 .09-.148v-.193a.299.299 0 0 1 .06-.007c.12-.003.215-.084.215-.184v-.024a.478.478 0 0 1 .267-.062c.15 0 .241.041.267.062v.024c0 .1.095.181.215.184.025 0 .045.003.06.007v.193c0 .06.036.114.09.148v1.887c0 .013.002.026.005.038a.201.201 0 0 0-.065.06zm-.572-2.972c.112 0 .206.04.28.095a.51.51 0 0 0-.28-.086.51.51 0 0 0-.28.086.463.463 0 0 1 .28-.095zm.906.04c-.083-.24-.445-.41-.906-.41-.46 0-.823.17-.906.41-.249.051-.415.188-.415.359v.19c-.077.03-.13.094-.13.168v2.134a.258.258 0 0 0-.073-.012c-.122 0-.22.083-.22.184v.251c0 .102.098.184.22.184a.23.23 0 0 0 .19-.093.23.23 0 0 0 .191.093.23.23 0 0 0 .19-.093.23.23 0 0 0 .191.093.23.23 0 0 0 .19-.093.23.23 0 0 0 .191.093.23.23 0 0 0 .19-.093.23.23 0 0 0 .191.093.23.23 0 0 0 .19-.093.23.23 0 0 0 .191.093.23.23 0 0 0 .19-.093.23.23 0 0 0 .191.093.23.23 0 0 0 .19-.093.23.23 0 0 0 .191.093.23.23 0 0 0 .19-.093.23.23 0 0 0 .191.093c.122 0 .22-.082.22-.184v-.25c0-.102-.098-.185-.22-.185a.259.259 0 0 0-.073.012v-2.134c0-.074-.053-.138-.13-.167v-.191c0-.171-.166-.308-.415-.358zm20.132 18.068v-.5c0-.235-.174-.435-.424-.514-.026-.425-.45-.764-.966-.764s-.94.34-.966.764c-.25.08-.424.28-.424.514v.5c-.081.027-.138.093-.138.17v3.7c0 .101.099.184.22.184.122 0 .221-.083.221-.184v-3.53c.08-.027.138-.093.138-.17v-.67c0-.098.092-.178.21-.182.119-.004.212-.085.212-.184v-.105c0-.242.237-.44.527-.44.29 0 .527.198.527.44v.105c0 .099.093.18.211.184.119.004.211.084.211.182v.67c0 .077.057.143.138.17v3.53c0 .101.099.184.22.184.122 0 .221-.083.221-.184v-3.7c0-.077-.057-.143-.138-.17zm-3.55-.96h-.03v-.658c0-.3-.326-.553-.771-.623-.027-.526-.712-.934-1.58-.934-.87 0-1.554.408-1.581.934-.446.07-.77.322-.77.623v.659h-.031c-.122 0-.22.082-.22.183v4.646c0 .101.098.184.22.184s.22-.083.22-.184v-4.462h.03c.122 0 .221-.082.221-.184v-.842c0-.124.228-.267.556-.275.119-.003.214-.084.214-.184v-.132c0-.324.522-.598 1.14-.598.618 0 1.14.274 1.14.598v.132c0 .1.095.181.215.184.327.008.555.151.555.275v.842c0 .102.099.184.22.184h.03v4.462c0 .101.1.184.221.184.122 0 .22-.083.22-.184V54.42c0-.101-.098-.183-.22-.183zm-14.864-39.4c-.122 0-.22.083-.22.184v2.706c0 .101.098.183.22.183s.22-.082.22-.183V15.02c0-.101-.098-.183-.22-.183zm42.39 33.575H31.614c-.122 0-.22.082-.22.183 0 .102.098.184.22.184h19.493c.121 0 .22-.082.22-.184 0-.101-.099-.183-.22-.183zM4.75 14.846c.526 0 .97.23 1.095.542-.253-.273-.65-.45-1.095-.45-.446 0-.842.177-1.096.45.125-.311.569-.542 1.096-.542zm0-.456c.441 0 .83.147 1.053.37a2 2 0 0 0-1.053-.282 2 2 0 0 0-1.054.282c.223-.223.612-.37 1.054-.37zm-.01-.634c.073.069.16.164.225.276a2.442 2.442 0 0 0-.452.002 1.22 1.22 0 0 1 .227-.278zm-1.317 2.01a.973.973 0 0 0-.057.326v1.962c0 .101.099.184.22.184.122 0 .221-.083.221-.184v-1.962c0-.434.423-.786.943-.786s.942.352.942.786v1.962c0 .101.099.184.22.184.123 0 .221-.083.221-.184v-1.962a.973.973 0 0 0-.056-.326l.023.001a.23.23 0 0 0 .194-.097.872.872 0 0 0 .147-.478c0-.477-.414-.887-1.007-1.07a.154.154 0 0 0-.002-.108c-.113-.281-.347-.496-.472-.596v-.337c0-.101-.099-.183-.22-.183-.122 0-.22.082-.22.183v.337a1.623 1.623 0 0 0-.448.539.156.156 0 0 0 .016.158c-.605.179-1.03.594-1.03 1.077 0 .166.05.327.147.478.043.067.13.104.218.096zm47.683 33.269H31.613c-.122 0-.22.082-.22.183v10.484c0 .101.098.183.22.183.121 0 .22-.082.22-.183v-10.3h2.602a.165.165 0 0 0-.05.116v1.447h-2.318c-.121 0-.22.082-.22.184 0 .101.099.183.22.183h2.538c.122 0 .22-.082.22-.183v-1.631a.165.165 0 0 0-.05-.116h13.168a.165.165 0 0 0-.05.116v1.63c0 .102.098.184.22.184h2.538c.122 0 .22-.082.22-.183 0-.102-.098-.184-.22-.184h-2.317v-1.447a.165.165 0 0 0-.05-.116h2.601v10.3c0 .101.099.183.22.183.122 0 .221-.082.221-.183V49.218c0-.101-.099-.183-.22-.183zm-36.09-34.19c.527 0 .97.232 1.096.543-.253-.273-.65-.45-1.095-.45-.446 0-.842.177-1.096.45.125-.311.569-.542 1.096-.542zm0-.455c.442 0 .831.147 1.054.37a2 2 0 0 0-1.053-.282 2 2 0 0 0-1.054.282c.223-.223.612-.37 1.054-.37zm-.01-.634c.074.069.162.164.226.276a2.442 2.442 0 0 0-.452.002c.064-.113.153-.209.227-.278zm-1.316 2.01a.973.973 0 0 0-.057.326v1.962c0 .101.099.184.22.184.122 0 .221-.083.221-.184v-1.962c0-.434.423-.786.943-.786s.942.352.942.786v1.962c0 .101.1.184.22.184.123 0 .221-.083.221-.184v-1.962a.973.973 0 0 0-.056-.326l.023.001a.23.23 0 0 0 .194-.097.872.872 0 0 0 .147-.478c0-.477-.414-.887-1.007-1.07a.154.154 0 0 0-.002-.108c-.113-.281-.347-.496-.472-.596v-.337c0-.101-.099-.183-.22-.183-.122 0-.22.082-.22.183v.337a1.624 1.624 0 0 0-.448.539.156.156 0 0 0 .016.158c-.605.179-1.03.594-1.03 1.077 0 .166.05.327.147.478.043.067.13.104.218.096zM12.3 17.98c.122 0 .22-.082.22-.183V14.53c0-.102-.098-.184-.22-.184h-.034v-.59c0-.29-.324-.525-.783-.59-.04-.483-.729-.856-1.6-.856-.871 0-1.56.373-1.6.857-.458.064-.783.299-.783.589v.59h-.034c-.122 0-.22.082-.22.184v3.268c0 .101.098.183.22.183s.22-.082.22-.183v-3.085h.035c.121 0 .22-.082.22-.183v-.774c0-.095.216-.231.567-.239.12-.002.214-.084.214-.183v-.122c0-.253.477-.535 1.161-.535s1.16.282 1.16.535v.122c0 .1.096.18.216.183.35.008.566.144.566.239v.774c0 .101.099.183.22.183h.035v3.085c0 .101.098.183.22.183zM7.247 13.11c.098-.009.177-.07.194-.151.19-.91 1.273-1.624 2.468-1.624 1.165 0 2.227.713 2.416 1.624.017.08.096.142.194.15l.002.001.024.001c.111 0 .206-.07.218-.165a.153.153 0 0 0-.007-.067c-.114-.524-.467-1.007-.994-1.36a3.333 3.333 0 0 0-1.639-.544l-.02-.547c-.003-.102-.105-.182-.226-.178-.122.003-.218.087-.214.189l.019.536c-1.303.085-2.448.888-2.671 1.901a.155.155 0 0 0-.007.07c.012.101.122.174.243.164zm43.404 38.487h-2.538c-.122 0-.22.082-.22.184 0 .101.098.184.22.184h.445a.176.176 0 0 0-.092.149v7.588c0 .101.098.183.22.183s.22-.082.22-.183v-7.588a.176.176 0 0 0-.092-.15h1.837c.122 0 .22-.082.22-.183 0-.102-.098-.184-.22-.184zM2.906 48.723a.23.23 0 0 0-.19-.093.23.23 0 0 0-.191.093.23.23 0 0 0-.19-.093.23.23 0 0 0-.191.093.23.23 0 0 0-.19-.093.23.23 0 0 0-.191.093.201.201 0 0 0-.066-.06.155.155 0 0 0 .005-.038v-3.369a.176.176 0 0 0 .09-.148v-.193a.304.304 0 0 1 .06-.007c.12-.002.215-.084.215-.184V44.7a.477.477 0 0 1 .267-.062c.15 0 .242.042.267.062v.024c0 .1.096.182.216.184.024 0 .044.003.06.007v.193c0 .06.035.115.09.148v3.369c0 .013.001.025.004.037a.201.201 0 0 0-.065.06zm-.572-4.454c.112 0 .206.04.28.095a.51.51 0 0 0-.28-.086.51.51 0 0 0-.28.086.464.464 0 0 1 .28-.095zm.906.041c-.083-.24-.445-.41-.906-.41-.46 0-.822.17-.905.41-.25.051-.416.187-.416.358v.191c-.076.03-.13.093-.13.168v3.614a.257.257 0 0 0-.073-.011c-.122 0-.22.082-.22.184v.25c0 .102.098.185.22.185a.23.23 0 0 0 .19-.093.23.23 0 0 0 .191.093.23.23 0 0 0 .19-.093.23.23 0 0 0 .191.093.23.23 0 0 0 .19-.093.23.23 0 0 0 .191.093.23.23 0 0 0 .19-.093.23.23 0 0 0 .191.093.23.23 0 0 0 .19-.093.23.23 0 0 0 .191.093.23.23 0 0 0 .19-.093.23.23 0 0 0 .191.093.23.23 0 0 0 .19-.093.23.23 0 0 0 .191.093.23.23 0 0 0 .19-.093.23.23 0 0 0 .191.093c.122 0 .22-.083.22-.184v-.251c0-.102-.098-.184-.22-.184a.257.257 0 0 0-.073.011v-3.614c0-.075-.053-.139-.13-.168v-.19c0-.172-.166-.308-.415-.359zm7.811-29.473c-.121 0-.22.082-.22.183v2.706c0 .101.099.183.22.183.122 0 .22-.082.22-.183V15.02c0-.101-.098-.183-.22-.183zm-1.388.183v2.706c0 .101.098.183.22.183s.22-.082.22-.183V15.02c0-.101-.098-.183-.22-.183s-.22.082-.22.183zm1.76 34.798H.76c-.122 0-.22.082-.22.184 0 .101.098.184.22.184h10.662c.122 0 .22-.083.22-.184 0-.102-.098-.184-.22-.184zm0 .777H.76c-.122 0-.22.082-.22.184 0 .101.098.184.22.184h10.662c.122 0 .22-.083.22-.184 0-.102-.098-.184-.22-.184zm36.156 3.147v-.74c0-.31-.243-.57-.582-.657-.005-.57-.563-1.032-1.248-1.032s-1.243.462-1.249 1.032c-.339.086-.581.348-.581.656v.741c-.107.013-.19.09-.19.182v5.09c0 .102.099.184.22.184.123 0 .221-.082.221-.183v-4.91c.107-.012.19-.088.19-.181v-.923c0-.172.162-.312.37-.32.118-.003.211-.084.211-.183v-.145c0-.37.363-.673.808-.673.445 0 .807.302.807.673v.145c0 .099.094.18.212.184.207.007.37.147.37.32v.922c0 .093.082.17.19.182v4.909c0 .101.098.183.22.183s.22-.082.22-.183v-5.091c0-.093-.082-.17-.189-.182zm-4.39 0v-.74c0-.31-.242-.57-.581-.657-.006-.57-.564-1.032-1.249-1.032-.685 0-1.243.462-1.248 1.032-.34.086-.582.348-.582.656v.741c-.107.013-.19.09-.19.182v5.09c0 .102.1.184.221.184.122 0 .22-.082.22-.183v-4.91c.108-.012.19-.088.19-.181v-.923c0-.172.163-.312.37-.32.118-.003.212-.084.212-.183v-.145c0-.37.362-.673.807-.673.445 0 .808.302.808.673v.145c0 .099.093.18.211.184.208.007.37.147.37.32v.922c0 .093.083.17.19.182v4.909c0 .101.098.183.22.183s.22-.082.22-.183v-5.091c0-.093-.082-.17-.189-.182zm-39.533-.98v-.19c0-.172-.167-.308-.416-.359-.083-.24-.445-.41-.906-.41-.46 0-.822.17-.905.41-.25.05-.416.187-.416.358v.191c-.076.03-.13.093-.13.168v5.727c0 .102.1.184.221.184.122 0 .22-.082.22-.184v-5.56c.077-.029.13-.093.13-.167v-.333a.417.417 0 0 1 .182-.037c.12-.003.216-.084.216-.184v-.056c0-.038.17-.15.482-.15.312 0 .483.112.483.15v.056c0 .1.095.181.215.184a.418.418 0 0 1 .183.037v.333c0 .074.053.138.13.167v5.56c0 .102.098.184.22.184.121 0 .22-.082.22-.184V52.93c0-.075-.053-.139-.13-.168zm7.513 0v-.19c0-.172-.166-.308-.416-.359-.083-.24-.444-.41-.905-.41s-.823.17-.906.41c-.25.05-.415.187-.415.358v.191c-.077.03-.13.093-.13.168v5.727c0 .102.099.184.22.184.122 0 .221-.082.221-.184v-5.56c.076-.029.13-.093.13-.167v-.333a.417.417 0 0 1 .182-.037c.12-.003.215-.084.215-.184v-.056c0-.038.171-.15.483-.15.311 0 .482.112.482.15v.056c0 .1.096.181.216.184a.418.418 0 0 1 .182.037v.333c0 .074.053.138.13.167v5.56c0 .102.098.184.22.184s.22-.082.22-.184V52.93c0-.075-.053-.139-.129-.168zm.095-19.205c.122 0 .22-.082.22-.184V30.7c0-.087-.073-.16-.17-.18v-.453c0-.236-.22-.434-.528-.504-.045-.398-.541-.713-1.144-.713-.604 0-1.1.315-1.145.713-.308.07-.527.268-.527.504v.454c-.098.019-.171.092-.171.179v2.673c0 .102.098.184.22.184s.22-.082.22-.184V30.88c.099-.019.171-.092.171-.18v-.632c0-.073.128-.157.311-.162.12-.003.214-.084.214-.184v-.1c0-.218.324-.403.707-.403.383 0 .706.185.706.404v.1c0 .099.095.18.214.183.183.005.31.089.31.162v.633c0 .087.073.16.171.179v2.494c0 .102.1.184.22.184zm-9.02-14.92h.95v.682c0 .101.098.184.22.184.121 0 .22-.083.22-.184v-.682h.997v.682c0 .101.099.184.22.184.122 0 .22-.083.22-.184v-.682h.997v.682c0 .101.1.184.221.184.122 0 .22-.083.22-.184v-.682h.997v.682c0 .101.099.184.22.184.122 0 .221-.083.221-.184v-.682h.997v.682c0 .101.099.184.22.184.122 0 .22-.083.22-.184v-.682h.998v.682c0 .101.098.184.22.184s.22-.083.22-.184v-.682h.997v.682c0 .101.099.184.22.184.122 0 .221-.083.221-.184v-.682h.997v.682c0 .101.099.184.22.184.122 0 .22-.083.22-.184v-.682h.998v.682c0 .101.098.184.22.184s.22-.083.22-.184v-.682h.997v.682c0 .101.099.184.22.184.123 0 .221-.083.221-.184v-.682h.95v1.154H2.243v-1.154zM.986 27.55c-.122 0-.22.082-.22.184 0 .101.098.184.22.184h.817v5.981c0 .102.098.184.22.184h9.47c.121 0 .22-.082.22-.184 0-.101-.099-.183-.22-.183h-9.25v-5.798h9.577c.122 0 .22-.083.22-.184 0-.102-.098-.184-.22-.184H2.244V20.16h15.279v3.819c0 .102.098.184.22.184s.22-.082.22-.184v-3.82h.817c.122 0 .221-.082.221-.183 0-.102-.099-.184-.22-.184h-.817v-1.154h.816c.122 0 .221-.082.221-.183 0-.102-.099-.184-.22-.184H.985c-.122 0-.22.082-.22.184 0 .101.098.183.22.183h.817v1.154H.986c-.122 0-.22.082-.22.184 0 .101.098.184.22.184h.817v7.391H.986zm6.426 25.212v-.19c0-.172-.166-.308-.415-.359-.083-.24-.445-.41-.906-.41-.46 0-.823.17-.906.41-.249.05-.415.187-.415.358v.191c-.077.03-.13.093-.13.168v5.727c0 .102.1.184.22.184.123 0 .221-.082.221-.184v-5.56c.077-.029.13-.093.13-.167v-.333a.418.418 0 0 1 .182-.037c.12-.003.216-.084.216-.184v-.056c0-.038.17-.15.482-.15.311 0 .483.112.483.15v.056c0 .1.095.181.215.184a.418.418 0 0 1 .182.037v.333c0 .074.053.138.13.167v5.56c0 .102.099.184.22.184.122 0 .22-.082.22-.184V52.93c0-.075-.052-.139-.129-.168zM33.31 27.918c.147 0 .257.069.262.132a3.715 3.715 0 0 0-.524 0c.006-.063.116-.132.262-.132zm-2.025 2.276h3.682a.247.247 0 0 0 .136-.04 3.144 3.144 0 0 0-.28 1.08.244.244 0 0 0-.152-.05h-3.386v-.99zM41.359 27.4c3.366 0 6.104 1.819 6.104 4.054 0 .314-.054.623-.161.925-.486-1.92-2.966-3.386-5.943-3.386-2.977 0-5.456 1.466-5.942 3.386a2.753 2.753 0 0 1-.161-.925c0-2.235 2.738-4.054 6.103-4.054zm6.392 2.795h3.683v.99h-3.387a.244.244 0 0 0-.151.05 3.143 3.143 0 0 0-.28-1.08c.037.025.084.04.135.04zm1.657-2.153c-.089 0-.176.003-.262.01.006-.064.116-.133.262-.133.146 0 .256.069.262.132a3.643 3.643 0 0 0-.262-.01zm-18.344 3.51h3.607a.245.245 0 0 0 .145-.046c.01.595.193 1.172.546 1.718.048.075.152.112.25.09.099-.021.166-.096.164-.181a.557.557 0 0 0-.003-.044l-.002-.02c0-2.045 2.507-3.709 5.588-3.709s5.588 1.664 5.588 3.71c0 .006 0 .012-.002.019a.557.557 0 0 0-.003.044c-.002.085.066.16.164.182a.262.262 0 0 0 .056.006.23.23 0 0 0 .194-.097c.353-.546.537-1.123.547-1.718a.245.245 0 0 0 .144.046h3.607c.122 0 .22-.082.22-.184V30.01a.175.175 0 0 0-.086-.145.175.175 0 0 0 .087-.145c0-.762-.75-1.407-1.774-1.611a.155.155 0 0 0 .01-.053c0-.224-.203-.413-.483-.48v-.502c0-.101-.098-.183-.22-.183s-.22.082-.22.183v.502c-.28.067-.484.256-.484.48 0 .018.004.035.01.051-.726.143-1.323.506-1.606 1.004-.053.092-.006.201.104.245.11.043.242.004.294-.087.293-.515 1.057-.86 1.902-.86 1.117 0 2.026.588 2.026 1.311 0 .04.015.077.041.107h-3.724c-.112 0-.204.07-.218.16-.897-1.72-3.325-2.956-6.174-2.956-2.848 0-5.277 1.236-6.174 2.956-.014-.09-.106-.16-.218-.16h-3.724a.163.163 0 0 0 .042-.107c0-.723.908-1.312 2.025-1.312.845 0 1.61.346 1.902.86.053.092.184.131.294.088.11-.044.157-.153.105-.245-.284-.498-.881-.861-1.607-1.004a.154.154 0 0 0 .01-.051c0-.224-.203-.413-.483-.48v-.502c0-.101-.099-.183-.22-.183-.122 0-.221.082-.221.183v.502c-.28.067-.483.256-.483.48 0 .018.004.036.01.053-1.023.204-1.773.849-1.773 1.611 0 .06.034.112.086.145a.175.175 0 0 0-.086.145v1.357c0 .102.098.184.22.184zm31.338 13.976c-.122 0-.22.082-.22.183v.296c0 .102.098.184.22.184s.22-.082.22-.184v-.296c0-.101-.098-.183-.22-.183zm-.881 0c-.122 0-.22.082-.22.183v.296c0 .102.098.184.22.184s.22-.082.22-.184v-.296c0-.101-.098-.183-.22-.183zm6.911-11.973c-.077-.242-.424-.42-.853-.42-.43 0-.777.178-.854.42-.228.054-.383.19-.383.357v.2c-.071.03-.12.092-.12.163v1.536c0 .102.099.184.22.184.123 0 .221-.082.221-.184v-1.372c.071-.03.12-.092.12-.164v-.343a.324.324 0 0 1 .152-.035c.12-.002.215-.084.215-.184v-.057c0-.052.167-.154.429-.154.261 0 .428.102.428.154v.057c0 .1.095.182.215.184.08.002.132.022.152.035v.343c0 .072.049.133.12.164v1.372c0 .102.099.184.22.184.122 0 .22-.082.22-.184v-1.536c0-.07-.048-.132-.119-.163v-.2c0-.166-.155-.303-.383-.357zm-2.418 4.136h3.129v-1.113h-3.129v1.113zm3.57.184v-1.48c0-.102-.099-.184-.22-.184h-3.57c-.122 0-.22.082-.22.183v1.481c0 .101.098.184.22.184h3.57c.121 0 .22-.083.22-.184zm-15.685-.184h3.129v-1.113h-3.129v1.113zm3.57.184v-1.48c0-.102-.099-.184-.22-.184h-3.57c-.122 0-.22.082-.22.183v1.481c0 .101.098.184.22.184h3.57c.121 0 .22-.083.22-.184zm-15.37-4.532a.258.258 0 0 0-.085-.014h-1.31a.257.257 0 0 0-.084.014v-.033a.179.179 0 0 0 .101-.155v-.274a.272.272 0 0 1 .095-.017c.12-.002.215-.084.215-.184v-.048c.005-.023.117-.102.328-.102.21 0 .323.079.328.102v.048c0 .1.095.182.215.184.046.001.078.01.095.017v.274c0 .065.04.122.101.155v.033zm-1.175.76h.87v-.406h-.87v.407zm1.184-1.58c-.078-.209-.38-.36-.749-.36-.37 0-.67.151-.749.36-.197.053-.33.176-.33.325V33a.179.179 0 0 0-.101.154v1.298c0 .101.099.184.22.184.12 0 .218-.08.22-.18a.258.258 0 0 0 .085.014h1.31c.03 0 .059-.005.085-.014.003.1.1.18.22.18.122 0 .22-.083.22-.184v-1.298a.179.179 0 0 0-.1-.154v-.153c0-.149-.134-.272-.331-.325zm21.175 13.005c-.122 0-.22.082-.22.183v.296c0 .102.098.184.22.184s.22-.082.22-.184v-.296c0-.101-.098-.183-.22-.183zM38.041 35.5c0 .102.099.184.22.184h6.196c.122 0 .22-.082.22-.184 0-.101-.098-.183-.22-.183H38.26c-.121 0-.22.082-.22.183zm9.958-3.76c0 .102.099.185.22.185h3.954c.122 0 .22-.083.22-.184 0-.102-.098-.184-.22-.184H48.22c-.122 0-.22.082-.22.184zM33.204 26.89c.122.004.224-.075.23-.176l.338-6.892a.15.15 0 0 0 .005-.018c.583-2.807 3.913-5.005 7.58-5.005 3.584 0 6.848 2.198 7.432 5.005a.16.16 0 0 0 .006.021l.486 6.892c.007.098.104.173.22.173h.013c.122-.006.214-.093.207-.194l-.489-6.934a.157.157 0 0 0-.017-.061c-.312-1.44-1.284-2.77-2.74-3.748a8.951 8.951 0 0 0-2.78-1.229.159.159 0 0 0 .032-.167c-.546-1.364-1.813-2.343-2.15-2.586v-1.786c0-.102-.098-.184-.22-.184s-.22.082-.22.184v1.786c-.32.23-1.465 1.116-2.052 2.362-.045.094.011.201.125.238.113.037.24-.01.285-.104.509-1.08 1.498-1.893 1.862-2.167.382.288 1.452 1.17 1.934 2.331a9.503 9.503 0 0 0-1.934-.2c-1.848 0-3.69.54-5.19 1.52-1.506.985-2.504 2.315-2.816 3.75a.158.158 0 0 0-.018.065l-.34 6.933c-.005.101.09.187.21.191zM60.64 45.527c-.122 0-.22.082-.22.183v.296c0 .102.098.184.22.184s.22-.082.22-.184v-.296c0-.101-.098-.183-.22-.183zm-8.013 2.558c.121 0 .22-.082.22-.184V30.755c0-.102-.099-.184-.22-.184-.122 0-.22.082-.22.184V47.9c0 .102.098.184.22.184zM67.23 35.43h.697v-.55h-.697v.55zm-.22-.917c-.122 0-.22.082-.22.184v.917c0 .101.098.183.22.183h1.137c.122 0 .22-.082.22-.183v-.917c0-.102-.098-.184-.22-.184H67.01zm2.73-3.943h-4.017l-.109-.25c-.623-1.428-2.268-2.388-4.093-2.388-1.825 0-3.47.96-4.093 2.389l-.11.25h-4.016c-.121 0-.22.081-.22.183 0 .101.099.184.22.184h4.171c.093 0 .176-.049.207-.121l.162-.37c.56-1.285 2.039-2.147 3.679-2.147 1.64 0 3.118.862 3.679 2.146l.162.37c.031.073.114.122.207.122h4.17c.122 0 .221-.083.221-.184 0-.102-.099-.184-.22-.184zm-.04 1.234h-4.44c-.122 0-.22.082-.22.184 0 .101.098.183.22.183h4.44c.121 0 .22-.082.22-.183 0-.102-.099-.184-.22-.184zm-7.043 4.189c.122 0 .22-.082.22-.184v-1.536c0-.07-.048-.132-.12-.163v-.2c0-.166-.154-.303-.382-.357-.077-.242-.425-.42-.854-.42-.43 0-.777.178-.854.42-.228.054-.383.191-.383.357v.2c-.07.03-.12.092-.12.163v1.536c0 .102.1.184.221.184.122 0 .22-.082.22-.184v-1.372c.072-.03.12-.092.12-.164v-.343a.324.324 0 0 1 .153-.035c.12-.002.214-.084.214-.184v-.057c0-.052.167-.154.429-.154s.429.102.429.154v.057c0 .1.095.182.214.184.08.002.132.022.153.035v.343c0 .072.048.133.12.164v1.372c0 .102.098.184.22.184zm-2.898 9.533c-.122 0-.22.082-.22.183v.296c0 .102.098.184.22.184s.22-.082.22-.184v-.296c0-.101-.098-.183-.22-.183zm-.09-14.19c0-.608.831-1.103 1.852-1.103 1.02 0 1.851.495 1.851 1.103 0 .04.016.077.042.107h-3.786a.163.163 0 0 0 .042-.107zm-1.485.29v.866c0 .102.098.184.22.184s.22-.082.22-.184v-.681h5.794v.681c0 .102.098.184.22.184s.22-.082.22-.184v-.865c0-.102-.098-.184-.22-.184h-.867a.163.163 0 0 0 .042-.107c0-.811-1.028-1.47-2.292-1.47-1.264 0-2.292.659-2.292 1.47 0 .04.016.077.042.107h-.867c-.122 0-.22.082-.22.184zm6.861 13.9c-.122 0-.22.082-.22.183v.296c0 .102.098.184.22.184s.22-.082.22-.184v-.296c0-.101-.098-.183-.22-.183zm-6.675 9.669v-.5c0-.235-.175-.435-.424-.514-.027-.425-.45-.764-.967-.764-.516 0-.94.34-.966.764-.25.08-.424.28-.424.514v.5c-.08.027-.138.093-.138.17v3.7c0 .101.099.184.22.184.122 0 .221-.083.221-.184v-3.53c.081-.027.138-.093.138-.17v-.67c0-.098.093-.178.211-.182.118-.004.212-.085.212-.184v-.105c0-.242.236-.44.526-.44.29 0 .527.198.527.44v.105c0 .099.093.18.211.184.119.004.212.084.212.182v.67c0 .077.057.143.137.17v3.53c0 .101.099.184.22.184.123 0 .221-.083.221-.184v-3.7c0-.077-.057-.143-.137-.17zM42.125 39.577h-.602a.24.24 0 0 0-.164.062.24.24 0 0 0-.164-.062h-.602a.257.257 0 0 0-.085.015v-.31c.067-.032.113-.092.113-.16v-.55c0-.063.06-.114.135-.116.118-.004.211-.085.211-.184v-.086c0-.18.176-.327.392-.327.216 0 .392.147.392.327v.086c0 .099.093.18.211.184.076.002.135.053.135.116v.55c0 .068.046.128.113.16v.31a.257.257 0 0 0-.085-.015zm-.382 1.385h.162v-1.017h-.162v1.017zm-.93 0h.162v-1.017h-.162v1.017zm1.618.663c.121 0 .22-.082.22-.183v-2.32c0-.07-.045-.13-.113-.161v-.39c0-.198-.142-.368-.349-.443-.035-.356-.394-.636-.83-.636-.436 0-.794.28-.83.636-.206.075-.349.245-.349.444v.389c-.067.031-.113.091-.113.16v2.32c0 .102.099.184.22.184.122 0 .221-.082.221-.183v-.126c.026.009.055.014.085.014h.602a.24.24 0 0 0 .164-.062.24.24 0 0 0 .164.062h.602c.03 0 .059-.005.085-.014v.126c0 .101.099.183.22.183zm11.94 2.21h1.123v-.893h-1.123v.893zm-.22-1.26c-.122 0-.22.082-.22.183v1.26c0 .102.098.184.22.184h1.564c.122 0 .22-.082.22-.183v-1.26c0-.102-.098-.184-.22-.184H54.15zm11.234 3.618h-7.728v-5.34h.15c.122 0 .221-.083.221-.184v-.18c0-1.607 1.434-2.997 3.493-3.396 2.06.399 3.493 1.79 3.493 3.395v.18c0 .102.099.185.22.185h.15v5.34zm.214.502v.64c0 .102.099.184.22.184.122 0 .221-.082.221-.183v-.641c0-.101-.099-.184-.22-.184a.259.259 0 0 0-.086.014.176.176 0 0 0 .092-.148V40.67c0-.102-.099-.184-.22-.184h-.151c-.002-1.79-1.6-3.336-3.886-3.76a.264.264 0 0 0-.096 0c-2.287.424-3.884 1.97-3.886 3.76h-.15c-.122 0-.22.082-.22.184v5.708c0 .061.036.115.09.148a.258.258 0 0 0-.084-.014c-.122 0-.22.083-.22.184v.64c0 .102.098.184.22.184.121 0 .22-.082.22-.183v-.641a.176.176 0 0 0-.091-.148c.026.009.055.014.085.014h.285a.17.17 0 0 0-.07.134v.64c0 .102.098.184.22.184s.22-.082.22-.183v-.641a.17.17 0 0 0-.07-.134h.35a.17.17 0 0 0-.071.134v.64c0 .102.098.184.22.184s.22-.082.22-.183v-.641a.17.17 0 0 0-.07-.134h2.051a.17.17 0 0 0-.07.134v.64c0 .102.098.184.22.184.121 0 .22-.082.22-.183v-.641a.17.17 0 0 0-.07-.134h.35a.17.17 0 0 0-.071.134v.64c0 .102.098.184.22.184s.22-.082.22-.183v-.641a.17.17 0 0 0-.07-.134h.35a.17.17 0 0 0-.071.134v.64c0 .102.099.184.22.184.122 0 .22-.082.22-.183v-.641a.17.17 0 0 0-.07-.134h2.051a.17.17 0 0 0-.07.134v.64c0 .102.098.184.22.184s.22-.082.22-.183v-.641a.17.17 0 0 0-.07-.134h.35a.17.17 0 0 0-.071.134v.64c0 .102.098.184.22.184s.22-.082.22-.183v-.641a.17.17 0 0 0-.07-.134h.285c.03 0 .06-.005.085-.014a.176.176 0 0 0-.091.148zm-1.435-1.168c-.122 0-.22.082-.22.183v.296c0 .102.098.184.22.184s.22-.082.22-.184v-.296c0-.101-.098-.183-.22-.183zM55.115 35.43h.697v-.55h-.697v.55zm-.22-.917c-.122 0-.22.082-.22.184v.917c0 .101.098.183.22.183h1.137c.122 0 .22-.082.22-.183v-.917c0-.102-.098-.184-.22-.184h-1.137zm8.61 7.582v-.391c0-.233-.265-.423-.644-.48-.07-.365-.633-.64-1.34-.64-.707 0-1.27.275-1.34.64-.379.057-.645.247-.645.48v.39c-.115.006-.207.086-.207.184v2.995c0 .101.098.183.22.183s.22-.082.22-.183v-2.811c.116-.006.208-.086.208-.184v-.574c.006-.028.148-.124.422-.13.12-.002.216-.084.216-.183v-.09c0-.162.396-.35.906-.35s.906.188.906.35v.09c0 .1.096.181.216.183.274.006.416.102.422.13v.574c0 .098.092.178.207.184v2.81c0 .102.1.184.22.184.123 0 .221-.082.221-.183v-2.995c0-.098-.091-.178-.207-.183zm.86-.189h-.078v-.645c0-.31-.384-.56-.921-.621-.04-.516-.835-.914-1.845-.914s-1.806.398-1.844.914c-.538.061-.921.311-.921.621v.645h-.08c-.121 0-.22.082-.22.184v3.255c0 .102.099.184.22.184.122 0 .221-.082.221-.184v-3.072h.079c.122 0 .22-.082.22-.183v-.829c0-.104.275-.26.705-.268.12-.003.215-.084.215-.184v-.13c0-.277.577-.586 1.405-.586.828 0 1.405.309 1.405.586v.13c0 .1.096.181.215.184.43.008.705.164.705.268v.829c0 .101.098.183.22.183h.08v3.072c0 .102.098.184.22.184.121 0 .22-.082.22-.184v-3.255c0-.102-.099-.184-.22-.184zM56.6 35.994c.122 0 .22-.082.22-.184v-1.536c0-.07-.048-.132-.119-.163v-.2c0-.166-.155-.303-.383-.357-.077-.242-.424-.42-.853-.42-.43 0-.777.178-.854.42-.228.054-.383.19-.383.357v.2c-.071.03-.12.092-.12.163v1.536c0 .102.099.184.22.184.123 0 .221-.082.221-.184v-1.372c.071-.03.12-.092.12-.164v-.343a.324.324 0 0 1 .152-.035c.12-.002.215-.084.215-.184v-.057c0-.052.167-.154.429-.154.261 0 .428.102.428.154v.057c0 .1.095.182.215.184.08.002.132.022.152.035v.343c0 .072.049.133.12.164v1.372c0 .102.098.184.22.184zm.946.412c.008.097.104.171.22.171h.014c.319-.018 5.046-.008 7.502 0 .122 0 .22-.082.221-.183 0-.101-.098-.184-.22-.184-.29-.001-7.119-.023-7.532 0-.121.007-.213.094-.205.196zm.237-4.601h-4.44c-.121 0-.22.082-.22.184 0 .101.099.183.22.183h4.44c.122 0 .22-.082.22-.183 0-.102-.098-.184-.22-.184zm3.39 3.626h.697v-.55h-.696v.55zm-.22-.917c-.121 0-.22.082-.22.184v.917c0 .101.099.183.22.183h1.138c.122 0 .22-.082.22-.183v-.917c0-.102-.098-.184-.22-.184h-1.138zm-12.486 11.72a.233.233 0 0 0-.186-.085h-.815a.233.233 0 0 0-.186.085v-.06a.175.175 0 0 0 .085-.145v-.214l.008-.001a.231.231 0 0 1 .04-.004c.12-.003.215-.084.215-.184v-.034c.019-.021.106-.065.245-.065.14 0 .226.044.245.065v.034c0 .1.095.181.215.184a.23.23 0 0 1 .048.005v.214c0 .059.034.112.086.145v.06zm-.781.572h.374v-.29h-.374v.29zm1.136-.923v-.115c0-.135-.115-.247-.287-.297-.079-.182-.341-.312-.662-.312-.32 0-.583.13-.661.312-.173.05-.288.162-.288.297v.115a.218.218 0 0 0-.018.014.17.17 0 0 0-.067.132v1.1c0 .102.098.184.22.184s.22-.082.22-.183v-.043c.04.052.108.086.187.086h.815a.233.233 0 0 0 .186-.086v.043c0 .101.098.183.22.183s.22-.082.22-.183v-1.101a.175.175 0 0 0-.085-.146zm21.594-15.312c-.121 0-.22.082-.22.184v18.034h-18.16c-.123 0-.221.082-.221.184 0 .101.098.184.22.184h18.161v.216h-18.16c-.123 0-.221.082-.221.184 0 .101.098.184.22.184h18.161v.201h-18.16c-.123 0-.221.083-.221.184 0 .102.098.184.22.184h18.161v.387h-18.16c-.123 0-.221.083-.221.184 0 .101.098.184.22.184h1.225c-.085.025-.146.092-.146.172v8.087c0 .101.1.183.22.183.123 0 .221-.082.221-.183v-8.087c0-.08-.06-.147-.145-.172h.59c-.085.025-.146.092-.146.172v8.087c0 .101.099.183.22.183.122 0 .221-.082.221-.183v-8.087c0-.08-.06-.147-.146-.172h15.486c-.085.025-.146.092-.146.172v8.087c0 .101.098.183.22.183s.22-.082.22-.183v-8.087c0-.08-.06-.147-.145-.172h.412V59.692c0 .102.099.185.22.185.122 0 .22-.083.22-.184V30.755c0-.102-.098-.184-.22-.184zm-2.509-4.504c.136 0 .24.062.25.12a3.559 3.559 0 0 0-.5 0c.012-.058.115-.12.25-.12zm-2.144 1.403c.11.043.242.004.294-.088.285-.5 1.029-.836 1.85-.836 1.087 0 1.971.572 1.971 1.275 0 .036.013.07.036.1H66.29c-.121 0-.22.081-.22.183 0 .101.099.184.22.184h3.587v.956h-3.298c-.121 0-.22.082-.22.183 0 .102.099.184.22.184h3.519c.121 0 .22-.082.22-.184v-1.323a.173.173 0 0 0-.082-.142.173.173 0 0 0 .082-.141c0-.744-.73-1.374-1.729-1.575a.154.154 0 0 0 .009-.049c0-.219-.198-.405-.471-.47v-.487c0-.101-.099-.184-.22-.184-.122 0-.221.083-.221.184v.486c-.274.066-.471.252-.471.471 0 .017.003.032.008.047-.707.14-1.288.495-1.565.98-.052.092-.006.202.104.246zM35.44 46.234a.232.232 0 0 0-.186-.085h-.816a.233.233 0 0 0-.186.085v-.06a.175.175 0 0 0 .086-.145v-.214a.233.233 0 0 1 .049-.005c.12-.003.214-.084.214-.184v-.034c.019-.021.106-.065.245-.065.14 0 .226.044.245.065v.034c0 .1.095.181.215.184a.23.23 0 0 1 .048.005v.214c0 .059.034.112.086.145v.06zm-.781.572h.374v-.29h-.374v.29zm1.136-.923v-.115c0-.135-.115-.247-.287-.297-.079-.182-.341-.312-.662-.312-.32 0-.583.13-.662.312-.172.05-.287.162-.287.297v.115a.175.175 0 0 0-.086.146v1.1c0 .102.1.184.221.184.122 0 .22-.082.22-.183v-.043c.04.052.108.086.186.086h.816a.233.233 0 0 0 .186-.086v.043c0 .101.098.183.22.183s.22-.082.22-.183v-1.101a.175.175 0 0 0-.085-.146zm31.658 9.313v-.5c0-.235-.175-.435-.424-.514-.026-.425-.45-.764-.966-.764-.517 0-.94.34-.967.764-.249.08-.423.28-.423.514v.5c-.081.027-.138.093-.138.17v3.7c0 .101.099.184.22.184.122 0 .22-.083.22-.184v-3.53c.082-.027.138-.093.138-.17v-.67c0-.098.093-.178.212-.182.118-.004.211-.085.211-.184v-.105c0-.242.236-.44.527-.44.29 0 .527.198.527.44v.105c0 .099.093.18.211.184.118.004.211.084.211.182v.67c0 .077.057.143.138.17v3.53c0 .101.099.184.22.184.122 0 .22-.083.22-.184v-3.7c0-.077-.056-.143-.137-.17zm-27.671-8.962a.232.232 0 0 0-.186-.085h-.816a.232.232 0 0 0-.186.085v-.06a.175.175 0 0 0 .086-.145v-.214a.233.233 0 0 1 .049-.005c.12-.003.214-.084.214-.184v-.034c.019-.021.106-.065.245-.065.14 0 .226.044.245.065v.034c0 .1.095.181.215.184.02 0 .036.003.048.005v.214c0 .059.034.112.086.145v.06zm-.781.572h.374v-.29h-.374v.29zm1.136-.923v-.115c0-.135-.115-.247-.287-.297-.079-.182-.341-.312-.662-.312-.32 0-.583.13-.662.312-.172.05-.287.162-.287.297v.115a.175.175 0 0 0-.085.146v1.1c0 .102.098.184.22.184s.22-.082.22-.183v-.043c.04.052.108.086.186.086h.816a.233.233 0 0 0 .186-.086v.043c0 .101.098.183.22.183s.22-.082.22-.183v-1.101a.175.175 0 0 0-.085-.146zm14.999-19.816c.135 0 .238.062.25.12a3.611 3.611 0 0 0-.5 0c.01-.058.114-.12.25-.12zm-2.191 3.544h3.518c.121 0 .22-.082.22-.184 0-.101-.099-.183-.22-.183h-3.298v-.956h3.587c.121 0 .22-.083.22-.184 0-.102-.099-.184-.22-.184H53.13a.161.161 0 0 0 .035-.1c0-.702.884-1.274 1.97-1.274.822 0 1.566.336 1.85.836.053.092.185.131.295.088.11-.044.156-.154.104-.245-.277-.486-.858-.84-1.565-.98a.153.153 0 0 0 .008-.048c0-.219-.197-.405-.47-.47v-.487c0-.101-.1-.184-.221-.184-.122 0-.22.083-.22.184v.486c-.274.066-.472.252-.472.471 0 .017.004.033.009.049-.998.2-1.729.83-1.729 1.575 0 .057.032.108.082.141a.173.173 0 0 0-.082.142v1.323c0 .102.099.184.22.184zm8.553-6.618c.163.105.455.315.66.587a5.492 5.492 0 0 0-1.323.005c.205-.273.5-.486.663-.592zm-3.753 5.458c.121.005.225-.073.231-.174l.156-2.576c.123-.479.539-.928 1.171-1.263.64-.34 1.428-.528 2.218-.528 1.605 0 3.064.787 3.32 1.792l.002.003.223 2.576c.009.096.106.17.22.17h.016c.122-.008.213-.096.204-.197l-.226-2.604a.154.154 0 0 0-.014-.052c-.156-.567-.624-1.088-1.322-1.47a4.755 4.755 0 0 0-1.237-.455l-.006-.016c-.232-.472-.728-.826-.96-.972v-.622c0-.102-.098-.184-.22-.184s-.22.082-.22.184v.594c-.192.116-.69.45-.957.909a.156.156 0 0 0-.02.107c-1.313.288-2.369 1.03-2.616 1.924a.158.158 0 0 0-.015.057l-.157 2.604c-.006.102.087.188.209.193zm-28.398 16.02c.122 0 .22-.082.22-.183v-2.112c0-.085-.069-.157-.164-.178v-.322c0-.207-.21-.377-.513-.435-.069-.323-.53-.564-1.104-.564-.576 0-1.036.241-1.105.564-.303.058-.513.228-.513.435v.322c-.095.021-.165.093-.165.178v2.112c0 .101.099.183.22.183.123 0 .221-.082.221-.183v-1.934c.095-.02.165-.093.165-.178v-.498c.008-.023.11-.087.29-.091.12-.003.215-.084.215-.184v-.078c0-.133.287-.28.672-.28.384 0 .672.147.672.28v.078c0 .1.095.181.214.184.18.004.282.068.29.089v.5c0 .085.07.157.165.178v1.934c0 .101.099.183.22.183zm-2.123-.636h1.123v-.893h-1.123v.893zm-.22-1.26c-.122 0-.221.082-.221.183v1.26c0 .102.099.184.22.184h1.565c.121 0 .22-.082.22-.183v-1.26c0-.102-.099-.184-.22-.184h-1.565zm3.088-12.004c-.122 0-.22.082-.22.184V47.9c0 .102.098.184.22.184.121 0 .22-.082.22-.184V30.755c0-.102-.099-.184-.22-.184zm.453 1.355h3.954c.121 0 .22-.083.22-.184 0-.102-.099-.184-.22-.184h-3.954c-.122 0-.22.082-.22.184 0 .101.098.184.22.184zm-9.348-4.556c-2.056 0-3.914 1.055-4.673 2.638h-4.221c-.122 0-.22.082-.22.184 0 .101.098.184.22.184h4.373c.093 0 .176-.049.207-.121.658-1.506 2.391-2.517 4.314-2.517s3.657 1.011 4.314 2.517c.032.072.115.12.207.12h4.374c.121 0 .22-.082.22-.183 0-.102-.099-.184-.22-.184H25.87c-.759-1.583-2.617-2.638-4.673-2.638zm23.458 4.047c-.927-.63-2.098-.977-3.296-.977s-2.369.347-3.296.977c-.914.62-1.555 1.488-1.804 2.443-.026.1.05.197.168.219a.265.265 0 0 0 .047.004c.102 0 .193-.059.215-.145.475-1.814 2.439-3.13 4.67-3.13 2.232 0 4.196 1.316 4.67 3.13.026.1.143.162.262.14.12-.02.195-.119.169-.218-.25-.955-.89-1.822-1.805-2.443zM12.082 47.9c0 .102.1.184.22.184.123 0 .221-.082.221-.184V30.755c0-.102-.098-.184-.22-.184s-.22.082-.22.184v3.483a.251.251 0 0 0-.121-.03H.22c-.121 0-.22.083-.22.184v25.424c0 .102.099.184.22.184.122 0 .221-.082.221-.184v-25.24h11.52a.251.251 0 0 0 .121-.03V47.9zm50.367 7.316h-1.856c-.122 0-.22.082-.22.184v3.665c0 .101.098.184.22.184s.22-.083.22-.184v-3.481h1.416v3.48c0 .102.098.185.22.185s.22-.083.22-.184V55.4c0-.102-.098-.184-.22-.184zm-5.955-10.746c.122 0 .221-.082.221-.183v-2.112c0-.085-.07-.157-.164-.178v-.322c0-.207-.21-.377-.514-.435-.069-.323-.529-.564-1.104-.564-.576 0-1.036.241-1.104.564-.304.058-.514.228-.514.435v.322c-.095.021-.165.093-.165.178v2.112c0 .101.1.183.221.183.122 0 .22-.082.22-.183v-1.934c.095-.02.165-.093.165-.178v-.498c.008-.023.11-.087.29-.091.12-.003.215-.084.215-.184v-.078c0-.133.287-.28.672-.28.384 0 .672.147.672.28v.078c0 .1.095.181.215.184.179.004.281.068.29.089v.5c0 .085.07.157.164.178v1.934c0 .101.099.183.22.183zm-5.924.244H32.148c-.121 0-.22.082-.22.184 0 .101.099.183.22.183H50.57c.122 0 .22-.082.22-.183 0-.102-.098-.184-.22-.184zm8.308.812c-.122 0-.22.082-.22.183v.296c0 .102.098.184.22.184s.22-.082.22-.184v-.296c0-.101-.098-.183-.22-.183zm2.645-6.69c.155 0 .281.088.281.196 0 .109-.126.197-.281.197-.156 0-.282-.088-.282-.197 0-.108.126-.197.282-.197zm0 .76c.398 0 .722-.252.722-.564 0-.311-.324-.564-.722-.564-.399 0-.723.253-.723.564 0 .312.324.565.723.565zM47.06 22.129c-.516 0-.98.158-1.296.407.22-.32.718-.546 1.296-.546.578 0 1.077.225 1.296.546-.316-.249-.78-.407-1.296-.407zm0 .375a1.66 1.66 0 0 0-1.107.403c.222-.245.635-.41 1.107-.41s.885.165 1.108.41a1.66 1.66 0 0 0-1.108-.403zm-.011-1.227c.093.084.212.21.29.36a2.685 2.685 0 0 0-.582.003c.079-.152.198-.279.292-.363zm1.705 2.147a.951.951 0 0 0 .161-.522c0-.527-.464-.98-1.126-1.176a.154.154 0 0 0 .006-.127c-.126-.314-.391-.552-.526-.66v-.382c0-.101-.098-.184-.22-.184s-.22.083-.22.184v.383c-.126.1-.365.314-.499.597a.159.159 0 0 0 .032.18c-.678.19-1.157.65-1.157 1.185 0 .181.054.357.16.522a.233.233 0 0 0 .21.096 1.06 1.06 0 0 0-.028.245v2.18c0 .101.099.184.22.184.122 0 .221-.083.221-.184v-.171a.25.25 0 0 0 .127.034c.122 0 .22-.082.22-.184v-1.828c0-.333.326-.604.725-.604.4 0 .724.271.724.604v1.828c0 .102.1.184.221.184a.25.25 0 0 0 .127-.034v.171c0 .101.099.184.22.184.122 0 .22-.083.22-.184v-2.18c0-.084-.01-.166-.028-.245h.016a.23.23 0 0 0 .194-.096zM31.811 47.787a.157.157 0 0 0 .022-.08v-3.89c.032.016.07.025.11.025h4.109c.121 0 .22-.082.22-.183 0-.09-.077-.164-.18-.18a.22.22 0 0 0 .155-.097.252.252 0 0 0 .112.026h.618a.154.154 0 0 0-.008.046v1.058c0 .102.1.184.22.184.123 0 .221-.082.221-.184v-1.058a.153.153 0 0 0-.007-.046h.42a.154.154 0 0 0-.008.046v1.058c0 .102.099.184.22.184.122 0 .22-.082.22-.184v-1.058a.154.154 0 0 0-.007-.046h2.476a.154.154 0 0 0-.008.046v1.058c0 .102.099.184.22.184.122 0 .22-.082.22-.184v-1.058a.153.153 0 0 0-.007-.046h.42a.153.153 0 0 0-.008.046v1.058c0 .102.1.184.22.184.123 0 .221-.082.221-.184v-1.058a.154.154 0 0 0-.007-.046h2.475a.154.154 0 0 0-.008.046v1.058c0 .102.099.184.22.184.123 0 .221-.082.221-.184v-1.058a.153.153 0 0 0-.007-.046h.42a.153.153 0 0 0-.008.046v1.058c0 .102.099.184.22.184.122 0 .22-.082.22-.184v-1.058a.154.154 0 0 0-.007-.046h.618c.041 0 .08-.01.112-.026a.22.22 0 0 0 .154.096c-.102.017-.179.091-.179.18 0 .102.099.184.22.184h4.11c.04 0 .077-.01.11-.025v3.89c0 .03.008.056.021.08H31.811zm.022-4.33c.03.023.064.04.1.05a.279.279 0 0 0-.1.05v-.1zm0-4.243c.032.015.07.025.11.025h4.109c.03 0 .06-.006.087-.015v3.906a.258.258 0 0 0-.087-.016h-4.11c-.04 0-.077.01-.109.026v-3.926zm0-4.392c.032.015.07.025.11.025h3.764c.059 0 .112-.02.152-.052a.799.799 0 0 0-.028.208c0 .307.175.58.447.753-.082.027-.139.093-.139.17v2.96a.258.258 0 0 0-.087-.015h-4.11c-.04 0-.077.01-.109.025v-4.074zm5.137-.4c.385 0 .698.26.698.581 0 .32-.313.582-.698.582-.385 0-.698-.261-.698-.582 0-.32.313-.581.698-.581zm13.947 9.035v.1a.278.278 0 0 0-.1-.05.276.276 0 0 0 .1-.05zm-.141-.343h-4.11a.258.258 0 0 0-.087.016v-3.906c.027.01.057.015.088.015h4.109c.04 0 .077-.01.11-.025v3.926a.252.252 0 0 0-.11-.026zm-5.761-.947c.121 0 .22-.082.22-.184V35.85c.154.065.329.102.513.102.628 0 1.14-.425 1.14-.949 0-.071-.01-.14-.029-.208.04.032.093.052.153.052h3.764c.04 0 .077-.01.11-.025v4.074a.252.252 0 0 0-.11-.025h-4.11a.258.258 0 0 0-.087.015v-2.802c0-.101-.098-.183-.22-.183s-.22.082-.22.183v6.957h-9.56v-7.115a.156.156 0 0 0-.003-.032 1.338 1.338 0 0 0 .911-.046.154.154 0 0 0-.004.034v6.101c0 .102.099.184.22.184h7.312zm.546-7.164c0-.086.084-.156.187-.156.104 0 .188.07.188.156s-.084.157-.188.157c-.103 0-.187-.07-.187-.157zm.187-.581c.385 0 .698.26.698.581 0 .32-.313.582-.698.582a.764.764 0 0 1-.513-.189v-.091a.672.672 0 0 0 .513.222c.347 0 .629-.235.629-.524 0-.289-.282-.524-.629-.524a.67.67 0 0 0-.52.231 2.645 2.645 0 0 0-.009-.085.76.76 0 0 1 .53-.203zm5.358-2.344h-2.993c-.122 0-.22.082-.22.183 0 .102.098.184.22.184h2.772v.532a.252.252 0 0 0-.11-.025h-3.024c-.122 0-.22.082-.22.184 0 .101.098.184.22.184h3.025c.04 0 .077-.01.11-.026v1.21a.252.252 0 0 0-.11-.025h-3.764c-.108 0-.198.065-.217.15-.174-.337-.578-.575-1.047-.575-.223 0-.432.054-.608.147a2.721 2.721 0 0 0-.045-.151c-.463-1.394-2-2.368-3.736-2.368-1.743 0-3.28.978-3.74 2.38-.032.098.037.199.155.225.117.027.239-.03.27-.128.407-1.243 1.77-2.11 3.315-2.11 1.539 0 2.9.863 3.311 2.1.042.124.073.25.093.379a.827.827 0 0 0-.154.475c0 .19.068.369.185.518v1.994c-.436 0-.795.28-.83.637-.207.074-.35.245-.35.443v.39c-.067.03-.112.09-.112.16v2.32c0 .102.099.184.22.184.122 0 .22-.082.22-.184v-2.16c.068-.031.114-.091.114-.16v-.55c0-.062.059-.113.135-.116.118-.004.211-.085.211-.183v-.087c0-.18.176-.326.392-.326v3.916h-6.87v-3.916c.216 0 .392.146.392.326v.087c0 .098.093.18.212.183.075.003.134.054.134.116v.55c0 .069.046.129.113.16v2.16c0 .102.099.184.22.184.123 0 .221-.082.221-.184v-2.32c0-.07-.045-.13-.113-.16v-.39c0-.198-.142-.369-.349-.443-.035-.356-.394-.637-.83-.637v-1.633c0-.091-.08-.166-.183-.18a.884.884 0 0 0 .368-.699c0-.523-.511-.949-1.139-.949-.469 0-.873.238-1.047.576-.019-.086-.108-.15-.216-.15h-3.764c-.04 0-.078.009-.11.024v-1.21c.032.016.07.026.11.026h3.024c.122 0 .22-.083.22-.184 0-.102-.098-.184-.22-.184h-3.024c-.04 0-.078.01-.11.025v-.532h2.772c.122 0 .22-.082.22-.184 0-.101-.098-.183-.22-.183h-2.992c-.122 0-.22.082-.22.183v15.447a.17.17 0 0 0 .066.131.17.17 0 0 0-.067.131c0 .102.099.184.22.184h19.494c.121 0 .22-.082.22-.184a.17.17 0 0 0-.066-.13.17.17 0 0 0 .066-.132V32.26c0-.101-.099-.183-.22-.183zm6.891 13.449c-.122 0-.22.082-.22.183v.296c0 .102.098.184.22.184s.22-.082.22-.184v-.296c0-.101-.098-.183-.22-.183zm11.674-1.056c.122 0 .22-.082.22-.183v-2.112c0-.085-.07-.157-.164-.178v-.322c0-.207-.21-.377-.514-.435-.068-.323-.528-.564-1.104-.564-.575 0-1.035.241-1.104.564-.303.058-.513.228-.513.435v.322c-.095.021-.165.093-.165.178v2.112c0 .101.099.183.22.183.122 0 .221-.082.221-.183v-1.934c.095-.02.164-.093.164-.178v-.498c.009-.023.111-.087.29-.091.12-.003.215-.084.215-.184v-.078c0-.133.288-.28.672-.28.385 0 .672.147.672.28v.078c0 .1.096.181.215.184.18.004.282.068.29.089v.5c0 .085.07.157.165.178v1.934c0 .101.098.183.22.183zM35.653 22.128c-.516 0-.98.158-1.296.407.22-.32.718-.546 1.296-.546.578 0 1.076.225 1.295.546-.315-.249-.78-.407-1.295-.407zm0 .375a1.66 1.66 0 0 0-1.108.403c.223-.245.636-.41 1.108-.41.472 0 .885.165 1.107.41a1.66 1.66 0 0 0-1.107-.403zm-.011-1.227c.093.084.212.21.29.36a2.685 2.685 0 0 0-.582.003c.079-.152.198-.279.292-.363zm1.705 2.147a.951.951 0 0 0 .161-.522c0-.527-.465-.98-1.126-1.176a.154.154 0 0 0 .006-.127c-.126-.314-.391-.552-.526-.66v-.382c0-.101-.099-.184-.22-.184-.122 0-.22.083-.22.184v.383c-.126.1-.366.314-.499.597a.159.159 0 0 0 .032.18c-.678.19-1.157.65-1.157 1.185 0 .181.054.357.16.522a.233.233 0 0 0 .21.096 1.06 1.06 0 0 0-.028.245v2.18c0 .101.099.184.22.184.122 0 .221-.083.221-.184v-.171a.25.25 0 0 0 .127.034c.122 0 .22-.082.22-.184v-1.828c0-.333.325-.604.725-.604.4 0 .724.271.724.604v1.828c0 .102.1.184.22.184a.25.25 0 0 0 .128-.034v.171c0 .101.098.184.22.184s.22-.083.22-.184v-2.18c0-.084-.01-.166-.028-.245h.016a.23.23 0 0 0 .194-.096zm6.777 22.811a.233.233 0 0 0-.186-.085h-.816a.232.232 0 0 0-.185.085v-.06a.175.175 0 0 0 .085-.145v-.214a.23.23 0 0 1 .049-.005c.12-.003.214-.084.214-.184v-.034c.019-.021.106-.065.245-.065.14 0 .226.044.245.065v.034c0 .1.095.181.215.184.02 0 .036.003.048.005v.214c0 .059.034.112.086.145v.06zm-.781.572h.374v-.29h-.374v.29zm1.136-.923v-.115c0-.135-.115-.247-.287-.297-.079-.182-.341-.312-.662-.312-.32 0-.583.13-.662.312-.172.05-.287.162-.287.297v.115a.175.175 0 0 0-.085.146v1.1c0 .102.098.184.22.184s.22-.082.22-.183v-.043c.04.052.108.086.186.086h.816a.233.233 0 0 0 .186-.086v.043c0 .101.098.183.22.183s.22-.082.22-.183v-1.101a.175.175 0 0 0-.085-.146zm8.148-15.507H57c.093 0 .175-.049.207-.121.657-1.506 2.391-2.517 4.314-2.517s3.657 1.011 4.314 2.517c.032.072.114.12.207.12h4.373c.122 0 .22-.082.22-.183 0-.102-.098-.184-.22-.184h-4.221c-.759-1.583-2.617-2.638-4.673-2.638s-3.914 1.055-4.673 2.638h-4.221c-.122 0-.22.082-.22.184 0 .101.098.184.22.184zm-11.268-5.943c-.122 0-.22.082-.22.184v.766c-.177.13-.694.545-.965 1.119-.044.094.012.2.125.238.113.037.241-.01.286-.104.196-.416.555-.745.752-.905.211.171.608.536.791.996.031.077.117.125.21.125a.26.26 0 0 0 .07-.01c.115-.031.177-.135.139-.232-.235-.586-.746-1.024-.967-1.194v-.8c0-.1-.1-.183-.22-.183zm-.002-2.305c-.516 0-.98.158-1.296.407.22-.32.718-.546 1.296-.546.578 0 1.077.225 1.296.546-.316-.249-.78-.407-1.296-.407zm0 .375a1.66 1.66 0 0 0-1.108.403c.223-.245.636-.41 1.108-.41.472 0 .885.165 1.107.41a1.66 1.66 0 0 0-1.107-.403zm-.011-1.227c.093.084.212.21.29.36a2.686 2.686 0 0 0-.582.003c.079-.152.198-.279.292-.363zm1.705 2.147a.951.951 0 0 0 .161-.522c0-.527-.464-.98-1.126-1.176a.154.154 0 0 0 .006-.127c-.126-.314-.391-.552-.526-.66v-.382c0-.101-.098-.184-.22-.184s-.22.083-.22.184v.383c-.126.1-.365.314-.499.597a.159.159 0 0 0 .032.18c-.678.19-1.157.65-1.157 1.185 0 .181.054.357.16.522a.233.233 0 0 0 .21.096c-.018.08-.028.161-.028.245v2.18c0 .101.099.184.22.184.122 0 .221-.083.221-.184v-.171a.25.25 0 0 0 .127.034c.122 0 .22-.082.22-.184v-1.828c0-.333.325-.604.725-.604.4 0 .724.271.724.604v1.828c0 .102.1.184.22.184a.25.25 0 0 0 .128-.034v.171c0 .101.099.184.22.184.122 0 .22-.083.22-.184v-2.18c0-.084-.01-.166-.028-.245h.016a.23.23 0 0 0 .194-.096zm20.851 30.814h-.03v-.659c0-.3-.325-.553-.77-.623-.028-.526-.712-.934-1.581-.934s-1.553.408-1.58.934c-.446.07-.77.322-.77.623v.659h-.031c-.122 0-.22.082-.22.183v4.646c0 .101.098.184.22.184s.22-.083.22-.184v-4.462h.03c.122 0 .221-.082.221-.184v-.842c0-.124.228-.267.556-.275.119-.003.214-.084.214-.184v-.132c0-.324.522-.598 1.14-.598.618 0 1.14.274 1.14.598v.132c0 .1.095.181.215.184.327.008.555.151.555.275v.842c0 .102.099.184.22.184h.03v4.462c0 .101.1.184.221.184.122 0 .22-.083.22-.184V54.42c0-.101-.098-.183-.22-.183zm3.646-10.402h1.123v-.893h-1.123v.893zm-.22-1.26c-.122 0-.221.082-.221.183v1.26c0 .102.099.184.22.184h1.564c.122 0 .22-.082.22-.183v-1.26c0-.102-.098-.184-.22-.184h-1.564z" stroke="#8B4F4F" stroke-width=".3" fill="#8B4F4F" mask="url(#j8dlbbc9qb)"/>
    </g>
</svg>
