<svg xmlns="http://www.w3.org/2000/svg" xmlns:xlink="http://www.w3.org/1999/xlink" width="640" height="342" xmlns:v="https://vecta.io/nano"><style><![CDATA[.B{fill:#fff}.C{fill:#292929}.D{fill:#fd9f84}.E{fill:#ffe36b}.F{fill:#2e2a2e}.G{fill:#de856a}.H{mask:url(#K)}.I{fill-rule:nonzero}]]></style><defs><linearGradient x1="50%" y1="90.1050333%" x2="50.0000117%" y2="7.63818696e-05%" id="A"><stop stop-color="snow" stop-opacity=".2" offset="0%"/><stop stop-color="#e0ddf8" offset="100%"/></linearGradient><path d="M13.432 0C6.013 0 0 6.013 0 13.432h0V133.55c0 7.419 6.013 13.432 13.432 13.432h0 202.934c7.419 0 13.432-6.013 13.432-13.432h0V13.432C229.798 6.013 223.785 0 216.366 0h0" id="B"/><path d="M6.447 0A6.45 6.45 0 0 0 0 6.447h0v12.041a6.45 6.45 0 0 0 6.447 6.447h0 22.235a6.45 6.45 0 0 0 6.448-6.447h0V6.447A6.45 6.45 0 0 0 28.682 0h0" id="C"/><path d="M6.447 0A6.45 6.45 0 0 0 0 6.447h0v12.041a6.45 6.45 0 0 0 6.447 6.447h0 22.235a6.45 6.45 0 0 0 6.448-6.447h0V6.447A6.45 6.45 0 0 0 28.682 0h0H6.447z" id="D"/><path id="E" d="M128.957 40.486c.294 1.28 1.201 2.164 2.025 1.974s1.253-1.381.959-2.66-1.201-2.164-2.025-1.974-1.253 1.381-.959 2.66"/><path id="F" d="M133.654 92.769c-1.655 0-3.002 1.347-3.002 3.002v8.083c0 1.655 1.347 3.002 3.002 3.002h28.238c1.655 0 3.002-1.347 3.002-3.002V95.77c0-1.655-1.347-3.002-3.002-3.002h-28.238zm28.238 14.803h-28.238c-2.05 0-3.718-1.668-3.718-3.718V95.77c0-2.05 1.668-3.718 3.718-3.718h28.238c2.05 0 3.718 1.668 3.718 3.718v8.083c0 2.05-1.668 3.718-3.718 3.718h0z"/><path id="G" d="M16.474 17.506h-.765v-4.654h.765v.991c.368-.689.963-1.076 1.699-1.076v.878c-.925-.132-1.699.491-1.699 1.643v2.219z"/><path id="H" d="M9.108 6.479h.578l-.075-1.444 1.206.791.289-.502-1.281-.653 1.281-.653-.289-.49-1.206.779.075-1.444h-.578l.063 1.444-1.206-.779-.276.49 1.281.653-1.281.653.276.502 1.206-.791z"/><path id="I" d="M149.071 3.78c0 1.78.791 3.791 2.802 3.791 2 0 2.802-2.011 2.802-3.791 0-1.791-.802-3.78-2.802-3.78-2.011 0-2.802 1.989-2.802 3.78zm4.67 0c0 1.462-.473 2.978-1.868 2.978s-1.868-1.517-1.868-2.978.473-2.967 1.868-2.967 1.868 1.506 1.868 2.967z"/><path id="J" d="M24.832 47.406c0 3.084-2.5 5.584-5.584 5.584s-5.584-2.5-5.584-5.584 2.5-5.584 5.584-5.584 5.584 2.5 5.584 5.584"/></defs><g transform="translate(0 .365)" fill="none" fill-rule="evenodd"><path d="M180.953 31.635c-49.688 0-90.214 40.527-90.214 90.215 0 10.161 1.529 17.745 4.052 26.184.579 1.937.224 3.859-1.011 5.461s-3.002 2.436-5.023 2.369c-8.568-.282-17.175.703-25.452 2.955C26.825 168.742 0 202.1 0 241.724c0 45.373 35.175 72.526 79.742 75.688 1.537.145 3.092.223 4.665.223h1.504 477.052c42.209 0 76.634-24.425 76.634-66.634s-34.425-76.634-76.634-76.634c-2.703 0-5.405.144-8.094.429-20.43 2.17-37.175-.759-39.671-24.564-2.58-24.387-23.321-43.033-47.845-43.033-10.249 0-20.142 3.207-28.404 9.278-64.065 46.857-137.777 17.039-185.189-47.785-16.438-22.438-42.968-37.057-72.807-37.057z" fill="url(#A)"/><g transform="matrix(-1 0 0 1 590.410199 0)"><path d="M135.598 3.916s-10.128-8.277-35.013-.763-27.868 66.033-46.367 93.772c-14.792 22.181-59.29 115.018 46.367 97.175S152.903 46.522 151.334 41.42 135.598 3.916 135.598 3.916" class="F"/><path d="M108.726 86.489c.044-.966-2.371-30.871-2.358-34.008s28.92 8.04 28.92 8.04 3.079 19.278 3.278 24.647c.951 25.642-29.84 1.321-29.84 1.321" class="D"/><path d="M113.856 57.339s3.611 17.457 23.994 20.097l-2.207-15.129-21.787-4.968z" class="G"/><path d="M131.367 5.35s5.608-.107 11.972 14.475 15.464 38.67 7.102 46.699c-7.772 7.462-41.144 1.604-41.144 1.604l-9.875-31.796c-4.919-15.84 7.034-31.905 23.619-31.684a60.98 60.98 0 0 1 8.325.702" class="D"/><g class="C"><use xlink:href="#E"/><use xlink:href="#E" x="14.69" y="-5.516"/><path d="M141.15 48.295a.35.35 0 0 1-.121-.677c3.129-1.151 3.426-4.29 3.451-5.057l-5.156-3.513a.35.35 0 0 1-.13-.165l-2.23-5.922a.35.35 0 0 1 .204-.45.35.35 0 0 1 .45.204l2.191 5.819 5.218 3.556a.35.35 0 0 1 .152.275c.002.044.119 4.427-3.909 5.908a.35.35 0 0 1-.12.021m-2.52 5.478c-1.416 0-2.939-.197-4.271-.805a.35.35 0 0 1-.173-.462.35.35 0 0 1 .462-.173c3.483 1.589 8.604.111 8.656.096a.35.35 0 0 1 .433.236.35.35 0 0 1-.236.433c-.141.041-2.335.675-4.872.675M118.73 36.274a.35.35 0 0 1-.2-.635c5.825-4.056 10.56-4.291 10.758-4.299a.35.35 0 0 1 .363.335.35.35 0 0 1-.334.363c-.047.002-4.743.244-10.388 4.175a.35.35 0 0 1-.199.063m20.651-8.816a.35.35 0 0 1-.181-.648c.152-.092 3.743-2.241 5.875-1.852a.35.35 0 0 1 .281.406.35.35 0 0 1-.406.281c-1.876-.342-5.355 1.742-5.39 1.763-.056.034-.119.05-.18.05"/></g><g class="B"><path d="M168.383 86.967s28.98 6.681 45.254 58.853c8.023 25.729 9.448 40.827 6.742 50.647-4.067 14.761-23.678 17.838-32.193 5.113-7.004-10.467-16.147-28.416-25.959-58.985l6.155-55.628z"/><path d="M60.648 98.466s31.235-11.633 42.762-13.808c1.763-.333 3.11-1.766 3.329-3.546l.825-6.69s24.137.549 31.99-1.505l2.846 6.725a3.81 3.81 0 0 0 2.864 2.271c2.965.508 8.703 1.536 14.204 2.772 5.127 1.152 10.155 2.205 11.629 4.001l.033 115.599-90.035 7.614S39.083 119.416 60.648 98.466"/></g><path d="M191.057 341.286h-68.872c-.061-18.429-.436-32.83-1.259-40.491 0 0-4.817 15.778-11.483 40.491H68.247 38.248l4.624-25.489c2.525-13.919 5.73-27.706 9.62-41.307l3.715-12.576c3.082-10.075 6.167-19.257 9.228-27.289 2.697-7.077 5.377-13.264 8.018-18.381l.025-.049.201-.385c2.042-3.915 4.065-7.187 6.055-9.738 77.922 8.006 91.653-9.76 91.653-9.76s.429.631 1.16 2.089c.374.749.83 1.716 1.348 2.927s1.101 2.672 1.731 4.403l.149.414c1.587 4.43 3.455 10.569 5.343 18.837.797 3.491 1.597 7.362 2.381 11.642 2.012 10.998 3.917 24.709 5.381 41.667l.05.589 1.224 16.953c.74 12.38.995 27.968.902 45.452" fill="#b6d2ef"/><path d="M116.562 208.493c-11.082 0-23.431-.694-36.863-2.074a.35.35 0 0 1-.311-.383c.02-.192.19-.332.383-.311 40.077 4.118 62.782 1.278 74.772-1.828 12.983-3.364 16.536-7.754 16.57-7.798a.35.35 0 0 1 .489-.061.35.35 0 0 1 .062.489c-.143.185-3.656 4.575-16.794 8.006-7.672 2.004-17.068 3.263-27.926 3.741-3.322.146-6.786.22-10.382.22" class="C"/><g class="D"><path d="M272.249 144.272a12.34 12.34 0 0 1-3.618 8.747l-.214.214a334.61 334.61 0 0 1-15.782 14.594c-4.817 4.145-9.115 7.481-10.711 7.785-3.956.755-4.621-10.609-4.545-19.514l.031-2.076c.099-4.643.363-8.186.363-8.186l16.061-12.391a12.39 12.39 0 0 1 14.107 1.433c2.86 2.461 4.307 5.922 4.307 9.393m21.023-10.033s4.686-3.652 7.23-11.74c1.818-5.779 4.411-11.89 3.613-12.501-2.794-2.139-6.642 3.818-8.646 7.865s-2.197 16.375-2.197 16.375"/><path d="M282.718 125.287s10.669-13.048 12.99-13.078 3.59 3.788 1.686 7.421-14.39 16.547-14.39 16.547-3.935-5.486-3.801-6.039 3.515-4.851 3.515-4.851"/><path d="M250.88 145.649s5.722-18.793 9.154-20.886 15.123-15.346 16.847-15.221 3.541 3.49-.007 8.479-9.114 7.443-5.933 8.799 11.777-1.534 11.777-1.534l2.749 17.628s-13.283 7.749-19.267 10.248c-3.792 1.583-15.319-7.513-15.319-7.513m33.933-7.285s9.314-3.44 10.231-5.412 4.688-18.751 3.922-19.814-4.712 1.344-5.991 5.669c-1.738 5.88-6.156 11.275-6.156 11.275l-2.006 8.281z"/></g><path d="M284.935 138.691l-.242-.655c3.69-1.363 9.407-3.881 10.035-5.232.423-.911 1.56-5.403 2.534-10.015 1.249-5.913 1.61-9.003 1.416-9.455-.1-.124-.349-.104-.49-.079-1.212.206-3.879 2.271-4.878 5.651-1.738 5.88-6.176 11.342-6.22 11.397l-.54-.442c.044-.053 4.394-5.41 6.091-11.153 1.06-3.585 3.835-5.87 5.43-6.141.709-.121 1.042.178 1.179.367.123.17.352.488-.099 3.522-.244 1.647-.65 3.832-1.173 6.32-.886 4.212-2.107 9.225-2.617 10.323-.949 2.043-9.459 5.235-10.426 5.592" class="C"/><path d="M263.941 140.625s5.23-5.898 16.41-4.36c0 0 5.099-14.411 7.087-15.976s3.725.317 3.47 3.18-4.555 18.198-5.442 19.446l-21.525-2.29z" class="D"/><path d="M285.751 143.117l-.569-.405c.861-1.211 5.133-16.522 5.378-19.274.133-1.489-.318-2.781-1.121-3.216-.524-.284-1.142-.166-1.786.341-1.565 1.233-5.565 11.837-6.974 15.819l-.095.268-.282-.039c-10.868-1.495-16.05 4.188-16.101 4.246l-.522-.463c.055-.062 1.386-1.543 4.124-2.84 2.47-1.171 6.599-2.399 12.312-1.671.73-2.042 5.191-14.36 7.105-15.868.867-.683 1.772-.827 2.55-.407 1.061.574 1.643 2.102 1.484 3.892-.26 2.918-4.581 18.318-5.505 19.617" class="C"/><path d="M268.418 153.233c-3.487 3.478-10.005 9.619-15.782 14.594-1.325-.49-2.602-1.11-3.769-1.895-5.399-3.637-10.296-7.23-11.487-9.833-.363-.793-.382-1.493.031-2.075l11.423-15.659s8.836 13.474 19.584 14.869" class="G"/><path d="M268.359 156.618s-33.577 35.873-51.105 47.718c-23.309 15.749-31.334-25.348-31.334-25.348l62.948-42.179s-2.093 12.505 19.491 19.809" class="B"/><path d="M202.705 166.279a.35.35 0 0 1-.187-.644l46.163-29.121a.35.35 0 0 1 .481.109.35.35 0 0 1-.109.481l-46.163 29.121c-.058.036-.122.054-.186.054" class="C"/><path d="M136.818 6.715s-27.341 41.894-39.911 41.231-7.166-33.67-5.196-34.672L118.589.013l18.229 6.701" class="F"/><path d="M109.619 41.089s-8.86-3.008-11.263 4.597c-3.374 10.678 9.796 15.448 14.954 11.317s-3.691-15.914-3.691-15.914" class="D"/><g class="C"><path d="M103.749 54.812c-.084 0-.168-.03-.234-.091-2.343-2.128-3.452-4.259-3.296-6.331.191-2.531 2.203-4.229 3.386-5.016 1.95-1.297 4.312-.545 4.411-.513a.35.35 0 0 1 .223.44.35.35 0 0 1-.44.223c-.021-.007-2.144-.676-3.808.43-1.077.716-2.908 2.252-3.077 4.488-.139 1.847.893 3.786 3.069 5.762a.35.35 0 0 1 .024.493c-.069.076-.163.114-.258.114"/><path d="M101.489 52.165a.35.35 0 0 1-.346-.308.35.35 0 0 1 .306-.387l6.592-.779a.35.35 0 0 1 .387.306.35.35 0 0 1-.306.387l-6.592.779c-.014.002-.028.003-.041.003"/></g><path d="M131.248 7.263l13.583 16.046s-3.381-15.393-9.234-19.393-14.034 3.347-14.034 3.347h9.684z" class="F"/><path d="M118.364 221.461a177.85 177.85 0 0 1-7.697-.17c-20.641-.897-36.914-5.102-37.076-5.144a.35.35 0 0 1-.249-.426c.049-.186.239-.299.426-.249.161.042 16.375 4.23 36.944 5.122 18.957.822 45.598-1.067 64.862-14.734a.35.35 0 0 1 .486.083.35.35 0 0 1-.083.486c-8.584 6.09-19.314 10.39-31.89 12.779-7.887 1.498-16.512 2.252-25.723 2.252m-8.92 120.175a.34.34 0 0 1-.095-.013.35.35 0 0 1-.241-.431l11.483-40.491a.35.35 0 0 1 .169-.211l19.338-10.523a.35.35 0 0 1 .473.14.35.35 0 0 1-.14.473l-19.209 10.453-11.443 40.35a.35.35 0 0 1-.336.254" class="C"/><g fill="#ded4bb"><path d="M249.438 27.847l1.096-3.416-17.647-5.662-1.096 3.416z"/><path d="M245.701 15.033l-3.416-1.096-5.662 17.647 3.416 1.096z"/></g><path d="M248.868 84.869s25.714-10.981 39.701-7.045-10.079 31.008-10.079 31.008l-29.623-23.963z" class="D"/><path d="M404.333 95.191v120.118c0 7.419-6.013 13.432-13.432 13.432H187.966c-7.419 0-13.432-6.013-13.432-13.432V95.191c0-7.419 6.013-13.432 13.432-13.432h202.934c7.419 0 13.432 6.013 13.432 13.432" fill="#736fed"/><path d="M193.294 87.963c-7.209 0-13.074 5.865-13.074 13.074v120.118c0 7.209 5.865 13.074 13.074 13.074h202.934c7.209 0 13.074-5.865 13.074-13.074V101.037c0-7.209-5.865-13.074-13.074-13.074H193.294zm202.934 146.982H193.294a13.81 13.81 0 0 1-13.79-13.79V101.037a13.81 13.81 0 0 1 13.79-13.79h202.934a13.81 13.81 0 0 1 13.79 13.79v120.118a13.81 13.81 0 0 1-13.79 13.79h0z" fill="#3e3d6e"/><g transform="translate(174.534 81.759)"><mask id="K" class="B"><use xlink:href="#B"/></mask><path d="M229.798 133.55c0 7.419-6.013 13.432-13.432 13.432H13.432C6.013 146.982 0 140.968 0 133.55V13.432C0 6.013 6.013 0 13.432 0h202.934c7.419 0 13.432 6.013 13.432 13.432V133.55z" fill="#4542b4" class="H"/><circle stroke="#fff" opacity=".06" cx="235.376" cy="103.876" r="109" class="H"/><g opacity=".05" fill="#eee" class="H I"><path d="M223.433 128.302l-45.239-29.223s-5.674-3.236-6.973-9.266c-1.824-8.466 4.191-15.723 4.191-15.723l58.714 37.94c4.529 2.929 5.766 8.921 2.854 13.44-2.991 4.643-9.137 5.667-13.547 2.832zM181.361 67.88s-6.827-4.147-6.827-13.739c0-9.559 6.824-13.655 6.824-13.655l24.366-16.042c2.145-1.402 4.755-1.89 7.257-1.356s4.691 2.046 6.085 4.203a9.75 9.75 0 0 1 1.348 7.301c-.531 2.517-2.034 4.719-4.178 6.121L195.7 54.165l34.991 22.925s6.298 3.63 7.539 9.758c1.732 8.549-4.118 15.592-4.118 15.592L181.36 67.88zm45.934-23.055c-2.248 0-3.847.733-5.408 1.774l-11.686 7.828 11.686 7.828c1.576 1.044 3.229 1.775 5.408 1.775a9.11 9.11 0 0 0 3.601-.704 9.32 9.32 0 0 0 3.06-2.075 9.62 9.62 0 0 0 2.047-3.127 9.84 9.84 0 0 0 0-7.393 9.62 9.62 0 0 0-2.047-3.127 9.32 9.32 0 0 0-3.06-2.075 9.11 9.11 0 0 0-3.601-.704m-46.991 85.051c2.248 0 3.847-.733 5.407-1.774l11.687-7.829-11.687-7.827c-1.575-1.044-3.228-1.775-5.407-1.775a9.11 9.11 0 0 0-3.601.704 9.32 9.32 0 0 0-3.06 2.075c-.877.893-1.573 1.956-2.047 3.127a9.84 9.84 0 0 0 0 7.393c.475 1.171 1.171 2.234 2.047 3.127s1.917 1.598 3.06 2.075a9.12 9.12 0 0 0 3.601.704z"/></g><g class="B"><g opacity=".2"><path d="M38.158 92.769c-1.655 0-3.002 1.347-3.002 3.002v8.083c0 1.655 1.347 3.002 3.002 3.002h37.238c1.655 0 3.002-1.347 3.002-3.002V95.77c0-1.655-1.347-3.002-3.002-3.002H38.158zm0 14.803c-2.05 0-3.718-1.668-3.718-3.718V95.77c0-2.05 1.668-3.718 3.718-3.718h37.238c2.05 0 3.718 1.668 3.718 3.718v8.083c0 2.05-1.668 3.718-3.718 3.718H38.158z"/></g><g opacity=".2"><path d="M90.906 92.769c-1.655 0-3.002 1.347-3.002 3.002v8.083c0 1.655 1.347 3.002 3.002 3.002h28.238c1.655 0 3.002-1.347 3.002-3.002V95.77c0-1.655-1.347-3.002-3.002-3.002H90.906zm28.238 14.803H90.906c-2.05 0-3.718-1.668-3.718-3.718V95.77c0-2.05 1.668-3.718 3.718-3.718h28.238c2.05 0 3.718 1.668 3.718 3.718v8.083c0 2.05-1.668 3.718-3.718 3.718h0z"/></g><g opacity=".2"><use xlink:href="#F"/></g><g opacity=".2"><use xlink:href="#F" x="43.747"/></g></g><path d="M202.061 70.474h-22.235a6.45 6.45 0 0 1-6.447-6.447V51.985a6.45 6.45 0 0 1 6.447-6.447h22.235a6.45 6.45 0 0 1 6.447 6.447v12.041a6.45 6.45 0 0 1-6.447 6.447" fill="#ffe33b"/><g transform="matrix(-1 0 0 1 70.876006 13.876225)" fill="#eee" class="I"><path d="M56.663 23.202l-9.869-6.425s-1.238-.711-1.521-2.037c-.398-1.861.914-3.457.914-3.457l12.809 8.342c.988.644 1.258 1.961.623 2.955-.652 1.021-1.993 1.246-2.955.623zM47.315 9.906s-1.512-.913-1.512-3.024c0-2.104 1.511-3.006 1.511-3.006L52.709.345c.475-.309 1.053-.416 1.607-.299a2.13 2.13 0 0 1 1.347.925 2.14 2.14 0 0 1 .299 1.607 2.13 2.13 0 0 1-.925 1.347L50.49 6.887l7.748 5.046s1.395.799 1.669 2.148c.383 1.882-.912 3.432-.912 3.432l-11.68-7.607zM57.47 4.783c-.507 0-.867.161-1.219.389l-2.634 1.715 2.634 1.715c.355.229.728.389 1.219.389a2.11 2.11 0 0 0 .812-.154c.258-.104.492-.259.69-.455s.354-.429.461-.685.162-.532.162-.81-.055-.553-.162-.81a2.1 2.1 0 0 0-.461-.685c-.197-.195-.432-.35-.69-.455s-.534-.157-.812-.154m-10.184 18.76c.507 0 .867-.161 1.219-.389l2.634-1.716-2.634-1.715c-.355-.229-.728-.389-1.219-.389a2.11 2.11 0 0 0-.812.154c-.258.104-.492.259-.69.455s-.354.429-.461.685-.162.532-.162.81.055.553.162.81a2.1 2.1 0 0 0 .461.685c.197.195.432.35.69.455s.534.157.812.154zM2.492 16.864c.557 0 1.076-.151 1.482-.5v.783c-.453.312-.991.444-1.558.444C.99 17.59 0 16.599 0 15.173c0-1.416 1.019-2.407 2.436-2.407a2.47 2.47 0 0 1 1.492.472v.859c-.368-.396-.878-.604-1.444-.604-.991 0-1.69.689-1.69 1.68s.708 1.69 1.7 1.69zm3.097.642h-.765v-6.13l.765.473v1.796c.349-.538.906-.878 1.614-.878 1.171 0 1.794.859 1.794 2.001v2.738h-.774V14.9c0-.906-.396-1.388-1.209-1.388-.859 0-1.426.736-1.426 1.661l.001 2.332zm8.157-.794c-.387.548-.982.878-1.709.878-1.359 0-2.332-1.01-2.332-2.389 0-1.406.972-2.436 2.332-2.436.727 0 1.322.34 1.709.897v-.812h.774v4.654h-.774v-.793zm-3.247-1.52c0 .963.67 1.671 1.614 1.671.953 0 1.633-.708 1.633-1.671 0-.982-.68-1.699-1.633-1.699-.944.001-1.614.718-1.614 1.7h0z"/><use xlink:href="#G"/><path d="M26.009 15.476h-3.673c.113.84.774 1.397 1.699 1.397a2.84 2.84 0 0 0 1.662-.519v.736c-.5.34-1.067.5-1.662.5-1.463 0-2.511-.944-2.511-2.37 0-1.397.887-2.454 2.294-2.454 1.34 0 2.219.991 2.219 2.322a2.57 2.57 0 0 1-.029.388h0zm-3.663-.623h2.88c-.076-.793-.576-1.378-1.397-1.378-.85 0-1.36.594-1.482 1.378h0z"/><use xlink:href="#G" x="11.169"/><path d="M33.883 15.476h-3.672c.113.84.774 1.397 1.699 1.397a2.84 2.84 0 0 0 1.662-.519v.736a2.91 2.91 0 0 1-1.662.5c-1.463 0-2.511-.944-2.511-2.37 0-1.397.887-2.454 2.294-2.454 1.34 0 2.218.991 2.218 2.322a2.57 2.57 0 0 1-.028.388zm-3.663-.623h2.879c-.076-.793-.576-1.378-1.397-1.378-.85 0-1.359.594-1.482 1.378h0zm8.253 1.853c-.377.557-.982.897-1.709.897-1.36 0-2.332-1.01-2.332-2.389 0-1.406.972-2.436 2.332-2.436a2.01 2.01 0 0 1 1.709.916v-2.317l.774.473v5.655h-.774v-.799zm-3.247-1.501c0 .963.67 1.671 1.614 1.671.953 0 1.633-.708 1.633-1.671 0-.982-.68-1.699-1.633-1.699-.944 0-1.614.717-1.614 1.699zm-15.716.753c0 .651.396.906.897.906.389.004.769-.115 1.086-.34v.746c-.321.236-.765.33-1.152.33-.991 0-1.596-.444-1.596-1.699v-4.527l.765.473v4.111zm1.236-3.168a.59.59 0 1 0-.643.991l.016.01a.59.59 0 0 0 .636 0l.76-.488-.77-.513zm-19.15-2.638c.547 0 .944-.236.944-.661 0-.255-.132-.453-.482-.595L.953 8.452c-.567-.245-.878-.566-.878-1.17 0-.812.651-1.322 1.595-1.322.547 0 1.057.151 1.416.425v.803c-.425-.378-.944-.595-1.406-.595-.491 0-.841.227-.841.604 0 .283.132.453.501.595l1.105.444c.595.255.869.614.869 1.114 0 .887-.718 1.435-1.728 1.435-.614 0-1.171-.17-1.577-.472v-.832c.491.463 1.038.67 1.586.67zm3.172-1.01c0 .651.396.906.897.906a1.85 1.85 0 0 0 1.085-.34v.746c-.321.236-.765.33-1.152.33-.991 0-1.595-.444-1.595-1.699V5.027l.765-.473.001 4.588zm6.259.764c-.387.548-.982.878-1.709.878-1.359 0-2.332-1.01-2.332-2.389 0-1.406.972-2.436 2.332-2.436.727 0 1.322.34 1.709.897v-.811h.774v4.654h-.774v-.793zm-3.248-1.52c0 .963.67 1.671 1.614 1.671.954 0 1.633-.708 1.633-1.671 0-.982-.68-1.699-1.633-1.699-.944 0-1.614.718-1.614 1.699zm5.976 2.313h-.765V6.046h.765v.793c.349-.538.906-.878 1.614-.878 1.171 0 1.794.859 1.794 2.001V10.7h-.774V8.094c0-.906-.396-1.388-1.208-1.388-.859 0-1.426.736-1.426 1.662l.001 2.331zm8.157-.812c-.378.557-.982.897-1.709.897-1.359 0-2.332-1.01-2.332-2.389 0-1.406.972-2.436 2.332-2.436a2.01 2.01 0 0 1 1.709.916V5.027l.774-.473v6.145h-.774v-.812zm-3.248-1.501c0 .963.67 1.671 1.614 1.671.954 0 1.633-.708 1.633-1.671 0-.982-.68-1.699-1.633-1.699-.943 0-1.614.718-1.614 1.699zm17.41 1.501c-.378.557-.982.897-1.709.897-1.36 0-2.332-1.01-2.332-2.389 0-1.406.972-2.436 2.332-2.436a2.01 2.01 0 0 1 1.709.916V5.027l.774-.473v6.145h-.774v-.812zm-3.248-1.501c0 .963.67 1.671 1.614 1.671.953 0 1.633-.708 1.633-1.671 0-.982-.68-1.699-1.633-1.699-.944 0-1.614.718-1.614 1.699zm-5.268 1.52c-.387.548-.982.878-1.709.878-1.359 0-2.332-1.01-2.332-2.389 0-1.406.972-2.436 2.332-2.436.727 0 1.322.34 1.709.897v-.811h.774v4.654h-.774v-.793zm-3.248-1.52c0 .963.67 1.671 1.614 1.671.953 0 1.633-.708 1.633-1.671 0-.982-.68-1.699-1.633-1.699-.945 0-1.614.718-1.614 1.699h0zm5.976 2.313h-.765V6.046h.765v.991c.368-.689.963-1.076 1.699-1.076v.878c-.925-.132-1.699.491-1.699 1.643V10.7zM5.846 7.037a.59.59 0 0 0 .819-.174.59.59 0 0 0-.178-.818l-.016-.01a.59.59 0 0 0-.636.002l-.76.49.772.511z"/></g><g transform="matrix(-1 0 0 1 209.876005 122.876225)"><path d="M15.676.217L13.702 12.35h3.159L18.835.217h-3.159zm-4.632 0L8.033 8.562l-.356-1.797v.001l-.078-.403c-.364-.785-1.209-2.278-2.803-3.552-.471-.377-.946-.698-1.406-.973L6.127 12.35h3.291L14.444.217h-3.4zm12.328 3.368c0-1.372 3.076-1.195 4.428-.451l.451-2.606S26.86 0 25.41 0c-1.568 0-5.29.686-5.29 4.017 0 3.135 4.369 3.174 4.369 4.82s-3.919 1.352-5.212.313l-.47 2.724s1.41.686 3.566.686 5.408-1.117 5.408-4.154c0-3.155-4.408-3.448-4.408-4.82zM36.262.217h-2.54c-1.173 0-1.458.904-1.458.904L27.553 12.35h3.292l.659-1.802h4.016l.37 1.802h2.9L36.262.217zm-3.847 7.841l1.66-4.541.934 4.541h-2.594z" class="B"/><path d="M6.657 1.359S6.526.264 5.131.264H.059L0 .47s2.438.497 4.776 2.359C7.011 4.608 7.74 6.826 7.74 6.826L6.657 1.359z" fill="#f6ac1d"/></g><g transform="matrix(-1 0 0 1 203.889856 95.920376)" opacity=".8" class="B I"><path d="M1.419 6.479h.578l-.075-1.444 1.206.791.289-.502-1.281-.653 1.281-.653-.289-.49-1.206.779.075-1.444h-.578l.063 1.444-1.206-.779-.276.49 1.281.653L0 5.324l.276.502 1.206-.791z"/><use xlink:href="#H"/><path d="M16.797 6.479h.578L17.3 5.035l1.206.791.289-.502-1.281-.653 1.281-.653-.289-.49-1.206.779.075-1.444h-.578l.063 1.444-1.206-.779-.276.49 1.281.653-1.281.653.276.502 1.206-.791z"/><use xlink:href="#H" x="15.378"/><use xlink:href="#H" x="35.726"/><use xlink:href="#H" x="43.415"/><use xlink:href="#H" x="51.104"/><use xlink:href="#H" x="58.793"/><use xlink:href="#H" x="77.141"/><use xlink:href="#H" x="84.83"/><use xlink:href="#H" x="92.519"/><use xlink:href="#H" x="100.208"/><path d="M134.338 7.44h1.093l-2.336-3.115 2.198-2.951H134.2l-1.683 2.311-1.683-2.311h-1.093l2.198 2.951-2.323 3.115h1.08l1.821-2.487zm9.523 0h1.093l-2.336-3.115 2.198-2.951h-1.093l-1.683 2.311-1.683-2.311h-1.093l2.198 2.951-2.323 3.115h1.08l1.821-2.487z"/><use xlink:href="#I"/><use xlink:href="#I" x="9.717"/></g></g><g transform="translate(347.914 127.297)"><mask id="L" class="B"><use xlink:href="#C"/></mask><path d="M28.682 24.936H6.448A6.45 6.45 0 0 1 0 18.489V6.447A6.45 6.45 0 0 1 6.448 0h22.235a6.45 6.45 0 0 1 6.447 6.447v12.041a6.45 6.45 0 0 1-6.447 6.447" mask="url(#L)" class="E"/><mask id="M" class="B"><use xlink:href="#D"/></mask><path d="M-5.656 9.566h46.441-46.441z" mask="url(#M)" class="E"/><mask id="N" class="B"><use xlink:href="#F" href="#C"/></mask><path d="M40.785 9.924H-5.656a.36.36 0 0 1-.358-.358.36.36 0 0 1 .358-.358h46.441a.36.36 0 0 1 .358.358.36.36 0 0 1-.358.358" mask="url(#N)" class="C"/><mask id="O" class="B"><use xlink:href="#G" href="#D"/></mask><path d="M-5.656 16.921h46.441-46.441z" mask="url(#O)" class="E"/><mask id="P" class="B"><use xlink:href="#H" href="#C"/></mask><path d="M40.785 17.279H-5.656a.36.36 0 0 1-.358-.358.36.36 0 0 1 .358-.358h46.441a.36.36 0 0 1 .358.358.36.36 0 0 1-.358.358" mask="url(#P)" class="C"/><mask id="Q" class="B"><use xlink:href="#I" href="#C"/></mask><path d="M12.732 16.292V8.644c0-2.669 2.164-4.833 4.833-4.833h0c2.669 0 4.833 2.164 4.833 4.833v7.648c0 2.669-2.164 4.833-4.833 4.833h0c-2.669 0-4.833-2.164-4.833-4.833" mask="url(#Q)" class="E"/><mask id="R" class="B"><use xlink:href="#J" href="#C"/></mask><path d="M17.565 4.17a4.48 4.48 0 0 0-4.475 4.475v7.648a4.48 4.48 0 0 0 4.475 4.475 4.48 4.48 0 0 0 4.475-4.475V8.644a4.48 4.48 0 0 0-4.475-4.475m0 17.313a5.2 5.2 0 0 1-5.191-5.191V8.644a5.2 5.2 0 0 1 5.191-5.191 5.2 5.2 0 0 1 5.191 5.191v7.648a5.2 5.2 0 0 1-5.191 5.191" mask="url(#R)" class="C"/></g><g class="D"><path d="M275.869 77.821c-1.43.741-2.463 2.07-2.904 3.618-.953 3.348-2.487 10.066.259 10.899 3.676 1.116 7.648-10.211 6.118-13.664-.765-1.726-2.215-1.506-3.473-.854"/><path d="M282.538 77.819c-1.413.773-2.417 2.124-2.823 3.682-.879 3.368-2.412 12.179.351 12.951 3.7 1.034 7.569-12.438 5.962-15.856-.803-1.709-2.248-1.457-3.491-.777"/><path d="M288.569 77.823c-1.383.826-2.334 2.214-2.681 3.786-.75 3.399-2.277 11.265.514 11.932 3.737.893 7.421-11.72 5.685-15.075-.868-1.677-2.301-1.37-3.518-.643"/><path d="M292.148 78.952c-1.019.943-1.575 2.283-1.588 3.671-.028 3.001.23 8.935 2.703 9.001 3.311.088 4.027-10.234 1.967-12.755-1.03-1.26-2.185-.746-3.082.083"/></g><path d="M275.857 91.615c-.084 0-.169-.029-.237-.089a.36.36 0 0 1-.032-.506c3.137-3.564 3.725-10.461 3.731-10.53.016-.197.185-.344.386-.328a.36.36 0 0 1 .328.386c-.024.292-.611 7.202-3.907 10.946a.36.36 0 0 1-.269.122m5.602 2.945c-.104 0-.207-.045-.278-.132a.36.36 0 0 1 .051-.504c4.944-4.029 4.599-14.787 4.595-14.895a.36.36 0 0 1 .345-.372c.202-.008.364.147.372.344.017.456.363 11.222-4.858 15.477a.36.36 0 0 1-.226.08m9.549-5.804c-.043 0-.087-.008-.129-.024-.185-.072-.276-.279-.204-.464 2.3-5.931 1.086-9.648 1.073-9.685a.36.36 0 0 1 .223-.455.36.36 0 0 1 .455.222c.055.16 1.32 3.981-1.083 10.177a.36.36 0 0 1-.334.229" class="C"/><use xlink:href="#J" stroke="#b7c8d8" stroke-width="2"/><use xlink:href="#J" x="325.015" y="-18.098" fill="#ffd03f"/><path d="M287.513 283.08c0 4.41-3.575 7.984-7.984 7.984s-7.984-3.575-7.984-7.984 3.575-7.984 7.984-7.984 7.984 3.575 7.984 7.984" fill="#0091e4" opacity=".8"/><g fill="#a5afd3"><path opacity=".5" d="M477.647 244.707l1.096-3.416-17.647-5.662-1.096 3.416z"/><path opacity=".5" d="M473.91 231.893l-3.416-1.096-5.662 17.647 3.416 1.096z"/></g><path d="M62.045 97.847c-6.918 2.759-12.087 9.121-13.214 17.381-.97 7.113 1.112 14.52 3.634 21.418 4.862 13.299 8.438 26.864 12.705 40.382 4.789 15.172 11.089 29.256 20.791 41.637 1.642 2.096 3.448 4.198 5.75 5.205 6.032 2.639 16.19-1.064 19.625-6.497 2.595-4.104 2.467-9.701 2.002-14.883-2.421-27.004-11.298-53.194-20.269-78.926-2.414-6.926-4.955-14.051-9.563-19.553-6.398-7.639-14.59-8.906-21.462-6.165" class="B"/><path d="M208.637 135.914c1.004.473.052 3.948-5.449 7.248l.467.011c7.751.317 14.839 2.848 12.057 5.576-1.513 1.482-2.397 1.442-2.397 1.442s3.485 1.51 1.797 3.557-4.162 2.505-4.162 2.505 3.715 2.747.788 4.164-14.031 2.947-16.703 5.07c-2.328 1.85-4.265 10.637-8.297 14.675-.595.598-1.236 1.091-1.931 1.443-2.955 1.496-19.009-4.413-26.354-7.257l-3.671-1.45s1.602-1.354 3.826-3.082v-.001c2.207-1.713 5.027-3.797 7.506-5.293 0 0 2.019-3.005 4.712-6.739l.002-.001c3.619-5.019 8.453-11.355 11.228-13.476 5.364-4.099 25.143-9.07 26.582-8.39" class="D"/><path d="M191.003 152.881a.37.37 0 0 1-.341-.223.37.37 0 0 1 .192-.489c.028-.012 2.844-1.234 8.23-3.038 5.475-1.834 13.886.372 14.241.467a.371.371 0 0 1-.191.718c-.085-.023-8.551-2.243-13.814-.48-5.351 1.792-8.141 3.003-8.169 3.015a.37.37 0 0 1-.148.031m1.505 6.021a.37.37 0 0 1-.321-.183.37.37 0 0 1 .132-.509c.168-.099 4.147-2.424 7.55-3.264 3.437-.849 10.85.87 11.164.944a.371.371 0 0 1-.17.723c-.075-.018-7.552-1.752-10.816-.946-3.297.814-7.312 3.16-7.352 3.183a.37.37 0 0 1-.188.051m-2.87-11.09a.37.37 0 0 1-.34-.52c.061-.14.154-.353 1.687-1.033l3.309-1.307c2.982-1.077 5.649-1.834 7.134-2.025 3.703-.476 10.485 1.151 10.772 1.22a.371.371 0 1 1-.175.722c-.069-.017-6.935-1.664-10.502-1.206-3.221.414-10.945 3.357-11.564 3.967a.37.37 0 0 1-.32.182" class="C"/><path d="M186.736 180.162c-.595.598-1.236 1.091-1.931 1.443-2.955 1.496-19.009-4.413-26.354-7.257-.214-1.521-.199-3.057.155-4.533l.001-.001c2.207-1.713 5.027-3.797 7.506-5.293 0 0 2.019-3.005 4.712-6.739l.002-.001s5.328 20.402 15.909 22.382" class="G"/><path d="M101.96 181.726s69.438-29.395 69.169-27.574c-.943 6.436-.37 18.322 10.796 29.971 0 0-56.693 53.078-90.215 39.748l10.25-42.145z" class="B"/><g class="C"><path d="M112.837 180.651a.35.35 0 0 1-.342-.28c-1.771-8.832-13.888-39.614-14.011-39.924a.35.35 0 0 1 .197-.453.35.35 0 0 1 .453.197c.122.31 12.263 31.15 14.046 40.043a.35.35 0 0 1-.343.418"/><path d="M104.786 184.263a.35.35 0 0 1-.143-.667l66.344-29.762a.35.35 0 0 1 .461.176.35.35 0 0 1-.176.461l-66.344 29.762c-.046.021-.095.031-.143.031m16.793-96.165c-2.58 0-5.015-.228-7.277-.681-6.078-1.219-8.775-3.626-8.887-3.728a.35.35 0 0 1-.023-.493.35.35 0 0 1 .493-.023c.032.029 2.711 2.401 8.619 3.573 5.472 1.086 14.907 1.335 28.782-3.643a.35.35 0 0 1 .446.211.35.35 0 0 1-.211.446c-6.205 2.226-12.062 3.612-17.41 4.118a48.18 48.18 0 0 1-4.533.221"/></g></g></g></svg>