<svg xmlns="http://www.w3.org/2000/svg" xmlns:xlink="http://www.w3.org/1999/xlink" width="1600" height="435" xmlns:v="https://vecta.io/nano"><defs><path id="A" d="M0 0h1600v435H0z"/><path id="B" d="M0 0h174v269H0z"/><filter x="-9.0%" y="-23.2%" width="118.0%" height="146.5%" id="C"><feGaussianBlur stdDeviation="35" in="SourceGraphic"/></filter><path id="D" d="M42 95a2 2 0 1 1 0-4 2 2 0 1 1 0 4"/></defs><g fill="none" fill-rule="evenodd"><mask id="E" fill="#fff"><use xlink:href="#A"/></mask><path stroke="#979797" d="M.5.5h1599v434H.5z"/><g mask="url(#E)"><g transform="translate(-122.959 -84)"><path fill="#f5f3f4" d="M121.959 84h1601v451h-1601z"/><g opacity=".2" transform="translate(1515.959 70)"><g transform="translate(92)"><mask id="F" fill="#fff"><use xlink:href="#B"/></mask><path d="M34.783 249.488c-11.855-6.89-23.001-15.839-29.501-27.918s-7.559-27.736-.021-39.195c7.615-11.576 21.755-16.554 34.598-21.737s26.578-12.678 30.645-25.927c4.714-15.36-5.64-31.028-16.3-43.044S31.236 66.694 31.187 50.626c-.038-12.505 7.857-24.03 18.095-31.2S71.869 8.807 84.1 6.251c17.31-3.617 34.942-5.693 52.618-6.195 8.61-.244 17.921.11 24.728 5.391 8.558 6.639 10.31 18.682 11.092 29.49a565.08 565.08 0 0 1-16.44 181.665c-5.139 19.9-13.238 49.008-37.024 51.667-28.731 3.212-59.452-4.345-84.29-18.78" fill="#e8d1ba" mask="url(#F)"/></g><g fill="#000" opacity=".5"><path d="M226.176 3.032c-16.772 4.198-34.195 8.963-48.202 19.567-12.102 9.161-21.746 23.166-22.002 38.776-.289 17.627 11.33 32.039 19.576 46.61 4.485 7.925 8.473 16.618 9.118 25.826.599 8.569-2.214 16.586-7.452 23.314-10.044 12.899-25.49 19.599-37.615 30.147-5.951 5.177-10.969 11.372-13.797 18.8-2.756 7.239-3.359 15.172-2.335 22.815 2.126 15.864 11.131 29.572 23.413 39.533 12.894 10.457 28.575 16.968 44.442 21.411 17.866 5.002 36.404 7.236 54.911 7.922 18.741.695 37.499-.173 56.202-1.366l13.657-.915c1.205-.083 1.214-1.972 0-1.888-18.343 1.263-36.708 2.484-55.102 2.526-18.316.042-36.707-1.084-54.699-4.656-16.671-3.309-33.375-8.536-48.005-17.354-13.618-8.207-25.426-20.009-30.58-35.338-5.059-15.047-3.431-31.866 7.172-44.137 10.456-12.1 25.642-18.577 37.291-29.322 5.463-5.039 10.239-11.041 12.692-18.136 2.8-8.101 1.985-16.834-.672-24.855-5.514-16.65-18.12-29.749-23.812-46.292-2.653-7.711-3.33-15.839-1.234-23.767 1.998-7.558 6.118-14.454 11.324-20.239 11.47-12.743 27.78-19.306 43.915-23.913 4.077-1.164 8.183-2.219 12.295-3.249 1.177-.295.679-2.116-.502-1.82"/></g><g fill="#fff"><path d="M189.5 202v9"/><path d="M188 211h2v-9h-2z"/><path d="M194 206.5h-9"/><path d="M185 208h9v-2h-9z"/></g><g fill="#000"><path d="M18.149 255.003l-.026.689-.032.34c-.003.035-.023.183.001.006l-.032.208a9.01 9.01 0 0 1-.326 1.334l-.211.579c-.053.134.057-.126-.002.005l-.067.149-.159.33a9.05 9.05 0 0 1-.668 1.11l-.191.261c.108-.143-.07.085-.106.129l-.457.51-.464.448-.243.211-.159.132a9.22 9.22 0 0 1-1.083.706l-.58.295-.153.07-.344.133a9.11 9.11 0 0 1-1.316.367l-.33.059-.125.019c-.147.022.143-.016-.006 0l-.724.056c-.474.018-.945-.005-1.416-.056-.148-.016.141.022-.006 0l-.125-.019-.33-.059-.688-.165-.628-.202-.306-.118c-.134-.053.126.057-.005-.002l-.186-.084c-.393-.182-.773-.393-1.135-.629l-.528-.372c.143.107-.085-.07-.128-.106l-.274-.237a9.25 9.25 0 0 1-.92-.958l-.106-.129-.167-.228-.377-.575-.315-.568-.142-.293-.067-.149c-.073-.159.021.058-.018-.042a9.68 9.68 0 0 1-.413-1.297l-.123-.616-.026-.167c-.022-.147.016.143 0-.006l-.037-.382a9.25 9.25 0 0 1 0-1.379l.032-.34c.019-.184.004-.044-.001-.006l.025-.167.14-.698c.107-.442.248-.873.419-1.295-.072.177.052-.114.07-.153l.142-.293.315-.568.353-.542.191-.261c-.113.149.103-.125.132-.16a9.25 9.25 0 0 1 .924-.954l.213-.185.125-.103.065-.052c-.088.068.047-.034.067-.049l.131-.095.301-.205c.374-.244.766-.46 1.172-.646l.116-.053.306-.119.667-.216.647-.157.33-.061.125-.02c.275-.043-.188.017.089-.011a10.01 10.01 0 0 1 1.374-.051l.682.051c.184.019.044.004.006-.001l.167.025.371.068c.446.091.886.216 1.314.373l.306.119c-.164-.066.066.03.116.053l.617.312.555.334.268.182.131.094.1.073c-.067-.052.125.101.158.129l.244.21.521.504.403.451.102.125.052.065c-.068-.089.034.047.049.067l.118.164c.249.354.472.725.668 1.11l.142.293.07.153.239.656c.14.436.247.884.32 1.336l.025.167c-.005-.038-.02-.178-.001.006l.032.34.026.689c.002.484.424.949.926.926s.928-.407.926-.926c-.02-4.204-2.687-7.971-6.622-9.419-3.865-1.422-8.429-.181-11.044 2.999a10.18 10.18 0 0 0-2.304 5.688c-.162 2.034.341 4.129 1.391 5.876 1.022 1.699 2.566 3.114 4.374 3.933 1.959.887 4.117 1.143 6.228.723 3.98-.791 7.235-4.167 7.841-8.189a11.15 11.15 0 0 0 .135-1.611c.002-.485-.427-.948-.926-.926s-.923.407-.926.926m37.063-111.038l6.807-2.205 10.829-3.508 2.457-.796c.68-.221.937-1.072.421-1.604l-5.775-5.945-4.705-4.844-2.7-2.779c-.528-.543-1.365-.24-1.593.423l-2.342 6.801-3.726 10.82-.845 2.455a.97.97 0 0 0 .666 1.18c.531.122.998-.162 1.172-.67l2.342-6.801 3.726-10.82.846-2.455-1.593.423 5.775 5.945 4.705 4.844 2.699 2.779.421-1.604-6.807 2.205-10.829 3.508-2.457.796c-.49.159-.806.665-.666 1.18.132.484.68.83 1.172.67"/></g></g><g transform="translate(91.959 169)" fill="#e4cfcf"><use xlink:href="#D"/><use xlink:href="#D" y="-23"/><use xlink:href="#D" y="-45"/><use xlink:href="#D" y="-68"/><use xlink:href="#D" y="-91"/><use xlink:href="#D" x="20"/><use xlink:href="#D" x="20" y="-23"/><use xlink:href="#D" x="20" y="-45"/><use xlink:href="#D" x="20" y="-68"/><use xlink:href="#D" x="20" y="-91"/><use xlink:href="#D" x="39"/><use xlink:href="#D" x="39" y="-23"/><use xlink:href="#D" x="39" y="-45"/><use xlink:href="#D" x="39" y="-68"/><use xlink:href="#D" x="39" y="-91"/><use xlink:href="#D" x="60"/><use xlink:href="#D" x="60" y="-23"/><use xlink:href="#D" x="60" y="-45"/><use xlink:href="#D" x="60" y="-68"/><use xlink:href="#D" x="60" y="-91"/></g></g></g><path fill="#f9f5f5" filter="url(#C)" mask="url(#E)" d="M207 0h1167v452H207z"/></g></svg>