<svg xmlns="http://www.w3.org/2000/svg" xmlns:xlink="http://www.w3.org/1999/xlink" width="1600" height="435" xmlns:v="https://vecta.io/nano"><defs><path id="A" d="M0 0h1600v435H0z"/><path id="B" d="M0 0h139v246H0z"/><filter x="-9.0%" y="-23.2%" width="118.0%" height="146.5%" id="C"><feGaussianBlur stdDeviation="35" in="SourceGraphic"/></filter><path id="D" d="M90 181a1 1 0 1 0 0 2 1 1 0 1 0 0-2"/><path id="E" d="M2 95a2 2 0 1 1 0-4 2 2 0 1 1 0 4"/><path id="F" d="M706 223a11.01 11.01 0 0 0-11 11 11.01 11.01 0 0 0 11 11 11.01 11.01 0 0 0 11-11 11.01 11.01 0 0 0-11-11m0 18.333a7.35 7.35 0 0 1-7.333-7.333 7.35 7.35 0 0 1 7.333-7.333 7.35 7.35 0 0 1 7.333 7.333 7.35 7.35 0 0 1-7.333 7.333"/></defs><g fill="none" fill-rule="evenodd"><mask id="G" fill="#fff"><use xlink:href="#A"/></mask><path stroke="#979797" d="M.5.5h1599v434H.5z"/><g mask="url(#G)"><g transform="translate(-122.959 -84)"><path fill="#f4f0fe" d="M121.959 84h1601v451h-1601z"/><g opacity=".1" transform="translate(60.959 161)"><g transform="translate(18 125)"><mask id="H" fill="#fff"><use xlink:href="#B"/></mask><path d="M101.163 11.918c17.607 10.6 30.068 31.958 24.766 51.795-3.08 11.524-11.38 20.78-18.42 30.415s-13.253 21.216-11.146 32.956c3.745 20.868 30.299 29.455 39.457 48.581 7.82 16.332.386 36.857-13.215 48.824s-31.932 16.973-49.829 19.843c-10.759 1.725-21.956 2.786-32.41-.285-16.393-4.816-28.559-19.367-34.426-35.395s-6.302-33.49-5.772-50.547c1.113-35.786 6.202-71.446 15.13-106.122C21.082 29.515 25.414.104 53.821 0c16.129-.058 33.455 3.558 47.342 11.918" fill="#f9a6a7" mask="url(#H)"/></g><g fill="#fff"><use xlink:href="#D"/><use xlink:href="#D" y="-12"/><use xlink:href="#D" y="-23"/><use xlink:href="#D" x="9"/><use xlink:href="#D" x="9" y="-12"/><path d="M99 160a1 1 0 1 0 0-2 1 1 0 1 0 0 2"/><use xlink:href="#D" x="-20"/><use xlink:href="#D" x="-20" y="-12"/><use xlink:href="#D" x="-20" y="-23"/><use xlink:href="#D" x="-10"/><use xlink:href="#D" x="-10" y="-12"/><use xlink:href="#D" x="-10" y="-23"/><path d="M105 314v7"/><path d="M104 321h1v-7h-1z"/><path d="M107 317h-7"/><path d="M100 318h7v-1h-7z"/></g><g fill="#000"><path d="M128.345 364.942c12.568-5.136 25.621-10.437 35.632-19.877 8.821-8.318 15.194-20.073 13.842-32.457-1.313-12.025-9.074-22.269-17.994-30-10.099-8.753-22.256-14.663-33.173-22.279-10.589-7.388-21.608-17.607-23.244-31.118-1.419-11.724 6.117-20.809 13.945-28.544 7.92-7.825 16.466-15.347 20.056-26.226 3.897-11.809 2.168-25.189-3.843-35.994-5.909-10.621-15.628-18.834-26.564-24.022-12.543-5.95-26.647-7.897-40.438-7.331-3.632.149-7.253.477-10.858.938-.937.12-.949 1.602 0 1.481 14.289-1.828 29.069-1.449 42.835 3.108 11.5 3.807 22.197 10.709 29.624 20.329 7.69 9.961 11.401 22.915 9.234 35.385-1.027 5.914-3.384 11.427-6.937 16.274-3.163 4.315-7.03 8.071-10.86 11.791-7.196 6.989-15.263 14.483-17.343 24.72-2.492 12.26 4.587 24.039 13.244 32.18 18.334 17.241 46.773 24.614 57.888 48.918 2.499 5.464 3.629 11.516 2.903 17.497-.739 6.088-3.323 11.834-6.838 16.825-7.777 11.04-19.923 17.719-32.061 23.025-3.127 1.367-6.287 2.66-9.447 3.951-.874.357-.491 1.79.396 1.428" opacity=".8"/><path d="M163.519 104.002l-.021.551-.025.272c-.003.028-.019.146.001.005l-.026.167c-.06.362-.147.718-.26 1.067l-.169.463c-.042.107.045-.101-.001.004l-.053.119-.127.264a7.31 7.31 0 0 1-.534.888l-.152.209c.086-.114-.056.068-.085.103l-.365.408-.371.358-.195.169-.128.106a7.4 7.4 0 0 1-.867.565l-.464.236-.122.056-.275.106a7.37 7.37 0 0 1-1.053.294l-.264.047-.1.015c-.117.018.114-.013-.005 0l-.579.045a7.86 7.86 0 0 1-1.133-.045c-.119-.013.113.017-.005 0l-.1-.015-.264-.047-.55-.132-.502-.162-.245-.094c-.107-.042.101.045-.004-.001l-.149-.067c-.314-.146-.618-.314-.908-.503l-.423-.298c.114.086-.068-.056-.103-.085l-.22-.19c-.264-.237-.51-.494-.736-.767l-.085-.103-.133-.182-.301-.46-.252-.454-.114-.235-.054-.119c-.058-.127.017.046-.014-.034a7.73 7.73 0 0 1-.331-1.038l-.099-.493-.021-.133c-.018-.118.013.114 0-.005l-.029-.305a7.4 7.4 0 0 1 0-1.103l.025-.272c.015-.147.004-.035-.001-.005l.02-.134.112-.558a7.39 7.39 0 0 1 .335-1.036c-.057.141.041-.091.056-.123l.114-.235.252-.454.283-.434.152-.209c-.09.119.082-.1.105-.128a7.4 7.4 0 0 1 .739-.763l.171-.148.1-.082.052-.042c-.071.055.037-.027.054-.04l.105-.076.24-.164c.299-.195.613-.368.938-.517l.093-.042.245-.095.533-.173.518-.125.264-.049.1-.016c.22-.035-.151.014.071-.009a7.92 7.92 0 0 1 1.099-.041l.546.041c.147.015.035.003.005-.001l.133.02.297.054a7.36 7.36 0 0 1 1.051.298l.245.095c-.131-.053.053.024.093.042l.494.25.444.267.214.145.105.075.08.059c-.054-.041.1.081.127.103l.196.168.417.403.322.36.082.1.042.052c-.054-.071.027.037.039.054l.094.131a7.31 7.31 0 0 1 .534.888l.114.235.056.123.192.525a7.25 7.25 0 0 1 .256 1.069l.02.134c-.004-.03-.016-.142-.001.005l.025.272.021.551c.002.387.339.759.74.741s.742-.326.74-.741c-.016-3.363-2.15-6.376-5.297-7.535-3.092-1.138-6.743-.145-8.835 2.399a8.15 8.15 0 0 0-1.844 4.55 7.99 7.99 0 0 0 1.113 4.701c.817 1.359 2.052 2.491 3.5 3.147a8.16 8.16 0 0 0 4.983.578c3.184-.633 5.788-3.334 6.273-6.551a8.92 8.92 0 0 0 .108-1.289c.002-.388-.342-.759-.74-.741s-.738.326-.74.741m52.595 98.032l-4.95 1.604-7.875 2.551-1.787.579c-.495.16-.681.78-.306 1.166l4.2 4.324 3.422 3.523 1.963 2.021c.384.395.992.174 1.159-.308l1.703-4.947 2.71-7.869.615-1.786c.119-.345-.135-.778-.484-.858-.386-.089-.726.118-.853.487l-1.703 4.947-2.71 7.869-.615 1.786 1.158-.308-4.2-4.324-3.422-3.523-1.963-2.021-.306 1.166 4.95-1.604 7.875-2.551 1.787-.579c.356-.115.586-.484.484-.858-.096-.352-.495-.603-.853-.487"/></g><path d="M191.882 15.971l4.95-1.604 7.875-2.551 1.787-.579c.495-.16.681-.78.306-1.166l-4.2-4.324-3.422-3.523-1.963-2.021c-.384-.395-.992-.174-1.159.308l-1.703 4.947-2.71 7.869-.615 1.786c-.119.345.135.778.484.858.386.089.726-.118.853-.487l1.703-4.947 2.71-7.869.615-1.786-1.159.308 4.2 4.324 3.422 3.523 1.963 2.021.306-1.166-4.95 1.604-7.875 2.551-1.787.579c-.356.115-.586.484-.484.858.096.352.495.603.853.487" fill="#d57b7b"/></g><g opacity=".8" transform="translate(1648.959 169)" fill="#d7c1da"><use xlink:href="#E"/><use xlink:href="#E" y="-23"/><use xlink:href="#E" y="-45"/><use xlink:href="#E" y="-68"/><use xlink:href="#E" y="-91"/><use xlink:href="#E" x="20"/><use xlink:href="#E" x="20" y="-23"/><use xlink:href="#E" x="20" y="-45"/><use xlink:href="#E" x="20" y="-68"/><use xlink:href="#E" x="20" y="-91"/><use xlink:href="#E" x="40"/><use xlink:href="#E" x="40" y="-23"/><use xlink:href="#E" x="40" y="-45"/><use xlink:href="#E" x="40" y="-68"/><use xlink:href="#E" x="40" y="-91"/><use xlink:href="#E" x="60"/><use xlink:href="#E" x="60" y="-23"/><use xlink:href="#E" x="60" y="-45"/><use xlink:href="#E" x="60" y="-68"/><use xlink:href="#E" x="60" y="-91"/></g></g></g><g opacity=".2" mask="url(#G)" fill="#23364d"><path d="M576.309 1h-52.326l.065 2.609c0 35.961-29.327 65.217-65.375 65.217S393.3 39.57 393.3 3.609c0-.874.013-1.748.066-2.609h-52.326L341 3.609C341 68.343 393.784 121 458.674 121S576.349 68.343 576.349 3.609A85.8 85.8 0 0 0 576.309 1" opacity=".15"/><use xlink:href="#F" opacity=".3"/><use xlink:href="#F" x="-67" y="148" opacity=".3"/><use xlink:href="#F" x="30" y="106" opacity=".3"/></g><path fill="#fdf9fe" opacity=".8" filter="url(#C)" mask="url(#G)" d="M207 0h1167v452H207z"/></g></svg>