<svg xmlns="http://www.w3.org/2000/svg" xmlns:xlink="http://www.w3.org/1999/xlink" width="640" height="345" xmlns:v="https://vecta.io/nano"><style><![CDATA[.B{fill:#fff}.C{stroke:#231916}.D{stroke-width:1.007}.E{fill:#fefefe}.F{fill:#b05e22}.G{stroke-width:.817}.H{fill:#f4d9a3}.I{fill:#f5deb0}.J{stroke-width:1.178}.K{stroke-width:.978}.L{fill:#51b4b7}.M{stroke-width:1.282}.N{stroke-width:.996}]]></style><defs><linearGradient x1="50%" y1="90.1050333%" x2="50%" y2="8.96608975%" id="A"><stop stop-color="#efefff" stop-opacity=".2" offset="0%"/><stop stop-color="#f9eaf5" offset="100%"/></linearGradient><path id="B" d="M0 .003h56.448v.64H0z"/><path d="M353.028 5.32c-54.03 27.071-101.457 18.914-144.053 10.756h0C156.656 6.059 111.624-3.959 70.598 51.291h0C47.278 82.697-26.508 81.736 9.941 122.367h0c36.45 40.631 32.004 57.065 11.79 108.591h0c-20.213 51.526 273.288 59.9 314.974 22.707h0c41.687-37.193 96.561-34.624 71.242-85.818h0c-12.566-25.408 30.514-52.349 37.446-80.076h0C457.284 40.214 415.264.004 376.157 0h0c-7.995 0-15.863 1.679-23.129 5.32" id="C"/><path d="M353.028 5.32c-54.03 27.071-101.457 18.914-144.053 10.756h0C156.656 6.059 111.624-3.959 70.598 51.291h0C47.278 82.697-26.508 81.736 9.941 122.367h0c36.45 40.631 32.004 57.065 11.79 108.591h0c-20.213 51.526 273.288 59.9 314.974 22.707h0c41.687-37.193 96.561-34.624 71.242-85.818h0c-12.566-25.408 30.514-52.349 37.446-80.076h0C457.284 40.214 415.264.004 376.157 0h0c-7.995 0-15.863 1.679-23.129 5.32h0z" id="D"/><path d="M0 3.425l2.305.194.299-3.258a1.39 1.39 0 0 0-.002-.169h0L.315 0 0 3.425z" id="E"/><linearGradient x1="25.3800879%" y1="48.6381716%" x2="74.720496%" y2="51.3533801%" id="F"><stop stop-color="#e8c36d" offset="0%"/><stop stop-color="#e4b16b" offset="100%"/></linearGradient><path d="M.292.248L0 3.423l2.305.194.299-3.258c.003-.056.002-.112-.002-.169h0L.339 0a1.31 1.31 0 0 0-.047.248" id="G"/><linearGradient x1="25.3519378%" y1="48.6233573%" x2="74.7472476%" y2="51.3400583%" id="H"><stop stop-color="#e8c36d" offset="0%"/><stop stop-color="#e4b16b" offset="100%"/></linearGradient><path d="M13.054.163l-2.672.216h0C8.028.618 5.95.971 4.271 1.437h0l-1.381.442h0l-.353.137h0c-.549.223-1.007.458-1.375.701h0c-.7.464-1.077.962-1.149 1.478h0c-.189 1.356 1.725 2.842 5.394 4.197h0l.351.128h0l1.899.62h0l.355.105h0l1.795.49h0l.358.09h0l4.507.969h0c9.171 1.701 19.752 2.203 27.589 1.516h0l.37-.034h0c.639-.059 1.258-.127 1.856-.203h0l.369-.049h0c.693-.093 1.354-.197 1.982-.312h0l.369-.07h0c1.306-.255 2.453-.559 3.409-.914h0c1.895-.704 2.826-1.531 2.886-2.409h0c.037-.541-.257-1.102-.86-1.667h0c-.322-.301-.732-.603-1.227-.904h0c-.302-.183-.636-.367-1.001-.548h0c-2.495-1.244-6.436-2.434-11.582-3.389h0C32.308.604 25.068 0 18.611 0h0c-1.937 0-3.802.054-5.558.163" id="I"/><linearGradient x1="-0.0658783773%" y1="49.5323788%" x2="100.065902%" y2="50.4676401%" id="J"><stop stop-color="#e8c36d" offset="0%"/><stop stop-color="#e4b16b" offset="100%"/></linearGradient><path d="M2.889 1.88C1.197 2.509.273 3.235.053 4.01h0a1.31 1.31 0 0 0-.047.248h0c-.077.84.645 1.727 2.084 2.601h0c2.369 1.44 6.684 2.843 12.582 3.937h0c13.18 2.444 29.272 2.414 35.944-.066h0c.122-.045.24-.091.354-.137h0c1.603-.651 2.421-1.398 2.524-2.19h0l.009-.102c.003-.056.002-.112-.002-.169h0C53.343 5.963 48 3.514 38.833 1.814h0C32.308.604 25.067 0 18.61 0h0C12.026 0 6.258.627 2.889 1.88" id="K"/><linearGradient x1="100.066166%" y1="50.4676464%" x2="-0.0658175942%" y2="49.5323559%" id="L"><stop stop-color="#e8c36d" offset="0%"/><stop stop-color="#e4b16b" offset="100%"/></linearGradient><path d="M0 .066l.078 3.171.422-.07h0L.422 0 0 .066z" id="M"/><linearGradient x1="48.4740373%" y1="49.6578544%" x2="51.5252337%" y2="50.3423163%" id="N"><stop stop-color="#e8c36d" offset="0%"/><stop stop-color="#e4b16b" offset="100%"/></linearGradient><path d="M0 .045l.078 3.192.422-.049h0L.422 0 0 .045z" id="O"/><linearGradient x1="48.4694774%" y1="49.6559247%" x2="51.5300614%" y2="50.3431408%" id="P"><stop stop-color="#e8c36d" offset="0%"/><stop stop-color="#e4b16b" offset="100%"/></linearGradient><path d="M0 3.111l.351.128h0L.997.124.645 0 0 3.111z" id="Q"/><linearGradient x1="45.8277556%" y1="49.463827%" x2="54.1707221%" y2="50.5376552%" id="R"><stop stop-color="#e8c36d" offset="0%"/><stop stop-color="#e4b16b" offset="100%"/></linearGradient><path d="M0 3.132l.355.105h0L1.006.102.65 0 0 3.132z" id="S"/><linearGradient x1="45.7578961%" y1="49.4587349%" x2="54.2402166%" y2="50.5410035%" id="T"><stop stop-color="#e8c36d" offset="0%"/><stop stop-color="#e4b16b" offset="100%"/></linearGradient><path d="M0 3.425l2.305.194.3-3.258c.003-.056.002-.112-.002-.169h0L.315 0 0 3.425z" id="U"/><linearGradient x1="25.3798591%" y1="48.6375087%" x2="74.7206836%" y2="51.3527172%" id="V"><stop stop-color="#e8c36d" offset="0%"/><stop stop-color="#e4b16b" offset="100%"/></linearGradient><path d="M.292.248L0 3.423l2.305.194.299-3.258c.003-.056.002-.112-.002-.169h0L.339 0C.315.082.3.165.292.248" id="W"/><linearGradient x1="25.3510112%" y1="48.6237463%" x2="74.7484929%" y2="51.3405069%" id="X"><stop stop-color="#e8c36d" offset="0%"/><stop stop-color="#e4b16b" offset="100%"/></linearGradient><path d="M13.054.163l-2.672.216h0C8.028.618 5.95.971 4.271 1.437h0l-1.381.442h0l-.353.138h0c-.549.223-1.007.458-1.375.701h0c-.7.464-1.077.962-1.149 1.478h0c-.189 1.356 1.725 2.842 5.394 4.197h0l.351.128h0l1.899.62h0l.355.105h0l1.795.49h0l.358.09h0l4.507.969h0c9.171 1.701 19.752 2.203 27.589 1.516h0l.37-.034h0c.639-.059 1.258-.127 1.856-.203h0l.369-.049h0a41.53 41.53 0 0 0 1.982-.312h0l.369-.07h0c1.306-.255 2.453-.559 3.409-.914h0c1.895-.705 2.826-1.531 2.886-2.409h0c.037-.541-.257-1.102-.86-1.667h0c-.322-.301-.732-.603-1.227-.904h0a13.59 13.59 0 0 0-1.001-.548h0c-2.495-1.244-6.436-2.434-11.582-3.389h0C32.308.604 25.068 0 18.612 0h0c-1.937 0-3.802.054-5.558.163" id="Y"/><linearGradient x1="-0.0658818198%" y1="49.5323752%" x2="100.065938%" y2="50.4676352%" id="Z"><stop stop-color="#e8c36d" offset="0%"/><stop stop-color="#e4b16b" offset="100%"/></linearGradient><path d="M2.889 1.88C1.197 2.509.273 3.235.053 4.01h0c-.024.082-.039.165-.047.248h0c-.077.84.645 1.727 2.084 2.601h0c2.369 1.44 6.684 2.843 12.582 3.937h0c13.18 2.444 29.272 2.414 35.944-.066h0l.354-.137h0c1.603-.651 2.421-1.399 2.524-2.19h0l.009-.102a1.52 1.52 0 0 0-.002-.169h0C53.343 5.963 48 3.514 38.833 1.814h0C32.308.604 25.067 0 18.61 0h0C12.026 0 6.258.627 2.889 1.88" id="a"/><linearGradient x1="100.066135%" y1="50.4676686%" x2="-0.0658286042%" y2="49.5323778%" id="b"><stop stop-color="#e8c36d" offset="0%"/><stop stop-color="#e4b16b" offset="100%"/></linearGradient><linearGradient x1="48.4741665%" y1="49.6583451%" x2="51.5252131%" y2="50.3427903%" id="c"><stop stop-color="#e8c36d" offset="0%"/><stop stop-color="#e4b16b" offset="100%"/></linearGradient><linearGradient x1="48.4691468%" y1="49.6564203%" x2="51.5295805%" y2="50.3436195%" id="d"><stop stop-color="#e8c36d" offset="0%"/><stop stop-color="#e4b16b" offset="100%"/></linearGradient><linearGradient x1="45.8276279%" y1="49.4643196%" x2="54.1710041%" y2="50.5381742%" id="e"><stop stop-color="#e8c36d" offset="0%"/><stop stop-color="#e4b16b" offset="100%"/></linearGradient><linearGradient x1="45.757974%" y1="49.4604595%" x2="54.2402945%" y2="50.5427282%" id="f"><stop stop-color="#e8c36d" offset="0%"/><stop stop-color="#e4b16b" offset="100%"/></linearGradient><linearGradient x1="25.3799658%" y1="48.6366294%" x2="74.7191341%" y2="51.3518295%" id="g"><stop stop-color="#e8c36d" offset="0%"/><stop stop-color="#e4b16b" offset="100%"/></linearGradient><path d="M.292.248L0 3.423l2.305.194.3-3.258c.003-.056.002-.112-.002-.169h0L.339 0C.315.082.299.165.292.248" id="h"/><linearGradient x1="25.3524911%" y1="48.6240293%" x2="74.7474133%" y2="51.3407217%" id="i"><stop stop-color="#e8c36d" offset="0%"/><stop stop-color="#e4b16b" offset="100%"/></linearGradient><path d="M13.054.163l-2.672.216h0C8.028.618 5.95.971 4.271 1.437h0l-1.381.442h0l-.353.137h0c-.549.223-1.007.458-1.375.701h0c-.7.464-1.077.962-1.149 1.478h0c-.189 1.356 1.725 2.842 5.394 4.197h0l.351.128h0l1.899.62h0l.355.105h0l1.795.49h0l.358.09h0l4.507.969h0c9.171 1.701 19.752 2.203 27.589 1.516h0l.37-.034h0a56.14 56.14 0 0 0 1.856-.203h0l.369-.049h0a41.53 41.53 0 0 0 1.982-.312h0l.369-.07h0c1.306-.255 2.453-.559 3.409-.914h0c1.895-.705 2.826-1.531 2.886-2.409h0c.037-.542-.257-1.102-.86-1.667h0c-.322-.301-.732-.603-1.227-.904h0c-.302-.183-.636-.367-1.001-.548h0c-2.495-1.244-6.436-2.434-11.582-3.389h0C32.308.604 25.068 0 18.612 0h0c-1.937 0-3.803.054-5.558.163" id="j"/><linearGradient x1="-0.0658494896%" y1="49.5323621%" x2="100.06593%" y2="50.4676211%" id="k"><stop stop-color="#e8c36d" offset="0%"/><stop stop-color="#e4b16b" offset="100%"/></linearGradient><linearGradient x1="100.066139%" y1="50.4676537%" x2="-0.0659339083%" y2="49.5323606%" id="l"><stop stop-color="#e8c36d" offset="0%"/><stop stop-color="#e4b16b" offset="100%"/></linearGradient><linearGradient x1="48.4741318%" y1="49.6584694%" x2="51.5253282%" y2="50.3429314%" id="m"><stop stop-color="#e8c36d" offset="0%"/><stop stop-color="#e4b16b" offset="100%"/></linearGradient><linearGradient x1="48.4696554%" y1="49.6554183%" x2="51.5295763%" y2="50.3426271%" id="n"><stop stop-color="#e8c36d" offset="0%"/><stop stop-color="#e4b16b" offset="100%"/></linearGradient><path d="M0 3.111l.351.128h0L.997.124.646 0 0 3.111z" id="o"/><linearGradient x1="45.8270384%" y1="49.4633181%" x2="54.1717452%" y2="50.5371727%" id="p"><stop stop-color="#e8c36d" offset="0%"/><stop stop-color="#e4b16b" offset="100%"/></linearGradient><linearGradient x1="45.7587616%" y1="49.4594764%" x2="54.2404113%" y2="50.541745%" id="q"><stop stop-color="#e8c36d" offset="0%"/><stop stop-color="#e4b16b" offset="100%"/></linearGradient><path d="M0 3.425l2.305.194.3-3.258a1.39 1.39 0 0 0-.002-.169h0L.315 0 0 3.425z" id="r"/><linearGradient x1="25.3792329%" y1="48.6381687%" x2="74.7206134%" y2="51.3533774%" id="s"><stop stop-color="#e8c36d" offset="0%"/><stop stop-color="#e4b16b" offset="100%"/></linearGradient><path d="M.292.248L0 3.423l2.305.194.3-3.258A1.42 1.42 0 0 0 2.603.19h0L.339 0a1.32 1.32 0 0 0-.047.248" id="t"/><linearGradient x1="25.352295%" y1="48.6233714%" x2="74.7458642%" y2="51.3400723%" id="u"><stop stop-color="#e8c36d" offset="0%"/><stop stop-color="#e4b16b" offset="100%"/></linearGradient><path d="M13.054.163l-2.672.216h0C8.028.618 5.95.971 4.271 1.437h0l-1.381.442h0l-.353.137h0c-.55.223-1.007.458-1.375.701h0c-.7.464-1.077.962-1.149 1.478h0c-.189 1.356 1.725 2.842 5.394 4.197h0l.351.128h0l1.899.62h0l.355.105h0l1.795.49h0l.358.09h0l4.507.969h0c9.171 1.701 19.752 2.203 27.589 1.516h0l.37-.034h0c.639-.059 1.258-.127 1.856-.203h0l.369-.049h0a41.42 41.42 0 0 0 1.982-.312h0l.369-.07h0c1.306-.255 2.453-.559 3.409-.914h0c1.895-.705 2.826-1.531 2.886-2.409h0c.037-.541-.257-1.102-.86-1.667h0c-.322-.301-.732-.603-1.227-.904h0c-.302-.183-.636-.366-1.001-.548h0c-2.495-1.244-6.436-2.434-11.582-3.389h0C32.308.604 25.068 0 18.612 0h0c-1.937 0-3.803.054-5.558.163" id="v"/><linearGradient x1="-0.0659923712%" y1="49.5323734%" x2="100.065918%" y2="50.4676382%" id="w"><stop stop-color="#e8c36d" offset="0%"/><stop stop-color="#e4b16b" offset="100%"/></linearGradient><path d="M2.889 1.88C1.197 2.509.273 3.235.053 4.01h0a1.32 1.32 0 0 0-.047.248h0c-.077.84.645 1.727 2.084 2.601h0c2.369 1.44 6.684 2.843 12.582 3.937h0c13.18 2.444 29.272 2.414 35.944-.066h0c.122-.045.24-.091.354-.137h0c1.603-.651 2.421-1.398 2.524-2.19h0l.009-.102c.003-.056.002-.112-.002-.169h0C53.343 5.963 48 3.514 38.833 1.814h0C32.308.604 25.067 0 18.61 0h0C12.026 0 6.258.627 2.889 1.88" id="x"/><linearGradient x1="100.066083%" y1="50.4676458%" x2="-0.0659354052%" y2="49.5323552%" id="y"><stop stop-color="#e8c36d" offset="0%"/><stop stop-color="#e4b16b" offset="100%"/></linearGradient><linearGradient x1="48.4736062%" y1="49.6576218%" x2="51.5253562%" y2="50.3420833%" id="z"><stop stop-color="#e8c36d" offset="0%"/><stop stop-color="#e4b16b" offset="100%"/></linearGradient><linearGradient x1="48.4695145%" y1="49.6559405%" x2="51.5301417%" y2="50.3431661%" id="AA"><stop stop-color="#e8c36d" offset="0%"/><stop stop-color="#e4b16b" offset="100%"/></linearGradient><linearGradient x1="45.8278318%" y1="49.4638238%" x2="54.1707982%" y2="50.537652%" id="AB"><stop stop-color="#e8c36d" offset="0%"/><stop stop-color="#e4b16b" offset="100%"/></linearGradient><linearGradient x1="45.7586839%" y1="49.4587413%" x2="54.2403337%" y2="50.5410099%" id="AC"><stop stop-color="#e8c36d" offset="0%"/><stop stop-color="#e4b16b" offset="100%"/></linearGradient><path d="M0 3.436l2.312.088.135-3.268c0-.056-.004-.112-.01-.168h0L.142 0 0 3.436z" id="AD"/><linearGradient x1="27.2119821%" y1="48.6960215%" x2="72.9178512%" y2="51.3034678%" id="AE"><stop stop-color="#e8c36d" offset="0%"/><stop stop-color="#e4b16b" offset="100%"/></linearGradient><path d="M.132.25L0 3.435l2.312.088.136-3.268a1.39 1.39 0 0 0-.01-.168h0L.167 0C.147.083.136.167.132.25" id="AF"/><linearGradient x1="27.2008629%" y1="48.682755%" x2="72.9301839%" y2="51.290781%" id="AG"><stop stop-color="#e8c36d" offset="0%"/><stop stop-color="#e4b16b" offset="100%"/></linearGradient><path d="M12.828.533L10.17.872h0c-2.339.347-4.397.795-6.051 1.338h0l-1.358.505h0l-.346.154h0c-.538.248-.983.503-1.338.763h0C.402 4.128.051 4.642.005 5.161h0c-.12 1.363 1.865 2.76 5.599 3.945h0l.357.111h0l1.928.533h0l.36.089h0l1.818.407h0l.363.074h0l4.551.761h0c9.246 1.278 19.84 1.294 27.633.247h0l.368-.051h0c.635-.089 1.25-.185 1.843-.288h0l.366-.066h0a41.48 41.48 0 0 0 1.964-.403h0l.365-.087h0c1.291-.314 2.422-.671 3.359-1.07h0c1.857-.791 2.746-1.659 2.762-2.539h0c.01-.543-.312-1.089-.943-1.625h0c-.336-.286-.761-.569-1.271-.847h0a13.75 13.75 0 0 0-1.027-.502h0C47.845 2.723 43.849 1.715 38.661.998h0C33.775.323 28.512 0 23.486 0h0c-3.772 0-7.41.182-10.658.533" id="AH"/><linearGradient x1="0.0204009824%" y1="49.554013%" x2="99.979734%" y2="50.446009%" id="AI"><stop stop-color="#e8c36d" offset="0%"/><stop stop-color="#e4b16b" offset="100%"/></linearGradient><path d="M2.762 2.714C1.103 3.421.217 4.189.036 4.972h0c-.02.083-.031.167-.035.25h0c-.035.842.731 1.695 2.212 2.502h0c2.439 1.329 6.82 2.533 12.765 3.355h0c13.287 1.836 29.36 1.067 35.899-1.717h0l.346-.154h0c1.568-.724 2.348-1.508 2.411-2.303h0l.004-.103a1.41 1.41 0 0 0-.01-.168h0c-.266-2.159-5.726-4.36-14.969-5.637h0C33.775.323 28.512 0 23.485 0h0C14.842 0 6.897.954 2.762 2.714" id="AJ"/><linearGradient x1="99.9779705%" y1="50.4459894%" x2="0.0203178159%" y2="49.5539927%" id="AK"><stop stop-color="#e8c36d" offset="0%"/><stop stop-color="#e4b16b" offset="100%"/></linearGradient><path d="M0 .083l.227 3.164.365-.087h0L.365 0 0 .083z" id="AL"/><linearGradient x1="47.9965665%" y1="49.5646249%" x2="52.0026841%" y2="50.4350215%" id="AM"><stop stop-color="#e8c36d" offset="0%"/><stop stop-color="#e4b16b" offset="100%"/></linearGradient><path d="M0 .062l.229 3.185.366-.066h0L.367 0 0 .062z" id="AN"/><linearGradient x1="47.9752312%" y1="49.5623315%" x2="52.0241207%" y2="50.4380344%" id="AO"><stop stop-color="#e8c36d" offset="0%"/><stop stop-color="#e4b16b" offset="100%"/></linearGradient><path d="M0 3.137l.357.111h0L.846.108.488 0 0 3.137z" id="AP"/><linearGradient x1="47.0931131%" y1="49.5585526%" x2="52.9051589%" y2="50.4429418%" id="AQ"><stop stop-color="#e8c36d" offset="0%"/><stop stop-color="#e4b16b" offset="100%"/></linearGradient><path d="M0 3.158l.36.089h0L.852.086.492 0 0 3.158z" id="AR"/><linearGradient x1="47.0528292%" y1="49.5550208%" x2="52.9460775%" y2="50.4450617%" id="AS"><stop stop-color="#e8c36d" offset="0%"/><stop stop-color="#e4b16b" offset="100%"/></linearGradient><path d="M0 .093l.153 3.435 2.312-.094L2.32.167A1.4 1.4 0 0 0 2.295 0h0L0 .093z" id="AT"/><linearGradient x1="24.3346208%" y1="48.5533932%" x2="75.6641033%" y2="51.4657726%" id="AU"><stop stop-color="#e8c36d" offset="0%"/><stop stop-color="#e4b16b" offset="100%"/></linearGradient><path d="M.014.092C.002.177-.002.261.001.345h0l.142 3.184 2.312-.094L2.31.167C2.305.111 2.296.056 2.285 0h0L.014.092z" id="AV"/><linearGradient x1="24.6643922%" y1="48.572716%" x2="75.4640117%" y2="51.4666398%" id="AW"><stop stop-color="#e8c36d" offset="0%"/><stop stop-color="#e4b16b" offset="100%"/></linearGradient><path d="M12.383 1.732l-2.62.546h0c-2.301.529-4.314 1.137-5.915 1.808h0l-1.31.61h0l-.331.18h0c-.515.289-.936.579-1.268.866h0C.307 6.289.001 6.829 0 7.35h0c-.003 1.368 2.096 2.604 5.918 3.493h0l.365.083h0l1.967.38h0l.366.06h0l1.846.263h0l.368.045h0l4.6.401h0c9.324.548 19.885-.266 27.561-1.92h0l.362-.079h0a55.53 55.53 0 0 0 1.813-.432h0l.359-.094h0c.674-.178 1.316-.363 1.923-.556h0l.357-.115h0c1.26-.415 2.357-.859 3.256-1.33h0c1.783-.934 2.594-1.868 2.535-2.747h0c-.037-.542-.404-1.061-1.079-1.546h0c-.36-.258-.807-.507-1.339-.744h0a13.87 13.87 0 0 0-1.067-.419h0C47.47 1.169 43.4.478 38.168.17h0C36.214.055 34.204 0 32.178 0h0c-6.91 0-14.011.641-19.795 1.732" id="AX"/><linearGradient x1="0.167324937%" y1="49.5488547%" x2="99.8327506%" y2="50.451195%" id="AY"><stop stop-color="#e8c36d" offset="0%"/><stop stop-color="#e4b16b" offset="100%"/></linearGradient><path d="M2.538 4.696C.945 5.53.128 6.364.014 7.16h0c-.013.085-.017.169-.013.252h0c.037.842.874 1.632 2.419 2.32h0c2.545 1.134 7.014 1.99 13.01 2.343h0c13.4.788 29.352-1.239 35.631-4.526h0l.332-.18h0c1.501-.845 2.211-1.687 2.206-2.485h0l-.004-.103a1.4 1.4 0 0 0-.025-.167h0C53.119 2.484 47.489.718 38.168.17h0C36.215.055 34.206 0 32.181 0h0C20.322 0 7.901 1.888 2.538 4.696" id="AZ"/><linearGradient x1="99.8328462%" y1="50.4511735%" x2="0.167329811%" y2="49.5488149%" id="Aa"><stop stop-color="#e8c36d" offset="0%"/><stop stop-color="#e4b16b" offset="100%"/></linearGradient><path d="M.36 0l.5 3.153-.359.094L0 .091.36 0z" id="Ab"/><linearGradient x1="45.9987887%" y1="49.4012298%" x2="54.0001843%" y2="50.5977872%" id="Ac"><stop stop-color="#e8c36d" offset="0%"/><stop stop-color="#e4b16b" offset="100%"/></linearGradient><path d="M.362 0l.503 3.167-.362.079L0 .077.362 0z" id="Ad"/><linearGradient x1="45.9528528%" y1="49.397875%" x2="54.0465101%" y2="50.6016003%" id="Ae"><stop stop-color="#e8c36d" offset="0%"/><stop stop-color="#e4b16b" offset="100%"/></linearGradient><path d="M0 3.186l.366.06h0L.586.057.219 0 0 3.186z" id="Af"/><linearGradient x1="48.7185855%" y1="49.7201643%" x2="51.2807923%" y2="50.282981%" id="Ag"><stop stop-color="#e8c36d" offset="0%"/><stop stop-color="#e4b16b" offset="100%"/></linearGradient><path d="M0 3.202l.368.045h0L.588.043.22 0 0 3.202z" id="Ah"/><linearGradient x1="48.7116458%" y1="49.7183706%" x2="51.2882134%" y2="50.2822752%" id="Ai"><stop stop-color="#e8c36d" offset="0%"/><stop stop-color="#e4b16b" offset="100%"/></linearGradient><path id="Aj" d="M0 0h44.82v44.657H0z"/><path d="M17.897.037C12.812.35 8.154 2.618 4.781 6.422h0C1.407 10.226-.277 15.111.037 20.177h0a18.85 18.85 0 0 0 6.408 13.068h0a18.99 18.99 0 0 0 13.806 4.726h0c5.085-.313 9.743-2.581 13.116-6.385h0c3.373-3.804 5.058-8.689 4.743-13.755h0a18.85 18.85 0 0 0-6.408-13.068h0A18.97 18.97 0 0 0 19.1 0h0a19.62 19.62 0 0 0-1.203.037" id="Ak"/><linearGradient x1="-2.1807912e-05%" y1="50.0001059%" x2="99.999916%" y2="50.0001059%" id="Al"><stop stop-color="#e8c36d" offset="0%"/><stop stop-color="#e4b16b" offset="100%"/></linearGradient><path id="Am" d="M62.781 145.178l-1.735 6.569-9.312-3.111 2.148-6.431z"/><path id="An" d="M71.727 44.263s-9.176 3.719-6.09 15.366c.978 3.692 2.925 6.737 2.925 6.737L67.409 94.21l-15.56 49.136 16.926 4.069 16.179-53.731 2.188-41.138-15.415-8.281z"/><path id="Ao" d="M82.946 150.691l-.151 6.793-9.781-.849.586-6.755z"/><path id="Ap" d="M66.57 48.172s-5.679 2.59-2.807 12.775c1.037 3.676 4.493 7.407 4.493 7.407l5.79 29.391-3.2 53.258h17.409l2.728-57.872-3.84-40.586-20.572-4.372z"/><path id="Aq" d="M79.971 26.628l6.759.782 1.413-13.63-4.631-1.331z"/><path id="Ar" d="M141.761 21.966l1.752-.475c.623-.245 1.328.061 1.574.685l.01.024c.245.624-.061 1.328-.685 1.574l-2.26.75-2.603.912c-.758.985-4.076 2.154-11.332 4.736-4.637 1.65-16.999 10.388-24.561 12.402-6.686 1.781-25.601-1.683-25.601-1.683s-2.362-1.615-1.14-5.55c1.374-4.424 3.935-3.786 3.935-3.786s9.25 3.263 21.111.051c8.18-2.215 15.175-7.163 21.093-9.011 2.703-.845 6.576-5.357 8.069-5.75l6.421-1.482 3.978-.97c.624-.245 1.329.061 1.574.685l.009.024c.246.624-.061 1.329-.685 1.574l-5.036 1.627"/><path id="As" d="M137.385 18.302l5.578-1.822c.624-.246 1.328.061 1.574.685l.01.024c.245.623-.061 1.328-.685 1.574l-5.769 1.99"/><path id="At" d="M138.092 20.752l5.25-1.788c.624-.245 1.328.061 1.574.685l.009.024c.245.624-.061 1.328-.685 1.574l-5.108 1.482"/><path id="Au" d="M10.054 42.708l.328.061 2.781.516c.226.042.326.109.226.155-.898.402-1.12.772-1.088 1.085.006.055.19.112.43.136l2.237.214c.287.027.537-.005.532-.071-.022-.268.106-.679 1.232-1.098 1.586-.59 4.056-.465 5.684-.163 2.116.393 2.412.872 2.085 1.81-.413 1.106.632 1.897 4.254 2.568 3.125.58 7.128.725 9.934.126a1.76 1.76 0 0 1 .597.013l3.446.639c.237.044.526.043.646-.001l.864-.321c.12-.045.025-.116-.212-.16l-3.267-.606c-.23-.043-.325-.112-.221-.157.947-.41 1.385-.919 1.215-1.334-.021-.052-.196-.105-.419-.127l-2.256-.225c-.298-.03-.559.005-.54.074.118.426-.226.906-1.269 1.294-1.462.544-4.12.602-6.44.172-2.238-.415-2.818-.97-2.515-1.764.474-1.083-.101-1.912-3.641-2.569-3.272-.607-6.921-.647-9.424-.112-.142.031-.391.025-.597-.013l-1.601-.297-1.723-.319c-.237-.044-.526-.043-.646.001l-.843.313c-.12.045-.025.116.212.16"/></defs><g fill="none" fill-rule="evenodd"><path d="M180.953 59c-49.688 0-90.214 40.527-90.214 90.215 0 10.161 1.529 17.745 4.052 26.184.579 1.937.224 3.859-1.011 5.461s-3.002 2.436-5.023 2.369c-8.568-.282-17.175.703-25.452 2.955C26.825 196.107 0 229.465 0 269.089c0 45.373 35.175 72.526 79.742 75.688 1.537.145 3.092.223 4.665.223h1.504 477.052c42.209 0 76.634-24.425 76.634-66.634s-34.425-76.634-76.634-76.634c-2.703 0-5.405.144-8.094.429-20.43 2.17-37.175-.759-39.671-24.564-2.58-24.387-23.321-43.033-47.845-43.033-10.249 0-20.142 3.207-28.404 9.278-64.065 46.857-137.777 17.039-185.189-47.785C237.322 73.619 210.792 59 180.953 59z" fill="url(#A)"/><g transform="translate(131)"><g class="C K"><path opacity=".2" stroke-dasharray="489.238,19.57,48.924,29.354,58.708" d="M358.027 286.348H0"/><path opacity=".2" stroke-dasharray="97.848,19.57,48.924,29.354,58.708" d="M376.585 286.348h81.639"/></g><g transform="translate(34.87 119.274)"><path opacity=".2" d="M407.584 180.329H79.731" class="C K"/><g transform="translate(5.949 180.078)"><mask id="Av" class="B"><use xlink:href="#B"/></mask><path mask="url(#Av)" d="M56.448.327H0" class="C K"/></g><path d="M354.816 166.819s-18.675-67.725-3.53-67.169 18.485 47.068 3.53 67.169" fill="#4eda97"/><g class="C G"><path d="M354.816 166.819s-18.675-67.725-3.53-67.169 18.485 47.068 3.53 67.169z"/><path d="M354.816 166.819s4.862-47.312-3.53-67.169"/></g><path d="M356.207 139.249l7.743-17.662" class="L"/><path d="M356.207 139.249l7.743-17.662" class="C G"/><path d="M345.444 116.305l10.367 7.569" class="L"/><path d="M345.444 116.305l10.367 7.569" class="C G"/><path d="M355.146 148.607l-6.376-7.82" class="L"/><path d="M355.146 148.607l-6.376-7.82" class="C G"/><path d="M353.556 166.607s-49.727-23.783-38.017-33.374 38.709 12.934 38.017 33.374" class="E"/><g class="C G"><path d="M353.556 166.607s-49.727-23.783-38.017-33.374 38.709 12.934 38.017 33.374z"/><path d="M353.556 166.607s-21.239-28.305-38.017-33.374"/></g><path d="M340.093 151.054l-3.46-14.437" class="E"/><path d="M340.093 151.054l-3.46-14.437" class="C G"/><path d="M319.903 145.893l11.799-2.747" class="E"/><path d="M319.903 145.893l11.799-2.747" class="C G"/><path d="M344.218 156.892l-8.922.013" class="E"/><path d="M344.218 156.892l-8.922.013" class="C G"/><path d="M359.46 164.885s35.723-41.979 41.996-28.204-22.415 34.106-41.996 28.204" fill="#354362"/><g class="G"><path d="M359.46 164.885s35.723-41.979 41.996-28.204-22.415 34.106-41.996 28.204z" class="C"/><g stroke="#fefefe"><path d="M359.46 164.885s32.8-13.283 41.996-28.204m-23.515 19.173l14.841.351m-4.681-18.547l-.366 12.109"/><path d="M371.411 158.391l2.276-8.627"/></g></g><use xlink:href="#Am" class="F"/><use xlink:href="#Am" class="C D"/><path d="M61.644 149.957s8.373 4.414 12.15 6.049 1.977 8.854-.216 9.153l-24.025-7.955a1.68 1.68 0 0 1-.911-2.33l4.179-9.495s4.923 6.33 8.822 4.577" class="E"/><path d="M61.644 149.957s8.373 4.414 12.15 6.049 1.977 8.854-.216 9.153l-24.025-7.955a1.68 1.68 0 0 1-.911-2.33l4.179-9.495s4.923 6.33 8.822 4.577z" class="C D"/><path d="M73.656 163.093l-23.596-7.884" class="E"/><path d="M73.656 163.093l-23.596-7.884" class="C D"/><use xlink:href="#An" fill="#2c6ab3"/><use xlink:href="#An" class="C D"/><path d="M90.839 21.793s8.753-5.938 19.078-10.145c13.544-5.519 28.427-9.69 30.848-11.082 5.233-3.008 7.266 6.839 7.588 9.606.179 1.533-3.512 1.655-6.275 2.277-1.008.228-.453-2.18-2.869-1.805-4.233.658-12.532 4.387-18.146 6.6-10.409 4.102-20.185 11.024-20.185 11.024s-2.315 2.173-5.719-.969c-3.027-2.794-4.32-5.506-4.32-5.506" class="F"/><path d="M90.839 21.793s8.753-5.938 19.078-10.145c13.544-5.519 28.427-9.69 30.848-11.082 5.233-3.008 7.266 6.839 7.588 9.606.179 1.533-3.512 1.655-6.275 2.277-1.008.228-.453-2.18-2.869-1.805-4.233.658-12.532 4.387-18.146 6.6-10.409 4.102-20.185 11.024-20.185 11.024s-2.315 2.173-5.719-.969c-3.027-2.794-4.32-5.506-4.32-5.506z" class="C D"/><use xlink:href="#Ao" class="F"/><use xlink:href="#Ao" class="C D"/><path d="M82.958 155.603s9.173 2.335 13.228 3.042 3.991 8.146 1.93 8.95l-25.219-2.119a1.68 1.68 0 0 1-1.43-2.053l1.843-10.208s6.267 5.003 9.648 2.388" class="E"/><path d="M82.958 155.603s9.173 2.335 13.228 3.042 3.991 8.146 1.93 8.95l-25.219-2.119a1.68 1.68 0 0 1-1.43-2.053l1.843-10.208s6.267 5.003 9.648 2.388z" class="C D"/><path d="M97.707 165.569l-24.786-2.15" class="E"/><path d="M97.707 165.569l-24.786-2.15" class="C D"/><use xlink:href="#Ap" fill="#2c6ab3"/><use xlink:href="#Ap" class="C D"/><use xlink:href="#Aq" class="F"/><use xlink:href="#Aq" class="C D"/><path d="M90.881 8.909c.214.414.016.838.008 1.317-.004.26-.542.363-.556.822-.016.489.728 1.053.63 1.619-.039.229-.698.268-.756.493-.155.594-.113 2.071-.437 2.496-1.255 1.651-5.101-.451-5.541-1.557-.424-1.065-1.073-3.405-.762-4.49.438-1.533.597-2.847 2.684-2.533 1.523.229 3.391-.753 4.731 1.833" class="F"/><path d="M90.881 8.909c.214.414.016.838.008 1.317-.004.26-.542.363-.556.822-.016.489.728 1.053.63 1.619-.039.229-.698.268-.756.493-.155.594-.113 2.071-.437 2.496-1.255 1.651-5.101-.451-5.541-1.557-.424-1.065-1.073-3.405-.762-4.49.438-1.533.597-2.847 2.684-2.533 1.523.229 3.391-.753 4.731 1.833z" class="C D"/><path d="M83.449 12.814s.911-.772 2.181-2.103c1.544-1.617 1.238-2.926 1.913-2.733s2.857 1.012 3.312.552-.285-1.799-2.778-2.034-3.882-.139-4.705 1.596-.553 4.125.076 4.722" fill="#231916"/><path d="M85.705 9.62s-1.009-.262-1.12.283.687 1.899 1.3 1.826c0 0-.216-.958-.179-2.109" class="F"/><path d="M85.705 9.62s-1.009-.262-1.12.283.687 1.899 1.3 1.826c0 0-.216-.958-.179-2.109z" class="C D"/><path d="M80.277 22.558s5.422 2.556 7.267.77c0 0 3.295-1.536 6.407-3.473 1.669-1.039 6.927 8.413 6.927 8.413-.907 1.867-10.063 7.568-10.063 7.568l-1.671 15.058a1.74 1.74 0 0 1-2.002 1.65L67.324 48.53c-.895-.136-1.463-1.029-1.208-1.897l3.922-13.355s-6.703-14.398 10.239-10.719" class="E"/><g class="C D"><path d="M80.277 22.558s5.422 2.556 7.267.77c0 0 3.295-1.536 6.407-3.473 1.669-1.039 6.927 8.413 6.927 8.413-.907 1.867-10.063 7.568-10.063 7.568l-1.671 15.058a1.74 1.74 0 0 1-2.002 1.65L67.324 48.53c-.895-.136-1.463-1.029-1.208-1.897l3.922-13.355s-6.703-14.398 10.239-10.719z"/><path d="M87.544 23.328s6.91 4.289 3.808 13.61"/></g><path d="M78.054 40.89s-5.342-2.18-8.017-7.613" class="E"/><path d="M78.054 40.89s-5.342-2.18-8.017-7.613" class="C D"/><path d="M80.85 31.555s-2.156-1.568-2.195-3.654" class="E"/><path d="M80.85 31.555s-2.156-1.568-2.195-3.654" class="C D"/><use xlink:href="#Ar" class="F"/><use xlink:href="#Ar" class="C D"/><use xlink:href="#As" class="F"/><use xlink:href="#As" class="C D"/><use xlink:href="#At" class="F"/><use xlink:href="#At" class="C D"/></g><g transform="translate(5.612)"><mask id="Aw" class="B"><use xlink:href="#C"/></mask><path d="M327.05 52.189l-29.58 8.046-37.246-15.914c-.764-.392-1.661-.436-2.46-.119l-26.553 10.53a2.97 2.97 0 0 0-1.113.772l-19.612 21.698a2.98 2.98 0 0 0-.645 1.148l-5.365 18.004c-1.753 5.881 3.512 11.455 9.483 10.041l.104-.025a9.19 9.19 0 0 0 5.91-4.472l9.561-17.182a2.98 2.98 0 0 1 1.698-1.39l11.857-3.786c3.047-.972 9.11 5.698 6.75 7.855l-3.382 5.075c1.768.473-5.662.454-6.212.555l-8.468-1.002c-4.962.9-6.956 3.862-6.613 8.893l.503 1.682c.843 1.502 3.868 2.467 3.868 2.467l8.272 2.7c9.61 2.465 12.198.825 12.38.818l27.355-4.328c.462-.017 4.647-.507 5.069-.317l7.519.346 25.428-3.196c1.715.777 12.957 2.214 13.379.379 0 0-.669-48.655-1.884-49.278" mask="url(#Aw)" class="E"/><mask id="Ax" class="B"><use xlink:href="#D"/></mask><path d="M327.05 52.189l-29.58 8.046-37.246-15.914c-.764-.392-1.661-.436-2.46-.119l-26.553 10.53a2.97 2.97 0 0 0-1.113.772l-19.612 21.698a2.98 2.98 0 0 0-.645 1.148l-5.365 18.004c-1.753 5.881 3.512 11.455 9.483 10.041l.104-.025a9.19 9.19 0 0 0 5.91-4.472l9.561-17.182a2.98 2.98 0 0 1 1.698-1.39l11.857-3.786c3.047-.972 9.11 5.698 6.75 7.855l-3.382 5.075c1.768.473-5.662.454-6.212.555l-8.468-1.002c-4.962.9-6.956 3.862-6.613 8.893l.503 1.682c.843 1.502 3.868 2.467 3.868 2.467l8.272 2.7c9.61 2.465 12.198.825 12.38.818l27.355-4.328c.462-.017 4.647-.507 5.069-.317l7.519.346 25.428-3.196c1.715.777 12.957 2.214 13.379.379 0 0-.669-48.655-1.884-49.278z" mask="url(#Ax)" class="C J"/><mask id="Ay" class="B"><use xlink:href="#F" href="#C"/></mask><path d="M225.539 97.509l7.653 2.097c.966.238 1.556 1.214 1.319 2.18l-.809 4.642-6.733-2.28s-3.801-2.51-1.43-6.639" mask="url(#Ay)" class="E"/><mask id="Az" class="B"><use xlink:href="#G" href="#D"/></mask><path d="M225.539 97.509l7.653 2.097c.966.238 1.556 1.214 1.319 2.18l-.809 4.642-6.733-2.28s-3.801-2.51-1.43-6.639z" mask="url(#Az)" class="C N"/><mask id="BA" class="B"><use xlink:href="#H" href="#D"/></mask><path fill="#354362" mask="url(#BA)" d="M491.377 4.802L308.898 52.233l11.407 60.005 195.819-34.247z"/><mask id="BB" class="B"><use xlink:href="#I" href="#D"/></mask><path mask="url(#BB)" d="M491.377 4.802L308.898 52.233l11.407 60.005 195.819-34.247z" class="C J"/><mask id="BC" class="B"><use xlink:href="#J" href="#C"/></mask><path d="M246.095 145.521c-14.003 26.13-46.537 35.961-72.667 21.958s-35.961-46.537-21.958-72.667 46.536-35.961 72.666-21.958 35.961 46.536 21.958 72.666" fill="#f4d86b" mask="url(#BC)"/><mask id="BD" class="B"><use xlink:href="#K" href="#D"/></mask><path d="M246.095 145.521c-14.003 26.13-46.537 35.961-72.667 21.958s-35.961-46.537-21.958-72.667 46.536-35.961 72.666-21.958 35.961 46.536 21.958 72.666z" mask="url(#BD)" class="C M"/><mask id="BE" class="B"><use xlink:href="#L" href="#D"/></mask><path d="M240.2 142.362c-12.258 22.874-40.738 31.48-63.612 19.222s-31.48-40.738-19.222-63.612 40.738-31.48 63.612-19.222 31.48 40.738 19.222 63.612z" mask="url(#BE)" class="C M"/><mask id="BF" class="B"><use xlink:href="#M" href="#C"/></mask><path d="M213.036 101.519l10.789 3.683 7.362-8.197-42.562-14.529-7.361 8.196 11.705 3.996c1.429.516 7.414 3.005 7.998 8.653l-17.428-5.95-7.361 8.197 21.116 7.208c-7.039 6.432-20.953-.533-20.953-.533l-3.026 8.865 13.894 33.411 15.656 5.015-14.506-33.298s15.385 3.466 22.16-8.945l8.22 2.806 7.361-8.196-12.704-4.337c.227-2.335.065-4.335-.361-6.046" mask="url(#BF)" class="E"/><mask id="BG" class="B"><use xlink:href="#N" href="#D"/></mask><path d="M213.036 101.519l10.789 3.683 7.362-8.197-42.562-14.529-7.361 8.196 11.705 3.996c1.429.516 7.414 3.005 7.998 8.653l-17.428-5.95-7.361 8.197 21.116 7.208c-7.039 6.432-20.953-.533-20.953-.533l-3.026 8.865 13.894 33.411 15.656 5.015-14.506-33.298s15.385 3.466 22.16-8.945l8.22 2.806 7.361-8.196-12.704-4.337c.227-2.335.065-4.335-.361-6.046z" mask="url(#BG)" class="C M"/><mask id="BH" class="B"><use xlink:href="#O" href="#C"/></mask><path d="M249.838 87.396l-3.382 5.075c1.768.473-5.662.455-6.212.556l-8.468-1.003c-4.962.9-6.956 3.862-6.613 8.893l.503 1.683c.843 1.502 3.868 2.466 3.868 2.466l8.272 2.7c9.61 2.465 12.198.825 12.38.818l27.355-4.329" mask="url(#BH)" class="E"/><path d="M249.838 87.396l-3.382 5.075c1.768.473-5.662.455-6.212.556l-8.468-1.003c-4.962.9-6.956 3.862-6.613 8.893l.503 1.683c.843 1.502 3.868 2.466 3.868 2.466l8.272 2.7c9.61 2.465 12.198.825 12.38.818l27.355-4.329" mask="url(#BH)" class="C J"/><mask id="BI" class="B"><use xlink:href="#P" href="#C"/></mask><path d="M225.539 97.509l7.653 2.097c.966.238 1.556 1.214 1.319 2.18l-.809 4.642-6.733-2.28s-3.801-2.51-1.43-6.639" mask="url(#BI)" class="E"/><mask id="BJ" class="B"><use xlink:href="#Q" href="#D"/></mask><path d="M225.539 97.509l7.653 2.097c.966.238 1.556 1.214 1.319 2.18l-.809 4.642-6.733-2.28s-3.801-2.51-1.43-6.639z" mask="url(#BJ)" class="C N"/><mask id="BK" class="B"><use xlink:href="#R" href="#D"/></mask><path mask="url(#BK)" d="M308.945 53.267l-9.377 1.748 11.001 56.291 9.123-1.507z" class="E"/><mask id="BL" class="B"><use xlink:href="#S" href="#D"/></mask><path stroke-width="1.241" mask="url(#BL)" d="M308.945 53.267l-9.377 1.748 11.001 56.291 9.123-1.507z" class="C"/><mask id="BM" class="B"><use xlink:href="#T" href="#C"/></mask><path d="M171.02 141.24l1.752-.475c.623-.245 1.328.061 1.574.685l.01.024c.245.624-.061 1.328-.685 1.574l-2.26.75-2.603.912c-.758.985-4.076 2.154-11.332 4.736-4.637 1.65-16.999 10.388-24.561 12.402-6.686 1.781-25.601-1.683-25.601-1.683s-2.362-1.615-1.14-5.55c1.374-4.424 3.935-3.786 3.935-3.786s9.25 3.263 21.111.051c8.18-2.215 15.175-7.163 21.093-9.011 2.703-.845 6.576-5.357 8.069-5.75l6.421-1.482 3.978-.97c.624-.245 1.329.061 1.574.685l.009.024c.246.624-.061 1.329-.685 1.574l-5.036 1.627" mask="url(#BM)" class="F"/><path d="M171.02 141.24l1.752-.475c.623-.245 1.328.061 1.574.685l.01.024c.245.624-.061 1.328-.685 1.574l-2.26.75-2.603.912c-.758.985-4.076 2.154-11.332 4.736-4.637 1.65-16.999 10.388-24.561 12.402-6.686 1.781-25.601-1.683-25.601-1.683s-2.362-1.615-1.14-5.55c1.374-4.424 3.935-3.786 3.935-3.786s9.25 3.263 21.111.051c8.18-2.215 15.175-7.163 21.093-9.011 2.703-.845 6.576-5.357 8.069-5.75l6.421-1.482 3.978-.97c.624-.245 1.329.061 1.574.685l.009.024c.246.624-.061 1.329-.685 1.574l-5.036 1.627" mask="url(#BM)" class="C D"/><mask id="BN" class="B"><use xlink:href="#U" href="#C"/></mask><path d="M166.643 137.577l5.578-1.822c.624-.246 1.328.061 1.574.685l.01.024c.245.623-.061 1.328-.685 1.574l-5.769 1.99" mask="url(#BN)" class="F"/><path d="M166.643 137.577l5.578-1.822c.624-.246 1.328.061 1.574.685l.01.024c.245.623-.061 1.328-.685 1.574l-5.769 1.99" mask="url(#BN)" class="C D"/><mask id="BO" class="B"><use xlink:href="#V" href="#C"/></mask><path d="M167.351 140.026l5.25-1.788c.624-.245 1.328.061 1.574.685l.009.024c.245.624-.061 1.328-.685 1.574l-5.108 1.482" mask="url(#BO)" class="F"/><path d="M167.351 140.026l5.25-1.788c.624-.245 1.328.061 1.574.685l.009.024c.245.624-.061 1.328-.685 1.574l-5.108 1.482" mask="url(#BO)" class="C D"/><mask id="BP" class="B"><use xlink:href="#W" href="#C"/></mask><path d="M250.367 86.036h0c3.266-.436 3.656-9.332 3.656-9.332" mask="url(#BP)" class="C J"/></g><g transform="translate(231.71 231.484)"><g transform="translate(51.197 47.093)"><mask id="BQ" class="B"><use xlink:href="#E"/></mask><path d="M0 3.425l2.305.194.299-3.258a1.39 1.39 0 0 0-.002-.169h0L.315 0 0 3.425z" fill="url(#F)" mask="url(#BQ)"/></g><g transform="translate(.013 43.163)"><mask id="BR" class="B"><use xlink:href="#G"/></mask><path d="M.292.248L0 3.423l2.305.194.299-3.258c.003-.056.002-.112-.002-.169h0L.339 0a1.31 1.31 0 0 0-.047.248" fill="url(#H)" mask="url(#BR)"/></g><g transform="translate(0 42.39)"><mask id="BS" class="B"><use xlink:href="#I"/></mask><path d="M13.054.163l-2.672.216h0C8.028.618 5.95.971 4.271 1.437h0l-1.381.442h0l-.353.137h0c-.549.223-1.007.458-1.375.701h0c-.7.464-1.077.962-1.149 1.478h0c-.189 1.356 1.725 2.842 5.394 4.197h0l.351.128h0l1.899.62h0l.355.105h0l1.795.49h0l.358.09h0l4.507.969h0c9.171 1.701 19.752 2.203 27.589 1.516h0l.37-.034h0c.639-.059 1.258-.127 1.856-.203h0l.369-.049h0c.693-.093 1.354-.197 1.982-.312h0l.369-.07h0c1.306-.255 2.453-.559 3.409-.914h0c1.895-.704 2.826-1.531 2.886-2.409h0c.037-.541-.257-1.102-.86-1.667h0c-.322-.301-.732-.603-1.227-.904h0c-.302-.183-.636-.367-1.001-.548h0c-2.495-1.244-6.436-2.434-11.582-3.389h0C32.308.604 25.068 0 18.611 0h0c-1.937 0-3.802.054-5.558.163" fill="url(#J)" mask="url(#BS)"/></g><g transform="translate(.299 39.154)"><mask id="BT" class="B"><use xlink:href="#K"/></mask><path d="M2.889 1.88C1.197 2.509.273 3.235.053 4.01h0a1.31 1.31 0 0 0-.047.248h0c-.077.84.645 1.727 2.084 2.601h0c2.369 1.44 6.684 2.843 12.582 3.937h0c13.18 2.444 29.272 2.414 35.944-.066h0c.122-.045.24-.091.354-.137h0c1.603-.651 2.421-1.398 2.524-2.19h0l.009-.102c.003-.056.002-.112-.002-.169h0C53.343 5.963 48 3.514 38.833 1.814h0C32.308.604 25.067 0 18.61 0h0C12.026 0 6.258.627 2.889 1.88" fill="url(#L)" mask="url(#BT)"/></g><path d="M16.987 49.17c11.332 2.101 25.205 2.081 30.926-.046 1.112-.413 2.42-1.1 2.341-2.023-.118-1.368-3.458-3.559-12.48-5.232-11.332-2.101-25.205-2.081-30.926.046-1.112.413-2.42 1.1-2.341 2.023.118 1.368 3.458 3.559 12.48 5.232m17.412 2.024c-5.596 0-11.861-.521-17.497-1.566-7.873-1.46-12.68-3.572-12.86-5.65-.084-.975.805-1.817 2.643-2.5 5.788-2.152 19.772-2.182 31.173-.068 7.873 1.46 12.68 3.572 12.86 5.65.084.975-.805 1.817-2.642 2.5-2.927 1.088-7.951 1.634-13.677 1.634" class="I"/><use xlink:href="#Au" class="H"/><g transform="translate(46.77 50.867)"><mask id="BU" class="B"><use xlink:href="#M"/></mask><path d="M0 .066l.078 3.171.422-.07h0L.422 0 0 .066z" fill="url(#N)" mask="url(#BU)"/></g><g transform="translate(44.418 51.229)"><mask id="BV" class="B"><use xlink:href="#O"/></mask><path d="M0 .045l.078 3.192.422-.049h0L.422 0 0 .045z" fill="url(#P)" mask="url(#BV)"/></g><g transform="translate(5.407 47.673)"><mask id="BW" class="B"><use xlink:href="#Q"/></mask><path d="M0 3.111l.351.128h0L.997.124.645 0 0 3.111z" fill="url(#R)" mask="url(#BW)"/></g><g transform="translate(7.657 48.4)"><mask id="BX" class="B"><use xlink:href="#S"/></mask><path d="M0 3.132l.355.105h0L1.006.102.65 0 0 3.132z" fill="url(#T)" mask="url(#BX)"/></g><g transform="translate(54.921 43.47)"><mask id="BY" class="B"><use xlink:href="#U"/></mask><path d="M0 3.425l2.305.194.3-3.258c.003-.056.002-.112-.002-.169h0L.315 0 0 3.425z" fill="url(#V)" mask="url(#BY)"/></g><g transform="translate(3.736 39.54)"><mask id="BZ" class="B"><use xlink:href="#W"/></mask><path d="M.292.248L0 3.423l2.305.194.299-3.258c.003-.056.002-.112-.002-.169h0L.339 0C.315.082.3.165.292.248" fill="url(#X)" mask="url(#BZ)"/></g><g transform="translate(3.724 38.767)"><mask id="Ba" class="B"><use xlink:href="#Y"/></mask><path d="M13.054.163l-2.672.216h0C8.028.618 5.95.971 4.271 1.437h0l-1.381.442h0l-.353.138h0c-.549.223-1.007.458-1.375.701h0c-.7.464-1.077.962-1.149 1.478h0c-.189 1.356 1.725 2.842 5.394 4.197h0l.351.128h0l1.899.62h0l.355.105h0l1.795.49h0l.358.09h0l4.507.969h0c9.171 1.701 19.752 2.203 27.589 1.516h0l.37-.034h0c.639-.059 1.258-.127 1.856-.203h0l.369-.049h0a41.53 41.53 0 0 0 1.982-.312h0l.369-.07h0c1.306-.255 2.453-.559 3.409-.914h0c1.895-.705 2.826-1.531 2.886-2.409h0c.037-.541-.257-1.102-.86-1.667h0c-.322-.301-.732-.603-1.227-.904h0a13.59 13.59 0 0 0-1.001-.548h0c-2.495-1.244-6.436-2.434-11.582-3.389h0C32.308.604 25.068 0 18.612 0h0c-1.937 0-3.802.054-5.558.163" fill="url(#Z)" mask="url(#Ba)"/></g><g transform="translate(4.022 35.531)"><mask id="Bb" class="B"><use xlink:href="#a"/></mask><path d="M2.889 1.88C1.197 2.509.273 3.235.053 4.01h0c-.024.082-.039.165-.047.248h0c-.077.84.645 1.727 2.084 2.601h0c2.369 1.44 6.684 2.843 12.582 3.937h0c13.18 2.444 29.272 2.414 35.944-.066h0l.354-.137h0c1.603-.651 2.421-1.399 2.524-2.19h0l.009-.102a1.52 1.52 0 0 0-.002-.169h0C53.343 5.963 48 3.514 38.833 1.814h0C32.308.604 25.067 0 18.61 0h0C12.026 0 6.258.627 2.889 1.88" fill="url(#b)" mask="url(#Bb)"/></g><path d="M24.063 36.684c-5.656 0-10.609.537-13.492 1.609-1.112.413-2.42 1.1-2.341 2.023.118 1.368 3.458 3.559 12.48 5.232 5.62 1.042 11.868 1.562 17.434 1.563 5.656 0 10.609-.537 13.493-1.609 1.112-.413 2.42-1.1 2.341-2.023-.118-1.368-3.458-3.559-12.48-5.232-5.62-1.042-11.868-1.562-17.434-1.562m14.059 10.888c-5.596 0-11.862-.521-17.497-1.566-7.873-1.46-12.68-3.572-12.86-5.65-.084-.976.805-1.817 2.643-2.5 5.788-2.152 19.772-2.182 31.173-.068 7.873 1.46 12.68 3.572 12.86 5.65.084.976-.805 1.817-2.642 2.5-2.927 1.088-7.951 1.634-13.677 1.634" class="I"/><use xlink:href="#Au" x="3.723" y="-3.622" class="H"/><g transform="translate(50.494 47.244)"><mask id="Bc" class="B"><use xlink:href="#v" href="#M"/></mask><path d="M0 .066l.078 3.171.422-.07h0L.422 0 0 .066z" fill="url(#c)" mask="url(#Bc)"/></g><g transform="translate(48.142 47.606)"><mask id="Bd" class="B"><use xlink:href="#x" href="#O"/></mask><path d="M0 .045l.078 3.192.422-.049h0L.422 0 0 .045z" fill="url(#d)" mask="url(#Bd)"/></g><g transform="translate(9.13 44.05)"><mask id="Be" class="B"><use xlink:href="#z" href="#Q"/></mask><path d="M0 3.111l.351.128h0L.997.124.645 0 0 3.111z" fill="url(#e)" mask="url(#Be)"/></g><g transform="translate(11.38 44.777)"><mask id="Bf" class="B"><use xlink:href="#AB" href="#S"/></mask><path d="M0 3.132l.355.105h0L1.006.102.65 0 0 3.132z" fill="url(#f)" mask="url(#Bf)"/></g><g transform="translate(51.559 37.889)"><mask id="Bg" class="B"><use xlink:href="#AD" href="#U"/></mask><path d="M0 3.425l2.305.194.3-3.258c.003-.056.002-.112-.002-.169h0L.315 0 0 3.425z" fill="url(#g)" mask="url(#Bg)"/></g><g transform="translate(.374 33.959)"><mask id="Bh" class="B"><use xlink:href="#h"/></mask><path d="M.292.248L0 3.423l2.305.194.3-3.258c.003-.056.002-.112-.002-.169h0L.339 0C.315.082.299.165.292.248" fill="url(#i)" mask="url(#Bh)"/></g><g transform="translate(.362 33.186)"><mask id="Bi" class="B"><use xlink:href="#j"/></mask><path d="M13.054.163l-2.672.216h0C8.028.618 5.95.971 4.271 1.437h0l-1.381.442h0l-.353.137h0c-.549.223-1.007.458-1.375.701h0c-.7.464-1.077.962-1.149 1.478h0c-.189 1.356 1.725 2.842 5.394 4.197h0l.351.128h0l1.899.62h0l.355.105h0l1.795.49h0l.358.09h0l4.507.969h0c9.171 1.701 19.752 2.203 27.589 1.516h0l.37-.034h0a56.14 56.14 0 0 0 1.856-.203h0l.369-.049h0a41.53 41.53 0 0 0 1.982-.312h0l.369-.07h0c1.306-.255 2.453-.559 3.409-.914h0c1.895-.705 2.826-1.531 2.886-2.409h0c.037-.542-.257-1.102-.86-1.667h0c-.322-.301-.732-.603-1.227-.904h0c-.302-.183-.636-.367-1.001-.548h0c-2.495-1.244-6.436-2.434-11.582-3.389h0C32.308.604 25.068 0 18.612 0h0c-1.937 0-3.803.054-5.558.163" fill="url(#k)" mask="url(#Bi)"/></g><g transform="translate(.661 29.95)"><mask id="Bj" class="B"><use xlink:href="#AJ" href="#a"/></mask><path d="M2.889 1.88C1.197 2.509.273 3.235.053 4.01h0c-.024.082-.039.165-.047.248h0c-.077.84.645 1.727 2.084 2.601h0c2.369 1.44 6.684 2.843 12.582 3.937h0c13.18 2.444 29.272 2.414 35.944-.066h0l.354-.137h0c1.603-.651 2.421-1.399 2.524-2.19h0l.009-.102a1.52 1.52 0 0 0-.002-.169h0C53.343 5.963 48 3.514 38.833 1.814h0C32.308.604 25.067 0 18.61 0h0C12.026 0 6.258.627 2.889 1.88" fill="url(#l)" mask="url(#Bj)"/></g><path d="M20.701 31.103c-5.656 0-10.609.537-13.493 1.609-1.112.413-2.42 1.1-2.341 2.023.118 1.368 3.458 3.559 12.48 5.232 5.62 1.042 11.868 1.562 17.434 1.563 5.656 0 10.609-.537 13.493-1.609 1.112-.413 2.42-1.1 2.341-2.023-.118-1.368-3.458-3.559-12.48-5.232-5.62-1.042-11.868-1.562-17.434-1.562M34.76 41.991c-5.596 0-11.862-.521-17.497-1.566-7.873-1.46-12.68-3.572-12.86-5.65-.084-.976.805-1.817 2.642-2.5 5.788-2.152 19.772-2.182 31.173-.068 7.873 1.46 12.68 3.572 12.86 5.65.084.976-.805 1.817-2.643 2.5-2.927 1.088-7.951 1.634-13.676 1.634" class="I"/><path d="M10.415 33.505l.328.061 2.781.516c.226.042.326.109.226.155-.898.402-1.12.772-1.088 1.085.006.055.19.112.43.136l2.237.214c.287.027.537-.005.532-.071-.022-.268.106-.679 1.232-1.098 1.586-.59 4.056-.465 5.684-.163 2.116.393 2.412.872 2.085 1.81-.413 1.106.632 1.897 4.254 2.568 3.125.58 7.128.725 9.934.126.142-.031.391-.025.597.013l3.446.639c.237.044.526.043.646-.001l.864-.321c.12-.045.025-.116-.212-.16l-3.267-.606c-.23-.043-.325-.112-.221-.157.947-.41 1.385-.919 1.215-1.334-.021-.052-.196-.105-.419-.127l-2.256-.225c-.298-.03-.559.005-.54.074.118.426-.226.906-1.269 1.294-1.462.544-4.12.602-6.44.172-2.238-.415-2.818-.97-2.515-1.764.474-1.083-.101-1.912-3.641-2.569-3.272-.607-6.921-.647-9.424-.112-.142.031-.391.025-.597-.013l-1.601-.297-1.723-.319c-.237-.044-.526-.043-.646.001l-.843.313c-.12.045-.025.116.212.16" class="H"/><g transform="translate(47.132 41.663)"><mask id="Bk" class="B"><use xlink:href="#AL" href="#M"/></mask><path d="M0 .066l.078 3.171.422-.07h0L.422 0 0 .066z" fill="url(#m)" mask="url(#Bk)"/></g><g transform="translate(44.78 42.025)"><mask id="Bl" class="B"><use xlink:href="#AN" href="#O"/></mask><path d="M0 .045l.078 3.192.422-.049h0L.422 0 0 .045z" fill="url(#n)" mask="url(#Bl)"/></g><g transform="translate(5.768 38.469)"><mask id="Bm" class="B"><use xlink:href="#o"/></mask><path d="M0 3.111l.351.128h0L.997.124.646 0 0 3.111z" fill="url(#p)" mask="url(#Bm)"/></g><g transform="translate(8.018 39.196)"><mask id="Bn" class="B"><use xlink:href="#AR" href="#S"/></mask><path d="M0 3.132l.355.105h0L1.006.102.65 0 0 3.132z" fill="url(#q)" mask="url(#Bn)"/></g><g transform="translate(55.145 32.892)"><mask id="Bo" class="B"><use xlink:href="#r"/></mask><path d="M0 3.425l2.305.194.3-3.258a1.39 1.39 0 0 0-.002-.169h0L.315 0 0 3.425z" fill="url(#s)" mask="url(#Bo)"/></g><g transform="translate(3.961 28.962)"><mask id="Bp" class="B"><use xlink:href="#t"/></mask><path d="M.292.248L0 3.423l2.305.194.3-3.258A1.42 1.42 0 0 0 2.603.19h0L.339 0a1.32 1.32 0 0 0-.047.248" fill="url(#u)" mask="url(#Bp)"/></g><g transform="translate(3.948 28.189)"><mask id="Bq" class="B"><use xlink:href="#v"/></mask><path d="M13.054.163l-2.672.216h0C8.028.618 5.95.971 4.271 1.437h0l-1.381.442h0l-.353.137h0c-.55.223-1.007.458-1.375.701h0c-.7.464-1.077.962-1.149 1.478h0c-.189 1.356 1.725 2.842 5.394 4.197h0l.351.128h0l1.899.62h0l.355.105h0l1.795.49h0l.358.09h0l4.507.969h0c9.171 1.701 19.752 2.203 27.589 1.516h0l.37-.034h0c.639-.059 1.258-.127 1.856-.203h0l.369-.049h0a41.42 41.42 0 0 0 1.982-.312h0l.369-.07h0c1.306-.255 2.453-.559 3.409-.914h0c1.895-.705 2.826-1.531 2.886-2.409h0c.037-.541-.257-1.102-.86-1.667h0c-.322-.301-.732-.603-1.227-.904h0c-.302-.183-.636-.366-1.001-.548h0c-2.495-1.244-6.436-2.434-11.582-3.389h0C32.308.604 25.068 0 18.612 0h0c-1.937 0-3.803.054-5.558.163" fill="url(#w)" mask="url(#Bq)"/></g><g transform="translate(4.247 24.953)"><mask id="Br" class="B"><use xlink:href="#x"/></mask><path d="M2.889 1.88C1.197 2.509.273 3.235.053 4.01h0a1.32 1.32 0 0 0-.047.248h0c-.077.84.645 1.727 2.084 2.601h0c2.369 1.44 6.684 2.843 12.582 3.937h0c13.18 2.444 29.272 2.414 35.944-.066h0c.122-.045.24-.091.354-.137h0c1.603-.651 2.421-1.398 2.524-2.19h0l.009-.102c.003-.056.002-.112-.002-.169h0C53.343 5.963 48 3.514 38.833 1.814h0C32.308.604 25.067 0 18.61 0h0C12.026 0 6.258.627 2.889 1.88" fill="url(#y)" mask="url(#Br)"/></g><path d="M24.288 26.106c-5.656 0-10.609.537-13.493 1.609-1.112.413-2.42 1.1-2.341 2.023.118 1.368 3.458 3.559 12.48 5.232 11.332 2.101 25.205 2.081 30.926-.046 1.112-.413 2.42-1.1 2.341-2.023-.118-1.368-3.458-3.559-12.48-5.232-5.62-1.042-11.868-1.563-17.434-1.563m14.059 10.888c-5.596 0-11.862-.521-17.497-1.566-7.873-1.46-12.68-3.572-12.86-5.65-.084-.976.805-1.817 2.642-2.5 5.788-2.152 19.772-2.182 31.173-.068 7.873 1.46 12.68 3.572 12.86 5.65.084.976-.805 1.817-2.642 2.5-2.927 1.088-7.951 1.634-13.676 1.634" class="I"/><path d="M14.002 28.508l.328.061 2.781.516c.226.042.326.109.226.155-.898.402-1.12.772-1.088 1.085.006.055.19.112.43.136l2.237.214c.287.027.537-.005.532-.071-.022-.268.106-.679 1.232-1.098 1.586-.59 4.056-.465 5.683-.163 2.116.393 2.412.872 2.085 1.81-.413 1.106.632 1.897 4.254 2.568 3.125.58 7.128.725 9.934.126.142-.031.391-.025.597.013l3.446.639c.237.044.526.043.646-.001l.864-.321c.12-.045.025-.116-.212-.16l-3.267-.606c-.23-.043-.325-.112-.221-.157.947-.41 1.385-.919 1.215-1.334-.021-.052-.196-.105-.419-.127l-2.256-.225c-.298-.03-.559.005-.54.074.118.426-.226.906-1.269 1.294-1.462.544-4.12.602-6.44.172-2.238-.415-2.818-.971-2.515-1.764.474-1.083-.101-1.912-3.641-2.569-3.272-.607-6.921-.647-9.424-.112-.142.031-.391.025-.597-.013l-1.601-.297-1.723-.319c-.237-.044-.526-.043-.646.001l-.843.313c-.12.045-.025.116.212.16" class="H"/><g transform="translate(50.718 36.666)"><mask id="Bs" class="B"><use xlink:href="#Ab" href="#M"/></mask><path d="M0 .066l.078 3.171.422-.07h0L.422 0 0 .066z" fill="url(#z)" mask="url(#Bs)"/></g><g transform="translate(48.366 37.028)"><mask id="Bt" class="B"><use xlink:href="#Ad" href="#O"/></mask><path d="M0 .045l.078 3.192.422-.049h0L.422 0 0 .045z" fill="url(#AA)" mask="url(#Bt)"/></g><g transform="translate(9.355 33.472)"><mask id="Bu" class="B"><use xlink:href="#Af" href="#Q"/></mask><path d="M0 3.111l.351.128h0L.997.124.645 0 0 3.111z" fill="url(#AB)" mask="url(#Bu)"/></g><g transform="translate(11.605 34.199)"><mask id="Bv" class="B"><use xlink:href="#Ah" href="#S"/></mask><path d="M0 3.132l.355.105h0L1.006.102.65 0 0 3.132z" fill="url(#AC)" mask="url(#Bv)"/></g><g transform="translate(55.158 25.994)"><mask id="Bw" class="B"><use xlink:href="#AD"/></mask><path d="M0 3.436l2.312.088.135-3.268c0-.056-.004-.112-.01-.168h0L.142 0 0 3.436z" fill="url(#AE)" mask="url(#Bw)"/></g><g transform="translate(3.835 24.419)"><mask id="Bx" class="B"><use xlink:href="#AF"/></mask><path d="M.132.25L0 3.435l2.312.088.136-3.268a1.39 1.39 0 0 0-.01-.168h0L.167 0C.147.083.136.167.132.25" fill="url(#AG)" mask="url(#Bx)"/></g><g transform="translate(3.83 22.693)"><mask id="By" class="B"><use xlink:href="#AH"/></mask><path d="M12.828.533L10.17.872h0c-2.339.347-4.397.795-6.051 1.338h0l-1.358.505h0l-.346.154h0c-.538.248-.983.503-1.338.763h0C.402 4.128.051 4.642.005 5.161h0c-.12 1.363 1.865 2.76 5.599 3.945h0l.357.111h0l1.928.533h0l.36.089h0l1.818.407h0l.363.074h0l4.551.761h0c9.246 1.278 19.84 1.294 27.633.247h0l.368-.051h0c.635-.089 1.25-.185 1.843-.288h0l.366-.066h0a41.48 41.48 0 0 0 1.964-.403h0l.365-.087h0c1.291-.314 2.422-.671 3.359-1.07h0c1.857-.791 2.746-1.659 2.762-2.539h0c.01-.543-.312-1.089-.943-1.625h0c-.336-.286-.761-.569-1.271-.847h0a13.75 13.75 0 0 0-1.027-.502h0C47.845 2.723 43.849 1.715 38.661.998h0C33.775.323 28.512 0 23.486 0h0c-3.772 0-7.41.182-10.658.533" fill="url(#AI)" mask="url(#By)"/></g><g transform="translate(3.966 19.447)"><mask id="Bz" class="B"><use xlink:href="#AJ"/></mask><path d="M2.762 2.714C1.103 3.421.217 4.189.036 4.972h0c-.02.083-.031.167-.035.25h0c-.035.842.731 1.695 2.212 2.502h0c2.439 1.329 6.82 2.533 12.765 3.355h0c13.287 1.836 29.36 1.067 35.899-1.717h0l.346-.154h0c1.568-.724 2.348-1.508 2.411-2.303h0l.004-.103a1.41 1.41 0 0 0-.01-.168h0c-.266-2.159-5.726-4.36-14.969-5.637h0C33.775.323 28.512 0 23.485 0h0C14.842 0 6.897.954 2.762 2.714" fill="url(#AK)" mask="url(#Bz)"/></g><path d="M20.92 29.655c11.424 1.579 25.281.921 30.888-1.467 1.088-.463 2.358-1.207 2.236-2.123-.182-1.362-3.625-3.399-12.73-4.658-11.424-1.578-25.28-.921-30.888 1.467-1.087.463-2.358 1.207-2.236 2.123.182 1.362 3.625 3.399 12.73 4.658m13.046 1.322c-4.349 0-8.895-.278-13.11-.861-7.945-1.098-12.852-2.988-13.128-5.058-.129-.969.717-1.848 2.515-2.614 5.673-2.415 19.639-3.088 31.134-1.499 7.945 1.098 12.853 2.988 13.129 5.058.129.969-.717 1.848-2.515 2.614-3.593 1.529-10.513 2.36-18.024 2.36" class="I"/><path d="M13.669 23.519l.33.046 2.804.387c.228.031.331.094.234.144-.876.442-1.08.823-1.033 1.134.008.054.196.103.437.116l2.245.111c.288.014.536-.03.528-.095-.035-.266.071-.683 1.175-1.154 1.555-.662 4.028-.65 5.669-.424 2.133.295 2.453.76 2.173 1.712-.357 1.124.727 1.866 4.378 2.37 3.151.435 7.156.397 9.929-.33.141-.037.39-.043.597-.015l3.474.48c.239.033.528.019.645-.031l.847-.36c.117-.05.019-.117-.22-.151l-3.293-.455c-.231-.032-.331-.097-.229-.147.925-.453 1.338-.981 1.146-1.388-.024-.051-.201-.096-.425-.108l-2.265-.121c-.299-.016-.558.031-.536.099.139.42-.18.916-1.203 1.351-1.433.611-4.085.791-6.423.468-2.257-.312-2.864-.84-2.601-1.646.419-1.103-.197-1.906-3.766-2.399-3.299-.456-6.945-.329-9.418.321-.141.037-.39.043-.597.015l-1.614-.223-1.737-.24c-.239-.033-.528-.019-.646.031l-.826.351c-.117.05-.019.117.22.151" class="H"/><g transform="translate(50.757 29.965)"><mask id="CA" class="B"><use xlink:href="#AL"/></mask><path d="M0 .083l.227 3.164.365-.087h0L.365 0 0 .083z" fill="url(#AM)" mask="url(#CA)"/></g><g transform="translate(48.425 30.434)"><mask id="CB" class="B"><use xlink:href="#AN"/></mask><path d="M0 .062l.229 3.185.366-.066h0L.367 0 0 .062z" fill="url(#AO)" mask="url(#CB)"/></g><g transform="translate(9.434 28.662)"><mask id="CC" class="B"><use xlink:href="#AP"/></mask><path d="M0 3.137l.357.111h0L.846.108.488 0 0 3.137z" fill="url(#AQ)" mask="url(#CC)"/></g><g transform="translate(11.719 29.284)"><mask id="CD" class="B"><use xlink:href="#AR"/></mask><path d="M0 3.158l.36.089h0L.852.086.492 0 0 3.158z" fill="url(#AS)" mask="url(#CD)"/></g><g transform="translate(51.647 20.789)"><mask id="CE" class="B"><use xlink:href="#AT"/></mask><path d="M0 .093l.153 3.435 2.312-.094L2.32.167A1.4 1.4 0 0 0 2.295 0h0L0 .093z" fill="url(#AU)" mask="url(#CE)"/></g><g transform="translate(.372 23.242)"><mask id="CF" class="B"><use xlink:href="#AV"/></mask><path d="M.014.092C.002.177-.002.261.001.345h0l.142 3.184 2.312-.094L2.31.167C2.305.111 2.296.056 2.285 0h0L.014.092z" fill="url(#AW)" mask="url(#CF)"/></g><g transform="translate(.515 19.421)"><mask id="CG" class="B"><use xlink:href="#AX"/></mask><path d="M12.383 1.732l-2.62.546h0c-2.301.529-4.314 1.137-5.915 1.808h0l-1.31.61h0l-.331.18h0c-.515.289-.936.579-1.268.866h0C.307 6.289.001 6.829 0 7.35h0c-.003 1.368 2.096 2.604 5.918 3.493h0l.365.083h0l1.967.38h0l.366.06h0l1.846.263h0l.368.045h0l4.6.401h0c9.324.548 19.885-.266 27.561-1.92h0l.362-.079h0a55.53 55.53 0 0 0 1.813-.432h0l.359-.094h0c.674-.178 1.316-.363 1.923-.556h0l.357-.115h0c1.26-.415 2.357-.859 3.256-1.33h0c1.783-.934 2.594-1.868 2.535-2.747h0c-.037-.542-.404-1.061-1.079-1.546h0c-.36-.258-.807-.507-1.339-.744h0a13.87 13.87 0 0 0-1.067-.419h0C47.47 1.169 43.4.478 38.168.17h0C36.214.055 34.204 0 32.178 0h0c-6.91 0-14.011.641-19.795 1.732" fill="url(#AY)" mask="url(#CG)"/></g><g transform="translate(.372 16.175)"><mask id="CH" class="B"><use xlink:href="#AZ"/></mask><path d="M2.538 4.696C.945 5.53.128 6.364.014 7.16h0c-.013.085-.017.169-.013.252h0c.037.842.874 1.632 2.419 2.32h0c2.545 1.134 7.014 1.99 13.01 2.343h0c13.4.788 29.352-1.239 35.631-4.526h0l.332-.18h0c1.501-.845 2.211-1.687 2.206-2.485h0l-.004-.103a1.4 1.4 0 0 0-.025-.167h0C53.119 2.484 47.489.718 38.168.17h0C36.215.055 34.206 0 32.181 0h0C20.322 0 7.901 1.888 2.538 4.696" fill="url(#Aa)" mask="url(#CH)"/></g><g transform="translate(4.121 16.796)"><path d="M13.578 10.43c11.521.677 25.274-1.065 30.658-3.883 1.04-.545 2.24-1.383 2.046-2.284-.29-1.346-3.891-3.11-13.09-3.651C21.671-.066 7.918 1.676 2.534 4.495 1.494 5.04.294 5.878.488 6.779c.29 1.346 3.891 3.11 13.09 3.651m5.13.612a88.17 88.17 0 0 1-5.158-.146C5.525 10.424.472 8.921.032 6.877c-.205-.953.564-1.893 2.286-2.795C7.765 1.23 21.627-.535 33.22.146c8.025.472 13.079 1.974 13.518 4.019.205.953-.564 1.893-2.286 2.795-4.656 2.438-15.463 4.082-25.744 4.082" class="I"/><path d="M5.824 4.883l.333.02 2.828.166c.23.013.338.068.245.125-.836.51-1.006.905-.932 1.211.013.054.204.088.445.081l2.247-.065c.288-.009.532-.072.518-.136-.058-.263.012-.687 1.072-1.242 1.493-.781 3.958-.964 5.613-.867 2.151.127 2.51.565 2.313 1.536-.26 1.148.884 1.802 4.567 2.019 3.177.187 7.166-.166 9.867-1.107.137-.048.385-.074.593-.062l3.504.206c.241.014.528-.022.641-.082l.813-.425c.113-.06.009-.119-.232-.133l-3.321-.195c-.233-.014-.338-.07-.24-.128.883-.524 1.249-1.083 1.024-1.474-.028-.049-.208-.08-.433-.074l-2.268.057c-.299.007-.554.075-.526.141.175.408-.101.927-1.083 1.44-1.376.721-4.004 1.108-6.362.97-2.276-.134-2.926-.613-2.733-1.437.323-1.132-.359-1.884-3.959-2.096-3.327-.195-6.95.217-9.359 1.058-.137.048-.385.074-.594.062l-1.627-.095-1.751-.103c-.241-.014-.528.022-.641.081l-.793.415c-.113.059-.009.119.232.133" opacity=".55" class="H"/><g transform="translate(41.06 9.022)"><mask id="CI" class="B"><use xlink:href="#Ab"/></mask><path d="M0 .091l.501 3.156.359-.094L.36 0 0 .091z" fill="url(#Ac)" mask="url(#CI)"/></g><g transform="translate(38.884 9.533)"><mask id="CJ" class="B"><use xlink:href="#Ad"/></mask><path d="M0 .077l.503 3.169.362-.079L.362 0 0 .077z" fill="url(#Ae)" mask="url(#CJ)"/></g></g><g transform="translate(8.765 27.539)"><mask id="CK" class="B"><use xlink:href="#Af"/></mask><path d="M0 3.186l.366.06h0L.586.057.219 0 0 3.186z" fill="url(#Ag)" mask="url(#CK)"/></g><g transform="translate(10.978 27.848)"><mask id="CL" class="B"><use xlink:href="#Ah"/></mask><path d="M0 3.202l.368.045h0L.588.043.22 0 0 3.202z" fill="url(#Ai)" mask="url(#CL)"/></g><g transform="translate(13.105)"><path opacity=".42" d="M1.42 21.248l26.293 1.353-1.164.757L0 21.865z" class="H"/><g transform="translate(48.831)"><mask id="CM" class="B"><use xlink:href="#Aj"/></mask><path d="M44.777 20.95c.764 12.308-8.631 22.902-20.984 23.663S.807 36.014.043 23.706 8.674.804 21.027.043s22.986 8.599 23.75 20.907" mask="url(#CM)" class="I"/></g></g><g transform="translate(65.273 3.324)"><mask id="CN" class="B"><use xlink:href="#Ak"/></mask><path d="M17.897.037C12.812.35 8.154 2.618 4.781 6.422h0C1.407 10.226-.277 15.111.037 20.177h0a18.85 18.85 0 0 0 6.408 13.068h0a18.99 18.99 0 0 0 13.806 4.726h0c5.085-.313 9.743-2.581 13.116-6.385h0c3.373-3.804 5.058-8.689 4.743-13.755h0a18.85 18.85 0 0 0-6.408-13.068h0A18.97 18.97 0 0 0 19.1 0h0a19.62 19.62 0 0 0-1.203.037" fill="url(#Al)" mask="url(#CN)"/></g><path d="M86.07 34.925c-.413 0-.804-.172-1.083-.473l-8.252-8.888a1.48 1.48 0 0 1 1.083-2.484h4.083c1.418 0 2.703-.834 3.283-2.123h-6c-.817-.013-1.47-.688-1.453-1.504.013-.799.658-1.44 1.453-1.453h5.995a3.6 3.6 0 0 0-3.279-2.119h-4.083a1.48 1.48 0 0 1-1.478-1.478 1.48 1.48 0 0 1 1.478-1.478h12.88a1.48 1.48 0 0 1 1.478 1.478 1.48 1.48 0 0 1-1.478 1.478h-3.318a6.44 6.44 0 0 1 .907 2.119h2.415c.817.013 1.47.688 1.453 1.504-.013.799-.658 1.44-1.453 1.453h-2.411c-.692 2.974-3.339 5.08-6.391 5.084h-.688l5.944 6.404a1.48 1.48 0 0 1-.077 2.089 1.51 1.51 0 0 1-1.01.391z" class="H"/></g></g></g></svg>