<svg xmlns="http://www.w3.org/2000/svg" xmlns:xlink="http://www.w3.org/1999/xlink" width="643" height="324" xmlns:v="https://vecta.io/nano"><defs><linearGradient x1="50%" y1="90.1050333%" x2="50%" y2="8.96608975%" id="A"><stop stop-color="#efefff" stop-opacity=".2" offset="0%"/><stop stop-color="#f1e1dd" offset="100%"/></linearGradient><path id="B" d="M527.746 11.771c0 3.084-2.5 5.584-5.584 5.584s-5.584-2.5-5.584-5.584 2.5-5.584 5.584-5.584 5.584 2.5 5.584 5.584"/><path id="C" d="M291.364 218.058s11.762-2.406 12.029-1.47.535 4.277 0 4.812-11.628 2.941-12.029 1.738-.401-4.411-.401-4.411.535 4.01 1.337 4.143 10.425-1.069 10.559-1.871.267-3.876-.401-3.876-11.094.936-11.094.936"/><path id="D" d="M302.134 253.73a.31.31 0 0 0 .308-.308v-3.293a.31.31 0 0 0-.308-.309.31.31 0 0 0-.308.309v3.293a.31.31 0 0 0 .308.308"/><path id="E" d="M333.517 261.653a.31.31 0 0 0 .308-.308v-3.293a.31.31 0 0 0-.308-.308.31.31 0 0 0-.308.308v3.293a.31.31 0 0 0 .308.308"/></defs><g fill="none" fill-rule="evenodd"><path d="M180.953 37c-49.688 0-90.214 40.527-90.214 90.215 0 10.161 1.529 17.745 4.052 26.184.579 1.937.224 3.859-1.011 5.461s-3.002 2.436-5.023 2.369c-8.568-.282-17.175.703-25.452 2.955C26.825 174.107 0 207.465 0 247.089c0 45.373 35.175 72.526 79.742 75.688 1.537.145 3.092.223 4.665.223h1.504 477.052c42.209 0 76.634-24.425 76.634-66.634s-34.425-76.634-76.634-76.634c-2.703 0-5.405.144-8.094.429-20.43 2.17-37.175-.759-39.671-24.564-2.58-24.387-23.321-43.033-47.845-43.033-10.249 0-20.142 3.207-28.404 9.278-64.065 46.857-137.777 17.039-185.189-47.785C237.322 51.619 210.792 37 180.953 37z" fill="url(#A)"/><path d="M642.11 234.523c0 21.25-117.103 38.477-261.555 38.477S119 255.774 119 234.523s115.812-26.774 260.265-26.774 262.845 5.524 262.845 26.774" fill="#ececec"/><path d="M614.929 232.59c0 8.171-64.19 14.794-143.373 14.794s-143.373-6.623-143.373-14.794 64.19-14.794 143.373-14.794 143.373 6.623 143.373 14.794" fill="#dcdcdc"/><use xlink:href="#B" stroke="#f7b500" stroke-width="2"/><use xlink:href="#B" x="-326.015" y="-6.098" fill="#0091e4" opacity=".2"/><path d="M200.234 222.153c-1.082 0-44.061 2.783-41.897 8.658s114.249 27.519 130.173 26.436 109.273-27.401 98.325-30.146c-51.172-12.832-186.601-4.947-186.601-4.947" fill="#dcdcdc"/><path d="M241.493 74.914s-.857-29.275.172-30.039 19.312-1.878 19.418-.653.419 24.606.419 24.606l-20.009 6.086z" fill="#f1f1f1"/><path d="M252.322 71.62l9.179-2.792-.419-24.606c-.049-.568-4.012-.633-8.348-.463l-.21.096-.203 27.765z" fill="#d8d8d8"/><path fill="#8c0331" d="M171.703 133.376l36.793 1.815 49.587-61.749-32.478-11.628z"/><path d="M189.117 229.82l92.357 16.173c4.084-.234 82.382-13.822 82.149-16.272s-.971-99.333-2.022-103.418c-.57-2.215-29.004-39.964-46.964-54.799l-82.483-.067c-10.619 10.089-41.756 47.72-43.639 52.193-3.734 8.869.601 106.19.601 106.19" fill="#f1f1f1"/><path d="M241.472 71.444l-9.318-.007c-10.619 10.089-41.756 47.72-43.639 52.193-.607 1.442-1.001 5.224-1.234 10.545 2.555-2.397 40.464-37.914 44.339-38.947 4.01-1.069 48.943 41.041 48.943 41.041l10.534-14.444s-32.116-36.251-49.625-50.381" fill="#e8e8e8"/><path d="M314.637 71.504l-79.939 1.672c15.63 16.78 45.245 48.79 45.639 50.855.492 2.582.871 105.937.928 122.478 5.805-.561 82.588-14.368 82.357-16.789-.234-2.45-.971-99.333-2.022-103.417-.57-2.215-29.004-39.964-46.964-54.799" fill="#d8d8d8"/><path d="M291.498 137.998s-60.279-66.962-64.289-67.497-50.189 63.086-52.393 63.086c-2.673 0-5.346-.268-5.346-.268s52.393-73.244 56.002-74.447 92.089.401 96.366 2.138 56.804 64.824 56.804 68.7-87.144 8.287-87.144 8.287" fill="#cc234b"/><path d="M297.334 137.687c19.52-1.069 81.308-4.712 81.308-7.976 0-3.876-52.527-66.962-56.804-68.7-4.15-1.686-87.573-3.246-95.824-2.239l-.543.1s71.535 74.582 71.855 78.724l.008.09" fill="#af0b3a"/><path d="M250.101 226.747l-64.326-9.891.401 13.767c.083.991 22.455 4.812 22.455 4.812l41.47-8.687z" fill="#aa3b30"/><path d="M302.859 204.425c-1.604-2.406-2.406-50.121-1.203-51.324s44.106-6.817 45.31-4.545 1.737 47.849-.401 50.255c-1.828 2.057-42.439 7.514-43.706 5.614" fill="#b3b3b3"/><path d="M301.121 154.438s-.668 47.983 1.47 49.186 37.691-3.609 38.092-5.346 2.54-47.983-.535-48.517-38.627 2.673-39.028 4.678" fill="#f1f1f1"/><path d="M304.513 156.782s-.641 43.853 1.282 43.982 17.054-1.41 17.31-2.437.385-43.084-.513-43.34-17.054 1.026-18.08 1.795m21.052-1.923s-.257 15.13.641 15.387 11.668-.128 12.182-1.026.769-15.002-.641-15.13-12.182.769-12.182.769m.635 17.952s-.769 24.747-.128 25.004 11.412-.384 12.053-1.667 1.41-23.85.128-24.235-12.053.898-12.053.898" fill="#2f8ac2"/><path d="M321.704 160.051l-15.772 33.414s0 3.876.535 4.411 6.95-8.955 6.95-8.955l-1.203 5.48 2.54.535 7.485-29.405-.535-5.48zm6.149 9.223s6.549-13.633 7.084-13.767 2.005.668 2.005.668l-6.014 12.965-3.074.134zm5.613-2.54l4.277-8.955.268 2.406s-4.01 7.618-4.411 6.95-.134-.401-.134-.401m4.544 7.351l-11.361 21.251c0 .535.134 1.604.401 1.604s.936-.134.936-.134l10.425-20.45-.401-2.272z" fill="#479bdb"/><path d="M208.662 235.431l1.038-92.889c1.47-.268 43.974 1.203 44.241 2.941s-.134 96.099-.134 96.099l-40.097-7.084-5.048.933z" fill="#d8d8d8"/><path d="M215.313 144.413c-1.005.502-1.537 80.171-1.598 90.044l40.091 7.124.164-95.374c-9.306-1.275-37.757-2.245-38.657-1.795" fill="#cc234b"/><path d="M219.267 151.601s-1.58 25.004-.101 26.332 13.401 2.051 14.039.847c.925-1.743.952-18.585.952-18.585s-1.362 17.117-1.76 17.655-10.556.467-10.831-.734-.013-23.257.653-23.662 11.092-.204 11.366.73.564 4.675.564 4.675 1.029-6.422-.312-7.082-14.182-2.182-14.57-.175m-.336 31.545s-1.58 25.005-.101 26.332 13.401 2.051 14.039.847c.925-1.743.952-18.585.952-18.585s-1.362 17.117-1.76 17.655-10.556.467-10.831-.734-.013-23.257.653-23.662 11.092-.204 11.366.73.564 4.675.564 4.675 1.029-6.422-.312-7.082-14.182-2.182-14.57-.175m19.059-29.794s-1.58 25.005-.101 26.332 13.401 2.051 14.039.847c.925-1.744.952-18.585.952-18.585s-1.362 17.117-1.76 17.655-10.556.467-10.831-.734-.013-23.257.653-23.662 11.092-.204 11.366.73.564 4.675.564 4.675 1.029-6.422-.312-7.082-14.182-2.182-14.57-.175m-.469 31.945s-1.58 25.005-.101 26.332 13.401 2.051 14.039.847c.925-1.744.952-18.585.952-18.585s-1.362 17.117-1.76 17.655-10.556.467-10.831-.734-.013-23.257.653-23.662 11.092-.204 11.366.73.564 4.675.564 4.675 1.029-6.422-.312-7.082-14.182-2.183-14.57-.176" fill="#af0b3a"/><path d="M214.913 199.881l.134-8.955c.401 0 1.737-.134 1.871.134s0 8.955-.401 9.223-1.604.267-1.604-.401" fill="#ffb002"/><path d="M216.784 194.936c0-1.107-.898-2.005-2.005-2.005s-2.005.898-2.005 2.005.898 2.005 2.005 2.005 2.005-.898 2.005-2.005" fill="#ef9500"/><path d="M215.848 194.668a1.47 1.47 0 1 0-2.94 0 1.47 1.47 0 1 0 2.94 0" fill="#ffb002"/><path d="M215.714 198.277l-.267.802h.668l-.268-.802s.535-.134.401-.668-.936-.401-.936 0 .134.535.401.668" fill="#1a1a1a"/><path d="M282.782 231.112l80.596-14.674-.032-.597s2.866.613 2.866 1.015-10.158 5.079-10.158 5.079l-72.977 12.163-.296-2.986z" fill="#aa3b30"/><path fill="#891a1a" d="M283.478 231.691l-.401-.668-29.227-4.325v-.672l-2.967.774 1.827.984-1.042 2.17z"/><path d="M366.212 216.856c-.535-1.47-80.194 14.702-83.001 14.702-1.032 0-15.768-2.252-32.345-4.764v16.147l31.944 5.191c2.807 0 82.6-17.108 83.268-17.777s.668-12.029.134-13.499" fill="#aa3b30"/><path d="M283.106 248.106c5.969-.717 82.319-17.098 82.973-17.752.668-.668.668-12.029.134-13.499-.529-1.455-78.484 14.355-82.88 14.696l-.226 16.555m-94.54-31.807c.015.022-2.792.557-2.792.557l22.822 3.535.033 15.043 5.079-.936.134-15.37-5.213.668-20.014-3.041-.049-.456z" fill="#891a1a"/><path d="M247.866 106.472c1.428 9.174-4.09 17.65-12.326 18.932s-16.07-5.114-17.499-14.288 4.09-17.65 12.326-18.932 16.07 5.114 17.499 14.288" fill="#b3b3b3"/><path d="M247.935 106.764c1.249 8.021-3.576 15.433-10.778 16.554s-14.051-4.472-15.3-12.493 3.576-15.433 10.778-16.554 14.051 4.472 15.3 12.493" fill="#fff"/><path d="M245.639 107.261c.943 6.057-2.701 11.653-8.138 12.5s-10.61-3.377-11.553-9.434 2.7-11.653 8.138-12.5 10.611 3.377 11.554 9.434" fill="#2f8ac2"/><path d="M242.891 102.369s-10.31 15.69-10.759 15.54-1.793-.597-1.793-1.644 11.655-14.943 11.655-14.943l.897 1.046zm-10.311 7.62s7.995-9.19 7.247-9.787-2.807-1.914-3.57-1.405-5.097 10.072-5.097 10.072l1.42 1.12z" fill="#479bdb"/><g fill="#d1d1d1"><use xlink:href="#C"/><use xlink:href="#C" x="11.495" y="-6.415"/><use xlink:href="#C" x="56.27" y="-19.647"/></g><g fill="#e8e8e8"><path d="M267.675 196.051s-11.843-1.966-12.075-1.021-.375 4.294.179 4.809 11.73 2.504 12.086 1.288.237-4.423.237-4.423-.385 4.027-1.181 4.19-10.458-.68-10.621-1.476-.412-3.864.256-3.889 11.121.521 11.121.521m-60.683 13.233s-11.843-1.966-12.075-1.021-.375 4.294.179 4.809 11.73 2.504 12.086 1.287.237-4.423.237-4.423-.385 4.027-1.181 4.191-10.458-.68-10.621-1.476-.412-3.864.256-3.889 11.121.521 11.121.521"/><path d="M202.45 203.001s-11.843-1.966-12.076-1.021-.375 4.294.18 4.809 11.73 2.504 12.086 1.288.237-4.423.237-4.423-.385 4.027-1.181 4.19-10.458-.68-10.621-1.476-.412-3.864.256-3.889 11.121.521 11.121.521m11.89-70.389s-11.941-1.244-12.115-.287-.114 4.309.47 4.789 11.86 1.789 12.141.552-.032-4.428-.032-4.428-.14 4.043-.925 4.254-10.48-.044-10.691-.829-.645-3.832.02-3.897 11.131-.154 11.131-.154"/></g><g fill="#d1d1d1"><use xlink:href="#C" x="38.226" y="-78.857"/><use xlink:href="#C" x="-3.074" y="-45.71"/></g><g fill="#8c0331"><path d="M241.695 66.309c-2.064 0-5.206-.548-9.303-2.85-2.704-1.519-4.522-3.063-4.598-3.128-.14-.12-.157-.33-.037-.471s.331-.157.471-.037c.073.062 7.33 6.192 14.065 5.801 1.636-.094 2.77-.619 3.37-1.558 1.112-1.741.091-4.374.081-4.401-.068-.171.016-.365.188-.433s.365.016.433.188c.048.121 1.154 2.98-.139 5.007-.722 1.13-2.033 1.758-3.895 1.866-.2.012-.412.018-.637.018"/><path d="M259.471 71.388c-2.064 0-5.206-.548-9.303-2.85-2.704-1.519-4.522-3.063-4.598-3.128-.14-.12-.157-.33-.037-.471s.33-.157.471-.037c.073.062 7.33 6.192 14.065 5.801 1.636-.094 2.77-.619 3.37-1.558 1.112-1.741.091-4.375.081-4.401-.068-.171.016-.365.188-.433s.365.016.433.188c.048.121 1.154 2.98-.139 5.006-.722 1.131-2.033 1.759-3.895 1.866a10.65 10.65 0 0 1-.637.018m43.573-2.407c-2.064 0-5.206-.548-9.303-2.85-2.704-1.519-4.522-3.063-4.598-3.128-.14-.12-.157-.33-.037-.471s.331-.157.471-.037c.073.062 7.33 6.192 14.065 5.801 1.636-.094 2.77-.619 3.37-1.558 1.112-1.741.091-4.375.081-4.401-.068-.171.016-.365.188-.433s.365.016.433.188c.048.121 1.154 2.98-.139 5.007-.722 1.13-2.033 1.758-3.895 1.866a10.65 10.65 0 0 1-.637.018m-10.29 12.829c-2.064 0-5.206-.548-9.303-2.85-2.704-1.519-4.522-3.063-4.598-3.128-.14-.12-.157-.331-.037-.471s.331-.157.471-.037c.073.062 7.33 6.192 14.065 5.801 1.636-.094 2.77-.619 3.37-1.558 1.112-1.741.091-4.374.081-4.401-.068-.171.017-.365.188-.433s.365.016.433.188c.048.121 1.154 2.98-.139 5.006-.722 1.131-2.033 1.759-3.895 1.866a10.65 10.65 0 0 1-.637.018m45.19 11.287c-2.064 0-5.206-.548-9.303-2.85-2.704-1.519-4.522-3.063-4.598-3.128-.14-.12-.157-.33-.037-.471s.331-.157.471-.037c.073.062 7.33 6.192 14.065 5.801 1.637-.094 2.77-.619 3.371-1.558 1.112-1.741.091-4.375.081-4.401-.068-.171.016-.365.188-.433s.365.016.433.188c.048.121 1.154 2.98-.139 5.007-.722 1.13-2.033 1.758-3.895 1.866a10.65 10.65 0 0 1-.637.018m-9.089 16.441c-2.064 0-5.206-.548-9.303-2.85-2.704-1.519-4.522-3.063-4.598-3.128-.14-.12-.157-.33-.037-.471s.331-.157.471-.037c.073.062 7.33 6.192 14.065 5.801 1.637-.094 2.77-.619 3.371-1.558 1.112-1.741.091-4.375.081-4.401-.068-.171.016-.365.188-.433s.366.016.434.188c.048.121 1.154 2.98-.139 5.007-.722 1.13-2.033 1.758-3.895 1.866a11.04 11.04 0 0 1-.636.018m-9.638 19.849c-2.064 0-5.206-.548-9.303-2.85-2.704-1.519-4.522-3.063-4.598-3.128-.14-.12-.157-.33-.037-.471s.331-.157.471-.037c.073.062 7.33 6.192 14.065 5.801 1.636-.094 2.77-.619 3.37-1.558 1.112-1.741.091-4.375.081-4.401-.068-.171.016-.365.188-.433s.365.016.433.188c.048.121 1.154 2.98-.139 5.007-.722 1.13-2.033 1.758-3.895 1.866a11.08 11.08 0 0 1-.637.018"/><path d="M301.439 124.182c-2.064 0-5.206-.548-9.303-2.85-2.704-1.519-4.522-3.063-4.598-3.128-.14-.12-.157-.33-.037-.471s.331-.157.471-.037c.073.062 7.33 6.192 14.065 5.801 1.637-.094 2.77-.619 3.371-1.558 1.112-1.741.091-4.375.081-4.401-.068-.171.016-.365.188-.433s.365.016.433.188c.048.121 1.154 2.98-.139 5.007-.722 1.13-2.033 1.758-3.895 1.866a11.04 11.04 0 0 1-.636.018m54.264-6.551c-2.064 0-5.205-.548-9.303-2.85-2.704-1.519-4.522-3.063-4.598-3.128-.14-.12-.157-.33-.037-.471s.331-.157.471-.037c.073.062 7.33 6.192 14.065 5.801 1.636-.094 2.77-.619 3.37-1.558 1.112-1.741.091-4.375.081-4.401-.068-.171.016-.365.188-.433s.365.016.433.188c.048.121 1.154 2.98-.139 5.007-.722 1.13-2.033 1.758-3.895 1.866a10.65 10.65 0 0 1-.637.018m-69.578-23.08c-2.064 0-5.206-.548-9.303-2.85-2.704-1.519-4.522-3.063-4.598-3.128-.14-.12-.157-.33-.037-.471s.33-.157.471-.037c.073.062 7.33 6.192 14.065 5.801 1.636-.094 2.77-.619 3.37-1.558 1.112-1.741.091-4.375.081-4.401-.068-.171.017-.365.188-.433s.365.016.433.188c.048.121 1.154 2.98-.139 5.007-.722 1.13-2.033 1.758-3.895 1.866a10.65 10.65 0 0 1-.637.018"/></g><path d="M239.383 44.395s24.205.786 24.399-.127.792-9.824-.326-10.218-22.899-1.912-23.894.021-.992 10.028-.18 10.325" fill="#cc234b"/><path d="M263.457 34.049c-.451-.159-4.274-.502-8.736-.726l-.171 11.381c4.919.029 9.152-.057 9.233-.437.194-.913.792-9.823-.326-10.218" fill="#af0b3a"/><path d="M296.151 101.689s46.689-1.32 46.434-2.264-7.685-6.274-7.685-6.274-46.982-.282-46.771 1.434 8.022 7.104 8.022 7.104" fill="#000"/><path d="M342.585 99.425c-.255-.944-7.685-6.274-7.685-6.274s-46.981-.282-46.771 1.434c.058.474.673 1.134 1.532 1.841l44.92-1.508c.837.314 3.967 3.611 5.705 4.912 1.486-.139 2.334-.275 2.298-.405" fill="#8c0331"/><path d="M348.335 140.388a11.81 11.81 0 0 0 1.295 1.833c1.97 2.282 4.84 3.792 7.813 3.837 4.223.065 8.036-2.725 10.71-6.076 4.117-5.159 6.228-11.742 7.132-18.342s.683-13.299.62-19.963c-.055-5.952.018-11.913-.444-17.846-.197-2.528-.509-5.11-1.627-7.372-1.037-2.098-2.706-3.791-4.426-5.349-2.895-2.621-6.082-4.975-9.61-6.616-1.828-.85-3.746-1.508-5.724-1.87-1.731-.317-3.431-.013-4.964-.902-.54 3.509-.867 6.472-.978 8.888l-.673 6.081-.449 6.4-.673 11.841-.898 12.16c-.6 5.761-.526 13.016.225 21.762.331 3.855.714 8.13 2.673 11.533" fill="#af5a00"/><path d="M408.075 86.612l-.449-6.081-.674-6.081c-.75-4.905-1.498-8.85-2.245-11.84-2.694-10.026-6.813-16.746-12.347-20.161l-2.47-1.28-2.47-1.6c-4.149-2.687-8.492-3.941-13.235-4.141-5.656-.238-11.351-.115-17.019-.13-.51-.001-1.03-.001-1.513.19-1.304.516-1.932 2.2-2.386 3.715-.848 2.827-1.615 5.716-1.949 8.694-.168 1.496-.027 2.99-.151 4.473-.092 1.101-.748 1.987-.876 3.082 2.498 1.794 5.181 3.196 7.636 5.122 2.485 1.95 4.859 4.089 7.146 6.342 4.152 4.089 8.216 9.085 10.305 15.049 1.312.782 2.336 2.113 3.062 4.008 1.645 4.27 2.469 8.64 2.469 13.121l-.449 11.84v2.88c.148 1.28.148 2.35 0 3.2-.302 2.991-1.347 5.015-3.143 6.081-1.893 1.214-3.396 1.232-4.51.059a57.13 57.13 0 0 1-2.094 3.194c-3.33 4.732-7.252 8.845-11.332 12.677-2.06 1.935-4.166 3.803-6.281 5.659-.872.766-1.503 1.648-2.294 2.481-.891.939-1.884 1.563-2.371 2.927-.307.86-.348 1.821-.265 2.747.193 2.178 1.034 4.205 1.975 6.101.809 1.628 1.785 3.284 3.268 4.028.975.489 2.065.527 3.125.555 5.37.14 10.767.295 16.137.117 4.487-.148 8.979-.952 13.398-1.823 2.992-.425 5.388-1.92 7.184-4.481l1.796-2.56 1.796-2.56c.898-1.28 1.796-2.985 2.694-5.12 2.095-5.121 4.041-11.731 5.837-19.842 2.095-10.241 3.143-19.946 3.143-29.122l-.449-11.521zm47.371 1.28l2.694-22.722 1.122-12.161.898-11.84c.205-2.715.697-6.564-2.056-7.809-1.305-.59-2.81-.276-4.167-.287l-7.292-.047-6.126-.017c-.989-.002-1.98-.002-2.961.136-.988.138-1.958.414-2.941.592-.92.166-2.296-.098-3.043.627-.779.757-1.133 2.175-1.274 3.284l-.674 4.16-3.367 18.241-6.511 32.643-2.469 12.481-1.572 7.68-.898 3.84-.898 4.48-5.838 28.802-4.49 23.362-2.47 12.801-2.694 13.121-1.347 7.36-1.347 7.68c-.6 3.201-.975 7.041-1.122 11.521-.151.215-.224.855-.224 1.92.298 4.48 1.796 6.51 4.49 6.08l6.175-.082c1.663-.022 3.36.265 5.027.318 1.629.052 3.26.06 4.889.043l5.203-.12c1.159-.037 2.249.162 3.401.162h3.592c1.645 0 2.841-1.17 3.592-3.52l.224-.64.224-1.28.224-1.28.225-1.28 2.469-17.601 5.613-31.362.673-3.84a38.25 38.25 0 0 1 .673-3.52c1.046-4.265 3.592-16.211 7.633-35.843a204.16 204.16 0 0 0 1.347-8l.673-3.52.449-3.2 2.245-15.681 2.021-15.681z" fill="#d57300"/><path d="M456.201 223.52c-.121-.339 4.366-4.429 4.838-4.943l4.558-5.314c2.667-3.329 5.884-7.047 7.405-11.077 3.342-8.857 8.687-16.564 11.003-25.955 2.004-8.13 2.169-16.609 2.068-24.995-.122-10.069-.627-20.228-3.186-29.95-1.154-4.385-2.861-8.862-6.268-11.766-2.038-1.737-4.558-2.79-7.128-3.455-2.098-.543-4.351-.837-6.399-.119-1.996.7-3.135 2.224-3.68 4.228-.542 1.993-1.385 3.891-2.169 5.879-1.2 4.271-2.246 9.921-3.143 16.961-.449 3.84-.673 8.856-.673 15.041l-.225 7.68-.224 7.681c-.302 2.99-.449 6.08-.449 9.28l-.224 4.481v4.8c-.302 11.311-.151 19.951.449 25.922.557 5.582 1.713 10.784 3.449 15.62" fill="#af5a00"/><path d="M519.207 155.737v-7.68l-.225-4.481v-4.48l-.673-8.641c-.151-4.905-1.049-9.385-2.694-13.441-5.388-12.586-12.875-20.587-22.451-24.002-3.092-1.099-6.266-.807-9.479-.866l-10.593-.196c-.406-.007-.816-.014-1.211.096-.629.176-1.169.633-1.678 1.098-1.259 1.149-2.445 2.406-3.546 3.756-.596.73-1.174 1.501-1.542 2.413-.202.5-.338 1.049-.363 1.603-.013.294.072.606.053.889-.008.123-.145.497-.127.586.167.818 1.55 1.847 2.088 2.458 1.55 1.758 3.032 3.596 4.455 5.495 2.848 3.802 5.454 7.84 7.927 11.981l3.638 6.3c1.04-.12 2.253.169 3.641.87 2.842 1.07 4.34 3.415 4.49 7.04.747 4.695 1.196 9.495 1.347 14.401l.449 13.441c-.151 9.391-1.123 16.322-2.919 20.802-.978 3.782-2.803 6.262-5.471 7.444l-.779 1.8c-3.769 8.485-8.624 16.282-14.222 23.254-2.808 3.497-5.803 6.79-8.944 9.878-.529.52-1.392 1.08-1.577 1.913-.202.907.261 2.206.528 3.043.676 2.121 1.819 4.024 3.213 5.589.57.639 1.189 1.234 1.9 1.638.833.475 1.761.671 2.678.83 4.53.784 9.132.775 13.69.365 2.29-.206 4.573-.512 6.849-.87 1.909-.3 3.759-.542 5.583-1.282 6.806-2.761 11.492-8.869 14.736-16.161 3.89-8.746 6.883-19.307 8.98-31.682 1.645-13.866 2.392-25.602 2.245-35.203" fill="#d57300"/><path d="M479.145 146.872c-.212-6.913-.845-13.676-1.898-20.293-.213-5.108-2.324-8.413-6.327-9.921-6.54-3.304-10.336-.148-11.389 9.47l-.633 15.332v11.274l-.316 11.274.316 6.314.633 6.313c.207 2.107.207 4.51 0 7.215 0 1.508-.109 3.459-.317 5.862-.212 1.205-.212 2.557 0 4.058v4.058c.42 6.92 3.055 9.625 7.909 8.117 4.217-1.501 7.064-5.108 8.542-10.822 2.531-6.313 3.9-16.079 4.113-29.312l-.633-18.94zm24.048 8.865c.147 9.601-.6 21.336-2.246 35.203-2.098 12.376-5.09 22.936-8.98 31.682-3.894 9.175-9.58 14.831-17.062 16.961-9.731 3.2-19.683.535-29.86-8.001-1.947-2.13-3.445-4.48-4.49-7.04-1.947-5.12-3.22-10.666-3.817-16.641s-.751-14.611-.449-25.922v-4.8l.224-4.481c0-3.2.147-6.291.449-9.28l.224-7.681.224-7.68c0-6.185.224-11.201.673-15.041.898-7.04 1.943-12.69 3.143-16.961 4.041-10.241 8.83-16.426 14.369-18.561 2.245-1.065 4.714-2.026 7.409-2.881l3.592-.96 3.817-1.28c1.495-.64 3.739-.425 6.735.64 9.577 3.415 17.063 11.416 22.451 24.002 1.645 4.055 2.543 8.536 2.694 13.441.298 2.56.523 5.441.673 8.641v4.48l.225 4.481v7.68zm-95.641 78.406l-6.511-.32h-18.185c-2.694.43-4.192-1.6-4.49-6.081 0-1.065.074-1.705.224-1.92.147-4.481.523-8.321 1.122-11.521l1.347-7.68 1.347-7.361 2.694-13.121 2.47-12.801 4.49-23.362 5.838-28.802.898-4.481.898-3.84 1.572-7.68 2.469-12.481c1.796-9.811 3.964-20.691 6.511-32.642l3.367-18.241.674-4.161c.298-2.345 1.196-3.626 2.694-3.84l2.919-.32h2.919c4.188.855 9.503.75 15.94-.32 4.49-.85 6.286 1.815 5.388 8l-.898 11.841-1.122 12.161-2.694 22.721-2.021 15.681-2.245 15.681-.449 3.2-.673 3.52c-.449 2.99-.898 5.655-1.347 8.001l-7.633 35.842c-.302 1.28-.526 2.456-.673 3.52l-.674 3.841c-.6 2.99-2.469 13.441-5.613 31.362l-2.469 17.601-.225 1.28-.224 1.28-.224 1.28-.224.64c-.75 2.35-1.947 3.52-3.592 3.52h-3.592zm-57.67-132.548v9.12c0 6.76 1.067 13.172 3.199 19.252 1.655 6.419 4.854 8.106 9.597 5.066 2.843-1.686 4.498-4.892 4.976-9.626.234-1.345.234-3.04 0-5.066v-4.56l.711-18.745c0-7.093-1.305-14.012-3.91-20.772-1.422-3.713-3.554-6.08-6.398-7.093-3.793-1.345-6.042.507-6.753 5.574-.239 1.013-.355 2.873-.355 5.573v3.547l-.356 4.053c-.239 5.407-.594 9.967-1.066 13.679h.355zm42.628-3.462c0 9.175-1.049 18.881-3.143 29.122-1.796 8.11-3.743 14.721-5.837 19.841-.898 2.135-1.796 3.84-2.694 5.12l-1.796 2.56-1.796 2.56c-1.796 2.56-4.192 4.055-7.184 4.48-8.682 1.71-14.968 2.24-18.858 1.6-6.588-.85-11.527-5.121-14.818-12.801l-2.245-5.121-1.796-5.12c-1.347-3.841-2.246-7.681-2.694-11.521-.751-8.746-.825-16.001-.225-21.762l.898-12.16.673-11.841.449-6.4.673-6.08c.147-3.201.673-7.361 1.571-12.482 1.646-9.385 5.687-15.786 12.124-19.201 1.045-.64 2.767-1.385 5.164-2.24 2.841-1.065 4.862-1.49 6.062-1.28 5.686 0 10.475 1.39 14.369 4.16l2.469 1.6 2.47 1.28c5.536 3.415 9.654 10.135 12.347 20.161.748 2.99 1.495 6.935 2.246 11.84l.673 6.081.449 6.081.449 11.521z" fill="#ffb002"/><path d="M583.523 91.035c-1.83-7.319-12.818-12.018-20.137-13.115-2.677-.402-6.255-.776-10.247-.339 0 0-20.39.755-48.081 17.621l1.007 5.035s11.454-1.007 21.901-1.007c5.754 0 16.304 1.37 17.294 1.501l.011 1.892s.732 19.811 3.659 32.985c0 0 11.711 3.293 29.094.183 0 0 7.328-37.436 5.498-44.756" fill="#f1bd73"/><path fill="#e65653" d="M567.67 234.084l.658-13.185-2.686.268.417 12.648z"/><path d="M567.787 235.235c.475-.002.811-.48.637-.922-.261-.661-.933-1.53-2.641-2.081-3.064-.989-8.197-1.925-8.987-.949-.464.573-.77 1.52-.963 2.35a1.35 1.35 0 0 0 1.319 1.652l10.635-.051z" fill="#1a1a1a"/><path d="M557.323 233.441c-1.089-.269-1.052-1.083-.835-1.685a3.03 3.03 0 0 1 .308-.472c.779-.962 5.772-.067 8.85.905 3.651 1.881-6.607 1.677-8.323 1.252" fill="#2b2b2b"/><path fill="#f3735d" d="M587.891 224.581L578.043 215l-1.075 2.476 9.903 8.38z"/><path d="M588.953 225.039c.23-.416-.024-.942-.494-1.005-.704-.095-1.791.068-3.105 1.291-2.357 2.193-5.677 6.219-5.21 7.385.275.684.952 1.413 1.583 1.987a1.35 1.35 0 0 0 2.086-.346l5.141-9.311z" fill="#1a1a1a"/><path d="M582.285 233.3c-.766.819-1.458.391-1.878-.093a3 3 0 0 1-.262-.499c-.46-1.149 2.755-5.072 5.104-7.286 3.422-2.271-1.756 6.586-2.964 7.877" fill="#2b2b2b"/><g fill="#333"><path d="M560.455 128.058l4.391 98.078s2.511.94 4.391 0l8.418-98.444-17.2.366z"/><path d="M570.725 208.753l-1.486 17.383c-1.88.94-4.391 0-4.391 0l-1.14-25.469a321.88 321.88 0 0 0 7.018 8.086"/><path d="M572.166 129.888s-18.328 49.083-17.566 50.503 27.447 37.328 27.447 37.328-1.074 2.437-3.293 2.562l-35.498-38.426c-1.098-4.391 10.978-60.018 10.978-60.018l17.933 8.051z"/></g><path d="M551.904 132.782l9.257 10.826.646 14.592c-3.143 8.786-6.01 17.073-6.925 20.527-1.385 4.275-1.928 5.139-1.562 6.237 1.497 4.491 21.48 30.852 25.498 35.308-.022.001-.041.006-.063.007l-35.498-38.426c-.787-3.148 5.198-32.634 8.649-49.072" fill="#2b2b2b"/><path d="M554.253 179.88c.181-.09.401-.017.491.163 1.029 2.058 25.321 34.426 27.445 37.255a2.54 2.54 0 0 1-.291.751c-.055-.024-.105-.06-.143-.112L554.09 180.37c-.091-.181-.017-.401.163-.491m6.847-19.699l-.628-16.513-4.337-5.189c-.13-.155-.109-.386.045-.516s.386-.109.516.046l4.418 5.285a.37.37 0 0 1 .085.221l.563 14.811-.662 1.855" fill="#1a1a1a"/><path d="M505.923 96.336c-.415.228-.833.536-1.282.68l-1.739.501c-.572.159-1.252.173-1.757-.193-.478-.346-.999-.653-1.52-.928-.739-.391-1.551-.683-2.317-1.02-.326-.143-.663-.289-1.019-.3-.093-.003-.195.007-.262.071-.081.077-.085.21-.038.311s.135.177.221.247c.299.242 3.096 1.855 2.835 2.175-.026.033-.068.048-.107.062l-.95.345c-.153.055-.307.112-.431.216s-.212.266-.184.425c.06.336.518.584.822.634.343.058.693.006 1.039.036.235.021.467.081.682.176.417.186.786.39 1.244.468.535.091 1.082.315 1.576-.06s.935-.692 1.524-.927c1.248-.495 2.603-.65 3.933-.748a16.46 16.46 0 0 0-.036-1.846c-.024-.314.048-1.153-.318-1.284-.313-.113-.792.284-1.033.434l-.885.525" fill="#e85653"/><path d="M583.133 90.644l-12.876-2.994s-6.467-1.355-11.582 20.196l-12.419 8.767c.532 6.813 1.099 11.902 2.675 18.994h0s5.286 1.487 14.028 1.519h0a80.57 80.57 0 0 0 5.88-.195 84.12 84.12 0 0 0 3.018-.264l1.433-.163 1.543-.204.785-.114 1.596-.255.811-.142s3.856-19.701 5.275-33.314c.529-5.514.621-10.031-.167-11.832" fill="#eaad62"/><path d="M562.053 76.744s-3.077-.269-6.338.017c0 0-3.062 9.516 2.912 16.452 9.423-5.862 10.687-15.057 10.687-15.057-2.366-.672-4.649-1.027-7.261-1.411" fill="#f0f0f0"/><path d="M557.786 74.76s4.305-1.694 9.022-.378l-.879 3.431-8.17 1.671.027-4.724z" fill="#bbb"/><path d="M554.864 63.037s-4.567 2.658-5.614.262 4.383-5.35 4.383-5.35-4.819.089-4.255-2.381 5.163-4.054 10.566-2.336c0 0-1.79-2.886-.279-3.239s7.515 3.04 8.282 8.876c0 0 .469-1.68 1.244-1.453s2.243 4.677-2.883 9.537c0 0-3.413 1.727-5.446-.254s-5.998-3.661-5.998-3.661" fill="#cf1476"/><path d="M560.862 66.699c2.033 1.981 5.446.254 5.446.254 1.355-1.285 2.25-2.542 2.818-3.699-3.222 4.207-3.806-3.632-3.806-3.632s-.353 1.827-2.149 1.211-.695-4.224-.695-4.224-2.355 2.922-7.695 4.017c-4.285.878-3.224-.972-2.637-1.738-1.523 1.065-3.574 2.856-2.894 4.412 1.047 2.396 5.614-.262 5.614-.262s3.965 1.68 5.998 3.661" fill="#b8006b"/><path fill="#f5735d" d="M563.658 68.771l2.42 10.292-4.377 2.635-3.096-1.22.487-7.864z"/><path d="M558.843 76.656c1.172-.435 5.208-2.257 4.625-6.546l-4.379 2.57-.246 3.977z" fill="#e85653"/><path d="M554.853 62.236s-3.01 10.591 2.257 11.224 6.731-2.663 6.731-2.663 2.275 1.075 3.155-.689.686-4.592-2.764-3.671c0 0-3.369-6.416-9.379-4.2" fill="#f5735d"/><path d="M564.103 66.511a.33.33 0 0 1-.241-.151c-1.786-2.815-3.998-4.25-6.575-4.266-1.933-.012-3.368.82-3.383.828a.33.33 0 0 1-.338-.57c.064-.038 1.584-.925 3.693-.921 3.527.007 5.841 2.491 7.162 4.574a.33.33 0 0 1-.102.458c-.067.043-.144.058-.217.049" fill="#83004f"/><path d="M560.636 69.399s-2.719 1.07-4.14.452c0 0 1.265 4.213 4.14-.452" fill="#fff"/><path d="M566.805 74.811s2.972 6.03-3.506 12.436c0 0-1.267-3.873-2.553-4.31l-1.767 8.58.91-9.014s-1.725 1.279-2.167 3.424c0 0-3.406-5.174-.803-9.883l2.764 4.955 1.286.437 5.836-6.624z" fill="#d7d7d7"/><path d="M567.218 77.82s.017-3.006-.41-3.438c0 0-3.897 5.561-6.482 6.835 0 0 3.429 1.308 3.411 4.314 0 0 3.46-4.275 3.48-7.711m-9.431-3.06s-.024 4.295 2.54 6.457c0 0-2.152.847-2.597 3.421 0 0-2.967-6.889.056-9.878" fill="#f0f0f0"/><path fill="#d7d7d7" d="M505.309 95.454l-2.266 1.259.504 3.273 4.279-.504z"/><path d="M505.058 95.202l1.007 5.035s11.453-1.007 21.9-1.007c5.675 0 16.014 1.333 17.248 1.495.08.01.121-19.871 7.925-23.143 0 0-20.39.755-48.081 17.621" fill="#eaad62"/><path d="M547.179 86.153c-.131-.045-.275.025-.32.156-.006.018-.642 1.88-1.206 5.041a59.13 59.13 0 0 0-.878 9.317l.484.063.012 1.892.014.345c-.207-9.804 2.026-16.424 2.05-16.493.045-.131-.025-.275-.156-.32" fill="#d08736"/><path d="M529.088 116.979c-1.461-1.096-22.647-6.575-24.109-5.479s10.593 28.492 12.055 29.953 22.647 6.209 22.647 4.383-9.132-27.762-10.593-28.857" fill="#f1f1f1"/><path d="M537.821 125.866c-.011-.021-.025-.041-.046-.051-.031-.014-.066-.002-.098.01l-.98.415-.538.223c-.079.032-.395.218-.47.19-.662-.246-1.003-.775-1.44-1.29-.259-.305-.596-.529-.938-.73l-.535-.306-.254-.154c-.012-.008-.253-.119-.247-.099.154.547.388 1.068.637 1.579-.65.171-1.367.067-1.942-.282-.475-.288-.844-.726-1.316-1.019-.207-.128-.442-.229-.685-.219s-.493.156-.565.388.044.485.182.688c.237.348.546.646.902.87a2.22 2.22 0 0 0-.975-.268c-.073-.003-.149-.002-.216.028-.153.066-.217.259-.186.422s.133.303.235.434l.447.533c.049.055.417.375.163.396-.06.005-.119-.025-.18-.031-.142-.012-.265.12-.288.261s.032.283.101.407c.352.635 1.085 1.122 1.736 1.404.104.045.256.086.292.208l-.485.013c-.048.001-.097.003-.139.025-.123.067-.098.251-.033.375.166.313.475.532.809.649s.693.142 1.047.142c.485-.001.968-.046 1.45-.101.427-.048.857-.105 1.259-.257.463-.177.936-.478 1.304-.81.348-.313.798-.379 1.246-.479l.669-.133 1.222-.235c.077-.014.169-.043.186-.119.009-.042-.009-.085-.026-.124l-1.303-2.956" fill="#f5735d"/><path d="M537.939 124.757l-2.302 1.268s.283 2.514 1.585 3.779l2.9-.881-2.183-4.165z" fill="#f0f0f0"/><path d="M537.587 124.318s.688 3.199 2.149 5.202c0 0 26.669-2.904 36.156-12.67s10.103-22.914 6.963-27.704-6.602-6.717-9.417-7.737c0 0-10.214 2.889-13.464 27.278 0 0-8.496 6.591-22.387 15.631" fill="#f1bd73"/><path d="M550.664 127.917c-6.108 1.314-10.789 1.842-10.9 1.854-.138.015-.262-.085-.277-.223s.083-.26.223-.277c.266-.029 26.688-3.007 36.002-12.596 4.704-4.842 6.788-10.071 7.707-13.605.035-.135.172-.215.307-.18s.215.173.18.307c-.935 3.593-3.053 8.909-7.833 13.83-5.507 5.669-16.856 9.052-25.409 10.892" fill="#d08736"/><path d="M298.681 253.855c0 6.435 14.565 11.651 32.532 11.651s32.532-5.216 32.532-11.651-14.565-11.651-32.532-11.651-32.532 5.216-32.532 11.651" fill="#b6d0d8"/><path d="M362.329 250.746c0 6.422-13.867 11.628-30.972 11.628s-30.972-5.206-30.972-11.628v-5.762c0-6.422 13.867-11.628 30.972-11.628s30.972 5.206 30.972 11.628v5.762z" fill="#ed9100"/><path d="M331.357 262.682c15.584 0 28.586-4.242 30.916-10.086a.31.31 0 0 0-.173-.401.31.31 0 0 0-.401.173c-2.204 5.528-15.249 9.697-30.343 9.697-10.957 0-21.169-2.206-26.65-5.757a.31.31 0 0 0-.427.091.31.31 0 0 0 .092.427c5.575 3.612 15.915 5.856 26.985 5.856" fill="#d37301"/><path d="M300.384 244.983c0 6.422 13.867 11.628 30.972 11.628s30.972-5.206 30.972-11.628-13.867-11.628-30.972-11.628-30.972 5.206-30.972 11.628" fill="#fdac01"/><path d="M331.357 235.517c14.229 0 25.765 3.939 25.765 8.798s-11.535 8.797-25.765 8.797c-6.409 0-12.272-.799-16.78-2.121-5.5-1.614-8.985-4.006-8.985-6.676 0-4.859 11.535-8.798 25.765-8.798" fill="#ed9100"/><g fill="#d37301"><path d="M314.577 251.3c.134 0 .257-.087.296-.222.048-.164-.045-.336-.209-.383-5.569-1.634-8.763-3.959-8.763-6.38 0-2.175 2.675-4.336 7.337-5.929 4.835-1.651 11.27-2.56 18.119-2.56s13.283.909 18.118 2.56c4.663 1.592 7.337 3.753 7.337 5.929 0 1.27-.861 2.503-2.56 3.667-.14.096-.177.288-.08.429s.288.177.429.08c1.877-1.285 2.828-2.69 2.828-4.176 0-2.492-2.754-4.805-7.755-6.513-4.897-1.672-11.403-2.594-18.317-2.594s-13.421.921-18.318 2.594c-5.001 1.707-7.755 4.02-7.755 6.513 0 2.715 3.356 5.256 9.207 6.973.029.009.058.013.087.013"/><use xlink:href="#D"/><use xlink:href="#D" x="5.659" y="3.807"/><use xlink:href="#D" x="8.952" y="5.248"/><use xlink:href="#E"/><use xlink:href="#D" x="36.323" y="7.306"/><use xlink:href="#E" x="13.995" y="-1.852"/><use xlink:href="#E" x="23.667" y="-5.968"/><use xlink:href="#D" x="56.696" y="1.543"/><path d="M319.557 245.24l6.064.439c-1.044.306-1.928.485-2.589.466-2.198-.063-3.295-.364-3.475-.905h0zm15.296-.147l2.461-.982 6.131.412a7.67 7.67 0 0 1-.814 1.092l-7.778-.523zm8.952-1.718l-3.685-.266c2.397-.702 3.592-.525 3.685.266h0zm-12.689.32l-2.548.976-8.479-.57c.309-.317.739-.67 1.286-1.061l9.741.654zm-15.712 1.245c-1.103 1.316-1.353 2.574.418 3.365 3.967 1.774 10.308.043 16.272-2.157l9.356.677c-.816.763-1.833 1.6-3.051 2.492l3.954.113s1.362-.993 2.786-2.339l2.703.196 1.472-1.222-2.967-.2c.322-.356.627-.72.897-1.087l3.666.246 1.13-1.054-4.103-.297c.733-1.45.615-2.776-1.502-3.413-3.054-.921-7.965.645-12.607 2.392l-10.685-.773c1.054-.651 2.315-1.377 3.757-2.179l-3.954-.113s-1.63.843-3.455 2.029l-4.378-.317-1.472 1.222 4.142.279a19.85 19.85 0 0 0-1.309 1.059l-4.428-.298-1.13 1.054 4.489.325z"/></g></g></svg>