<svg xmlns="http://www.w3.org/2000/svg" xmlns:xlink="http://www.w3.org/1999/xlink" width="640" height="387" xmlns:v="https://vecta.io/nano"><style><![CDATA[.B{fill:#f48d64}.C{fill:#c98935}.D{fill:#357532}.E{fill:#411c22}.F{fill:#ffc269}.G{fill:#332a77}.H{fill:#b73c23}.I{fill:#fdf1e9}.J{fill:#609e5d}]]></style><defs><linearGradient x1="47.94633%" y1="83.1116932%" x2="47.94633%" y2="2.01618236e-13%" id="A"><stop stop-color="#fcf3dc" stop-opacity="0" offset="0%"/><stop stop-color="#f8efca" offset="100%"/></linearGradient><path id="B" d="M381.072 205.692c-.66-4.509-1.469-8.991-2.34-13.461-.755-3.871-1.384-7.853-2.622-11.6-1.043-3.155-2.672-6.109-5.331-8.089-2.729-2.032-6.118-2.872-9.425-3.132-13.356-1.053-27.064 5.598-35.512 16.167-.938 1.175-1.814 2.403-2.624 3.672l.213-1.344c.059-.361-.473-.513-.532-.153-1.783 10.604-.883 21.383.627 31.958l2.526 16.245c.836 5.525 1.749 11.172 1.223 16.776-.503 5.37-2.459 10.439-4.41 15.394l-6.164 15.628-12.347 31.311-6 15.314c-1.702 4.521-3.265 9.114-4.353 13.836-.048.193-.091.389-.132.582a14.83 14.83 0 0 0 .499.318c1.019.644 2.064 1.24 3.129 1.798 3.654 1.916 7.53 3.366 11.491 4.439 4.478 1.212 9.068 1.937 13.67 2.397 4.74.474 9.502.662 14.259.796 2.498.071 5.073.179 7.595-.063l.621-.069h.002l.254-.615c6.138-14.819 11.572-29.938 16.712-45.154l8.362-25.376c2.719-8.374 5.505-16.738 7.761-25.262 2.216-8.382 3.9-16.952 4.385-25.643.499-8.915-.24-17.854-1.534-26.669"/><path id="C" d="M389.559 34.75c.055 1.213-.563 2.227-1.382 2.264s-1.528-.916-1.583-2.129.563-2.227 1.382-2.264 1.528.916 1.583 2.129"/></defs><g fill-rule="evenodd"><g fill="url(#A)" opacity=".8"><path d="M180.953 84c-49.688 0-90.214 40.527-90.214 90.215 0 10.161 1.529 17.745 4.052 26.184.579 1.937.224 3.859-1.011 5.461s-3.002 2.436-5.023 2.369c-8.568-.282-17.175.703-25.452 2.955C26.825 221.107 0 254.465 0 294.089c0 45.373 35.175 72.526 79.742 75.688 1.537.145 3.092.223 4.665.223h1.504 477.052c42.209 0 76.634-24.425 76.634-66.634s-34.425-76.634-76.634-76.634c-2.703 0-5.405.144-8.094.429-20.43 2.17-37.175-.759-39.671-24.564-2.58-24.387-23.321-43.033-47.845-43.033-10.249 0-20.142 3.207-28.404 9.278-64.065 46.857-137.777 17.039-185.189-47.785C237.322 98.619 210.792 84 180.953 84z"/></g><g class="E"><path d="M387.714 54.157c-.141 2.014-.523 4.016-1.189 5.924-.299.86-.617 1.809-1.262 2.479-.587.609-1.43.886-2.265.884-1.971-.006-3.464-1.436-4.843-2.664l-4.559-4.005c-3.022-2.668-5.998-5.417-8.578-8.523-2.505-3.014-4.6-6.37-5.922-10.072-1.281-3.58-1.786-7.464-1.078-11.223.118-.615.287-1.22.495-1.81.464-1.316 1.112-2.581 1.996-3.664.805-.992 1.882-1.859 3.161-2.116 1.576-.315 2.984.413 4.35 1.112 1.631.833 3.183 1.815 4.629 2.939 3.004 2.332 5.402 5.293 7.596 8.374 2.308 3.246 4.303 6.735 5.672 10.484 1.379 3.782 2.079 7.853 1.798 11.883"/><path d="M408.841 42.568c-1.515 2.32-3.74 4.038-6.043 5.487-2.414 1.52-4.938 2.93-7.584 3.99-4.817 1.925-10.656 2.516-15.194-.503-2.33-1.553-3.998-3.973-5.511-6.302-.814-1.256-1.572-2.55-2.27-3.877-.663-1.26-1.189-2.582-1.833-3.85-.637-1.257-1.502-2.352-2.333-3.481-.761-1.035-1.516-2.075-2.214-3.156-7.694-11.925 3.855-25.984 15.642-28.829 1.732-.418 3.647-.692 5.384-.146.659.207 1.241.57 1.87.847s1.301.362 1.978.263c1.379-.202 2.614-.993 3.832-1.628 2.445-1.273 5.299-1.916 7.936-.827 2.287.943 4.031 3.008 4.712 5.409.379 1.327.449 2.735.243 4.102-.213 1.417-.877 2.69-1.163 4.083-.142.69-.147 1.411.14 2.064.22.499.575.92.946 1.307.757.787 1.642 1.499 2.093 2.528 1.063 2.415-.69 4.932-1.04 7.301-.398 2.705 1.347 5.079 1.962 7.601.642 2.643-.098 5.389-1.552 7.617"/></g><path d="M425.057 157.563c-2.559 3.347-6.674 8.163-10.351 7.633-4.08-.587-5.555-6.519-7.004-9.635-2.553-5.492-4.441-11.327-5.128-17.363-.379-3.323-.352-6.675-.151-10.009.202-3.322.534-6.637.949-9.938.821-6.541 2.014-13.035 3.578-19.44.776-3.183 1.642-6.348 2.604-9.48.493-1.601 1.03-3.194 1.72-4.722.306-.676.925-1.407.758-2.141-.187-.823-.273-1.668-.25-2.512.003-.094.009-.195.065-.27.097-.129.292-.123.451-.088a2.5 2.5 0 0 1 .943.426c.278.204.51.463.74.72 1.055 1.18 1.95 2.371 2.758 3.732 3.065 5.164 5.331 10.781 6.987 16.547 1.759 6.117 2.824 12.41 3.509 18.733.812 7.506 1.107 15.057 1.399 22.596.185 4.776.574 9.642-2.419 13.667l-1.159 1.544" class="F"/><path d="M369.991 61.693c.01.258-.053.534-.081.79l-.082.741-.175 1.572-.242 1.503c-.102.397-.409.621-.792.385-1.525-.943-2.151-2.914-1.552-4.582.006-.018.016-.035.024-.051-.055-.142-.012-.332.171-.401.527-.193 1.069-.322 1.627-.389.395-.049 1.079-.149 1.102.431m24.751 4.447a6.32 6.32 0 0 1-.479 1.244c-.358.725-.86 1.409-1.478 1.933-.281.238-.678.385-.967.067-.267-.297-.218-.764-.169-1.124.065-.476.177-.949.283-1.417l.328-1.35a1.19 1.19 0 0 1 .812-.796c.436-.129.894-.023 1.322.087.214.057.242.277.155.426.277.203.273.621.193.93" class="I"/><path d="M331.851 348.278l-.908 2.202-3.751 9.053-1.873 4.526-.929 2.238c-.239.581-.435 1.307-.958 1.709-.544.418-1.291.307-1.932.285l-2.019-.086-4.101-.292c-2.683-.267-5.369-.71-7.932-1.569-1.24-.416-2.451-.929-3.598-1.555a18.57 18.57 0 0 1-1.723-1.06c-.496-.346-1.095-.733-1.238-1.361-.087-.371.011-.744.12-1.099l.353-1.126.721-2.308 1.477-4.72 2.221-7.097h-.087c-.18 0-.312-.145-.319-.316s.15-.317.319-.317h.284l.503-1.607c.121-.389.735-.222.615.167l-.451 1.44h.071c.045-.027.105-.043.175-.038l2.365.158c6.535.391 13.092.375 19.624-.045 1.127-.073 2.916-.36 3.207 1.151.109.56-.039 1.144-.237 1.668m107.476-6.638l.024 2.382.081 9.799.043 4.898.019 2.424c.006.628.11 1.372-.215 1.948-.338.597-1.068.787-1.668 1.017l-1.892.709-3.89 1.333c-2.575.802-5.22 1.442-7.915 1.652a22.41 22.41 0 0 1-3.92-.027 18.66 18.66 0 0 1-2-.303c-.592-.125-1.294-.247-1.671-.77-.224-.308-.28-.689-.318-1.059l-.115-1.175-.237-2.407-.483-4.923-.726-7.401-.08.034c-.166.07-.344-.011-.417-.167a.32.32 0 0 1 .17-.415l.262-.111-.164-1.676c-.041-.405.59-.491.631-.086l.147 1.502.065-.027a.3.3 0 0 1 .146-.104l2.239-.778a158.35 158.35 0 0 0 18.049-7.703c1.009-.506 2.544-1.469 3.402-.193.32.473.411 1.069.434 1.629" class="B"/><path d="M410.874 90.715l-.056 1.303-.64 7.99c-.107 7.137.966 14.437 1.352 21.569.285 5.276-.993 10.967-1.217 16.277-.222 5.246-.579 10.662.264 15.842.808 4.961-.908 8.041-5.811 9.816-4.055 1.468-8.575 2.988-12.863 2.063-4.586-.989-8.589-.195-13.285.3-2.307.244-4.647.385-6.957.098-1.094-.138-2.175-.364-3.217-.721-.872-.299-1.764-.696-2.399-1.387-.651-.711-.884-1.632-.924-2.574-.053-1.171.059-2.36.106-3.529l.301-7.464.603-15.019c.196-4.887.385-9.846-.705-14.65-1.053-4.649-3.079-9.052-4.987-13.398-1.947-4.442-3.993-8.837-6.14-13.184l-3.313-6.527c-1.016-1.943-2.177-3.851-2.979-5.895-.664-1.694-1.089-3.676-.289-5.401.837-1.806 2.743-2.586 4.464-3.316l9.433-3.994c4.131-1.749 7.514-.697 11.811-1.02 4.59-.345 8.875.32 13.408.787 4.038.416 7.176 1.838 10.943 3.47 4.444 1.925 9.707 3.711 13.388 6.945.27.237.541.495.671.83.156.4.088.847.022 1.271-.496 3.151-.824 6.329-.983 9.515" class="I"/><path d="M409.142 160.791l-3.794.568a.26.26 0 0 1 .122.303c-.332 1.271-.554 2.564-.662 3.871-.458 5.499.89 10.944 2.228 16.233l1 3.999c.306 1.261.686 2.554.802 3.849.1 1.1-.196 2.201-1.236 2.743-.558.289-1.194.43-1.798.578a33.66 33.66 0 0 1-2.11.45c-2.765.503-5.576.705-8.378.882-2.719.169-5.44.299-8.162.361-5.472.12-10.96-.035-16.392-.731-2.686-.342-5.358-.814-7.991-1.45-1.304-.315-2.598-.67-3.879-1.067-1.226-.381-2.464-.774-3.645-1.281-1.002-.428-1.996-1.038-2.523-2.03-.562-1.063-.511-2.295-.328-3.448.22-1.393.562-2.774.868-4.15l.961-4.208 2.124-8.48 1.138-4.163c.169-.601.302-1.257.65-1.784.295-.45.741-.762 1.263-.892 1.093-.275 2.248.116 3.309.364 1.385.328 2.782.605 4.185.839 2.757.458 5.541.74 8.333.882 5.621.285 11.255.006 16.852-.544 5.661-.558 11.288-1.397 16.911-2.246.361-.055.513.495.153.55" fill="#423a69"/><use xlink:href="#B" fill="#5a4ba0"/><use xlink:href="#B" fill="#00a7e6"/><g class="B"><path d="M405.735 53.334c-3.45 4.532-9.316 5.316-15.242 4.448-2.981-.437-5.861-1.663-8.001-3.825-1.617-1.634-2.794-3.632-3.927-5.613-.537-.938-1.022-1.922-1.685-2.778-.682-.884-1.58-1.468-2.541-2.012-.916-.519-1.861-.985-2.731-1.582a9.39 9.39 0 0 1-2.367-2.341c-1.336-1.882-2.105-4.114-2.504-6.373a19.53 19.53 0 0 1-.261-3.404c.058-4.51 1.717-8.94 4.793-12.258 1.417-1.529 3.111-2.813 4.979-3.741 2.01-.998 4.205-1.559 6.44-1.722 4.651-.34 9.347.988 13.433 3.148 2.055 1.087 3.877 2.482 5.34 4.296 1.392 1.728 2.457 3.688 3.342 5.714 3.148 7.198 5.644 16.968 2.778 24.64-.492 1.316-1.114 2.444-1.845 3.404"/><path d="M394.881 44.686l-.45 7.132-.476 5.869-.821 8.176-1.004 6.14-.035.631c-1.625.689-3.336 1.167-5.081 1.446-3.815.609-7.726.326-11.496-.462-1.79-.373-3.619-.808-5.313-1.507-.876-.358-1.735-.819-2.443-1.44l.102-.686.42-3.083c1.323-10.583 1.684-21.175 2.311-31.807.141-2.373.196-4.786.473-7.146.208-1.78 1.334-2.281 3.106-2.155a14.71 14.71 0 0 1 5.566 1.533 14 14 0 0 1 4.393 3.501c1.177 1.405 1.851 3.171 3.097 4.513 1.729 1.859 4.409 2.316 6.429 3.788 1.957 1.427 1.344 3.344 1.224 5.557"/></g><path d="M449.548 319.786c-1.063-12.805-2.812-25.539-4.99-38.184a649.21 649.21 0 0 0-3.586-19.055c-1.283-6.317-2.677-12.61-4.52-18.772-3.38-11.3-8.042-22.126-13.325-32.563-2.97-5.865-6.137-11.615-9.402-17.301-3.227-5.622-5.118-11.364-7.281-17.545-1.79-5.115-4.726-10.006-10.617-7.934-2.151.757-3.431 1.666-5.783 1.717-3.247.071-6.245.177-9.413 1.1-2.852.829-5.66 2.018-8.235 3.557-1.265.756-2.482 1.643-3.488 2.759a10.08 10.08 0 0 0-2.182 3.91c-.907 3.071-.501 6.398.052 9.498l2.097 10.881c.695 3.725 1.346 7.462 1.876 11.219.637 4.499 1.098 9.042 1.248 13.594l.027.92.549.695c3.234 4.14 6.067 8.628 8.512 13.343 4.01 7.729 6.991 16.023 9.154 24.525 2.496 9.818 3.89 19.916 4.726 30.032.855 10.329 1.129 20.698 1.383 31.06l.551 22.426.016.58.541.108c2.727.54 5.485.902 8.251 1.126 4.768.385 9.56.358 14.335.132 4.682-.222 9.36-.615 14.027-1.071 4.393-.43 8.788-.978 13.104-1.971.99-.228 1.976-.479 2.956-.762a16.68 16.68 0 0 0 .539-.157l.002-.592c.033-9.101-.37-18.206-1.123-27.274" fill="#00a7e6"/><g class="B"><path d="M340.219 166.928l-1.151 2.975c-1.389 3.47-2.916 6.885-4.572 10.235-.053.106-.212.171-.322.13l-7.586-2.753-1.67-.607-.857-.312c-.242-.088-.507-.161-.723-.302-.847-.554-.261-1.733.004-2.45.647-1.758 1.407-3.48 2.33-5.114 1.784-3.161 4.232-6.016 7.474-7.734.012-.212.289-.393.486-.198a93.8 93.8 0 0 0 6.513 5.851c.073.059.106.191.073.277"/><path d="M345.79 180.366c-.419 2.181-1.189 4.295-2.254 6.242-.536.975-1.146 1.906-1.827 2.788l-.529.658c-.171.203-.342.44-.572.583-.483.297-.939.012-1.316-.308-1.539-1.301-2.849-2.847-4.099-4.421-2.231-2.811-4.328-5.867-7.311-7.949-.957-.668-.932-.703-1.078-1.772-.128-.936-.503-1.81-.577-2.774-.143-1.851.166-3.73.806-5.467 1.021-2.774 2.837-5.196 4.906-7.306.165-.168.344-.342.574-.393.322-.073.639.111.915.291 2.693 1.757 5.836 3.912 7.279 6.818a49.9 49.9 0 0 0 3.778 6.356c.672.966 1.32 1.957 1.507 3.14.183 1.171.02 2.363-.202 3.515"/></g><path d="M405.4 169.999c-4.479 1.502-9.136 2.402-13.828 2.909-4.732.512-9.499.629-14.255.612l-8.006-.12c-.367-.008-.39.562-.022.57 4.774.101 9.552.194 14.326.04 4.738-.153 9.481-.55 14.142-1.439 2.632-.502 5.233-1.165 7.774-2.016.345-.116.219-.672-.13-.555" class="G"/><path d="M325.389 136.258c-.531 3.596-.902 7.215-1.311 10.83l-1.33-1.232c-1.293-1.212-2.56-2.454-3.766-3.753-1.378-1.484-2.688-3.033-4.046-4.537l-.422-.464c2.702-1.784 5.35-3.654 7.938-5.605a152.17 152.17 0 0 0 4.582-3.588c-.711 2.745-1.23 5.543-1.645 8.349m53.453-11.526c-.043-1.055-.088-2.126-.399-3.138-.633-2.047-2.187-3.534-3.441-5.218-1.368-1.838-2.662-3.73-4.084-5.527a117.12 117.12 0 0 1-8.268-11.903c-4.963-8.174-8.936-16.947-11.785-26.077-.002-.006-.004-.014-.006-.02l-.161-.528-.554.141-16.164 4.132c-5.523 1.491-11.042 3.284-15.961 6.26-5.022 3.036-9.301 7.176-13.433 11.303-4.15 4.144-8.109 8.478-11.866 12.98-3.771 4.523-7.337 9.215-10.681 14.062-3.142 4.552-6.633 9.38-7.003 15.088-.348 5.366 1.943 10.555 4.997 14.842 3.095 4.346 7.095 8.034 11.333 11.245 8.195 6.211 17.662 10.537 27.358 13.858l-.827 4.24c-.9 4.924-1.574 9.906-1.696 14.915l-.006.336-.01.89c.122.145.251.285.383.422l.185.187c4.466 4.442 10.389 6.228 16.231 8.046a212.67 212.67 0 0 0 20.53 5.283c2.841.582 5.76 1.099 8.639 1.507 3.49.597 7.229 1.165 10.453-.299.839-.381 1.652-.931 2.055-1.758.295-.603.342-1.293.383-1.961l3.609-64.251c.32-6.423.446-12.626.192-19.057m38.231 72.184c-1.823 1.892-4.385 3.599-5.878 4.606-2.644 1.783-5.773 3.009-8.959 2.86-1.004-4.883.798-9.841 1.627-14.757.847-5.022.67-10.215-.519-15.167-.852-3.552-2.216-6.976-2.893-10.566-1.246-6.608-.111-13.4.016-20.124.065-3.466-.154-6.93-.459-10.381l-1.336-15.765c-.169-1.689-.144-3.054.473-4.667l2.901-7.419a149.31 149.31 0 0 0 4.573-15.086 148.96 148.96 0 0 0 1.684-7.703c.244-1.279.557-2.586.688-3.882.06-.594.03-2.012-.39-2.425.821.083 1.35.987 2.075 1.307.877.388 1.523.856 2.189 1.564 1.435 1.523 2.48 3.412 3.211 5.363 2.282 5.986.178 11.569.549 17.614.376 6.134-1.261 12.299-2.033 18.404a298.8 298.8 0 0 0-2.271 30.135c-.106 4.286-.7 9.08-.262 13.298.551 5.3 1.707 10.526 3.148 15.65 1.183 4.209 4.248 8.889 3.985 13.377-.072 1.238-.942 2.538-2.12 3.761" class="F"/><g class="I"><path d="M384.411 72.26c-2.694-.435-5.338-1.22-7.829-2.327-1.409-.624-2.773-1.35-4.076-2.173-1.238-.78-2.444-1.632-3.451-2.701-.733-.775-1.348-1.682-1.661-2.689-.079-.248-.138-.5-.174-.762l-.525.615c-2.058 2.479-3.679 5.313-4.774 8.341v.002l-.417 1.242c.097.334.223.654.379.965v.003c.893 1.826 2.642 3.257 4.301 4.369 2.689 1.801 5.66 3.192 8.762 4.119 1.375.41 2.78.724 4.195.946l.634.095.187-.606a27.51 27.51 0 0 1 3.354-6.925l1.357-1.842.467-.563-.728-.108"/><path d="M402.121 72.285c-.779-1.167-1.693-2.245-2.668-3.252-1.407-1.455-3.077-3.361-4.932-4.203-.134-.061-.311-.045-.389.104a8.85 8.85 0 0 0-.623 1.501c-.206-.02-.418.106-.391.367.013.114.077.191.159.234-.004.012-.004.023-.008.033a1.26 1.26 0 0 1-.132.285c-.098.161-.224.303-.358.438-.273.277-.57.529-.86.788l-1.926 1.576c-1.316.961-2.768 1.739-4.389 2.016-.269.047-.252.363-.077.495-.03.087-.012.185.082.265 2.462 2.087 3.853 5.07 4.918 8.052.241.677.572 2.932 1.409 3.019.746.078 2.266-1.095 2.904-1.446 2.171-1.195 4.227-2.599 6.13-4.187.854-.713 1.687-1.473 2.298-2.402.156-.238.302-.501.302-.785 0-.222-.089-.434-.181-.636-.359-.79-.787-1.542-1.267-2.26"/><path d="M388.244 74.688c-.047.261-.232.385-.458.491a13.38 13.38 0 0 1-1.786.696c-1.185.365-2.448.552-3.684.409-.46-.051-1.169-.104-1.321-.647-.137-.487.27-1.061.556-1.421.652-.821 1.613-1.328 2.531-1.793.173-.087.336.01.401.147.031-.112.116-.209.259-.224l1.153-.122c.35-.036.627-.045.898.21.245.228.467.489.695.733.218.236.438.487.584.774.114.224.22.491.173.747"/></g><path d="M384.704 73.704c-1.392 2.34-2.2 4.954-2.963 7.55l-1.21 3.916-.316.877c-.108.287-.184.616-.558.557-.3-.048-.597-.211-.874-.33l-.936-.415c-4.736-2.171-9.06-5.223-12.691-8.96-1.018-1.048-2.086-2.139-2.836-3.401-.362-.609-.831-1.454-.586-2.176.132-.392.338-.767.51-1.143l.541-1.182c.152-.332-.339-.621-.492-.288l-1.003 2.195c-.13.302-.221.608-.196.94.028.366.152.72.291 1.057.538 1.301 1.495 2.377 2.432 3.406a42.74 42.74 0 0 0 6.053 5.479 42.51 42.51 0 0 0 6.993 4.238 42.68 42.68 0 0 0 1.866.842c.546.231 1.275.572 1.728-.013.173-.224.256-.517.353-.779a35.71 35.71 0 0 0 .385-1.089 63.27 63.27 0 0 0 .641-2.04c.914-3.055 1.716-6.189 3.36-8.954.188-.316-.305-.603-.493-.288m18.371 2.411a19.74 19.74 0 0 1-6.515 7.029l-1.045.629c-.36.184-.729.238-1.074.001-.577-.395-.846-1.164-1.152-1.761a25.88 25.88 0 0 0-2.726-4.23 25.67 25.67 0 0 0-3.961-4.015c-.282-.23-.688.171-.403.403a25.46 25.46 0 0 1 6.597 8.129c.335.655.628 1.395 1.222 1.865.272.216.601.353.953.345.459-.011.866-.255 1.249-.484a20.19 20.19 0 0 0 3.965-3.103c1.331-1.34 2.473-2.867 3.382-4.522.177-.322-.315-.61-.493-.288m-15.502 1.183c-.028-.364-.598-.367-.57 0 .84 11.058.437 22.164.192 33.237-.242 10.929-.427 21.87-1.279 32.773-.479 6.128-1.175 12.241-2.211 18.302-.061.359.488.513.55.151 1.845-10.793 2.612-21.733 3.02-32.664l.445-16.561.33-16.531c.068-6.239-.005-12.484-.477-18.707" fill="#e5d2c6"/><path d="M387.57 200.288c-.087 5.204-.406 10.404-.956 15.58a174.4 174.4 0 0 1-2.33 15.357c-.568 2.877-1.21 5.738-1.922 8.583-.089.356.461.508.55.151a175.49 175.49 0 0 0 3.12-15.345 175.98 175.98 0 0 0 1.74-15.54c.196-2.926.318-5.856.367-8.787.006-.367-.564-.367-.57 0" opacity=".3" class="G"/><g class="C"><path d="M329.882 179.394a33.68 33.68 0 0 1-10.421-2.909c-.331-.153-.621.338-.288.493a34.56 34.56 0 0 0 10.709 2.987c.364.04.361-.53 0-.57m-15.471-42.982c-3.715-3.519-7.553-7.126-12.223-9.344-1.304-.62-2.663-1.121-4.065-1.47-.356-.089-.508.461-.152.55 4.957 1.234 9.12 4.369 12.862 7.722a157.77 157.77 0 0 1 3.174 2.946c.267.252.67-.15.403-.403m-1.957-2.921c-1.42-2.872-2.902-5.824-5.207-8.102a13.08 13.08 0 0 0-2.1-1.689c-.309-.2-.596.294-.288.492 2.668 1.721 4.429 4.447 5.89 7.199l1.212 2.388c.163.329.655.04.493-.288m25.282-11.92c-1.84.721-3.53 1.74-5.196 2.792l-5.374 3.404c-.309.196-.023.689.288.493l5.295-3.355c1.646-1.041 3.318-2.072 5.138-2.785.338-.132.191-.684-.151-.55"/><path d="M335.585 125.734c-.957.196-1.948.094-2.854-.267-.143-.057-.313.062-.351.199-.045.162.055.293.199.351 1.001.399 2.103.483 3.157.267.359-.074.207-.624-.151-.55"/></g><path d="M333.106 272.902c-1.793-4.933-3.086-10.046-3.849-15.239a76.6 76.6 0 0 1-.517-4.433c-.032-.363-.602-.366-.57 0a78.14 78.14 0 0 0 2.974 15.56 77.99 77.99 0 0 0 1.413 4.263c.124.342.675.195.55-.151m-4.775-10.086c.026-.366-.544-.364-.57 0a124.12 124.12 0 0 0-.28 12.305c.01.366.58.367.57 0-.111-4.103-.018-8.211.279-12.305m77.474 19.301c-3.478-1.014-6.63-3.034-9.028-5.747a18.84 18.84 0 0 1-1.83-2.451c-.194-.31-.688-.024-.492.288a19.87 19.87 0 0 0 8.241 7.332 19.68 19.68 0 0 0 2.958 1.128c.353.103.504-.447.151-.55m-1.843 6.771a18.72 18.72 0 0 1-3.464-4.898c-.161-.33-.653-.041-.492.288a19.23 19.23 0 0 0 3.553 5.014c.258.262.661-.142.403-.403" opacity=".3" class="G"/><path d="M352.767 179.027c-3.058 1.605-6.042 3.351-8.937 5.235a111.59 111.59 0 0 0-8.358 6.007c-1.529 1.209-3.026 2.459-4.489 3.747-.276.243.129.645.403.403 2.574-2.266 5.252-4.413 8.027-6.429a110.67 110.67 0 0 1 8.576-5.642c1.663-.987 3.353-1.929 5.065-2.828.325-.171.037-.663-.288-.493m-4.892 11.222a27.01 27.01 0 0 1-6.754 1.313c-.364.023-.367.593 0 .57a27.64 27.64 0 0 0 6.906-1.333c.347-.115.198-.666-.151-.55" class="C"/><path d="M393.626 58.075c-4.897-.171-9.225-2.956-12.414-6.519-.903-1.009-1.728-2.084-2.494-3.201-.206-.301-.701-.016-.493.288 2.794 4.072 6.499 7.709 11.289 9.268 1.329.432 2.714.685 4.111.734.367.013.367-.557 0-.57" class="H"/><path d="M343.501 376.379c-.584-.29-1.288-.505-1.918-.805l-5.038-2.444c-3.207-1.601-6.37-3.303-9.381-5.252-.718-.479-1.348-1.106-2.054-1.576-.656-.436-1.409-.086-2.112-.017a29.72 29.72 0 0 1-2.75.142 30.27 30.27 0 0 1-5.482-.472c-3.371-.603-6.639-1.764-9.616-3.458-.814-.464-1.661-.945-2.313-1.631-.642-.674-1.061-1.625-.788-2.554.104-.354-.446-.505-.55-.153-.036.126-.065.253-.081.375-.069.012-.135.047-.185.114-2.4 3.164-4.694 6.555-6.591 10.097-1.819 3.397-4.173 7.66-4.214 11.605-.003.33.012.669.141.973.161.383.487.673.84.892.809.501 1.773.678 2.714.826 2.002.315 4.033.539 6.062.454 3.047-.128 5.885-1.777 8.959-1.381 1.207.156 2.627.232 3.785.572 1.388.407 2.717 1.306 4.092 1.809 2.926 1.072 5.997 1.726 9.093 2.043 4.702.481 9.457.197 14.137-.463 1.119-.158 2.346-.399 3.04-1.292.442-.569.586-1.307.712-2.017l.719-4.284c.18-1.145-.403-1.699-1.22-2.105m117.057-6.987l-17.481-5.451c-.827-.245-1.614-.658-2.428-.898-.755-.222-1.372.334-2.022.608a29.94 29.94 0 0 1-2.585.949c-1.751.552-3.554.944-5.376 1.169a30.22 30.22 0 0 1-10.208-.462c-.915-.203-1.867-.412-2.692-.875-.812-.454-1.494-1.239-1.507-2.207-.006-.369-.576-.351-.57.017a2.48 2.48 0 0 0 .033.382.29.29 0 0 0-.143.164c-1.358 3.731-2.547 7.65-3.313 11.594-.363 1.868-1.131 4.146-.956 6.055.145 1.59 1.272 1.996 2.687 2.323 3.601.833 7.326.702 10.985.439 1.341-.096 2.703.021 4.032-.125 1.626-.178 3.191-.753 4.842-.776 1.446-.021 2.982.444 4.444.519 3.111.159 6.239-.124 9.291-.736 4.634-.93 9.093-2.607 13.369-4.62 1.023-.482 2.124-1.075 2.523-2.133.386-1.025.178-2.781-.048-3.837-.273-1.277-.772-1.482-2.109-1.873l-.766-.225" fill="#423a69"/><path d="M461.176 108.771c-2.171 12.504-4.919 25.076-10.702 36.471-5.135 10.116-13.891 20.563-25.597 22.837-5.674 1.101-13.339.01-15.993-5.869-1.25-2.768-1.603-5.987-1.497-8.997.368-10.466 6.62-18.275 12.989-25.985 6.966-8.431 14.457-16.408 21.94-24.377 1.103-1.175 2.243-2.376 3.7-3.064 3.95-1.862 8.322 2.375 11.724 3.891 2.781 1.239 4.091 1.192 3.526 4.558l-.091.535" class="F"/><g class="C"><path d="M414.427 103.774l-.07-1.548c-.019-.365-.589-.367-.57 0 .214 4.189.2 8.387.053 12.579-.147 4.179-.423 8.352-.728 12.522l-.901 12.581c-.259 4.165-.445 8.335-.457 12.509a130.79 130.79 0 0 0 .126 6.249l.187 3.153c.072.971.122 1.957.32 2.912a6.47 6.47 0 0 0 .413 1.288c.147.335.638.045.493-.288-.387-.882-.486-1.851-.567-2.8l-.216-3.091c-.116-2.08-.173-4.164-.183-6.247-.022-4.152.138-8.302.381-12.446l.876-12.456.773-12.46c.174-4.149.231-8.305.072-12.456m11.864 16.615c-3.368 2.704-6.732 5.563-8.882 9.376a20.9 20.9 0 0 0-1.539 3.433c-.12.347.431.497.55.151.712-2.061 1.759-3.996 3.09-5.724 1.292-1.68 2.825-3.162 4.423-4.549.903-.783 1.83-1.537 2.762-2.285.286-.23-.12-.631-.403-.403"/><path d="M423.229 122.592c-1.592-.134-3.215.316-4.509 1.253-.295.213-.01.708.288.493a6.29 6.29 0 0 1 4.221-1.175c.366.031.364-.539 0-.57m-10.28 55.605c-1.235 5.352-2.487 10.78-4.887 15.753-.665 1.378-1.418 2.712-2.268 3.984-.204.306.289.592.493.288 3.081-4.608 4.784-9.95 6.121-15.283l1.091-4.59c.083-.357-.467-.509-.55-.151m-.447 15.019a15.74 15.74 0 0 1-3.982 4.262c-.293.214-.009.709.288.492 1.662-1.216 3.082-2.727 4.186-4.467.197-.311-.296-.597-.493-.288"/></g><g fill="#2d1413"><use xlink:href="#C"/><use xlink:href="#C" x="15.259" y="-2.892"/></g><g class="G"><path d="M343.257 378.838c-3.007 1.532-6.428 2.066-9.778 1.921-3.598-.155-7.116-1.077-10.509-2.238-1.687-.577-3.36-1.218-5.106-1.601-1.765-.387-3.574-.528-5.377-.592-3.306-.117-6.661.035-9.906-.721-2.655-.618-5.302-1.815-7.037-3.989-.214-.269-.408-.553-.588-.845-.192-.312-.686-.026-.493.287 1.495 2.426 4.017 3.926 6.687 4.752 3.137.97 6.427.982 9.679 1.044 1.852.035 3.713.087 5.547.367 1.825.279 3.566.843 5.303 1.452 3.449 1.207 6.961 2.253 10.617 2.576 3.417.302 6.943-.055 10.121-1.397a17.4 17.4 0 0 0 1.127-.524c.327-.167.039-.659-.288-.493m118.609-7.219c-2.479 1.818-5.37 2.943-8.361 3.591-3.15.683-6.381.844-9.596.824-3.642-.023-7.28-.262-10.923-.193a50.2 50.2 0 0 0-5.437.394l-5.352.757c-1.679.213-3.396.395-5.091.31-1.198-.06-2.564-.303-3.456-1.176a2.76 2.76 0 0 1-.522-.714c-.169-.326-.661-.038-.492.288.596 1.149 1.802 1.744 3.024 1.995 1.526.314 3.129.205 4.668.071 3.666-.319 7.269-1.115 10.95-1.297 3.722-.184 7.447.042 11.17.116 3.342.066 6.694-.006 9.993-.586 3.068-.539 6.098-1.529 8.735-3.216.332-.213.657-.437.976-.67.293-.215.009-.71-.288-.493"/><path d="M343.234 348.567a74.29 74.29 0 0 0-2.353-11.59 74.6 74.6 0 0 0-4.166-11.066 74.01 74.01 0 0 0-3.1-5.888c-.185-.317-.679-.03-.493.288a73.37 73.37 0 0 1 5.099 10.554 74.1 74.1 0 0 1 3.344 11.17 72.79 72.79 0 0 1 1.099 6.532c.044.36.615.364.57 0m.074-18.792c-.113-.347-.664-.199-.55.151a20.63 20.63 0 0 1 .85 9.038c-.047.363.524.36.57 0a21.03 21.03 0 0 0-.87-9.189m104.193 12.321a100.49 100.49 0 0 0-7.344-8.884 99.79 99.79 0 0 0-8.296-7.961 100.84 100.84 0 0 0-5.055-4.044c-.294-.22-.578.275-.288.493a99.21 99.21 0 0 1 8.7 7.337 99.88 99.88 0 0 1 7.825 8.302l3.965 5.045c.215.293.71.008.493-.288" opacity=".3"/><path d="M444.726 331.826c-.46-2.766-1.244-5.47-2.334-8.053-.14-.333-.692-.187-.55.151a35.9 35.9 0 0 1 2.334 8.053c.06.361.61.208.55-.151" opacity=".3"/></g><path d="M376.4 33.746a40.89 40.89 0 0 1-1.509 7.138c-.452 1.464-1.024 2.947-2.132 4.047-.084.081-.245.118-.346.045l-1.179-.953c-1.527-1.373-2.755-3.057-3.751-4.843-1.082-1.935-1.961-4.018-2.558-6.15-1.144-4.077-1.114-8.898 1.56-12.406.792-1.043 1.886-1.89 2.998-2.564 1.144-.694 2.539-1.336 3.912-1.232.621.047 1.205.258 1.678.674.603.525.923 1.312 1.104 2.071.251 1.053.261 2.148.271 3.226.01 1.185.077 2.366.132 3.551.116 2.476.118 4.932-.179 7.397" class="E"/><path d="M400.812 37.821c-.142-.445-.465-.791-.763-1.139l-.968-1.238a18.2 18.2 0 0 1-1.561-2.643 17.91 17.91 0 0 1-1.202-3.301c-.092-.355-.642-.205-.55.151a18.55 18.55 0 0 0 2.289 5.29 19.3 19.3 0 0 0 1.697 2.269c.27.313.604.687.548 1.133-.052.412-.393.742-.702.987-.889.705-1.974 1.232-3.028 1.637-.339.13-.192.682.151.55 1.023-.393 2.006-.89 2.911-1.51.707-.485 1.479-1.244 1.177-2.187" class="H"/><path d="M401.399 43.283c-.196-.147-.517.043-.752.168-.85.453-1.758.763-2.715.887-1.862.242-3.795-.201-5.354-1.252-.314-.212-.311.175-.275.396.074.46.284.715.628 1.023a6.89 6.89 0 0 0 2.946 1.554c.731.179 1.505.246 2.254.155s1.555-.375 2.121-.874c.458-.404 1.479-1.114 1.281-1.83-.031-.112-.078-.185-.136-.228" fill="#fff"/><path d="M404.298 12.04c-.026.744-.376 1.44-.727 2.079-1.277 2.324-3.216 4.282-5.513 5.601-2.551 1.465-5.553 2.105-8.482 1.84-1.557-.141-3.01-.574-4.475-1.095-1.451-.512-2.997-1.058-4.55-.72-.654.153-1.27.409-1.862.722-1.233.652-2.346 1.5-3.55 2.202-1.051.612-2.173 1.104-3.417.961-2.246-.259-3.843-2.302-3.602-4.543.139-1.319.841-2.425 1.738-3.371.93-.98 2.035-1.831 3.154-2.582 2.545-1.709 5.451-2.924 8.338-3.914 5.853-2.01 12.338-2.759 18.299-.749.72.241 1.425.523 2.114.843.608.283 1.233.576 1.745 1.018.502.433.811 1.036.789 1.707" class="E"/><path d="M379.638 45.63c-.193 1.069-.67 2.122-1.676 2.645-1.224.635-2.711.477-3.999.157-1.45-.356-2.845-.994-4.047-1.883-2.244-1.664-4.431-4.792-3.053-7.657.159-.312.357-.601.593-.86 1.91-2.108 5.085-1.79 7.494-.888 1.171.438 2.411 1.047 3.274 1.98.727.786 1.108 1.877 1.324 2.908.246 1.177.306 2.413.09 3.599" class="B"/><g class="H"><path d="M375.304 42.991c-.309-1.378-1.565-2.265-2.665-3.011-1.281-.868-2.817-1.561-4.387-1.132-.354.097-.203.647.151.55 1.419-.388 2.798.295 3.948 1.074.976.662 2.128 1.445 2.403 2.67.08.358.63.206.55-.151"/><path d="M372.109 40.049c-1.249.124-2.333.936-2.81 2.095-.058.142.064.314.199.351.164.045.292-.056.351-.2.373-.906 1.297-1.581 2.26-1.676.153-.015.285-.12.285-.285 0-.142-.131-.3-.285-.285"/></g><path d="M388.497 30.378c-.769.27-1.607.161-2.385.394-.824.248-1.545.744-2.347 1.049-.599.229-1.391.341-1.819-.258-.398-.551-.166-1.338.196-1.848.914-1.259 2.394-1.952 3.842-2.409.988-.311 2.256-.606 3.222-.079 1.448.793.543 2.71-.709 3.151m12.349-3.2c.816-.002 1.569-.384 2.38-.424.86-.041 1.704.186 2.562.206.641.016 1.426-.142 1.629-.85.19-.653-.29-1.317-.802-1.677-1.281-.882-2.908-1.042-4.426-.989-1.035.036-2.329.181-3.064 1-1.101 1.23.393 2.736 1.72 2.734" class="E"/><path d="M404.477 14.707c-.701 1.354-1.872 2.455-3.286 3.037-.142.058-.244.19-.2.351.037.135.208.258.351.199a7.14 7.14 0 0 0 3.627-3.299c.168-.325-.324-.614-.493-.288m-28.058 6.95c-3.575-1.525-7.586-3.072-11.475-1.751-.345.118-.197.669.151.55 3.736-1.269 7.601.228 11.036 1.693.334.142.625-.349.288-.493m-10.984 2.041c.231-.281-.17-.687-.403-.403-3.363 4.095-4.519 9.68-2.998 14.764a16.09 16.09 0 0 0 1.873 4.078c.197.308.691.023.492-.288-2.779-4.328-3.242-9.875-1.154-14.585a15.53 15.53 0 0 1 2.191-3.566m2.059 3.001a8.92 8.92 0 0 0-.138 5.122c.096.354.646.204.55-.151a8.37 8.37 0 0 1 .138-4.819c.116-.349-.435-.499-.55-.151m22.499-23.455c-.192-.312-.685-.026-.493.288.774 1.259.291 2.8-.641 3.827-.496.547-1.104.948-1.703 1.371-.585.412-1.109.864-1.544 1.435-.842 1.104-1.312 2.428-2.025 3.609-.673 1.113-1.587 2.08-2.653 2.824-1.208.845-2.588 1.406-4.045 1.633-.362.057-.208.606.151.55 2.708-.422 5.191-2.003 6.742-4.26.819-1.192 1.29-2.582 2.108-3.773.439-.641.994-1.134 1.627-1.577.627-.438 1.26-.865 1.773-1.439 1.082-1.212 1.605-3.017.702-4.487m8.949 7.3c-.255 1.799-1.747 3.114-3.201 4.039-1.548.985-3.334 1.631-5.168 1.778-1.023.082-2.049.01-3.047-.231-.357-.087-.509.464-.151.55 1.899.46 3.898.339 5.755-.251 1.819-.577 3.609-1.587 4.922-2.986.719-.766 1.29-1.694 1.44-2.748.051-.359-.499-.514-.55-.151" fill="#2d1413"/><path d="M350.131 167.494c-.786 1.168-1.968 2.015-3.274 2.509-1.473.557-3.088.728-4.655.648-1.432-.073-2.869-.397-4.129-1.096-1.167-.644-2.158-1.648-2.721-2.865-.523-1.13-.724-2.575-.235-3.755.861-2.074 3.702-1.871 5.499-1.48l1.045.273c1.5.438 2.962 1.015 4.526 1.196l2.438.257c.608.106 1.229.302 1.704.713 1.112.955.491 2.576-.196 3.6" class="B"/><path d="M337.532 159.392a189.6 189.6 0 0 0-9.718-9.633l-2.881-2.602c-.274-.242-.679.16-.403.403a189.54 189.54 0 0 1 9.914 9.431l2.685 2.804c.252.268.654-.136.403-.403" class="C"/><g class="J"><path d="M361.505 184.593c-2.235-6.616-3.012-14.061-3.363-21.418l-.179-4.779-.03-1.042-.802-.061c-4.731-.342-9.517-.449-14.277.756l-.259.068-.793.222.028 1.034c.223 7.758.664 15.57 2.492 22.823a48.03 48.03 0 0 0 .983 3.397l.323.943a20.68 20.68 0 0 1 .821-.218c4.087-1.039 8.253-1.092 12.324-.87l2.18.143.928.074-.377-1.071"/><path d="M349.297 190.101c.583-4.989 2.371-10.067 4.408-14.958l1.355-3.161.301-.686-.502-.287c-2.97-1.679-6.049-3.222-9.513-3.904l-.189-.036a20.29 20.29 0 0 0-.584-.1l-.3.681c-2.244 5.112-4.362 10.325-5.407 15.603-.167.84-.303 1.679-.406 2.511a21.22 21.22 0 0 0-.08.712c.201.034.403.069.601.111 2.977.583 5.701 1.831 8.279 3.228l1.373.764.581.334.085-.812"/><path d="M364.904 183.275c-.383-6.973.862-14.354 2.494-21.537l1.107-4.652.25-1.012-.756-.274c-4.467-1.597-9.05-2.981-13.958-3.094l-.268-.004c-.275-.004-.548-.002-.824.002l-.249 1.004c-1.862 7.535-3.529 15.179-3.71 22.657a48.03 48.03 0 0 0 .038 3.536l.059.995c.283-.001.568 0 .849.01 4.216.093 8.244 1.158 12.107 2.461l2.062.722.875.319-.076-1.133"/></g><path d="M348.923 174.243l.016.597a24.97 24.97 0 0 1-.504 5.363c-.248 1.214-.357 2.966-1.756 3.335-3.213.846-7.219-.522-9.974-2.114-2.108-1.218-5.141-3.129-5.85-5.635-.859-3.034-.763-6.084.549-8.964.644-1.414 1.515-2.769 2.69-3.8.535-.47 1.268-1.065 1.978-1.237.637-.155 1.248.251 1.774.636 1.506 1.098 2.851 2.393 4.312 3.548a18.28 18.28 0 0 0 2.184 1.497c.571.325 1.14.647 1.695.996.947.592 1.761 1.326 2.234 2.355.492 1.063.607 2.267.653 3.423" class="B"/><path d="M362.929 166.774c-.037 1.562-1.028 3.144-2.387 3.9s-3.089.591-4.25-.466c-1.361-1.238-1.122-3.23-.206-4.662.943-1.446 2.904-2.831 4.696-2.177 1.391.509 2.179 1.965 2.147 3.405" class="D"/><g class="B"><path d="M360.669 168.747c-.383 1.433-1.812 2.398-2.982 3.167-2.553 1.675-5.534 2.695-8.579 2.914l-.168.013-.016-.597c-.045-1.156-.161-2.36-.653-3.423-.473-1.03-1.287-1.764-2.234-2.355l-1.695-.996c1.468.841 3.078 1.408 4.796 1.33.687-.032 1.363-.205 2.027-.375l5.111-1.322c1.284-.33 2.871-1.166 4-.086.474.454.557 1.117.393 1.73"/><path d="M361.17 171.973c-.509 1.393-2.019 2.226-3.253 2.888a18.13 18.13 0 0 1-8.806 2.137c-1.408-.026-2.888-.158-4.201-.704-1.101-.457-2.237-1.394-2.388-2.653-.13-1.08.677-1.978 1.554-2.481.486-.279 1.019-.478 1.572-.584.723-.139 1.442-.084 2.165.044l2.508.39c.864.074 1.735.075 2.595-.003 1.691-.153 3.34-.584 4.959-1.076.388-.119.778-.238 1.181-.292.664-.089 1.416.052 1.875.576.431.495.456 1.163.238 1.758"/><path d="M360.685 175.465c-.509 1.393-2.019 2.226-3.253 2.888a18.13 18.13 0 0 1-8.806 2.137c-1.408-.026-2.888-.158-4.201-.704-1.101-.457-2.237-1.394-2.388-2.653-.13-1.081.677-1.978 1.554-2.481.486-.278 1.019-.478 1.572-.584.723-.139 1.442-.084 2.165.044l2.508.39c.864.074 1.735.075 2.595-.003 1.691-.153 3.34-.584 4.959-1.076.388-.119.778-.238 1.181-.292.664-.089 1.416.052 1.875.576.431.495.456 1.162.238 1.758"/><path d="M359.269 178.764c-.509 1.393-2.019 2.226-3.253 2.888a18.13 18.13 0 0 1-8.806 2.137c-1.408-.026-2.888-.158-4.201-.704-1.101-.457-2.237-1.394-2.388-2.653-.13-1.08.677-1.977 1.554-2.481.486-.279 1.019-.478 1.572-.584.723-.139 1.442-.084 2.165.044l2.508.39c.864.074 1.735.075 2.595-.003 1.691-.153 3.34-.584 4.959-1.076.388-.119.778-.238 1.181-.292.665-.09 1.416.052 1.875.576.431.495.456 1.163.238 1.758"/></g><path d="M358.777 177.386a22.81 22.81 0 0 1-8.603 3.4 22.22 22.22 0 0 1-2.635.297c-.362.019-.408.588-.042.569 3.182-.166 6.315-.976 9.17-2.395.815-.406 1.604-.86 2.365-1.36.303-.198.052-.711-.255-.51m1.077-3.941c-3.38 2.019-7.131 3.782-11.149 3.758-.366-.002-.41.567-.042.569 3.194.019 6.256-1.045 9.068-2.489a42.7 42.7 0 0 0 2.378-1.328c.312-.187.061-.699-.255-.51m-.094-3.78l-4.823 1.918-2.444.765c-.821.228-1.658.4-2.513.35-.367-.022-.409.547-.042.569.857.051 1.702-.1 2.527-.321l2.572-.799 4.978-1.971c.334-.151.079-.662-.255-.51" class="H"/><path d="M351.552 157.245a54.43 54.43 0 0 0-1.791 10.282c-.028.366.542.364.57 0a53.69 53.69 0 0 1 1.771-10.131c.098-.354-.452-.505-.55-.151m9.71 25.56a17.15 17.15 0 0 1-3.605-1.557c-.319-.183-.606.309-.288.493a17.81 17.81 0 0 0 3.741 1.614c.352.106.502-.444.151-.55m-10.539.808c-.16-.036-.297.048-.351.199a7.22 7.22 0 0 0-.358 1.57c-.018.148.144.291.285.285.17-.007.267-.126.285-.285l.007-.057.002-.019.011-.074.027-.168.077-.377a7.06 7.06 0 0 1 .213-.724c.05-.141-.056-.318-.199-.351" class="D"/><g class="B"><path d="M465.32 96.822l-1.31 2.479c-1.33 2.635-2.501 5.35-3.509 8.126l-.218.613c-.206.029-.413.045-.623.053-.753.031-1.511-.053-2.246-.218-1.248-.279-2.436-.786-3.59-1.332l-3.342-1.759c-.969-.589-1.904-1.279-2.607-2.177a5.52 5.52 0 0 1-.446-.658 3.88 3.88 0 0 1-.258-.534l.379-.613c2.259-3.608 5.237-6.957 8.374-9.837.299-.275.675-.567 1.07-.469.182.045.332.167.476.287.976.814 1.922 1.664 2.833 2.55.448.435.861.952 1.339 1.351.387.322.847.455 1.339.611.849.269 1.715.513 2.476.994.259.163.102.531-.138.535"/><path d="M484.069 98.698c-2.318 1.915-4.9 3.452-7.952 4.351-3.24.954-7.457 1.248-10.704.238-3.922-1.22-7.614-4.154-10.057-7.424-.731-.978-1.111-2.183-.544-3.309.355-.706.842-1.397 1.603-1.698.769-.304 1.64-.157 2.417.033 1.336.326 2.649.773 3.967 1.162 2.36.697 4.739 1.356 7.166 1.774 2.741.471 5.76.717 8.538.617 2.587-.093 5.483-1.769 7.984-2.568 1.142-.365 2.348-.707 3.524-.477.138.027.284.068.373.177.191.234-.005.576-.198.808-1.915 2.298-3.894 4.481-6.117 6.317"/></g><path d="M506.317 75.764c-.58 5.446-3.317 10.451-7.18 14.274-4.208 4.163-9.647 6.79-15.408 8.007-3.102.656-6.283.923-9.451.876-3.175-.047-6.425-.334-9.513-1.104-2.888-.721-5.569-2.02-7.733-4.087-1.961-1.874-3.427-4.224-4.405-6.745-2.276-5.875-1.576-12.394.499-18.22 2.259-6.339 6.081-11.931 9.757-17.51 3.615-5.48 7.185-11.127 9.017-17.491.019-.065.051-.112.094-.145-.014-.025-.031-.047-.045-.069-.196-.314.297-.599.491-.289.709 1.136 1.515 2.205 2.407 3.205 3.692 4.142 8.535 7.003 13.143 9.995 2.348 1.525 4.678 3.095 6.831 4.891 2.336 1.949 4.462 4.156 6.254 6.616 3.709 5.093 5.916 11.453 5.242 17.795" class="J"/><path d="M495.85 81.392c-.719 1.909-1.755 3.695-3.116 5.217-1.287 1.437-2.856 2.621-4.564 3.513-3.486 1.82-7.546 2.496-11.448 2.118-3.993-.389-7.988-1.854-10.987-4.574-7.467-6.772-6.08-18.659-2.096-26.947 3.308-6.881 9.937-12.56 17.951-11.3 7.407 1.165 12.778 7.264 14.894 14.21 1.724 5.66 1.448 12.232-.635 17.764" class="D"/><path d="M481.48 83.987c-.414 0-.807-.173-1.088-.475l-8.29-8.929c-.557-.6-.522-1.541.078-2.098a1.49 1.49 0 0 1 1.01-.397h4.102a3.62 3.62 0 0 0 3.299-2.133h-6.027c-.82-.013-1.477-.691-1.459-1.511.013-.803.661-1.446 1.459-1.459h6.023a3.62 3.62 0 0 0-3.294-2.129h-4.102c-.82 0-1.485-.665-1.485-1.485s.665-1.485 1.485-1.485h12.94c.82 0 1.485.665 1.485 1.485s-.665 1.485-1.485 1.485h-3.333a6.47 6.47 0 0 1 .911 2.129h2.426c.82.013 1.477.691 1.459 1.511-.013.803-.661 1.446-1.459 1.459h-2.422c-.695 2.988-3.355 5.103-6.42 5.108h-.691l5.971 6.433c.557.6.522 1.541-.078 2.098-.276.25-.639.393-1.015.393z" fill="#fff" fill-opacity=".837" fill-rule="nonzero"/><path d="M487.572 23.346c-.014 1.161-.584 2.151-1.277 3.042-.778 1.002-1.631 1.947-2.485 2.881-3.232 3.535-6.995 7.342-7.474 12.369-.016.175-.169.336-.361.275-.93-.296-1.827-.682-2.678-1.149-.077.167-.293.267-.446.087-.198-.232-.389-.47-.585-.707a15.86 15.86 0 0 1-1.228-.892c-.2-.163-.059-.407.138-.46a67.1 67.1 0 0 1-3.877-5.476c-1.336-2.106-2.593-4.291-3.645-6.553-.507-1.086-.929-2.241-.953-3.454-.02-1.132.318-2.26 1.101-3.097s1.876-1.366 2.908-1.81a17.82 17.82 0 0 1 3.376-1.071c2.32-.493 4.713-.573 7.071-.397 1.189.09 2.379.238 3.554.448 1.151.206 2.291.501 3.35 1.008 1.896.908 3.535 2.747 3.509 4.955" class="J"/><path d="M475.826 38.556c-.711.741-1.797.756-2.739.56-.787-.164-1.796-.388-2.204-1.162-.171-.325-.664-.037-.493.287.497.941 1.672 1.254 2.638 1.443 1.116.218 2.368.142 3.201-.725.254-.265-.148-.669-.403-.403" class="D"/><g class="F"><path d="M476.533 25.459a5.84 5.84 0 0 1-.34.678c-.112.191-.238.379-.375.558-1.307-.02-2.619-.145-3.9-.315-1.857-.251-3.788-.576-5.484-1.413-.045-.224-.074-.452-.086-.682-.092-1.55.497-3.158 1.568-4.338.792-.861 1.864-1.527 3.018-1.755 2.566-.507 5.006 1.401 5.779 3.773.381 1.169.277 2.401-.181 3.495"/><path d="M483.183 24.614l-.11.257a6.9 6.9 0 0 1-.424.794c-2.077.808-4.311 1.067-6.549 1.03a32.12 32.12 0 0 1-3.576-.275 3.77 3.77 0 0 1-.236-.599l-.098-.369c-.238-1.104-.002-2.234.694-3.126.56-.717 1.368-1.228 2.259-1.375 1.248-1.803 3.753-2.709 5.798-1.751 1.973.924 3.067 3.366 2.242 5.413"/></g><path d="M487.031 22.137c-.092.507-.401.945-.747 1.316-.705.755-1.58 1.377-2.48 1.876a12.53 12.53 0 0 1-1.529.712c-2.077.808-4.311 1.067-6.549 1.03a32.12 32.12 0 0 1-3.576-.275l-.324-.041c-1.857-.251-3.788-.576-5.484-1.413l-.415-.216c-.784-.438-1.519-1.051-1.925-1.867-.393-.796-.474-1.693-.122-2.515.145-.338.635-.047.493.287-.346.808-.084 1.77.431 2.443.383.501.896.884 1.452 1.185a8.03 8.03 0 0 0 .802.379c1.542.642 3.203.943 4.855 1.159l.546.069c1.207.147 2.423.244 3.641.246a20.57 20.57 0 0 0 2.098-.098c1.545-.155 3.083-.525 4.501-1.169l.373-.177c.725-.363 1.42-.796 2.047-1.313.32-.265.633-.544.902-.862a2.31 2.31 0 0 0 .342-.519c.041-.088.071-.179.093-.273.004-.014.008-.059.016-.09-.184-.065-.303-.297-.118-.46.418-.369.747.197.678.584" class="D"/><g class="C"><path d="M476.313 20.539c-.166-.327-.658-.039-.493.288.794 1.563 1.468 3.497.527 5.153-.181.319.311.607.493.287 1.05-1.848.364-3.973-.527-5.728m-4.138 1.624a.29.29 0 0 0-.39-.103 6.93 6.93 0 0 0-1.991 1.702c-.096.12-.118.286 0 .403.099.1.307.121.403 0a6.45 6.45 0 0 1 1.876-1.612.29.29 0 0 0 .102-.39m.89 1.45c-.045-.139-.2-.251-.351-.199-.398.137-.732.391-.974.735a.29.29 0 0 0 .102.39.29.29 0 0 0 .219.029.32.32 0 0 0 .171-.131l.014-.019c.074-.092.157-.175.248-.25a1.7 1.7 0 0 1 .309-.181l.061-.023c.071-.024.132-.065.171-.131s.051-.151.029-.22m7.692-1.859a2.22 2.22 0 0 0-1.914 1.455c-.05.141.057.319.199.351.161.036.297-.048.351-.199l.023-.061.064-.13a2 2 0 0 1 .138-.215l.046-.056.089-.095.095-.089.045-.039.02-.016.204-.134.115-.061.054-.025.019-.008c.081-.03.163-.057.248-.077l.116-.023.089-.009c.148-.011.293-.123.285-.285-.006-.145-.126-.297-.285-.285m.035 1.567c-.055-.05-.126-.087-.202-.084l-.076.01c-.048.013-.09.038-.126.073l-.493.421c-.053.045-.084.135-.084.202a.29.29 0 0 0 .084.202c.054.05.126.087.202.084l.076-.01c.048-.013.09-.038.126-.073l.493-.421a.29.29 0 0 0 .084-.202.29.29 0 0 0-.084-.202m-101.457 98.794c-.066 1.287-.481 2.611-2.089 1.668-1.277-.748-2.221-1.969-3.362-2.891-1.671-1.349-3.187-2.876-4.723-4.373a78.74 78.74 0 0 1-15.627-21.599 77.68 77.68 0 0 1-4.845-12.466l-1.588-6.502c-.46-2.498.64-3.478 3.029-4.082.985-.249 2.396-.924 3.422-.611 1.147.351 1.508 1.857 1.772 2.866 1.601 6.11 4.619 12.115 7.576 17.668a119.81 119.81 0 0 0 10.622 16.525l.722.934c1.356 1.735 2.77 3.448 3.774 5.407 1.089 2.125 1.175 4.124 1.309 6.431.018.305.027.664.008 1.026"/><path d="M412.428 81.785l-.11.911-.135.895c-1.941 12.817-4.797 26.388-11.287 36.994l-.099.158c-.225.361-.469.731-.808.917-.952.525-.911-.5-.979-1.258-.333-3.687-.109-7.454.661-11.041.395-1.839.937-3.622 1.443-5.416l1.512-5.517 2.798-11.121 2.46-11.095a.31.31 0 0 1 .017-.079c.021-.108.073-.174.136-.206.144-.105.343-.049.514.03.703.323 1.374.803 2.022 1.263 1.623 1.156 2.025 2.592 1.856 4.564"/></g><path d="M306.738 40.611l-5.662-1.748-1.747-5.662c-.037-.12-.148-.201-.273-.201s-.236.082-.273.201l-1.747 5.662-5.662 1.748c-.12.037-.201.148-.201.273s.082.236.201.273l5.662 1.747 1.747 5.662c.037.12.148.201.273.201s.236-.082.273-.201l1.747-5.662 5.662-1.747c.12-.037.201-.148.201-.273s-.082-.236-.201-.273" fill="#a7bdfa"/><path d="M193.929 273.707l-3.975-1.227-1.227-3.975a.2.2 0 0 0-.192-.142c-.088 0-.166.057-.192.142l-1.227 3.975-3.975 1.227a.2.2 0 0 0-.141.192.2.2 0 0 0 .141.192l3.975 1.227 1.227 3.975c.026.084.104.142.192.142a.2.2 0 0 0 .192-.142l1.227-3.975 3.975-1.227a.2.2 0 0 0 .141-.192.2.2 0 0 0-.141-.192" fill="#dacaff"/><g fill="#ded4bb"><path d="M470.429 157.063l.819-2.551-13.181-4.229-.819 2.551z"/><path d="M467.638 147.492l-2.551-.819-4.229 13.181 2.551.819z"/></g><path d="M261.731 211.673c0 3.084-2.5 5.584-5.584 5.584s-5.584-2.5-5.584-5.584 2.5-5.584 5.584-5.584 5.584 2.5 5.584 5.584" fill="#ffd03f"/><path d="M499.882 263.445a6 6 0 1 1-12 0 6 6 0 1 1 12 0" fill="#f38c6f" opacity=".2"/></g></svg>