<svg width="74" height="50" viewBox="0 0 74 50" xmlns="http://www.w3.org/2000/svg">
    <g fill="#B6AC52" fill-rule="nonzero" opacity=".9">
        <path d="M28.65 13.558a7.435 7.435 0 0 1 14.87 0 .607.607 0 0 0 1.21 0 8.62 8.62 0 0 0-5.595-7.94 8.826 8.826 0 0 0-9.656 2.474 8.494 8.494 0 0 0-2.04 5.466.607.607 0 0 0 1.212 0z"/>
        <path d="M44.132 14.539a.976.976 0 0 1-1.014-.98 7.034 7.034 0 0 0-14.066 0 .98.98 0 0 1-1.014.973.963.963 0 0 1-1-.98 8.872 8.872 0 0 1 2.136-5.726 9.22 9.22 0 0 1 6.971-3.155 8.828 8.828 0 0 1 3.133.563 9.051 9.051 0 0 1 4.227 3.282 8.911 8.911 0 0 1 1.629 5.036.93.93 0 0 1-.26.686 1.032 1.032 0 0 1-.742.3zm-8.048-8.666a7.852 7.852 0 0 1 7.836 7.679c0 .16.134.184.212.184a.238.238 0 0 0 .16-.056.136.136 0 0 0 .034-.112 8.117 8.117 0 0 0-1.482-4.59 8.252 8.252 0 0 0-3.852-2.987 8.025 8.025 0 0 0-2.849-.512 8.408 8.408 0 0 0-6.358 2.876 8.075 8.075 0 0 0-1.945 5.206c0 .143.108.174.198.174a.188.188 0 0 0 .211-.188 7.852 7.852 0 0 1 7.837-7.678l-.002.004z"/>
        <path d="M35.48.981v4.694a.607.607 0 0 0 1.21 0V.981a.607.607 0 0 0-1.21 0z"/>
        <path d="M36.086 0a.973.973 0 0 1 1.008.981v4.694a1.008 1.008 0 0 1-2.015 0V.981a.973.973 0 0 1 1.007-.98zm0 5.852c.093 0 .205-.03.205-.178V.98c0-.147-.11-.178-.205-.178-.095 0-.206.03-.206.178v4.694c0 .148.111.178.206.178v-.001zM13.625 25.994a3.415 3.415 0 0 1 6.828 0 .607.607 0 0 0 1.212 0 4.59 4.59 0 0 0-3.033-4.264 4.607 4.607 0 0 0-6.243 4.257.607.607 0 0 0 1.212 0l.024.007z"/>
        <path d="M21.063 26.974a.976.976 0 0 1-1.014-.98 3.014 3.014 0 0 0-6.026 0v.396h-.105a1.001 1.001 0 0 1-.932.58.963.963 0 0 1-1-.981 4.986 4.986 0 0 1 5.044-4.943 5.031 5.031 0 0 1 5.03 4.94.93.93 0 0 1-.26.687c-.196.195-.46.303-.737.301zm-4.028-4.728a3.813 3.813 0 0 1 3.811 3.743c0 .16.134.183.212.183a.238.238 0 0 0 .16-.056.136.136 0 0 0 .034-.113 4.229 4.229 0 0 0-4.228-4.151 4.31 4.31 0 0 0-3.23 1.452A4.238 4.238 0 0 0 12.782 26c0 .14.107.17.197.17a.188.188 0 0 0 .212-.188l.01-.39h.035a3.821 3.821 0 0 1 3.8-3.347v.001z"/>
        <path d="M15.36 28.29a2.956 2.956 0 0 0-5.9-.196c-.02.396-.02.792 0 1.188a.607.607 0 0 0 1.212 0v-1.247c0 .079.02-.1.02-.119a.573.573 0 0 1 .062-.197c0-.02.06-.16.04-.079.062-.126.136-.245.221-.356 0 0 .08-.079 0-.02 0-.019.04-.04.061-.059l.122-.118a1.48 1.48 0 0 1 .264-.198c.208-.133.442-.22.686-.257h.321c.021 0 .203.02.122 0 .076.004.15.018.222.04.08.02.141.04.202.06.101.04 0 0 .08.04.128.06.25.134.365.218-.061-.04.08.079.1.1.06.054.113.114.161.178-.04-.06.061.079.061.1.045.07.086.143.122.218a.15.15 0 0 0 .04.078c-.02-.06 0 0 0 .02.021.078.061.16.08.237a.175.175 0 0 0 .021.1s.021.118 0 .078v.238a.607.607 0 0 0 1.212 0l.103-.047z"/>
        <path d="M10.067 30.26a.973.973 0 0 1-1.008-.98c0-.125 0-.25-.008-.382a6.174 6.174 0 0 1 .011-.845 3.385 3.385 0 0 1 3.465-3.05 3.344 3.344 0 0 1 3.234 3.287v.278l-.14.054a.9.9 0 0 1-.226.395 1.032 1.032 0 0 1-.74.299.976.976 0 0 1-1.014-.98v-.246a.538.538 0 0 1-.018-.103l-.016-.043c-.014-.039-.03-.08-.045-.127a.546.546 0 0 1-.04-.093 1.444 1.444 0 0 0-.074-.134l-.069-.102v-.008a1.898 1.898 0 0 0-.1-.106l-.023-.02a1.178 1.178 0 0 1-.084-.078 2.086 2.086 0 0 0-.255-.146l-.043-.023c-.052-.016-.098-.032-.16-.046l-.044-.011-.039-.01H12.187a1.32 1.32 0 0 0-.506.191l-.098.066a.5.5 0 0 0-.104.083l-.093.092a.602.602 0 0 1-.067.085 1.847 1.847 0 0 0-.16.273h-.009l-.01.028c-.01.028-.02.057-.033.086v.012a.854.854 0 0 1-.02.169v1.168a.973.973 0 0 1-1.02.968zm2.335-4.462A2.579 2.579 0 0 0 9.86 28.13a5.485 5.485 0 0 0 0 .741c0 .133.01.271.01.41 0 .137.11.177.205.177.095 0 .205-.03.205-.178v-1.247h.333v-.28l.046-.037h-.046v-.047l.073.026.042-.034-.022-.008a.42.42 0 0 0-.095 0v-.04l-.212-.08a.292.292 0 0 0 0 .056l.194.067a.398.398 0 0 0-.134.056h-.049l.008.028a.382.382 0 0 0-.126.228c0-.018 0-.052.008-.07a.738.738 0 0 1 .065-.285v-.011a.62.62 0 0 1 .12-.24c.048-.085.101-.168.16-.248a.481.481 0 0 1 .16-.207l.108-.106c.067-.068.143-.129.224-.18l.09-.06.018-.012c.25-.159.53-.265.822-.311l.05.25v-.258h.471v-.008c.096 0 .19.015.283.041l.035.01c.096.024.16.046.23.067h.023a.69.69 0 0 1 .084.039l-.029-.129.196.214c.103.056.202.12.295.19l-.053.076.095.105a.379.379 0 0 1 .082.016.374.374 0 0 0-.095-.16l.051.046.055.05c.065.06.127.127.183.197.044.048.08.102.109.16.046.074.088.16.128.233l.013.024c.021.034.039.071.052.11l-.02.01h.021l.015.063.019.053c.021.052.04.106.054.16l.016.071.01.061a.75.75 0 0 1 .014.16l.086.378a.297.297 0 0 0 .118.022.238.238 0 0 0 .16-.056.136.136 0 0 0 .034-.112v-.281l.09-.035a2.547 2.547 0 0 0-2.445-2.205l-.095-.002z"/>
        <path d="M15.422 28.29a1.552 1.552 0 0 1 .141-.674c.09-.208.22-.397.384-.555.062-.066.13-.125.202-.178l.182-.119s.202-.1.1-.06c.12-.042.241-.075.365-.099.112-.027.228-.04.343-.04h.321c.134.018.263.059.384.119-.101-.04.06.04.08.04.07.035.138.075.202.119a.815.815 0 0 1 .202.178c.173.155.31.344.405.555-.04-.079.04.119.04.138 0 .06.04.119.04.178 0 0 .04.178 0 .079v.257a.607.607 0 0 0 1.212 0 2.889 2.889 0 0 0-1.96-2.71 2.95 2.95 0 0 0-3.959 2.727.607.607 0 0 0 1.212 0l.104.045z"/>
        <path d="M14.705 29.23a.963.963 0 0 1-1-.985 3.386 3.386 0 0 1 .825-2.153 3.33 3.33 0 0 1 2.53-1.143c.388 0 .773.066 1.139.196a3.267 3.267 0 0 1 2.225 3.086.932.932 0 0 1-.26.687c-.195.189-.458.293-.73.29a.976.976 0 0 1-1.014-.98v-.299a.735.735 0 0 1-.035-.138l-.02-.027c0-.021-.016-.044-.022-.07a1.265 1.265 0 0 0-.295-.383l-.026-.029a.658.658 0 0 0-.045-.05l-.014-.01-.071-.052a1.388 1.388 0 0 0-.13-.079.663.663 0 0 1-.172-.08.802.802 0 0 0-.16-.045h-.294a.76.76 0 0 0-.188.018l-.091.016a1.71 1.71 0 0 0-.234.062l-.097.05-.171.116c-.047.036-.09.076-.13.119a1.32 1.32 0 0 0-.294.418v.018c-.072.158-.108.33-.104.504v.589l-.252-.1a1.02 1.02 0 0 1-.87.455zm-.198-.975c0 .143.108.173.198.173a.188.188 0 0 0 .212-.188l.014-.57.16.062c.027-.094.06-.186.102-.275.11-.255.27-.486.47-.68.062-.065.13-.125.2-.18l.063-.048.225-.143.094-.048a.396.396 0 0 0-.18.282l.352.044-.128-.36a.586.586 0 0 1 .07-.024l.207-.067c.053-.015.108-.026.16-.035l.068-.013c.113-.024.227-.035.342-.032h.379c.176.025.347.08.505.16l.08.04c.086.042.168.09.246.143l.029.02.051.038a.93.93 0 0 1 .198.183c.203.184.367.408.481.658l-.348.17.082.06v.253l.35-.079a.361.361 0 0 0-.085-.107.393.393 0 0 0 .01-.25l.014.041c.025.06.042.121.051.185a.717.717 0 0 1 .039.16.552.552 0 0 1 0 .286v.109c0 .16.133.178.211.178a.238.238 0 0 0 .16-.056.136.136 0 0 0 .035-.113v-.01c-.005-1.062-.687-2.001-1.693-2.336-.28-.099-.574-.15-.87-.15a2.53 2.53 0 0 0-2.554 2.519z"/>
        <path d="M20.147 28.29a1.552 1.552 0 0 1 .141-.674c.09-.208.22-.397.384-.555.061-.066.129-.125.202-.178l.181-.119s.202-.1.101-.06c.119-.042.24-.075.364-.099.113-.027.228-.04.344-.04h.32c.134.018.264.059.384.119-.1-.04.061.04.08.04.07.035.138.075.203.119a.815.815 0 0 1 .202.178c.172.155.31.344.404.555-.04-.079.04.119.04.138 0 .06.04.119.04.178 0 0 .04.178 0 .079v.257a.607.607 0 0 0 1.212 0 2.889 2.889 0 0 0-1.956-2.71 2.95 2.95 0 0 0-3.959 2.727.607.607 0 0 0 1.212 0l.1.045z"/>
        <path d="M19.433 29.23a.963.963 0 0 1-1-.985 3.386 3.386 0 0 1 .825-2.153 3.332 3.332 0 0 1 2.53-1.143c.388 0 .773.066 1.138.196a3.267 3.267 0 0 1 2.226 3.086.932.932 0 0 1-.26.687 1.032 1.032 0 0 1-.74.298.976.976 0 0 1-1.014-.98v-.299a.735.735 0 0 1-.035-.138l-.011-.03c0-.021-.016-.044-.023-.07a1.265 1.265 0 0 0-.295-.383l-.024-.034a.658.658 0 0 0-.045-.05l-.015-.01-.07-.052a1.388 1.388 0 0 0-.13-.079.663.663 0 0 1-.172-.08.802.802 0 0 0-.16-.045h-.293a.76.76 0 0 0-.187.018l-.092.016c-.08.015-.159.036-.236.062l-.094.05-.172.116c-.046.036-.09.076-.13.119a1.32 1.32 0 0 0-.294.418v.018c-.072.158-.107.33-.104.504v.589l-.252-.1a1.02 1.02 0 0 1-.871.455zm-.198-.975c0 .143.108.173.198.173a.188.188 0 0 0 .211-.188l.015-.57.16.062c.027-.094.06-.186.101-.275.111-.255.27-.486.47-.68.063-.065.13-.125.201-.18l.064-.048.225-.143.095-.048a.396.396 0 0 0-.186.292l.353.042-.129-.36a.587.587 0 0 1 .071-.024l.205-.067c.053-.015.11-.026.16-.035l.068-.013c.113-.024.227-.035.342-.032h.379c.176.025.347.08.505.16l.08.04c.085.042.167.09.246.143l.029.02.051.038a.93.93 0 0 1 .198.183c.203.184.367.408.481.658l-.348.17.082.06v.253l.35-.079a.361.361 0 0 0-.085-.107.393.393 0 0 0 .01-.256l.015.04c.025.06.042.122.052.185a.717.717 0 0 1 .038.16.552.552 0 0 1 0 .286v.11c0 .16.133.178.212.178a.238.238 0 0 0 .16-.057.136.136 0 0 0 .034-.112v-.011a2.473 2.473 0 0 0-1.695-2.327c-.279-.1-.573-.15-.87-.15a2.53 2.53 0 0 0-1.925.866 2.558 2.558 0 0 0-.623 1.643z"/>
        <path d="M24.894 28.29a1.552 1.552 0 0 1 .141-.674c.09-.208.22-.397.384-.555.061-.066.129-.125.202-.178l.181-.119s.202-.1.101-.06c.119-.042.24-.075.364-.099.113-.027.228-.04.344-.04h.32c.134.018.264.059.384.119-.1-.04.061.04.08.04.07.035.138.075.203.119a.815.815 0 0 1 .202.178c.172.155.31.344.404.555-.04-.079.04.119.04.138 0 .06.04.119.04.178 0 0 .04.178 0 .079v.257a.607.607 0 0 0 1.212 0 2.889 2.889 0 0 0-1.956-2.71 2.95 2.95 0 0 0-3.959 2.727.607.607 0 0 0 1.212 0l.1.045z"/>
        <path d="M24.18 29.23a.963.963 0 0 1-1-.98v-.005a3.386 3.386 0 0 1 .825-2.153 3.332 3.332 0 0 1 2.53-1.143c.388 0 .773.066 1.138.196A3.267 3.267 0 0 1 29.9 28.23a.932.932 0 0 1-.26.687 1.032 1.032 0 0 1-.74.298.976.976 0 0 1-1.014-.98v-.299a.735.735 0 0 1-.035-.138l-.011-.03c0-.021-.016-.044-.023-.07a1.265 1.265 0 0 0-.295-.383l-.024-.034a.658.658 0 0 0-.045-.05l-.015-.01-.07-.052a1.388 1.388 0 0 0-.13-.079.663.663 0 0 1-.172-.08.802.802 0 0 0-.16-.045h-.292a.76.76 0 0 0-.188.018l-.092.016c-.08.015-.159.036-.236.062l-.094.05-.172.116c-.046.036-.09.076-.13.119a1.32 1.32 0 0 0-.294.418v.018c-.072.158-.107.33-.104.504v.589l-.252-.1a1.02 1.02 0 0 1-.871.455zm-.198-.975c0 .143.108.173.198.173a.188.188 0 0 0 .211-.188l.015-.57.16.062c.027-.094.06-.186.101-.275.111-.255.27-.486.47-.68.063-.065.13-.125.201-.18l.064-.048.225-.143.095-.048a.396.396 0 0 0-.186.292l.353.042-.129-.36a.587.587 0 0 1 .071-.024l.205-.066c.053-.014.11-.025.16-.035l.068-.013c.113-.023.227-.034.342-.032h.379c.176.026.347.08.505.16l.08.04c.085.043.168.09.246.144l.029.02.051.037a.93.93 0 0 1 .198.183c.203.185.367.409.481.658l-.348.17.082.06v.253l.35-.078a.361.361 0 0 0-.085-.108.393.393 0 0 0 .01-.255l.015.04c.025.06.042.121.052.185a.717.717 0 0 1 .038.16.552.552 0 0 1 0 .286v.109c0 .16.133.178.212.178a.238.238 0 0 0 .16-.056.136.136 0 0 0 .034-.112v-.012c-.005-1.06-.686-2-1.693-2.335-.28-.099-.573-.15-.87-.149a2.53 2.53 0 0 0-2.55 2.515z"/>
        <path d="M29.62 28.29a1.552 1.552 0 0 1 .141-.674c.09-.208.22-.397.384-.555.061-.066.13-.125.202-.178l.181-.119s.202-.1.101-.06c.12-.042.24-.075.365-.099.112-.027.227-.04.343-.04h.321c.133.018.263.059.384.119-.102-.04.06.04.08.04.07.035.137.075.202.119a.815.815 0 0 1 .202.178c.172.155.31.344.405.555-.04-.079.04.119.04.138 0 .06.04.119.04.178 0 0 .04.178 0 .079v.257a.607.607 0 0 0 1.212 0 2.889 2.889 0 0 0-1.957-2.71 2.95 2.95 0 0 0-3.959 2.727.607.607 0 0 0 1.212 0l.1.045z"/>
        <path d="M28.906 29.23a.963.963 0 0 1-1-.98v-.005a3.386 3.386 0 0 1 .825-2.153 3.33 3.33 0 0 1 2.53-1.143c.388 0 .773.066 1.138.196a3.267 3.267 0 0 1 2.226 3.086.932.932 0 0 1-.26.687 1.032 1.032 0 0 1-.74.298.976.976 0 0 1-1.014-.98v-.299a.735.735 0 0 1-.035-.138l-.011-.03c0-.021-.016-.044-.023-.07a1.266 1.266 0 0 0-.295-.383l-.024-.034a.653.653 0 0 0-.045-.05l-.014-.01-.071-.052a1.388 1.388 0 0 0-.13-.079.663.663 0 0 1-.172-.08.802.802 0 0 0-.16-.045h-.29a.76.76 0 0 0-.188.018L31.06 27a1.71 1.71 0 0 0-.234.062l-.097.05-.171.116c-.047.036-.09.076-.13.119a1.32 1.32 0 0 0-.294.418v.018c-.072.158-.108.33-.104.504v.589l-.252-.1a1.02 1.02 0 0 1-.873.455zm-.198-.975c0 .143.108.173.198.173a.188.188 0 0 0 .212-.188l.014-.57.16.062c.027-.094.06-.186.102-.275.11-.255.27-.486.47-.68a1.74 1.74 0 0 1 .2-.18l.065-.048.224-.143.095-.048a.396.396 0 0 0-.186.292l.353.043-.128-.36a.586.586 0 0 1 .07-.023l.206-.068c.052-.014.107-.025.16-.035l.067-.013c.113-.023.227-.034.342-.032h.379c.175.026.345.08.502.16l.084.042c.085.043.167.09.245.143l.03.021.05.037a.93.93 0 0 1 .198.183c.203.184.367.408.481.658l-.348.17.082.06v.253l.35-.08a.361.361 0 0 0-.085-.108.393.393 0 0 0 .011-.255l.014.04c.025.06.042.121.052.185a.719.719 0 0 1 .038.16.552.552 0 0 1 0 .286v.109c0 .16.133.178.212.178a.238.238 0 0 0 .16-.056.136.136 0 0 0 .034-.112v-.012c-.005-1.06-.686-2-1.693-2.335-.279-.099-.573-.15-.87-.149a2.53 2.53 0 0 0-2.55 2.515z"/>
        <path d="M34.369 28.29a1.552 1.552 0 0 1 .14-.674c.09-.208.221-.397.384-.555.062-.066.13-.125.203-.178l.18-.119s.203-.1.102-.06c.119-.042.24-.075.364-.099.113-.027.228-.04.344-.04h.32c.134.018.264.059.384.119-.1-.04.061.04.08.04.07.035.138.075.203.119a.815.815 0 0 1 .202.178c.172.155.31.344.404.555-.04-.079.04.119.04.138 0 .06.04.119.04.178 0 0 .04.178 0 .079v.257a.607.607 0 0 0 1.212 0 2.889 2.889 0 0 0-1.956-2.71 2.95 2.95 0 0 0-3.96 2.727.607.607 0 0 0 1.212 0l.102.045z"/>
        <path d="M33.654 29.23a.963.963 0 0 1-1-.98v-.005a3.386 3.386 0 0 1 .825-2.153 3.33 3.33 0 0 1 2.53-1.148c.387 0 .772.066 1.137.196a3.267 3.267 0 0 1 2.233 3.086.932.932 0 0 1-.26.687 1.032 1.032 0 0 1-.74.298.976.976 0 0 1-1.014-.98v-.299a.735.735 0 0 1-.036-.138l-.01-.03c0-.021-.017-.044-.023-.07a1.266 1.266 0 0 0-.296-.383l-.028-.029a.642.642 0 0 0-.045-.05l-.015-.01-.07-.052a1.387 1.387 0 0 0-.13-.079.663.663 0 0 1-.172-.08.802.802 0 0 0-.16-.045h-.293a.76.76 0 0 0-.187.018l-.092.016c-.08.015-.159.036-.236.062l-.095.05-.171.116c-.047.036-.09.076-.13.119a1.32 1.32 0 0 0-.294.418v.018c-.072.158-.108.33-.104.504v.589l-.252-.1a1.02 1.02 0 0 1-.872.455zm-.197-.975c0 .143.108.173.197.173a.188.188 0 0 0 .212-.188l.015-.57.16.062c.027-.094.06-.186.101-.275.11-.255.27-.486.47-.68.063-.065.13-.125.201-.18l.064-.048.225-.143.095-.048a.396.396 0 0 0-.187.294l.354.04-.129-.36a.587.587 0 0 1 .07-.024l.205-.066c.054-.014.109-.025.16-.035l.067-.013c.113-.023.227-.034.342-.032h.379c.175.026.345.08.502.16l.084.042c.085.043.167.09.245.143l.03.021.05.037a.93.93 0 0 1 .198.183c.203.184.367.408.481.658l-.348.17.082.06v.253l.35-.079a.361.361 0 0 0-.085-.107.393.393 0 0 0 .011-.255l.014.04c.025.059.042.12.052.184a.717.717 0 0 1 .038.16.552.552 0 0 1 0 .286v.11c0 .16.134.178.212.178a.238.238 0 0 0 .16-.056.136.136 0 0 0 .034-.113v-.011c-.005-1.06-.686-2-1.693-2.335a2.592 2.592 0 0 0-.866-.144 2.53 2.53 0 0 0-2.552 2.508zM17.642 22.03v-2.632a.602.602 0 0 0-.607-.594.615.615 0 0 0-.607.594v2.632a.602.602 0 0 0 .607.594.615.615 0 0 0 .607-.594z"/>
        <path d="M17.006 23.028a1 1 0 0 1-.977-.998v-2.632a1.011 1.011 0 0 1 1.709-.716.997.997 0 0 1 .305.716v2.632c-.009.54-.441.98-.982.995l-.055.003zm.061-3.823c-.117 0-.236.077-.236.195v2.63a.21.21 0 0 0 .175.194c.11 0 .23-.077.23-.194v-2.632a.21.21 0 0 0-.169-.193zM39.741 31.816H5.278l.304 1.109 2.95-1.926c.545-.356 1.07-.693 1.615-1.05.445-.277-.242-.04.061-.078a42.906 42.906 0 0 1 5.296 0h24.237a.594.594 0 1 0 0-1.188H16.066a50.407 50.407 0 0 0-5.737 0 3.595 3.595 0 0 0-1.637.793l-3.71 2.419a.599.599 0 0 0 .303 1.108H39.74a.594.594 0 0 0 0-1.187z"/>
        <path d="m5.34 33.562-.044-.16h-.018a.963.963 0 0 1-.939-.689 1.02 1.02 0 0 1 .422-1.154l.031-.02-.034-.126h.223l3.496-2.272.221-.15a3.37 3.37 0 0 1 1.587-.704 16.745 16.745 0 0 1 1.948-.1c.657 0 1.324.026 1.97.05.645.024 1.26.048 1.866.048H39.74a.995.995 0 1 1 0 1.99h-24.24a43.84 43.84 0 0 1-1.765-.048 44.31 44.31 0 0 0-1.79-.048c-.51-.003-1.021.021-1.53.074l-.059.038-.802.524-.802.524-.116.076h31.104a.995.995 0 0 1 0 1.99H5.578l-.239.157zm1.47-.963h32.931a.193.193 0 0 0 0-.385H7.403l-.592.385zm-.359-1.187h.714l1.148-.747.809-.52.626-.406a.575.575 0 0 1 .691-.293l1.092-.134-.084.074h.512c.607 0 1.224.026 1.821.05.597.024 1.167.048 1.726.048H39.74a.193.193 0 1 0 0-.385H16.066c-.621 0-1.27-.024-1.897-.048a51.413 51.413 0 0 0-1.94-.048 15.96 15.96 0 0 0-1.854.094c-.45.08-.87.276-1.221.567l-.233.16-2.47 1.588zM59.761 25.994a4.59 4.59 0 0 0-3.03-4.264 4.607 4.607 0 0 0-6.242 4.257.607.607 0 0 0 1.211 0 3.415 3.415 0 0 1 6.829 0 .607.607 0 0 0 1.212 0l.02.007z"/>
        <path d="M59.142 26.974a.976.976 0 0 1-1.014-.98 3.014 3.014 0 0 0-6.026 0 .98.98 0 0 1-1.015.975.963.963 0 0 1-1-.98 5.044 5.044 0 0 1 6.783-4.633 4.975 4.975 0 0 1 3.291 4.63v.406h-.098a.9.9 0 0 1-.186.28c-.195.195-.46.304-.735.302zm-4.028-4.728a3.813 3.813 0 0 1 3.815 3.744c0 .161.133.183.211.183a.238.238 0 0 0 .16-.056.136.136 0 0 0 .035-.112l-.012-.413a4.234 4.234 0 0 0-4.204-3.739 4.31 4.31 0 0 0-3.23 1.453 4.238 4.238 0 0 0-1.013 2.696c0 .14.107.17.197.17a.188.188 0 0 0 .212-.188 3.813 3.813 0 0 1 3.83-3.74l-.001.002z"/>
        <path d="M58.023 28.29a1.735 1.735 0 0 1 1.798-1.703h.16a.73.73 0 0 0 .141.02c.07.007.14.028.203.06a.16.16 0 0 1 .08.04c.101.04-.061-.04.02 0 .225.092.425.234.587.415a.433.433 0 0 1 .08.1c.038.05.072.104.1.16.041.06.062.119.102.178 0 0 .04.1.02.04-.018-.06.022.06.022.079.075.196.117.404.122.614v.99a.607.607 0 0 0 1.211 0v-.993a2.845 2.845 0 0 0-.788-1.96 3.05 3.05 0 0 0-4.1-.238 2.956 2.956 0 0 0-1.03 2.177.607.607 0 0 0 1.211 0l.061.021z"/>
        <path d="M62.063 30.26a.973.973 0 0 1-1.008-.98v-1.02a1.303 1.303 0 0 0-.093-.446l-.024-.076c-.02-.032-.034-.06-.047-.087-.013-.025-.02-.036-.024-.046a1.175 1.175 0 0 1-.06-.103v-.013l-.03-.029-.022-.041-.013-.011-.015-.015a1.123 1.123 0 0 0-.398-.292l-.059-.02-.075-.031-.013-.013-.055-.023h-.016a.875.875 0 0 1-.173-.019h-.154a1.334 1.334 0 0 0-1.36 1.302v.553l-.198-.064c-.19.3-.522.478-.877.472a.963.963 0 0 1-1-.98v-.02a3.352 3.352 0 0 1 1.177-2.478 3.48 3.48 0 0 1 2.195-.772 3.357 3.357 0 0 1 2.456 1.045c.573.602.894 1.402.895 2.234v.99a.973.973 0 0 1-1.01.984zm-.33-2.666c.07.193.11.396.12.601v1.087c0 .148.11.178.205.178.095 0 .205-.03.205-.178v-.992a2.449 2.449 0 0 0-.679-1.685 2.553 2.553 0 0 0-1.87-.791 2.674 2.674 0 0 0-1.686.589 2.539 2.539 0 0 0-.882 1.871c0 .145.107.173.197.173a.188.188 0 0 0 .226-.189l.015-.538.115.039a2.15 2.15 0 0 1 1.887-1.565v-.008h.423v.403h.014l.074-.297h.16a.379.379 0 0 0-.183-.096l.063.01a.756.756 0 0 1 .295.07c.039.01.076.024.11.042l.059.026c.266.113.504.283.698.497a.855.855 0 0 1 .117.14.846.846 0 0 1 .087.134.403.403 0 0 0 .02.036c.029.042.054.087.076.133l.024.047a.51.51 0 0 1 .11.263z"/>
        <path d="M57.962 28.29a2.889 2.889 0 0 0-1.96-2.714 2.95 2.95 0 0 0-3.958 2.729.607.607 0 0 0 1.212 0 1.552 1.552 0 0 1 .14-.674c.09-.209.221-.398.384-.556.062-.065.13-.125.202-.178l.182-.119s.202-.1.1-.059c.12-.042.241-.076.365-.1.113-.026.228-.04.344-.04h.32c.134.019.264.059.384.12-.1-.04.061.04.08.04.07.034.138.074.203.118a.815.815 0 0 1 .202.178c.172.155.31.344.404.555-.04-.078.04.12.04.138 0 .06.04.12.04.179 0 0 .04.178 0 .078v.257a.607.607 0 0 0 1.212 0l.104.048z"/>
        <path d="M52.642 29.29a.963.963 0 0 1-1-.98v-.012a3.386 3.386 0 0 1 .826-2.153 3.33 3.33 0 0 1 2.53-1.143c.388 0 .773.066 1.138.196a3.267 3.267 0 0 1 2.23 3.092v.59l-.243-.096a.912.912 0 0 1-.119.15 1.032 1.032 0 0 1-.74.298.976.976 0 0 1-1.014-.98v-.299a.735.735 0 0 1-.035-.138l-.011-.03c0-.021-.017-.044-.023-.07a1.266 1.266 0 0 0-.295-.383l-.024-.027a.66.66 0 0 0-.045-.05l-.015-.011-.07-.052a1.388 1.388 0 0 0-.13-.078.663.663 0 0 1-.172-.08.802.802 0 0 0-.16-.045h-.293a.76.76 0 0 0-.187.017l-.092.016a1.71 1.71 0 0 0-.234.063l-.096.05-.172.115c-.046.036-.09.076-.13.119a1.32 1.32 0 0 0-.294.42v.018c-.072.158-.107.33-.104.504v.011a.979.979 0 0 1-1.026.968zm-.197-.976c0 .143.108.174.197.174a.188.188 0 0 0 .212-.185 1.96 1.96 0 0 1 .175-.826c.11-.256.27-.487.47-.68.063-.066.13-.126.201-.18l.063-.049.224-.143.095-.048a.396.396 0 0 0-.186.29l.353.044-.128-.36a.586.586 0 0 1 .073-.02l.207-.068c.053-.014.108-.025.16-.035l.068-.013c.113-.023.227-.034.342-.032h.379c.176.026.347.08.505.16l.08.04c.085.043.167.09.246.143l.029.021.051.037a.93.93 0 0 1 .198.183c.203.185.367.408.481.658l-.348.17.082.06v.253l.35-.078a.361.361 0 0 0-.085-.108.393.393 0 0 0 .01-.255l.015.04c.025.06.042.121.052.185a.717.717 0 0 1 .038.16.552.552 0 0 1 0 .286v.118c0 .161.133.179.212.179a.238.238 0 0 0 .16-.057.136.136 0 0 0 .034-.112l-.016-.605.037.015a2.502 2.502 0 0 0-1.613-1.716c-.28-.1-.573-.15-.87-.15a2.53 2.53 0 0 0-2.553 2.504z"/>
        <path d="M53.236 28.29a2.889 2.889 0 0 0-1.96-2.714 2.95 2.95 0 0 0-3.958 2.729.607.607 0 0 0 1.211 0 1.552 1.552 0 0 1 .142-.674c.09-.209.22-.398.383-.556.062-.065.13-.125.202-.178l.182-.119s.202-.1.1-.059c.12-.042.241-.076.365-.1.113-.026.228-.04.343-.04h.321c.134.019.263.059.384.12-.101-.04.061.04.08.04.07.034.138.074.202.118a.815.815 0 0 1 .203.178c.172.155.31.344.404.555-.04-.078.04.12.04.138 0 .06.04.12.04.179 0 0 .04.178 0 .078v.257a.607.607 0 0 0 1.212 0l.104.048z"/>
        <path d="M47.916 29.29a.963.963 0 0 1-1-.98v-.012a3.386 3.386 0 0 1 .825-2.153 3.33 3.33 0 0 1 2.531-1.143c.388 0 .773.066 1.138.196a3.267 3.267 0 0 1 2.226 3.09v.59l-.244-.095a.912.912 0 0 1-.119.15 1.032 1.032 0 0 1-.74.298.976.976 0 0 1-1.014-.98v-.299a.735.735 0 0 1-.035-.138l-.011-.03c0-.022-.016-.044-.023-.07a1.266 1.266 0 0 0-.295-.383l-.024-.028a.653.653 0 0 0-.045-.05l-.015-.01-.07-.052a1.388 1.388 0 0 0-.13-.079.663.663 0 0 1-.172-.08.802.802 0 0 0-.16-.045h-.293a.76.76 0 0 0-.187.018l-.092.016a1.71 1.71 0 0 0-.234.062l-.096.05-.172.116c-.046.036-.09.075-.13.118a1.32 1.32 0 0 0-.294.42v.017c-.072.158-.107.33-.104.504v.011a.979.979 0 0 1-1.02.971zm-.197-.976c0 .143.107.174.197.174a.188.188 0 0 0 .212-.185 1.96 1.96 0 0 1 .175-.826c.11-.256.27-.487.47-.68a1.74 1.74 0 0 1 .2-.18l.065-.049.225-.143.094-.048a.396.396 0 0 0-.186.292l.353.042-.128-.36a.587.587 0 0 1 .07-.024l.206-.067c.053-.014.107-.026.16-.035l.068-.013c.112-.024.227-.034.342-.032h.378c.175.026.345.08.503.16l.083.042c.085.042.167.09.246.143l.029.02.05.038a.93.93 0 0 1 .198.183c.201.185.362.409.474.658l-.348.17.081.06v.253l.35-.079a.361.361 0 0 0-.085-.108.393.393 0 0 0 .011-.255l.015.04c.025.06.042.122.051.185a.717.717 0 0 1 .039.16.552.552 0 0 1 0 .286v.12c0 .161.133.179.212.179a.238.238 0 0 0 .16-.057.136.136 0 0 0 .034-.112l-.016-.605.037.015a2.502 2.502 0 0 0-1.607-1.72c-.28-.1-.573-.15-.87-.15a2.53 2.53 0 0 0-1.925.865 2.558 2.558 0 0 0-.623 1.643z"/>
        <path d="M48.49 28.29a2.889 2.889 0 0 0-1.96-2.714 2.95 2.95 0 0 0-3.96 2.729.607.607 0 0 0 1.212 0 1.552 1.552 0 0 1 .142-.674c.09-.209.22-.398.383-.556.062-.065.13-.125.202-.178l.182-.119s.202-.1.1-.059c.12-.042.241-.076.365-.1.113-.026.228-.04.343-.04h.321c.134.019.263.059.384.12-.101-.04.061.04.08.04.07.034.138.074.202.118a.815.815 0 0 1 .203.178c.172.155.31.344.404.555-.04-.078.04.12.04.138 0 .06.04.12.04.179 0 0 .04.178 0 .078v.257a.607.607 0 0 0 1.212 0l.104.048z"/>
        <path d="M43.17 29.29a.963.963 0 0 1-1-.98v-.012a3.386 3.386 0 0 1 .824-2.153 3.33 3.33 0 0 1 2.531-1.143c.388 0 .773.066 1.138.196a3.267 3.267 0 0 1 2.226 3.09v.59l-.244-.095a.912.912 0 0 1-.119.15 1.032 1.032 0 0 1-.74.298.976.976 0 0 1-1.014-.98v-.299a.735.735 0 0 1-.035-.138l-.011-.03c0-.022-.016-.044-.023-.07a1.266 1.266 0 0 0-.295-.383l-.024-.028a.653.653 0 0 0-.045-.05l-.015-.01-.07-.052a1.388 1.388 0 0 0-.13-.079.663.663 0 0 1-.172-.08.802.802 0 0 0-.16-.045h-.284a.76.76 0 0 0-.188.018l-.092.016a1.71 1.71 0 0 0-.234.062l-.096.05-.172.116c-.046.036-.09.075-.13.118a1.32 1.32 0 0 0-.294.42v.019c-.072.158-.107.33-.104.503v.012a.979.979 0 0 1-1.029.969zm-.198-.976c0 .143.107.174.197.174a.188.188 0 0 0 .212-.185 1.96 1.96 0 0 1 .175-.828c.11-.256.27-.487.47-.68.062-.066.13-.126.2-.18l.063-.048.225-.143.095-.048a.396.396 0 0 0-.186.292l.353.043-.129-.36a.587.587 0 0 1 .07-.024l.206-.067c.053-.014.108-.026.16-.035l.068-.013c.113-.024.227-.034.342-.032h.379c.175.026.345.08.502.16l.084.042c.084.042.166.09.245.143l.029.02.051.038a.93.93 0 0 1 .198.183c.203.184.367.408.481.658l-.348.17.082.06v.253l.35-.079a.361.361 0 0 0-.085-.108.393.393 0 0 0 .01-.255l.015.04c.025.06.042.122.052.185a.717.717 0 0 1 .038.16.552.552 0 0 1 0 .286v.12c0 .161.133.179.212.179a.238.238 0 0 0 .16-.057.136.136 0 0 0 .034-.112l-.016-.605.037.015a2.502 2.502 0 0 0-1.613-1.716c-.28-.1-.573-.15-.87-.15a2.53 2.53 0 0 0-1.925.866 2.558 2.558 0 0 0-.623 1.638z"/>
        <path d="M43.761 28.29a2.889 2.889 0 0 0-1.954-2.714 2.95 2.95 0 0 0-3.96 2.729.607.607 0 0 0 1.212 0 1.552 1.552 0 0 1 .142-.674c.09-.209.22-.398.383-.556.062-.065.13-.125.202-.178l.182-.119s.202-.1.1-.059c.12-.042.241-.076.365-.1.113-.026.228-.04.344-.04h.32c.134.019.264.059.384.12-.101-.04.061.04.08.04.07.034.138.074.202.118a.815.815 0 0 1 .203.178c.172.155.31.344.404.555-.04-.078.04.12.04.138 0 .06.04.12.04.179 0 0 .04.178 0 .078v.257a.607.607 0 0 0 1.212 0l.1.048z"/>
        <path d="M38.437 29.29a.963.963 0 0 1-1-.98v-.012a3.386 3.386 0 0 1 .825-2.153 3.33 3.33 0 0 1 2.53-1.143c.388 0 .773.066 1.138.196a3.267 3.267 0 0 1 2.226 3.09v.59l-.244-.095a.912.912 0 0 1-.118.15 1.032 1.032 0 0 1-.74.298.976.976 0 0 1-1.014-.98v-.299a.735.735 0 0 1-.036-.138l-.011-.03c0-.022-.016-.044-.022-.07a1.266 1.266 0 0 0-.296-.383l-.024-.028a.653.653 0 0 0-.045-.05l-.014-.01-.07-.052a1.388 1.388 0 0 0-.13-.079.663.663 0 0 1-.173-.08.81.81 0 0 0-.16-.045h-.292a.76.76 0 0 0-.188.018l-.091.016a1.71 1.71 0 0 0-.235.062l-.096.05-.172.116c-.046.036-.09.075-.13.118a1.32 1.32 0 0 0-.293.42v.019c-.072.158-.108.33-.105.503v.012a.979.979 0 0 1-1.02.969zm-.198-.976c0 .143.108.174.198.174a.188.188 0 0 0 .212-.185 1.96 1.96 0 0 1 .174-.826c.111-.256.27-.487.47-.68.063-.066.13-.126.201-.18l.063-.049.225-.143.094-.048a.396.396 0 0 0-.186.292l.353.042-.128-.36a.587.587 0 0 1 .07-.024l.217-.065c.053-.015.108-.026.16-.036l.068-.012c.112-.024.227-.035.342-.033h.378c.175.026.345.08.503.16l.083.043c.085.042.167.09.246.142l.029.021.051.037a.93.93 0 0 1 .197.183c.201.185.362.41.474.658l-.348.17.081.06v.253l.35-.078a.361.361 0 0 0-.085-.108.393.393 0 0 0 .011-.255l.015.04c.025.06.042.121.051.185a.717.717 0 0 1 .039.16.552.552 0 0 1 0 .286v.118c0 .161.133.179.212.179a.238.238 0 0 0 .16-.057.136.136 0 0 0 .034-.112l-.016-.605.037.015a2.502 2.502 0 0 0-1.613-1.716c-.28-.1-.574-.15-.87-.15a2.53 2.53 0 0 0-1.926.866 2.558 2.558 0 0 0-.62 1.638h-.006z"/>
        <path d="M39.014 28.29a2.889 2.889 0 0 0-1.959-2.714 2.95 2.95 0 0 0-3.96 2.729.607.607 0 0 0 1.213 0 1.552 1.552 0 0 1 .14-.674c.09-.209.221-.398.384-.556.062-.065.13-.125.203-.178l.18-.119s.203-.1.102-.059c.119-.042.24-.076.364-.1.113-.026.228-.04.344-.04h.32c.134.019.264.059.384.12-.1-.04.061.04.08.04.07.034.138.074.203.118a.815.815 0 0 1 .202.178c.172.155.31.344.404.555-.04-.078.04.12.04.138 0 .06.04.12.04.179 0 0 .04.178 0 .078v.257a.607.607 0 0 0 1.212 0l.104.048z"/>
        <path d="M33.695 29.29a.963.963 0 0 1-1-.98v-.012a3.386 3.386 0 0 1 .825-2.153 3.33 3.33 0 0 1 2.53-1.143c.388 0 .773.066 1.138.196a3.267 3.267 0 0 1 2.226 3.09v.59l-.244-.095a.912.912 0 0 1-.119.15 1.032 1.032 0 0 1-.74.298.976.976 0 0 1-1.01-.975v-.298a.735.735 0 0 1-.036-.138l-.011-.03c0-.021-.016-.044-.022-.07a1.266 1.266 0 0 0-.296-.383l-.024-.027a.661.661 0 0 0-.045-.05l-.014-.011-.07-.052a1.388 1.388 0 0 0-.13-.078.663.663 0 0 1-.173-.08.802.802 0 0 0-.16-.046h-.292a.76.76 0 0 0-.188.018l-.091.016a1.71 1.71 0 0 0-.235.063l-.096.05-.172.115c-.046.036-.09.076-.13.119a1.32 1.32 0 0 0-.293.42v.018c-.072.158-.108.33-.105.504v.011a.979.979 0 0 1-1.023.963zm-.198-.976c0 .143.108.174.198.174a.188.188 0 0 0 .211-.185 1.96 1.96 0 0 1 .175-.826c.11-.256.27-.487.47-.68.063-.066.13-.126.201-.18l.063-.049.224-.143.095-.048a.396.396 0 0 0-.186.292l.353.044-.128-.36a.587.587 0 0 1 .07-.024l.206-.067c.053-.015.107-.026.16-.036l.067-.012c.113-.024.227-.035.342-.033h.379c.175.026.345.08.502.16l.084.043c.085.042.167.09.245.142l.03.021.05.037a.93.93 0 0 1 .198.183c.2.185.362.41.473.658l-.348.17.082.06v.253l.35-.078a.361.361 0 0 0-.085-.108.393.393 0 0 0 .011-.255l.014.04c.025.06.042.121.052.185a.717.717 0 0 1 .038.16.552.552 0 0 1 0 .286v.118c0 .161.133.179.212.179a.238.238 0 0 0 .16-.057.136.136 0 0 0 .034-.112l-.016-.605.037.015a2.502 2.502 0 0 0-1.613-1.716c-.279-.1-.573-.15-.87-.15a2.53 2.53 0 0 0-1.925.866 2.558 2.558 0 0 0-.615 1.638zM55.741 22.033v-2.616a.602.602 0 0 0-.606-.594.615.615 0 0 0-.607.594v2.616a.602.602 0 0 0 .607.594.615.615 0 0 0 .606-.594z"/>
        <path d="M55.106 23.028a1 1 0 0 1-.977-.997v-2.614a1.011 1.011 0 0 1 1.709-.716.997.997 0 0 1 .305.716v2.616c-.009.541-.442.98-.983.995h-.054zm.06-3.803c-.116 0-.235.077-.235.194v2.614a.21.21 0 0 0 .175.194c.11 0 .23-.077.23-.194v-2.616a.21.21 0 0 0-.17-.192zM32.43 33.003h34.466a.599.599 0 0 0 .304-1.108l-3.07-2a6.763 6.763 0 0 0-2.06-1.208 26.433 26.433 0 0 0-4.849 0h-24.77a.594.594 0 0 0 0 1.187H55.56c2.02 0 4.142.198 6.142 0 .134-.01.27-.01.404 0-.546-.119-.101 0 .08.178.266.194.542.373.828.535l3.597 2.336.303-1.109H32.451a.594.594 0 0 0 0 1.188l-.021.001z"/>
        <path d="m66.853 33.56-.24-.16H32.433a.995.995 0 0 1 .019-1.979h31.1l-.755-.49-.24-.145a5.116 5.116 0 0 1-.623-.414l-.028-.024a.583.583 0 0 0-.1-.066h-.083c-.606.06-1.283.088-2.052.088-.695 0-1.401-.022-2.086-.045a62.033 62.033 0 0 0-2.024-.043H32.45a.995.995 0 0 1 0-1.99h24.766c.482 0 .986-.03 1.528-.063.571-.034 1.162-.069 1.741-.069a8.443 8.443 0 0 1 1.66.14c.638.188 1.23.506 1.738.935.16.12.32.233.465.333l2.845 1.853h.246l-.037.135.013.008c.382.247.554.718.422 1.154a.963.963 0 0 1-.942.693l-.042.15zm-34.402-1.336a.193.193 0 0 0 0 .385h32.927l-.594-.385H32.451zm32.577-.803h.702l-1.817-1.183a18.06 18.06 0 0 1-.5-.354 4.16 4.16 0 0 0-1.424-.803 7.665 7.665 0 0 0-1.497-.123c-.554 0-1.133.033-1.693.067a26.57 26.57 0 0 1-1.575.064H32.451a.193.193 0 0 0 0 .386H55.56c.677 0 1.375.022 2.05.043.673.02 1.378.043 2.058.043.278 0 .541 0 .791-.011l-.056-.03 1.252-.045a.417.417 0 0 1 .197-.05c.115.007.228.027.34.058l-.015.077 1.22.654h-.21l.042.026 1.8 1.181zM30.105 15.697a2.773 2.773 0 0 0-5.535-.178 9.79 9.79 0 0 0 0 1.09.607.607 0 0 0 1.211 0v-1.15c0 .1 0-.059.021-.099.014-.067.034-.134.061-.197 0-.02.061-.16.02-.06.056-.119.124-.232.203-.337 0-.019.04-.04.061-.059l.122-.119c.02 0 .16-.138.08-.059.061-.04.101-.079.16-.119.06-.04.123-.06.182-.1.101-.059-.04 0 .061-.019.125-.042.254-.075.384-.1h.282c.04 0 .202.02.101 0a.73.73 0 0 1 .202.041c.061.02.122.04.203.06.08.019-.021-.02.06.019.12.054.232.12.338.197-.08-.06.06.06.1.079l.161.16c-.06-.078.04.06.061.079.045.063.086.129.122.197a.15.15 0 0 0 .04.079c-.02-.06 0-.02 0 0 .021.079.04.138.061.218v.079s.021.119 0 .06v.197a.607.607 0 0 0 1.212 0l.026.041z"/>
        <path d="M25.176 17.604a1.014 1.014 0 0 1-1.008-.995c0-.11 0-.225-.008-.345a5.283 5.283 0 0 1 .012-.785 3.174 3.174 0 0 1 6.335.212h-.02a1.008 1.008 0 0 1-2.015-.039v-.279l-.014-.05-.014-.048a.554.554 0 0 1-.049-.106c-.019-.033-.04-.064-.062-.1l-.053-.067-.093-.091a.756.756 0 0 1-.16-.127 2.086 2.086 0 0 0-.187-.096l-.038-.02a2.634 2.634 0 0 1-.206-.06l-.038-.012h-.387c-.1.018-.197.043-.294.073h-.017l-.082.041-.048.026a.757.757 0 0 0-.053.038 2.438 2.438 0 0 1-.095.071.847.847 0 0 1-.067.053l-.089.085-.017.016-.018.018a1.63 1.63 0 0 0-.133.23 1.08 1.08 0 0 1-.047.136v.054l-.019.037v1.114a1.014 1.014 0 0 1-1.016 1.016zm2.133-4.22a2.374 2.374 0 0 0-2.34 2.17v.012a4.583 4.583 0 0 0 0 .669c0 .122.01.249.01.374a.205.205 0 0 0 .409 0v-1.15c.003-.06.01-.119.024-.177a.764.764 0 0 1 .053-.179l.013-.035a.624.624 0 0 1 .098-.234c.046-.096.1-.187.16-.275l-.112-.016.363-.242.115-.112h.024a.437.437 0 0 1 .06-.039c.027-.02.06-.048.102-.075.043-.028.088-.052.134-.074l.03-.016a.433.433 0 0 1 .265-.103c.117-.036.237-.065.358-.086l.024.149h.01v-.16H27.53c.11.003.218.023.321.059.055.017.102.033.16.048a.467.467 0 0 1 .153.051c.147.066.285.147.414.243l-.097.128h.093c.034 0 .068.004.1.013a.374.374 0 0 0-.094-.133l.047.036.04.02.147.144c.037.03.07.063.098.101l.036.047.016.016.022.034c.051.076.097.155.138.237a.44.44 0 0 1 .085.202l.02.07c.01.04.022.078.033.123l.013.048v.096a.54.54 0 0 1 0 .191v.1a.205.205 0 0 0 .41 0h.018a2.375 2.375 0 0 0-2.3-2.274h-.094z"/>
        <path d="M30.145 15.697v-.32a.368.368 0 0 1 .04-.161c0-.02.06-.178.04-.138.023-.045.043-.091.06-.138.022-.04.062-.1.081-.138.02-.039.101-.138.04-.06a.608.608 0 0 1 .16-.16l.123-.119c-.08.079.04-.04.06-.04a1.87 1.87 0 0 1 .161-.1c.021 0 .202-.099.08-.04.104-.042.212-.075.321-.1a.262.262 0 0 0 .122-.018h.445c.124.024.245.057.364.1-.1-.041.04.018.061.04.061.04.141.078.202.118.021 0 .142.119.061.04l.122.119.142.138c.02.04.02.02 0 0 .024.03.045.064.06.1.062.094.115.193.161.296-.04-.1.04.1.04.12 0 .058.04.118.04.16 0 0 .04.178 0 .078v.238a.607.607 0 0 0 1.212 0 2.741 2.741 0 0 0-1.834-2.549 2.778 2.778 0 0 0-3.03.772 2.889 2.889 0 0 0-.687 1.783.607.607 0 0 0 1.211 0l.142-.02z"/>
        <path d="M33.741 16.713a1.014 1.014 0 0 1-1.008-.995v-.244a.713.713 0 0 1-.04-.15l-.024-.063a2.133 2.133 0 0 0-.125-.222l-.015-.027V14.986l-.192-.187-.011-.01-.023-.015a1.092 1.092 0 0 0-.077-.044 2.706 2.706 0 0 1-.125-.074h-.023a2.043 2.043 0 0 0-.218-.061h-.356a.656.656 0 0 1-.141.019c-.06.015-.118.033-.175.055a1.06 1.06 0 0 1-.116.054l-.102.066-.023.014-.011.01-.11.108-.035.02a.215.215 0 0 0-.04.037l-.022.03a2.495 2.495 0 0 1-.055.097l-.013.02c-.012.035-.028.072-.05.113l-.012.042v.034l-.04.078v.642l-.212.03a1.008 1.008 0 0 1-1.956-.347v-.012a3.28 3.28 0 0 1 .778-2.025 3.186 3.186 0 0 1 5.58 2.038c-.01.55-.458.992-1.008.995zm-.205-1.078v.09a.205.205 0 0 0 .409 0 2.383 2.383 0 0 0-4.161-1.535 2.49 2.49 0 0 0-.591 1.527.205.205 0 0 0 .41 0v-.349l.142-.019a.746.746 0 0 1 .034-.188l-.023-.032.11-.221.02-.042v-.018l.044-.086c.014-.028.035-.063.056-.097l.022-.037a.586.586 0 0 1 .127-.184c.053-.06.113-.114.178-.16l.098-.095a.757.757 0 0 1 .146-.108c.057-.038.117-.074.178-.106l.084-.041a.565.565 0 0 1 .126-.049c.096-.034.194-.061.294-.081h.096a.202.202 0 0 0-.073.02l.029.06h.054l.047.181v-.294h.561c.12.022.238.052.353.09a.642.642 0 0 1 .093.03l-.017.05.022-.043h.01c.045.021.089.046.13.074l.066.037.093.053c.058.03.112.067.16.11l.268.264.016.018a.76.76 0 0 1 .108.16c.065.103.122.21.172.321v.027a.918.918 0 0 1 .067.223.63.63 0 0 1 .032.151c.03.097.034.2.01.299z"/>
        <path d="M34.529 15.697v-.32a.367.367 0 0 1 .04-.161c0-.02.061-.178.04-.138.023-.045.044-.091.061-.138.021-.04.061-.1.08-.138.02-.039.102-.138.04-.06a.608.608 0 0 1 .161-.16l.122-.119c-.08.079.04-.04.061-.04a1.87 1.87 0 0 1 .16-.1c.021 0 .203-.099.08-.04.105-.042.212-.075.322-.1a.262.262 0 0 0 .122-.018h.444c.124.024.246.057.365.1-.102-.041.04.018.06.04.061.04.142.078.203.118.02 0 .14.119.06.04l.123.119.14.138c.022.04.022.02 0 0 .026.03.046.064.062.1.061.094.115.193.16.296-.04-.1.04.1.04.12 0 .058.04.118.04.16 0 0 .04.178 0 .078v.238a.607.607 0 0 0 1.212 0 2.741 2.741 0 0 0-1.834-2.549 2.778 2.778 0 0 0-3.03.772 2.889 2.889 0 0 0-.687 1.783.607.607 0 0 0 1.212 0l.141-.02z"/>
        <path d="M38.119 16.713a1.014 1.014 0 0 1-1.008-.995v-.244a.713.713 0 0 1-.04-.15l-.024-.063a2.142 2.142 0 0 0-.125-.222l-.015-.027V14.986l-.19-.187-.012-.01-.03-.023a1.092 1.092 0 0 0-.077-.044 2.706 2.706 0 0 1-.126-.074h-.022a2.045 2.045 0 0 0-.218-.061h-.344a.656.656 0 0 1-.14.019 1.65 1.65 0 0 0-.176.055 1.06 1.06 0 0 1-.115.054l-.103.066-.023.014-.01.01-.112.108-.033.02a.215.215 0 0 0-.04.037l-.023.03a2.495 2.495 0 0 1-.054.097l-.013.02c-.013.035-.03.072-.05.113l-.013.042V15.314l-.04.078v.642l-.212.03a1.008 1.008 0 0 1-1.943-.36v.001a3.28 3.28 0 0 1 .778-2.025 3.186 3.186 0 0 1 5.58 2.038 1.014 1.014 0 0 1-1.027.995zm-.199-1.078v.09a.205.205 0 0 0 .41 0 2.383 2.383 0 0 0-4.162-1.535 2.49 2.49 0 0 0-.59 1.527.205.205 0 0 0 .409 0v-.349l.142-.019a.746.746 0 0 1 .034-.188l-.022-.032.109-.221.02-.042v-.018l.044-.085c.014-.027.035-.062.056-.096l.023-.037a.586.586 0 0 1 .126-.184 1.03 1.03 0 0 1 .179-.161l.097-.095a.757.757 0 0 1 .146-.107c.058-.039.117-.074.179-.106l.08-.04a.576.576 0 0 1 .13-.05c.096-.034.194-.061.293-.082h.097a.202.202 0 0 0-.074.021l.029.06h.054l.047.18v-.295h.555c.12.021.238.052.353.09a.65.65 0 0 1 .093.03l-.017.05.022-.043h.01c.045.021.089.046.13.074l.066.037.091.053c.058.03.112.067.16.11l.269.264c.05.054.092.116.123.183.065.103.122.21.172.32V14.968a.918.918 0 0 1 .067.223.63.63 0 0 1 .039.14.56.56 0 0 1 .011.305z"/>
        <path d="M38.892 15.697v-.32a.368.368 0 0 1 .04-.161c0-.02.062-.178.04-.138.024-.045.044-.091.062-.138.02-.04.06-.1.08-.138.02-.039.101-.138.04-.06a.608.608 0 0 1 .16-.16l.123-.119c-.08.079.04-.04.06-.04a1.87 1.87 0 0 1 .161-.1c.02 0 .202-.099.08-.04.104-.042.212-.075.321-.1a.262.262 0 0 0 .122-.018h.445c.123.024.245.057.364.1-.101-.041.04.018.061.04.06.04.141.078.202.118.021 0 .141.119.061.04l.122.119.141.138c.021.04.021.02 0 0 .025.03.046.064.061.1.062.094.115.193.16.296-.04-.1.04.1.04.12 0 .058.041.118.041.16 0 0 .04.178 0 .078v.238a.607.607 0 0 0 1.212 0 2.741 2.741 0 0 0-1.828-2.549 2.778 2.778 0 0 0-3.03.772 2.889 2.889 0 0 0-.687 1.783.607.607 0 0 0 1.212 0l.134-.02z"/>
        <path d="M42.489 16.713a1.014 1.014 0 0 1-1.008-.995v-.244a.713.713 0 0 1-.04-.15l-.018-.066a2.146 2.146 0 0 0-.125-.222l-.014-.027V14.983l-.193-.188-.011-.01-.023-.014a1.092 1.092 0 0 0-.077-.045 2.706 2.706 0 0 1-.125-.073h-.022a2.041 2.041 0 0 0-.219-.061h-.362a.656.656 0 0 1-.141.019 1.65 1.65 0 0 0-.175.054 1.06 1.06 0 0 1-.116.055l-.103.066-.022.014-.011.01-.111.107-.034.021a.215.215 0 0 0-.04.037l-.022.03a2.495 2.495 0 0 1-.055.097l-.013.02c-.013.034-.029.071-.05.113l-.012.042V15.314l-.04.078v.642l-.212.03a1.008 1.008 0 0 1-1.944-.36v.001a3.28 3.28 0 0 1 .779-2.025 3.186 3.186 0 0 1 5.58 2.038c-.011.555-.466.999-1.021.995zm-.206-1.078v.09a.205.205 0 0 0 .41 0 2.383 2.383 0 0 0-4.158-1.535 2.49 2.49 0 0 0-.591 1.527.205.205 0 0 0 .41 0v-.349l.142-.019a.745.745 0 0 1 .039-.196l-.023-.032.11-.221.02-.042v-.01l.043-.085.057-.096.022-.037a.586.586 0 0 1 .127-.184c.053-.06.113-.115.178-.161l.098-.095a.757.757 0 0 1 .146-.107c.057-.039.117-.074.178-.106l.084-.042a.566.566 0 0 1 .126-.048c.096-.034.194-.061.294-.082h.096a.202.202 0 0 0-.074.021l.03.06h.054l.038.166v-.28h.556c.119.02.236.05.351.09a.642.642 0 0 1 .093.03l-.017.05.022-.044h.01c.045.021.089.046.13.074l.065.037.094.053c.058.03.112.067.16.11l.268.264.016.018a.76.76 0 0 1 .108.16c.064.103.122.21.171.321v.027a.918.918 0 0 1 .068.223.63.63 0 0 1 .038.14.56.56 0 0 1 .011.31z"/>
        <path d="M43.277 15.697v-.277a.743.743 0 0 1 .06-.198c0-.04.081-.218.04-.119.062-.118.123-.218.182-.32 0-.02.04-.04.04-.06 0 .02-.06.06 0 0a.924.924 0 0 1 .142-.138c.02 0 .14-.119.08-.06.06-.04.101-.078.16-.118.06-.04.101-.06.142-.079 0 0 .122-.059.06-.019-.06.04.062 0 .062-.02.118-.042.24-.075.364-.099h.423c.07.002.138.016.203.04.06 0 .1.04.16.06.122.04.04 0 0 0 .04 0 .061.04.101.06.056.028.11.061.16.099.022 0 .161.118.081.06.104.081.198.174.282.277-.06-.079.021.04.04.06.037.05.07.104.102.16 0 .019.08.178.04.078.02.079.06.138.08.218.001.056.015.111.04.161v1.268a.607.607 0 0 0 1.212 0v-.995c-.001-.665-.245-1.306-.687-1.802a2.83 2.83 0 0 0-3.868-.297 2.778 2.778 0 0 0-.99 2.086.607.607 0 0 0 1.212 0l.077-.026z"/>
        <path d="M46.933 17.723a1.014 1.014 0 0 1-1.008-.995v-1.191a.767.767 0 0 1-.036-.16l-.01-.026c-.012-.018-.012-.036-.03-.068a.83.83 0 0 1-.053-.117l-.054-.083a.979.979 0 0 1-.063-.084 1.475 1.475 0 0 0-.16-.15h-.03l-.099-.097h-.014c-.023-.013-.055-.029-.088-.05a.557.557 0 0 1-.057-.035l-.062-.027-.061-.02a.273.273 0 0 0-.077-.019h-.388a2.033 2.033 0 0 0-.219.061.525.525 0 0 1-.16.058l-.068.038-.04.03c-.024.02-.054.043-.09.068a.74.74 0 0 1-.1.074l-.02.024-.011.013a.453.453 0 0 1-.034.045 6.75 6.75 0 0 0-.16.271v.01l-.021.062c0 .023-.018.047-.028.073l-.012.03v.559l-.14.033a1.008 1.008 0 0 1-1.958-.333v-.01c.016-.92.43-1.788 1.136-2.378a3.304 3.304 0 0 1 2.07-.721c.91-.01 1.777.38 2.37 1.069.503.569.78 1.301.782 2.06v.99c-.01.55-.457.992-1.007.996zm-.206-2.247v1.252a.205.205 0 0 0 .41 0v-.992a2.34 2.34 0 0 0-2.35-2.327 2.497 2.497 0 0 0-1.565.54 2.367 2.367 0 0 0-.84 1.766.205.205 0 0 0 .409 0v-.321l.081-.02a.834.834 0 0 1 .068-.256v-.02a.708.708 0 0 1 .114-.274c.045-.082.088-.16.131-.226a.552.552 0 0 1 .12-.169l.02-.02a.887.887 0 0 1 .185-.16l.022-.015.02-.018a.448.448 0 0 1 .084-.061c.03-.022.064-.05.11-.08l.043-.024.056-.02V14l.13-.041a.547.547 0 0 1 .181-.06c.127-.044.258-.078.39-.102l.034.21v-.215h.454a.94.94 0 0 1 .284.046c.066.011.13.033.19.064a.462.462 0 0 1 .248.13.871.871 0 0 1 .127.077c.06.034.114.077.16.127.092.077.176.162.254.252.02.02.032.039.042.052l-.175.138v.022l.215-.072a.398.398 0 0 0-.027-.064l-.004-.004.01.008-.01-.017.016.022.015.013.022.034c.047.065.089.132.127.202l.043.087v.027h.012c.01.024.017.048.024.072l.013.03c.025.054.045.11.06.17l.013.047v.03l.042.081-.008.11z"/>
        <path d="M47.095 18.921H20.55l.424 1.01 2.161-1.684c.405-.32.89-.634 1.273-.99.445-.416-.08-.04-.08-.04.221.138 1.051 0 1.313 0h21.467a.594.594 0 0 0 0-1.188H28.654a30.91 30.91 0 0 0-4.283 0 3.572 3.572 0 0 0-1.515.931l-2.75 2.143c-.423.337-.06 1.01.424 1.01h26.544a.594.594 0 1 0 0-1.188l.02-.004z"/>
        <path d="m20.808 20.573-.024-.06h-.252a1.043 1.043 0 0 1-.963-.709.89.89 0 0 1 .284-1.016l.153-.119-.061-.147h.25l2.407-1.876c.093-.073.185-.148.28-.228.392-.387.882-.658 1.418-.782.49-.066.985-.097 1.48-.093.497 0 1.001.023 1.487.045.487.023.936.043 1.379.043h18.463a.995.995 0 0 1 0 1.99H25.642c-.055 0-.175.012-.292.023-.267.03-.535.041-.803.034-.234.202-.481.388-.733.568-.13.094-.254.186-.371.276h23.655a.995.995 0 1 1-.021 1.99H20.885l-.077.06zm1.106-.862h25.161a.193.193 0 1 0 0-.385H22.41l-.496.385zm-.411-1.188h.63l.756-.589c.143-.112.297-.224.446-.333.15-.11.259-.19.384-.286l-.112-.07.481-.35c.254-.182.358-.232.482-.232h.272l.087.209c.112 0 .228-.018.334-.027.16-.015.274-.026.366-.026h21.48a.193.193 0 0 0 0-.385H28.654c-.46 0-.947-.023-1.416-.043-.468-.021-.972-.045-1.444-.045a9.55 9.55 0 0 0-1.358.083c-.389.109-.742.318-1.025.607-.096.08-.197.16-.3.244l-1.608 1.243z"/>
        <path d="M25.075 20.112H51.64c.482 0 .85-.674.424-1.01L49.8 17.338a5.808 5.808 0 0 0-1.877-1.306 19.604 19.604 0 0 0-3.576 0H25.054a.594.594 0 0 0 0 1.188h17.939a28 28 0 0 0 4.654 0c.465-.079.06.16-.142-.16.182.296.768.593 1.03.811l2.647 2.06.424-1.01H25.035a.594.594 0 0 0 0 1.187l.04.005z"/>
        <path d="m51.341 20.573-.075-.06H25.035a.995.995 0 1 1 0-1.99h23.672l-.436-.34c-.07-.06-.186-.135-.31-.217-.147-.097-.308-.203-.452-.32-.46.062-.925.092-1.39.088-.549 0-1.109-.03-1.65-.06-.54-.029-1.014-.054-1.478-.054H25.054a.995.995 0 1 1 0-1.99h19.293c.35 0 .727-.023 1.124-.047.396-.024.857-.051 1.283-.051.417-.006.834.029 1.244.104h.011a4.132 4.132 0 0 1 1.644 1.048c.14.124.273.24.393.336l1.926 1.497h.23l-.057.135.16.128a.89.89 0 0 1 .286 1.018c-.14.415-.525.698-.963.709h-.273l-.014.066zm-26.306-1.247a.193.193 0 1 0 0 .385H50.23l-.495-.385h-24.7zm24.98-.803h.652l-1.112-.866c-.14-.111-.28-.235-.429-.366a3.646 3.646 0 0 0-1.284-.867 5.617 5.617 0 0 0-1.08-.088c-.404 0-.828.026-1.237.05-.41.024-.802.048-1.173.048H25.054a.193.193 0 0 0 0 .385h17.939c.481 0 .988.027 1.521.056.533.03 1.08.058 1.605.058.484.006.967-.03 1.444-.108h.011l.053-.008.098-.014h.071a.42.42 0 0 1 .454.395l.15.1c.139.09.27.177.375.264l1.24.961zM12.813 34.53H8.8l.606.593v-2.728l-.606.594h4.012l-.607-.594v2.728a.602.602 0 0 0 .607.594.615.615 0 0 0 .606-.594v-2.728a.615.615 0 0 0-.606-.594H8.8a.615.615 0 0 0-.607.594v2.728c.011.329.278.59.607.594h4.012a.602.602 0 0 0 .606-.594.615.615 0 0 0-.606-.593z"/>
        <path d="M12.782 36.12h-3.99a1.014 1.014 0 0 1-1.007-.995v-2.728c.01-.55.458-.992 1.008-.995h4.012c.55.003.997.445 1.008.995v2.728a.923.923 0 0 1-.26.677 1.032 1.032 0 0 1-.737.321l-.034-.003zm-2.981-.802h2.023a.973.973 0 0 1-.019-.193v-.199H9.799l.002.392zm0-1.188h1.996v-.745H9.799l.002.745zm0-1.544h1.996v-.388H9.799l.002.388zM63.722 48.233H8.45l.607.594v-3.248l-.607.594h55.249l-.607-.594v3.241a.607.607 0 0 0 1.212 0V45.58a.615.615 0 0 0-.607-.594H8.45a.615.615 0 0 0-.606.594v3.241c.01.329.278.59.606.594h55.249a.594.594 0 0 0 0-1.187l.024.006z"/>
        <path d="M63.698 49.822H8.449a1.014 1.014 0 0 1-1.008-.995v-3.248c.01-.55.458-.992 1.008-.995h55.249c.55.003.997.445 1.008.995v3.241a.963.963 0 0 1-.295.71.982.982 0 0 1-.713.292zm-54.242-.803h53.253a1.038 1.038 0 0 1-.017-.192v-.193H9.456v.385zm54.263-1.187a1.1 1.1 0 0 1 .184.02v-1.285h-.409v1.257l.225.008zm-54.263 0h53.236v-1.258H9.456v1.258zm-1.212 0h.41v-1.258h-.41v1.258zm1.212-2.06h53.236v-.386H9.456v.385z"/>
        <path d="M23.238 39.004H10.067a.615.615 0 0 0-.607.594v5.584c.011.329.279.59.607.594h13.17a.615.615 0 0 0 .607-.594v-5.584a.607.607 0 0 0-1.211 0v5.584l.606-.593H10.067l.607.593v-5.584l-.607.593h13.17a.594.594 0 0 0 0-1.187z"/>
        <path d="M10.067 38.603h13.17a.982.982 0 0 1 .713.287c.193.185.3.442.296.71v5.584c-.011.55-.458.992-1.008.995H10.067a1.014 1.014 0 0 1-1.008-.995v-5.586c.01-.55.458-.992 1.008-.995zm12.182.802H11.073v.385H22.23v-.192c0-.065.006-.13.017-.193h.002zm1.194 4.782v-3.612c-.068.013-.136.02-.205.02h-.206v3.592h.411zm-13.172-3.594h-.41v3.594h.41v-3.594zm11.959 0H11.073v3.594H22.23v-3.594zm0 4.395H11.073v.385H22.23v-.385z"/>
        <path d="M11.418 39.283v-4.16a.607.607 0 0 0-1.211 0v4.158a.607.607 0 0 0 1.211 0v.002z"/>
        <path d="M10.813 40.278a1.014 1.014 0 0 1-1.008-.995v-4.16a1.008 1.008 0 0 1 2.014 0v4.158c-.01.55-.456.993-1.006.997zm0-5.347a.215.215 0 0 0-.205.192v4.158a.205.205 0 0 0 .409 0v-4.158a.215.215 0 0 0-.204-.192zM26.227 21.954h-4.012l.607.594v-3.03l-.607.594h4.012l-.606-.594v3.03a.602.602 0 0 0 .606.594.615.615 0 0 0 .607-.594v-3.03a.615.615 0 0 0-.607-.593h-4.012a.615.615 0 0 0-.606.593v3.03c.01.328.278.59.606.594h4.012a.602.602 0 0 0 .607-.594.615.615 0 0 0-.607-.594z"/>
        <path d="M26.197 23.545h-3.99a1.014 1.014 0 0 1-1.008-.995v-3.032c.01-.55.458-.991 1.008-.995h4.012c.553 0 1.004.443 1.015.995v3.017a.923.923 0 0 1-.26.678 1.032 1.032 0 0 1-.737.32l-.04.012zm-2.982-.803h2.025a.973.973 0 0 1-.019-.192v-.193h-2l-.006.385zm2.809-1.187h.205c.068-.001.136.005.202.017v-1.059h-.41l.003 1.042zm-2.809 0h2.006v-1.042h-2l-.006 1.042zm-1.211 0h.415v-1.042h-.417l.002 1.042zm1.218-1.844h2.006v-.385h-2.006v.385z"/>
        <path d="M24.833 28.114v-4.672a.607.607 0 0 0-1.212 0v4.673a.607.607 0 0 0 1.212 0v-.001z"/>
        <path d="M24.228 29.094a.973.973 0 0 1-1.008-.98v-4.672a1.008 1.008 0 0 1 2.014 0v4.673a.973.973 0 0 1-1.006.98zm0-5.832c-.093 0-.206.03-.206.178v4.674c0 .147.111.178.206.178.094 0 .212-.036.212-.178v-4.672c0-.15-.12-.181-.212-.181v.001zM49.903 21.954h-4.012l.607.594v-3.03l-.607.594h4.012l-.607-.594v3.03a.602.602 0 0 0 .607.594.615.615 0 0 0 .607-.594v-3.03a.615.615 0 0 0-.607-.593h-4.012a.615.615 0 0 0-.607.593v3.03c.012.328.279.59.607.594h4.012a.602.602 0 0 0 .607-.594.615.615 0 0 0-.607-.594z"/>
        <path d="M49.873 23.545h-3.99a1.014 1.014 0 0 1-1.008-.995v-3.032c.01-.55.458-.991 1.008-.995h4.012c.55.004.997.445 1.008.995v3.017a.923.923 0 0 1-.26.678 1.032 1.032 0 0 1-.737.32l-.033.012zm-2.982-.803h2.025a.973.973 0 0 1-.02-.192v-.193h-2.005v.385zm2.808-1.187h.206c.067-.001.135.005.202.017v-1.059h-.41l.002 1.042zm-2.808 0h2.006v-1.042H46.89v1.042zm-1.212 0h.41v-1.042h-.411l.001 1.042zm1.212-1.843h2.006v-.386H46.89v.386z"/>
        <path d="M48.488 28.114v-4.672a.607.607 0 0 0-1.212 0v4.673a.607.607 0 0 0 1.212 0v-.001z"/>
        <path d="M47.883 29.094a.973.973 0 0 1-1.008-.98v-4.672a1.008 1.008 0 0 1 2.014 0v4.673a.973.973 0 0 1-1.006.98zm0-5.832c-.093 0-.206.03-.206.178v4.674c0 .147.11.178.206.178.094 0 .205-.03.205-.178v-4.672c-.002-.15-.112-.181-.205-.181v.001zM41.863 21.954h-4.012l.607.594v-3.03l-.607.594h4.012l-.607-.594v3.03a.602.602 0 0 0 .607.594.615.615 0 0 0 .607-.594v-3.03a.615.615 0 0 0-.607-.593h-4.012a.615.615 0 0 0-.607.593v3.03c.011.328.279.59.607.594h4.012a.602.602 0 0 0 .607-.594.615.615 0 0 0-.607-.594z"/>
        <path d="M41.832 23.545h-3.99a1.014 1.014 0 0 1-1.007-.995v-3.032c.01-.55.458-.991 1.008-.995h4.012c.55.004.997.445 1.008.995v3.017a.923.923 0 0 1-.26.678 1.032 1.032 0 0 1-.737.32l-.034.012zm-2.981-.803h2.028a.973.973 0 0 1-.019-.192v-.193h-2.006l-.003.385zm2.808-1.187h.206c.067-.001.135.005.202.017v-1.059h-.41l.002 1.042zm-2.808 0h2.006v-1.042H38.85v1.042zm-1.212 0h.41v-1.042h-.411l.001 1.042zm1.212-1.843h2.006v-.386H38.85v.386z"/>
        <path d="M40.468 25.994v-2.536a.602.602 0 0 0-.606-.594.615.615 0 0 0-.607.594v2.536a.602.602 0 0 0 .607.593.615.615 0 0 0 .606-.593z"/>
        <path d="M39.833 26.99a1 1 0 0 1-.977-.996v-2.536a1.011 1.011 0 0 1 1.709-.716.997.997 0 0 1 .305.716v2.536c-.009.54-.442.98-.983.995l-.054.001zm.06-3.724c-.116 0-.235.077-.235.194v2.535a.21.21 0 0 0 .175.194c.11 0 .23-.077.23-.194v-2.537a.21.21 0 0 0-.17-.192zM34.162 21.954H30.15l.606.594v-3.03l-.606.594h4.012l-.607-.594v3.03a.602.602 0 0 0 .607.594.615.615 0 0 0 .606-.594v-3.03a.615.615 0 0 0-.606-.593H30.15a.615.615 0 0 0-.607.593v3.03c.011.328.278.59.607.594h4.012a.602.602 0 0 0 .606-.594.615.615 0 0 0-.606-.594z"/>
        <path d="M34.136 23.545H30.15a1.014 1.014 0 0 1-1.008-.995v-3.032c.01-.55.457-.991 1.008-.995h4.012c.55.004.997.445 1.007.995v3.017a.923.923 0 0 1-.26.678 1.032 1.032 0 0 1-.736.32l-.037.012zm-2.982-.803h2.025a.973.973 0 0 1-.019-.192v-.193h-2.006v.385zm2.809-1.187h.199c.07-.002.14.004.208.017v-1.059h-.41l.003 1.042zm-2.809 0h2.006v-1.042h-2.006v1.042zm-1.212 0h.41v-1.042h-.411l.001 1.042zm1.212-1.843h2.006v-.386h-2.006v.386z"/>
        <path d="M32.75 25.994v-2.536a.602.602 0 0 0-.606-.594.615.615 0 0 0-.606.594v2.536a.602.602 0 0 0 .606.593.615.615 0 0 0 .607-.593z"/>
        <path d="M32.115 26.99a1 1 0 0 1-.977-.996v-2.536a1.011 1.011 0 0 1 1.71-.716.997.997 0 0 1 .304.716v2.536c-.008.54-.441.98-.982.995l-.055.001zm.061-3.724c-.117 0-.236.077-.236.194v2.535a.21.21 0 0 0 .175.194c.111 0 .23-.077.23-.194v-2.537a.21.21 0 0 0-.169-.192zM24.53 34.53h-4.013l.607.593v-2.728l-.607.594h4.012l-.606-.594v2.728a.602.602 0 0 0 .606.594.615.615 0 0 0 .607-.594v-2.728a.615.615 0 0 0-.607-.594h-4.012a.615.615 0 0 0-.606.594v2.728c.011.329.278.59.606.594h4.012a.602.602 0 0 0 .607-.594.615.615 0 0 0-.607-.593z"/>
        <path d="M24.499 36.12h-3.99a1.014 1.014 0 0 1-1.007-.995v-2.728c.01-.55.457-.992 1.007-.995h4.012c.55.003.998.445 1.008.995v2.728a.923.923 0 0 1-.26.677 1.032 1.032 0 0 1-.736.321l-.034-.003zm-2.982-.802h2.026a.973.973 0 0 1-.02-.193v-.199h-2.006v.392zm0-1.188h1.997v-.745h-2.006l.01.745zm0-1.544h1.997v-.388h-2.006l.01.388z"/>
        <path d="M23.124 39.283v-4.16a.607.607 0 0 0-1.212 0v4.158a.607.607 0 0 0 1.212 0v.002z"/>
        <path d="M22.51 40.278a1.014 1.014 0 0 1-1.007-.995v-4.16a1.008 1.008 0 0 1 2.014 0v4.158c-.01.55-.456.993-1.006.997zm0-5.347a.215.215 0 0 0-.205.192v4.158a.205.205 0 0 0 .41 0v-4.158a.215.215 0 0 0-.204-.192zM31.984 34.53h-4.012l.606.593v-2.728l-.606.594h4.012l-.607-.594v2.728a.602.602 0 0 0 .607.594.615.615 0 0 0 .606-.594v-2.728a.615.615 0 0 0-.606-.594h-4.012a.615.615 0 0 0-.607.594v2.728c.011.329.278.59.607.594h4.012a.602.602 0 0 0 .606-.594.615.615 0 0 0-.606-.593z"/>
        <path d="M31.947 36.12h-3.983a1.014 1.014 0 0 1-1.008-.995v-2.728c.01-.55.458-.992 1.008-.995h4.012c.55.003.997.445 1.008.995v2.728a.923.923 0 0 1-.26.677 1.032 1.032 0 0 1-.737.321l-.04-.003zm-2.982-.802h2.025a.973.973 0 0 1-.019-.193v-.199h-2.006v.392zm0-1.188h2.006v-.745h-2.006v.745zm0-1.544h2.006v-.388h-2.006v.388zM38.166 44.768h-4.013l.607.594v-6.098l-.607.594h4.013l-.607-.594v6.098a.607.607 0 0 0 1.212 0v-6.098a.615.615 0 0 0-.607-.594h-4.012a.615.615 0 0 0-.607.594v6.098c.011.328.279.59.607.594h4.012a.594.594 0 0 0 0-1.188h.002z"/>
        <path d="M38.166 46.357h-4.013a1.014 1.014 0 0 1-1.007-.995v-6.098c.01-.55.457-.992 1.007-.995h4.013c.55.003.997.445 1.007.995v6.098a.963.963 0 0 1-.295.71.982.982 0 0 1-.712.285zm-3.013-.802h2.024a1.038 1.038 0 0 1-.018-.193v-.192h-2.006v.385zm2.809-1.188h.205c.069 0 .138.007.206.02v-4.13h-.41l-.001 4.11zm-2.809 0h2.006v-4.11h-2.006v4.11zm-1.211 0h.409v-4.11h-.41v4.11zm1.211-4.91h2.006v-.386h-2.006v.385zM30.57 48.827V35.143a.607.607 0 0 0-1.212 0v13.684a.607.607 0 0 0 1.212 0z"/>
        <path d="M29.965 49.807a.973.973 0 0 1-1.008-.98V35.143a1.008 1.008 0 0 1 2.014 0v13.684a.973.973 0 0 1-1.006.98zm0-14.842c-.093 0-.205.03-.205.178v13.684c0 .148.11.178.205.178.095 0 .205-.03.205-.178V35.143c-.001-.146-.112-.174-.205-.174v-.004zM59.498 35.717h4.041a.615.615 0 0 0 .607-.594v-2.728a.615.615 0 0 0-.607-.594H59.5a.615.615 0 0 0-.607.594v2.728a.602.602 0 0 0 .606.594.615.615 0 0 0 .607-.594v-2.728l-.607.594h4.041l-.607-.594v2.728l.607-.593H59.5a.602.602 0 0 0-.607.593c.01.329.278.59.606.594z"/>
        <path d="M59.468 36.12a1 1 0 0 1-.976-.984V32.39c.01-.55.458-.991 1.008-.995h4.04c.55.004.998.445 1.009.995v2.729c-.01.55-.458.991-1.008.995h-4.073v.006zm1.019-.802h2.044v-.392h-2.027v.193a.982.982 0 0 1-.017.197v.002zm-1.193-1.926v.764c.068-.014.137-.021.206-.021h.205v-.75l-.41.007zm1.212.741h2.025v-.748h-2.027l.002.748zm0-1.544h2.025v-.391h-2.027l.002.391zM58.346 41.777v1.149a.534.534 0 0 0 .181.416.73.73 0 0 0 .424.178c.16 0 .312-.064.424-.178a.653.653 0 0 0 .181-.416v-1.149a.534.534 0 0 0-.181-.416.73.73 0 0 0-.424-.178.587.587 0 0 0-.424.178.653.653 0 0 0-.181.416z"/>
        <path d="M58.953 40.782c.25.013.488.107.678.268.214.18.335.447.33.727v1.149a1.04 1.04 0 0 1-.278.676.98.98 0 0 1-.73.32 1.141 1.141 0 0 1-.68-.267.928.928 0 0 1-.328-.727v-1.151a1.04 1.04 0 0 1 .277-.676.98.98 0 0 1 .73-.319zm0 2.337a.223.223 0 0 0 .118-.039.305.305 0 0 0 .085-.16v-1.143a.148.148 0 0 0-.033-.106.388.388 0 0 0-.17-.088.223.223 0 0 0-.12.038.305.305 0 0 0-.084.16v1.15a.148.148 0 0 0 .033.106.388.388 0 0 0 .17.088v-.006zM55.053 41.777v1.149a.534.534 0 0 0 .181.416.73.73 0 0 0 .424.178c.16 0 .312-.064.424-.178a.653.653 0 0 0 .18-.416v-1.149a.534.534 0 0 0-.18-.416.73.73 0 0 0-.424-.178.587.587 0 0 0-.424.178.653.653 0 0 0-.181.416z"/>
        <path d="M55.66 40.782c.249.013.488.107.678.268.214.18.335.447.33.727v1.149a1.04 1.04 0 0 1-.278.676.98.98 0 0 1-.73.32 1.141 1.141 0 0 1-.68-.267.928.928 0 0 1-.328-.727v-1.151a1.04 1.04 0 0 1 .277-.676.98.98 0 0 1 .73-.319zm0 2.337a.223.223 0 0 0 .118-.039.305.305 0 0 0 .085-.16v-1.143a.148.148 0 0 0-.033-.106.388.388 0 0 0-.17-.088.223.223 0 0 0-.12.038.305.305 0 0 0-.084.16v1.15a.148.148 0 0 0 .033.106.388.388 0 0 0 .17.088v-.006zM51.76 41.718v1.149a.534.534 0 0 0 .181.415.73.73 0 0 0 .424.178c.16.001.312-.063.424-.178a.653.653 0 0 0 .18-.415v-1.15a.534.534 0 0 0-.18-.415.73.73 0 0 0-.424-.178.587.587 0 0 0-.424.178.653.653 0 0 0-.181.416z"/>
        <path d="M52.37 40.723c.25.012.488.106.678.268.214.18.335.447.33.727v1.149a1.04 1.04 0 0 1-.278.675.98.98 0 0 1-.73.321 1.141 1.141 0 0 1-.68-.268.928.928 0 0 1-.328-.727v-1.15a1.04 1.04 0 0 1 .277-.676.98.98 0 0 1 .73-.32zm0 2.336a.223.223 0 0 0 .118-.038.305.305 0 0 0 .085-.16v-1.143a.148.148 0 0 0-.033-.106.388.388 0 0 0-.17-.089.223.223 0 0 0-.12.039.305.305 0 0 0-.084.16v1.15a.148.148 0 0 0 .034.105c.049.041.107.07.17.082zM19.338 41.777v1.149a.534.534 0 0 0 .181.416.73.73 0 0 0 .424.178c.16 0 .312-.064.424-.178a.653.653 0 0 0 .18-.416v-1.149a.534.534 0 0 0-.18-.416.73.73 0 0 0-.424-.178.587.587 0 0 0-.424.178.653.653 0 0 0-.181.416z"/>
        <path d="M19.945 40.782c.25.013.488.107.678.268.214.18.335.447.33.727v1.149a1.04 1.04 0 0 1-.278.676.98.98 0 0 1-.73.32 1.141 1.141 0 0 1-.68-.267.928.928 0 0 1-.328-.727v-1.151a1.04 1.04 0 0 1 .277-.676.98.98 0 0 1 .73-.319zm0 2.337a.223.223 0 0 0 .118-.039.305.305 0 0 0 .085-.16v-1.143a.148.148 0 0 0-.033-.106.388.388 0 0 0-.17-.088.223.223 0 0 0-.12.038.305.305 0 0 0-.084.16v1.15a.148.148 0 0 0 .033.106.388.388 0 0 0 .17.088v-.006zM16.045 41.777v1.149a.534.534 0 0 0 .181.416.73.73 0 0 0 .424.178c.16 0 .312-.064.424-.178a.653.653 0 0 0 .18-.416v-1.149a.534.534 0 0 0-.18-.416.73.73 0 0 0-.424-.178.587.587 0 0 0-.424.178.653.653 0 0 0-.181.416z"/>
        <path d="M16.651 40.782c.25.013.488.107.68.268.213.18.334.447.328.727v1.149a1.04 1.04 0 0 1-.277.676.98.98 0 0 1-.73.32 1.141 1.141 0 0 1-.68-.267.928.928 0 0 1-.328-.727v-1.151a1.04 1.04 0 0 1 .277-.676.98.98 0 0 1 .73-.319zm0 2.337a.223.223 0 0 0 .12-.039.305.305 0 0 0 .084-.16v-1.143a.148.148 0 0 0-.033-.106.388.388 0 0 0-.17-.088.223.223 0 0 0-.12.038.305.305 0 0 0-.084.16v1.15a.148.148 0 0 0 .033.106.388.388 0 0 0 .17.088v-.006zM12.752 41.718v1.149a.534.534 0 0 0 .181.415.73.73 0 0 0 .424.178c.16.001.312-.063.423-.178a.653.653 0 0 0 .182-.415v-1.15a.534.534 0 0 0-.182-.415.73.73 0 0 0-.423-.178.587.587 0 0 0-.424.178.653.653 0 0 0-.181.416z"/>
        <path d="M13.358 40.723c.25.012.488.106.68.268.213.18.334.447.328.727v1.149a1.04 1.04 0 0 1-.277.675.98.98 0 0 1-.73.321 1.141 1.141 0 0 1-.68-.268.928.928 0 0 1-.328-.727v-1.15a1.04 1.04 0 0 1 .277-.676.98.98 0 0 1 .73-.32zm0 2.336a.223.223 0 0 0 .12-.038.305.305 0 0 0 .084-.16v-1.143a.148.148 0 0 0-.033-.106.388.388 0 0 0-.17-.089.223.223 0 0 0-.12.039.305.305 0 0 0-.084.16v1.15a.148.148 0 0 0 .033.105c.05.041.108.07.17.082zM49.075 40.191h13.17l-.601-.593v5.584l.606-.593H49.075l.607.593v-5.584a.607.607 0 0 0-1.212 0v5.584c.011.329.278.59.607.594h13.17a.615.615 0 0 0 .607-.594v-5.584a.615.615 0 0 0-.607-.594H49.075a.594.594 0 0 0 0 1.187z"/>
        <path d="M49.075 38.603h13.17c.55.003.998.445 1.008.995v5.584c-.01.55-.457.992-1.007.995H49.075a1.014 1.014 0 0 1-1.008-.995v-5.584a.963.963 0 0 1 .295-.71.982.982 0 0 1 .713-.285zm12.164.802H50.064c.011.064.017.128.017.193v.192h11.157l.001-.385zM49.28 40.593h-.205c-.069 0-.138-.007-.205-.02v3.614h.417l-.007-3.594zm11.96 0H50.09v3.594h11.156l-.007-3.594zm1.211 0h-.41v3.594h.405l.005-3.594zm-1.212 4.395H50.09v.385h11.157l-.007-.385z"/>
        <path d="M62.124 39.283v-4.16a.607.607 0 0 0-1.212 0v4.158a.607.607 0 0 0 1.212 0v.002z"/>
        <path d="M61.519 40.278a1.014 1.014 0 0 1-1.008-.995v-4.16a1.008 1.008 0 0 1 2.014 0v4.158c-.01.55-.456.993-1.006.997zm0-5.347a.215.215 0 0 0-.206.192v4.158a.205.205 0 0 0 .41 0v-4.158a.215.215 0 0 0-.204-.192zM47.782 35.717h4.04a.615.615 0 0 0 .607-.594v-2.728a.615.615 0 0 0-.607-.594h-4.04a.615.615 0 0 0-.607.594v2.728a.602.602 0 0 0 .607.594.615.615 0 0 0 .606-.594v-2.728l-.606.594h4.04l-.606-.594v2.728l.606-.593h-4.04a.602.602 0 0 0-.607.593c.011.329.278.59.607.594z"/>
        <path d="M47.751 36.12a1 1 0 0 1-.977-.984V32.39c.01-.55.457-.991 1.008-.995h4.04c.55.004.998.445 1.008.995v2.729c-.01.55-.457.991-1.008.995h-4.071v.006zm1.02-.802h2.044v-.392h-2.027v.193a.982.982 0 0 1-.018.197v.002zm-1.193-1.926v.764c.067-.014.136-.021.205-.021h.206v-.75l-.411.007zm1.211.741h2.026v-.748h-2.027l.001.748zm0-1.544h2.026v-.391h-2.027l.001.391z"/>
        <path d="M50.407 39.283v-4.16a.607.607 0 0 0-1.212 0v4.158a.607.607 0 0 0 1.212 0v.002z"/>
        <path d="M49.802 40.278a1.014 1.014 0 0 1-1.008-.995v-4.16a1.008 1.008 0 0 1 2.014 0v4.158c-.01.55-.456.993-1.006.997zm0-5.347a.215.215 0 0 0-.205.192v4.158a.205.205 0 0 0 .409 0v-4.158a.215.215 0 0 0-.204-.192zM40.348 35.717h4.041a.615.615 0 0 0 .607-.594v-2.728a.615.615 0 0 0-.607-.594h-4.041a.615.615 0 0 0-.607.594v2.728a.602.602 0 0 0 .607.594.615.615 0 0 0 .607-.594v-2.728l-.607.594h4.041l-.607-.594v2.728l.607-.593h-4.041a.602.602 0 0 0-.607.593c.012.329.279.59.607.594z"/>
        <path d="M40.318 36.12a1 1 0 0 1-.976-.984V32.39c.01-.55.457-.991 1.008-.995h4.04c.55.004.998.445 1.008.995v2.729c-.01.55-.457.991-1.007.995h-4.073v.006zm1.019-.802h2.044v-.392h-2.027v.193a.982.982 0 0 1-.017.197v.002zm-1.193-1.926v.764c.068-.014.137-.021.206-.021h.205v-.75l-.41.007zm1.212.741h2.025v-.748h-2.027l.002.748zm0-1.544h2.025v-.391h-2.027l.002.391z"/>
        <path d="M42.953 48.827V35.125a.607.607 0 0 0-1.212 0v13.703a.607.607 0 0 0 1.212 0v-.001z"/>
        <path d="M42.348 49.807a.973.973 0 0 1-1.008-.98V35.125a1.008 1.008 0 0 1 2.014 0v13.703a.973.973 0 0 1-1.006.98zm0-14.862c-.093 0-.206.03-.206.178v13.704c0 .148.111.178.206.178.094 0 .205-.03.205-.178V35.125c-.002-.15-.106-.18-.205-.18z"/>
        <path d="M.995 49.599h71.35a.594.594 0 1 0 0-1.188H.995a.594.594 0 0 0 0 1.188z"/>
        <path d="M72.345 50H.995a.995.995 0 0 1 0-1.99h71.35a.995.995 0 0 1 0 1.99zM.995 48.812a.193.193 0 1 0 0 .386h71.35a.193.193 0 0 0 0-.386H.995z"/>
    </g>
</svg>
