<svg width="14" height="10" viewBox="0 0 14 10" xmlns="http://www.w3.org/2000/svg">
    <path d="M13.772 4.124h.001a.79.79 0 0 1 .05.057l.022.028.024.033c.008.011.014.023.02.034l.02.031.016.036.016.034.013.034.013.037.009.036.009.038.006.042.005.034a.785.785 0 0 1 0 .154c0 .011-.003.022-.005.034-.002.013-.003.027-.006.04l-.01.04-.008.035-.013.037-.013.035-.016.033c-.005.012-.01.024-.017.036l-.018.031-.02.034-.025.034-.021.027a.78.78 0 0 1-.05.057h-.002L9.883 9.122a.777.777 0 0 1-1.1 0 .78.78 0 0 1 0-1.102l2.562-2.565H.778a.778.778 0 0 1 0-1.558h10.567L8.783 1.33a.78.78 0 0 1 0-1.102.777.777 0 0 1 1.1 0l3.89 3.896z" fill="#474EBB" fill-rule="evenodd"/>
</svg>
