<svg width="36" height="28" viewBox="0 0 36 28" xmlns="http://www.w3.org/2000/svg">
    <g fill-rule="nonzero" fill="none">
        <path d="M4.781 16.867 3 14.49a.499.499 0 0 0-.798 0L.421 16.867a.5.5 0 0 0 .399.798h.552v3.158H3.83v-3.158h.552a.5.5 0 0 0 .399-.798z" fill="#E56AB9"/>
        <path d="M3.424 19.66c-.567 0-1.026-.46-1.026-1.026v-.969c0-.413-.244-.768-.596-.931l1.44-1.92L3 14.491a.498.498 0 0 0-.798 0L.421 16.867a.499.499 0 0 0 .399.798h.552v3.175H3.83v-1.18h-.406z" fill="#BD50B6"/>
        <path d="m31.2 18.264 1.781 2.376c.2.266.599.266.798 0l1.781-2.376a.5.5 0 0 0-.399-.798h-.552v-3.158h-2.457v3.158h-.553a.5.5 0 0 0-.399.798z" fill="#E56AB9"/>
        <path d="M32.557 15.471c.567 0 1.026.46 1.026 1.026v.969c0 .413.244.769.596.931l-1.44 1.92.242.323c.2.266.598.266.798 0l1.782-2.376a.499.499 0 0 0-.4-.798h-.552v-3.174h-2.457v1.18h.405z" fill="#BD50B6"/>
        <g>
            <path fill="#E9EAEB" d="M6.629 9.992h4.132v12.042H6.629z"/>
            <path d="M7.91 18.188V9.992H6.63v12.042h4.132v-1.282h-.286a2.564 2.564 0 0 1-2.564-2.564z" fill="#D7DEED"/>
            <path d="M8.695 20.465a.32.32 0 0 1-.32-.32v-5.77a.32.32 0 1 1 .64 0v5.77a.32.32 0 0 1-.32.32z" fill="#333"/>
            <path fill="#F1F1F1" d="M5.81 9.992h5.77v2.496H5.81z"/>
            <path d="M6.836 9.992H5.81v2.496h5.77v-1.026H8.117a1.282 1.282 0 0 1-1.282-1.282v-.188z" fill="#D5D5D5"/>
            <path fill="#F1F1F1" d="M5.81 22.043h5.77v2.496H5.81z"/>
            <path d="M6.836 22.043H5.81v2.496h5.77v-1.026H8.117a1.282 1.282 0 0 1-1.282-1.282v-.188z" fill="#D5D5D5"/>
            <g>
                <path fill="#E9EAEB" d="M25.218 9.992h4.132v12.042h-4.132z"/>
                <path d="M26.5 18.188V9.992h-1.282v12.042h4.132v-1.282h-.286a2.564 2.564 0 0 1-2.564-2.564z" fill="#D7DEED"/>
                <path d="M27.284 20.465a.32.32 0 0 1-.32-.32v-5.77a.32.32 0 1 1 .64 0v5.77a.32.32 0 0 1-.32.32z" fill="#333"/>
                <path fill="#F1F1F1" d="M24.4 9.992h5.769v2.496h-5.77z"/>
                <path d="M25.425 9.992H24.4v2.496h5.769v-1.026h-3.462a1.282 1.282 0 0 1-1.282-1.282v-.188z" fill="#D5D5D5"/>
                <g>
                    <path fill="#F1F1F1" d="M24.4 22.043h5.769v2.496h-5.77z"/>
                    <path d="M25.425 22.043H24.4v2.496h5.769v-1.026h-3.462a1.282 1.282 0 0 1-1.282-1.282v-.188z" fill="#D5D5D5"/>
                </g>
            </g>
            <path fill="#95C6F0" d="M4.528 24.53h26.923v3.12H4.528z"/>
            <path d="M5.81 24.958v-.428H4.528v3.12h26.923v-1.282H7.22a1.41 1.41 0 0 1-1.41-1.41z" fill="#7FAFDA"/>
            <g>
                <path d="M20.663 19.018H15.25a1.378 1.378 0 0 0 0 2.756h5.413a1.378 1.378 0 0 0 0-2.756z" fill="#F1F1F1"/>
                <path d="M15.026 19.037a1.377 1.377 0 0 0-1.154 1.346c-.007.765.646 1.39 1.411 1.39h5.38c.684 0 1.25-.499 1.358-1.153h-5.842a1.154 1.154 0 0 1-1.153-1.154v-.429z" fill="#D5D5D5"/>
                <path d="M20.663 21.774H15.25a1.378 1.378 0 0 0 0 2.756h5.413a1.378 1.378 0 0 0 0-2.756z" fill="#F1F1F1"/>
                <path d="M15.026 21.794a1.377 1.377 0 0 0-1.154 1.346c-.007.765.646 1.39 1.411 1.39h5.38c.684 0 1.25-.5 1.358-1.154h-5.842a1.154 1.154 0 0 1-1.153-1.153v-.43z" fill="#D5D5D5"/>
                <g>
                    <path d="M17.955 12.878c-1.67-.001-3.024 1.373-3.023 3.069 0 1.695 1.355 3.07 3.025 3.07 1.67.001 3.024-1.373 3.024-3.068-.001-1.696-1.356-3.07-3.026-3.071z" fill="#FFE578"/>
                    <path d="M16.214 15.306a3.08 3.08 0 0 1 1.084-2.355 3.058 3.058 0 0 0-2.366 2.996c0 1.695 1.355 3.07 3.025 3.07.739 0 1.415-.268 1.94-.714a2.988 2.988 0 0 1-.658.074c-1.67-.001-3.025-1.376-3.025-3.071z" fill="#EAA192"/>
                    <path d="M19.551 14.972v.29a.088.088 0 0 1-.091.09h-.477a1.063 1.063 0 0 1-.366.665c-.201.17-.463.275-.784.312.316.337.75.845 1.304 1.523.026.03.03.062.01.097-.015.034-.042.05-.081.05h-.555a.084.084 0 0 1-.071-.033 37.7 37.7 0 0 0-1.414-1.622.085.085 0 0 1-.026-.062v-.362c0-.024.01-.047.027-.064a.088.088 0 0 1 .064-.027h.318c.25 0 .451-.041.604-.123.144-.07.25-.2.291-.355h-1.213a.088.088 0 0 1-.091-.09v-.29c0-.027.008-.049.026-.065a.088.088 0 0 1 .065-.026h1.173c-.108-.214-.362-.32-.76-.32h-.413a.088.088 0 0 1-.064-.028.088.088 0 0 1-.027-.064v-.378a.087.087 0 0 1 .091-.09h2.363a.088.088 0 0 1 .092.091v.29a.088.088 0 0 1-.092.091h-.661c.089.115.15.251.181.408h.486a.088.088 0 0 1 .091.091v.001z" fill="#333"/>
                </g>
            </g>
            <g>
                <path fill="#95C6F0" d="M17.956.32 4.495 7.497v2.496h26.923V7.496z"/>
                <path d="M6.578 8.334a.61.61 0 0 1 .276-.771L19.198.983 17.956.32 4.495 7.496v2.496h26.922V8.71H7.142a.61.61 0 0 1-.563-.376z" fill="#7FAFDA"/>
                <path d="M27.066 5.758a.513.513 0 0 0-.211-.694L24.7 3.916a.513.513 0 0 0-.482.905l2.153 1.148c.25.133.561.039.694-.211z" fill="#FFF"/>
            </g>
            <g transform="translate(12.31 4.15)">
                <path fill="#FFF" d="M.289 2.135h1.309"/>
                <path d="M1.598 2.635H.288C.13 2.635 0 2.41 0 2.135c0-.277.13-.5.288-.5h1.31c.16 0 .289.223.289.5 0 .276-.13.5-.289.5zM11.004 2.212h-1.31a.288.288 0 0 1 0-.577h1.31a.288.288 0 0 1 0 .577z" fill="#333"/>
                <circle fill="#F1F1F1" cx="5.646" cy="1.923" r="1.923"/>
                <path d="M5.005 1.282c0-.49.183-.936.484-1.275a1.923 1.923 0 1 0 1.596 3.191 1.923 1.923 0 0 1-2.08-1.916z" fill="#D5D5D5"/>
            </g>
        </g>
        <g fill="#333">
            <path d="M3.83 21.143H1.372a.32.32 0 0 1-.32-.32v-2.837H.82c-.655.022-1.066-.801-.656-1.311l1.782-2.376c.306-.433 1.005-.433 1.31 0l1.781 2.375c.411.51 0 1.334-.655 1.312H4.15v2.837a.32.32 0 0 1-.32.32zm-2.137-.64h1.816v-2.838a.32.32 0 0 1 .32-.32h.553c.167-.023.224-.138.143-.286l-1.781-2.375c-.047-.063-.202-.102-.285 0L.677 17.058c-.081.148-.024.263.143.286h.553a.32.32 0 0 1 .32.32v2.837zM32.725 20.832l-1.781-2.375c-.411-.51 0-1.334.655-1.312h.232v-2.837a.32.32 0 0 1 .32-.32h2.458a.32.32 0 0 1 .32.32v2.837h.232c.655-.022 1.067.801.656 1.311l-1.782 2.376c-.348.465-.962.465-1.31 0zm-1.268-2.76 1.78 2.375c.103.102.183.102.286 0l1.781-2.375c.081-.148.024-.263-.143-.286h-.552a.32.32 0 0 1-.32-.32v-2.837h-1.817v2.837a.32.32 0 0 1-.32.32h-.553c-.167.024-.224.139-.142.286z"/>
            <path d="M32.61 27.33h-.839v-2.8a.32.32 0 0 0-.32-.32h-.962v-2.167a.32.32 0 0 0-.32-.32h-.498v-8.915h.498a.32.32 0 0 0 .32-.32v-2.176h.929a.32.32 0 0 0 .32-.32V7.496a.32.32 0 0 0-.17-.283L18.107.038a.32.32 0 0 0-.302 0L4.345 7.213a.32.32 0 0 0-.17.283v2.496c0 .177.143.32.32.32h.995v2.176c0 .177.143.32.32.32h.498v8.915H5.81a.32.32 0 0 0-.32.32v2.167h-.962a.32.32 0 0 0-.32.32v2.8H3.25a.32.32 0 1 0 0 .64H32.61a.32.32 0 1 0 0-.64zm-2.762-4.966v1.846H24.72v-1.846h5.128zm-15.688.788c0-.6.489-1.09 1.09-1.09h5.413c.6 0 1.09.49 1.09 1.09 0 .512-.356.942-.833 1.058h-5.928a1.09 1.09 0 0 1-.832-1.058zm6.503-3.846a1.09 1.09 0 0 1 0 2.18H15.25a1.09 1.09 0 0 1 0-2.18h5.413zm-2.706-.609c-1.49 0-2.704-1.234-2.705-2.75-.031-1.465 1.236-2.779 2.703-2.749 1.491 0 2.705 1.235 2.705 2.75.032 1.465-1.236 2.779-2.703 2.75zm3.642 3.077a1.666 1.666 0 0 0-.936-3.045h-.793a3.393 3.393 0 0 0 1.431-2.78c0-1.87-1.502-3.391-3.346-3.392-1.812-.037-3.383 1.581-3.344 3.39 0 1.15.57 2.169 1.438 2.782h-.8a1.666 1.666 0 0 0-.936 3.045 1.666 1.666 0 0 0-.35 2.436H11.9v-2.167a.32.32 0 0 0-.32-.32h-.499v-8.915h.498a.32.32 0 0 0 .32-.32v-2.176h12.18v2.176c0 .177.144.32.32.32h.499v8.915H24.4a.32.32 0 0 0-.32.32v2.167h-2.13a1.666 1.666 0 0 0-.351-2.436zm3.94-.051v-8.915h3.49v8.915h-3.49zm4.31-9.556H24.72v-1.855h5.128v1.855zM4.814 9.671V7.688L17.956.684l13.141 7.004v1.983H4.815zm1.316 2.496v-1.855h5.128v1.855H6.13zm4.31.641v8.915H6.948v-8.915h3.491zm-4.31 9.556h5.128v1.846H6.13v-1.846zm25 4.966H4.848v-2.48H31.13v2.48z"/>
            <path d="M17.956 8.317a2.246 2.246 0 0 1-2.243-2.244 2.246 2.246 0 0 1 2.243-2.243A2.246 2.246 0 0 1 20.2 6.073a2.246 2.246 0 0 1-2.244 2.244zm0-3.846c-.883 0-1.602.719-1.602 1.602 0 .884.719 1.603 1.602 1.603.884 0 1.603-.72 1.603-1.603s-.72-1.602-1.603-1.602z"/>
        </g>
    </g>
</svg>
