<svg width="60" height="60" viewBox="0 0 60 60" xmlns="http://www.w3.org/2000/svg">
    <g fill="none" fill-rule="evenodd">
        <rect fill="#F8F8F8" fill-rule="nonzero" width="60" height="60" rx="12"/>
        <path d="m40.89 29.733-3.002-3.003v-4.246a.376.376 0 0 0-.375-.376h-4.246l-3.001-3.002a.386.386 0 0 0-.531 0l-3.002 3.002h-4.246a.376.376 0 0 0-.375.376v4.246l-3.002 3.003a.375.375 0 0 0 0 .53l3.002 3.003v4.246c0 .208.168.376.375.376h4.246l3.001 3.002a.376.376 0 0 0 .532 0l3.001-3.002h4.246a.376.376 0 0 0 .375-.376v-4.246l3.002-3.002a.375.375 0 0 0 0-.531z" stroke="#787878" stroke-width="2"/>
        <path d="m33.74 26.634-7.938 6.134a.376.376 0 0 0 .46.594l7.936-6.134a.376.376 0 0 0-.459-.594z" stroke="#787878" stroke-width=".75" fill="#787878" fill-rule="nonzero"/>
        <path d="M28.01 24.265c-.566 0-1.101.222-1.502.623-.4.4-.622.936-.622 1.502 0 .567.222 1.102.622 1.503.401.4.936.622 1.503.622.566 0 1.102-.221 1.502-.622.4-.4.622-.936.622-1.502 0-.567-.221-1.103-.622-1.503-.4-.4-.936-.623-1.502-.623zm0 1.25c.235 0 .453.09.619.257a.865.865 0 0 1 .256.619c0 .234-.09.452-.256.618a.864.864 0 0 1-.618.256.866.866 0 0 1-.62-.256.865.865 0 0 1-.255-.619c0-.234.09-.452.256-.618a.865.865 0 0 1 .619-.257zM31.5 31.375c-.567 0-1.102.222-1.503.623-.4.4-.622.935-.622 1.501 0 .567.222 1.103.622 1.503.4.4.936.623 1.503.623.566 0 1.102-.222 1.502-.623.4-.4.622-.936.622-1.502s-.221-1.102-.622-1.502c-.4-.401-.936-.623-1.502-.623zm0 1.25c.234 0 .452.09.618.256a.865.865 0 0 1 .256.619c0 .235-.09.453-.256.619a.864.864 0 0 1-.618.256.864.864 0 0 1-.619-.256.865.865 0 0 1-.256-.62c0-.234.09-.452.256-.618a.864.864 0 0 1 .619-.256z" fill="#AB001F" fill-rule="nonzero"/>
    </g>
</svg>
