<svg width="78" height="50" viewBox="0 0 78 50" xmlns="http://www.w3.org/2000/svg">
    <g fill="#94B23E" fill-rule="nonzero" opacity=".9">
        <path d="M10.346 32.13v-7.07a.614.614 0 0 0-1.218 0v7.07a.614.614 0 0 0 1.218 0z"/>
        <path d="M9.737 33.108a.96.96 0 0 1-.992-.977V25.06a.992.992 0 0 1 1.985 0v7.07a.96.96 0 0 1-.993.978zm0-8.247a.198.198 0 0 0-.225.204v7.066a.227.227 0 0 0 .45 0V25.06a.198.198 0 0 0-.225-.2zM27.523 32.13v-7.07a.614.614 0 0 0-1.217 0v7.07a.614.614 0 0 0 1.217 0z"/>
        <path d="M26.915 33.108a.96.96 0 0 1-.993-.971v-7.07a.992.992 0 1 1 1.985 0v7.064a.96.96 0 0 1-.992.977zm0-8.247a.198.198 0 0 0-.226.204v7.066a.227.227 0 0 0 .451 0V25.06a.198.198 0 0 0-.225-.2zM24.747 30.388v-5.583a.614.614 0 0 0-1.218 0v5.583a.614.614 0 0 0 1.218 0z"/>
        <path d="M24.138 31.364a.96.96 0 0 1-.992-.97V24.81a.992.992 0 0 1 1.985 0v5.578a.96.96 0 0 1-.993.976zm0-6.758a.198.198 0 0 0-.225.204v5.578a.227.227 0 0 0 .45 0v-5.583a.198.198 0 0 0-.225-.2zM18.936 33.743v-4.467a.614.614 0 0 0-1.218 0v4.467a.614.614 0 0 0 1.218 0z"/>
        <path d="M18.327 34.714a.96.96 0 0 1-.993-.971v-4.467a.992.992 0 0 1 1.985 0v4.467a.96.96 0 0 1-.992.97zm0-5.642a.198.198 0 0 0-.226.204v4.467a.227.227 0 0 0 .451 0v-4.467a.198.198 0 0 0-.225-.204zM13.383 30.388v-5.583a.614.614 0 0 0-1.218 0v5.583a.614.614 0 0 0 1.218 0z"/>
        <path d="M12.774 31.364a.96.96 0 0 1-.992-.976v-5.583a.992.992 0 1 1 1.985 0v5.583a.96.96 0 0 1-.993.976zm0-6.758a.198.198 0 0 0-.225.204v5.578a.227.227 0 0 0 .45 0v-5.583a.198.198 0 0 0-.225-.2zM18.896 13.685v-1.738a.629.629 0 0 0-.614-.613.604.604 0 0 0-.613.613v1.738a.629.629 0 0 0 .613.614.604.604 0 0 0 .614-.614z"/>
        <path d="M18.278 14.674a1.01 1.01 0 0 1-1.004-.99v-1.737a.986.986 0 0 1 1.004-.99c.547.004.99.443 1.001.99v1.738a.986.986 0 0 1-1.001.99zm0-2.957a.22.22 0 0 0-.237.23v1.738a.248.248 0 0 0 .237.224.22.22 0 0 0 .236-.224v-1.738a.248.248 0 0 0-.236-.23zM68.248 28.997v19.986l.614-.613H55.978l.613.613V35.858a.614.614 0 0 0-.613-.613h-8.59a.614.614 0 0 0-.613.613v13.125l.613-.613h-13l.614.613V28.997l-.613.614h34.499a.598.598 0 1 0 0-1.195h-34.5a.614.614 0 0 0-.613.613v19.972c0 .34.275.614.614.614H47.39a.614.614 0 0 0 .614-.614V35.878l-.614.614h8.59l-.614-.614v13.125c0 .339.275.614.614.614h12.884a.614.614 0 0 0 .613-.614V29.022a.614.614 0 0 0-1.218 0l-.012-.025z"/>
        <path d="M34.389 28.031h34.499a.963.963 0 0 1 .702.28 1 1 0 0 1 .281.706v19.984a.999.999 0 0 1-1.003.991H55.984a.999.999 0 0 1-1.003-.99V36.868h-6.582v12.134a.999.999 0 0 1-1.003.99H34.389a.999.999 0 0 1-1.003-.99V29.022a.999.999 0 0 1 1.003-.991zm33.47.767H35.397v.428h32.468l-.006-.428zm1.237.22a.227.227 0 0 0-.45 0v.203h.236a.193.193 0 0 0 .22-.204h-.006zm0 18.974v-18.02a1.097 1.097 0 0 1-.216.02h-.256v18h.472zm-34.466-18h-.471v18h.47v-18zm33.235 0H35.397v18h10.997V35.858a.999.999 0 0 1 1.003-.99h8.59a.999.999 0 0 1 1.003.99v12.134h10.878l-.003-18zM54.98 35.635h-6.582v.46h6.583l-.001-.46zm-7.35 1.227h-.471v11.124h.47V36.86zm8.589 0h-.471v11.124h.47V36.86zm-9.827 11.89H35.395v.46h10.998v-.46zm21.473 0H56.988v.46h10.878v-.46zM55.286.971V5.43l.613-.614c-2.497 0-5.012.04-7.515.04H47.31c.2.215.399.411.613.614V.97l-.613.614h3.296L49.993.97c-.06.92.5 2.546 1.678 2.526 1.178-.02 1.598-1.644 1.558-2.526l-.614.614h3.297a.598.598 0 1 0 0-1.195h-3.303a.614.614 0 0 0-.613.613c.014.294-.034.588-.14.862-.04.137-.153.431-.279.471.153-.058.08.02 0-.118-.08-.138-.153-.235-.22-.353a1.84 1.84 0 0 1-.153-.862.63.63 0 0 0-.613-.613h-3.313a.614.614 0 0 0-.614.613v4.493c0 .339.275.613.614.613 2.497 0 5.012-.04 7.515-.04h1.074a.614.614 0 0 0 .614-.613V.971a.614.614 0 0 0-1.218 0h.023z"/>
        <path d="M47.278 0h3.291a1.01 1.01 0 0 1 1.003.991v.026a1.33 1.33 0 0 0 .017.316c.012-.11.017-.222.016-.333a.92.92 0 0 1 .257-.673c.195-.206.464-.324.747-.327h3.296a.957.957 0 0 1 .775.368c.178.235.246.534.187.822v4.268a.999.999 0 0 1-1.003.99H54.79c-1.247 0-2.52.01-3.751.02-1.232.011-2.508.02-3.758.02a.999.999 0 0 1-1.003-.99V.99a.999.999 0 0 1 1-.99zm2.345.767H48.32v.428h1.287V.947l.015-.18zm1.186.215a.252.252 0 0 0-.24-.215h-.239l.476.46a2.072 2.072 0 0 1 .003-.245zm4.095-.215h-1.3l.01.187v.241h1.27V.971c0-.068.005-.137.018-.204h.002zm1.198.318V.97a.198.198 0 0 0-.227-.204.215.215 0 0 0-.206.104v.324h.236a.19.19 0 0 0 .197-.11zm0 3.362V1.945a1.09 1.09 0 0 1-.197.017h-.236v2.485h.433zm-8.548-2.485h-.513v2.525h.511l.002-2.525zm2.166 0h-1.4v2.525h.076c1.247 0 2.52-.01 3.752-.02.903 0 1.84-.014 2.76-.019V1.962h-1.39c-.218.968-.792 1.902-1.84 1.92h-.035c-1.01 0-1.67-.92-1.923-1.92zm1.262 0h-.46c.2.614.592 1.153 1.133 1.153h.016c.544-.009.888-.56 1.056-1.153h-.5l-.009.021a2.146 2.146 0 0 1-.066.181l.086.06-.196.197-.022.19-.277.061h-.023l-.023.008-.09-.26-.104.214a.528.528 0 0 1-.08-.046l-.378-.261.098-.098a1.946 1.946 0 0 1-.127-.209l-.01-.02-.024-.038zM47.634 5.72a9.25 9.25 0 0 1-.593-.585v.36c.005.127.11.227.237.225h.356zm7.27-.038v-.46c-.92 0-1.84.01-2.749.018-1.227.009-2.508.02-3.758.02h-.075v.46c.908 0 1.82-.01 2.709-.017 1.227-.01 2.508-.02 3.758-.02l.115-.001zM66.671 23.224v5.778l.614-.614H35.933l.614.614v-5.778l-.614.613H67.29a.598.598 0 1 0 0-1.194H35.933a.614.614 0 0 0-.613.613v5.778c0 .339.275.614.613.614H67.29a.614.614 0 0 0 .613-.614v-5.79a.614.614 0 0 0-1.218 0l-.014-.02z"/>
        <path d="M35.933 22.253H67.29a.974.974 0 0 1 .708.285c.193.184.3.44.295.706v5.778a.999.999 0 0 1-1.003.99H35.933a.999.999 0 0 1-1.003-.99v-5.778a.999.999 0 0 1 1.003-.991zm30.355.767H36.935v.43h29.353v-.43zm1.173.067a.273.273 0 0 0-.153-.047.198.198 0 0 0-.225.204v.205h.216a.183.183 0 0 0 .195-.108.265.265 0 0 0-.034-.254h.001zm.066 4.926V24.19a1.09 1.09 0 0 1-.236.025h-.236v3.798h.472zm-31.359-3.797h-.47v3.798h.47v-3.798zm30.118 0h-29.35v3.798h29.352l-.002-3.798zm0 4.565h-29.35v.46h29.352l-.002-.46zM60.54 11.608v5.78l.613-.614-15.878.118c-1.059 0-2.137 0-3.195.02l.613.614v-5.78l-.613.614 15.878-.118c1.058 0 2.136 0 3.195-.02a.598.598 0 0 0 0-1.195l-15.878.118c-1.059 0-2.137 0-3.195.02a.614.614 0 0 0-.614.613v5.766a.614.614 0 0 0 .614.614l15.878-.118c1.058 0 2.136 0 3.195-.02a.614.614 0 0 0 .613-.614v-5.778a.614.614 0 0 0-1.218 0l-.009-.02z"/>
        <path d="M61.174 10.637a.93.93 0 0 1 .735.332c.164.18.253.416.249.66v5.773a.999.999 0 0 1-1.004.99c-1.055.02-2.147.02-3.195.02l-15.875.118a.999.999 0 0 1-1.006-.99v-5.775a.999.999 0 0 1 1.003-.991c1.055-.02 2.147-.02 3.195-.02l15.898-.117zm-1.021 1.209v-.434l-14.878.11h-2.197v.434l14.878-.11c.726.006 1.467.006 2.2 0h-.003zm1.178-.37a.267.267 0 0 0-.157-.056.198.198 0 0 0-.225.204v.208h.208c.079.011.155-.03.189-.103a.284.284 0 0 0-.018-.254l.003.001zm.06 4.92v-3.823a2.3 2.3 0 0 1-.471.03v3.795l.47-.003zm-1.238.009v-3.792h-2.194l-14.878.11v3.797h2.194l14.878-.115zm-17.836.125v-3.796h-.47v3.804h.228l.242-.008zm17.836 1.114v-.473l-14.878.11h-2.197v.473l14.878-.11c.726.006 1.465.006 2.2 0h-.003z"/>
        <path d="M57.143 5.849v5.78l.614-.614c-3.516.04-7.011.058-10.525.098H45.48l.614.613v-5.78l-.614.614c3.516-.04 7.011-.058 10.525-.098h1.758a.598.598 0 0 0 0-1.195c-3.516.04-7.011.059-10.525.099H45.48a.614.614 0 0 0-.613.613v5.766a.629.629 0 0 0 .613.613c3.516-.04 7.011-.058 10.525-.098h1.758a.614.614 0 0 0 .613-.613V5.875a.614.614 0 0 0-1.217 0l-.016-.026z"/>
        <path d="M57.781 4.878a.93.93 0 0 1 .735.331c.165.18.254.416.249.66v5.778a.999.999 0 0 1-1.004.99h-1.756c-1.753.02-3.528.034-5.258.05-1.73.015-3.506.029-5.264.049a1.01 1.01 0 0 1-1.006-.991V5.967a.999.999 0 0 1 1.003-.991h1.758c1.753-.02 3.528-.034 5.258-.05 1.73-.014 3.506-.028 5.264-.048h.021zM56.76 6.073v-.418c-1.431.016-2.864.027-4.26.039-1.722.014-3.503.029-5.26.049h-.766v.417c1.42-.014 2.839-.027 4.255-.038 1.724-.014 3.506-.03 5.264-.05h.767zm1.178-.358a.267.267 0 0 0-.166-.05.198.198 0 0 0-.225.204v.204h.216a.178.178 0 0 0 .18-.103.284.284 0 0 0-.005-.249v-.006zm.061 4.915V6.813a1.04 1.04 0 0 1-.236.027h-.236v3.799l.472-.01zm-1.238-3.795h-.754c-1.755.02-3.537.035-5.261.049l-4.261.038v3.813h.753c1.753-.02 3.535-.035 5.26-.049l4.263-.038V6.835zm-11.043 3.894V6.935h-.471v3.8l.47-.006zm11.043 1.137v-.46c-1.42.014-2.839.027-4.256.038-1.723.014-3.505.03-5.261.05h-.767v.46l4.26-.039c1.722-.014 3.503-.03 5.259-.05h.765zm-10.963.095-.553-.541v.32a.248.248 0 0 0 .237.224l.316-.003zM63.016 17.386v5.778l.614-.613-19.293.125c-1.578 0-3.155 0-4.755.04l.614.614v-5.786l-.614.614 19.295-.118c1.578 0 3.155 0 4.754-.02a.598.598 0 0 0 0-1.195l-19.294.112c-1.578 0-3.155 0-4.755.02a.614.614 0 0 0-.613.613v5.778a.629.629 0 0 0 .613.614c6.443-.072 12.87-.088 19.3-.13 1.577 0 3.154-.02 4.754-.04a.614.614 0 0 0 .614-.614v-5.772a.614.614 0 0 0-1.218 0l-.016-.02z"/>
        <path d="M63.654 16.435a.985.985 0 0 1 .445.101c.337.158.549.5.54.872v5.778a.999.999 0 0 1-1.003.99h-.05c-1.545.019-3.142.039-4.703.039l-6.43.035c-4.215.022-8.574.043-12.861.083a1.01 1.01 0 0 1-1.007-.991v-5.78a.999.999 0 0 1 1.004-.99c1.595-.02 3.2-.02 4.754-.02l19.311-.117zm.108.79a.307.307 0 0 0-.117-.023.198.198 0 0 0-.225.204v.227h.211a.186.186 0 0 0 .204-.153.233.233 0 0 0-.073-.255zm-1.13.416v-.433l-18.295.112c-1.227 0-2.49 0-3.753.01v.43l18.29-.112c1.234.002 2.498.002 3.759-.007zm1.239 4.532v-3.802a2.269 2.269 0 0 1-.471.029v3.776l.47-.003zm-1.238 0v-3.765c-1.26.009-2.525.009-3.75.009l-18.291.112v3.784c1.26-.02 2.524-.02 3.75-.02l18.29-.12zm-22.81.146v-3.786h-.47v3.807h.226l.244-.021zm22.81 1.095v-.46l-18.296.106c-1.227 0-2.494 0-3.753.02v.478c3.96-.033 7.976-.053 11.858-.073l6.431-.036c1.263-.001 2.49-.013 3.76-.035zm-22.728.154-.553-.542v.32a.248.248 0 0 0 .237.225l.316-.003zM55.347 35.853v13.13l.614-.613h-8.59l.614.613v-13.13l-.614.614h8.59a.598.598 0 1 0 0-1.195h-8.59a.614.614 0 0 0-.613.614V49.01c0 .339.274.613.613.613h8.59a.614.614 0 0 0 .613-.613V35.878a.614.614 0 0 0-1.218 0l-.009-.025z"/>
        <path d="M47.371 34.887h8.59a.974.974 0 0 1 .708.285c.193.184.3.44.295.706v13.125a.999.999 0 0 1-1.003.99h-8.59a.999.999 0 0 1-1.003-.99V35.878a.999.999 0 0 1 1.003-.99zm7.587.767h-6.579v.428h6.583l-.004-.428zm1.173.068a.273.273 0 0 0-.153-.048.198.198 0 0 0-.226.204v.204h.209a.183.183 0 0 0 .195-.109.265.265 0 0 0-.02-.251h-.005zm.066 12.27V36.824a1.09 1.09 0 0 1-.236.025h-.237v11.143h.473zm-8.59-11.143h-.466v11.143h.471l-.005-11.143zm7.35 0H48.38v11.143h6.583l-.004-11.143zm0 11.91H48.38v.46h6.583l-.004-.46zM20.514 24.83v8.678l.613-.613h-5.675l.614.613V24.83l-.614.613h5.675a.598.598 0 1 0 0-1.194h-5.675a.614.614 0 0 0-.613.613v8.678c0 .34.274.614.613.614h5.675a.614.614 0 0 0 .614-.614v-8.69a.614.614 0 0 0-1.218 0l-.01-.02z"/>
        <path d="M15.461 23.859h5.676a.974.974 0 0 1 .708.285c.193.184.3.44.295.706v8.678a.999.999 0 0 1-1.003.991H15.46a.999.999 0 0 1-1.003-.99v-8.68a.999.999 0 0 1 1.003-.99zm4.67.767h-3.668v.428h3.667v-.428zm1.173.067a.273.273 0 0 0-.154-.047.198.198 0 0 0-.225.204v.204h.216a.183.183 0 0 0 .195-.11.265.265 0 0 0-.032-.25zm.066 7.823v-6.724a1.09 1.09 0 0 1-.236.024h-.237v6.697l.473.003zm-5.675-6.697h-.47v6.697h.471l-.001-6.697zm4.434 0h-3.666v6.697h3.667l-.001-6.697zm0 7.464h-3.666v.46h3.667l-.001-.46z"/>
        <path d="M26.246 38.522H10.328l.613.614v-5.393l-.613.613h15.918l-.614-.613v5.387a.614.614 0 0 0 1.218 0v-5.387a.614.614 0 0 0-.613-.614h-15.93a.614.614 0 0 0-.613.614v5.387c0 .339.275.613.614.613h15.918a.598.598 0 1 0 0-1.195l.02-.026z"/>
        <path d="M26.226 40.12H10.308a.999.999 0 0 1-1.003-.99v-5.387a.999.999 0 0 1 1.003-.99h15.918a.999.999 0 0 1 1.003.99v5.387a.95.95 0 0 1-.294.705.974.974 0 0 1-.71.286zm-14.895-.766h13.94a1.026 1.026 0 0 1-.024-.224v-.224H11.33l.002.448zm14.68-1.215h.451v-3.405h-.45v3.405zm-14.68 0h13.913v-3.405H11.33l.002 3.405zm-1.258 0h.49v-3.405h-.491l.001 3.405zm1.258-4.172h13.913v-.448H11.33l.002.448z"/>
        <path d="M22.931 42.556h-9.287l.613.614v-3.727l-.613.613h9.287l-.613-.613v3.72a.614.614 0 0 0 1.218 0v-3.72a.614.614 0 0 0-.614-.614h-9.304a.614.614 0 0 0-.614.614v3.72c0 .34.275.614.614.614h9.287a.598.598 0 1 0 0-1.195l.026-.026z"/>
        <path d="M22.911 44.155h-9.293a.999.999 0 0 1-1.003-.991v-3.721a.999.999 0 0 1 1.003-.991h9.287a.999.999 0 0 1 1.003.99v3.722a.95.95 0 0 1-.294.705.974.974 0 0 1-.703.286zm-8.264-.767h7.307a1.026 1.026 0 0 1-.024-.224v-.224h-7.285l.002.448zm8.05-1.215h.45v-1.74h-.45v1.74zm-8.05 0h7.283v-1.74h-7.285l.002 1.74zm-1.258 0h.491v-1.74h-.492l.001 1.74zm1.258-2.508h7.283v-.446h-7.285l.002.446z"/>
        <path d="M24.408 43.165v1.666l.307-.53a3.04 3.04 0 0 0-1.178 1.274l.54-.295H12.584l.54.295a3.052 3.052 0 0 0-1.238-1.313l.307.53v-1.627l-.614.614H25.02a.598.598 0 1 0 0-1.195H11.566a.614.614 0 0 0-.614.613v1.392a.865.865 0 0 0 .14.587c.12.176.358.255.52.391.192.185.348.404.46.646a.59.59 0 0 0 .54.294h11.483a.658.658 0 0 0 .54-.294c.12-.27.298-.51.52-.706.154-.136.34-.176.439-.352.076-.186.104-.388.08-.588v-1.371a.614.614 0 0 0-1.218 0l-.048-.03z"/>
        <path d="M11.566 42.194h13.44c.143 0 .284.027.415.083.384.134.638.501.628.908v1.45c.022.24-.023.481-.13.698a1.002 1.002 0 0 1-.394.368.97.97 0 0 0-.13.087c-.181.162-.324.36-.42.583l-.008.015a1.037 1.037 0 0 1-.873.488h-11.49a.97.97 0 0 1-.88-.503 1.802 1.802 0 0 0-.372-.534c-.048-.037-.1-.07-.153-.1a1.296 1.296 0 0 1-.422-.35 1.227 1.227 0 0 1-.215-.815V43.18a.999.999 0 0 1 1.004-.987zm12.459.767H12.567v.428H24.03l-.004-.428zm1.11.03a.318.318 0 0 0-.078-.01.198.198 0 0 0-.225.204v.204h.176c.1.013.191-.054.209-.153a.233.233 0 0 0-.083-.246h.001zm-.234 2.211c.072-.057.149-.109.23-.153a.408.408 0 0 0 .125-.094.756.756 0 0 0 .031-.307v-.526c-.09.024-.183.036-.276.036h-.215v.098l.25.236-.92 1.618a.294.294 0 0 0 .167-.092c.142-.312.35-.59.608-.816zm-13.516-1.046h-.056v.42c0 .201 0 .284.057.35l.017.023c.056.055.12.101.19.137.092.052.18.112.26.18.232.217.419.478.552.766a.143.143 0 0 0 .072.06l-1.092-1.936zm12.64 0H12.567v.114c.224.183.423.393.594.627h10.327a3.32 3.32 0 0 1 .537-.57v-.17zm-10.369 1.508H13.6l.221.448h9.036l.212-.448h-9.412zM53.787 28.394H49.74l.614.614v-.49a.684.684 0 0 1 .06-.214c.04-.118.08-.235.12-.333.02-.058 0 0 0 .02 0-.04.02-.058.04-.098s.06-.098.08-.153a2.55 2.55 0 0 1 .199-.295c.04-.058 0 .02-.02.02s.04-.04.04-.058c.04-.04.08-.098.12-.137.067-.07.14-.136.218-.196-.1.078 0 0 .04-.02s.1-.058.14-.098l.12-.059c.08-.04.12-.04.02 0 .08-.02.179-.058.259-.078.02 0 .18-.04.06 0s.04 0 .06 0h.099c-.12-.02 0 0 .04 0a.288.288 0 0 1 .12.04c.1.02-.1-.058.02 0 .05.019.097.045.14.078.039.02.152.137.059.04.078.067.151.138.22.215 0 0 .099.118.059.078-.04-.04 0 .02.02.04s.04.058.06.078c.154.217.259.464.307.726 0 .078.04.153.04.234v.686a.619.619 0 0 0 1.237 0 3.206 3.206 0 0 0-1.84-3.33 2.63 2.63 0 0 0-2.816 1.227 3.756 3.756 0 0 0-.64 2.095c0 .34.275.614.613.614h4.054a.63.63 0 0 0 .614-.614.604.604 0 0 0-.614-.613l.086-.019z"/>
        <path d="M53.708 30.013v-.767a.244.244 0 0 0 .153-.066.36.36 0 0 0 .078-.18.22.22 0 0 0-.235-.202v-.02h-.233v.268a.17.17 0 0 0 .054.11.275.275 0 0 0 .183.09v.767h-4.054a.999.999 0 0 1-1.004-.991v-.01a4.164 4.164 0 0 1 .712-2.31 3.387 3.387 0 0 1 2.534-1.498c.247 0 .492.043.724.127a3.601 3.601 0 0 1 2.09 3.708c-.02.54-.462.968-1.002.974zm-2.973-.767h1.994a.845.845 0 0 1-.022-.235v-.233h-1.972v.468zm-1.318-.22a.233.233 0 0 0 .237.22h.392l-.613-.597c0 .134-.013.26-.016.376v.001zm4.373-.992.095.012a2.535 2.535 0 0 0-1.523-1.994 1.354 1.354 0 0 0-.46-.083 2.634 2.634 0 0 0-1.911 1.177 2.827 2.827 0 0 0-.414.863h.534c.021-.06.043-.118.064-.173h-.282l.595-.584v-.02l.115-.114c.01-.01.02-.024.03-.036a2.315 2.315 0 0 1 .35-.331l.043-.028-.153-.076.351-.052.12-.058a.568.568 0 0 1 .225-.067l.033-.011v-.048h.2a.479.479 0 0 1 .088-.009h.327v.041a.494.494 0 0 1 .178.076.825.825 0 0 1 .076.04l.994.487-.426.063.024.025v.04c.173.25.29.536.345.835h.367l.015.025zm-2.854-.023h1.696a1.32 1.32 0 0 0-.187-.397.575.575 0 0 1-.087-.118.555.555 0 0 1-.042-.07l-.01-.013a.808.808 0 0 0-.09-.088l-.022-.015-.028-.023-.03-.024-.03-.016-.021-.021h-.037l-.046-.023h-.07a.614.614 0 0 1-.123.015h-.03c-.05.017-.102.034-.153.048l-.023.01a.874.874 0 0 1-.084.056h-.01l-.03.03-.046.023-.03.02c-.04.034-.08.072-.133.123-.01.01-.02.024-.03.037l-.025.029a.488.488 0 0 1-.081.112c-.046.06-.086.124-.128.19a.834.834 0 0 1-.056.106l-.014.009zM48.896 9.453h8.849a.598.598 0 1 0 0-1.195h-8.85a.598.598 0 1 0 0 1.195z"/>
        <path d="M57.743 9.837h-8.847a.982.982 0 1 1 0-1.962h8.849a.982.982 0 1 1 0 1.962h-.002zm-8.847-1.195a.215.215 0 1 0 0 .428h8.849a.215.215 0 1 0 0-.428h-8.85zM34.614 32.98h34.358a.598.598 0 1 0 0-1.196H34.614a.598.598 0 1 0 0 1.195z"/>
        <path d="M68.968 33.363H34.61a.982.982 0 1 1 0-1.962h34.358a.982.982 0 1 1 0 1.962zM34.61 32.168a.215.215 0 1 0 0 .428h34.358a.215.215 0 1 0 0-.428H34.61zM68.848 44.791H55.964a.598.598 0 1 0 0 1.195h12.884a.598.598 0 1 0 0-1.195z"/>
        <path d="M55.964 44.408h12.884a.982.982 0 1 1 0 1.961H55.964a.982.982 0 1 1 0-1.961zm12.884 1.195a.215.215 0 1 0 0-.428H55.964a.215.215 0 1 0 0 .428h12.884zM47.377 44.791H34.493a.598.598 0 1 0 0 1.195h12.884a.598.598 0 1 0 0-1.195z"/>
        <path d="M34.495 44.408h12.884a.982.982 0 1 1 0 1.961H34.495a.982.982 0 1 1 0-1.961zm12.884 1.195a.215.215 0 1 0 0-.428H34.495a.215.215 0 1 0 0 .428h12.884zM68.848 42.44H55.964a.598.598 0 1 0 0 1.195h12.884a.598.598 0 1 0 0-1.195z"/>
        <path d="M55.964 42.056h12.884a.982.982 0 1 1 0 1.962H55.964a.982.982 0 1 1 0-1.962zm12.884 1.195a.215.215 0 1 0 0-.428H55.964a.215.215 0 1 0 0 .428h12.884zM47.377 42.44H34.493a.598.598 0 1 0 0 1.195h12.884a.598.598 0 1 0 0-1.195z"/>
        <path d="M34.495 42.056h12.884a.982.982 0 1 1 0 1.962H34.495a.982.982 0 1 1 0-1.962zm12.884 1.195a.215.215 0 1 0 0-.428H34.495a.215.215 0 1 0 0 .428h12.884zM60.958 37.406a.598.598 0 1 0 0-1.195.598.598 0 1 0 0 1.195z"/>
        <path d="M60.958 37.79a.982.982 0 1 1 .983-.982.962.962 0 0 1-.983.981zm0-1.196a.215.215 0 1 0 .216.215.195.195 0 0 0-.216-.215zM65.334 37.406a.598.598 0 1 0 0-1.195.598.598 0 1 0 0 1.195z"/>
        <path d="M65.334 37.79a.982.982 0 1 1 .983-.982.962.962 0 0 1-.983.981zm0-1.196a.215.215 0 1 0 .216.215.195.195 0 0 0-.216-.215zM37.89 37.406a.598.598 0 1 0 0-1.195.598.598 0 1 0 0 1.195z"/>
        <path d="M37.89 37.79a.982.982 0 1 1 .984-.982.962.962 0 0 1-.983.981zm0-1.196a.215.215 0 1 0 .217.215.195.195 0 0 0-.216-.215zM42.265 37.406a.598.598 0 1 0 0-1.195.598.598 0 1 0 0 1.195z"/>
        <path d="M42.265 37.79a.982.982 0 1 1 .983-.982.962.962 0 0 1-.983.981zm0-1.196a.215.215 0 1 0 .216.215.195.195 0 0 0-.216-.215zM60.958 41.618a.598.598 0 1 0 0-1.195.598.598 0 1 0 0 1.195z"/>
        <path d="M60.958 42.001a.982.982 0 1 1 .983-.982.962.962 0 0 1-.983.982zm0-1.195a.215.215 0 1 0 .216.215.195.195 0 0 0-.216-.215zM65.334 41.618a.598.598 0 1 0 0-1.195.598.598 0 1 0 0 1.195z"/>
        <path d="M65.334 42.001a.982.982 0 1 1 .983-.982.962.962 0 0 1-.983.982zm0-1.195a.215.215 0 1 0 .216.215.195.195 0 0 0-.216-.215zM37.89 41.618a.598.598 0 1 0 0-1.195.598.598 0 1 0 0 1.195z"/>
        <path d="M37.89 42.001a.982.982 0 1 1 .984-.982.962.962 0 0 1-.983.982zm0-1.195a.215.215 0 1 0 .217.215.195.195 0 0 0-.216-.215zM42.265 41.618a.598.598 0 1 0 0-1.195.598.598 0 1 0 0 1.195z"/>
        <path d="M42.265 42.001a.982.982 0 1 1 .983-.982.962.962 0 0 1-.983.982zm0-1.195a.215.215 0 1 0 .216.215.195.195 0 0 0-.216-.215z"/>
        <g>
            <path d="M45.28 20.912a.598.598 0 1 0 0-1.194.598.598 0 1 0 0 1.194z"/>
            <path d="M45.28 21.296a.982.982 0 1 1 .984-.982.962.962 0 0 1-.983.982zm0-1.195a.215.215 0 1 0 .217.215.195.195 0 0 0-.216-.215zM18.258 18.19a.598.598 0 1 0 0-1.195.598.598 0 1 0 0 1.195z"/>
            <path d="M18.258 18.573a.982.982 0 1 1 .983-.981.962.962 0 0 1-.983.981zm0-1.194a.215.215 0 1 0 .216.214.195.195 0 0 0-.216-.214zM18.258 21.893a.598.598 0 1 0 0-1.195.598.598 0 1 0 0 1.195z"/>
            <path d="M18.258 22.276a.982.982 0 1 1 .983-.982.962.962 0 0 1-.983.982zm0-1.195a.215.215 0 1 0 .216.215.195.195 0 0 0-.216-.215zM12.705 37.015a.598.598 0 1 0 0-1.195.598.598 0 1 0 0 1.195z"/>
            <path d="M12.705 37.398a.982.982 0 1 1 .983-.982.962.962 0 0 1-.983.982zm0-1.195a.215.215 0 1 0 .216.215.195.195 0 0 0-.216-.215zM15.981 37.015a.598.598 0 1 0 0-1.195.598.598 0 1 0 0 1.195z"/>
            <path d="M15.981 37.398a.982.982 0 1 1 .984-.982.962.962 0 0 1-.984.982zm0-1.195a.215.215 0 1 0 .217.215.195.195 0 0 0-.217-.215zM20.275 37.015a.598.598 0 1 0 0-1.195.598.598 0 1 0 0 1.195z"/>
            <path d="M20.275 37.398a.982.982 0 1 1 .983-.982.962.962 0 0 1-.983.982zm0-1.195a.215.215 0 1 0 .216.215.195.195 0 0 0-.216-.215zM23.809 37.015a.598.598 0 1 0 0-1.195.598.598 0 1 0 0 1.195z"/>
            <path d="M23.809 37.398a.982.982 0 1 1 .983-.982.962.962 0 0 1-.983.982zm0-1.195a.215.215 0 1 0 .216.215.195.195 0 0 0-.216-.215zM49.675 20.912a.598.598 0 1 0 0-1.194.598.598 0 1 0 0 1.194z"/>
            <path d="M49.675 21.296a.982.982 0 1 1 .983-.982.962.962 0 0 1-.983.982zm0-1.195a.215.215 0 1 0 .216.215.195.195 0 0 0-.216-.215zM54.05 20.912a.598.598 0 1 0 0-1.194.598.598 0 1 0 0 1.194z"/>
            <path d="M54.05 21.296a.982.982 0 1 1 .983-.982.962.962 0 0 1-.983.982zm0-1.195a.215.215 0 1 0 .216.215.195.195 0 0 0-.216-.215zM58.423 20.912a.598.598 0 1 0 0-1.194.598.598 0 1 0 0 1.194z"/>
            <path d="M58.423 21.296a.982.982 0 1 1 .983-.982.962.962 0 0 1-.983.982zm0-1.195a.215.215 0 1 0 .216.215.195.195 0 0 0-.216-.215z"/>
        </g>
        <path d="M18.236 13.723A11.25 11.25 0 0 0 8.95 24.712c0 .339.275.613.613.613h17.442a.63.63 0 0 0 .613-.613 10.697 10.697 0 0 0-9.05-10.99c-.779-.118-1.098 1.038-.319 1.155a9.53 9.53 0 0 1 8.15 9.833l.613-.613H9.568l.614.613a10.071 10.071 0 0 1 8.389-9.833c.779-.137.438-1.293-.32-1.155l-.015.001z"/>
        <path d="M18.379 13.328h.078c.06 0 .118.003.176.012a11.134 11.134 0 0 1 6.89 3.948 10.823 10.823 0 0 1 2.484 7.445 1.018 1.018 0 0 1-1.002.971H9.568a.999.999 0 0 1-1.003-.99 11.634 11.634 0 0 1 9.604-11.368h.056c.051-.01.102-.016.154-.018zm8.868 10.393a10.108 10.108 0 0 0-2.313-5.942 10.381 10.381 0 0 0-5.534-3.5v.063a.92.92 0 0 1-.06.37 9.909 9.909 0 0 1 7.447 9.009h.46zm-9.758-8.99a.92.92 0 0 1-.058-.405v-.034a10.869 10.869 0 0 0-8.047 9.429h.474a10.448 10.448 0 0 1 7.631-8.99zm8.531 8.99a9.157 9.157 0 0 0-7.588-8.425 9.69 9.69 0 0 0-7.802 8.425h15.39zm.013.767H10.575v.447H26.01l.012-.242a1.973 1.973 0 0 1 .008-.205h.003zM27.797 46.75v.196a.808.808 0 0 1-.08.295.275.275 0 0 1-.04.118c-.06.176.02-.059-.02.04-.04.097-.09.19-.153.274-.02.04-.04.058-.06.098.08-.098-.06.059-.06.059l-.153.153c-.12.118.08-.04-.06.058-.04.02-.06.04-.1.059-.04.018-.08.058-.12.078a.594.594 0 0 0-.12.058c.08-.04-.099.04-.099.04a.288.288 0 0 0-.12.04.594.594 0 0 0-.18.04h-.539a1.687 1.687 0 0 1-.307-.078.288.288 0 0 1-.12-.04c.12.04-.06-.04-.08-.04a1.765 1.765 0 0 1-.199-.118s-.153-.118-.06-.04a.865.865 0 0 0-.139-.118 1.534 1.534 0 0 1-.46-.822.597.597 0 0 0-.04-.154v-.353c.016-.183.063-.362.14-.529.183-.372.495-.664.879-.822.156-.05.317-.09.48-.118h.359a.864.864 0 0 1 .219.04.376.376 0 0 1 .14.04s.179.078.08.02c.098.039.192.09.278.153.04.02.08.058.12.078-.08-.058.06.059.06.059l.08.078s.14.136.1.118c-.06-.058.06.098.06.078.037.048.07.1.099.153 0 .04.04.079.06.099.04.058.04.078 0 0 .005.03.019.056.04.078.035.1.062.202.08.307.02.118 0 .058 0 .02v.254c0 .767 1.237.784 1.217 0a2.828 2.828 0 0 0-1.817-2.624 2.973 2.973 0 0 0-3.416.98 2.78 2.78 0 0 0 0 3.292 2.925 2.925 0 0 0 3.075 1.096 2.879 2.879 0 0 0 2.177-2.742.614.614 0 0 0-1.218 0l.017.049z"/>
        <path d="M26.1 49.928a3.298 3.298 0 0 1-2.656-1.342 3.144 3.144 0 0 1 0-3.75 3.404 3.404 0 0 1 2.687-1.332c.403 0 .803.076 1.178.226a3.235 3.235 0 0 1 2.047 2.728c.02.083.031.168.031.253a3.252 3.252 0 0 1-2.47 3.116 3.33 3.33 0 0 1-.817.1zm.03-5.657a2.629 2.629 0 0 0-2.076 1.028 2.404 2.404 0 0 0 0 2.828 2.537 2.537 0 0 0 2.673.954 2.477 2.477 0 0 0 1.675-1.406c-.14.003-.28-.021-.41-.07 0 .013-.016.027-.025.04-.042.082-.09.16-.144.234l-.017.027a.578.578 0 0 1-.07.105l-.04-.026.01.009-.03-.023-.082-.052v.09a.377.377 0 0 1-.01.092.371.371 0 0 0 .143-.086l-.06.07-.02.018-.108.107a.439.439 0 0 1-.172.153l-.014.01-.564.386v-.1h-.022l-.08.039h-.082l-.068.02-.058.018h-.675a2.24 2.24 0 0 1-.316-.08.724.724 0 0 1-.2-.07l-.08-.04a2.117 2.117 0 0 1-.24-.141l-.017-.012-.067-.05a.597.597 0 0 1-.074-.067.32.32 0 0 0-.04-.03l-.032-.022-.028-.026a1.917 1.917 0 0 1-.564-1.013l-.01-.058c0-.017-.013-.041-.02-.06l.239-.081h-.258v-.396c.016-.236.074-.467.172-.682v-.014a2.074 2.074 0 0 1 1.073-1.006h.016c.181-.061.368-.108.557-.14h.472c.076.006.15.02.224.04.082.011.163.035.238.07l.053.022v-.01c.06.023.119.05.175.082v-.07l.2.196.047.034a.57.57 0 0 1 .063.041l-.012.022.02.02.015-.016.057.048.044.041.059.057c.07.062.13.135.177.215a.74.74 0 0 1 .11.153.416.416 0 0 0 .022.037l.066.096a1.05 1.05 0 0 1 .424-.087 2.497 2.497 0 0 0-2.238-1.468zm-.199 3.701h.436a.959.959 0 0 1 .14-.032.627.627 0 0 1 .116-.037l.05-.021c.034-.019.069-.036.105-.05a.755.755 0 0 1 .118-.076h.01l.027-.018.023-.023.153-.154.043-.047V47.493l.016-.031.02-.025a.856.856 0 0 0 .108-.186.532.532 0 0 1 .033-.064v-.023l.029-.07c.015-.036.035-.087.046-.12a1.006 1.006 0 0 1-.034-.263v-.245a1.976 1.976 0 0 0-.037-.163.555.555 0 0 1-.035-.062.526.526 0 0 1-.081-.154l-.02-.035a.6.6 0 0 1-.13-.172l-.019-.018-.069-.068-.061-.053-.028-.02-.012-.01-.02-.009-.028-.02a.963.963 0 0 0-.11-.069 1 1 0 0 1-.177-.064h-.032l-.089-.022a.396.396 0 0 0-.084-.017h-.327a3.345 3.345 0 0 0-.366.09 1.327 1.327 0 0 0-.677.628 1.27 1.27 0 0 0-.104.368v.29c.017.05.03.102.037.154.047.223.16.426.325.584.043.03.084.065.123.101l.049.037c.042.028.085.055.13.078.044.013.087.03.127.051l.063.025c.064.023.13.04.197.052l.016.004zM12.145 46.748v.197a.808.808 0 0 1-.08.294.275.275 0 0 1-.04.118c-.06.177.02-.058-.02.04-.039.098-.09.19-.153.275-.02.04-.04.058-.06.098.08-.098-.06.058-.06.058l-.153.153c-.12.119.08-.04-.06.059-.04.02-.06.04-.1.058-.04.018-.093.066-.137.081a.594.594 0 0 0-.12.059c.08-.04-.1.04-.1.04a.288.288 0 0 0-.12.04.594.594 0 0 0-.179.04h-.535a1.687 1.687 0 0 1-.307-.079.288.288 0 0 1-.12-.04c.12.04-.06-.04-.08-.04a1.764 1.764 0 0 1-.199-.118s-.153-.118-.06-.04a.864.864 0 0 0-.139-.118 1.534 1.534 0 0 1-.46-.822.597.597 0 0 0-.04-.153v-.533c.02-.098.06-.196.08-.294.06-.176-.02.058.02-.04a.945.945 0 0 0 .06-.136.983.983 0 0 1 .153-.235c-.06.078.08-.078.1-.098l.12-.118c.079-.079-.04.02.06-.059a1.347 1.347 0 0 1 .358-.194c-.08.04 0 0 .02 0 .1-.036.202-.062.307-.079a.258.258 0 0 0 .12-.02h.119a1.652 1.652 0 0 1 1.758 1.626.619.619 0 0 0 1.238 0 2.867 2.867 0 0 0-2.33-2.78 2.959 2.959 0 0 0-3.036 1.33 2.744 2.744 0 0 0 .14 3.076 2.946 2.946 0 0 0 3.075 1.097 2.879 2.879 0 0 0 2.177-2.743.614.614 0 0 0-1.218 0h.001z"/>
        <path d="M10.475 43.562a3.235 3.235 0 0 1 3.233 2.91c.026.093.039.188.039.284a3.273 3.273 0 0 1-3.274 3.221 3.34 3.34 0 0 1-2.67-1.353 3.108 3.108 0 0 1-.153-3.505 3.32 3.32 0 0 1 2.825-1.557zm2.262 2.223c-.327-.74-1-1.269-1.796-1.413a2.642 2.642 0 0 0-.46-.041 2.555 2.555 0 0 0-2.18 1.2c-.5.819-.455 1.859.113 2.633a2.574 2.574 0 0 0 2.058 1.037c.207 0 .413-.026.613-.077.73-.179 1.339-.68 1.655-1.36a1.008 1.008 0 0 1-.444-.094c-.04.074-.084.146-.134.213l-.017.028a.578.578 0 0 1-.069.104l-.027-.03.009.009-.03-.023-.08-.052v.092a.377.377 0 0 1-.011.092.373.373 0 0 0 .144-.086l-.061.069-.017.018-.11.108a.439.439 0 0 1-.171.153l-.014.01-.58.387v-.101h-.013l-.08.038h-.081l-.068.02-.058.019h-.675a2.24 2.24 0 0 1-.316-.08.724.724 0 0 1-.2-.07l-.08-.04a2.12 2.12 0 0 1-.24-.142l-.017-.012-.067-.049a.597.597 0 0 1-.074-.067.322.322 0 0 0-.04-.031l-.032-.02-.028-.026a1.917 1.917 0 0 1-.564-1.013l-.01-.058-.02-.06.238-.08h-.257v-.614l.007-.039c.014-.067.033-.129.05-.182a.938.938 0 0 0 .03-.112l.012-.048.017-.047a.586.586 0 0 1 .059-.118v-.013l.009-.026.012-.024c.06-.123.14-.236.233-.335l.045-.047.05-.054.13-.126a.351.351 0 0 0-.082.154.38.38 0 0 0-.141.076l.144.128a.39.39 0 0 0 .017.046l.023-.011.064.058v-.086l.252-.107-.227-.307.032-.024h.01a1.732 1.732 0 0 1 .467-.25l.03-.01c.108-.037.219-.066.332-.085h.094a.192.192 0 0 0-.068.02l.141.286v-.334h.14a2.057 2.057 0 0 1 1.935 1.13c.147-.074.31-.112.474-.112v.008zm-1.015.995a1.27 1.27 0 0 0-1.36-1.254h-.073a.641.641 0 0 1-.142.018 1.18 1.18 0 0 0-.2.052l-.067.026H9.843l-.026.013a.92.92 0 0 0-.153.092l-.033.033-.12.119-.024.027a1.51 1.51 0 0 1-.098.1.824.824 0 0 0-.054.087c-.018.053-.04.104-.064.154v.009c-.01.044-.025.087-.035.126l-.023.078v.423c.017.05.029.101.036.154.048.223.161.426.326.584.043.03.084.065.122.101l.05.043c.043.029.087.055.131.078.044.013.087.03.128.051l.063.025c.063.023.129.04.196.052h.442a.957.957 0 0 1 .14-.032.626.626 0 0 1 .116-.037l.049-.022c.034-.018.07-.035.106-.05a.755.755 0 0 1 .118-.076h.009l.028-.018.024-.032.153-.154.043-.047v-.022l.016-.03.02-.025a.854.854 0 0 0 .12-.182.534.534 0 0 1 .033-.065v-.023l.03-.069.038-.098a.97.97 0 0 1-.028-.216v.007zm1.227-.138a.24.24 0 0 0-.2-.09.198.198 0 0 0-.225.204v.143a.24.24 0 0 0 .197.1.233.233 0 0 0 .236-.223c.003-.05 0-.095-.003-.146l-.005.012z"/>
        <path d="M1.02 49.586h72.081c.979 0 1.977.058 2.956 0h.12a.598.598 0 1 0 0-1.195H4.102c-.979 0-1.977-.058-2.956 0H1.02a.598.598 0 1 0 0 1.195z"/>
        <path d="M75.074 50c-.335 0-.672 0-.999-.014-.326-.014-.652-.012-.974-.012H1.021a.982.982 0 1 1 0-1.962h.107c.297-.017.623-.026.995-.026.335 0 .672 0 .999.014.326.014.652.012.974.012h72.082a.982.982 0 1 1 0 1.962h-.109c-.297.017-.623.026-.995.026zM1.02 48.773a.215.215 0 1 0 0 .428h72.081c.33 0 .664 0 .99.014.325.013.656.012.983.012.362 0 .676-.008.96-.026h.143a.215.215 0 1 0 0-.428H4.102c-.33 0-.664 0-.99-.014-.325-.014-.656-.012-.983-.012-.362 0-.676.008-.96.026H1.02z"/>
    </g>
</svg>
