<?xml version="1.0" encoding="UTF-8"?>
<svg width="16px" height="15px" viewBox="0 0 16 15" version="1.1" xmlns="http://www.w3.org/2000/svg" xmlns:xlink="http://www.w3.org/1999/xlink">
    <title>Comodity</title>
    <g id="Page-1" stroke="none" stroke-width="1" fill="none" fill-rule="evenodd" opacity="0.699999988">
        <g id="02_Mutual-Fund_UM-V-3.0" transform="translate(-1154.000000, -1715.000000)" fill="#000000" fill-rule="nonzero">
            <g id="final-list" transform="translate(-94.000000, 1492.000000)">
                <g id="Group-20" transform="translate(0.000000, 55.000000)">
                    <g id="Group-40-Copy" transform="translate(0.000000, 146.000000)">
                        <g id="Members-Love-Us-Copy-2" transform="translate(249.000000, 0.000000)">
                            <g id="Group-46-Copy-9" transform="translate(984.000000, 0.000000)">
                                <g id="Group-26" transform="translate(14.000000, 17.000000)">
                                    <g id="Comodity" transform="translate(1.000000, 5.000000)">
                                        <path d="M13.3838273,7.88168403 C12.996585,7.27827613 12.4510129,6.79543123 11.8061031,6.48541208 C11.6585046,6.41444384 11.4813805,6.47657811 11.4104715,6.62414699 C11.3395329,6.77171587 11.4016375,6.94881038 11.5492064,7.01974897 C12.6730481,7.55998506 13.399183,8.71430096 13.399183,9.96048427 C13.399183,10.4937243 13.2677406,11.0225474 13.0191146,11.4898587 C12.9422175,11.6343742 12.9970297,11.8138996 13.1415748,11.8907967 C13.1859226,11.9143934 13.2335904,11.925599 13.2805469,11.925599 C13.3866139,11.925599 13.4892125,11.8685042 13.5425128,11.7683364 C13.836613,11.2156498 13.9920672,10.590483 13.9920672,9.96048427 C13.9920672,9.22056478 13.7817415,8.50172233 13.3838273,7.88168403 Z" id="Path"></path>
                                        <path d="M11.3264808,8.83961107 L11.1372875,8.83961107 C11.0987871,8.72866651 11.0447816,8.62372794 10.9768769,8.52791599 L11.3264808,8.52791599 C11.4718731,8.52791599 11.5897368,8.41005227 11.5897368,8.26466001 C11.5897368,8.11926775 11.4718731,8.00140403 11.3264808,8.00140403 L9.98826294,8.00140403 C9.97861022,8.00140403 9.96930851,8 9.95948029,8 L9.26325598,8 C9.11786372,8 9,8.11786372 9,8.26325598 C9,8.40864824 9.11786372,8.52651196 9.26325598,8.52651196 L9.95948029,8.52651196 C10.1969273,8.52652441 10.4190817,8.6436759 10.5532103,8.83961107 L9.27413723,8.83961107 C9.12874496,8.83961107 9.01088125,8.95747478 9.01088125,9.10286705 C9.01088125,9.24825931 9.12874496,9.36612302 9.27413723,9.36612302 L10.6685164,9.36612302 C10.6108608,9.71304399 10.3111586,9.96764242 9.95948029,9.9684527 L9.26325598,9.9684527 C9.15807342,9.96849239 9.06300936,10.031138 9.02148381,10.1277765 C8.97995826,10.224415 8.99994203,10.3364967 9.07230764,10.4128288 L10.495645,11.9133879 C10.5597418,11.9842108 10.6571731,12.014757 10.7502311,11.9932046 C10.8432891,11.9716521 10.9173713,11.901383 10.9438066,11.8095926 C10.9702418,11.7178022 10.9448819,11.6188941 10.8775416,11.5511476 L9.87576489,10.4949647 L9.95948029,10.4949647 C10.6021499,10.4941557 11.1393155,10.0058095 11.201171,9.36612302 L11.3264808,9.36612302 C11.4718731,9.36612302 11.5897368,9.24825931 11.5897368,9.10286705 C11.5897368,8.95747478 11.4718731,8.83961107 11.3264808,8.83961107 L11.3264808,8.83961107 Z" id="Path"></path>
                                        <path d="M10.582983,6.69962115 L10.600147,6.69965079 C10.6006213,6.69965079 10.601066,6.69965079 10.60157,6.69965079 C10.7646428,6.69965079 10.8972117,6.56785263 10.8979855,6.40460197 C10.8987235,6.24087699 10.7666289,6.10753734 10.6029336,6.10676659 L10.582983,6.10673694 C10.4192877,6.10673694 10.2865409,6.23945407 10.2865409,6.40317905 C10.2865409,6.56690402 10.4192877,6.69962115 10.582983,6.69962115 Z" id="Path"></path>
                                        <path d="M8.72746299,12.9012196 C7.60365098,12.3609538 6.87751605,11.2066379 6.87751605,9.96048427 C6.87751605,9.42724421 7.00895848,8.89842115 7.25758447,8.43110982 C7.33448155,8.2865943 7.27966941,8.10706896 7.13512424,8.03017188 C6.99063836,7.9532748 6.81105373,8.00808694 6.7341863,8.15263211 C6.44008609,8.70534841 6.28463185,9.33048551 6.28463185,9.96048427 C6.28463185,10.7004038 6.49495752,11.4192166 6.89287175,12.0392845 C7.28011407,12.6426924 7.82568612,13.1255373 8.47059591,13.4355861 C8.51200887,13.455507 8.55576372,13.4649042 8.59883676,13.4649042 C8.7092318,13.4649042 8.81518021,13.4029775 8.86622754,13.2968512 C8.93710684,13.1492823 8.87503187,12.9721582 8.72746299,12.9012196 Z" id="Path"></path>
                                        <path d="M9.69371602,13.2213474 L9.67655202,13.2212876 C9.51208594,13.2209917 9.37951704,13.3525823 9.37877258,13.5163369 C9.37800518,13.6800619 9.51015907,13.8134016 9.6738544,13.8141723 L9.69371602,13.8142316 C9.85741135,13.8142316 9.99015812,13.6814848 9.99015812,13.5177895 C9.99015812,13.3540942 9.85741135,13.2213474 9.69371602,13.2213474 Z" id="Path"></path>
                                        <path d="M11.4844338,5.10378438 C11.4483568,5.01781617 11.4041573,4.93679854 11.3527246,4.86165047 L12.124482,4.86165047 C12.8763777,4.86165047 13.4881156,4.24991255 13.4881156,3.4980168 C13.4881156,2.74612106 12.8763777,2.13438313 12.124482,2.13438313 L9.75057362,2.13438313 C9.90149229,1.91495669 9.99009883,1.64949279 9.99009883,1.36363367 C9.99009883,0.611737921 9.37836091,0 8.62646517,0 L1.36363367,0 C0.611737921,0 0,0.611737921 0,1.36363367 C0,2.11552942 0.611737921,2.72726734 1.36363367,2.72726734 L3.73754202,2.72726734 C3.58662335,2.94669378 3.4980168,3.21215768 3.4980168,3.4980168 C3.4980168,3.78387592 3.5865937,4.04933982 3.73754202,4.26876627 L2.96442102,4.26876627 C2.21252527,4.26876627 1.60078735,4.88050419 1.60078735,5.63239994 C1.60078735,6.06422715 1.802783,6.44957223 2.11704127,6.6995915 C1.802783,6.94961077 1.60078735,7.33495586 1.60078735,7.76678307 C1.60078735,8.19861028 1.802783,8.58395537 2.11704127,8.83397464 C1.802783,9.08399391 1.60078735,9.46933899 1.60078735,9.9011662 C1.60078735,10.3329934 1.802783,10.7183385 2.11704127,10.9683578 C1.802783,11.218377 1.60078735,11.6037221 1.60078735,12.0355493 C1.60078735,12.7874451 2.21252527,13.399183 2.96442102,13.399183 L6.45799119,13.399183 C7.37832534,14.3835783 8.68759153,15 10.1383495,15 C12.9171385,15 15.1778653,12.7392732 15.1778653,9.96048427 C15.1778653,7.64773192 13.6117616,5.69414883 11.4844338,5.10378438 Z M0.592884204,1.36363367 C0.592884204,0.938654271 0.938624627,0.592884204 1.36363367,0.592884204 L8.62646517,0.592884204 C9.05147421,0.592884204 9.39721463,0.938654271 9.39721463,1.36363367 C9.39721463,1.78861307 9.05147421,2.13438313 8.62646517,2.13438313 L1.36363367,2.13438313 C0.938624627,2.13438313 0.592884204,1.78861307 0.592884204,1.36363367 Z M4.09090101,3.4980168 C4.09090101,3.07303741 4.43664143,2.72726734 4.86165047,2.72726734 L12.124482,2.72726734 C12.549491,2.72726734 12.8952314,3.07303741 12.8952314,3.4980168 C12.8952314,3.9229962 12.549491,4.26876627 12.124482,4.26876627 L10.2272525,4.26876627 L4.86165047,4.26876627 C4.43664143,4.26876627 4.09090101,3.9229962 4.09090101,3.4980168 Z M2.19367155,5.63239994 C2.19367155,5.20742054 2.53944162,4.86165047 2.96442102,4.86165047 L10.2272525,4.86165047 C10.3466594,4.86165047 10.4609971,4.88939745 10.5635661,4.93908115 C10.423349,4.9273124 10.2815904,4.92096854 10.1383495,4.92096854 C8.74670208,4.92096854 7.4850445,5.48803263 6.57218069,6.4031494 L2.96442102,6.4031494 C2.53944162,6.4031494 2.19367155,6.05737933 2.19367155,5.63239994 Z M2.19367155,7.76678307 C2.19367155,7.34180367 2.53941198,6.9960336 2.96442102,6.9960336 L6.06565007,6.9960336 C5.72912899,7.45709001 5.46894176,7.97710874 5.30370493,8.53753253 L2.96442102,8.53753253 C2.53941198,8.53753253 2.19367155,8.19179211 2.19367155,7.76678307 Z M2.19367155,9.9011662 C2.19367155,9.47615716 2.53941198,9.13041674 2.96442102,9.13041674 L5.16757872,9.13041674 C5.12260845,9.40056443 5.0988338,9.67776744 5.0988338,9.96048427 C5.0988338,10.201966 5.11629424,10.4394161 5.14928824,10.6719157 L2.96442102,10.6719157 C2.53941198,10.6719157 2.19367155,10.3261752 2.19367155,9.9011662 Z M2.96442102,12.8062988 C2.53941198,12.8062988 2.19367155,12.4605584 2.19367155,12.0355493 C2.19367155,11.6105403 2.53941198,11.2647999 2.96442102,11.2647999 L5.27032555,11.2647999 C5.41991024,11.8224964 5.66290383,12.3422483 5.98157909,12.8062988 L2.96442102,12.8062988 Z M10.1383495,14.4071158 C7.6864769,14.4071158 5.691718,12.4123569 5.691718,9.96048427 C5.691718,7.50861164 7.6864769,5.51385274 10.1383495,5.51385274 C12.5902222,5.51385274 14.5849811,7.50861164 14.5849811,9.96048427 C14.5849811,12.4123569 12.5902222,14.4071158 10.1383495,14.4071158 Z" id="Shape"></path>
                                    </g>
                                </g>
                            </g>
                        </g>
                    </g>
                </g>
            </g>
        </g>
    </g>
</svg>