<svg width="41" height="73" viewBox="0 0 41 73" xmlns="http://www.w3.org/2000/svg">
    <g fill="none" fill-rule="evenodd">
        <path d="M27.98 61.106c.04.084.124.141.222.141h.743a.246.246 0 0 0 .2-.104.246.246 0 0 0 .201.104h.743a.246.246 0 0 0 .222-.14v.159H27.98v-.16zm0-1.51c.024.03.059.057.101.078a.323.323 0 0 0-.101.078v-.155zm.468 1.159h.25v-.652h-.25v.652zm0-1.51h.25v-.651h-.25v.651zm.763.44a.326.326 0 0 0-.051.05.326.326 0 0 0-.05-.05.324.324 0 0 0 .05-.051.324.324 0 0 0 .05.05zm.381 1.07h.25v-.652h-.25v.652zm0-1.51h.25v-.651h-.25v.651zm-1.612-1.162h2.331v.16a.246.246 0 0 0-.222-.142h-.743a.246.246 0 0 0-.2.104.246.246 0 0 0-.201-.104h-.743a.246.246 0 0 0-.222.141v-.16zm2.375 1.669a.324.324 0 0 0-.101-.078.323.323 0 0 0 .1-.077v.155zm-3.041-1.937h.174a.243.243 0 0 0 0 .021v3.676c0 .136.11.246.245.246h2.824c.136 0 .247-.11.247-.246v-3.676c0-.007 0-.014-.002-.021h.175c.136 0 .246-.11.246-.246v-.439a.246.246 0 0 0-.246-.246h-3.663a.246.246 0 0 0-.247.246v.439c0 .136.11.246.247.246zm-6.69-30.357a.217.217 0 1 1 0 .433.217.217 0 0 1 0-.433zm0 .925a.71.71 0 1 0-.002-1.419.71.71 0 0 0 .002 1.42zm3.224 2.228a.558.558 0 1 1-.002 1.115.558.558 0 0 1 .002-1.115zm0 1.606a1.05 1.05 0 0 0 0-2.099 1.05 1.05 0 0 0 0 2.1zm-1.63-3.92a.131.131 0 1 1 0 .262.131.131 0 0 1 0-.263zm0 .754a.624.624 0 1 0-.001-1.249.624.624 0 0 0 .001 1.249zm-2.057-13.49h.925a.246.246 0 1 0 0-.493h-.925a.246.246 0 1 0 0 .492zm5.768 17.533a.558.558 0 1 1-.001 1.115.558.558 0 0 1 .001-1.115zm0 1.606a1.05 1.05 0 0 0 0-2.099 1.05 1.05 0 0 0 0 2.1zm-2.542-15.47H17.86a.246.246 0 1 0 0 .493h5.526a.246.246 0 1 0 0-.493zm.564 9.963a.217.217 0 1 1 0 .433.217.217 0 0 1 0-.433zm0 .925a.71.71 0 1 0-.002-1.42.71.71 0 0 0 .002 1.42zm-3.327-1.114a.558.558 0 1 1-.001 1.115.558.558 0 0 1 0-1.115zm0 1.607a1.05 1.05 0 0 0 0-2.1 1.05 1.05 0 0 0 0 2.1zM6.247 66.52H4.16a.246.246 0 0 0-.247.246v.25c0 .133.107.242.24.246v2.002c0 .136.11.246.246.246h1.61c.136 0 .246-.11.246-.246v-2.002a.246.246 0 0 0 .24-.246v-.25a.246.246 0 0 0-.247-.246zm-1.91-12.691H36.91v-.19H4.338v.19zm.372-.898v-.974a.245.245 0 0 0-.03-.119h31.89a.245.245 0 0 0-.03.12v.973c0 .093.052.175.128.216H4.58a.246.246 0 0 0 .129-.216zm31.251 1.513v.247H5.287v-.247a.245.245 0 0 0-.033-.123h30.74a.245.245 0 0 0-.034.123zm-31.869-.123h.737a.245.245 0 0 0-.033.123v.494c0 .136.11.246.246.246h31.166c.136 0 .246-.11.246-.246v-.494a.245.245 0 0 0-.033-.123h.736c.136 0 .247-.11.247-.246v-.681a.246.246 0 0 0-.247-.247h-.253a.246.246 0 0 0 .128-.216v-.974a.245.245 0 0 0-.03-.119h.155c.136 0 .247-.11.247-.246v-.608a.246.246 0 0 0-.247-.247h-1.36a.246.246 0 0 0 0 .493h1.114v.116H4.338v-.116H5.49a.246.246 0 0 0 0-.493h-1.4a.246.246 0 0 0-.246.247v.608c0 .136.11.246.246.246h.156a.245.245 0 0 0-.03.12v.973c0 .093.051.175.128.216H4.09a.246.246 0 0 0-.246.247v.681c0 .136.11.246.246.246zM19.03 28.296a.131.131 0 1 1 0 .263.131.131 0 0 1 0-.263zm0 .755a.624.624 0 1 0-.001-1.249.624.624 0 0 0 .001 1.249zM6.237 50.327h6.358a.246.246 0 0 0 .237-.18v.547a.246.246 0 0 0-.237-.18H6.237v-.187zm1.05-.555v-1.45h6.425a.245.245 0 0 0 .17-.07v1.518c0 .027.005.054.014.079h-.817a.246.246 0 0 0-.24.193.246.246 0 0 0-.244-.207H7.28a.245.245 0 0 0 .008-.063zm1.042-2.005v-1.451h6.327a.246.246 0 1 0 0-.493H9.38a.248.248 0 0 0 .008-.062V44.31h6.378a.246.246 0 0 0 .217-.132v1.36c0 .027.005.054.014.078h-.826a.246.246 0 0 0-.246.247v1.79c0 .028.005.055.014.08h-.81a.246.246 0 0 0-.235.175.245.245 0 0 0-.181-.08H8.32a.247.247 0 0 0 .009-.061zm1.937-4.012v-1.45h6.45a.245.245 0 0 0 .145-.049v1.165c0 .028.005.054.014.08h-.646a.246.246 0 0 0-.247.245v.203a.246.246 0 0 0-.217-.132h-5.507a.246.246 0 0 0 .008-.062zm.304-2.116v-.317h.979v.317c0 .067.027.128.07.173H10.5a.245.245 0 0 0 .07-.173zm0-.81h.979v-.128h-.98v.128zm1.471.81v-.317h.98v.317c0 .067.026.128.07.173h-1.12a.245.245 0 0 0 .07-.173zm0-.81h.98v-.128h-.98v.128zm2.45.493v.317c0 .067.028.128.072.173h-1.121a.245.245 0 0 0 .07-.173v-.317h.98zm-.978-1.113h.979v-.129h-.98v.129zm0 .62h.979v-.128h-.98v.128zm2.45.493v.317c0 .067.027.128.071.173h-1.12a.245.245 0 0 0 .07-.173v-.317h.98zm-.979-1.113h.98v-.129h-.98v.129zm0 .62h.98v-.128h-.98v.128zm1.197-3.642a.217.217 0 1 1-.434 0 .217.217 0 0 1 .434 0zm8.886 0a.216.216 0 1 1 .433 0 .216.216 0 0 1-.433 0zm-12.502 2.4-1.953-7.32a4.517 4.517 0 0 1 .788-3.944 4.517 4.517 0 0 1 3.608-1.778h4.774c-.532.172-1.27.457-2.017.889-1.802 1.043-2.8 2.471-2.896 4.14a2.377 2.377 0 0 0-1.549 1.234c-.709 1.412-.179 3.65 1.576 6.65a.246.246 0 1 0 .425-.25c-2.07-3.538-1.993-5.309-1.564-6.172a1.887 1.887 0 0 1 1.378-1.015.246.246 0 0 0 .22-.241c.022-1.59.913-2.907 2.646-3.914a10.302 10.302 0 0 1 2.623-1.047c.256.06 1.436.36 2.612 1.041 1.74 1.008 2.634 2.327 2.657 3.92a.247.247 0 0 0 .218.24c.038.005.936.123 1.38 1.016.429.863.505 2.634-1.564 6.173a.246.246 0 0 0 .425.248c1.755-3 2.285-5.237 1.576-6.65a2.377 2.377 0 0 0-1.55-1.234c-.096-1.668-1.093-3.096-2.895-4.139a10.594 10.594 0 0 0-2.018-.889h4.775c1.425 0 2.74.648 3.608 1.778a4.517 4.517 0 0 1 .787 3.944l-1.953 7.32H25.04a.707.707 0 0 0-.764-1.177c.137-.35.25-.68.339-.991a.71.71 0 1 0 .167-.733c.13-.77.068-1.39-.185-1.852a1.425 1.425 0 0 0-.754-.669c-.067-1.103-.617-2.049-1.599-2.746a5.226 5.226 0 0 0-1.559-.752.247.247 0 0 0-.122 0c-.032.008-.79.207-1.56.752-.982.697-1.532 1.643-1.599 2.746-.209.078-.53.26-.754.669-.252.463-.314 1.082-.184 1.852a.71.71 0 1 0-.501 1.21c.309 0 .572-.2.668-.477.088.31.201.642.339.991a.71.71 0 0 0-.764 1.178h-3.643zm5.542-13.79h5.034v-.554h-5.034v.554zm-.542-1.232h6.117v-.101h-6.117v.101zm-.7-.8h7.517v-1.553h-7.516v1.552zm.299-2.264h6.92v-.324h-6.92v.324zm.035-2.613c.036.02.077.032.12.032h4.522a.246.246 0 1 0 0-.493h-4.535l.277-1.188h4.258a.246.246 0 1 0 0-.492h-4.143l.276-1.187h1.433a.246.246 0 1 0 0-.492h-1.318l.334-1.437h1.738a.246.246 0 0 0 0-.493h-1.623l.253-1.083h2.051a.246.246 0 1 0 0-.493h-1.937l.153-.658h3.131l.163.698a.245.245 0 0 0-.134-.04h-.79a.246.246 0 1 0 0 .493h.79c.09 0 .168-.048.211-.12l.126.54h-2.734a.246.246 0 0 0 0 .492h2.775a.247.247 0 0 0 .071-.01l.05.213a.245.245 0 0 0-.121-.032h-1.51a.246.246 0 1 0 0 .493h1.51c.084 0 .159-.043.203-.108l.164.705h-2.802a.246.246 0 1 0 0 .492h2.883a.246.246 0 0 0 .033-.002l.082.35H22.01a.246.246 0 1 0 0 .492h1.264l.106.457h-5.177a.246.246 0 1 0 0 .493h5.292l.285 1.223h-3.45a.246.246 0 1 0 0 .493h3.564l.528 2.264h-7.596l.373-1.602zm.058-8.878 1.304-1.278h4.126l1.303 1.278h-6.733zm1.678-2.209h3.378v-.33h-3.378v.33zm-.605-2.009h4.588l-.816.8h-2.956l-.816-.8zm1.527-.62h1.534v-.256h-1.534v.256zm.767-.987c.153 0 .288.02.402.051-.114.03-.25.05-.402.05-.153 0-.288-.02-.403-.05.115-.03.25-.05.403-.05zm0-.748a.9.9 0 0 1 .395.078.9.9 0 0 1-.395.078.9.9 0 0 1-.395-.078.9.9 0 0 1 .395-.078zm7.603 37.392h.98v-.128h-.98v.128zm1.05.983h-1.12a.245.245 0 0 0 .07-.173v-.317h.98v.317c0 .067.026.128.07.173zm-1.542-.49v.317c0 .067.027.128.07.173h-1.12a.245.245 0 0 0 .07-.173v-.317h.98zm-.98-1.113h.98v-.129h-.98v.129zm0 .62h.98v-.128h-.98v.128zm-.492.493v.317c0 .067.028.128.071.173h-1.12a.245.245 0 0 0 .07-.173v-.317h.98zm-.979-1.113h.98v-.129h-.98v.129zm0 .62h.98v-.128h-.98v.128zm5.698 1.475v1.451c0 .022.003.042.008.062h-5.507a.246.246 0 0 0-.218.132v-.203a.246.246 0 0 0-.246-.246h-.646a.245.245 0 0 0 .013-.08v-1.164c.041.03.091.048.146.048h6.45zm-1.283-.665v-.317h.979v.317c0 .067.027.128.07.173h-1.12a.245.245 0 0 0 .07-.173zm0-.81h.979v-.128h-.98v.128zm2.162 3.48v1.452c0 .021.003.042.008.062h-5.277a.246.246 0 1 0 0 .493h6.327v1.45c0 .022.003.043.008.063h-5.391a.245.245 0 0 0-.181.08.246.246 0 0 0-.236-.176h-.809a.245.245 0 0 0 .014-.08v-1.79a.246.246 0 0 0-.247-.247h-.825a.245.245 0 0 0 .013-.079v-1.359a.246.246 0 0 0 .218.132h6.378zm2.1 4.012v1.451c0 .022.003.043.008.063h-5.317a.246.246 0 0 0-.242.207.246.246 0 0 0-.24-.193h-.818a.246.246 0 0 0 .013-.08v-1.516a.245.245 0 0 0 .17.068h6.426zm1.05 2.006v.187h-6.359a.246.246 0 0 0-.237.18v-.547c.03.104.124.18.237.18h6.359zm-9.275-3.756a.245.245 0 0 0 .095-.019v.855H15.417v-.855c.029.013.061.02.095.02h10.224zm-.986-2.093.023-.001v.814h-8.298v-.814h8.275zm-8.294-2.84v-.316h.983c.004.022.01.043.02.062h-.351a.246.246 0 0 0-.247.246v.23a.245.245 0 0 0-.145-.048h-.331a.245.245 0 0 0 .07-.173zm.21-2.373a.217.217 0 1 1 .001-.433.217.217 0 0 1 0 .433zm-.21 1.564h.979v-.128h-.98v.128zm0-.62h.979v-.129h-.98v.129zm7.909-1.16a.217.217 0 1 1 .433 0 .217.217 0 0 1-.433 0zm-.552 1.16h.979v-.129h-.979v.129zm0 .62h.979v-.128h-.979v.128zm-.488.493a.59.59 0 0 0 .02.101h-1.028a.59.59 0 0 0 .02-.101h.988zm-.983-1.113h.979v-.129h-.98v.129zm0 .62h.979v-.128h-.98v.128zm-.489.493c.004.036.011.07.02.101h-1.027a.587.587 0 0 0 .02-.101h.987zm-.983-1.113h.98v-.129h-.98v.129zm0 .62h.98v-.128h-.98v.128zm-.488.493a.59.59 0 0 0 .02.101h-1.028a.59.59 0 0 0 .02-.101h.988zm-.983-1.113h.979v-.129h-.98v.129zm0 .62h.979v-.128h-.98v.128zm4.487 1.482h.008v.864h-6.54v-.864h6.532zm-4.976-.99a.59.59 0 0 0 .02.102h-1.027a.59.59 0 0 0 .02-.101h.987zm-.983-1.112h.98v-.129h-.98v.129zm0 .62h.98v-.128h-.98v.128zm6.213.555h-.351c.009-.02.016-.04.02-.062h.983v.317c0 .067.027.128.07.173h-.33a.245.245 0 0 0-.146.047v-.229a.246.246 0 0 0-.246-.246zm-.13-6.234a1.47 1.47 0 0 0-.468-.559c.01.002.018.005.028.006.015.003.377.062.602.486.219.412.324 1.19-.166 2.634.305-1.096.307-1.956.004-2.567zm-.619-.689c.02.036.043.07.071.101a2.876 2.876 0 0 0-.064-.03l-.007-.07zm-5.493-.303c.067-.94.53-1.722 1.378-2.328a4.903 4.903 0 0 1 1.348-.669c.187.058.771.257 1.348.669.848.606 1.311 1.39 1.377 2.329-.133-.855-.585-1.592-1.326-2.152a4.351 4.351 0 0 0-1.334-.684.246.246 0 0 0-.13 0 4.351 4.351 0 0 0-1.334.684c-.741.56-1.193 1.297-1.327 2.151zm-.06.403a.473.473 0 0 0 .076-.101l-.007.07-.069.031zm-.497 4.706.08.172a.246.246 0 0 0 .452-.016l.005.01a.246.246 0 0 0 .45-.2c-.998-2.223-.909-3.318-.659-3.846.19-.399.481-.481.49-.484a.246.246 0 0 0 .19-.237c.01-.918.4-1.677 1.16-2.256.47-.358.945-.536 1.115-.592.17.057.645.235 1.115.592.76.579 1.15 1.338 1.16 2.256.001.114.076.21.186.237.013.003.304.085.493.484.25.528.34 1.623-.658 3.845a.246.246 0 0 0 .45.202l.005-.011a.245.245 0 0 0 .451.016l.08-.172a.71.71 0 0 0 .216.32h-6.996a.71.71 0 0 0 .215-.32zm-.1-1.55c-.49-1.445-.384-2.222-.165-2.634.224-.424.586-.483.599-.485l.031-.007a1.469 1.469 0 0 0-.469.56c-.302.61-.3 1.47.004 2.566zm-2.408 10.948h11.582a.246.246 0 0 0 .152-.44h.306v1.298H14.375v-1.298h.306a.246.246 0 0 0 .152.44zm-1.508 1.9h14.598v-.224H13.325v.224zm-7.334.441h6.604c.114 0 .21-.078.238-.183.006.13.114.235.246.235h15.09c.132 0 .24-.104.246-.235a.246.246 0 0 0 .237.183h6.605c.136 0 .246-.11.246-.246v-.68a.246.246 0 0 0-.246-.245h-.812a.245.245 0 0 0 .008-.063v-1.697a.246.246 0 0 0-.246-.246h-.804a.245.245 0 0 0 .008-.062v-1.698a.246.246 0 0 0-.246-.246h-.82a.246.246 0 0 0 .008-.062v-1.697a.246.246 0 0 0-.246-.247h-.64a.246.246 0 0 0 .007-.062v-1.697a.246.246 0 0 0-.246-.246H31.1a.245.245 0 0 0 .071-.173V40.065a.246.246 0 1 0-.492 0v.144h-.98v-.143a.246.246 0 1 0-.492 0v.143h-.979v-.129h.645c.111 0 .209-.075.237-.182l2.002-7.504a5.006 5.006 0 0 0-.873-4.37 5.006 5.006 0 0 0-3.998-1.971h-2.607v-1.03h.296c.136 0 .246-.11.246-.245v-.521h.453c.136 0 .247-.11.247-.246v-2.045a.246.246 0 0 0-.247-.246h-.052v-.737h.156a.246.246 0 0 0 .24-.302l-2.347-10.079a.244.244 0 0 0-.05-.1h2.018a.246.246 0 0 0 .172-.421L22.96 8.31a.246.246 0 0 0-.173-.07h-.074a.246.246 0 0 0 .092-.193v-.821a.246.246 0 0 0-.246-.247h-.149l1.283-1.257a.246.246 0 0 0-.173-.422h-1.637v-.63a.246.246 0 0 0-.106-.203.334.334 0 0 0 .125-.258c0-.22-.198-.346-.448-.42a.422.422 0 0 0 .105-.274c0-.278-.278-.491-.689-.552V1.246a.246.246 0 1 0-.492 0v1.717c-.411.06-.69.274-.69.552 0 .101.038.194.105.275-.25.073-.447.2-.447.419 0 .106.047.19.124.258a.246.246 0 0 0-.106.203v.63h-1.636a.246.246 0 0 0-.173.422l1.283 1.257h-.15a.246.246 0 0 0-.246.247v.821c0 .078.036.147.093.192h-.075a.246.246 0 0 0-.172.07l-1.806 1.772a.246.246 0 0 0 .173.422h2.018a.244.244 0 0 0-.05.1L16.276 20.68a.246.246 0 0 0 .24.302h.155v.737h-.052a.246.246 0 0 0-.246.246v2.045c0 .136.11.246.246.246h.454v.52c0 .137.11.247.246.247h.296v1.029h-2.607a5.006 5.006 0 0 0-3.998 1.97 5.006 5.006 0 0 0-.874 4.371l2.002 7.504a.246.246 0 0 0 .238.182h.644v.129h-.979v-.143a.246.246 0 1 0-.492 0v.143h-.98v-.143a.246.246 0 1 0-.492 0v1.573c0 .067.028.128.071.173h-.128a.246.246 0 0 0-.247.246v1.697c0 .022.003.042.009.062H9.14a.246.246 0 0 0-.247.247v1.697c0 .021.003.042.009.062h-.82a.246.246 0 0 0-.247.246v1.698c0 .021.003.042.008.062h-.803a.246.246 0 0 0-.247.246v1.697c0 .022.003.043.009.063H5.99a.246.246 0 0 0-.247.246v.679c0 .136.11.246.247.246zm7.205 15.514h-2.089a.246.246 0 0 0-.246.246v.25c0 .133.106.242.24.246v2.002c0 .136.11.246.246.246h1.61c.135 0 .246-.11.246-.246v-2.002a.246.246 0 0 0 .239-.246v-.25a.246.246 0 0 0-.246-.246zm4.101-37.327a.217.217 0 1 1 0 .433.217.217 0 0 1 0-.433zm0 .925a.71.71 0 1 0-.001-1.42.71.71 0 0 0 .001 1.42zm.103.493a.558.558 0 1 1-.001 1.115.558.558 0 0 1 0-1.115zm0 1.606a1.05 1.05 0 0 0 0-2.099 1.05 1.05 0 0 0 0 2.1zm-2.639 1.434a.558.558 0 1 1 1.116.001.558.558 0 0 1-1.116-.001zm1.607 0a1.05 1.05 0 0 0-2.099 0 1.05 1.05 0 0 0 2.1 0zm1.617 23.316h5.277v-.102h-5.277v.102zm5.523-.594H17.74a.246.246 0 0 0-.246.246v.553c0 .136.11.246.246.246h.433a.245.245 0 0 0-.018.092v4.443a.246.246 0 0 0 .493 0v-3.8l.03.003h3.894l.03-.002v3.8a.246.246 0 1 0 .492 0V57.51a.246.246 0 0 0-.017-.092h.432c.136 0 .247-.11.247-.246v-.553a.246.246 0 0 0-.247-.246zm16.247 13.27H24.183a.246.246 0 0 0-.233.169v-3.691a.246.246 0 0 0 .233.168h15.572v3.354zm-16.052-8.377a.246.246 0 0 0-.246.246v.758a.245.245 0 0 0-.14-.044H17.93c-.052 0-.1.016-.14.044v-.758a.246.246 0 1 0-.493 0v.657a.246.246 0 0 0-.19-.09H7.283v-5.608a.245.245 0 0 0-.045-.141H34.01a.245.245 0 0 0-.045.141v5.608h-9.782a.246.246 0 0 0-.233.169v-.736a.246.246 0 0 0-.247-.246zm-.246 1.51a.235.235 0 0 0-.14-.047H17.93c-.052 0-.1.018-.14.047v-.101c.04.029.088.046.14.046h5.386c.052 0 .1-.017.14-.046v.1zm.038.46a.52.52 0 0 0-.036-.023.52.52 0 0 0 .036-.023v.046zm-5.687 0v-.046a.582.582 0 0 0 .037.023.582.582 0 0 0-.037.023zm5.65.465a.235.235 0 0 0-.141-.047H17.93c-.052 0-.1.017-.14.047v-.102c.04.03.088.047.14.047h5.386c.052 0 .1-.017.14-.046v.1zm.037.46a.608.608 0 0 0-.036-.023.56.56 0 0 0 .036-.023v.045zm-5.687 0v-.046a.501.501 0 0 0 .037.023.54.54 0 0 0-.037.023zm5.65.465a.235.235 0 0 0-.141-.047H17.93c-.052 0-.1.017-.14.047v-.102c.04.03.088.047.14.047h5.386c.052 0 .1-.017.14-.047v.102zm.037.46a.573.573 0 0 0-.036-.023.53.53 0 0 0 .036-.023v.045zm-5.686 0v-.046a.522.522 0 0 0 .036.023.61.61 0 0 0-.036.022zm5.648.465a.235.235 0 0 0-.14-.047H17.93c-.052 0-.1.017-.14.047v-.102c.04.03.088.047.14.047h5.386c.052 0 .1-.017.14-.047v.102zm.038.46a.494.494 0 0 0-.036-.024.573.573 0 0 0 .036-.022v.045zm-5.686 0v-.046a.61.61 0 0 0 .036.022.522.522 0 0 0-.036.023zm5.648.465a.235.235 0 0 0-.14-.047H17.93c-.052 0-.1.017-.14.047v-.102c.04.03.088.047.14.047h5.386c.052 0 .1-.017.14-.047v.102zm.038.46a.56.56 0 0 0-.036-.024.608.608 0 0 0 .036-.022v.045zm-5.687 0v-.047a.54.54 0 0 0 .037.023.501.501 0 0 0-.037.023zm5.65.465a.235.235 0 0 0-.141-.047H17.93c-.052 0-.1.017-.14.047v-.102c.04.03.088.047.14.047h5.386c.052 0 .1-.017.14-.047v.102zm.037.46a.52.52 0 0 0-.036-.024.52.52 0 0 0 .036-.023v.046zm-5.687 0v-.047a.582.582 0 0 0 .037.023.539.539 0 0 0-.037.023zm5.65.464a.235.235 0 0 0-.141-.046H17.93c-.052 0-.1.017-.14.046v-.1c.04.029.088.046.14.046h5.386c.052 0 .1-.017.14-.047v.101zm.037.46a.53.53 0 0 0-.036-.023.573.573 0 0 0 .036-.023v.046zm-5.686 0v-.046a.61.61 0 0 0 .036.023.522.522 0 0 0-.036.023zm5.648.465a.235.235 0 0 0-.14-.046H17.93c-.052 0-.1.017-.14.046v-.101c.04.03.088.047.14.047h5.386c.052 0 .1-.018.14-.047v.101zm.038.46a.56.56 0 0 0-.036-.023.56.56 0 0 0 .036-.023v.046zm-5.687 0v-.046a.54.54 0 0 0 .037.023.501.501 0 0 0-.037.023zm5.65.465a.235.235 0 0 0-.141-.046H17.93c-.052 0-.1.017-.14.046v-.101c.04.03.088.047.14.047h5.386c.052 0 .1-.018.14-.047v.101zm-6.12-7.602a.537.537 0 0 0-.041-.043.537.537 0 0 0 .04-.044v.087zm-.04.876a.246.246 0 0 0-.19-.09H5.805a.246.246 0 0 0 .008-.064v-.37h11.295a.246.246 0 0 0 .19-.09v.614zm0 1.178a.246.246 0 0 0-.19-.09H4.745a.246.246 0 0 0 .008-.064v-.621h12.355a.246.246 0 0 0 .19-.09v.865zm0 1.26a.246.246 0 0 0-.19-.09H3.044a.245.245 0 0 0 .05-.147v-.62h14.014a.246.246 0 0 0 .19-.09v.947zm0 3.846a.246.246 0 0 0-.19-.09H1.492V66.29h15.616a.246.246 0 0 0 .19-.09v3.534zM23.95 62.6v-.197a.27.27 0 0 0 .101.099.27.27 0 0 0-.101.098zm11.484.324v.371c0 .022.003.044.009.065h-11.26a.246.246 0 0 0-.233.168v-.773a.246.246 0 0 0 .233.17h11.251zm1.06.928v.62c0 .023.003.044.009.065h-12.32a.246.246 0 0 0-.233.169v-1.023a.246.246 0 0 0 .233.169h12.311zm1.66 1.177v.62c0 .056.019.107.05.148h-14.02a.246.246 0 0 0-.234.169V64.86a.246.246 0 0 0 .233.168h13.971zm1.847.768h-1.403a.245.245 0 0 0 .049-.147v-.867a.246.246 0 0 0-.246-.246h-1.423a.248.248 0 0 0 .009-.064v-.867a.246.246 0 0 0-.247-.246h-.822a.248.248 0 0 0 .009-.065v-.617a.246.246 0 0 0-.247-.246h-1.247a.245.245 0 0 0 .024-.107v-5.854a.245.245 0 0 0-.045-.141h.877c.136 0 .246-.11.246-.246v-.494a.246.246 0 0 0-.493 0v.247H6.205v-.247a.246.246 0 1 0-.492 0v.494c0 .136.11.246.246.246h.876a.245.245 0 0 0-.045.141v5.854c0 .038.01.074.025.107H5.567a.246.246 0 0 0-.246.246v.617c0 .022.003.044.009.065h-.823a.246.246 0 0 0-.246.246v.867c0 .022.003.043.009.064H2.847a.246.246 0 0 0-.246.246v.867c0 .055.018.106.05.147H1.245a.246.246 0 0 0-.246.246v3.847c0 .136.11.246.246.246h15.862a.246.246 0 0 0 .19-.09v.385a.246.246 0 0 0 .463.118.245.245 0 0 0 .17.069h5.386a.245.245 0 0 0 .17-.069.246.246 0 0 0 .463-.118v-.464a.246.246 0 0 0 .233.169h15.818c.136 0 .247-.11.247-.246v-3.847a.246.246 0 0 0-.247-.246zm-20.757-6.844h.895v-.237h-.895v.237zm-.01 1.8h.896v-.955h-.896v.955zm0 .954h.896v-.238h-.896v.238zm1.397-2.507v-.73a.246.246 0 0 0-.246-.247h-1.388a.246.246 0 0 0-.246.246v.73c0 .067.027.128.07.172a.245.245 0 0 0-.079.18V61c0 .04.01.079.027.112a.244.244 0 0 0-.027.112v.73c0 .136.11.247.246.247h1.388c.136 0 .246-.11.246-.247v-.73c0-.04-.01-.078-.027-.112a.245.245 0 0 0 .027-.112v-1.447a.245.245 0 0 0-.07-.172.245.245 0 0 0 .08-.18zm-7.363-.958a.246.246 0 0 0-.222-.14h-.743a.246.246 0 0 0-.2.103.246.246 0 0 0-.202-.104h-.742a.246.246 0 0 0-.222.141v-.16h2.331v.16zm.044 1.51a.323.323 0 0 0-.102-.078.323.323 0 0 0 .102-.077v.155zm-.763-.507h.25v-.651h-.25v.651zm0 1.51h.25v-.652h-.25v.652zm-.483-1.07a.326.326 0 0 0 .05-.051.326.326 0 0 0 .052.05.326.326 0 0 0-.051.051.326.326 0 0 0-.05-.05zm-.66-.44h.25v-.651h-.25v.651zm0 1.51h.25v-.652h-.25v.652zm1.862.511h-2.331v-.16c.039.084.124.141.222.141h.742a.246.246 0 0 0 .201-.104.246.246 0 0 0 .201.104h.743a.246.246 0 0 0 .222-.14v.159zm-2.331-1.67c.024.03.059.057.101.078a.324.324 0 0 0-.101.078v-.155zm2.997-2.712H10.27a.246.246 0 0 0-.246.246v.439c0 .136.11.246.246.246h.175a.242.242 0 0 0 0 .021v3.676c0 .136.11.246.245.246h2.824c.136 0 .246-.11.246-.246v-3.676a.26.26 0 0 0 0-.021h.174c.136 0 .246-.11.246-.246v-.439a.246.246 0 0 0-.246-.246zm14.111 10.378v2.002c0 .136.11.246.246.246h1.61c.136 0 .246-.11.246-.246v-2.002a.246.246 0 0 0 .24-.246v-.25a.246.246 0 0 0-.246-.246h-2.09a.246.246 0 0 0-.245.246v.25c0 .133.106.242.239.246zm-6.918-8.309h.896v-.237h-.896v.237zm-.009 1.8h.895v-.955h-.895v.955zm0 .954h.895v-.238h-.895v.238zm1.15-3.484h-1.387a.246.246 0 0 0-.246.246v.73c0 .067.027.128.07.172a.245.245 0 0 0-.08.18V61c0 .04.01.079.028.112a.244.244 0 0 0-.027.112v.73c0 .136.11.247.246.247h1.388c.136 0 .246-.11.246-.247v-.73c0-.04-.01-.078-.027-.112a.244.244 0 0 0 .027-.112v-1.447a.245.245 0 0 0-.07-.172.245.245 0 0 0 .08-.18v-.73a.246.246 0 0 0-.247-.247zm12.726 9.039v2.002c0 .136.11.246.246.246h1.61c.136 0 .246-.11.246-.246v-2.002a.246.246 0 0 0 .24-.246v-.25a.246.246 0 0 0-.247-.246H35a.246.246 0 0 0-.246.246v.25c0 .133.107.242.24.246z" stroke="#768C6C" stroke-width=".2" fill="#768C6C"/>
        <path d="M27.98 63.429c.04.083.124.14.222.14h.743a.246.246 0 0 0 .2-.103.246.246 0 0 0 .201.104h.743a.246.246 0 0 0 .222-.141v.16H27.98v-.16zm0-1.51c.024.03.059.056.101.078a.323.323 0 0 0-.101.077v-.155zm.468 1.158h.25v-.651h-.25v.651zm0-1.509h.25v-.652h-.25v.652zm.763.44a.326.326 0 0 0-.051.05.326.326 0 0 0-.05-.05.324.324 0 0 0 .05-.052.324.324 0 0 0 .05.051zm.381 1.07h.25v-.652h-.25v.651zm0-1.51h.25v-.652h-.25v.652zm-1.612-1.163h2.331v.16a.246.246 0 0 0-.222-.141h-.743a.246.246 0 0 0-.2.104.246.246 0 0 0-.201-.104h-.743a.246.246 0 0 0-.222.141v-.16zm2.375 1.67a.324.324 0 0 0-.101-.078.323.323 0 0 0 .1-.078v.155zm-3.041-1.938h.174a.242.242 0 0 0 0 .022v3.676c0 .136.11.246.245.246h2.824c.136 0 .247-.11.247-.246v-3.676c0-.007 0-.015-.002-.022h.175c.136 0 .246-.11.246-.246v-.438a.246.246 0 0 0-.246-.246h-3.663a.246.246 0 0 0-.247.246v.438c0 .136.11.246.247.246zm-6.69-30.356a.217.217 0 1 1 0 .433.217.217 0 0 1 0-.433zm0 .925a.71.71 0 1 0-.002-1.42.71.71 0 0 0 .002 1.42zm3.224 2.227a.558.558 0 1 1-.002 1.116.558.558 0 0 1 .002-1.116zm0 1.607a1.05 1.05 0 0 0 0-2.1 1.05 1.05 0 0 0 0 2.1zm-1.63-3.921a.131.131 0 1 1 0 .262.131.131 0 0 1 0-.262zm0 .754a.624.624 0 1 0-.001-1.248.624.624 0 0 0 .001 1.248zm-2.057-13.49h.925a.246.246 0 1 0 0-.493h-.925a.246.246 0 1 0 0 .493zm5.768 17.533a.558.558 0 1 1-.001 1.116.558.558 0 0 1 .001-1.116zm0 1.607a1.05 1.05 0 0 0 0-2.1 1.05 1.05 0 0 0 0 2.1zm-2.542-15.47H17.86a.246.246 0 1 0 0 .492h5.526a.246.246 0 1 0 0-.492zm.564 9.962a.217.217 0 1 1 0 .433.217.217 0 0 1 0-.433zm0 .925a.71.71 0 1 0-.002-1.419.71.71 0 0 0 .002 1.42zm-3.327-1.113a.558.558 0 1 1-.001 1.115.558.558 0 0 1 0-1.115zm0 1.606a1.05 1.05 0 0 0 0-2.099 1.05 1.05 0 0 0 0 2.1zM6.247 68.843H4.16a.246.246 0 0 0-.247.246v.25c0 .133.107.242.24.245v2.003c0 .136.11.246.246.246h1.61c.136 0 .246-.11.246-.246v-2.003a.246.246 0 0 0 .24-.246v-.25a.246.246 0 0 0-.247-.246zm-1.91-12.691H36.91v-.19H4.338v.19zm.372-.898v-.974a.245.245 0 0 0-.03-.119h31.89a.245.245 0 0 0-.03.119v.974c0 .093.052.174.128.216H4.58a.246.246 0 0 0 .129-.216zm31.251 1.513v.247H5.287v-.247a.245.245 0 0 0-.033-.123h30.74a.245.245 0 0 0-.034.123zm-31.869-.123h.737a.245.245 0 0 0-.033.123v.493c0 .136.11.246.246.246h31.166c.136 0 .246-.11.246-.246v-.493a.245.245 0 0 0-.033-.123h.736c.136 0 .247-.11.247-.246v-.682a.246.246 0 0 0-.247-.246h-.253a.246.246 0 0 0 .128-.216v-.974a.245.245 0 0 0-.03-.119h.155c.136 0 .247-.11.247-.246v-.609a.246.246 0 0 0-.247-.246h-1.36a.246.246 0 0 0 0 .492h1.114v.116H4.338v-.116H5.49a.246.246 0 0 0 0-.492h-1.4a.246.246 0 0 0-.246.246v.609c0 .136.11.246.246.246h.156a.245.245 0 0 0-.03.119v.974c0 .093.051.174.128.216H4.09a.246.246 0 0 0-.246.246v.682c0 .136.11.246.246.246zM19.03 30.62a.131.131 0 1 1 0 .262.131.131 0 0 1 0-.262zm0 .754a.624.624 0 1 0-.001-1.248.624.624 0 0 0 .001 1.248zM6.237 52.65h6.358a.246.246 0 0 0 .237-.181v.548a.246.246 0 0 0-.237-.18H6.237v-.187zm1.05-.555v-1.451h6.425a.245.245 0 0 0 .17-.069v1.517c0 .028.005.055.014.08h-.817a.246.246 0 0 0-.24.193.246.246 0 0 0-.244-.208H7.28a.245.245 0 0 0 .008-.062zm1.042-2.006v-1.45h6.327a.246.246 0 1 0 0-.493H9.38a.248.248 0 0 0 .008-.063v-1.45h6.378a.246.246 0 0 0 .217-.132v1.359c0 .027.005.054.014.08h-.826a.246.246 0 0 0-.246.245v1.79c0 .029.005.055.014.08h-.81a.246.246 0 0 0-.235.176.245.245 0 0 0-.181-.08H8.32a.247.247 0 0 0 .009-.062zm1.937-4.011v-1.451h6.45a.245.245 0 0 0 .145-.048v1.164c0 .028.005.055.014.08h-.646a.246.246 0 0 0-.247.246v.203a.246.246 0 0 0-.217-.132h-5.507a.246.246 0 0 0 .008-.062zm.304-2.116v-.318h.979v.318c0 .067.027.128.07.172H10.5a.245.245 0 0 0 .07-.172zm0-.81h.979v-.128h-.98v.128zm1.471.81v-.318h.98v.318c0 .067.026.128.07.172h-1.12a.245.245 0 0 0 .07-.172zm0-.81h.98v-.128h-.98v.128zm2.45.492v.318c0 .067.028.128.072.172h-1.121a.245.245 0 0 0 .07-.172v-.318h.98zm-.978-1.113h.979v-.128h-.98v.128zm0 .621h.979v-.128h-.98v.128zm2.45.492v.318c0 .067.027.128.071.172h-1.12a.245.245 0 0 0 .07-.172v-.318h.98zm-.979-1.113h.98v-.128h-.98v.128zm0 .621h.98v-.128h-.98v.128zm1.197-3.643a.217.217 0 1 1-.434 0 .217.217 0 0 1 .434 0zm8.886 0a.216.216 0 1 1 .433 0 .216.216 0 0 1-.433 0zm-12.502 2.402-1.953-7.321a4.517 4.517 0 0 1 .788-3.944 4.517 4.517 0 0 1 3.608-1.778h4.774c-.532.172-1.27.456-2.017.889-1.802 1.043-2.8 2.471-2.896 4.139a2.377 2.377 0 0 0-1.549 1.234c-.709 1.413-.179 3.65 1.576 6.65a.246.246 0 1 0 .425-.249c-2.07-3.538-1.993-5.31-1.564-6.172a1.887 1.887 0 0 1 1.378-1.015.246.246 0 0 0 .22-.241c.022-1.59.913-2.907 2.646-3.914a10.302 10.302 0 0 1 2.623-1.047c.256.06 1.436.36 2.612 1.04 1.74 1.008 2.634 2.327 2.657 3.92a.247.247 0 0 0 .218.242c.038.004.936.122 1.38 1.015.429.863.505 2.634-1.564 6.172a.246.246 0 0 0 .425.249c1.755-3 2.285-5.237 1.576-6.65a2.377 2.377 0 0 0-1.55-1.234c-.096-1.668-1.093-3.096-2.895-4.14a10.594 10.594 0 0 0-2.018-.888h4.775c1.425 0 2.74.648 3.608 1.778a4.517 4.517 0 0 1 .787 3.944l-1.953 7.32H25.04a.707.707 0 0 0-.764-1.177c.137-.35.25-.68.339-.992a.71.71 0 1 0 .167-.732c.13-.77.068-1.39-.185-1.852a1.425 1.425 0 0 0-.754-.669c-.067-1.103-.617-2.05-1.599-2.746a5.226 5.226 0 0 0-1.559-.753.247.247 0 0 0-.122 0c-.032.009-.79.207-1.56.753-.982.697-1.532 1.643-1.599 2.746-.209.078-.53.259-.754.669-.252.463-.314 1.082-.184 1.852a.71.71 0 1 0-.501 1.21c.309 0 .572-.2.668-.478.088.311.201.642.339.992a.71.71 0 0 0-.764 1.178h-3.643zm5.542-13.791h5.034v-.555h-5.034v.555zm-.542-1.232h6.117v-.102h-6.117v.102zm-.7-.8h7.517v-1.553h-7.516v1.552zm.299-2.265h6.92V23.5h-6.92v.323zm.035-2.612c.036.02.077.031.12.031h4.522a.246.246 0 1 0 0-.492h-4.535l.277-1.188h4.258a.246.246 0 1 0 0-.492h-4.143l.276-1.187h1.433a.246.246 0 1 0 0-.493h-1.318l.334-1.437h1.738a.246.246 0 0 0 0-.492h-1.623l.253-1.084h2.051a.246.246 0 1 0 0-.492h-1.937l.153-.658h3.131l.163.697a.245.245 0 0 0-.134-.04h-.79a.246.246 0 1 0 0 .493h.79c.09 0 .168-.048.211-.12l.126.54h-2.734a.246.246 0 0 0 0 .493h2.775a.247.247 0 0 0 .071-.01l.05.213a.245.245 0 0 0-.121-.032h-1.51a.246.246 0 1 0 0 .492h1.51c.084 0 .159-.042.203-.107l.164.704h-2.802a.246.246 0 1 0 0 .493h2.883a.246.246 0 0 0 .033-.003l.082.35H22.01a.246.246 0 1 0 0 .493h1.264l.106.457h-5.177a.246.246 0 1 0 0 .492h5.292l.285 1.224h-3.45a.246.246 0 1 0 0 .492h3.564l.528 2.265h-7.596l.373-1.602zm.058-8.878 1.304-1.279h4.126l1.303 1.279h-6.733zm1.678-2.21h3.378v-.329h-3.378v.33zm-.605-2.008h4.588l-.816.8h-2.956l-.816-.8zm1.527-.62h1.534v-.257h-1.534v.256zm.767-.987c.153 0 .288.02.402.05-.114.031-.25.051-.402.051-.153 0-.288-.02-.403-.05.115-.03.25-.051.403-.051zm0-.749a.9.9 0 0 1 .395.078.9.9 0 0 1-.395.078.9.9 0 0 1-.395-.078.9.9 0 0 1 .395-.078zm7.603 37.393h.98v-.128h-.98v.128zm1.05.982h-1.12a.245.245 0 0 0 .07-.172v-.318h.98v.318c0 .067.026.128.07.172zm-1.542-.49v.318c0 .067.027.128.07.172h-1.12a.245.245 0 0 0 .07-.172v-.318h.98zm-.98-1.113h.98v-.128h-.98v.128zm0 .621h.98v-.128h-.98v.128zm-.492.492v.318c0 .067.028.128.071.172h-1.12a.245.245 0 0 0 .07-.172v-.318h.98zm-.979-1.113h.98v-.128h-.98v.128zm0 .621h.98v-.128h-.98v.128zm5.698 1.475v1.45c0 .022.003.043.008.063h-5.507a.246.246 0 0 0-.218.132v-.203a.246.246 0 0 0-.246-.246h-.646a.245.245 0 0 0 .013-.08V44.58c.041.03.091.048.146.048h6.45zm-1.283-.665v-.318h.979v.318c0 .067.027.128.07.172h-1.12a.245.245 0 0 0 .07-.172zm0-.81h.979v-.128h-.98v.128zm2.162 3.48v1.451c0 .022.003.043.008.063h-5.277a.246.246 0 1 0 0 .492h6.327v1.451c0 .022.003.043.008.063h-5.391a.245.245 0 0 0-.181.08.246.246 0 0 0-.236-.177h-.809a.245.245 0 0 0 .014-.08v-1.79a.246.246 0 0 0-.247-.246h-.825a.246.246 0 0 0 .013-.08v-1.358a.246.246 0 0 0 .218.131h6.378zm2.1 4.012v1.45c0 .023.003.043.008.063h-5.317a.246.246 0 0 0-.242.208.246.246 0 0 0-.24-.193h-.818a.246.246 0 0 0 .013-.08v-1.517a.245.245 0 0 0 .17.069h6.426zm1.05 2.006v.186h-6.359a.246.246 0 0 0-.237.18v-.547c.03.104.124.18.237.18h6.359zm-9.275-3.756a.245.245 0 0 0 .095-.02v.856H15.417v-.855c.029.012.061.019.095.019h10.224zM24.75 46.8h.023v.813h-8.298V46.8l.023.001h8.252zm-8.294-2.838v-.318h.983c.004.022.01.043.02.063h-.351a.246.246 0 0 0-.247.246v.229a.245.245 0 0 0-.145-.048h-.331a.245.245 0 0 0 .07-.172zm.21-2.374a.217.217 0 1 1 .001-.433.217.217 0 0 1 0 .433zm-.21 1.564h.979v-.128h-.98v.128zm0-.62h.979v-.13h-.98v.13zm7.909-1.16a.217.217 0 1 1 .433 0 .217.217 0 0 1-.433 0zm-.552 1.16h.979v-.13h-.979v.13zm0 .62h.979v-.128h-.979v.128zm-.488.492a.59.59 0 0 0 .02.102h-1.028a.59.59 0 0 0 .02-.102h.988zm-.983-1.113h.979v-.128h-.98v.128zm0 .621h.979v-.128h-.98v.128zm-.489.492c.004.036.011.07.02.102h-1.027a.587.587 0 0 0 .02-.102h.987zm-.983-1.113h.98v-.128h-.98v.128zm0 .621h.98v-.128h-.98v.128zm-.488.492a.59.59 0 0 0 .02.102h-1.028a.59.59 0 0 0 .02-.102h.988zm-.983-1.113h.979v-.128h-.98v.128zm0 .621h.979v-.128h-.98v.128zm4.487 1.482h.008v.863h-6.54v-.864h6.532zm-4.976-.99a.59.59 0 0 0 .02.102h-1.027a.59.59 0 0 0 .02-.102h.987zm-.983-1.113h.98v-.128h-.98v.128zm0 .621h.98v-.128h-.98v.128zm6.213.555h-.351c.009-.02.016-.04.02-.063h.983v.318c0 .067.027.128.07.172h-.33a.245.245 0 0 0-.146.048v-.23a.246.246 0 0 0-.246-.245zm-.13-6.234a1.47 1.47 0 0 0-.468-.56c.01.003.018.006.028.007.015.002.377.062.602.485.219.413.324 1.19-.166 2.635.305-1.096.307-1.956.004-2.567zm-.619-.69c.02.037.043.071.071.102a2.876 2.876 0 0 0-.064-.03l-.007-.071zm-5.493-.302c.067-.94.53-1.722 1.378-2.329a4.903 4.903 0 0 1 1.348-.668c.187.057.771.256 1.348.668.848.607 1.311 1.39 1.377 2.33-.133-.855-.585-1.592-1.326-2.152a4.351 4.351 0 0 0-1.334-.685.246.246 0 0 0-.13 0 4.351 4.351 0 0 0-1.334.685c-.741.56-1.193 1.296-1.327 2.15zm-.06.403a.473.473 0 0 0 .076-.102l-.007.07-.069.032zm-.497 4.706.08.172a.246.246 0 0 0 .452-.017l.005.011a.246.246 0 0 0 .45-.201c-.998-2.223-.909-3.318-.659-3.845.19-.4.481-.482.49-.484a.246.246 0 0 0 .19-.237c.01-.919.4-1.678 1.16-2.256.47-.358.945-.536 1.115-.592.17.056.645.234 1.115.592.76.578 1.15 1.337 1.16 2.256.001.113.076.21.186.236.013.003.304.086.493.485.25.527.34 1.622-.658 3.845a.246.246 0 0 0 .45.201l.005-.01a.245.245 0 0 0 .451.016l.08-.172a.71.71 0 0 0 .216.32h-6.996a.71.71 0 0 0 .215-.32zm-.1-1.55c-.49-1.446-.384-2.222-.165-2.635.224-.423.586-.483.599-.485.01-.001.02-.004.031-.007a1.469 1.469 0 0 0-.469.56c-.302.61-.3 1.47.004 2.566zm-2.408 10.948h11.582a.246.246 0 0 0 .152-.44h.306v1.298H14.375v-1.298h.306a.246.246 0 0 0 .152.44zm-1.508 1.9h14.598v-.224H13.325v.224zm-7.334.44h6.604c.114 0 .21-.077.238-.182.006.13.114.234.246.234h15.09c.132 0 .24-.104.246-.234a.246.246 0 0 0 .237.183h6.605c.136 0 .246-.11.246-.247v-.679a.246.246 0 0 0-.246-.246h-.812a.245.245 0 0 0 .008-.062v-1.697a.246.246 0 0 0-.246-.246h-.804a.245.245 0 0 0 .008-.063v-1.697a.246.246 0 0 0-.246-.246h-.82a.246.246 0 0 0 .008-.063v-1.697a.246.246 0 0 0-.246-.246h-.64a.246.246 0 0 0 .007-.062V44.38a.246.246 0 0 0-.246-.247H31.1a.245.245 0 0 0 .071-.172V42.388a.246.246 0 1 0-.492 0v.143h-.98v-.143a.246.246 0 1 0-.492 0v.143h-.979v-.128h.645c.111 0 .209-.075.237-.183l2.002-7.503a5.006 5.006 0 0 0-.873-4.371 5.006 5.006 0 0 0-3.998-1.97h-2.607v-1.03h.296c.136 0 .246-.11.246-.246v-.52h.453c.136 0 .247-.11.247-.247v-2.045a.246.246 0 0 0-.247-.246h-.052v-.737h.156a.246.246 0 0 0 .24-.302l-2.347-10.078a.244.244 0 0 0-.05-.1h2.018a.246.246 0 0 0 .172-.422l-1.805-1.77a.246.246 0 0 0-.173-.071h-.074a.246.246 0 0 0 .092-.192v-.822a.246.246 0 0 0-.246-.246h-.149l1.283-1.258a.246.246 0 0 0-.173-.422h-1.637v-.63a.246.246 0 0 0-.106-.202.334.334 0 0 0 .125-.259c0-.219-.198-.346-.448-.419a.422.422 0 0 0 .105-.275c0-.277-.278-.49-.689-.552V3.57a.246.246 0 1 0-.492 0v1.716c-.411.061-.69.275-.69.552 0 .102.038.195.105.275-.25.073-.447.2-.447.42 0 .106.047.19.124.258a.246.246 0 0 0-.106.202v.63h-1.636a.246.246 0 0 0-.173.422l1.283 1.258h-.15a.246.246 0 0 0-.246.246v.822c0 .078.036.147.093.192h-.075a.246.246 0 0 0-.172.07l-1.806 1.771a.246.246 0 0 0 .173.422h2.018a.244.244 0 0 0-.05.1l-2.347 10.078a.246.246 0 0 0 .24.302h.155v.737h-.052a.246.246 0 0 0-.246.246v2.045c0 .136.11.246.246.246h.454v.521c0 .136.11.246.246.246h.296v1.03h-2.607a5.006 5.006 0 0 0-3.998 1.97 5.006 5.006 0 0 0-.874 4.37l2.002 7.504a.246.246 0 0 0 .238.183h.644v.128h-.979v-.143a.246.246 0 1 0-.492 0v.143h-.98v-.143a.246.246 0 1 0-.492 0V43.962c0 .067.028.128.071.172h-.128a.246.246 0 0 0-.247.247v1.697c0 .021.003.042.009.062H9.14a.246.246 0 0 0-.247.246v1.697c0 .022.003.043.009.063h-.82a.246.246 0 0 0-.247.246v1.697c0 .022.003.043.008.063h-.803a.246.246 0 0 0-.247.246v1.697c0 .022.003.042.009.062H5.99a.246.246 0 0 0-.247.246v.68c0 .135.11.246.247.246zm7.205 15.514h-2.089a.246.246 0 0 0-.246.247v.25c0 .133.106.242.24.245v2.003c0 .136.11.246.246.246h1.61c.135 0 .246-.11.246-.246v-2.003a.246.246 0 0 0 .239-.246v-.25a.246.246 0 0 0-.246-.246zm4.101-37.327a.217.217 0 1 1 0 .433.217.217 0 0 1 0-.433zm0 .925a.71.71 0 1 0-.001-1.419.71.71 0 0 0 .001 1.42zm.103.493a.558.558 0 1 1-.001 1.116.558.558 0 0 1 0-1.116zm0 1.607a1.05 1.05 0 0 0 0-2.1 1.05 1.05 0 0 0 0 2.1zm-2.639 1.433a.558.558 0 1 1 1.116.002.558.558 0 0 1-1.116-.002zm1.607 0a1.05 1.05 0 0 0-2.099 0 1.05 1.05 0 0 0 2.1 0zm1.617 23.316h5.277v-.101h-5.277v.101zm5.523-.594H17.74a.246.246 0 0 0-.246.247v.553c0 .136.11.246.246.246h.433a.245.245 0 0 0-.018.092v4.443a.246.246 0 0 0 .493 0v-3.8l.03.002h3.894c.01 0 .02 0 .03-.002v3.8a.246.246 0 1 0 .492 0v-4.443a.246.246 0 0 0-.017-.092h.432c.136 0 .247-.11.247-.246v-.553a.246.246 0 0 0-.247-.247zm16.247 13.27H24.183a.246.246 0 0 0-.233.17v-3.692a.246.246 0 0 0 .233.169h15.572v3.354zM23.703 63.59a.246.246 0 0 0-.246.246v.758a.245.245 0 0 0-.14-.044H17.93c-.052 0-.1.016-.14.044v-.758a.246.246 0 1 0-.493 0v.656a.246.246 0 0 0-.19-.09H7.283v-5.607a.245.245 0 0 0-.045-.142H34.01a.245.245 0 0 0-.045.142v5.608h-9.782a.246.246 0 0 0-.233.168v-.735a.246.246 0 0 0-.247-.246zm-.246 1.51a.235.235 0 0 0-.14-.047H17.93c-.052 0-.1.017-.14.047v-.102c.04.03.088.047.14.047h5.386c.052 0 .1-.017.14-.047v.102zm.038.46a.52.52 0 0 0-.036-.024.52.52 0 0 0 .036-.023v.046zm-5.687 0v-.047a.582.582 0 0 0 .037.023.582.582 0 0 0-.037.023zm5.65.464a.235.235 0 0 0-.141-.046H17.93c-.052 0-.1.017-.14.046v-.1c.04.029.088.046.14.046h5.386c.052 0 .1-.017.14-.047v.101zm.037.46a.608.608 0 0 0-.036-.023.56.56 0 0 0 .036-.023v.046zm-5.687 0v-.046a.501.501 0 0 0 .037.023.54.54 0 0 0-.037.023zm5.65.465a.235.235 0 0 0-.141-.046H17.93c-.052 0-.1.017-.14.046v-.101c.04.03.088.047.14.047h5.386c.052 0 .1-.018.14-.047v.101zm.037.46a.573.573 0 0 0-.036-.023.53.53 0 0 0 .036-.023v.046zm-5.686 0v-.046a.522.522 0 0 0 .036.023.61.61 0 0 0-.036.023zm5.648.465a.235.235 0 0 0-.14-.046H17.93c-.052 0-.1.017-.14.046v-.101c.04.03.088.047.14.047h5.386c.052 0 .1-.018.14-.047v.101zm.038.46a.494.494 0 0 0-.036-.023.573.573 0 0 0 .036-.023v.046zm-5.686 0v-.046a.61.61 0 0 0 .036.023.522.522 0 0 0-.036.023zm5.648.465a.235.235 0 0 0-.14-.047H17.93c-.052 0-.1.018-.14.047v-.101c.04.03.088.047.14.047h5.386c.052 0 .1-.018.14-.047v.101zm.038.46a.56.56 0 0 0-.036-.023.608.608 0 0 0 .036-.023v.046zm-5.687 0v-.046a.54.54 0 0 0 .037.023.501.501 0 0 0-.037.023zm5.65.465a.235.235 0 0 0-.141-.047H17.93c-.052 0-.1.018-.14.047v-.101c.04.03.088.047.14.047h5.386c.052 0 .1-.018.14-.047v.101zm.037.46a.52.52 0 0 0-.036-.023.52.52 0 0 0 .036-.023v.046zm-5.687 0v-.046a.582.582 0 0 0 .037.023.539.539 0 0 0-.037.023zm5.65.465a.235.235 0 0 0-.141-.047H17.93c-.052 0-.1.018-.14.047v-.101c.04.03.088.046.14.046h5.386c.052 0 .1-.017.14-.046v.101zm.037.46a.53.53 0 0 0-.036-.023.573.573 0 0 0 .036-.023v.046zm-5.686 0v-.046a.61.61 0 0 0 .036.023.522.522 0 0 0-.036.023zm5.648.465a.235.235 0 0 0-.14-.047H17.93c-.052 0-.1.018-.14.047v-.101c.04.029.088.046.14.046h5.386c.052 0 .1-.017.14-.046v.1zm.038.46a.56.56 0 0 0-.036-.023.56.56 0 0 0 .036-.023v.046zm-5.687 0v-.046a.54.54 0 0 0 .037.023.501.501 0 0 0-.037.023zm5.65.465a.235.235 0 0 0-.141-.047H17.93c-.052 0-.1.018-.14.047v-.101c.04.029.088.046.14.046h5.386c.052 0 .1-.017.14-.046v.1zm-6.12-7.602a.537.537 0 0 0-.041-.044.537.537 0 0 0 .04-.044v.088zm-.04.876a.246.246 0 0 0-.19-.09H5.805a.246.246 0 0 0 .008-.064v-.371h11.295a.246.246 0 0 0 .19-.09v.615zm0 1.177a.246.246 0 0 0-.19-.09H4.745a.246.246 0 0 0 .008-.064v-.62h12.355a.246.246 0 0 0 .19-.09v.864zm0 1.26a.246.246 0 0 0-.19-.09H3.044a.245.245 0 0 0 .05-.147v-.62h14.014a.246.246 0 0 0 .19-.09v.947zm0 3.846a.246.246 0 0 0-.19-.09H1.492v-3.353h15.616a.246.246 0 0 0 .19-.09v3.533zm6.652-7.132v-.198a.27.27 0 0 0 .101.1.27.27 0 0 0-.101.098zm11.484.324v.37c0 .023.003.045.009.065h-11.26a.246.246 0 0 0-.233.169v-.773a.246.246 0 0 0 .233.169h11.251zm1.06.928v.62c0 .022.003.044.009.065h-12.32a.246.246 0 0 0-.233.168v-1.022a.246.246 0 0 0 .233.169h12.311zm1.66 1.177v.62c0 .056.019.106.05.148h-14.02a.246.246 0 0 0-.234.168v-1.105a.246.246 0 0 0 .233.17h13.971zm1.847.768h-1.403a.245.245 0 0 0 .049-.148v-.866a.246.246 0 0 0-.246-.246h-1.423a.248.248 0 0 0 .009-.065v-.867a.246.246 0 0 0-.247-.246h-.822a.248.248 0 0 0 .009-.064V65a.246.246 0 0 0-.247-.247h-1.247a.245.245 0 0 0 .024-.106v-5.854a.245.245 0 0 0-.045-.142h.877c.136 0 .246-.11.246-.246v-.493a.246.246 0 0 0-.493 0v.247H6.205v-.247a.246.246 0 1 0-.492 0v.493c0 .136.11.246.246.246h.876a.245.245 0 0 0-.045.142v5.854c0 .038.01.074.025.106H5.567a.246.246 0 0 0-.246.247v.617c0 .022.003.044.009.064h-.823a.246.246 0 0 0-.246.246v.867c0 .022.003.044.009.065H2.847a.246.246 0 0 0-.246.246v.866c0 .056.018.106.05.148H1.245a.246.246 0 0 0-.246.246v3.846c0 .136.11.246.246.246h15.862a.246.246 0 0 0 .19-.09v.386a.246.246 0 0 0 .463.118.245.245 0 0 0 .17.068h5.386a.245.245 0 0 0 .17-.068.246.246 0 0 0 .463-.118v-.464a.246.246 0 0 0 .233.168h15.818c.136 0 .247-.11.247-.246v-3.846A.246.246 0 0 0 40 68.12zm-20.757-6.844h.895v-.238h-.895v.238zm-.01 1.8h.896v-.956h-.896v.955zm0 .954h.896v-.238h-.896v.238zm1.397-2.508v-.73a.246.246 0 0 0-.246-.246h-1.388a.246.246 0 0 0-.246.246v.73c0 .067.027.127.07.172a.245.245 0 0 0-.079.18v1.448c0 .04.01.078.027.112a.244.244 0 0 0-.027.112v.73c0 .136.11.246.246.246h1.388c.136 0 .246-.11.246-.246v-.73c0-.04-.01-.079-.027-.112a.245.245 0 0 0 .027-.112v-1.448a.245.245 0 0 0-.07-.171.245.245 0 0 0 .08-.18zm-7.363-.957a.246.246 0 0 0-.222-.141h-.743a.246.246 0 0 0-.2.104.246.246 0 0 0-.202-.104h-.742a.246.246 0 0 0-.222.141v-.16h2.331v.16zm.044 1.51a.323.323 0 0 0-.102-.078.323.323 0 0 0 .102-.078v.155zm-.763-.507h.25v-.652h-.25v.652zm0 1.51h.25v-.652h-.25v.651zm-.483-1.07a.326.326 0 0 0 .05-.052.326.326 0 0 0 .052.051.326.326 0 0 0-.051.05.326.326 0 0 0-.05-.05zm-.66-.44h.25v-.652h-.25v.652zm0 1.51h.25v-.652h-.25v.651zm1.862.51h-2.331v-.16c.039.084.124.142.222.142h.742a.246.246 0 0 0 .201-.104.246.246 0 0 0 .201.104h.743a.246.246 0 0 0 .222-.141v.16zm-2.331-1.669c.024.03.059.056.101.078a.324.324 0 0 0-.101.077v-.155zm2.997-2.712H10.27a.246.246 0 0 0-.246.246v.438c0 .136.11.246.246.246h.175a.242.242 0 0 0 0 .022v3.676c0 .136.11.246.245.246h2.824c.136 0 .246-.11.246-.246v-3.676a.26.26 0 0 0 0-.022h.174c.136 0 .246-.11.246-.246v-.438a.246.246 0 0 0-.246-.246zm14.111 10.377v2.003c0 .136.11.246.246.246h1.61c.136 0 .246-.11.246-.246v-2.003a.246.246 0 0 0 .24-.246v-.25a.246.246 0 0 0-.246-.246h-2.09a.246.246 0 0 0-.245.247v.25c0 .133.106.242.239.245zm-6.918-8.308h.896v-.238h-.896v.238zm-.009 1.8h.895v-.956h-.895v.955zm0 .954h.895v-.238h-.895v.238zm1.15-3.484h-1.387a.246.246 0 0 0-.246.246v.73c0 .067.027.127.07.172a.245.245 0 0 0-.08.18v1.448c0 .04.01.078.028.112a.244.244 0 0 0-.027.112v.73c0 .136.11.246.246.246h1.388c.136 0 .246-.11.246-.246v-.73c0-.04-.01-.079-.027-.112a.244.244 0 0 0 .027-.112v-1.448a.245.245 0 0 0-.07-.171.245.245 0 0 0 .08-.18v-.731a.246.246 0 0 0-.247-.246zm12.726 9.038v2.003c0 .136.11.246.246.246h1.61c.136 0 .246-.11.246-.246v-2.003a.246.246 0 0 0 .24-.246v-.25a.246.246 0 0 0-.247-.246H35a.246.246 0 0 0-.246.247v.25c0 .133.107.242.24.245z"/>
    </g>
</svg>
