<svg width="29" height="30" viewBox="0 0 29 30" xmlns="http://www.w3.org/2000/svg">
    <g fill-rule="nonzero" fill="none">
        <path d="M20.737 21.43c-.004-11.059-.001-.127-.001-16.49a4.5 4.5 0 0 0-4.5-4.5H11.84C.439 2.146-1.943 22.854 10.023 26.03h6.115c2.54 0 4.6-2.059 4.599-4.6z" fill="#E6EEFF"/>
        <path d="M11.84.44h-6.9a4.5 4.5 0 0 0-4.5 4.5v16.59a4.5 4.5 0 0 0 4.5 4.5h5.083c-2.35-2.832-3.848-7.117-3.848-11.913 0-5.939 2.298-11.094 5.666-13.678z" fill="#D7E2FF"/>
        <path d="M28.237 27.477V15.76c0-1.15-.933-2.084-2.084-2.084h-2.362c-8.556.912-10.468 12.355-3.284 15.884h5.646c1.15 0 2.084-.933 2.084-2.083z" fill="#95C6F0"/>
        <path d="M19.18 21.468c.568-3.404 2.337-6.215 4.611-7.792h-7.59c-1.15 0-2.083.933-2.083 2.084v11.717c0 1.15.933 2.083 2.083 2.083h4.306c-1.283-2.171-1.831-5.064-1.326-8.092z" fill="#7FAFDA"/>
        <path d="M18.089 26.134v.676c0 .3-.244.544-.545.544h-.676a.544.544 0 0 1-.544-.544v-.676c0-.301.243-.545.544-.545h.676c.301 0 .545.244.545.545z" fill="#D7E2FF"/>
        <path d="M22.06 26.134v.676c0 .3-.244.544-.545.544h-.676a.544.544 0 0 1-.544-.544v-.676c0-.301.243-.545.544-.545h.676c.301 0 .545.244.545.545zM22.06 22.163v.676c0 .3-.244.544-.545.544h-.676a.544.544 0 0 1-.544-.544v-.676c0-.301.243-.545.544-.545h.676c.301 0 .545.244.545.545z" fill="#E6EEFF"/>
        <path d="M18.089 22.163v.676c0 .3-.244.544-.545.544h-.676a.544.544 0 0 1-.544-.544v-.676c0-.301.243-.545.544-.545h.676c.301 0 .545.244.545.545z" fill="#D7E2FF"/>
        <path d="M26.03 26.134v.676c0 .3-.243.544-.543.544h-.677a.544.544 0 0 1-.544-.544v-.676c0-.301.243-.545.544-.545h.677c.3 0 .544.244.544.545z" fill="#FF8A99"/>
        <path d="M26.03 22.163v.676c0 .3-.243.544-.543.544h-.677a.544.544 0 0 1-.544-.544v-.676c0-.301.243-.545.544-.545h.677c.3 0 .544.244.544.545z" fill="#A0ECC0"/>
        <path d="M26.03 18.192v-1.089a1.22 1.22 0 0 0-1.22-1.22h-3.287c-3.317.617-3.434 2.5-1.834 3.53h5.121a1.22 1.22 0 0 0 1.22-1.221z" fill="#E2E9EE"/>
        <path d="M17.544 15.882a1.22 1.22 0 0 0-1.22 1.221v1.089c0 .674.546 1.22 1.22 1.22h2.145a12.313 12.313 0 0 1 1.834-3.53h-3.979z" fill="#D7DEED"/>
        <path d="M15 7.058a4.414 4.414 0 0 0-2.868-4.134c-6.177 0-6.177 8.268 0 8.268A4.413 4.413 0 0 0 15 7.058z" fill="#FFD984"/>
        <path d="M9.264 7.058a4.414 4.414 0 0 1 2.868-4.134 4.412 4.412 0 1 0 0 8.268 4.413 4.413 0 0 1-2.868-4.134z" fill="#FFCA4B"/>
        <path d="M28.237 19.175a.44.44 0 0 0 .44-.44V15.76a2.526 2.526 0 0 0-2.524-2.523h-4.978V4.94A4.946 4.946 0 0 0 16.235 0H4.94A4.946 4.946 0 0 0 0 4.94v1.618a.44.44 0 1 0 .879 0V4.94A4.066 4.066 0 0 1 4.94.879h11.295a4.066 4.066 0 0 1 4.062 4.061v8.297H16.2a2.526 2.526 0 0 0-2.523 2.523v9.831H4.94a4.066 4.066 0 0 1-4.061-4.06V8.616a.44.44 0 1 0-.879 0V21.53a4.946 4.946 0 0 0 4.94 4.94h8.738v1.007A2.526 2.526 0 0 0 16.201 30h9.952a2.526 2.526 0 0 0 2.523-2.523v-6.682a.44.44 0 1 0-.879 0v6.682c0 .906-.737 1.644-1.644 1.644h-9.952a1.646 1.646 0 0 1-1.644-1.644V15.76c0-.907.738-1.644 1.644-1.644h9.952c.907 0 1.644.737 1.644 1.644v2.976c0 .242.197.44.44.44z" fill="#000"/>
        <path d="M26.47 17.103c0-.915-.745-1.66-1.66-1.66h-7.266c-.915 0-1.66.745-1.66 1.66v1.089c0 .915.745 1.66 1.66 1.66h7.266c.915 0 1.66-.745 1.66-1.66v-1.089zm-.879 1.089c0 .43-.35.78-.781.78h-7.266a.782.782 0 0 1-.78-.78v-1.089c0-.43.35-.781.78-.781h7.266c.43 0 .781.35.781.781v1.089zM18.528 22.163a.985.985 0 0 0-.984-.984h-.676a.985.985 0 0 0-.984.984v.676c0 .542.441.984.984.984h.676a.985.985 0 0 0 .984-.984v-.676zm-.879.676a.105.105 0 0 1-.105.105h-.676a.105.105 0 0 1-.105-.105v-.676c0-.058.047-.105.105-.105h.676c.058 0 .105.047.105.105v.676zM22.5 22.163a.985.985 0 0 0-.985-.984h-.676a.985.985 0 0 0-.984.984v.676c0 .542.441.984.984.984h.676a.985.985 0 0 0 .984-.984v-.676zm-.88.676a.105.105 0 0 1-.105.105h-.676a.105.105 0 0 1-.105-.105v-.676c0-.058.047-.105.105-.105h.676c.058 0 .105.047.105.105v.676zM26.47 22.163a.985.985 0 0 0-.983-.984h-.677a.985.985 0 0 0-.984.984v.676c0 .542.442.984.984.984h.677a.985.985 0 0 0 .983-.984v-.676zm-.879.676a.105.105 0 0 1-.104.105h-.677a.105.105 0 0 1-.105-.105v-.676c0-.058.047-.105.105-.105h.677c.057 0 .104.047.104.105v.676zM17.544 25.15h-.676a.985.985 0 0 0-.984.984v.676c0 .543.441.984.984.984h.676a.985.985 0 0 0 .984-.984v-.676a.985.985 0 0 0-.984-.984zm.105 1.66a.105.105 0 0 1-.105.105h-.676a.105.105 0 0 1-.105-.105v-.676c0-.058.047-.105.105-.105h.676c.058 0 .105.047.105.105v.676zM21.515 25.15h-.676a.985.985 0 0 0-.984.984v.676c0 .543.441.984.984.984h.676a.985.985 0 0 0 .984-.984v-.676a.985.985 0 0 0-.984-.984zm.105 1.66a.105.105 0 0 1-.105.105h-.676a.105.105 0 0 1-.105-.105v-.676c0-.058.047-.105.105-.105h.676c.058 0 .105.047.105.105v.676zM25.487 25.15h-.677a.985.985 0 0 0-.984.984v.676c0 .543.442.984.984.984h.677a.985.985 0 0 0 .983-.984v-.676a.985.985 0 0 0-.983-.984zm.104 1.66a.105.105 0 0 1-.104.105h-.677a.105.105 0 0 1-.105-.105v-.676c0-.058.047-.105.105-.105h.677c.057 0 .104.047.104.105v.676zM10.588 11.91a4.857 4.857 0 0 0 4.851-4.852 4.857 4.857 0 0 0-4.851-4.852 4.857 4.857 0 0 0-4.852 4.852 4.857 4.857 0 0 0 4.852 4.852zm0-8.825a3.977 3.977 0 0 1 3.973 3.973 3.977 3.977 0 0 1-3.973 3.973 3.977 3.977 0 0 1-3.973-3.973 3.977 3.977 0 0 1 3.973-3.973z" fill="#000"/>
        <path d="M12.189 6.215v.362a.11.11 0 0 1-.114.113h-.596a1.33 1.33 0 0 1-.458.831c-.251.213-.578.344-.98.39.395.422.938 1.057 1.63 1.904a.099.099 0 0 1 .014.12c-.02.044-.054.065-.103.065h-.693a.105.105 0 0 1-.089-.043A47.124 47.124 0 0 0 9.032 7.93.106.106 0 0 1 9 7.852V7.4c0-.03.012-.06.034-.08a.11.11 0 0 1 .08-.034h.397c.313 0 .564-.051.755-.153a.694.694 0 0 0 .364-.444H9.114A.11.11 0 0 1 9 6.576v-.363c0-.033.01-.06.032-.08a.11.11 0 0 1 .082-.033h1.466c-.135-.268-.452-.4-.951-.4h-.515a.11.11 0 0 1-.08-.035.11.11 0 0 1-.034-.08v-.472A.108.108 0 0 1 9.114 5h2.954a.11.11 0 0 1 .114.114v.362a.11.11 0 0 1-.114.114h-.827c.111.144.187.314.227.51h.607a.11.11 0 0 1 .114.114v.001zM4.972 13.817c-.215.23-.32.332-.561.332-.241 0-.347-.102-.562-.332-.242-.257-.572-.61-1.203-.61a.44.44 0 1 0 0 .88c.24 0 .346.101.561.331.242.257.572.61 1.204.61.631 0 .961-.353 1.203-.61.215-.23.32-.332.561-.332.241 0 .347.102.562.332.241.257.572.61 1.203.61.632 0 .962-.353 1.203-.61.216-.23.321-.332.562-.332.241 0 .346.102.562.332.241.257.572.61 1.203.61a.44.44 0 1 0 0-.88c-.24 0-.346-.1-.562-.331-.24-.257-.571-.61-1.203-.61-.631 0-.962.353-1.203.61-.216.23-.32.332-.562.332-.24 0-.346-.102-.562-.332-.24-.257-.571-.61-1.203-.61-.631 0-.961.353-1.203.61zM2.646 17.145c.24 0 .346.102.561.332.242.257.572.61 1.204.61.631 0 .961-.353 1.203-.61.215-.23.32-.332.561-.332.241 0 .347.102.562.332.241.257.572.61 1.203.61.632 0 .962-.353 1.203-.61.216-.23.321-.332.562-.332.241 0 .346.102.562.332.241.257.572.61 1.203.61a.44.44 0 1 0 0-.88c-.24 0-.346-.1-.562-.33-.24-.258-.571-.61-1.203-.61-.631 0-.962.352-1.203.61-.216.23-.32.33-.562.33-.24 0-.346-.1-.562-.33-.24-.258-.571-.61-1.203-.61-.631 0-.961.352-1.203.61-.215.23-.32.33-.561.33-.241 0-.347-.1-.562-.33-.242-.258-.572-.61-1.203-.61a.44.44 0 1 0 0 .878zM2.646 20.205c.24 0 .346.101.561.331.242.258.572.61 1.204.61.631 0 .961-.352 1.203-.61.215-.23.32-.331.561-.331.241 0 .347.101.562.331.241.258.572.61 1.203.61.632 0 .962-.352 1.203-.61.216-.23.321-.331.562-.331.241 0 .346.101.562.331.241.258.572.61 1.203.61a.44.44 0 1 0 0-.879c-.24 0-.346-.102-.562-.332-.24-.257-.571-.61-1.203-.61-.631 0-.962.353-1.203.61-.216.23-.32.332-.562.332-.24 0-.346-.102-.562-.332-.24-.257-.571-.61-1.203-.61-.631 0-.961.353-1.203.61-.215.23-.32.332-.561.332-.241 0-.347-.102-.562-.332-.242-.257-.572-.61-1.203-.61a.44.44 0 1 0 0 .88z" fill="#000"/>
    </g>
</svg>
