<?xml version="1.0" encoding="UTF-8"?>
<svg width="30px" height="30px" viewBox="0 0 30 30" version="1.1" xmlns="http://www.w3.org/2000/svg" xmlns:xlink="http://www.w3.org/1999/xlink">
    <title>Equity</title>
    <g id="Page-1" stroke="none" stroke-width="1" fill="none" fill-rule="evenodd">
        <g id="01_Mutual-Fund_UM-V-2.0" transform="translate(-566.000000, -924.000000)" fill="#FFFFFF" fill-rule="nonzero">
            <g id="Group-28-Copy" transform="translate(166.000000, 783.000000)">
                <g id="categories" transform="translate(0.000000, 30.000000)">
                    <g id="equity" transform="translate(285.000000, 60.000000)">
                        <g id="Group-326" transform="translate(100.000000, 36.000000)">
                            <g id="Equity" transform="translate(15.000000, 15.000000)">
                                <circle id="Oval" cx="5.2734375" cy="5.71289063" r="1"></circle>
                                <circle id="Oval" cx="24.7265625" cy="5.71289063" r="1"></circle>
                                <path d="M29.9503125,16.5549023 L25.3961719,7.80544922 C26.2812305,7.5215625 26.9238281,6.69099609 26.9238281,5.71289062 C26.9238281,4.50128906 25.9381641,3.515625 24.7265625,3.515625 L17.1210938,3.515625 C17.1699023,3.37798828 17.1972656,3.23033203 17.1972656,3.07617188 C17.1972656,2.46908203 16.7845898,1.95679687 16.2251367,1.80427734 C16.2850195,1.65380859 16.3183594,1.48992187 16.3183594,1.31835938 C16.3183594,0.591445312 15.7269141,0 15,0 C14.2730273,0 13.6816406,0.591445312 13.6816406,1.31835938 C13.6816406,1.48992188 13.7149219,1.65380859 13.7748633,1.80427734 C13.2153516,1.95679687 12.8027344,2.46908203 12.8027344,3.07617188 C12.8027344,3.23033203 12.8300977,3.37798828 12.8789063,3.515625 L5.2734375,3.515625 C4.06183594,3.515625 3.07617188,4.50128906 3.07617188,5.71289062 C3.07617188,6.69099609 3.71871094,7.5215625 4.60376953,7.80544922 L0.0496289063,16.5549023 C0.0170507812,16.6175391 0,16.6871484 0,16.7578125 C0,18.4539844 1.37994141,19.8339844 3.07617188,19.8339844 L7.47070313,19.8339844 C9.16693359,19.8339844 10.546875,18.4539844 10.546875,16.7578125 C10.546875,16.6871484 10.5298242,16.6175391 10.4972461,16.5549023 L5.94322266,7.80568359 C6.69210938,7.56544922 7.26726563,6.93363281 7.42652344,6.15234375 L13.6816406,6.15234375 L13.6816406,16.3183594 C12.954668,16.3183594 12.3632813,16.9098047 12.3632813,17.6367188 C12.3632813,18.1973437 12.7150195,18.6774023 13.2094336,18.8677148 L12.6932813,24.7265625 L9.66796875,24.7265625 C8.1075,24.7265625 6.81462891,25.8946875 6.61775391,27.4023047 C5.60314453,27.5963086 4.83398438,28.4902734 4.83398438,29.5605469 C4.83398438,29.8033008 5.03074219,30 5.2734375,30 L24.7265625,30 C24.9693164,30 25.1660156,29.8033008 25.1660156,29.5605469 C25.1660156,28.4902734 24.3968555,27.5963086 23.3823047,27.4023047 C23.1853125,25.8946875 21.8925,24.7265625 20.3320313,24.7265625 L17.3067188,24.7265625 L16.7905664,18.8677148 C17.2849805,18.6774023 17.6367188,18.1973438 17.6367188,17.6367188 C17.6367188,16.9098047 17.0452734,16.3183594 16.3183594,16.3183594 L16.3183594,6.15234375 L22.573418,6.15234375 C22.7327344,6.93363281 23.3078906,7.56544922 24.0567773,7.80568359 L19.5027539,16.5549023 C19.4701758,16.6175391 19.453125,16.6871484 19.453125,16.7578125 C19.453125,18.4539844 20.833125,19.8339844 22.5292969,19.8339844 L26.9238281,19.8339844 C28.62,19.8339844 30,18.4539844 30,16.7578125 C30,16.6871484 29.9829492,16.6175391 29.9503125,16.5549023 Z M24.2871094,16.3183594 L20.6167383,16.3183594 L24.2871094,9.26677734 L24.2871094,16.3183594 Z M25.1660156,9.26677734 L28.8363867,16.3183594 L25.1660156,16.3183594 L25.1660156,9.26677734 Z M15,0.87890625 C15.2423438,0.87890625 15.4394531,1.07601563 15.4394531,1.31835938 C15.4394531,1.56070313 15.2423438,1.7578125 15,1.7578125 C14.7576562,1.7578125 14.5605469,1.56070313 14.5605469,1.31835938 C14.5605469,1.07601563 14.7576563,0.87890625 15,0.87890625 Z M1.16361328,16.3183594 L4.83398438,9.26677734 L4.83398438,16.3183594 L1.16361328,16.3183594 Z M5.71289063,9.26677734 L9.38326172,16.3183594 L5.71289063,16.3183594 L5.71289063,9.26677734 Z M7.47070313,18.9550781 L3.07617188,18.9550781 C2.01509766,18.9550781 1.12763672,18.1988672 0.923378906,17.1972656 L9.6234375,17.1972656 C9.41923828,18.1988672 8.53177734,18.9550781 7.47070313,18.9550781 Z M7.03125,5.2734375 C6.78855469,5.2734375 6.59179688,5.47013672 6.59179688,5.71289063 C6.59179688,6.43980469 6.00041016,7.03125 5.2734375,7.03125 C4.54646484,7.03125 3.95507812,6.43980469 3.95507812,5.71289063 C3.95507812,4.98597656 4.54646484,4.39453125 5.2734375,4.39453125 L13.6816406,4.39453125 L13.6816406,5.2734375 L7.03125,5.2734375 Z M22.4851758,27.3632812 L8.7890625,27.3632812 C8.54636719,27.3632812 8.34960938,27.5599805 8.34960938,27.8027344 C8.34960938,28.0454883 8.54636719,28.2421875 8.7890625,28.2421875 L22.96875,28.2421875 C23.5416797,28.2421875 24.0304102,28.6095703 24.2118164,29.1210938 L5.78818359,29.1210938 C5.96953125,28.6095703 6.45832031,28.2421875 7.03125,28.2421875 C7.27394531,28.2421875 7.47070312,28.0454883 7.47070312,27.8027344 C7.47070312,26.5911328 8.45636719,25.6054688 9.66796875,25.6054688 L20.3320312,25.6054688 C21.3931055,25.6054688 22.2809766,26.3615625 22.4851758,27.3632812 Z M16.7578125,17.6367187 C16.7578125,17.8790625 16.5607031,18.0761719 16.3183594,18.0761719 C16.1950781,18.0761719 16.0775391,18.1279687 15.9942773,18.2188477 C15.9110156,18.3097852 15.8698242,18.4314258 15.8806641,18.5542383 L16.4244141,24.7265625 L13.5755859,24.7265625 L14.1193945,18.5541797 C14.1302344,18.4313672 14.0889258,18.3097266 14.0057227,18.2187891 C13.9224609,18.1279102 13.8048633,18.0761133 13.6816406,18.0761133 C13.4392969,18.0761133 13.2421875,17.8790039 13.2421875,17.6366602 C13.2421875,17.3943164 13.4392969,17.197207 13.6816406,17.197207 L16.3183594,17.197207 C16.5607031,17.197207 16.7578125,17.394375 16.7578125,17.6367187 L16.7578125,17.6367187 Z M14.5605469,16.3183594 L14.5605469,3.95507813 C14.5605469,3.71232422 14.3637891,3.515625 14.1210938,3.515625 C13.87875,3.515625 13.6816406,3.31851563 13.6816406,3.07617188 C13.6816406,2.83382813 13.87875,2.63671875 14.1210938,2.63671875 L15.8789062,2.63671875 C16.12125,2.63671875 16.3183594,2.83382813 16.3183594,3.07617188 C16.3183594,3.31851563 16.12125,3.515625 15.8789062,3.515625 C15.6361523,3.515625 15.4394531,3.71232422 15.4394531,3.95507813 L15.4394531,16.3183594 L14.5605469,16.3183594 Z M23.4082031,5.71289063 C23.4082031,5.47013672 23.2115039,5.2734375 22.96875,5.2734375 L16.3183594,5.2734375 L16.3183594,4.39453125 L24.7265625,4.39453125 C25.4534766,4.39453125 26.0449219,4.98597656 26.0449219,5.71289063 C26.0449219,6.43980469 25.4534766,7.03125 24.7265625,7.03125 C23.9996484,7.03125 23.4082031,6.43980469 23.4082031,5.71289063 Z M26.9238281,18.9550781 L22.5292969,18.9550781 C21.4682813,18.9550781 20.5807617,18.1988672 20.3765625,17.1972656 L29.0765625,17.1972656 C28.8723633,18.1988672 27.9848438,18.9550781 26.9238281,18.9550781 Z" id="Shape"></path>
                            </g>
                        </g>
                    </g>
                </g>
            </g>
        </g>
    </g>
</svg>