<?xml version="1.0" encoding="UTF-8"?><svg version="1.1" width="33px" height="30px" viewBox="0 0 33.0 30.0" xmlns="http://www.w3.org/2000/svg" xmlns:xlink="http://www.w3.org/1999/xlink"><defs><clipPath id="i0"><path d="M1445,0 L1445,2435 L0,2435 L0,0 L1445,0 Z"></path></clipPath><clipPath id="i1"><path d="M7.62651849,0 C7.92776597,0 8.17126982,0.244048592 8.17126982,0.544751321 C8.17126982,0.84545405 7.92776597,1.08950264 7.62651849,1.08950264 L0.544751321,1.08950264 C0.24350384,1.08950264 0,0.84545405 0,0.544751321 C0,0.244048592 0.24350384,0 0.544751321,0 Z"></path></clipPath><clipPath id="i2"><path d="M14.7082857,0 C15.0095331,0 15.253037,0.244048592 15.253037,0.544751321 C15.253037,0.84545405 15.0095331,1.08950264 14.7082857,1.08950264 L0.544751321,1.08950264 C0.24350384,1.08950264 0,0.84545405 0,0.544751321 C0,0.244048592 0.24350384,0 0.544751321,0 Z"></path></clipPath><clipPath id="i3"><path d="M10.8568938,0 L29.4557934,0.0381325925 C31.2365855,0.0386773438 32.6850793,1.48771586 32.6850793,3.26850793 L32.6850793,14.7861851 C32.6850793,16.5669772 31.2360407,18.0160157 29.4547039,18.0160157 L28.87182,18.0160157 L28.87182,23.4635289 C28.87182,23.6885112 28.7334532,23.8906139 28.5231792,23.9717819 C28.4594433,23.9962957 28.3929836,24.0082802 28.3270687,24.0082802 C28.1767173,24.0082802 28.0290897,23.9456338 27.9239527,23.8301465 L25.0585608,20.6782154 L25.0585608,20.7397723 C25.0585608,22.5205644 23.6095223,23.9696029 21.8281854,23.9696029 L12.77115,24.006646 L7.48488315,29.8218663 C7.37974615,29.9373536 7.23211854,30 7.08176717,30 C7.01585226,30 6.9493926,29.9880155 6.8856567,29.9635017 C6.67538269,29.8823337 6.53701585,29.680231 6.53701585,29.4552487 L6.53701585,24.0077355 L3.23037533,24.0077355 C1.44903851,24.0077355 0,22.5592417 0,20.7779049 L0,9.26131721 C0,7.47998039 1.44903851,6.03094188 3.23037533,6.03094188 L7.62651849,6.0216811 L7.62651849,3.23037533 C7.62651849,1.44903851 9.07555701,0 10.8568938,0 Z M21.8281854,7.08122242 L8.17235932,7.10954949 L3.23146484,7.11989977 C2.04989922,7.11989977 1.08950264,8.08029634 1.08950264,9.26077246 L1.08950264,20.7773601 C1.08950264,21.9572915 2.04989922,22.9176881 3.23037533,22.9176881 L7.08176717,22.9176881 C7.38301465,22.9176881 7.62651849,23.1617367 7.62651849,23.4624394 L7.62651849,28.045977 L12.1261644,23.0958218 C12.2285777,22.9830582 12.374571,22.9182328 12.5271014,22.9176881 L21.8260064,22.8795555 C23.0086615,22.8795555 23.9690581,21.9197037 23.9690581,20.7392275 L23.9690581,9.22209511 C23.9690581,8.041619 23.0086615,7.08122242 21.8281854,7.08122242 Z M10.8558043,1.08895789 C9.67641772,1.08895789 8.71602114,2.04935447 8.71602114,3.22983058 L8.71602114,6.01895735 L21.8270959,5.99226453 C23.6095223,5.99226453 25.0585608,7.44130305 25.0585608,9.22263986 L25.0585608,19.0575802 L27.7823174,22.0537125 L27.7823174,17.4701749 C27.7823174,17.1694721 28.0258212,16.9254235 28.3270687,16.9254235 L29.4547039,16.9254235 C30.63518,16.9254235 31.5955766,15.9655717 31.5955766,14.7850956 L31.5961214,3.26796317 C31.5961214,2.08748706 30.6357248,1.12709048 29.4552487,1.12709048 Z"></path></clipPath></defs><g transform="translate(-1336.0 -1083.0)"><g clip-path="url(#i0)"><g transform="translate(1322.0 1066.0)"><g transform="translate(14.0000000000007 17.0)"><g transform="translate(4.9027618891975795 11.439777741461024)"><g clip-path="url(#i1)"><polygon points="0,0 8.17126982,0 8.17126982,1.08950264 0,1.08950264 0,0" stroke="none" fill="#FFFFFF"></polygon></g></g><g transform="translate(4.902761889197581 14.708285667592744)"><g clip-path="url(#i2)"><polygon points="0,0 15.253037,0 15.253037,1.08950264 0,1.08950264 0,0" stroke="none" fill="#FFFFFF"></polygon></g></g><g transform="translate(4.902761889197581 17.976793593724466)"><g clip-path="url(#i2)"><polygon points="0,0 15.253037,0 15.253037,1.08950264 0,1.08950264 0,0" stroke="none" fill="#FFFFFF"></polygon></g></g><g clip-path="url(#i3)"><polygon points="0,0 32.6850793,0 32.6850793,30 0,30 0,0" stroke="none" fill="#FFFFFF"></polygon></g></g></g></g></g></svg>