<svg width="27" height="30" viewBox="0 0 27 30" xmlns="http://www.w3.org/2000/svg">
    <g fill-rule="nonzero" fill="none">
        <rect fill="#D1D3D4" x="6.5" y=".5" width="20" height="27" rx="10"/>
        <path d="M24.5 6.5v21a2 2 0 0 1-2 2h-16a2 2 0 0 1-2-2v-23a2 2 0 0 1 2-2h14v3c.002.552.448.998 1 1h3z" fill="#E9EAEB"/>
        <path fill="#FFA733" d="M8.5 21h5v5h-5z"/>
        <path fill="#00CCB3" d="M17.5 11h2v7h-2z"/>
        <path fill="#FFD422" d="M13.5 13h2v5h-2z"/>
        <path fill="#FF5023" d="M9.5 15h2v3h-2z"/>
        <path d="M24.5 6.5h-3a1.003 1.003 0 0 1-1-1v-3l4 4z" fill="#BCBEC0"/>
        <path d="M10.5 11a4.49 4.49 0 0 1-3 4.24 4.4 4.4 0 0 1-2 .23 4.216 4.216 0 0 1-1-.23V6.76a4.215 4.215 0 0 1 1-.23 4.4 4.4 0 0 1 2 .23 4.49 4.49 0 0 1 3 4.24z" fill="#D8D7DA"/>
        <path d="M6.5 5.76a4.4 4.4 0 0 0-2-.23A4.5 4.5 0 0 0 5 14.5a4.4 4.4 0 0 0 1.5-.26 4.496 4.496 0 0 0 0-8.48z" fill="#C2E3FF"/>
        <path d="M20.854 2.147A.5.5 0 0 0 20.5 2h-14a2.5 2.5 0 0 0-2.421 1.876l.968.25A1.5 1.5 0 0 1 6.5 3H20v2.5A1.5 1.5 0 0 0 21.5 7H24v20.5a1.5 1.5 0 0 1-1.5 1.5h-16A1.5 1.5 0 0 1 5 27.5V16H4v11.5A2.503 2.503 0 0 0 6.5 30h16a2.503 2.503 0 0 0 2.5-2.5v-21a.5.5 0 0 0-.146-.353l-4-4zM21 5.5V3.707L23.293 6H21.5a.5.5 0 0 1-.5-.5z" fill="#000"/>
        <path d="M24.5 0h-16a2.5 2.5 0 0 0-1.654.625l.662.75C7.782 1.133 8.135 1 8.5 1h16A1.5 1.5 0 0 1 26 2.5v23c0 .365-.133.718-.375.991l.75.663A2.5 2.5 0 0 0 27 25.5v-23A2.503 2.503 0 0 0 24.5 0zM6.371 8.285v.382a.116.116 0 0 1-.12.12h-.63c-.058.36-.22.653-.484.878-.266.225-.612.364-1.036.412.417.447.991 1.118 1.723 2.013.035.04.039.083.014.128-.02.046-.057.068-.108.068h-.733a.111.111 0 0 1-.094-.046 49.818 49.818 0 0 0-1.87-2.142.112.112 0 0 1-.033-.083v-.478c0-.032.013-.062.036-.084a.116.116 0 0 1 .085-.036h.42c.33 0 .595-.054.797-.162a.734.734 0 0 0 .385-.47H3.121A.116.116 0 0 1 3 8.667v-.384c0-.034.01-.063.033-.085a.116.116 0 0 1 .087-.034h1.55c-.143-.283-.478-.424-1.006-.424h-.544a.116.116 0 0 1-.085-.036A.116.116 0 0 1 3 7.62v-.5A.115.115 0 0 1 3.12 7h3.123a.116.116 0 0 1 .12.12v.383a.116.116 0 0 1-.12.12H5.37c.117.153.198.333.24.54h.642a.116.116 0 0 1 .12.12v.002z" fill="#000"/>
        <path d="M10 10a5 5 0 1 0-10 0 5 5 0 0 0 10 0zm-9 0a4 4 0 1 1 8 0 4 4 0 0 1-8 0zM11.5 7h6v1h-6zM11.5 5h1v1h-1zM13.5 5h4v1h-4zM9.5 14.5a.5.5 0 0 0-.5.5v2.5H8v1h13v-1h-1V11a.5.5 0 0 0-.5-.5h-2a.5.5 0 0 0-.5.5v6.5h-1V13a.5.5 0 0 0-.5-.5h-2a.5.5 0 0 0-.5.5v4.5h-1V15a.5.5 0 0 0-.5-.5h-2zm8.5-3h1v6h-1v-6zm-4 2h1v4h-1v-4zm-4 4v-2h1v2h-1zM8.5 20.5a.5.5 0 0 0-.5.5v5a.5.5 0 0 0 .5.5h5a.5.5 0 0 0 .5-.5v-5a.5.5 0 0 0-.5-.5h-5zm4.5 5H9v-4h4v4zM16 20.5h6v1h-6zM16 24.5h6v1h-6zM16 22.5h6v1h-6z" fill="#000"/>
    </g>
</svg>
