<svg width="55" height="50" viewBox="0 0 55 50" xmlns="http://www.w3.org/2000/svg">
    <g fill="#7CA9AD" fill-rule="nonzero" opacity=".9">
        <path d="M27.201 6.576V.936a.59.59 0 0 0-1.177 0v5.64a.59.59 0 0 0 1.177 0z"/>
        <path d="M26.614 7.54a.948.948 0 0 1-.975-.964V.936a.974.974 0 0 1 1.947 0v5.64a.948.948 0 0 1-.972.963zm0-6.798a.18.18 0 0 0-.205.193v5.64a.205.205 0 0 0 .408 0V.936a.18.18 0 0 0-.203-.193zM45.55 8.063v-1.99a.616.616 0 0 0-.6-.6.59.59 0 0 0-.598.6v1.99c.009.326.272.59.599.598a.59.59 0 0 0 .598-.598z"/>
        <path d="M44.95 9.046a.997.997 0 0 1-.983-.983v-1.99a.973.973 0 0 1 .984-.984c.54.008.976.444.983.984v1.99a.973.973 0 0 1-.983.983zm0-3.187a.205.205 0 0 0-.213.214v1.99c.008.114.1.205.214.213a.205.205 0 0 0 .213-.213v-1.99a.232.232 0 0 0-.213-.214zM48.35 9.703l1.231-1.231.174-.174a.599.599 0 0 0 .174-.425.568.568 0 0 0-.174-.425.6.6 0 0 0-.83 0L47.692 8.68l-.174.174a.599.599 0 0 0-.174.424.568.568 0 0 0 .174.425.6.6 0 0 0 .831 0z"/>
        <path d="M47.944 10.256c-.25 0-.493-.094-.679-.262a.942.942 0 0 1-.308-.714.979.979 0 0 1 .287-.697l1.41-1.41c.179-.18.422-.28.677-.28.25 0 .492.093.678.262.2.182.313.442.308.714a.979.979 0 0 1-.286.697l-1.41 1.41a.951.951 0 0 1-.677.28zm1.385-2.594a.182.182 0 0 0-.134.054l-1.41 1.41a.215.215 0 0 0-.061.154.23.23 0 0 0 .037.13l.012.011a.248.248 0 0 0 .165.067.182.182 0 0 0 .134-.054l1.41-1.41a.215.215 0 0 0 .06-.154.23.23 0 0 0-.036-.13l-.012-.011a.248.248 0 0 0-.16-.067h-.005zM49.18 12.852h1.99a.616.616 0 0 0 .598-.599.59.59 0 0 0-.598-.598h-1.99a.616.616 0 0 0-.599.598.59.59 0 0 0 .599.599z"/>
        <path d="M51.17 13.237h-1.99a.973.973 0 0 1-.984-.984.997.997 0 0 1 .984-.983h1.99a.973.973 0 0 1 .983.983.997.997 0 0 1-.983.984zm-1.99-1.198a.232.232 0 0 0-.214.214.205.205 0 0 0 .214.214h1.99a.232.232 0 0 0 .214-.214.205.205 0 0 0-.214-.214h-1.99zM47.52 15.653l1.23 1.231.174.174a.599.599 0 0 0 .425.174.568.568 0 0 0 .425-.174.6.6 0 0 0 0-.831l-1.231-1.231-.174-.174a.599.599 0 0 0-.425-.174.568.568 0 0 0-.425.174.6.6 0 0 0 0 .83z"/>
        <path d="M47.944 14.263a.979.979 0 0 1 .697.286l1.41 1.41a.983.983 0 0 1 .017 1.356.942.942 0 0 1-.714.308.979.979 0 0 1-.698-.287l-1.41-1.41a.983.983 0 0 1-.016-1.355.942.942 0 0 1 .714-.308zm1.41 2.589a.23.23 0 0 0 .13-.037l.011-.013a.217.217 0 0 0 .013-.298l-1.41-1.41a.215.215 0 0 0-.154-.061.23.23 0 0 0-.13.037l-.012.012a.217.217 0 0 0-.012.298l1.41 1.41c.04.04.096.063.154.062zM44.37 16.482v1.99c.01.327.272.59.599.599a.59.59 0 0 0 .599-.599v-1.99a.616.616 0 0 0-.599-.598.59.59 0 0 0-.599.598z"/>
        <path d="M44.969 15.499c.54.007.976.443.983.983v1.99a.973.973 0 0 1-.983.984.997.997 0 0 1-.983-.984v-1.99a.973.973 0 0 1 .983-.983zm0 3.187a.205.205 0 0 0 .214-.214v-1.99a.232.232 0 0 0-.214-.214.205.205 0 0 0-.214.214v1.99c.009.115.1.205.214.214zM10.613 32.242v16.784a.59.59 0 0 0 1.177 0V32.242a.59.59 0 0 0-1.177 0z"/>
        <path d="M11.202 31.278a.948.948 0 0 1 .974.964v16.784a.974.974 0 1 1-1.948 0V32.242a.948.948 0 0 1 .974-.964zm0 17.942a.18.18 0 0 0 .205-.194V32.242a.205.205 0 0 0-.41 0v16.784a.18.18 0 0 0 .205.194zM26.641 6.942v4.155a.599.599 0 1 0 1.198 0V6.942a.599.599 0 0 0-1.198 0z"/>
        <path d="M27.241 5.959c.543 0 .983.44.984.983v4.155a.983.983 0 1 1-1.967 0V6.942c0-.543.44-.982.983-.983zm0 5.35a.217.217 0 0 0 .214-.215V6.94a.214.214 0 1 0-.427 0v4.155a.217.217 0 0 0 .213.214zM43.27 30.215H31.74a.59.59 0 0 0 0 1.177h11.53a.59.59 0 0 0 0-1.177z"/>
        <path d="M31.74 29.83h11.53a.974.974 0 0 1 0 1.947H31.74a.974.974 0 0 1 0-1.947zm11.53 1.177a.205.205 0 0 0 0-.408H31.74a.205.205 0 0 0 0 .408h11.53zM38.732 34.792h-6.85a.59.59 0 0 0 0 1.177h6.856a.59.59 0 0 0 0-1.177h-.006z"/>
        <path d="M31.881 34.407h6.857a.974.974 0 0 1 0 1.947H31.88a.974.974 0 0 1 0-1.947zm6.857 1.177a.205.205 0 0 0 0-.408H31.88a.205.205 0 0 0 0 .408h6.857zM38.808 39.369h-6.856a.59.59 0 0 0 0 1.177h6.856a.59.59 0 0 0 0-1.177z"/>
        <path d="M31.952 38.984h6.856a.974.974 0 0 1 0 1.947h-6.856a.974.974 0 0 1 0-1.947zm6.856 1.177a.205.205 0 0 0 0-.408h-6.856a.205.205 0 0 0 0 .408h6.856zM38.885 43.927H32.03a.59.59 0 0 0 0 1.177h6.856a.59.59 0 0 0 0-1.177z"/>
        <path d="M32.03 43.542h6.855a.974.974 0 0 1 0 1.947H32.03a.974.974 0 0 1 0-1.947zm6.855 1.178a.205.205 0 0 0 0-.408H32.03a.205.205 0 0 0 0 .408h6.856zM27.646 11.074V48.91a.59.59 0 0 0 1.178 0V11.074a.59.59 0 0 0-1.178 0z"/>
        <path d="M28.236 10.11a.95.95 0 0 1 .974.964V48.91a.974.974 0 0 1-1.947 0V11.074a.948.948 0 0 1 .973-.963zm0 38.993a.18.18 0 0 0 .204-.194V11.074a.205.205 0 0 0-.408 0V48.91a.18.18 0 0 0 .204.194zM18.879 45.395v1.622c.008.327.271.59.598.6a.59.59 0 0 0 .599-.6v-1.622a.616.616 0 0 0-.599-.598.59.59 0 0 0-.598.598z"/>
        <path d="M19.477 44.41c.54.008.976.444.984.984v1.622a.973.973 0 0 1-.984.983.997.997 0 0 1-.983-.983v-1.62a.973.973 0 0 1 .983-.986zm0 2.82a.205.205 0 0 0 .214-.214v-1.62a.232.232 0 0 0-.214-.215.205.205 0 0 0-.214.214v1.622c.01.114.1.204.214.213zM18.879 40.257v1.622c.008.327.271.59.598.598a.59.59 0 0 0 .599-.598v-1.622a.616.616 0 0 0-.599-.599.59.59 0 0 0-.598.599z"/>
        <path d="M19.477 39.273c.54.008.976.444.984.984v1.622a.973.973 0 0 1-.984.983.997.997 0 0 1-.983-.983v-1.622a.973.973 0 0 1 .983-.984zm0 2.82a.205.205 0 0 0 .214-.214v-1.622a.232.232 0 0 0-.214-.214.205.205 0 0 0-.214.214v1.622c.01.114.1.205.214.214zM18.879 35.12v1.622c.008.326.271.59.598.598a.59.59 0 0 0 .599-.598V35.12a.616.616 0 0 0-.599-.6.59.59 0 0 0-.598.6z"/>
        <path d="M19.477 34.136c.54.008.976.443.984.984v1.622a.973.973 0 0 1-.984.983.997.997 0 0 1-.983-.983V35.12a.973.973 0 0 1 .983-.984zm0 2.82a.205.205 0 0 0 .214-.214V35.12a.232.232 0 0 0-.214-.214.205.205 0 0 0-.214.214v1.622c.01.114.1.205.214.214zM18.879 30.002v1.622c.008.327.271.59.598.6a.59.59 0 0 0 .599-.6v-1.622a.616.616 0 0 0-.599-.598.59.59 0 0 0-.598.598z"/>
        <path d="M19.477 29.019c.54.007.976.443.984.983v1.622a.973.973 0 0 1-.984.984.997.997 0 0 1-.983-.984v-1.622a.973.973 0 0 1 .983-.983zm0 2.82a.205.205 0 0 0 .214-.215v-1.622a.232.232 0 0 0-.214-.214.205.205 0 0 0-.214.214v1.622c.01.115.1.206.214.214zM18.879 24.865v1.622c.008.327.271.59.598.599a.59.59 0 0 0 .599-.599v-1.622a.616.616 0 0 0-.599-.598.59.59 0 0 0-.598.598z"/>
        <path d="M19.477 23.882c.54.007.976.443.984.983v1.622a.973.973 0 0 1-.984.984.997.997 0 0 1-.983-.984v-1.622a.973.973 0 0 1 .983-.983zm0 2.82a.205.205 0 0 0 .214-.215v-1.622a.232.232 0 0 0-.214-.214.205.205 0 0 0-.214.214v1.622c.01.115.1.205.214.214zM41.436 45.143v1.622c.008.327.271.59.598.599a.59.59 0 0 0 .599-.599v-1.622a.616.616 0 0 0-.599-.599.59.59 0 0 0-.598.599z"/>
        <path d="M42.034 44.16c.54.007.976.443.984.983v1.622a.973.973 0 0 1-.984.983.997.997 0 0 1-.983-.983v-1.622a.973.973 0 0 1 .983-.983zm0 2.819a.205.205 0 0 0 .214-.214v-1.622a.232.232 0 0 0-.214-.214.205.205 0 0 0-.214.214v1.622c.009.114.1.205.214.214zM41.436 40.643v1.622c.008.327.271.59.598.599a.59.59 0 0 0 .599-.599v-1.622a.616.616 0 0 0-.599-.599.59.59 0 0 0-.598.599z"/>
        <path d="M42.034 39.66c.54.007.976.443.984.983v1.622a.973.973 0 0 1-.984.983.997.997 0 0 1-.983-.983v-1.622a.973.973 0 0 1 .983-.983zm0 2.819a.205.205 0 0 0 .214-.214v-1.622a.232.232 0 0 0-.214-.214.205.205 0 0 0-.214.214v1.622c.009.114.1.205.214.214zM41.436 36.126v1.622c.008.327.271.59.598.599a.59.59 0 0 0 .599-.599v-1.622a.616.616 0 0 0-.599-.599.59.59 0 0 0-.598.599z"/>
        <path d="M42.034 35.141c.54.008.976.443.984.983v1.623a.973.973 0 0 1-.984.983.997.997 0 0 1-.983-.983v-1.621a.973.973 0 0 1 .983-.985zm0 2.82a.205.205 0 0 0 .214-.214v-1.621a.232.232 0 0 0-.214-.214.205.205 0 0 0-.214.214v1.622c.01.114.1.204.214.212zM44.429 45.143v1.622c.009.327.272.59.599.599a.59.59 0 0 0 .598-.599v-1.622a.616.616 0 0 0-.598-.599.59.59 0 0 0-.6.599z"/>
        <path d="M45.028 44.16c.54.007.975.443.983.983v1.622a.973.973 0 0 1-.983.983.997.997 0 0 1-.984-.983v-1.622a.973.973 0 0 1 .984-.983zm0 2.819a.205.205 0 0 0 .213-.214v-1.622a.232.232 0 0 0-.213-.214.205.205 0 0 0-.214.214v1.622c.008.114.1.205.214.214zM44.429 40.643v1.622c.009.327.272.59.599.599a.59.59 0 0 0 .598-.599v-1.622a.616.616 0 0 0-.598-.599.59.59 0 0 0-.6.599z"/>
        <path d="M45.028 39.66c.54.007.975.443.983.983v1.622a.973.973 0 0 1-.983.983.997.997 0 0 1-.984-.983v-1.622a.973.973 0 0 1 .984-.983zm0 2.819a.205.205 0 0 0 .213-.214v-1.622a.232.232 0 0 0-.213-.214.205.205 0 0 0-.214.214v1.622c.008.114.1.205.214.214zM44.429 36.126v1.622c.009.327.272.59.599.599a.59.59 0 0 0 .598-.599v-1.622a.616.616 0 0 0-.598-.599.59.59 0 0 0-.6.599z"/>
        <path d="M45.028 35.141c.54.008.975.443.983.983v1.623a.973.973 0 0 1-.983.983.997.997 0 0 1-.984-.983v-1.621a.973.973 0 0 1 .984-.985zm0 2.82a.205.205 0 0 0 .213-.214v-1.621a.232.232 0 0 0-.213-.214.205.205 0 0 0-.214.214v1.622c.01.114.1.204.214.212zM15.363 24.865v1.622c.01.327.272.59.6.599a.59.59 0 0 0 .598-.599v-1.622a.616.616 0 0 0-.599-.598.59.59 0 0 0-.599.598z"/>
        <path d="M15.962 23.882c.54.007.976.443.984.983v1.622a.973.973 0 0 1-.984.984.997.997 0 0 1-.983-.984v-1.622a.973.973 0 0 1 .983-.983zm0 2.82a.205.205 0 0 0 .214-.215v-1.622a.232.232 0 0 0-.214-.214.205.205 0 0 0-.214.214v1.622c.009.115.1.205.214.214zM41.571 14.822l-1.231 1.231-.174.174a.599.599 0 0 0-.174.425.568.568 0 0 0 .174.424.6.6 0 0 0 .83 0l1.232-1.23.174-.175a.599.599 0 0 0 .174-.424.568.568 0 0 0-.174-.425.6.6 0 0 0-.831 0z"/>
        <path d="M41.976 14.27c.25.001.492.094.678.262.201.183.313.443.308.715a.979.979 0 0 1-.286.697l-1.41 1.41a.951.951 0 0 1-.677.28c-.25 0-.493-.094-.679-.262a.942.942 0 0 1-.307-.714.979.979 0 0 1 .286-.697l1.41-1.41c.179-.18.423-.281.677-.28zm-1.385 2.594c.051 0 .1-.022.135-.06l1.41-1.41a.215.215 0 0 0 .061-.154.23.23 0 0 0-.037-.13l-.018.001a.248.248 0 0 0-.165-.066.182.182 0 0 0-.134.054l-1.41 1.397a.215.215 0 0 0-.06.154.23.23 0 0 0 .036.13l.01.024c.046.04.106.061.167.06h.005zM40.76 11.675h-1.99a.616.616 0 0 0-.599.598.59.59 0 0 0 .599.599h1.99a.616.616 0 0 0 .599-.599.59.59 0 0 0-.6-.598z"/>
        <path d="M38.77 11.29h1.99a.973.973 0 0 1 .983.983.997.997 0 0 1-.983.984h-1.99a.973.973 0 0 1-.983-.984.997.997 0 0 1 .983-.983zm1.99 1.197a.232.232 0 0 0 .214-.214.205.205 0 0 0-.214-.214h-1.99a.232.232 0 0 0-.214.214.205.205 0 0 0 .214.214h1.99zM42.4 8.874l-1.23-1.232-.18-.183a.599.599 0 0 0-.42-.169.568.568 0 0 0-.426.174.6.6 0 0 0 0 .83l1.232 1.232.173.174a.599.599 0 0 0 .425.174.568.568 0 0 0 .425-.174.6.6 0 0 0 0-.831l.001.005z"/>
        <path d="M41.976 10.263a.979.979 0 0 1-.697-.286l-1.41-1.41a.983.983 0 0 1-.017-1.356.942.942 0 0 1 .714-.307.979.979 0 0 1 .697.286l1.41 1.41a.983.983 0 0 1 .017 1.355.942.942 0 0 1-.714.308zm-1.407-2.588a.23.23 0 0 0-.13.037l-.012.012a.217.217 0 0 0-.012.299l1.41 1.41c.04.04.096.062.154.06a.23.23 0 0 0 .13-.033l.01-.012a.217.217 0 0 0 .012-.299l-1.408-1.413a.215.215 0 0 0-.154-.061zM53.795 48.31h-6.002a.59.59 0 0 0 0 1.178h6.002a.59.59 0 0 0 0-1.178z"/>
        <path d="M47.788 47.925h6.003a.974.974 0 0 1 0 1.947h-6.003a.974.974 0 0 1 0-1.947zm6.003 1.178a.205.205 0 0 0 0-.408h-6.003a.205.205 0 0 0 0 .408h6.003zM7.444 48.31H.935a.59.59 0 0 0 0 1.178h6.509a.59.59 0 0 0 0-1.178z"/>
        <path d="M.935 47.925h6.509a.974.974 0 0 1 0 1.947H.935a.974.974 0 0 1 0-1.947zm6.509 1.178a.205.205 0 0 0 0-.408H.935a.205.205 0 0 0 0 .408h6.509z"/>
        <path d="M15.613 32.126V48.91l.598-.598H7.44l.599.598V32.126l-.599.599h8.772a.59.59 0 0 0 0-1.177H7.44a.602.602 0 0 0-.598.598V48.93c.001.33.268.597.598.599h8.772a.602.602 0 0 0 .6-.6V32.147a.59.59 0 0 0-1.178 0l-.02-.02z"/>
        <path d="M7.444 31.163h8.772a.977.977 0 0 1 .984.983V48.93c-.001.543-.441.982-.984.983H7.444a.985.985 0 0 1-.984-.983V32.146c.001-.543.441-.982.984-.983zm7.784.77h-6.8v.407h6.8v-.408zm1.197 15.994V33.09a1.06 1.06 0 0 1-.214.021h-.213v14.816h.427zM7.653 33.111H7.23v14.816h.428l-.005-14.816zm7.57 0H8.427v14.816h6.801l-.005-14.816zm0 15.585H8.427v.448h6.801l-.005-.448zM42.671 27.104v6.509l.599-.599H39a.602.602 0 0 0-.598.599v15.276l.599-.599H31.74l.599.599V27.084l-.6.6H43.27a.59.59 0 0 0 0-1.178H31.74a.602.602 0 0 0-.599.598v21.81c.002.33.269.596.599.598H39a.602.602 0 0 0 .6-.599v-15.28l-.6.599h4.268a.602.602 0 0 0 .6-.6v-6.508a.59.59 0 0 0-1.178 0l-.019-.02z"/>
        <path d="M31.74 26.121h11.53a.923.923 0 0 1 .836.476c.1.157.154.34.154.527v6.509c-.001.543-.441.982-.984.983h-3.292v14.297c0 .543-.44.983-.983.984H31.74a.985.985 0 0 1-.984-.984V27.104c.001-.542.441-.982.984-.983zm10.547.77h-9.564v.407h9.564v-.407zm1.197 5.738v-4.581c-.07.014-.142.021-.214.021h-.214v4.562l.428-.002zm-11.53-4.561h-.428v19.837h.428V28.068zm10.333 0h-9.564v19.837h5.294V33.613c.001-.543.441-.983.984-.984h3.284l.002-4.561zm0 5.33h-2.309v.449h2.309v-.448zm-3.078 1.218h-.428v13.291h.428v-13.29zm-1.198 14.06h-5.294v.448h5.294v-.448z"/>
        <path d="M47.19 33.631v15.276l.598-.598h-8.766l.6.598V33.631l-.6.607h8.773a.59.59 0 0 0 0-1.178h-8.773a.602.602 0 0 0-.598.599v15.276c.001.33.268.597.598.599h8.773a.602.602 0 0 0 .598-.599V33.651a.59.59 0 0 0-1.177 0l-.026-.02z"/>
        <path d="M39.022 32.668h8.773a.977.977 0 0 1 .983.983v15.276c0 .543-.44.983-.983.984h-8.773a.985.985 0 0 1-.983-.984V33.651c0-.542.44-.982.983-.983zm7.785.77h-6.803v.409h6.801l.002-.41zm1.197 14.487v-13.33a1.06 1.06 0 0 1-.214.021h-.214v13.31h.428zm-8.772-13.309h-.425v13.31h.428l-.003-13.31zm7.57 0h-6.798v13.31h6.801l-.003-13.31zm0 14.079h-6.798v.448h6.801l-.003-.448zM22.392 22.103V48.91l.599-.598h-6.76l.6.598V32.126a.602.602 0 0 0-.6-.598h-3.515l.6.598V22.103l-.6.598h10.275a.59.59 0 0 0 0-1.177H12.716a.602.602 0 0 0-.598.599v10.023c.001.33.268.597.598.599h3.515l-.598-.599V48.93c.002.33.269.597.598.599h6.76a.602.602 0 0 0 .598-.6V22.124a.59.59 0 0 0-1.177 0l-.02-.02z"/>
        <path d="M12.716 21.14h10.275a.977.977 0 0 1 .983.983v26.806c0 .543-.44.982-.983.983h-6.76a.985.985 0 0 1-.983-.983v-15.8h-2.532a.985.985 0 0 1-.983-.984V22.123c0-.543.44-.983.983-.984zm9.291.769h-8.31v.408h8.31v-.408zm1.198 26.016V23.066a1.06 1.06 0 0 1-.214.022h-.214v24.839l.428-.002zM12.93 23.086h-.427v8.057h.427v-8.057zm9.08 0H13.7v8.057h2.531c.543 0 .983.44.984.983v15.8h4.792l.003-24.84zm-6.762 8.826H13.7v.447h1.548v-.447zm1.194 1.216h-.424v14.797h.424V33.128zm5.562 15.567h-4.792v.448h4.792v-.448z"/>
        <path d="M33.402 11.074v16.03l.599-.598H31.74a.602.602 0 0 0-.599.598V48.91l.599-.599h-8.772l.598.599V22.103a.602.602 0 0 0-.598-.599h-3.762l.599.599V11.074l-.599.599h14.775a.59.59 0 0 0 0-1.177H19.206a.602.602 0 0 0-.598.598v11.021c.001.33.268.597.598.599h3.766l-.594-.599v26.814c.002.33.269.597.599.599h8.772a.602.602 0 0 0 .599-.6V27.125l-.599.6h2.26a.602.602 0 0 0 .598-.6v-16.05a.59.59 0 0 0-1.177 0h-.028z"/>
        <path d="M19.206 10.11H34.01a.95.95 0 0 1 .974.964v16.05a.985.985 0 0 1-.983.984h-1.276v20.82c-.001.544-.44.983-.984.984H22.97a.985.985 0 0 1-.983-.983V23.106h-2.78a.985.985 0 0 1-.983-.991v-11.02c0-.543.44-.983.983-.984zm13.811.77H20.19v.408h12.827v-.408zm1.198 15.236V12.032a1.022 1.022 0 0 1-.234.026h-.194v14.058h.428zM19.42 12.058h-.428v9.06h.428v-9.06zm13.597 0H20.19v9.06h2.782c.543 0 .983.44.984.983v25.824h6.8v-20.82c.001-.543.441-.983.984-.984h1.276l.001-14.063zm-11.027 9.83h-1.8v.447h1.799l.001-.448zm1.198 1.217h-.428v24.82h.428v-24.82zm8.772 5.001h-.428v19.82h.428v-19.82zm-1.197 20.587h-6.807v.448h6.8l.007-.448z"/>
        <path d="M31.817 6.58v4.514l.599-.598H20.828l.6.598V6.58l-.6.6h11.588a.59.59 0 0 0 0-1.178H20.828a.602.602 0 0 0-.598.598v4.513c.001.33.269.597.598.598h11.588a.602.602 0 0 0 .598-.598V6.594a.59.59 0 0 0-1.177 0l-.02-.014z"/>
        <path d="M20.828 5.61h11.588a.977.977 0 0 1 .983.984v4.519c0 .543-.44.982-.983.983H20.828a.985.985 0 0 1-.983-.983V6.594c0-.542.44-.982.983-.983zm10.604.77h-9.62v.408h9.62V6.38zm1.197 3.73V7.539a1.06 1.06 0 0 1-.213.021h-.214v2.552h.427zM21.042 7.559h-.427v2.553h.427V7.558zm10.39 0h-9.62v2.553h9.62V7.558zm0 3.32h-9.62v.449h9.62v-.448zM46.148 12.273v.154c-.01.08-.03.158-.059.232 0 .039-.038.097-.038.136 0-.02.058-.116 0 0-.039.077-.097.154-.135.232-.077.116.058-.038 0 0l-.077.077c-.02.02-.213.174-.097.097-.059.039-.136.097-.193.136a.154.154 0 0 0-.077.038c-.097.059.097-.02-.058.02l-.233.059h-.366c-.097 0 .136.038 0 0a.359.359 0 0 1-.135-.039.359.359 0 0 0-.136-.038c-.038 0-.097-.059 0 0-.077-.039-.135-.077-.212-.116-.039-.02-.059-.038-.097-.058-.077-.039.097.097 0 0l-.192-.193c.077.077.02.039 0 0-.02-.038-.059-.077-.077-.115-.019-.039-.116-.25-.059-.115-.02-.077-.058-.154-.077-.233a.174.174 0 0 0-.02-.097c-.02-.115 0 .097 0-.058v-.234c0-.039.039-.174 0-.039v-.097c.01-.08.03-.157.059-.232.038-.135-.059.097 0-.039l.058-.115c.02-.038.039-.058.059-.097.02-.038.097-.097 0 0 .058-.058.097-.115.154-.174 0 0 .115-.097.038-.038-.077.058.038-.039.058-.039a1.04 1.04 0 0 1 .251-.135c.039 0 .097-.039.136-.039a.174.174 0 0 0 .097-.02s.154-.038.058 0c-.095.039.059 0 .059 0h.232c.136 0-.097-.02.039 0 .092.017.183.043.27.077.136.039-.058-.038 0 0 .041.033.087.06.136.077.02 0 .058.039.077.059.018.02.058.038.077.058l.154.154c.097.097-.059-.097.02.02.02.039.058.077.077.116l.058.115c.059.097-.02-.097 0 .038.035.088.06.179.077.271v.193c.009.327.272.59.599.598a.59.59 0 0 0 .598-.598 2.378 2.378 0 0 0-1.563-2.221 2.33 2.33 0 0 0-2.589.696 2.365 2.365 0 1 0 4.172 1.525.616.616 0 0 0-.598-.599.602.602 0 0 0-.599.599l.074.001z"/>
        <path d="M44.903 15.022a2.736 2.736 0 0 1-2.369-1.336A2.77 2.77 0 0 1 42.8 10.5a2.72 2.72 0 0 1 2.092-.97c.315 0 .628.058.923.168a2.78 2.78 0 0 1 1.804 2.352c.019.075.029.152.029.23a2.778 2.778 0 0 1-2.212 2.696 2.818 2.818 0 0 1-.532.046zm-.79-4.568c-.279.118-.525.302-.718.536a2 2 0 0 0-.2 2.308c.359.6 1.008.966 1.708.96.133 0 .266-.012.397-.038a1.907 1.907 0 0 0 1.311-.957.954.954 0 0 1-.29-.059l-.104.323-.084-.153a.44.44 0 0 1-.057.038l-.037.032-.06.051a.308.308 0 0 0 .05-.061l-.046.015-.055.037.026.04-.085.058-.106.074-.066.045-.023.015h-.008a.44.44 0 0 1-.186.06l-.556.37.154-.297h-.218a.51.51 0 0 1-.225-.048.826.826 0 0 1-.12-.048.462.462 0 0 1-.259-.106l-.076-.041a.485.485 0 0 1-.28-.208l-.04-.037a.528.528 0 0 1-.154-.17l-.01-.012a.742.742 0 0 1-.075-.11l-.042-.087-.027-.058a.616.616 0 0 1-.04-.117v-.016a1.411 1.411 0 0 1-.053-.154l-.01-.058v-.01a.474.474 0 0 1-.024-.153v-.385h.01v-.01c0-.048.005-.095.015-.14l-.03-.044.113-.26.059-.115a.793.793 0 0 1 .052-.09v-.01a.546.546 0 0 1 .128-.162l.052-.06-.14-.125.746-.246-.317-.317zm.734 2.616h.287l.163-.04a.548.548 0 0 1 .083-.041l.042-.03.027-.02c.033-.033.066-.061.096-.086l.029-.024.03-.031c.02-.03.036-.06.053-.088l.03-.047h-.024l.014-.244a.923.923 0 0 1-.01-.141v-.154a.965.965 0 0 0-.05-.166l-.017-.043v-.039l-.023-.037-.008-.01-.035-.05-.086-.094h-.02l-.107-.106a.826.826 0 0 1-.138-.075 1.016 1.016 0 0 0-.119-.033h-.186a.56.56 0 0 1-.13.017h-.068a.631.631 0 0 1-.086.043.593.593 0 0 0-.128.071l-.04.031-.025.022-.044.05-.025.03-.039.044-.018.028v.01l-.017.036c0 .017-.008.032-.01.045a2.04 2.04 0 0 1-.03.098v.008c.01.05.01.103 0 .154v.223a.523.523 0 0 1 .017.1l.017.045c.01.029.023.061.034.095l.014.03.026.058v.01l.035.05.125.124.024.017h.011c.042.02.082.043.122.067l.037.021a.813.813 0 0 1 .167.072zm.945-2.517.425.85a.963.963 0 0 1 .379-.107 2.044 2.044 0 0 0-1.048-.88 1.958 1.958 0 0 0-1.375.017l.924.264h.049a.462.462 0 0 1 .094.023c.061.014.122.03.182.05.1.014.194.058.269.127l.034.019.067-.363z"/>
    </g>
</svg>
