<svg width="64" height="62" viewBox="0 0 64 62" xmlns="http://www.w3.org/2000/svg">
    <g fill="none" fill-rule="evenodd">
        <path d="M10.788 25.603a.27.27 0 0 0 .27-.27v-3.13h1.739v3.13a.27.27 0 0 0 .539 0v-3.668h-2.817v3.669c0 .149.12.27.27.27zm39.97 10.88a.27.27 0 0 0 .27-.27v-3.13h1.739v3.13a.27.27 0 0 0 .539 0v-3.669h-2.817v3.669c0 .149.12.27.269.27zm-40.24-10.145h3.61v-6.767h-3.61v6.767zm-3.74 0h3.2v-6.767h-3.2v6.767zm-4.15 0H6.24v-6.767h-3.61v6.767zm3.611-7.306h-4.15v7.845H14.668v-7.845H6.239zM3.69 25.603a.27.27 0 0 0 .27-.27v-3.13h1.739v3.13a.27.27 0 0 0 .539 0v-3.668H3.42v3.669c0 .149.12.27.269.27zm50.617 10.88a.27.27 0 0 0 .27-.27v-3.13h1.739v3.13a.27.27 0 1 0 .539 0v-3.669h-2.817v3.669c0 .149.12.27.27.27zm-.196 11.613h3.201V41.33h-3.2v6.767zm-4.15 0h3.611V41.33h-3.61v6.767zm7.89 0h3.61V41.33h-3.61v6.767zm4.15.539v-7.844H49.422v7.844H62.001zM48.672 38.417c0 .148.12.27.27.27h3.42v.353a.27.27 0 0 0 .54 0v-.354h5.618v.354a.27.27 0 0 0 .539 0v-.354h3.491v.753c0 .037.008.073.022.106h-13.13a.27.27 0 0 0 0 .538H62.05v.76a.27.27 0 1 0 .54 0v-1.268a.269.269 0 0 0 .5-.136v-1.292H48.943a.27.27 0 0 0-.27.27zM1.269 17.95c.1 0 .186-.054.233-.133v1.268a.27.27 0 0 0 .538 0v-.76h12.606a.27.27 0 0 0 0-.539H1.517a.268.268 0 0 0 .022-.106v-.752h13.609a.27.27 0 0 0 0-.539H1v1.291c0 .15.12.27.27.27zm9.785 18.532a.27.27 0 0 0 .269-.269v-3.13h1.74v3.13a.27.27 0 1 0 .538 0v-3.669h-2.817v3.669c0 .149.12.27.27.27zm46.533-.269a.27.27 0 1 0 .539 0v-3.13h1.74v3.13a.27.27 0 0 0 .538 0v-3.669h-2.817v3.669zm-53.632.27a.27.27 0 0 0 .27-.27v-3.13h1.74v3.13a.27.27 0 0 0 .538 0v-3.669H3.686v3.669c0 .149.12.27.27.27zm3.55 0a.27.27 0 0 0 .269-.27v-3.13h1.74v3.13a.27.27 0 0 0 .538 0v-3.669H7.235v3.669c0 .149.12.27.27.27zM1.538 28.56v-.753h3.699a.27.27 0 0 0-.208.262v.373a.27.27 0 0 0 .12.223H1.517a.268.268 0 0 0 .022-.105zm9.856-.753a.27.27 0 0 0-.207.262v.373a.27.27 0 0 0 .12.223H5.448a.27.27 0 0 0 .12-.223v-.373a.27.27 0 0 0-.208-.262h6.034zM1.269 28.829c.1 0 .186-.054.233-.133v1.269a.27.27 0 0 0 .538 0v-.76h12.606a.27.27 0 0 0 0-.54h-3.04a.27.27 0 0 0 .12-.223v-.373a.27.27 0 0 0-.207-.262h3.629a.27.27 0 0 0 0-.539H1v1.292c0 .148.12.269.27.269zm5.97-3.226a.27.27 0 0 0 .27-.27v-3.13h1.739v3.13a.27.27 0 0 0 .539 0v-3.668H6.97v3.669c0 .149.12.27.269.27zM24.266 7.195a.27.27 0 0 0 .27-.27v-.752h15.018v.752a.27.27 0 1 0 .539 0V5.634H23.997v1.291c0 .149.12.27.27.27zm15.009 1.404a.27.27 0 0 0 .27-.269V7.031h-15v1.3a.27.27 0 0 0 .54 0V7.57h13.92v.76c0 .149.121.27.27.27zm.616 10.167c0 .149.12.27.27.27h7.326v8.826a.27.27 0 1 0 .539 0v-9.365H40.16a.27.27 0 0 0-.27.27zm-13.573-3.644a.27.27 0 1 0 .539 0v-4.414h1.954v4.414a.27.27 0 0 0 .539 0V10.17h-3.032v4.952zm7.98-9.599a.27.27 0 0 0 .269-.27V3.369a.795.795 0 0 1 1.588 0v1.886a.27.27 0 0 0 .539 0V3.368c0-.735-.598-1.333-1.333-1.333s-1.333.598-1.333 1.333v1.886c0 .149.12.27.27.27zm-3.673-.048a.27.27 0 0 0 .27-.269V2.689c0-.634.516-1.15 1.15-1.15.634 0 1.15.516 1.15 1.15v2.517a.27.27 0 1 0 .539 0V2.689A1.69 1.69 0 0 0 32.044 1a1.69 1.69 0 0 0-1.688 1.689v2.517c0 .149.12.27.27.27zm-2.96.048a.27.27 0 0 0 .27-.27V3.369a.795.795 0 0 1 1.588 0v1.886a.27.27 0 0 0 .539 0V3.368c0-.735-.598-1.333-1.333-1.333s-1.333.598-1.333 1.333v1.886c0 .149.12.27.27.27zm-11.6 22.339a.27.27 0 1 0 .538 0v-8.826h7.326a.27.27 0 0 0 0-.54h-7.865v9.366zm-.902-8.807a.27.27 0 1 0 .538 0v-.986h7.695a.27.27 0 0 0 0-.538h-8.233v1.524zm20.189-2.003a.27.27 0 0 0-.208.262v.372a.27.27 0 0 0 .12.224h-6.438a.27.27 0 0 0 .12-.224v-.372a.27.27 0 0 0-.208-.262h6.614zm-11.086 1.022a.27.27 0 0 0 .27-.27v-.752h4.078a.27.27 0 0 0-.207.262v.372a.27.27 0 0 0 .12.224h-3.981v1.3a.27.27 0 0 0 .538 0v-.761h13.921v.76a.27.27 0 0 0 .54 0V17.91h-3.981a.27.27 0 0 0 .12-.224v-.372a.27.27 0 0 0-.208-.262h4.078v.752a.27.27 0 0 0 .539 0v-1.291H23.997v1.291c0 .15.12.27.27.27zm1.462-2.491h12.634V8.816H25.728v6.767zm-.539.538h13.712V8.277H25.189v7.844zm9.562-.999a.27.27 0 0 0 .539 0v-4.414h1.954v4.414a.27.27 0 1 0 .539 0V10.17H34.75v4.952zm19.095 22.095h3.2V30.45h-3.2v6.767zm-4.15 0h3.611V30.45h-3.61v6.767zm7.89 0h3.61V30.45h-3.61v6.767zm4.149.539v-7.844H49.157v7.844H61.736zm-31.786-22.67a.27.27 0 0 0 .539 0v-4.931h3.114v4.931a.27.27 0 0 0 .539 0v-5.47h-4.192v5.47zM7.081 16.231a.27.27 0 0 0 .27-.27v-2.517c0-.634.46-1.15 1.027-1.15s1.028.516 1.028 1.15v2.517a.27.27 0 0 0 .539 0v-2.517c0-.931-.703-1.689-1.567-1.689s-1.566.758-1.566 1.69v2.516c0 .15.12.27.269.27zm35.105 40.683h-1.34v-2.212a.67.67 0 0 1 1.34 0v2.212zm-.67-3.42a1.21 1.21 0 0 0-1.208 1.208v2.75h2.417v-2.75a1.21 1.21 0 0 0-1.208-1.208zm7.157-4.322c0 .149.12.27.27.27h3.42v.353a.27.27 0 0 0 .54 0v-.354h5.618v.354a.27.27 0 0 0 .539 0v-.354h3.491v.753c0 .038.008.073.022.106h-13.13a.27.27 0 1 0 0 .539H62.05v.76a.27.27 0 0 0 .54 0V50.33a.269.269 0 0 0 .5-.136v-1.291H48.943a.27.27 0 0 0-.27.269zm5.438 9.68h3.201v-6.767h-3.2v6.767zm-.539-7.306h-4.149v7.575a.27.27 0 1 0 .539 0v-7.036h3.61v7.305h4.279v-7.305h3.61v7.036a.27.27 0 1 0 .54 0v-7.575h-8.429zM24.5 56.914h-1.34v-2.212a.67.67 0 0 1 1.34 0v2.212zm-.67-3.42a1.21 1.21 0 0 0-1.208 1.208v2.75h2.417v-2.75a1.21 1.21 0 0 0-1.209-1.208zm-1.402-2.83a3.398 3.398 0 0 0-3.394 3.394v3.125a.27.27 0 0 0 .539 0v-3.125a2.859 2.859 0 0 1 2.855-2.855 2.859 2.859 0 0 1 2.855 2.855v3.125a.27.27 0 0 0 .54 0v-3.125a3.398 3.398 0 0 0-3.395-3.394zm10.246-.374c-2.13 0-3.863 1.623-3.863 3.617v6.228a.27.27 0 0 0 .539 0v-6.228c0-1.697 1.49-3.078 3.324-3.078 1.832 0 3.323 1.38 3.323 3.078v6.228a.27.27 0 0 0 .54 0v-6.228c0-1.994-1.734-3.617-3.863-3.617zm16.234-9.493v-1.524h-8.233a.27.27 0 1 0 0 .539h7.694v.985a.27.27 0 0 0 .539 0zm1.846 17.05a.27.27 0 0 0 .539 0v-3.13h1.74v3.13a.27.27 0 1 0 .538 0V54.18h-2.817v3.668zm7.098-10.755a.27.27 0 1 0 .539 0v-3.13h1.74v3.13a.27.27 0 0 0 .538 0v-3.669h-2.817v3.67zm0 10.755a.27.27 0 1 0 .539 0v-3.13h1.74v3.13a.27.27 0 0 0 .538 0V54.18h-2.817v3.668zm-41.567-8.406h.1a.352.352 0 0 0-.1.1v-.1zm31.52 0v.107a.27.27 0 0 0-.114-.107h.114zm-32.059 11.29a.27.27 0 1 0 .539 0V49.86c.05.056.121.091.201.091h31.086c.1 0 .186-.054.233-.134v10.913a.27.27 0 0 0 .539 0V48.903H15.746V60.73zM42.92 50.664a3.398 3.398 0 0 0-3.394 3.394v3.125a.27.27 0 0 0 .539 0v-3.125a2.859 2.859 0 0 1 2.855-2.855 2.859 2.859 0 0 1 2.855 2.855v3.125a.27.27 0 0 0 .54 0v-3.125a3.398 3.398 0 0 0-3.395-3.394zm2.072 6.25h-1.34v-2.212a.67.67 0 0 1 1.34 0v2.212zm-.67-3.42a1.21 1.21 0 0 0-1.208 1.208v2.75h2.417v-2.75a1.21 1.21 0 0 0-1.209-1.208zm-29.173-4.591H1v1.291a.27.27 0 0 0 .502.136v1.269a.27.27 0 0 0 .538 0v-.76h12.606a.27.27 0 0 0 0-.54H1.517a.268.268 0 0 0 .022-.105v-.753H5.03v.354a.27.27 0 0 0 .539 0v-.354h5.619v.354a.27.27 0 1 0 .538 0v-.354h3.422a.27.27 0 1 0 0-.538zm-4.36-1.542a.27.27 0 0 0 .27-.269v-3.13h1.739v3.13a.27.27 0 0 0 .539 0v-3.669h-2.817v3.67c0 .148.12.268.27.268zm43.785 0a.27.27 0 0 0 .269-.269v-3.13h1.74v3.13a.27.27 0 0 0 .538 0v-3.669h-2.817v3.67c0 .148.12.268.27.268zm-44.056.735h3.61V41.33h-3.61v6.767zm-3.74 0H9.98V41.33H6.778v6.767zm-4.149 0H6.24V41.33h-3.61v6.767zm3.611-7.305h-4.15v7.844H14.668v-7.844H6.239zm1 6.57a.27.27 0 0 0 .27-.269v-3.13h1.739v3.13a.27.27 0 0 0 .539 0v-3.669H6.97v3.67c0 .148.12.268.269.268zm-5.97-7.653c.1 0 .186-.054.233-.133v1.269a.27.27 0 1 0 .538 0v-.76h12.606a.27.27 0 0 0 0-.54H1.517a.268.268 0 0 0 .022-.105v-.753H5.03v.354a.27.27 0 0 0 .539 0v-.354h5.619v.354a.27.27 0 1 0 .538 0v-.354h3.422a.27.27 0 0 0 0-.539H1v1.292c0 .148.12.27.27.27zm20.426 17.206h-1.339v-2.212a.67.67 0 0 1 1.34 0v2.212zm-.67-3.42a1.21 1.21 0 0 0-1.208 1.208v2.75h2.417v-2.75a1.21 1.21 0 0 0-1.208-1.208zM3.69 47.361a.27.27 0 0 0 .27-.269v-3.13h1.739v3.13a.27.27 0 0 0 .539 0v-3.669H3.42v3.67c0 .148.12.268.269.268zm7.093-10.144h3.61V30.45h-3.61v6.767zm-3.74 0h3.201V30.45h-3.2v6.767zm-4.15 0h3.611V30.45h-3.61v6.767zm3.611-7.305H2.355v7.844H14.933v-7.844H6.503zm.274 28.94h3.2v-6.767h-3.2v6.767zm-.539-7.306h-4.15v7.575a.27.27 0 1 0 .54 0v-7.036h3.61v7.305h4.278v-7.305h3.61v7.036a.27.27 0 1 0 .54 0v-7.575H6.239zm17.445-12.004a.27.27 0 0 0-.27-.27h-8.232v1.525a.27.27 0 0 0 .539 0v-.985h7.694a.27.27 0 0 0 .27-.27zm27.34 7.82a.27.27 0 0 0 .269-.27v-3.13h1.74v3.13a.27.27 0 1 0 .538 0v-3.669h-2.817v3.67c0 .148.12.268.27.268zM3.42 57.846a.27.27 0 0 0 .538 0v-3.13H5.7v3.13a.27.27 0 0 0 .539 0V54.18H3.42v3.668zm7.098 0a.27.27 0 0 0 .538 0v-3.13h1.74v3.13a.27.27 0 0 0 .539 0V54.18h-2.817v3.668zm-3.28.27a.27.27 0 0 0 .27-.27v-3.13h1.739v3.13a.27.27 0 0 0 .539 0V54.18H6.97v3.668c0 .15.12.27.269.27zm47.334 0a.27.27 0 0 0 .269-.27v-3.13h1.74v3.13a.27.27 0 0 0 .538 0V54.18h-2.817v3.668c0 .15.12.27.27.27zm-32.26-35.534h-2.258v-.067c.29-.269.703-.421 1.15-.421.422 0 .82.138 1.107.382v.106zm.458-.415c-.391-.389-.962-.612-1.567-.612-.633 0-1.222.242-1.616.665l-.072.077v.824h3.335v-.875l-.08-.079zm-7.794 7.867a.27.27 0 1 0 .539 0v-.986h7.694a.27.27 0 1 0 0-.538h-8.233v1.524zm4.539-2.163a.27.27 0 1 0 .539 0v-4.177h2.257v4.177a.27.27 0 1 0 .54 0v-4.716h-3.336v4.716zm34.595-1.534h3.201v-6.767h-3.2v6.767zm-4.15 0h3.611v-6.767h-3.61v6.767zm7.89 0h3.61v-6.767h-3.61v6.767zm4.15.539v-7.845H49.422v7.845H62.001zm-37.988 2.87a.27.27 0 0 0-.27-.27h-7.595a.27.27 0 0 0 0 .538h7.595a.27.27 0 0 0 .27-.269zm-1.886 3.816h-2.258v-.067c.29-.269.703-.421 1.15-.421.422 0 .82.138 1.108.382v.106zm.538-.336-.08-.079c-.391-.389-.962-.612-1.566-.612-.634 0-1.223.242-1.617.665l-.072.077v.824h3.335v-.875zm-6.517 5.884a.27.27 0 0 0 .27-.27V32.7a.27.27 0 1 0-.54 0v6.142c0 .148.121.269.27.269zm6.248.01a.27.27 0 0 0 .27-.27v-4.715H19.33v4.716a.27.27 0 0 0 .539 0v-4.177h2.258v4.177c0 .149.12.27.269.27zm4.191-12.85a.27.27 0 0 0 .27-.27v-4.413h1.954V26a.27.27 0 1 0 .539 0V21.05h-3.032V26c0 .15.12.27.27.27zm27.986-.668a.27.27 0 0 0 .269-.27v-3.13h1.74v3.13a.27.27 0 0 0 .538 0v-3.668h-2.817v3.669c0 .149.12.27.27.27zm-24.355.632a.27.27 0 0 0 .27-.27v-4.931h3.114v4.931a.27.27 0 0 0 .539 0v-5.47h-4.192v5.47c0 .15.12.27.27.27zm4.802.036a.27.27 0 0 0 .27-.27v-4.413h1.954V26a.27.27 0 1 0 .539 0V21.05H34.75V26c0 .15.12.27.27.27zm-18.603 4.276a.27.27 0 1 0-.539 0v1.183a.27.27 0 0 0 .54 0v-1.183zm7.58-1.864a.27.27 0 1 0 .539 0v-.752h3.87v.354a.27.27 0 1 0 .54 0v-.354h6.198v.354a.27.27 0 0 0 .54 0v-.354h3.87v.752a.27.27 0 1 0 .539 0v-1.291H23.997v1.291zm15.278 12.43a.27.27 0 0 0 .27-.27v-1.298h-15v1.299a.27.27 0 1 0 .54 0v-.76h13.92v.76c0 .148.121.269.27.269zm8.936-10.566a.27.27 0 1 0-.538 0v1.183a.27.27 0 0 0 .538 0v-1.183zm-.269 1.883a.27.27 0 0 0-.27.27v6.142a.27.27 0 0 0 .54 0V32.7a.27.27 0 0 0-.27-.27zm0-2.953h-7.596a.27.27 0 0 0 0 .538h7.596a.27.27 0 1 0 0-.538zm6.472-13.246a.27.27 0 0 0 .27-.27v-2.517c0-.634.46-1.15 1.028-1.15.566 0 1.028.516 1.028 1.15v2.517a.27.27 0 0 0 .538 0v-2.517c0-.931-.703-1.689-1.566-1.689-.864 0-1.567.758-1.567 1.69v2.516c0 .15.12.27.27.27zm-5.57 14.074a.27.27 0 0 0 .269-.27v-1.524H40.88a.27.27 0 0 0 0 .538h7.694v.986c0 .149.12.27.27.27zm-8.15-12.236h7.694v.986a.27.27 0 1 0 .54 0v-1.524h-8.234a.27.27 0 0 0 0 .538zm8.248-1.68a.27.27 0 1 0 0 .539h13.609v.752c0 .038.008.074.022.106h-13.13a.27.27 0 0 0 0 .539H62.05v.76a.27.27 0 0 0 .54 0v-1.268a.269.269 0 0 0 .5-.137v-1.29H48.943zM34.751 47.636a.27.27 0 1 0 .539 0v-4.414h1.954v4.414a.27.27 0 1 0 .539 0v-4.953H34.75v4.953zm-9.023.46h12.634V41.33H25.728v6.767zm-.539.539h13.712v-7.844H25.189v7.844zm4.76-1.035a.27.27 0 0 0 .539 0v-4.932h3.114V47.6a.27.27 0 0 0 .539 0v-5.47h-4.192v5.47zm-4.221-21.138h12.634v-6.767H25.728v6.767zm-.539.539h13.712v-7.845H25.189v7.845zm19.032 6.562h-2.258v-.106a1.716 1.716 0 0 1 1.108-.382c.446 0 .86.152 1.15.421v.067zm.539-.285-.073-.077c-.393-.423-.982-.665-1.616-.665-.604 0-1.175.223-1.567.612l-.08.079v.875h3.336v-.824zm-.27 5.843a.27.27 0 0 0 .27-.27v-4.715h-3.335v4.716a.27.27 0 0 0 .538 0v-4.177h2.258v4.177c0 .149.12.27.27.27zm-18.172 8.515a.27.27 0 1 0 .539 0v-4.414h1.954v4.414a.27.27 0 1 0 .539 0v-4.953h-3.032v4.953zm19.72.393a.27.27 0 0 0 .27-.27v-3.124a3.398 3.398 0 0 0-3.394-3.394 3.398 3.398 0 0 0-3.395 3.394v3.125a.27.27 0 0 0 .54 0v-3.125a2.859 2.859 0 0 1 2.855-2.856 2.859 2.859 0 0 1 2.855 2.856v3.125c0 .148.12.269.27.269zM26.318 36.88a.27.27 0 1 0 .539 0v-4.413h1.954v4.413a.27.27 0 0 0 .539 0v-4.952h-3.032v4.952zm12.957-6.522a.27.27 0 0 0 .27-.27V28.79h-15v1.3a.27.27 0 0 0 .54 0v-.761h13.92v.76c0 .15.121.27.27.27zm-18.831 14.92v2.212h-1.34V45.28a.67.67 0 0 1 1.34 0zm-1.879 0v2.75h2.417v-2.75a1.21 1.21 0 0 0-1.208-1.207 1.21 1.21 0 0 0-1.209 1.208zm39.287-19.944a.27.27 0 1 0 .539 0v-3.13h1.74v3.13a.27.27 0 0 0 .538 0v-3.669h-2.817v3.669zM16.083 40.508c0 .15.121.27.27.27h7.595a.27.27 0 1 0 0-.539h-7.595a.27.27 0 0 0-.27.27zm42.645-12.701a.27.27 0 0 0-.207.262v.373a.27.27 0 0 0 .12.223h-5.858a.27.27 0 0 0 .12-.223v-.373a.27.27 0 0 0-.208-.262h6.033zm3.823 0v.753c0 .037.008.073.022.105H58.94a.269.269 0 0 0 .12-.223v-.373a.27.27 0 0 0-.208-.262h3.699zm-13.878-.27c0 .15.12.27.27.27h3.628a.27.27 0 0 0-.207.262v.373a.27.27 0 0 0 .12.223h-3.04a.27.27 0 1 0 0 .54h12.605v.76a.27.27 0 0 0 .54 0v-1.27a.269.269 0 0 0 .5-.135v-1.292H48.943a.27.27 0 0 0-.27.27zm-22.945 9.804h12.634v-6.767H25.728v6.767zm-.539.539h13.712v-7.845H25.189v7.845zm-1.94 7.399v2.211h-1.34V45.28a.67.67 0 0 1 1.34 0zm-1.879 0v2.75h2.417v-2.75a1.21 1.21 0 0 0-1.208-1.208 1.21 1.21 0 0 0-1.209 1.208zm8.58-8.435a.27.27 0 0 0 .538 0v-4.93h3.114v4.93a.27.27 0 0 0 .539 0v-5.47h-4.192v5.47zm4.8.036a.27.27 0 0 0 .54 0v-4.413h1.954v4.413a.27.27 0 1 0 .539 0v-4.952H34.75v4.952zm9.285-14.297h-2.258v-.106a1.716 1.716 0 0 1 1.108-.382c.447 0 .86.152 1.15.421v.067zm.539-.285-.072-.077c-.394-.423-.983-.665-1.617-.665-.604 0-1.175.223-1.567.612l-.08.08v.874h3.336v-.824zm-28.49 20.194a.27.27 0 1 0 .538 0V41.31a.27.27 0 1 0-.539 0v1.182zm31.653-2.253h-7.595a.27.27 0 1 0 0 .539h7.595a.27.27 0 1 0 0-.539zm-5.556 5.04v2.211h-1.34V45.28a.67.67 0 0 1 1.34 0zm-1.878 0v2.75h2.417v-2.75a1.21 1.21 0 0 0-1.209-1.208 1.21 1.21 0 0 0-1.208 1.208zm.936-17.407a.27.27 0 0 0 .538 0v-4.177h2.258v4.177a.27.27 0 1 0 .539 0v-4.716h-3.335v4.716zm3.747 17.407v2.211h-1.34V45.28a.67.67 0 0 1 1.34 0zm-1.878 0v2.75h2.416v-2.75a1.21 1.21 0 0 0-1.208-1.208 1.21 1.21 0 0 0-1.208 1.208zm7.915-19.676a.27.27 0 0 0 .27-.27v-3.13h1.74v3.13a.27.27 0 1 0 .538 0v-3.668h-2.817v3.669c0 .149.12.27.27.27zM48.006 41.31a.27.27 0 1 0-.538 0v1.182a.27.27 0 1 0 .538 0V41.31zm-7.913-1.871v-1.292H23.997v1.292a.27.27 0 0 0 .539 0v-.753h3.87v.354a.27.27 0 1 0 .54 0v-.354h6.198v.354a.27.27 0 0 0 .54 0v-.354h3.87v.753a.27.27 0 0 0 .539 0zm-.57 9.196h8.483v-5.173a.27.27 0 0 0-.538 0v4.634h-7.946a.27.27 0 0 0 0 .539zm-23.44 0h8.484a.27.27 0 1 0 0-.539h-7.945v-4.634a.27.27 0 1 0-.539 0v5.173zm8.218-.606a.27.27 0 0 0 .27-.27v-3.124a3.398 3.398 0 0 0-3.395-3.394 3.398 3.398 0 0 0-3.394 3.394v3.125a.27.27 0 1 0 .539 0v-3.125a2.859 2.859 0 0 1 2.855-2.856 2.859 2.859 0 0 1 2.856 2.856v3.125c0 .148.12.269.269.269z" fill="#8898A5"/>
        <path d="M10.788 25.603a.27.27 0 0 0 .27-.27v-3.13h1.739v3.13a.27.27 0 0 0 .539 0v-3.668h-2.817v3.669c0 .149.12.27.27.27zm39.97 10.88a.27.27 0 0 0 .27-.27v-3.13h1.739v3.13a.27.27 0 0 0 .539 0v-3.669h-2.817v3.669c0 .149.12.27.269.27zm-40.24-10.145h3.61v-6.767h-3.61v6.767zm-3.74 0h3.2v-6.767h-3.2v6.767zm-4.15 0H6.24v-6.767h-3.61v6.767zm3.611-7.306h-4.15v7.845H14.668v-7.845H6.239zM3.69 25.603a.27.27 0 0 0 .27-.27v-3.13h1.739v3.13a.27.27 0 0 0 .539 0v-3.668H3.42v3.669c0 .149.12.27.269.27zm50.617 10.88a.27.27 0 0 0 .27-.27v-3.13h1.739v3.13a.27.27 0 1 0 .539 0v-3.669h-2.817v3.669c0 .149.12.27.27.27zm-.196 11.613h3.201V41.33h-3.2v6.767zm-4.15 0h3.611V41.33h-3.61v6.767zm7.89 0h3.61V41.33h-3.61v6.767zm4.15.539v-7.844H49.422v7.844H62.001zM48.672 38.417c0 .148.12.27.27.27h3.42v.353a.27.27 0 0 0 .54 0v-.354h5.618v.354a.27.27 0 0 0 .539 0v-.354h3.491v.753c0 .037.008.073.022.106h-13.13a.27.27 0 0 0 0 .538H62.05v.76a.27.27 0 1 0 .54 0v-1.268a.269.269 0 0 0 .5-.136v-1.292H48.943a.27.27 0 0 0-.27.27zM1.269 17.95c.1 0 .186-.054.233-.133v1.268a.27.27 0 0 0 .538 0v-.76h12.606a.27.27 0 0 0 0-.539H1.517a.268.268 0 0 0 .022-.106v-.752h13.609a.27.27 0 0 0 0-.539H1v1.291c0 .15.12.27.27.27zm9.785 18.532a.27.27 0 0 0 .269-.269v-3.13h1.74v3.13a.27.27 0 1 0 .538 0v-3.669h-2.817v3.669c0 .149.12.27.27.27zm46.533-.269a.27.27 0 1 0 .539 0v-3.13h1.74v3.13a.27.27 0 0 0 .538 0v-3.669h-2.817v3.669zm-53.632.27a.27.27 0 0 0 .27-.27v-3.13h1.74v3.13a.27.27 0 0 0 .538 0v-3.669H3.686v3.669c0 .149.12.27.27.27zm3.55 0a.27.27 0 0 0 .269-.27v-3.13h1.74v3.13a.27.27 0 0 0 .538 0v-3.669H7.235v3.669c0 .149.12.27.27.27zM1.538 28.56v-.753h3.699a.27.27 0 0 0-.208.262v.373a.27.27 0 0 0 .12.223H1.517a.268.268 0 0 0 .022-.105zm9.856-.753a.27.27 0 0 0-.207.262v.373a.27.27 0 0 0 .12.223H5.448a.27.27 0 0 0 .12-.223v-.373a.27.27 0 0 0-.208-.262h6.034zM1.269 28.829c.1 0 .186-.054.233-.133v1.269a.27.27 0 0 0 .538 0v-.76h12.606a.27.27 0 0 0 0-.54h-3.04a.27.27 0 0 0 .12-.223v-.373a.27.27 0 0 0-.207-.262h3.629a.27.27 0 0 0 0-.539H1v1.292c0 .148.12.269.27.269zm5.97-3.226a.27.27 0 0 0 .27-.27v-3.13h1.739v3.13a.27.27 0 0 0 .539 0v-3.668H6.97v3.669c0 .149.12.27.269.27zM24.266 7.195a.27.27 0 0 0 .27-.27v-.752h15.018v.752a.27.27 0 1 0 .539 0V5.634H23.997v1.291c0 .149.12.27.27.27zm15.009 1.404a.27.27 0 0 0 .27-.269V7.031h-15v1.3a.27.27 0 0 0 .54 0V7.57h13.92v.76c0 .149.121.27.27.27zm.616 10.167c0 .149.12.27.27.27h7.326v8.826a.27.27 0 1 0 .539 0v-9.365H40.16a.27.27 0 0 0-.27.27zm-13.573-3.644a.27.27 0 1 0 .539 0v-4.414h1.954v4.414a.27.27 0 0 0 .539 0V10.17h-3.032v4.952zm7.98-9.599a.27.27 0 0 0 .269-.27V3.369a.795.795 0 0 1 1.588 0v1.886a.27.27 0 0 0 .539 0V3.368c0-.735-.598-1.333-1.333-1.333s-1.333.598-1.333 1.333v1.886c0 .149.12.27.27.27zm-3.673-.048a.27.27 0 0 0 .27-.269V2.689c0-.634.516-1.15 1.15-1.15.634 0 1.15.516 1.15 1.15v2.517a.27.27 0 1 0 .539 0V2.689A1.69 1.69 0 0 0 32.044 1a1.69 1.69 0 0 0-1.688 1.689v2.517c0 .149.12.27.27.27zm-2.96.048a.27.27 0 0 0 .27-.27V3.369a.795.795 0 0 1 1.588 0v1.886a.27.27 0 0 0 .539 0V3.368c0-.735-.598-1.333-1.333-1.333s-1.333.598-1.333 1.333v1.886c0 .149.12.27.27.27zm-11.6 22.339a.27.27 0 1 0 .538 0v-8.826h7.326a.27.27 0 0 0 0-.54h-7.865v9.366zm-.902-8.807a.27.27 0 1 0 .538 0v-.986h7.695a.27.27 0 0 0 0-.538h-8.233v1.524zm20.189-2.003a.27.27 0 0 0-.208.262v.372a.27.27 0 0 0 .12.224h-6.438a.27.27 0 0 0 .12-.224v-.372a.27.27 0 0 0-.208-.262h6.614zm-11.086 1.022a.27.27 0 0 0 .27-.27v-.752h4.078a.27.27 0 0 0-.207.262v.372a.27.27 0 0 0 .12.224h-3.981v1.3a.27.27 0 0 0 .538 0v-.761h13.921v.76a.27.27 0 0 0 .54 0V17.91h-3.981a.27.27 0 0 0 .12-.224v-.372a.27.27 0 0 0-.208-.262h4.078v.752a.27.27 0 0 0 .539 0v-1.291H23.997v1.291c0 .15.12.27.27.27zm1.462-2.491h12.634V8.816H25.728v6.767zm-.539.538h13.712V8.277H25.189v7.844zm9.562-.999a.27.27 0 0 0 .539 0v-4.414h1.954v4.414a.27.27 0 1 0 .539 0V10.17H34.75v4.952zm19.095 22.095h3.2V30.45h-3.2v6.767zm-4.15 0h3.611V30.45h-3.61v6.767zm7.89 0h3.61V30.45h-3.61v6.767zm4.149.539v-7.844H49.157v7.844H61.736zm-31.786-22.67a.27.27 0 0 0 .539 0v-4.931h3.114v4.931a.27.27 0 0 0 .539 0v-5.47h-4.192v5.47zM7.081 16.231a.27.27 0 0 0 .27-.27v-2.517c0-.634.46-1.15 1.027-1.15s1.028.516 1.028 1.15v2.517a.27.27 0 0 0 .539 0v-2.517c0-.931-.703-1.689-1.567-1.689s-1.566.758-1.566 1.69v2.516c0 .15.12.27.269.27zm35.105 40.683h-1.34v-2.212a.67.67 0 0 1 1.34 0v2.212zm-.67-3.42a1.21 1.21 0 0 0-1.208 1.208v2.75h2.417v-2.75a1.21 1.21 0 0 0-1.208-1.208zm7.157-4.322c0 .149.12.27.27.27h3.42v.353a.27.27 0 0 0 .54 0v-.354h5.618v.354a.27.27 0 0 0 .539 0v-.354h3.491v.753c0 .038.008.073.022.106h-13.13a.27.27 0 1 0 0 .539H62.05v.76a.27.27 0 0 0 .54 0V50.33a.269.269 0 0 0 .5-.136v-1.291H48.943a.27.27 0 0 0-.27.269zm5.438 9.68h3.201v-6.767h-3.2v6.767zm-.539-7.306h-4.149v7.575a.27.27 0 1 0 .539 0v-7.036h3.61v7.305h4.279v-7.305h3.61v7.036a.27.27 0 1 0 .54 0v-7.575h-8.429zM24.5 56.914h-1.34v-2.212a.67.67 0 0 1 1.34 0v2.212zm-.67-3.42a1.21 1.21 0 0 0-1.208 1.208v2.75h2.417v-2.75a1.21 1.21 0 0 0-1.209-1.208zm-1.402-2.83a3.398 3.398 0 0 0-3.394 3.394v3.125a.27.27 0 0 0 .539 0v-3.125a2.859 2.859 0 0 1 2.855-2.855 2.859 2.859 0 0 1 2.855 2.855v3.125a.27.27 0 0 0 .54 0v-3.125a3.398 3.398 0 0 0-3.395-3.394zm10.246-.374c-2.13 0-3.863 1.623-3.863 3.617v6.228a.27.27 0 0 0 .539 0v-6.228c0-1.697 1.49-3.078 3.324-3.078 1.832 0 3.323 1.38 3.323 3.078v6.228a.27.27 0 0 0 .54 0v-6.228c0-1.994-1.734-3.617-3.863-3.617zm16.234-9.493v-1.524h-8.233a.27.27 0 1 0 0 .539h7.694v.985a.27.27 0 0 0 .539 0zm1.846 17.05a.27.27 0 0 0 .539 0v-3.13h1.74v3.13a.27.27 0 1 0 .538 0V54.18h-2.817v3.668zm7.098-10.755a.27.27 0 1 0 .539 0v-3.13h1.74v3.13a.27.27 0 0 0 .538 0v-3.669h-2.817v3.67zm0 10.755a.27.27 0 1 0 .539 0v-3.13h1.74v3.13a.27.27 0 0 0 .538 0V54.18h-2.817v3.668zm-41.567-8.406h.1a.352.352 0 0 0-.1.1v-.1zm31.52 0v.107a.27.27 0 0 0-.114-.107h.114zm-32.059 11.29a.27.27 0 1 0 .539 0V49.86c.05.056.121.091.201.091h31.086c.1 0 .186-.054.233-.134v10.913a.27.27 0 0 0 .539 0V48.903H15.746V60.73zM42.92 50.664a3.398 3.398 0 0 0-3.394 3.394v3.125a.27.27 0 0 0 .539 0v-3.125a2.859 2.859 0 0 1 2.855-2.855 2.859 2.859 0 0 1 2.855 2.855v3.125a.27.27 0 0 0 .54 0v-3.125a3.398 3.398 0 0 0-3.395-3.394zm2.072 6.25h-1.34v-2.212a.67.67 0 0 1 1.34 0v2.212zm-.67-3.42a1.21 1.21 0 0 0-1.208 1.208v2.75h2.417v-2.75a1.21 1.21 0 0 0-1.209-1.208zm-29.173-4.591H1v1.291a.27.27 0 0 0 .502.136v1.269a.27.27 0 0 0 .538 0v-.76h12.606a.27.27 0 0 0 0-.54H1.517a.268.268 0 0 0 .022-.105v-.753H5.03v.354a.27.27 0 0 0 .539 0v-.354h5.619v.354a.27.27 0 1 0 .538 0v-.354h3.422a.27.27 0 1 0 0-.538zm-4.36-1.542a.27.27 0 0 0 .27-.269v-3.13h1.739v3.13a.27.27 0 0 0 .539 0v-3.669h-2.817v3.67c0 .148.12.268.27.268zm43.785 0a.27.27 0 0 0 .269-.269v-3.13h1.74v3.13a.27.27 0 0 0 .538 0v-3.669h-2.817v3.67c0 .148.12.268.27.268zm-44.056.735h3.61V41.33h-3.61v6.767zm-3.74 0H9.98V41.33H6.778v6.767zm-4.149 0H6.24V41.33h-3.61v6.767zm3.611-7.305h-4.15v7.844H14.668v-7.844H6.239zm1 6.57a.27.27 0 0 0 .27-.269v-3.13h1.739v3.13a.27.27 0 0 0 .539 0v-3.669H6.97v3.67c0 .148.12.268.269.268zm-5.97-7.653c.1 0 .186-.054.233-.133v1.269a.27.27 0 1 0 .538 0v-.76h12.606a.27.27 0 0 0 0-.54H1.517a.268.268 0 0 0 .022-.105v-.753H5.03v.354a.27.27 0 0 0 .539 0v-.354h5.619v.354a.27.27 0 1 0 .538 0v-.354h3.422a.27.27 0 0 0 0-.539H1v1.292c0 .148.12.27.27.27zm20.426 17.206h-1.339v-2.212a.67.67 0 0 1 1.34 0v2.212zm-.67-3.42a1.21 1.21 0 0 0-1.208 1.208v2.75h2.417v-2.75a1.21 1.21 0 0 0-1.208-1.208zM3.69 47.361a.27.27 0 0 0 .27-.269v-3.13h1.739v3.13a.27.27 0 0 0 .539 0v-3.669H3.42v3.67c0 .148.12.268.269.268zm7.093-10.144h3.61V30.45h-3.61v6.767zm-3.74 0h3.201V30.45h-3.2v6.767zm-4.15 0h3.611V30.45h-3.61v6.767zm3.611-7.305H2.355v7.844H14.933v-7.844H6.503zm.274 28.94h3.2v-6.767h-3.2v6.767zm-.539-7.306h-4.15v7.575a.27.27 0 1 0 .54 0v-7.036h3.61v7.305h4.278v-7.305h3.61v7.036a.27.27 0 1 0 .54 0v-7.575H6.239zm17.445-12.004a.27.27 0 0 0-.27-.27h-8.232v1.525a.27.27 0 0 0 .539 0v-.985h7.694a.27.27 0 0 0 .27-.27zm27.34 7.82a.27.27 0 0 0 .269-.27v-3.13h1.74v3.13a.27.27 0 1 0 .538 0v-3.669h-2.817v3.67c0 .148.12.268.27.268zM3.42 57.846a.27.27 0 0 0 .538 0v-3.13H5.7v3.13a.27.27 0 0 0 .539 0V54.18H3.42v3.668zm7.098 0a.27.27 0 0 0 .538 0v-3.13h1.74v3.13a.27.27 0 0 0 .539 0V54.18h-2.817v3.668zm-3.28.27a.27.27 0 0 0 .27-.27v-3.13h1.739v3.13a.27.27 0 0 0 .539 0V54.18H6.97v3.668c0 .15.12.27.269.27zm47.334 0a.27.27 0 0 0 .269-.27v-3.13h1.74v3.13a.27.27 0 0 0 .538 0V54.18h-2.817v3.668c0 .15.12.27.27.27zm-32.26-35.534h-2.258v-.067c.29-.269.703-.421 1.15-.421.422 0 .82.138 1.107.382v.106zm.458-.415c-.391-.389-.962-.612-1.567-.612-.633 0-1.222.242-1.616.665l-.072.077v.824h3.335v-.875l-.08-.079zm-7.794 7.867a.27.27 0 1 0 .539 0v-.986h7.694a.27.27 0 1 0 0-.538h-8.233v1.524zm4.539-2.163a.27.27 0 1 0 .539 0v-4.177h2.257v4.177a.27.27 0 1 0 .54 0v-4.716h-3.336v4.716zm34.595-1.534h3.201v-6.767h-3.2v6.767zm-4.15 0h3.611v-6.767h-3.61v6.767zm7.89 0h3.61v-6.767h-3.61v6.767zm4.15.539v-7.845H49.422v7.845H62.001zm-37.988 2.87a.27.27 0 0 0-.27-.27h-7.595a.27.27 0 0 0 0 .538h7.595a.27.27 0 0 0 .27-.269zm-1.886 3.816h-2.258v-.067c.29-.269.703-.421 1.15-.421.422 0 .82.138 1.108.382v.106zm.538-.336-.08-.079c-.391-.389-.962-.612-1.566-.612-.634 0-1.223.242-1.617.665l-.072.077v.824h3.335v-.875zm-6.517 5.884a.27.27 0 0 0 .27-.27V32.7a.27.27 0 1 0-.54 0v6.142c0 .148.121.269.27.269zm6.248.01a.27.27 0 0 0 .27-.27v-4.715H19.33v4.716a.27.27 0 0 0 .539 0v-4.177h2.258v4.177c0 .149.12.27.269.27zm4.191-12.85a.27.27 0 0 0 .27-.27v-4.413h1.954V26a.27.27 0 1 0 .539 0V21.05h-3.032V26c0 .15.12.27.27.27zm27.986-.668a.27.27 0 0 0 .269-.27v-3.13h1.74v3.13a.27.27 0 0 0 .538 0v-3.668h-2.817v3.669c0 .149.12.27.27.27zm-24.355.632a.27.27 0 0 0 .27-.27v-4.931h3.114v4.931a.27.27 0 0 0 .539 0v-5.47h-4.192v5.47c0 .15.12.27.27.27zm4.802.036a.27.27 0 0 0 .27-.27v-4.413h1.954V26a.27.27 0 1 0 .539 0V21.05H34.75V26c0 .15.12.27.27.27zm-18.603 4.276a.27.27 0 1 0-.539 0v1.183a.27.27 0 0 0 .54 0v-1.183zm7.58-1.864a.27.27 0 1 0 .539 0v-.752h3.87v.354a.27.27 0 1 0 .54 0v-.354h6.198v.354a.27.27 0 0 0 .54 0v-.354h3.87v.752a.27.27 0 1 0 .539 0v-1.291H23.997v1.291zm15.278 12.43a.27.27 0 0 0 .27-.27v-1.298h-15v1.299a.27.27 0 1 0 .54 0v-.76h13.92v.76c0 .148.121.269.27.269zm8.936-10.566a.27.27 0 1 0-.538 0v1.183a.27.27 0 0 0 .538 0v-1.183zm-.269 1.883a.27.27 0 0 0-.27.27v6.142a.27.27 0 0 0 .54 0V32.7a.27.27 0 0 0-.27-.27zm0-2.953h-7.596a.27.27 0 0 0 0 .538h7.596a.27.27 0 1 0 0-.538zm6.472-13.246a.27.27 0 0 0 .27-.27v-2.517c0-.634.46-1.15 1.028-1.15.566 0 1.028.516 1.028 1.15v2.517a.27.27 0 0 0 .538 0v-2.517c0-.931-.703-1.689-1.566-1.689-.864 0-1.567.758-1.567 1.69v2.516c0 .15.12.27.27.27zm-5.57 14.074a.27.27 0 0 0 .269-.27v-1.524H40.88a.27.27 0 0 0 0 .538h7.694v.986c0 .149.12.27.27.27zm-8.15-12.236h7.694v.986a.27.27 0 1 0 .54 0v-1.524h-8.234a.27.27 0 0 0 0 .538zm8.248-1.68a.27.27 0 1 0 0 .539h13.609v.752c0 .038.008.074.022.106h-13.13a.27.27 0 0 0 0 .539H62.05v.76a.27.27 0 0 0 .54 0v-1.268a.269.269 0 0 0 .5-.137v-1.29H48.943zM34.751 47.636a.27.27 0 1 0 .539 0v-4.414h1.954v4.414a.27.27 0 1 0 .539 0v-4.953H34.75v4.953zm-9.023.46h12.634V41.33H25.728v6.767zm-.539.539h13.712v-7.844H25.189v7.844zm4.76-1.035a.27.27 0 0 0 .539 0v-4.932h3.114V47.6a.27.27 0 0 0 .539 0v-5.47h-4.192v5.47zm-4.221-21.138h12.634v-6.767H25.728v6.767zm-.539.539h13.712v-7.845H25.189v7.845zm19.032 6.562h-2.258v-.106a1.716 1.716 0 0 1 1.108-.382c.446 0 .86.152 1.15.421v.067zm.539-.285-.073-.077c-.393-.423-.982-.665-1.616-.665-.604 0-1.175.223-1.567.612l-.08.079v.875h3.336v-.824zm-.27 5.843a.27.27 0 0 0 .27-.27v-4.715h-3.335v4.716a.27.27 0 0 0 .538 0v-4.177h2.258v4.177c0 .149.12.27.27.27zm-18.172 8.515a.27.27 0 1 0 .539 0v-4.414h1.954v4.414a.27.27 0 1 0 .539 0v-4.953h-3.032v4.953zm19.72.393a.27.27 0 0 0 .27-.27v-3.124a3.398 3.398 0 0 0-3.394-3.394 3.398 3.398 0 0 0-3.395 3.394v3.125a.27.27 0 0 0 .54 0v-3.125a2.859 2.859 0 0 1 2.855-2.856 2.859 2.859 0 0 1 2.855 2.856v3.125c0 .148.12.269.27.269zM26.318 36.88a.27.27 0 1 0 .539 0v-4.413h1.954v4.413a.27.27 0 0 0 .539 0v-4.952h-3.032v4.952zm12.957-6.522a.27.27 0 0 0 .27-.27V28.79h-15v1.3a.27.27 0 0 0 .54 0v-.761h13.92v.76c0 .15.121.27.27.27zm-18.831 14.92v2.212h-1.34V45.28a.67.67 0 0 1 1.34 0zm-1.879 0v2.75h2.417v-2.75a1.21 1.21 0 0 0-1.208-1.207 1.21 1.21 0 0 0-1.209 1.208zm39.287-19.944a.27.27 0 1 0 .539 0v-3.13h1.74v3.13a.27.27 0 0 0 .538 0v-3.669h-2.817v3.669zM16.083 40.508c0 .15.121.27.27.27h7.595a.27.27 0 1 0 0-.539h-7.595a.27.27 0 0 0-.27.27zm42.645-12.701a.27.27 0 0 0-.207.262v.373a.27.27 0 0 0 .12.223h-5.858a.27.27 0 0 0 .12-.223v-.373a.27.27 0 0 0-.208-.262h6.033zm3.823 0v.753c0 .037.008.073.022.105H58.94a.269.269 0 0 0 .12-.223v-.373a.27.27 0 0 0-.208-.262h3.699zm-13.878-.27c0 .15.12.27.27.27h3.628a.27.27 0 0 0-.207.262v.373a.27.27 0 0 0 .12.223h-3.04a.27.27 0 1 0 0 .54h12.605v.76a.27.27 0 0 0 .54 0v-1.27a.269.269 0 0 0 .5-.135v-1.292H48.943a.27.27 0 0 0-.27.27zm-22.945 9.804h12.634v-6.767H25.728v6.767zm-.539.539h13.712v-7.845H25.189v7.845zm-1.94 7.399v2.211h-1.34V45.28a.67.67 0 0 1 1.34 0zm-1.879 0v2.75h2.417v-2.75a1.21 1.21 0 0 0-1.208-1.208 1.21 1.21 0 0 0-1.209 1.208zm8.58-8.435a.27.27 0 0 0 .538 0v-4.93h3.114v4.93a.27.27 0 0 0 .539 0v-5.47h-4.192v5.47zm4.8.036a.27.27 0 0 0 .54 0v-4.413h1.954v4.413a.27.27 0 1 0 .539 0v-4.952H34.75v4.952zm9.285-14.297h-2.258v-.106a1.716 1.716 0 0 1 1.108-.382c.447 0 .86.152 1.15.421v.067zm.539-.285-.072-.077c-.394-.423-.983-.665-1.617-.665-.604 0-1.175.223-1.567.612l-.08.08v.874h3.336v-.824zm-28.49 20.194a.27.27 0 1 0 .538 0V41.31a.27.27 0 1 0-.539 0v1.182zm31.653-2.253h-7.595a.27.27 0 1 0 0 .539h7.595a.27.27 0 1 0 0-.539zm-5.556 5.04v2.211h-1.34V45.28a.67.67 0 0 1 1.34 0zm-1.878 0v2.75h2.417v-2.75a1.21 1.21 0 0 0-1.209-1.208 1.21 1.21 0 0 0-1.208 1.208zm.936-17.407a.27.27 0 0 0 .538 0v-4.177h2.258v4.177a.27.27 0 1 0 .539 0v-4.716h-3.335v4.716zm3.747 17.407v2.211h-1.34V45.28a.67.67 0 0 1 1.34 0zm-1.878 0v2.75h2.416v-2.75a1.21 1.21 0 0 0-1.208-1.208 1.21 1.21 0 0 0-1.208 1.208zm7.915-19.676a.27.27 0 0 0 .27-.27v-3.13h1.74v3.13a.27.27 0 1 0 .538 0v-3.668h-2.817v3.669c0 .149.12.27.27.27zM48.006 41.31a.27.27 0 1 0-.538 0v1.182a.27.27 0 1 0 .538 0V41.31zm-7.913-1.871v-1.292H23.997v1.292a.27.27 0 0 0 .539 0v-.753h3.87v.354a.27.27 0 1 0 .54 0v-.354h6.198v.354a.27.27 0 0 0 .54 0v-.354h3.87v.753a.27.27 0 0 0 .539 0zm-.57 9.196h8.483v-5.173a.27.27 0 0 0-.538 0v4.634h-7.946a.27.27 0 0 0 0 .539zm-23.44 0h8.484a.27.27 0 1 0 0-.539h-7.945v-4.634a.27.27 0 1 0-.539 0v5.173zm8.218-.606a.27.27 0 0 0 .27-.27v-3.124a3.398 3.398 0 0 0-3.395-3.394 3.398 3.398 0 0 0-3.394 3.394v3.125a.27.27 0 1 0 .539 0v-3.125a2.859 2.859 0 0 1 2.855-2.856 2.859 2.859 0 0 1 2.856 2.856v3.125c0 .148.12.269.269.269z" stroke="#8898A5" stroke-width=".4"/>
    </g>
</svg>
