<svg width="516" height="252" viewBox="0 0 516 252" xmlns="http://www.w3.org/2000/svg" xmlns:xlink="http://www.w3.org/1999/xlink">
    <defs>
        <path d="M0 0v47.984c42.93 0 42.93-15.085 85.859-15.085 42.93 0 42.93 15.085 85.859 15.085 42.929 0 42.929-15.085 85.858-15.085 42.93 0 42.93 15.085 85.859 15.085 42.93 0 42.93-15.085 85.859-15.085 42.929 0 42.929 15.085 85.858 15.085L515.227 0H0z" id="3e3f70sjha"/>
        <path d="M0 0c5.119 25.962 9.085 52.663 70.474 44.12 19.56-2.722 19.276 43.287 38.287 49.763 10.243 3.489 23.525-1.269 36.769-6.027 11.765-4.226 23.5-8.453 33.045-6.897 20.446 3.332 37.774 33.873 58.54 33.873 20.767 0 38.095-30.541 58.54-33.873 9.545-1.556 21.28 2.67 33.045 6.897 13.244 4.758 26.526 9.516 36.77 6.027 19.01-6.476 19.528-56.227 38.286-49.763C451.651 60.627 470.841 25.494 474.23 0H0z" id="kesp79lxed"/>
        <path d="M133.875 0c-23.22.031-21.557 44.47-47.147 33.277-25.796-11.282-30.006-14.425-43.754 4.09C32.654 51.262 7.588 36.086 0 56.576h205.14s-2.24-18.326-27.398-19.487C152.597 35.93 156.87.004 133.904 0h-.03" id="fp56nvvrsg"/>
        <path d="M113.65 0c-19.711.02-18.3 28.904-40.024 21.629-21.899-7.333-25.473-9.376-37.144 2.657C27.722 33.32 6.442 23.455 0 36.772h174.15s-1.902-11.91-23.26-12.665C129.544 23.353 133.172.003 113.676 0h-.025" id="q3pb1lxuzj"/>
        <path d="M27.398 37.09C2.24 38.251 0 56.577 0 56.577h205.14c-7.587-20.49-32.654-5.314-42.974-19.21-13.748-18.515-17.958-15.372-43.753-4.09C92.823 44.47 94.485.031 71.266 0h-.03C48.27.004 52.544 35.93 27.398 37.09" id="ozs7n1us2m"/>
        <path d="M23.259 24.107C1.9 24.862 0 36.773 0 36.773h174.15c-6.442-13.318-27.722-3.454-36.483-12.487-11.671-12.033-15.245-9.99-37.143-2.657C78.799 28.904 80.21.02 60.499 0h-.025C40.978.003 44.606 23.353 23.26 24.107" id="cd4ikb59pp"/>
        <path d="M31.41 21.743c-.95 2.334-3.462 3.602-5.913 3.018-11.196-2.666-10.91 15.95-10.103 25.2.197 2.264-1.88 4.038-4.096 3.525-16.932-3.915-11.55 15.752-4.93 31.417h36.506c3.656-5.464 2.917-10.16 1.437-13.349-1.148-2.473-.177-5.42 2.247-6.666 14.932-7.685 8.563-19.554 3.864-25.562-1.662-2.124-1.388-5.173.64-6.95 6.359-5.576 17.079-17.5 7.301-28.023C55.494 1.266 52.731 0 50.127 0c-8.7 0-15.621 14.132-18.718 21.743" id="vnt4mke3ds"/>
        <path d="M3.941 4.353c-9.777 10.523.943 22.447 7.302 28.023 2.028 1.777 2.3 4.826.64 6.95-4.7 6.008-11.069 17.877 3.863 25.562 2.424 1.247 3.395 4.193 2.247 6.666-1.48 3.189-2.219 7.885 1.437 13.35h36.507c6.62-15.666 12.001-35.333-4.931-31.418-2.215.513-4.293-1.26-4.095-3.526.806-9.248 1.092-27.865-10.103-25.199-2.452.584-4.963-.684-5.913-3.018C27.798 14.132 20.877 0 12.177 0 9.573 0 6.81 1.266 3.941 4.353" id="m3u93zgjbv"/>
        <path d="m40.812 7.238-26.149 5.519a10.135 10.135 0 0 0-7.797 7.681L1.473 44.249l-1.34 5.914a5.32 5.32 0 0 0 .054 2.571l9.146 33.477a2.8 2.8 0 0 0 3.4 1.972 8.736 8.736 0 0 0 2.474-1.09 9.345 9.345 0 0 0 1.635-1.313 6.716 6.716 0 0 0 7.734.372 6.69 6.69 0 0 0 2.006-1.976L44.017 57.7l15.007-21.709 12.272-8.67L53.871 0 40.812 7.238zM14.55 55.626l4.328-13.13 9.593-3.277.065 4.327a16.741 16.741 0 0 1-1.48 7.135l-9.37 20.757-3.136-15.812z" id="j8s1xcl6sy"/>
        <path d="M27.653 1.258a7.058 7.058 0 0 0-3.702 2.22L.513 30.176c-.79.9-.65 2.281.302 3.006a8.884 8.884 0 0 0 11.654-.772l3.059-3.044 4.193-16.4a7.074 7.074 0 0 1 2.296-3.656L33.384 0l-5.731 1.258z" id="e5ubj52q1B"/>
        <path d="M22.53 14.96h-.001L11.16 24.27a7.074 7.074 0 0 0-2.295 3.658L4.673 44.327.065 62.346a2.064 2.064 0 0 0 1.631 2.543 8.873 8.873 0 0 0 6.36-1.24 8.865 8.865 0 0 0 3.68-4.727l7.413-22.533 15.326-9.752h.001l5.395-23.81c.222-.979.583-1.903 1.062-2.75L40.795 0 22.53 14.96z" id="en2s99c2dE"/>
        <path d="M14.281 9.881a16.736 16.736 0 0 1-1.48 7.135L.647 43.944a6.718 6.718 0 0 0 1.67 7.948 6.716 6.716 0 0 0 10.01-1.381l17.436-26.475 15.008-21.71L14.134 0l.147 9.881z" id="71ch1t7x2H"/>
        <linearGradient x1="50%" y1="152.001%" x2="50%" y2="1.722%" id="fe00xkofle">
            <stop stop-color="#C4DDEF" offset="0%"/>
            <stop stop-color="#FFF" offset="100%"/>
        </linearGradient>
        <linearGradient x1="106.3%" y1="50%" x2="21.139%" y2="50%" id="b4crc4jx4h">
            <stop stop-color="#C4DDEF" offset="0%"/>
            <stop stop-color="#FFF" offset="100%"/>
        </linearGradient>
        <linearGradient x1="100%" y1="50%" x2="0%" y2="50%" id="zbv4pjfmik">
            <stop stop-color="#F9CF2B" offset="0%"/>
            <stop stop-color="#FFF" offset="100%"/>
        </linearGradient>
        <linearGradient x1="-6.3%" y1="50%" x2="78.861%" y2="50%" id="qo7at7xt7n">
            <stop stop-color="#C4DDEF" offset="0%"/>
            <stop stop-color="#FFF" offset="100%"/>
        </linearGradient>
        <linearGradient x1="0%" y1="50%" x2="100%" y2="50%" id="908o1ig0eq">
            <stop stop-color="#F9CF2B" offset="0%"/>
            <stop stop-color="#FFF" offset="100%"/>
        </linearGradient>
        <linearGradient x1="38.165%" y1="97.743%" x2="63.145%" y2="12.534%" id="499eez8mzt">
            <stop stop-color="#90ACC6" offset="0%"/>
            <stop stop-color="#C4DDEF" offset="100%"/>
        </linearGradient>
        <linearGradient x1="61.835%" y1="97.743%" x2="36.855%" y2="12.534%" id="bgu1i7senw">
            <stop stop-color="#90ACC6" offset="0%"/>
            <stop stop-color="#C4DDEF" offset="100%"/>
        </linearGradient>
        <linearGradient x1="54.273%" y1="64.4%" x2="34.397%" y2="17.81%" id="th56objijz">
            <stop stop-color="#FFD699" offset="0%"/>
            <stop stop-color="#FFF" offset="100%"/>
        </linearGradient>
        <linearGradient x1="58.28%" y1="44.801%" x2="-9.551%" y2="130.372%" id="r98jlfy8cC">
            <stop stop-color="#FFD699" offset="0%"/>
            <stop stop-color="#FFF" offset="100%"/>
        </linearGradient>
        <linearGradient x1="64.766%" y1="19.751%" x2="23.128%" y2="99.201%" id="enjm2l4bwF">
            <stop stop-color="#FFD699" offset="0%"/>
            <stop stop-color="#FFF" offset="100%"/>
        </linearGradient>
        <linearGradient x1="49.847%" y1="47.107%" x2="15.911%" y2="-29.715%" id="s71xxo5yeI">
            <stop stop-color="#FFD699" offset="0%"/>
            <stop stop-color="#FFF" offset="100%"/>
        </linearGradient>
        <radialGradient cx="50%" cy="-2.344%" fx="50%" fy="-2.344%" r="528.974%" gradientTransform="matrix(.09313 0 0 1 .453 0)" id="e8vmji6xsb">
            <stop stop-color="#C4DDEF" offset="0%"/>
            <stop stop-color="#FFF" offset="100%"/>
        </radialGradient>
    </defs>
    <g fill="none" fill-rule="evenodd" opacity=".2">
        <g transform="translate(0 203.723)">
            <mask id="ccqrxegt6c" fill="#fff">
                <use xlink:href="#3e3f70sjha"/>
            </mask>
            <path d="M0 0v47.984c42.93 0 42.93-15.085 85.859-15.085 42.93 0 42.93 15.085 85.859 15.085 42.929 0 42.929-15.085 85.858-15.085 42.93 0 42.93 15.085 85.859 15.085 42.93 0 42.93-15.085 85.859-15.085 42.929 0 42.929 15.085 85.858 15.085L515.227 0H0z" fill="url(#e8vmji6xsb)" mask="url(#ccqrxegt6c)"/>
        </g>
        <g transform="translate(20.498 19.534)">
            <mask id="iidrnm4eqf" fill="#fff">
                <use xlink:href="#kesp79lxed"/>
            </mask>
            <path d="M0 0c5.119 25.962 9.085 52.663 70.474 44.12 19.56-2.722 19.276 43.287 38.287 49.763 10.243 3.489 23.525-1.269 36.769-6.027 11.765-4.226 23.5-8.453 33.045-6.897 20.446 3.332 37.774 33.873 58.54 33.873 20.767 0 38.095-30.541 58.54-33.873 9.545-1.556 21.28 2.67 33.045 6.897 13.244 4.758 26.526 9.516 36.77 6.027 19.01-6.476 19.528-56.227 38.286-49.763C451.651 60.627 470.841 25.494 474.23 0H0z" fill="url(#fe00xkofle)" opacity=".4" mask="url(#iidrnm4eqf)"/>
        </g>
        <g transform="translate(296.591 147.236)">
            <mask id="padu1sfxyi" fill="#fff">
                <use xlink:href="#fp56nvvrsg"/>
            </mask>
            <path d="M133.875 0c-23.22.031-21.557 44.47-47.147 33.277-25.796-11.282-30.006-14.425-43.754 4.09C32.654 51.262 7.588 36.086 0 56.576h205.14s-2.24-18.326-27.398-19.487C152.597 35.93 156.87.004 133.904 0h-.03" fill="url(#b4crc4jx4h)" mask="url(#padu1sfxyi)"/>
        </g>
        <g transform="translate(289.257 167.04)">
            <mask id="anbvj4k9wl" fill="#fff">
                <use xlink:href="#q3pb1lxuzj"/>
            </mask>
            <path d="M113.65 0c-19.711.02-18.3 28.904-40.024 21.629-21.899-7.333-25.473-9.376-37.144 2.657C27.722 33.32 6.442 23.455 0 36.772h174.15s-1.902-11.91-23.26-12.665C129.544 23.353 133.172.003 113.676 0h-.025" fill="url(#zbv4pjfmik)" mask="url(#anbvj4k9wl)"/>
        </g>
        <g transform="translate(13.496 147.236)">
            <mask id="e5liz4geno" fill="#fff">
                <use xlink:href="#ozs7n1us2m"/>
            </mask>
            <path d="M27.398 37.09C2.24 38.251 0 56.577 0 56.577h205.14c-7.587-20.49-32.654-5.314-42.974-19.21-13.748-18.515-17.958-15.372-43.753-4.09C92.823 44.47 94.485.031 71.266 0h-.03C48.27.004 52.544 35.93 27.398 37.09" fill="url(#qo7at7xt7n)" mask="url(#e5liz4geno)"/>
        </g>
        <g transform="translate(51.821 167.04)">
            <mask id="1q2vrkgglr" fill="#fff">
                <use xlink:href="#cd4ikb59pp"/>
            </mask>
            <path d="M23.259 24.107C1.9 24.862 0 36.773 0 36.773h174.15c-6.442-13.318-27.722-3.454-36.483-12.487-11.671-12.033-15.245-9.99-37.143-2.657C78.799 28.904 80.21.02 60.499 0h-.025C40.978.003 44.606 23.353 23.26 24.107" fill="url(#908o1ig0eq)" mask="url(#1q2vrkgglr)"/>
        </g>
        <path d="M360.385 180.159s4.198-26.792-7.628-23.828c-1.86.467-3.787-.476-4.506-2.255-3.131-7.746-11.454-24.543-21.353-13.89-7.785 8.378.88 17.88 5.886 22.239 1.536 1.337 1.766 3.644.502 5.24-3.733 4.712-9.014 14.265 3.051 20.396 1.858.944 2.631 3.188 1.728 5.065-1.213 2.52-1.875 6.289 1.068 10.687h28.836c5.662-13.397 10.177-30.5-7.584-23.654" fill="#C5DDEF"/>
        <g transform="translate(354.884 118.91)">
            <mask id="jelful4pzu" fill="#fff">
                <use xlink:href="#vnt4mke3ds"/>
            </mask>
            <path d="M31.41 21.743c-.95 2.334-3.462 3.602-5.913 3.018-11.196-2.666-10.91 15.95-10.103 25.2.197 2.264-1.88 4.038-4.096 3.525-16.932-3.915-11.55 15.752-4.93 31.417h36.506c3.656-5.464 2.917-10.16 1.437-13.349-1.148-2.473-.177-5.42 2.247-6.666 14.932-7.685 8.563-19.554 3.864-25.562-1.662-2.124-1.388-5.173.64-6.95 6.359-5.576 17.079-17.5 7.301-28.023C55.494 1.266 52.731 0 50.127 0c-8.7 0-15.621 14.132-18.718 21.743" fill="url(#499eez8mzt)" mask="url(#jelful4pzu)"/>
        </g>
        <path d="M141.008 180.159s-4.199-26.792 7.627-23.828c1.861.467 3.787-.476 4.506-2.255 3.131-7.746 11.454-24.543 21.353-13.89 7.785 8.378-.88 17.88-5.886 22.239-1.536 1.337-1.766 3.644-.501 5.24 3.732 4.712 9.013 14.265-3.052 20.396a3.822 3.822 0 0 0-1.728 5.065c1.213 2.52 1.875 6.289-1.068 10.687h-28.836c-5.662-13.397-10.176-30.5 7.585-23.654" fill="#C5DDEF"/>
        <g transform="translate(95.708 118.91)">
            <mask id="ic293dlacx" fill="#fff">
                <use xlink:href="#m3u93zgjbv"/>
            </mask>
            <path d="M3.941 4.353c-9.777 10.523.943 22.447 7.302 28.023 2.028 1.777 2.3 4.826.64 6.95-4.7 6.008-11.069 17.877 3.863 25.562 2.424 1.247 3.395 4.193 2.247 6.666-1.48 3.189-2.219 7.885 1.437 13.35h36.507c6.62-15.666 12.001-35.333-4.931-31.418-2.215.513-4.293-1.26-4.095-3.526.806-9.248 1.092-27.865-10.103-25.199-2.452.584-4.963-.684-5.913-3.018C27.798 14.132 20.877 0 12.177 0 9.573 0 6.81 1.266 3.941 4.353" fill="url(#bgu1i7senw)" mask="url(#ic293dlacx)"/>
        </g>
        <path fill="#90ADC6" d="M426.23 165.17v-10.274h-5.803v4.47l-9.572-9.572-22.414 22.414h3.549v31.589h37.73v-31.589h3.549z"/>
        <path fill="#FAD02C" d="M398.854 180.47h8.263v-8.262h-8.263zM414.593 180.47h8.262v-8.262h-8.262z"/>
        <path stroke="#333652" stroke-width="2" stroke-linecap="round" stroke-linejoin="round" d="M427.706 165.17v-10.274h-5.804v4.47l-9.572-9.572-22.414 22.414h3.55v31.589h37.73v-31.589h3.548z"/>
        <path stroke="#333652" stroke-width="2" stroke-linecap="round" stroke-linejoin="round" d="M400.33 180.47h8.262v-8.262h-8.262zM416.068 180.47h8.263v-8.262h-8.263z"/>
        <path stroke="#7593AA" stroke-width="2" stroke-linecap="round" stroke-linejoin="round" d="m452.154 191.254 22.167-3.148M452.154 194.205l22.167-3.148M452.154 197.156l22.167-3.148"/>
        <path stroke="#90ADC6" stroke-width="2" stroke-linecap="round" stroke-linejoin="round" d="m482.852 184.32 7.003 11.309M480.107 185.403l7.003 11.308M477.36 186.485l7.004 11.308"/>
        <path stroke="#C5DDEF" stroke-width="2" stroke-linecap="round" stroke-linejoin="round" d="m489.192 187.223-1.526-13.214M492.137 187.412l-1.526-13.213M495.082 187.6l-1.526-13.212"/>
        <path d="M472.47 157.25s-17.007 9.215-29.253 31.048" stroke="#333652" stroke-width="2" stroke-linecap="round" stroke-linejoin="round"/>
        <path d="M476.509 150.057c-2.464 1.43-5.514 7.192-5.514 7.192s6.517.213 8.98-1.216c2.464-1.43 3.686-3.926 2.729-5.576-.958-1.65-3.731-1.83-6.195-.4" fill="#FAD02C"/>
        <path d="M477.984 150.057c-2.463 1.43-5.513 7.192-5.513 7.192s6.516.213 8.98-1.216c2.464-1.43 3.685-3.926 2.728-5.576-.957-1.65-3.73-1.83-6.195-.4z" stroke="#333652" stroke-width="2" stroke-linecap="round" stroke-linejoin="round"/>
        <path d="M459 151.892c-.525 2.8 1.854 8.87 1.854 8.87s4.412-4.8 4.936-7.6-.572-5.354-2.447-5.705c-1.875-.35-3.82 1.635-4.344 4.435" fill="#FAD02C"/>
        <path d="M460.475 151.892c-.524 2.8 1.854 8.87 1.854 8.87s4.412-4.8 4.936-7.6-.571-5.354-2.446-5.705c-1.876-.35-3.82 1.635-4.344 4.435z" stroke="#333652" stroke-width="2" stroke-linecap="round" stroke-linejoin="round"/>
        <path d="M474.239 163.36c-2.767-.678-8.96 1.363-8.96 1.363s4.55 4.67 7.318 5.347c2.767.677 5.377-.277 5.83-2.13.454-1.853-1.422-3.904-4.188-4.58" fill="#FAD02C"/>
        <path d="M475.714 163.36c-2.767-.678-8.96 1.363-8.96 1.363s4.551 4.67 7.318 5.347c2.767.677 5.378-.277 5.83-2.13.454-1.853-1.421-3.904-4.188-4.58z" stroke="#333652" stroke-width="2" stroke-linecap="round" stroke-linejoin="round"/>
        <path d="M445.051 164.174c1.015 2.661 6.212 6.598 6.212 6.598s1.258-6.397.244-9.06c-1.015-2.66-3.283-4.268-5.065-3.588-1.783.68-2.405 3.388-1.39 6.05" fill="#FAD02C"/>
        <path d="M446.527 164.174c1.014 2.661 6.212 6.598 6.212 6.598s1.258-6.397.243-9.06c-1.015-2.66-3.282-4.268-5.065-3.588-1.782.68-2.405 3.388-1.39 6.05z" stroke="#333652" stroke-width="2" stroke-linecap="round" stroke-linejoin="round"/>
        <path d="M467.143 173.903c-2.626-1.102-9.062-.057-9.062-.057s3.762 5.325 6.389 6.427c2.626 1.102 5.354.57 6.092-1.189.738-1.76-.792-4.079-3.419-5.181" fill="#FAD02C"/>
        <path d="M465.668 173.903c-2.627-1.102-9.063-.057-9.063-.057s3.763 5.325 6.389 6.427c2.626 1.102 5.354.57 6.092-1.189.739-1.76-.792-4.079-3.418-5.181z" stroke="#333652" stroke-width="2" stroke-linecap="round" stroke-linejoin="round"/>
        <path d="M448.603 170.772c-2.05 5.377-3.926 11.26-5.386 17.525M465.995 138.067s-5.794 7.603-11.893 20.058M468.45 129.805l-2.492 8.243M464.552 129.67l1.408 8.378M460.849 131.264l5.109 6.785M457.509 137.183l8.452.864M457.509 137.183l8.452.864M458.567 133.863l7.393 4.185M471.764 131.988l-5.754 6.09M474.08 135.427l-8.071 2.65M474.393 139.447l-8.384-1.367M470.706 145.156l-4.696-7.08M470.706 145.156l-4.696-7.08M473.153 142.676l-7.144-4.598" stroke="#7593AA" stroke-width="2" stroke-linecap="round" stroke-linejoin="round"/>
        <g transform="translate(239.51 36.675)">
            <mask id="tkxvrhe9sA" fill="#fff">
                <use xlink:href="#j8s1xcl6sy"/>
            </mask>
            <path d="m40.812 7.238-26.149 5.519a10.135 10.135 0 0 0-7.797 7.681L1.473 44.249l-1.34 5.914a5.32 5.32 0 0 0 .054 2.571l9.146 33.477a2.8 2.8 0 0 0 3.4 1.972 8.736 8.736 0 0 0 2.474-1.09 9.345 9.345 0 0 0 1.635-1.313 6.716 6.716 0 0 0 7.734.372 6.69 6.69 0 0 0 2.006-1.976L44.017 57.7l15.007-21.709 12.272-8.67L53.871 0 40.812 7.238zM14.55 55.626l4.328-13.13 9.593-3.277.065 4.327a16.741 16.741 0 0 1-1.48 7.135l-9.37 20.757-3.136-15.812z" fill="url(#th56objijz)" mask="url(#tkxvrhe9sA)"/>
        </g>
        <g transform="translate(195.65 69.248)">
            <mask id="q1nqfb7kvD" fill="#fff">
                <use xlink:href="#e5ubj52q1B"/>
            </mask>
            <path d="M27.653 1.258a7.058 7.058 0 0 0-3.702 2.22L.513 30.176c-.79.9-.65 2.281.302 3.006a8.884 8.884 0 0 0 11.654-.772l3.059-3.044 4.193-16.4a7.074 7.074 0 0 1 2.296-3.656L33.384 0l-5.731 1.258z" fill="url(#r98jlfy8cC)" mask="url(#q1nqfb7kvD)"/>
        </g>
        <g transform="translate(206.506 54.287)">
            <mask id="ywqttay5vG" fill="#fff">
                <use xlink:href="#en2s99c2dE"/>
            </mask>
            <path d="M22.53 14.96h-.001L11.16 24.27a7.074 7.074 0 0 0-2.295 3.658L4.673 44.327.065 62.346a2.064 2.064 0 0 0 1.631 2.543 8.873 8.873 0 0 0 6.36-1.24 8.865 8.865 0 0 0 3.68-4.727l7.413-22.533 15.326-9.752h.001l5.395-23.81c.222-.979.583-1.903 1.062-2.75L40.795 0 22.53 14.96z" fill="url(#enjm2l4bwF)" mask="url(#ywqttay5vG)"/>
        </g>
        <g>
            <path stroke="#333652" stroke-width="2" stroke-linecap="round" stroke-linejoin="round" d="m258.651 108.083-3.137-15.813 4.328-13.13 9.594-3.277"/>
            <path d="m294.837 36.644-13.058 7.238-26.15 5.519a10.141 10.141 0 0 0-7.797 7.681l-6.736 29.725a5.306 5.306 0 0 0 .057 2.572l9.144 33.475a2.8 2.8 0 0 0 3.4 1.973h0c1.576-.406 3.039-1.32 4.11-2.403" stroke="#333652" stroke-width="2" stroke-linecap="round" stroke-linejoin="round"/>
            <path d="m248.756 54.256-29.633 24.27a7.072 7.072 0 0 0-2.296 3.657l-8.8 34.42a2.066 2.066 0 0 0 1.63 2.543h0a8.89 8.89 0 0 0 10.04-5.968l7.413-22.533 15.327-9.752" stroke="#333652" stroke-width="2" stroke-linecap="round" stroke-linejoin="round"/>
            <path d="m230.491 69.216-5.732 1.258a7.072 7.072 0 0 0-3.703 2.22L197.62 99.393c-.79.9-.651 2.281.302 3.006h0a8.89 8.89 0 0 0 11.654-.773l3.06-3.044" stroke="#333652" stroke-width="2" stroke-linecap="round" stroke-linejoin="round"/>
            <path stroke="#FFF" stroke-width="2" stroke-linecap="round" stroke-linejoin="round" d="m60.691 187.491-22.167-3.148M60.691 190.442l-22.167-3.148M60.691 193.393l-22.167-3.148"/>
            <path stroke="#90ADC6" stroke-width="2" stroke-linecap="round" stroke-linejoin="round" d="m29.237 183.261-7.003 11.31M31.982 184.343l-7.003 11.31M34.728 185.425l-7.003 11.31"/>
            <path stroke="#C5DDEF" stroke-width="2" stroke-linecap="round" stroke-linejoin="round" d="m26.962 180.288-6.395-11.663M24.668 182.145l-6.395-11.663M22.375 184.002 15.98 172.34"/>
            <path d="M319.495 106.742a12.475 12.475 0 0 0-8.803 8.803 12.475 12.475 0 0 0-8.803-8.803 12.475 12.475 0 0 0 8.803-8.803 12.475 12.475 0 0 0 8.803 8.803M299.394 101.341a8.033 8.033 0 0 0-5.669 5.669 8.033 8.033 0 0 0-5.668-5.669 8.033 8.033 0 0 0 5.668-5.669 8.033 8.033 0 0 0 5.669 5.669" fill="#FFF"/>
            <path d="M320.97 106.742h0a12.475 12.475 0 0 0-8.803 8.803h0a12.475 12.475 0 0 0-8.803-8.803h0a12.475 12.475 0 0 0 8.803-8.803h0a12.475 12.475 0 0 0 8.803 8.803zM300.87 101.341h0a8.033 8.033 0 0 0-5.67 5.668h0a8.033 8.033 0 0 0-5.668-5.668 8.033 8.033 0 0 0 5.669-5.669h0a8.033 8.033 0 0 0 5.668 5.669z" stroke="#333652" stroke-width="2" stroke-linecap="round" stroke-linejoin="round"/>
            <path d="M178.746 46.38c6.214 0 11.252 5.037 11.252 11.252h-22.505c0-6.215 5.038-11.253 11.253-11.253" fill="#90ADC6"/>
            <path d="M162.581 40.333c9.554 0 17.299 7.745 17.299 17.299h-34.597c0-9.554 7.744-17.299 17.298-17.299" fill="#C5DDEF"/>
            <path d="M144.406 50.545a7.087 7.087 0 0 1 7.086 7.087H137.32a7.087 7.087 0 0 1 7.087-7.087" fill="#C5DDEF"/>
            <path d="M146.758 57.632h-7.964a7.087 7.087 0 0 1 9.32-6.726c2.624-6.213 8.774-10.573 15.943-10.573 5.415 0 10.248 2.489 13.42 6.384M191.474 57.632h-22.505" stroke="#333652" stroke-width="2" stroke-linecap="round" stroke-linejoin="round"/>
            <path d="M93.147 73.269c8.063 0 14.6 6.536 14.6 14.6h-29.2c0-8.064 6.537-14.6 14.6-14.6" fill="#90ADC6"/>
            <path d="M72.175 65.424c12.395 0 22.444 10.049 22.444 22.444H49.73c0-12.395 10.05-22.444 22.445-22.444" fill="#C5DDEF"/>
            <path d="M48.593 78.674a9.195 9.195 0 0 1 9.194 9.194h-18.39a9.195 9.195 0 0 1 9.196-9.194" fill="#C5DDEF"/>
            <path d="M51.206 87.868H40.873a9.195 9.195 0 0 1 12.093-8.726c3.404-8.06 11.384-13.718 20.684-13.718 7.026 0 13.296 3.23 17.412 8.283M109.222 87.868H80.024" stroke="#333652" stroke-width="2" stroke-linecap="round" stroke-linejoin="round"/>
            <path d="M456.803 73.269c8.063 0 14.6 6.536 14.6 14.6h-29.2c0-8.064 6.537-14.6 14.6-14.6" fill="#90ADC6"/>
            <path d="M435.83 65.424c12.396 0 22.445 10.049 22.445 22.444h-44.889c0-12.395 10.049-22.444 22.445-22.444" fill="#C5DDEF"/>
            <path d="M412.249 78.674a9.195 9.195 0 0 1 9.194 9.194h-18.39a9.195 9.195 0 0 1 9.196-9.194" fill="#C5DDEF"/>
            <path d="M414.862 87.868h-10.333a9.195 9.195 0 0 1 12.093-8.726c3.404-8.06 11.383-13.718 20.684-13.718 7.026 0 13.297 3.23 17.412 8.283M472.878 87.868H443.68M116.65 35.177c4.422 1.85 4.782 6.99 4.782 6.99s3.117-3.687 8.333-1.506M99.39 60.865c4.508-1.624 8.246 1.922 8.246 1.922s-.193-4.823 5.126-6.74M382.902 92.458c-4.155 2.387-3.87 7.532-3.87 7.532s-3.553-3.268-8.455-.452" stroke="#333652" stroke-width="2" stroke-linecap="round" stroke-linejoin="round"/>
            <path d="M47.254 183.177c2.925 3.138 5.19 6.39 7.152 9.104 1.972 2.664 3.642 4.792 5.595 4.522 1.818-.223 3.815-3.18 4.01-7.863.227-4.593-1.348-10.913-5.961-15.765-4.473-4.983-10.641-7.046-15.231-7.177-4.678-.168-7.776 1.597-8.139 3.395-.42 1.929 1.568 3.761 4.067 5.937 2.55 2.17 5.61 4.683 8.507 7.847" fill="#90ADC6"/>
            <path d="M69.566 178.536c-2.297 4.821-3.767 9.53-5.08 13.488-1.343 3.901-2.529 7.053-4.949 7.463-2.242.417-5.72-2.345-7.707-7.832-1.99-5.368-2.487-13.461 1.173-20.95 3.443-7.591 9.994-12.352 15.394-14.226 5.49-1.952 9.83-1.018 10.934.981 1.222 2.133-.452 5.053-2.604 8.572-2.214 3.532-4.907 7.663-7.16 12.504" fill="#C5DDEF"/>
            <path d="M76.15 159.78c-13.587 8.195-19.817 23.857-15.257 39.693" stroke="#FFF" stroke-width="2" stroke-linecap="round" stroke-linejoin="round"/>
            <path d="M69.335 165.1c2.173.091 4.302.34 6.363.734M63.767 172.426a40.191 40.191 0 0 1 6.19-.65M60.405 180.92a36.246 36.246 0 0 1 5.698-2.018M59.429 190.202a32.314 32.314 0 0 1 4.867-3.329M69.335 165.1a34.914 34.914 0 0 1-.23-6.188M63.767 172.426a39.068 39.068 0 0 1-1.865-6.058M60.405 180.92a43.404 43.404 0 0 1-3.337-5.613M59.429 190.202a47.464 47.464 0 0 1-4.628-4.894" stroke="#FFF" stroke-width="2" stroke-linecap="round" stroke-linejoin="round"/>
            <path d="M69.754 156.464c5.49-1.952 9.83-1.017 10.934.981 1.222 2.133-.452 5.053-2.604 8.572-2.215 3.532-4.907 7.663-7.161 12.504-2.297 4.822-3.768 9.53-5.08 13.488-1.344 3.902-2.53 7.053-4.95 7.464-2.241.417-5.72-2.346-7.707-7.833-1.99-5.368-2.486-13.46 1.173-20.95 1.872-4.125 4.66-7.415 7.684-9.86" stroke="#333652" stroke-width="2" stroke-linecap="round" stroke-linejoin="round"/>
            <path d="M57.428 148.684c-.807 3.07-1.144 5.983-1.472 8.44-.351 2.428-.694 4.4-2.062 4.908-1.263.492-3.601-.735-5.37-3.72-1.757-2.914-2.945-7.585-1.638-12.365 1.169-4.815 4.466-8.322 7.412-10.016 2.99-1.749 5.629-1.684 6.495-.64.95 1.11.297 3.002-.57 5.296-.901 2.308-2.016 5.019-2.795 8.097" fill="#C5DDEF"/>
            <path d="M36.383 154.512c3.187 2.338 5.795 4.891 8.038 7.011 2.243 2.073 4.12 3.711 5.842 3.131 1.607-.514 2.907-3.534 2.279-7.807-.585-4.196-3.097-9.645-8.107-13.245-4.905-3.741-10.843-4.549-15.02-3.878-4.263.652-6.764 2.782-6.784 4.472-.049 1.818 2.066 3.135 4.702 4.675 2.681 1.526 5.884 3.275 9.05 5.64" fill="#C5DDEF"/>
            <path d="M27.748 144.281c11.729.58 21.279 8.606 23.856 20.527" stroke="#FFF" stroke-width="2" stroke-linecap="round" stroke-linejoin="round"/>
            <path d="M34.055 145.36a32.352 32.352 0 0 0-3.89 2.71M40.252 148.185a29.749 29.749 0 0 0-4.262 1.746M45.42 152.543a26.817 26.817 0 0 0-4.42.682M49.31 158.252a23.907 23.907 0 0 0-4.34-.464M34.055 145.36a25.834 25.834 0 0 0-2.019-4.113M40.252 148.185a28.896 28.896 0 0 0-.907-4.603M45.42 152.543c.188-1.574.261-3.19.209-4.828M49.31 158.252a35.097 35.097 0 0 0 1.3-4.812" stroke="#FFF" stroke-width="2" stroke-linecap="round" stroke-linejoin="round"/>
            <path d="M30.756 139.878c-4.263.652-6.764 2.782-6.784 4.472-.049 1.818 2.066 3.135 4.702 4.675 2.681 1.526 5.884 3.275 9.05 5.64 3.187 2.339 5.795 4.892 8.038 7.012 2.243 2.073 4.12 3.711 5.842 3.131 1.607-.514 2.907-3.534 2.279-7.807-.585-4.196-3.097-9.645-8.107-13.245-2.666-2.033-5.636-3.2-8.464-3.734" stroke="#333652" stroke-width="2" stroke-linecap="round" stroke-linejoin="round"/>
            <path fill="#FAD02C" d="M271.514 131.806v-10.274h-5.804v4.47l-9.572-9.571-22.414 22.414h3.549v43.392h37.73v-43.392h3.549z"/>
            <path fill="#FFF" d="M244.137 153.465h8.263v-8.262h-8.263zM259.876 153.465h8.263v-8.262h-8.263zM244.137 170.617h8.263v-8.263h-8.263zM259.876 182.237h8.263v-19.883h-8.263z"/>
            <path stroke="#333652" stroke-width="2" stroke-linecap="round" stroke-linejoin="round" d="M272.99 131.806v-10.274h-5.804v4.47l-9.573-9.571-22.413 22.414h3.548v43.392h37.73v-43.392h3.55z"/>
            <path stroke="#333652" stroke-width="2" stroke-linecap="round" stroke-linejoin="round" d="M245.613 153.465h8.262v-8.262h-8.262zM261.351 153.465h8.263v-8.262h-8.263zM245.613 170.617h8.262v-8.263h-8.262zM261.351 182.237h8.263v-19.883h-8.263zM238.748 138.844h20.52M267.212 138.844h4.804"/>
            <path fill="#90ADC6" d="M193.574 169.916v-10.274h5.803v4.47l9.573-9.571 22.413 22.413h-3.549v26.769h-37.73v-26.769h-3.548z"/>
            <path fill="#FAD02C" d="M212.687 192.103h8.263v-8.263h-8.263zM196.949 203.723h8.262V183.84h-8.262z"/>
            <path stroke="#333652" stroke-width="2" stroke-linecap="round" stroke-linejoin="round" d="M195.05 169.916v-10.274h5.803v4.47l9.572-9.571 22.414 22.413h-3.549v26.769h-37.73v-26.769h-3.549z"/>
            <path stroke="#333652" stroke-width="2" stroke-linecap="round" stroke-linejoin="round" d="M214.163 192.103h8.263v-8.263h-8.263zM198.424 203.723h8.263V183.84h-8.263z"/>
        </g>
        <g transform="translate(253.744 70.31)">
            <mask id="dx7dcfbnhJ" fill="#fff">
                <use xlink:href="#71ch1t7x2H"/>
            </mask>
            <path d="M14.281 9.881a16.736 16.736 0 0 1-1.48 7.135L.647 43.944a6.718 6.718 0 0 0 1.67 7.948 6.716 6.716 0 0 0 10.01-1.381l17.436-26.475 15.008-21.71L14.134 0l.147 9.881z" fill="url(#s71xxo5yeI)" mask="url(#dx7dcfbnhJ)"/>
        </g>
        <g>
            <path d="m269.353 70.31.147 9.881a16.738 16.738 0 0 1-1.48 7.135l-12.154 26.928a6.718 6.718 0 0 0 2.9 8.793 6.716 6.716 0 0 0 8.78-2.226l17.436-26.475 15.008-21.71 12.272-8.67" stroke="#333652" stroke-width="2" stroke-linecap="round" stroke-linejoin="round"/>
            <path fill="#90ADC6" d="m305.393 73.373 12.86-8.163-21.75-34.269-12.86 8.163z"/>
            <path d="m318.254 65.21-21.75-34.269-12.861 8.163 13.587 21.408c4.509 7.103 13.92 9.206 21.024 4.698" fill="#C5DDEF"/>
            <path stroke="#333652" stroke-width="2" stroke-linecap="round" stroke-linejoin="round" d="m306.868 73.373 12.861-8.163-21.75-34.269-12.86 8.163z"/>
            <path stroke="#333652" stroke-width="2" stroke-linecap="round" stroke-linejoin="round" d="m319.23 11.237-24.064 15.272 27.376 43.133 15.406-9.778M334.244 1.707l-9.848 6.25"/>
            <path d="M319.73 65.21h0l-21.751-34.269-12.86 8.163 13.587 21.408c4.508 7.103 13.92 9.206 21.023 4.698z" stroke="#333652" stroke-width="2" stroke-linecap="round" stroke-linejoin="round"/>
            <path d="M213.917 169.43a3.492 3.492 0 1 1-6.984 0 3.492 3.492 0 0 1 6.984 0z" stroke="#FFF" stroke-width="2" stroke-linecap="round" stroke-linejoin="round"/>
            <path fill="#C5DDEF" d="M141.256 203.797h37.73v-22.834h-37.73z"/>
            <path fill="#7593AA" d="M183.585 180.963h-46.927l2.219-27.051h42.488z"/>
            <path fill="#C5DDEF" d="M157.005 176.254h-9.664v-9.702l4.832-5.484 4.832 5.484zM172.901 176.254h-9.664v-9.702l4.832-5.484 4.832 5.484z"/>
            <path fill="#7593AA" d="M147.34 203.723h9.665v-18.31h-9.664zM163.237 196.627h9.664v-11.213h-9.664z"/>
            <path stroke="#333652" stroke-width="2" stroke-linecap="round" stroke-linejoin="round" d="M142.732 203.723h37.73v-22.834h-37.73zM185.06 180.889h-46.927l2.22-27.05h42.488z"/>
            <path stroke="#333652" stroke-width="2" stroke-linecap="round" stroke-linejoin="round" d="M158.48 176.18h-9.664v-9.702l4.833-5.484 4.832 5.484zM174.377 176.18h-9.665v-9.702l4.833-5.484 4.832 5.484zM148.816 203.723h9.665v-18.31h-9.665zM164.712 196.627h9.665v-11.213h-9.665zM191.56 176.955h24.77"/>
            <path fill="#C5DDEF" d="M106.573 182.68 91.76 164.675 76.946 182.68v21.118h29.627z"/>
            <path fill="#FAD02C" d="M131.784 182.68h-25.21l-14.815-18.004h40.025z"/>
            <path fill="#C5DDEF" d="M106.573 203.797h22.122v-21.118h-22.122z"/>
            <path fill="#90ADC6" d="M87.776 196.6h7.967v-7.966h-7.967z"/>
            <path fill="#FFF" d="M87.776 182.266h7.967V174.3h-7.967z"/>
            <path fill="#90ADC6" d="M113.65 203.797h7.967v-15.163h-7.966zM87.776 169.517V162.1h-4.943v13.423z"/>
            <path stroke="#333652" stroke-width="2" stroke-linecap="round" stroke-linejoin="round" d="m108.049 182.68-14.814-18.004L78.42 182.68v21.118h29.628z"/>
            <path stroke="#333652" stroke-width="2" stroke-linecap="round" stroke-linejoin="round" d="M133.26 182.68h-25.211l-14.814-18.004h40.024z"/>
            <path stroke="#333652" stroke-width="2" stroke-linecap="round" stroke-linejoin="round" d="M108.049 203.797h22.121v-21.118h-22.121zM89.252 196.6h7.966v-7.966h-7.966zM89.252 182.266h7.966V174.3h-7.966z"/>
            <path stroke="#333652" stroke-width="2" stroke-linecap="round" stroke-linejoin="round" d="M115.126 203.797h7.966v-15.163h-7.966zM89.252 169.517V162.1h-4.943v13.423z"/>
            <path fill="#90ADC6" d="m318.14 182.68 14.813-18.004 14.814 18.003v21.118h-29.628z"/>
            <path fill="#C5DDEF" d="M284.075 182.68h34.064l14.814-18.004h-48.878z"/>
            <path fill="#90ADC6" d="M287.165 203.797h30.974v-21.118h-30.974z"/>
            <path fill="#FFF" d="M328.97 196.6h7.966v-7.966h-7.966z"/>
            <path d="M328.97 182.266h7.966v-3.983a3.983 3.983 0 0 0-7.966 0v3.983z" fill="#FAD02C"/>
            <path fill="#FFF" d="M292.82 203.796h19.663v-15.162H292.82zM336.936 169.517V162.1h4.943v13.423z"/>
            <path stroke="#333652" stroke-width="2" stroke-linecap="round" stroke-linejoin="round" d="m319.615 182.68 14.813-18.004 14.814 18.003v21.118h-29.627z"/>
            <path stroke="#333652" stroke-width="2" stroke-linecap="round" stroke-linejoin="round" d="M285.55 182.68h34.065l14.813-18.004h-48.877z"/>
            <path stroke="#333652" stroke-width="2" stroke-linecap="round" stroke-linejoin="round" d="M288.64 203.797h30.975v-21.118H288.64zM330.445 196.6h7.966v-7.966h-7.966zM330.445 182.266h7.966v-3.983c0-2.2-1.783-3.983-3.983-3.983h0a3.983 3.983 0 0 0-3.983 3.983v3.983z"/>
            <path stroke="#333652" stroke-width="2" stroke-linecap="round" stroke-linejoin="round" d="M294.296 203.796h19.663v-15.162h-19.663zM338.411 169.517V162.1h4.944v13.423z"/>
            <path fill="#90ADC6" d="M307.484 177.287h-9.664v-9.702l4.832-5.484 4.832 5.484z"/>
            <path stroke="#333652" stroke-width="2" stroke-linecap="round" stroke-linejoin="round" d="M308.96 177.287h-9.665v-9.702l4.832-5.484 4.833 5.484z"/>
            <path fill="#C5DDEF" d="m437.512 187.184-19.329-4.504-19.329 4.504v16.613h38.658z"/>
            <path stroke="#333652" stroke-width="2" stroke-linecap="round" stroke-linejoin="round" d="m438.988 187.184-19.33-4.504-19.328 4.504v16.613h38.658z"/>
            <path fill="#FFF" d="M406.97 203.797h5.606v-14.153h-5.607zM412.576 203.797h5.607v-14.153h-5.607z"/>
            <path fill="#FFF" d="M418.183 203.797h5.607v-14.153h-5.607zM423.79 203.797h5.607v-14.153h-5.607z"/>
            <path stroke="#333652" stroke-width="2" stroke-linecap="round" stroke-linejoin="round" d="M408.445 203.797h5.607v-14.153h-5.607zM414.052 203.797h5.607v-14.153h-5.607z"/>
            <path stroke="#333652" stroke-width="2" stroke-linecap="round" stroke-linejoin="round" d="M419.659 203.797h5.606v-14.153h-5.606zM425.265 203.797h5.607v-14.153h-5.607z"/>
            <path fill="#90ADC6" d="M353.928 203.944h30.166v-41.843h-30.166z"/>
            <path fill="#FAD02C" d="M384.094 149.942h-30.166l-1.557 12.159h33.28z"/>
            <path fill="#C5DDEF" d="M358.863 188.747h5.41v-22.92h-5.41z"/>
            <path fill="#C5DDEF" d="M358.863 203.944h5.41v-15.197h-5.41z"/>
            <path fill="#FFF" d="M369.011 198.595h5.41v-9.848h-5.41zM369.011 175.675h5.41v-9.847h-5.41z"/>
            <path stroke="#333652" stroke-width="2" stroke-linecap="round" stroke-linejoin="round" d="M355.403 203.944h30.167v-41.843h-30.167zM385.57 149.942h-30.167l-1.557 12.159h33.28z"/>
            <path stroke="#333652" stroke-width="2" stroke-linecap="round" stroke-linejoin="round" d="M360.339 188.747h5.41v-22.92h-5.41z"/>
            <path stroke="#333652" stroke-width="2" stroke-linecap="round" stroke-linejoin="round" d="M360.339 203.944h5.41v-15.197h-5.41zM370.487 198.595h5.41v-9.848h-5.41zM370.487 175.675h5.41v-9.847h-5.41zM31.227 203.723H3.732M235.807 203.723h-196.8M499.134 203.723H241.02M511.495 203.723h-6.853"/>
        </g>
    </g>
</svg>
