<svg width="69" height="39" viewBox="0 0 69 39" xmlns="http://www.w3.org/2000/svg">
    <g fill="#AC89AE" fill-rule="nonzero" opacity=".85">
        <path d="M42.908 36.487a.505.505 0 1 0 0-1.01.505.505 0 0 0 0 1.01z"/>
        <path d="M42.908 36.848a.866.866 0 1 1 .856-.866.841.841 0 0 1-.856.866zM46.589 36.487a.505.505 0 1 0 0-1.01.505.505 0 0 0 0 1.01z"/>
        <path d="M46.589 36.848a.866.866 0 1 1 .855-.866.841.841 0 0 1-.855.866zM50.27 36.487a.505.505 0 1 0 0-1.01.505.505 0 0 0 0 1.01z"/>
        <path d="M50.27 36.848a.866.866 0 1 1 .856-.866.841.841 0 0 1-.856.866zM53.946 36.487a.505.505 0 1 0 0-1.01.505.505 0 0 0 0 1.01z"/>
        <path d="M53.946 36.848a.866.866 0 1 1 .856-.866.841.841 0 0 1-.856.866z"/>
        <g>
            <path d="M14.254 36.487a.505.505 0 1 0 0-1.01.505.505 0 0 0 0 1.01z"/>
            <path d="M14.254 36.848a.866.866 0 1 1 .855-.866.841.841 0 0 1-.855.866zM17.934 36.487a.505.505 0 1 0 0-1.01.505.505 0 0 0 0 1.01z"/>
            <path d="M17.934 36.848a.866.866 0 1 1 .855-.866.841.841 0 0 1-.855.866zM21.616 36.487a.505.505 0 1 0 0-1.01.505.505 0 0 0 0 1.01z"/>
            <path d="M21.616 36.848a.866.866 0 1 1 .855-.866.841.841 0 0 1-.855.866zM25.296 36.487a.505.505 0 1 0 0-1.01.505.505 0 0 0 0 1.01z"/>
            <path d="M25.296 36.848a.866.866 0 1 1 .855-.866.841.841 0 0 1-.855.866z"/>
        </g>
        <g>
            <path d="M27.525 28.546v3.186l.512-.512H11.68l.512.512v-3.186l-.512.512h16.34a.505.505 0 0 0 0-1.01H11.68a.514.514 0 0 0-.513.513v3.185c.001.283.23.512.513.512h16.34c.283 0 .512-.23.513-.512v-3.182a.505.505 0 0 0-1.01 0l.003-.018z"/>
            <path d="M12.551 27.676v.015H28.02c.478 0 .865.387.865.865v2.297h.015l-.015.015v.874a.873.873 0 0 1-.865.865H11.679a.873.873 0 0 1-.866-.865v-3.178a.873.873 0 0 1 .866-.866h.856l.016-.022zm14.626.736H12.551v.289h14.613v-.145a.92.92 0 0 1 .012-.144h.001zm.994 2.453v-1.457a.952.952 0 0 1-.144.011h-.134v1.443l.278.003zM11.83 29.419h-.303v1.443h.303v-1.443zm15.334 0H12.551v1.443h14.613v-1.443zm0 2.164H12.551v.319h14.613v-.319zM55.953 28.546v9.558l.512-.512H40.12l.512.512v-9.558l-.512.512h16.34a.505.505 0 0 0 0-1.01H40.12a.514.514 0 0 0-.513.513v9.558c.001.282.23.51.513.512h16.34c.283-.001.512-.23.513-.512v-9.555a.505.505 0 0 0-1.01 0l-.01-.018z"/>
            <path d="M40.99 27.676v.015h14.598v-.015l.014.015h.857a.866.866 0 0 1 .866.865v9.558a.873.873 0 0 1-.866.866H40.12a.873.873 0 0 1-.865-.866v-9.55a.873.873 0 0 1 .866-.866h.856l.015-.022zm14.598.736H40.99v.289h14.597v-.289zm1.023 8.82v-7.824a.952.952 0 0 1-.144.011h-.135v.015l-.015-.015v7.812h.294zM40.27 29.418h-.302v7.812h.302V29.42zm15.318 0H40.99v7.812h14.597V29.42zm0 8.534H40.99v.318h14.597v-.318zM27.525 31.732v6.372l.512-.512H11.68l.512.512v-6.372l-.512.512h16.34a.505.505 0 1 0 0-1.01H11.68a.514.514 0 0 0-.513.512v6.371c.001.283.23.511.513.512h16.34c.283 0 .512-.23.513-.512V31.75a.505.505 0 0 0-1.01 0l.003-.017z"/>
            <path d="M12.551 30.862v.014H28.02c.478 0 .865.388.865.866v5.482h.015l-.015.014v.875a.873.873 0 0 1-.865.865H11.679a.873.873 0 0 1-.866-.865v-6.364a.873.873 0 0 1 .866-.866h.856l.016-.021zm14.626.736H12.551v.288h14.613v-.144a.92.92 0 0 1 .012-.144h.001zm.994 5.633v-4.638a.952.952 0 0 1-.144.012h-.134v4.626h.278zM11.83 32.605h-.303v4.626h.303v-4.626zm15.334 0H12.551v4.626h14.613v-4.626zm0 5.348H12.551v.318h14.613v-.318zM55.953 31.732v6.372l.512-.512H40.12l.512.512v-6.372l-.512.512h16.34a.505.505 0 1 0 0-1.01H40.12a.514.514 0 0 0-.513.512v6.371c.001.283.23.511.513.512h16.34c.283 0 .512-.23.513-.512V31.75a.505.505 0 1 0-1.01 0l-.01-.017z"/>
            <path d="M40.99 30.862v.014h14.598v-.014l.014.014h.857a.866.866 0 0 1 .866.866v6.37a.873.873 0 0 1-.866.866H40.12a.873.873 0 0 1-.865-.865v-6.364a.873.873 0 0 1 .866-.866h.856l.015-.021zm14.598.736H40.99v.288h14.597v-.288zm1.023 5.633v-4.638a.952.952 0 0 1-.144.012h-.135v.014l-.015-.014v4.626h.294zM40.27 32.605h-.302v4.626h.302v-4.626zm15.318 0H40.99v4.626h14.597v-4.626zm0 5.348H40.99v.318h14.597v-.318zM39.607 25.042V27.8l.513-.512h-12.1l.512.512v-2.757l-.512.512h12.1a.505.505 0 1 0 0-1.01h-12.1a.514.514 0 0 0-.512.512v2.757c0 .283.23.512.512.513h12.1c.282-.001.51-.23.512-.513v-2.75a.505.505 0 1 0-1.01 0l-.015-.02z"/>
            <path d="M28.893 24.176v.015h10.354v-.015l.014.015h.857c.478 0 .866.387.866.865v2.757a.873.873 0 0 1-.866.866H28.02a.873.873 0 0 1-.866-.866v-2.75a.873.873 0 0 1 .866-.865h.857l.016-.022zm10.354.736H28.893v.289h10.354v-.289zm1.023 2.02v-1.024a.952.952 0 0 1-.145.011h-.134v.015l-.016-.015v1.01l.295.003zm-12.1-1.01h-.302v1.01h.303l-.001-1.01zm11.075 0H28.893v1.01h10.354l-.002-1.01zm0 1.731H28.893v.32h10.354l-.002-.32z"/>
            <path d="M39.607 27.805v10.3l.513-.512h-3.946l.512.513v-3.402c.025-.49.025-.98 0-1.469-.05-.413-.364-.61-.643-.874-.529-.512-1.074-1.01-1.602-1.52a.498.498 0 0 0-.71 0c-.512.48-1.01.959-1.519 1.443-.297.282-.694.528-.743.94-.025.49-.025.98 0 1.47v3.39l.512-.512H28.03l.512.512v-10.3l-.512.511h12.1a.505.505 0 1 0 0-1.01h-12.1a.514.514 0 0 0-.512.513v10.3c0 .283.23.512.512.512h3.946c.282 0 .51-.23.512-.512v-4.905l-.145.364c.71-.661 1.404-1.32 2.114-1.997h-.71c.694.66 1.404 1.32 2.114 1.997l-.145-.364v4.905c.001.283.23.512.513.512h3.945c.283 0 .512-.23.512-.512v-10.3a.505.505 0 0 0-1.01 0l-.069.007z"/>
            <path d="M28.908 26.918v.014h11.227a.887.887 0 0 1 .361.074.827.827 0 0 1 .545.799v10.3a.873.873 0 0 1-.865.866h-3.952a.873.873 0 0 1-.865-.865v-.824l-.048-.048h.048v-3.656l-.833-.784-.415-.391c-.398.379-.82.777-1.251 1.181v4.522a.873.873 0 0 1-.866.865H28.03a.873.873 0 0 1-.866-.865V27.805a.873.873 0 0 1 .866-.866h.865l.013-.021zm10.339.735H28.908v.289h10.339v-.289zm1.073 9.58v-8.59a.945.945 0 0 1-.185.017h-.167v8.573h.352zM28.187 28.66h-.301v8.558h.301V28.66zm11.06 0H28.908v8.558h2.2v-2.53c0-.153 0-.307-.01-.472-.019-.345-.014-.69.013-1.034.087-.412.33-.774.677-1.01.064-.055.123-.107.177-.157.257-.24.508-.48.758-.722s.502-.477.757-.721a.866.866 0 0 1 1.215 0c.212.206.433.415.654.62h.008l.134.126c.266.248.539.505.805.763l.137.123c.324.229.545.577.615.968.028.346.032.693.013 1.04 0 .164-.01.319-.01.471v2.55h2.2l-.004-8.573zm-5.667 3.246-.08-.076-.145-.137-.136.128c-.252.24-.505.48-.762.722-.064.062-.134.12-.2.178-.21.18-.408.352-.433.543-.023.31-.026.62-.009.93 0 .163.012.332.012.497v2.527h.302v-3.706l-.122-.084.145-.363.158.032c.443-.407.867-.808 1.27-1.19zm2.74 5.327v-2.53c0-.164 0-.333.012-.496a7.078 7.078 0 0 0-.008-.936c-.023-.189-.144-.304-.375-.506a4.76 4.76 0 0 1-.158-.145c-.265-.256-.538-.512-.8-.758l-.163-.153-.204.194.387.364.338.317.54.513.155-.03.144.363-.121.083v3.72h.254zm-5.216.705h-2.196v.319h2.2l-.004-.319zm8.138.016h-2.195v.302h2.2l-.005-.302zM38.419 20.21a2.55 2.55 0 0 1-.777 1.717l.364-.144a73.144 73.144 0 0 1-8.072 0l.364.144a2.317 2.317 0 0 1-.76-1.832 3.387 3.387 0 0 1 1.3-1.731 39.64 39.64 0 0 0 3.5-3.565h-.71c.834.978 1.721 1.91 2.657 2.79.743.694 2.063 1.52 2.164 2.624.049.644 1.073.644 1.01 0-.116-1.37-1.205-2.195-2.145-3.054a32.449 32.449 0 0 1-2.952-3.073.498.498 0 0 0-.71 0 36.84 36.84 0 0 1-3.174 3.252c-.907.825-2.02 1.75-1.932 3.103.067.698.343 1.36.792 1.899a.954.954 0 0 0 .777.462c.379.033.792.033 1.188.049 1.75.066 3.5.066 5.249 0 .446 0 .891-.034 1.337-.067.362-.031.684-.242.859-.56.455-.577.709-1.286.72-2.02a.505.505 0 1 0-1.009 0l-.04.007z"/>
            <path d="M33.929 23.262c-.876 0-1.763-.018-2.639-.05l-.395-.014c-.268-.007-.547-.014-.81-.037a1.298 1.298 0 0 1-1.03-.6 3.803 3.803 0 0 1-.865-2.095 4.282 4.282 0 0 1 1.91-3.27l.144-.125a37.044 37.044 0 0 0 2.616-2.625l-.009-.01h.019c.173-.193.344-.385.512-.578a.857.857 0 0 1 1.261 0 31.906 31.906 0 0 0 2.92 3.03l.297.268a4.976 4.976 0 0 1 1.928 2.741c.037.102.055.21.055.318a3.68 3.68 0 0 1-.798 2.23l-.013.018a1.414 1.414 0 0 1-1.107.688 18.2 18.2 0 0 1-1.357.066 85.09 85.09 0 0 1-2.639.045zm-.602-8.265c-.8.885-1.657 1.744-2.605 2.608l-.144.127c-.857.775-1.742 1.575-1.674 2.688a3.1 3.1 0 0 0 .721 1.696c.198.254.28.305.524.326.244.022.51.03.768.036l.405.013a68.409 68.409 0 0 0 5.221 0h.013c.433 0 .879-.033 1.31-.065.271-.02.352-.11.594-.415.22-.288.393-.609.511-.95a.972.972 0 0 1-.324-.066 2.69 2.69 0 0 1-.18.406h.097l-.464.554.037.169-.363.144-.074-.106-.753.04a73.859 73.859 0 0 1-5.958 0l-.77-.041-.057.101-.363-.144.036-.162-.49-.564h.113a2.191 2.191 0 0 1-.275-1.35 3.351 3.351 0 0 1 1.284-1.828l.134-.121a40.656 40.656 0 0 0 2.905-2.893l-.144-.169-.035-.034zM30.35 21.44a73.973 73.973 0 0 0 7.228 0c.295-.343.463-.777.477-1.23v-.163a4.097 4.097 0 0 0-1.466-1.73c-.197-.165-.383-.321-.548-.474a33.17 33.17 0 0 1-2.057-2.105 41.61 41.61 0 0 1-2.903 2.886l-.144.124c-.491.341-.86.831-1.052 1.398-.023.476.144.941.465 1.294zm4.119-6.238a32.933 32.933 0 0 0 2.065 2.12c.145.145.33.289.518.448a5.814 5.814 0 0 1 1.538 1.666.883.883 0 0 1 .259-.074 6.092 6.092 0 0 0-1.476-1.668l-.303-.272a31.765 31.765 0 0 1-2.412-2.441l-.042.049-.147.172zM35.679 33.202v4.905l.512-.512h-4.226l.513.512v-4.905l-.145.363c.71-.66 1.404-1.32 2.114-1.996h-.71c.694.66 1.404 1.32 2.114 1.996.479.446 1.188-.264.71-.71-.71-.66-1.404-1.32-2.114-1.996a.498.498 0 0 0-.71 0c-.413.38-.81.776-1.222 1.154-.197.182-.397.38-.594.561-.226.15-.386.38-.446.644-.016.248 0 .512 0 .759v4.159c0 .282.23.511.512.512h4.226c.282 0 .511-.23.512-.512V33.23a.505.505 0 1 0-1.01 0l-.036-.03z"/>
            <path d="M34.086 30.348c.228 0 .447.09.608.251l.637.608h.012c.502.477.98.929 1.463 1.379l.024.024a.808.808 0 0 1 .225.384.92.92 0 0 1 .03.235v4.905a.873.873 0 0 1-.865.866h-4.231a.873.873 0 0 1-.866-.866v-.89l-.014-.014h.014v-3.496c0-.177-.007-.359 0-.54v-.018c.054-.329.235-.623.505-.82l.055-.05c.096-.09.194-.182.288-.276.094-.093.202-.193.303-.288.19-.175.383-.358.567-.537h.009l.033-.032c.2-.19.404-.388.612-.577a.857.857 0 0 1 .591-.248zm-.522 1.557-.08-.077-.126-.12c-.197.188-.399.383-.603.57-.098.09-.195.184-.289.276-.094.092-.202.193-.303.289l-.059.053c-.162.144-.254.234-.271.358-.009.144 0 .31 0 .469v3.513h.288v-3.724l-.12-.084.143-.363.16.032c.433-.407.857-.808 1.26-1.192zm2.13.638c-.29-.272-.578-.549-.88-.833l-.203.193.387.364.322.303v-.24l.288.289a.82.82 0 0 1 .085-.076zm-.376 1.018-.815-.769-.415-.39c-.399.379-.82.777-1.251 1.18v3.65h2.481v-3.67zm1.04 3.669v-3.188a.85.85 0 0 1-.288.01v.046l-.033-.033v3.16l.321.005zm-1.04.721h-2.481v.335h2.481v-.335zM36.9 22.323v2.74l.512-.511h-6.883l.512.512v-2.741l-.512.512c2.292.115 4.59.115 6.883 0 .643-.033.66-1.04 0-1.01-2.294.1-4.59.115-6.883 0a.525.525 0 0 0-.513.512v2.741c.001.283.23.511.513.512h6.883c.282 0 .511-.23.512-.512v-2.741a.505.505 0 0 0-1.01 0l-.015-.014z"/>
            <path d="M31.4 21.453v.052c.793.028 1.61.043 2.437.043.878 0 1.768-.016 2.7-.048v-.047l.047.046.81-.032h.048a.785.785 0 0 1 .705.397c.091.142.138.307.136.476v2.741a.873.873 0 0 1-.866.866H30.53a.873.873 0 0 1-.866-.866V22.34a.884.884 0 0 1 .866-.866h.018c.265.014.533.025.804.035l.049-.056zm5.139 1.06v-.288c-.934.031-1.824.046-2.7.046a67.25 67.25 0 0 1-2.438-.044v.289c.854.032 1.717.049 2.57.049.852 0 1.714-.02 2.568-.053v.001zm1.023 1.68v-1.01a.936.936 0 0 1-.133.015l-.153.008v.007l-.007-.007h-.009v.986h.302zm-6.883-.987-.17-.01h-.132V24.2h.302v-.994zm5.86.986v-.956a69.435 69.435 0 0 1-5.139 0v.956h5.139zm0 .722H31.4v.318h5.139v-.318zM23.249 25.987v2.575l.508-.516h-6.73l.512.512v-2.571l-.512.512c2.244.096 4.49.096 6.734 0 .643-.033.66-1.04 0-1.01-2.245.096-4.49.096-6.734 0a.525.525 0 0 0-.513.512v2.579c.001.282.23.51.513.512h6.73c.282-.001.511-.23.512-.512v-2.576a.505.505 0 0 0-1.01 0l-.01-.017z"/>
            <path d="M17.898 25.117v.043a75.957 75.957 0 0 0 4.989 0v-.043l.047.043c.27-.008.54-.019.81-.031h.047a.785.785 0 0 1 .706.396c.09.142.137.308.135.476v2.579a.873.873 0 0 1-.865.865h-6.74a.873.873 0 0 1-.866-.865v-2.576a.884.884 0 0 1 .866-.865h.015c.27.011.54.022.81.031l.046-.053zm4.993 1.053v-.288a75.957 75.957 0 0 1-4.989 0v.288a75.828 75.828 0 0 0 4.989 0zm1.023 1.518v-.847a.936.936 0 0 1-.133.016h-.153v.009l-.008-.009h-.008v.824l.302.007zm-1.023 0v-.796a75.828 75.828 0 0 1-4.989 0v.796h4.989zm0 .721h-4.993v.32h4.993v-.32z"/>
            <path d="M24.852 23.908a2.528 2.528 0 0 1-.76 1.684l.364-.145c-2.634.14-5.273.14-7.907 0l.364.145a2.268 2.268 0 0 1-.743-1.8c.1-.71.776-1.237 1.27-1.683a42.73 42.73 0 0 0 3.434-3.483h-.71a33.876 33.876 0 0 0 2.609 2.724c.446.413.924.81 1.353 1.255.397.331.665.79.759 1.299.049.643 1.073.643 1.01 0-.116-1.338-1.19-2.164-2.114-3.004a35.663 35.663 0 0 1-2.905-3.004.498.498 0 0 0-.71 0 35.346 35.346 0 0 1-3.103 3.186c-.892.81-1.981 1.717-1.899 3.037.06.69.337 1.343.792 1.865a.874.874 0 0 0 .759.446l1.154.049c1.717.066 3.434.066 5.15 0 .446 0 .875-.033 1.32-.066.446-.034.595-.231.843-.562.451-.562.7-1.26.71-1.98a.505.505 0 1 0-1.01 0l-.03.037z"/>
            <path d="M20.444 26.893c-.865 0-1.731-.017-2.59-.05l-1.154-.05a1.22 1.22 0 0 1-1.025-.577 3.597 3.597 0 0 1-.866-2.064 4.195 4.195 0 0 1 1.876-3.204l.144-.126a34.852 34.852 0 0 0 3.073-3.155.857.857 0 0 1 1.26 0 35.36 35.36 0 0 0 2.857 2.97l.273.246a5.01 5.01 0 0 1 1.923 2.74.922.922 0 0 1 .035.253v.02a.866.866 0 0 1-.008.213 3.646 3.646 0 0 1-.777 1.973c-.223.407-.638.67-1.101.701h-.046c-.433.034-.853.064-1.299.064-.85.029-1.718.046-2.575.046zm-.609-8.088a33.88 33.88 0 0 1-2.542 2.548l-.144.124c-.84.759-1.708 1.542-1.64 2.622.055.614.304 1.195.711 1.659.202.26.261.297.49.307l1.155.049a65.788 65.788 0 0 0 5.12 0h.014c.417 0 .821-.03 1.248-.062h.046c.289-.02.345-.105.577-.418.21-.268.374-.569.488-.89a.972.972 0 0 1-.302-.064c-.045.13-.1.255-.165.376h.098l-.458.55.038.172-.364.144-.075-.107-.744.035c-1.036.039-2.053.06-3.03.06-.936 0-1.864-.02-2.767-.054l-.77-.04-.07.105-.364-.145.036-.161-.49-.564h.116a2.164 2.164 0 0 1-.263-1.317c.19-.715.627-1.34 1.234-1.763l.153-.136a45.648 45.648 0 0 0 2.835-2.813l-.145-.166-.026-.05zm-2.87 6.3c1.105.054 2.253.083 3.414.083 1.162 0 2.402-.03 3.65-.085.285-.335.447-.756.46-1.195v-.144a2.223 2.223 0 0 0-.62-.899c-.288-.288-.591-.57-.89-.835-.144-.133-.303-.271-.453-.409a31.842 31.842 0 0 1-2.011-2.044 45.928 45.928 0 0 1-2.83 2.805l-.16.144c-.47.32-.82.786-.998 1.326-.024.458.133.908.437 1.252zm4.039-6.076a31.077 31.077 0 0 0 2.02 2.056c.144.133.288.268.443.4.308.275.627.56.924.865.235.224.438.477.606.755a.88.88 0 0 1 .267-.081 6.318 6.318 0 0 0-1.442-1.607l-.279-.251a36.573 36.573 0 0 1-2.343-2.364l-.047.055-.149.172zM52.004 23.908a2.528 2.528 0 0 1-.759 1.684l.364-.145c-2.634.14-5.273.14-7.907 0l.363.145a2.268 2.268 0 0 1-.743-1.8c.1-.71.776-1.237 1.271-1.683a42.73 42.73 0 0 0 3.434-3.483h-.71a33.877 33.877 0 0 0 2.608 2.724c.446.413.925.81 1.354 1.255.397.331.665.79.759 1.299.049.643 1.073.643 1.01 0-.116-1.338-1.19-2.164-2.114-3.004a35.663 35.663 0 0 1-2.906-3.004.498.498 0 0 0-.71 0 35.346 35.346 0 0 1-3.103 3.186c-.891.81-1.98 1.717-1.898 3.037.06.69.337 1.343.792 1.865a.874.874 0 0 0 .759.446l1.154.049c1.717.066 3.433.066 5.15 0 .446 0 .874-.033 1.32-.066.446-.034.595-.231.843-.562.45-.562.7-1.26.71-1.98a.505.505 0 1 0-1.01 0l-.03.037z"/>
            <path d="M47.597 26.893c-.866 0-1.731-.017-2.588-.05l-1.154-.05a1.22 1.22 0 0 1-1.026-.577 3.597 3.597 0 0 1-.866-2.064 4.195 4.195 0 0 1 1.876-3.204l.144-.126a34.85 34.85 0 0 0 3.073-3.155.857.857 0 0 1 1.26 0 35.356 35.356 0 0 0 2.872 2.97l.272.244a5.01 5.01 0 0 1 1.924 2.741.922.922 0 0 1 .034.253v.022a.866.866 0 0 1-.007.212 3.646 3.646 0 0 1-.778 1.973c-.223.407-.638.67-1.1.701h-.047c-.432.034-.852.064-1.298.064-.866.029-1.734.046-2.591.046zm-.602-8.088a33.878 33.878 0 0 1-2.542 2.548l-.144.124c-.84.759-1.708 1.542-1.64 2.622.054.614.304 1.195.711 1.659.202.26.261.297.49.307l1.155.049a65.788 65.788 0 0 0 5.12 0h.014c.417 0 .821-.03 1.248-.062h.046c.289-.02.345-.105.577-.418.21-.268.374-.569.488-.89a.972.972 0 0 1-.302-.064c-.045.13-.1.255-.166.376h.099l-.458.55.038.172-.364.144-.075-.107-.744.035c-1.036.039-2.053.06-3.03.06-.936 0-1.864-.02-2.767-.054l-.77-.04-.071.105-.364-.145.037-.161-.491-.564h.117a2.155 2.155 0 0 1-.263-1.317c.19-.715.627-1.34 1.234-1.763l.153-.136a45.648 45.648 0 0 0 2.835-2.813l-.145-.166-.026-.05zm-2.878 6.3c1.105.054 2.254.083 3.415.083s2.402-.03 3.65-.085c.285-.335.447-.756.46-1.195v-.144a2.223 2.223 0 0 0-.62-.899c-.289-.288-.592-.57-.89-.835-.145-.133-.303-.271-.453-.409a31.842 31.842 0 0 1-2.011-2.044 45.928 45.928 0 0 1-2.83 2.805l-.161.144c-.47.32-.82.786-.997 1.326-.024.458.133.908.437 1.252zm4.04-6.076a31.077 31.077 0 0 0 2.02 2.056c.144.133.288.268.442.4.31.275.628.56.927.865.234.224.438.477.605.755a.88.88 0 0 1 .267-.081 6.318 6.318 0 0 0-1.442-1.607l-.279-.251a36.573 36.573 0 0 1-2.343-2.364l-.047.055-.15.172z"/>
            <path d="M50.518 25.987v2.575l.513-.516h-6.735l.512.512v-2.571l-.512.512c2.245.096 4.49.096 6.735 0 .643-.033.66-1.04 0-1.01-2.245.096-4.49.096-6.735 0a.525.525 0 0 0-.512.512v2.579c0 .282.23.51.512.512h6.735c.282-.001.51-.23.512-.512v-2.576a.505.505 0 0 0-1.01 0l-.015-.017z"/>
            <path d="M45.167 25.117v.043a75.957 75.957 0 0 0 4.99 0v-.043l.047.043c.27-.008.54-.019.81-.031h.047a.785.785 0 0 1 .705.396c.09.142.138.308.136.476v2.579a.873.873 0 0 1-.866.865h-6.74a.873.873 0 0 1-.866-.865v-2.576a.884.884 0 0 1 .866-.865h.016c.27.011.539.022.81.031l.045-.053zm4.99 1.055v-.289a75.957 75.957 0 0 1-4.988 0v.289a75.828 75.828 0 0 0 4.989-.002v.002zm1.024 1.517v-.846a.936.936 0 0 1-.133.015h-.153v.01l-.009-.01h-.008v.824l.303.007zm-3.52-.756c-.826 0-1.664-.013-2.494-.04v.796h4.99v-.797c-.829.028-1.667.041-2.494.041h-.001zm2.495 1.478h-4.989v.319h4.99v-.32zM28.53 24.948V22.4a.525.525 0 0 0-.512-.512.503.503 0 0 0-.512.512v2.542c.007.28.232.505.512.512a.503.503 0 0 0 .512-.512v.007z"/>
            <path d="M28.02 25.82a.884.884 0 0 1-.866-.866V22.4a.866.866 0 0 1 .866-.866c.474.01.855.392.865.866v2.542a.866.866 0 0 1-.865.879zm0-3.565a.144.144 0 0 0-.145.144v2.542c.01.076.07.135.145.144a.144.144 0 0 0 .144-.144V22.4a.166.166 0 0 0-.144-.144zM10.175 3.408V.866a.525.525 0 0 0-.51-.513.503.503 0 0 0-.513.513v2.542c.007.28.233.505.513.512a.503.503 0 0 0 .512-.512h-.002z"/>
            <path d="M9.665 4.279a.884.884 0 0 1-.866-.866V.866c0-.478.387-.866.866-.866.473.01.855.392.865.866v2.542a.866.866 0 0 1-.865.871zm0-3.565a.144.144 0 0 0-.145.144v2.55c.01.075.07.135.145.144.08 0 .144-.065.144-.144V.866a.166.166 0 0 0-.144-.152zM34.473 14.236v-2.542a.525.525 0 0 0-.512-.512.503.503 0 0 0-.512.512v2.542c.006.28.232.506.512.513a.503.503 0 0 0 .512-.513z"/>
            <path d="M33.962 15.108a.884.884 0 0 1-.865-.866v-2.548c0-.478.387-.865.865-.865.474.01.856.391.866.865v2.542a.866.866 0 0 1-.866.872zm0-3.565a.144.144 0 0 0-.144.144v2.55c.01.075.069.134.144.144.08 0 .144-.065.144-.145v-2.542a.166.166 0 0 0-.144-.151zM21.004 18.478v-1.7a.525.525 0 0 0-.512-.512.503.503 0 0 0-.512.512v1.7c.007.28.232.505.512.512a.503.503 0 0 0 .512-.512z"/>
            <path d="M20.493 19.35a.884.884 0 0 1-.865-.865v-1.707c0-.478.387-.865.865-.865.474.01.856.392.866.865v1.7a.866.866 0 0 1-.866.873zm0-2.723a.144.144 0 0 0-.144.144v1.7c.01.075.069.135.144.144.08 0 .145-.065.145-.144v-1.693a.166.166 0 0 0-.145-.151zM48.157 18.478v-1.7a.525.525 0 0 0-.512-.512.503.503 0 0 0-.513.512v1.7c.007.28.233.505.513.512a.503.503 0 0 0 .512-.512z"/>
            <path d="M47.646 19.35a.884.884 0 0 1-.866-.865v-1.707c0-.478.388-.865.866-.865.474.01.856.392.866.865v1.7a.866.866 0 0 1-.866.873zm0-2.723a.144.144 0 0 0-.144.144v1.7c.01.075.069.135.144.144a.144.144 0 0 0 .144-.144v-1.693a.166.166 0 0 0-.144-.151zM7.965 8.26h3.614a.512.512 0 0 0 0-1.024H7.965a.512.512 0 1 0 0 1.023z"/>
            <path d="M11.579 8.62H7.965a.872.872 0 0 1 0-1.744h3.614a.872.872 0 0 1 0 1.744zM7.965 7.597a.15.15 0 1 0 0 .302h3.614a.15.15 0 1 0 0-.302H7.965zM7.551 17.817h4.456a.505.505 0 1 0 0-1.01H7.551a.505.505 0 1 0 0 1.01z"/>
            <path d="M12.007 18.178H7.551a.866.866 0 0 1 0-1.731h4.456a.866.866 0 0 1 0 1.73zm-4.456-1.01c-.033 0-.134 0-.134.144s.1.144.134.144h4.456c.034 0 .135 0 .135-.144s-.101-.144-.135-.144H7.551zM6.903 27.26h5.947a.505.505 0 0 0 0-1.01H6.903a.505.505 0 0 0 0 1.01z"/>
            <path d="M12.85 27.62H6.903a.866.866 0 0 1 0-1.731h5.947a.866.866 0 1 1 0 1.731zm-5.947-1.007c-.033 0-.134 0-.134.144 0 .145.101.145.134.145h5.947c.033 0 .134 0 .134-.145 0-.144-.1-.144-.134-.144H6.903zM40.63 25.048v-2.542a.525.525 0 0 0-.512-.512.503.503 0 0 0-.512.512v2.542c.007.28.232.505.512.512a.503.503 0 0 0 .512-.512z"/>
            <path d="M40.12 25.92a.884.884 0 0 1-.866-.866v-2.548a.866.866 0 0 1 .866-.866c.473.01.855.392.865.866v2.542a.866.866 0 0 1-.865.871zm0-3.566a.144.144 0 0 0-.145.145v2.542c.01.075.07.135.145.144a.144.144 0 0 0 .144-.144v-2.535a.166.166 0 0 0-.144-.152zM12.2 37.592h-.521l.512.512c0-3.219.082-6.437 0-9.64-.135-4.787-.397-9.574-.595-14.359-.148-3.533-.302-7.06-.461-10.58a.503.503 0 0 0-.513-.513H8.707a.525.525 0 0 0-.513.512c-.31 11.488-.63 22.981-.956 34.48a.505.505 0 1 0 1.01 0c.313-11.488.633-22.981.958-34.48l-.512.513h1.911l-.512-.513c.297 6.322.545 12.644.81 18.966.132 3.119.247 6.222.247 9.359v6.272c.001.283.23.512.513.513h.528a.505.505 0 1 0 0-1.01l.01-.032z"/>
            <path d="M12.19 38.993h-.529a.873.873 0 0 1-.865-.866V31.85c0-3.232-.123-6.388-.247-9.344-.066-1.58-.132-3.16-.196-4.74-.186-4.382-.374-8.91-.58-13.372h-.234c-.144 5.461-.304 11.01-.454 16.38-.16 5.652-.322 11.496-.48 17.24a.857.857 0 0 1-.88.839.866.866 0 0 1-.621-.251.818.818 0 0 1-.227-.608c.158-5.744.32-11.59.48-17.241.158-5.651.32-11.497.478-17.242v-.01a.889.889 0 0 1 .866-.85h.857l.023-.024v.023h.105v-.042l.042.042h.89c.478 0 .866.388.866.866.164 3.517.316 7.105.461 10.575.067 1.595.145 3.217.212 4.785.145 3.14.289 6.385.383 9.58.055 2.142.036 4.329.019 6.434 0 .769-.013 1.56-.016 2.344h.238l-.096.19a.854.854 0 0 1 .351.708.844.844 0 0 1-.495.789v.056l-.04-.04a.891.891 0 0 1-.312.056zM8.531 4.394c-.144 5.467-.304 11.01-.454 16.38-.16 5.652-.322 11.496-.48 17.24-.004.03.004.061.022.086.03.023.067.035.104.033a.144.144 0 0 0 .16-.144c.158-5.745.32-11.59.48-17.242.143-5.362.305-10.904.454-16.358l-.286.005zm2.98 32.837h.32c0-.787.01-1.587.015-2.35.018-2.103.036-4.279-.018-6.407-.088-3.187-.237-6.43-.381-9.566-.072-1.57-.145-3.193-.214-4.788-.134-3.19-.273-6.481-.423-9.724h-.317c.206 4.45.392 8.968.577 13.339l.196 4.74c.126 2.962.248 6.128.248 9.377l-.004 5.38z"/>
            <path d="M13.07 37.592H7.767a.505.505 0 1 0 0 1.01h5.305a.505.505 0 1 0 0-1.01z"/>
            <path d="M7.766 37.231h5.305a.866.866 0 1 1 0 1.731H7.766a.866.866 0 1 1 0-1.73zm5.299 1.01c.033 0 .134 0 .134-.144s-.1-.144-.134-.144H7.766c-.033 0-.134 0-.134.144s.1.144.134.144h5.299zM59.2 3.408V.866a.525.525 0 0 0-.51-.513.503.503 0 0 0-.512.513v2.542c.006.28.232.505.512.512a.503.503 0 0 0 .512-.512H59.2z"/>
            <path d="M58.69 4.279a.884.884 0 0 1-.866-.866V.866c0-.478.388-.866.866-.866.474.01.855.392.865.866v2.542a.866.866 0 0 1-.865.871zm0-3.565a.144.144 0 0 0-.145.144v2.55c.01.075.07.135.145.144.08 0 .144-.065.144-.144V.866a.166.166 0 0 0-.144-.152zM60.39 7.254H56.79a.512.512 0 1 0 0 1.023h3.598a.512.512 0 1 0 0-1.023z"/>
            <path d="M56.791 6.893h3.598a.872.872 0 1 1 0 1.744h-3.598a.872.872 0 1 1 0-1.744zm3.598 1.023a.15.15 0 1 0 0-.302h-3.598a.15.15 0 1 0 0 .302h3.598zM60.818 16.794H56.36a.505.505 0 1 0 0 1.01h4.457a.505.505 0 1 0 0-1.01z"/>
            <path d="M56.361 16.434h4.457a.866.866 0 1 1 0 1.73H56.36a.866.866 0 1 1 0-1.73zm4.457 1.01c.033 0 .134 0 .134-.145 0-.144-.101-.144-.134-.144H56.36c-.033 0-.134 0-.134.144s.101.144.134.144h4.457zM61.445 26.235h-5.942a.505.505 0 0 0 0 1.01h5.942a.505.505 0 1 0 0-1.01z"/>
            <path d="M55.503 25.874h5.942a.866.866 0 0 1 0 1.732h-5.942a.866.866 0 1 1 0-1.732zm5.942 1.01c.033 0 .134 0 .134-.144s-.1-.144-.134-.144h-5.942c-.033 0-.134 0-.134.144s.1.144.134.144h5.942z"/>
            <path d="M56.148 38.616h.526c.283 0 .512-.23.512-.512 0-3.219-.082-6.437 0-9.64.133-4.787.397-9.574.595-14.36.148-3.533.302-7.06.461-10.581l-.512.512h1.916l-.512-.512c.314 11.489.633 22.982.958 34.48a.505.505 0 1 0 1.01 0 35190.76 35190.76 0 0 0-.958-34.48.514.514 0 0 0-.512-.512h-1.916a.525.525 0 0 0-.512.512c-.297 6.322-.546 12.644-.81 18.966-.132 3.119-.248 6.222-.248 9.358v6.273l.512-.512h-.528a.505.505 0 1 0 0 1.01l.018-.002z"/>
            <path d="M55.787 38.991v-.082a.876.876 0 0 1 0-1.587V31.85c0-3.246.123-6.411.248-9.377.067-1.58.132-3.161.196-4.742.192-4.663.39-9.483.614-14.227a.89.89 0 0 1 .865-.855h.89l.042-.042v.043h.105v-.023l.024.023h.856c.477.004.862.39.866.866.157 5.743.32 11.586.479 17.237.159 5.651.322 11.497.479 17.241a.82.82 0 0 1-.226.61.866.866 0 0 1-.62.25.857.857 0 0 1-.882-.84c-.158-5.741-.32-11.584-.48-17.234-.144-5.372-.305-10.922-.455-16.387h-.224c-.144 3.236-.288 6.532-.423 9.724-.066 1.595-.144 3.218-.213 4.788a566.39 566.39 0 0 0-.38 9.568c-.056 2.128-.037 4.303-.02 6.407.009 1.056.02 2.148.02 3.223a.873.873 0 0 1-.866.865h-.546a.897.897 0 0 1-.288-.044l-.061.067zm3.734-34.595c.144 5.458.304 11.002.454 16.367.159 5.65.322 11.491.48 17.233a.144.144 0 0 0 .16.144.153.153 0 0 0 .099-.04.118.118 0 0 0 .021-.085c-.157-5.744-.32-11.588-.479-17.24-.144-5.37-.305-10.913-.454-16.38h-.281zm-3.013 32.853h.318c0-.792-.01-1.587-.016-2.362-.019-2.11-.036-4.292.019-6.433.088-3.196.238-6.442.382-9.58.072-1.569.144-3.19.212-4.786.134-3.181.271-6.466.421-9.694h-.317c-.206 4.461-.392 8.984-.577 13.367l-.196 4.742c-.126 2.956-.247 6.113-.247 9.344l.001 5.402z"/>
            <path d="M55.288 38.616h5.319a.505.505 0 0 0 0-1.01h-5.32a.505.505 0 1 0 0 1.01z"/>
            <path d="M60.607 38.977h-5.32a.866.866 0 1 1 0-1.731h5.32a.866.866 0 0 1 0 1.73zm-5.315-1.01c-.033 0-.134 0-.134.144 0 .145.101.145.134.145h5.315c.033 0 .134 0 .134-.145 0-.144-.1-.144-.134-.144h-5.315zM56.361 33.664H40.118a.505.505 0 1 0 0 1.01h16.243a.505.505 0 1 0 0-1.01z"/>
            <path d="M40.118 33.303h16.243a.866.866 0 1 1 0 1.731H40.118a.866.866 0 1 1 0-1.731zm16.243 1.01c.033 0 .134 0 .134-.145 0-.144-.1-.144-.134-.144H40.118c-.033 0-.134 0-.134.144 0 .145.1.145.134.145h16.243zM28.02 33.664H11.794a.505.505 0 1 0 0 1.01h16.243a.505.505 0 1 0 0-1.01h-.017z"/>
            <path d="M11.794 33.303h16.243a.866.866 0 1 1 0 1.731H11.794a.866.866 0 1 1 0-1.731zm16.243 1.01c.033 0 .134 0 .134-.145 0-.144-.1-.144-.134-.144H11.794c-.033 0-.134 0-.134.144 0 .145.1.145.134.145h16.243z"/>
        </g>
        <path d="M.866 38.616h63.91c.859 0 1.732.05 2.597 0h.116a.505.505 0 1 0 0-1.01H3.574c-.859 0-1.732-.049-2.597 0H.866a.505.505 0 1 0 0 1.01z"/>
        <path d="M66.508 38.999c-.289 0-.589 0-.875-.012-.285-.012-.577-.012-.854-.012H.866a.866.866 0 1 1 0-1.73H.97a22.12 22.12 0 0 1 1.741-.01c.287.01.577.01.854.01h63.911a.866.866 0 0 1 0 1.732h-.105c-.251.014-.537.022-.864.022zM.866 37.969c-.034 0-.135 0-.135.145 0 .144.101.144.135.144h63.91c.289 0 .577 0 .866.012.289.012.577.012.866.012.317 0 .591 0 .842-.022h.136c.033 0 .134 0 .134-.144 0-.145-.101-.145-.134-.145H3.574c-.289 0-.578 0-.866-.011-.289-.012-.577-.012-.866-.012-.317 0-.591 0-.842.022H.866z"/>
    </g>
</svg>
