<?xml version="1.0" encoding="UTF-8"?>
<svg width="1448px" height="801px" viewBox="0 0 1448 801" version="1.1" xmlns="http://www.w3.org/2000/svg" xmlns:xlink="http://www.w3.org/1999/xlink">
    <title>top-banner copy</title>
    <defs>
        <linearGradient x1="100%" y1="46.6246206%" x2="0%" y2="53.3753794%" id="linearGradient-1">
            <stop stop-color="#F7B500" offset="0%"></stop>
            <stop stop-color="#B620E0" offset="48.7416107%"></stop>
            <stop stop-color="#32C5FF" offset="100%"></stop>
        </linearGradient>
        <path d="M0,318.441888 C100.639223,231.223329 217.386674,182.179692 350.242352,171.310974 C544.789405,155.395381 590.964199,191.266984 924.2301,231.839014 C1142.0767,258.359815 1315.59116,181.080144 1444.77348,0 L1444.77348,781 L0,781 L0,318.441888 Z" id="path-2"></path>
        <path d="M0,318.441888 C100.639223,231.223329 217.386674,182.179692 350.242352,171.310974 C544.789405,155.395381 590.964199,191.266984 924.2301,231.839014 C1142.0767,258.359815 1315.59116,181.080144 1444.77348,0 L1444.77348,781 L0,781 L0,318.441888 Z" id="path-4"></path>
        <polygon id="path-6" points="0.432580424 79 0 78.5674231 78.5680557 0 79 0.432576941"></polygon>
        <linearGradient x1="98.6079706%" y1="1.39252669%" x2="-0.600888996%" y2="100.600587%" id="linearGradient-8">
            <stop stop-color="#628CFF" offset="0%"></stop>
            <stop stop-color="#628CFF" offset="100%"></stop>
        </linearGradient>
        <polygon id="path-9" points="0.865150399 158 0 157.13485 157.133577 0 158 0.867058819"></polygon>
        <linearGradient x1="100%" y1="0%" x2="0%" y2="100%" id="linearGradient-11">
            <stop stop-color="#F7B500" offset="0%"></stop>
            <stop stop-color="#B620E0" offset="48.7416107%"></stop>
            <stop stop-color="#32C5FF" offset="100%"></stop>
        </linearGradient>
        <polygon id="path-12" points="0.580417356 106 0 105.419583 105.418729 0 106 0.581697689"></polygon>
        <polygon id="path-14" points="0.410458145 75 0 74.5889129 74.588277 0 75 0.411087125"></polygon>
        <polygon id="path-16" points="0.268463868 49 -2.84217094e-14 48.732158 48.7309074 0 49 0.268470757"></polygon>
        <linearGradient x1="98.6071573%" y1="1.39231324%" x2="-0.59998332%" y2="100.602%" id="linearGradient-18">
            <stop stop-color="#628CFF" offset="0%"></stop>
            <stop stop-color="#628CFF" offset="100%"></stop>
        </linearGradient>
        <linearGradient x1="100%" y1="0%" x2="0%" y2="100%" id="linearGradient-19">
            <stop stop-color="#32C5FF" offset="0%"></stop>
            <stop stop-color="#B620E0" offset="51.2583893%"></stop>
            <stop stop-color="#F7B500" offset="100%"></stop>
        </linearGradient>
        <filter x="-32.2%" y="-32.2%" width="164.4%" height="164.4%" filterUnits="objectBoundingBox" id="filter-20">
            <feGaussianBlur stdDeviation="50" in="SourceGraphic"></feGaussianBlur>
        </filter>
    </defs>
    <g id="Page-1" stroke="none" stroke-width="1" fill="none" fill-rule="evenodd">
        <g id="top-banner-copy">
            <path d="M1446.60121,427.868726 C1436.54628,496.068852 1402.73932,552.271793 1345.19121,596.483727 C1286.70277,641.418081 1203.71761,673.967812 1096.25117,694.163559 C1025.77369,707.408117 911.704493,693.007305 782.833728,676.760529 C669.279061,662.444657 544.24188,646.683348 427.376677,647.058866 C326.088902,647.384329 131.575489,680.635025 1.89784254,799.738737 C1.83807769,799.523872 1.80827263,799.294909 1.77528709,799.033261 C1.59310489,797.588153 1.45353083,795.298165 1.35416036,792.16353 C1.15498734,785.880629 1.120874,776.234633 1.26057146,763.204565 C96.2489887,646.227951 211.599361,582.174403 347.325172,571.070885 C473.912244,560.714993 539.100874,571.793697 657.493138,591.906059 C725.310006,603.426722 810.571151,617.910711 934.78454,633.032538 C1046.43478,646.624918 1145.05343,636.11093 1230.64368,601.510656 C1315.40194,567.246718 1387.39036,509.362753 1446.60121,427.868726 Z" id="Rectangle-7-Copy" stroke="url(#linearGradient-1)" stroke-width="1.5" opacity="0.25" fill-rule="nonzero" transform="translate(724.098662, 612.973199) scale(1, -1) translate(-724.098662, -612.973199) "></path>
            <g id="Group-327">
                <mask id="mask-3" fill="white">
                    <use xlink:href="#path-2" transform="translate(722.386740, 390.500000) scale(1, -1) translate(-722.386740, -390.500000) "></use>
                </mask>
                <use id="Mask" fill="#EEF9FF" transform="translate(722.386740, 390.500000) scale(1, -1) translate(-722.386740, -390.500000) " xlink:href="#path-2"></use>
                <mask id="mask-5" fill="white">
                    <use xlink:href="#path-4" transform="translate(722.386740, 390.500000) scale(1, -1) translate(-722.386740, -390.500000) "></use>
                </mask>
                <use id="grey-bg" fill="#F6F8FF" transform="translate(722.386740, 390.500000) scale(1, -1) translate(-722.386740, -390.500000) " xlink:href="#path-4"></use>
                <g id="Group-58" opacity="0.07" mask="url(#mask-5)">
                    <g transform="translate(1003.000000, 318.500000) scale(-1, 1) translate(-1003.000000, -318.500000) translate(684.000000, 15.000000)">
                        <g id="Group-19" transform="translate(74.000000, 0.000000)">
                            <path d="M84.8835187,128.000344 C84.8835187,104.187463 104.187536,84.8841852 127.999794,84.8841852 C151.814115,84.8841852 171.118133,104.187463 171.118133,128.000344 C171.118133,151.813913 151.814115,171.117879 127.999794,171.117879 C104.187536,171.117879 84.8835187,151.813913 84.8835187,128.000344 Z" id="Stroke-1" stroke="#638DFF" stroke-width="2"></path>
                            <path d="M181.728151,128.000344 C181.728151,157.673714 157.674344,181.728144 128.000206,181.728144 C98.3274448,181.728144 74.2729499,157.673714 74.2729499,128.000344 C74.2729499,98.3276622 98.3274448,74.2732319 128.000206,74.2732319 C157.674344,74.2732319 181.728151,98.3276622 181.728151,128.000344 Z" id="Stroke-3" stroke="#638DFF" stroke-width="1.796"></path>
                            <path d="M192.338376,128.000344 C192.338376,163.533515 163.534092,192.33841 128.000138,192.33841 C92.4675595,192.33841 63.6632756,163.533515 63.6632756,128.000344 C63.6632756,92.4678615 92.4675595,63.6629668 128.000138,63.6629668 C163.534092,63.6629668 192.338376,92.4678615 192.338376,128.000344 Z" id="Stroke-5" stroke="#638DFF" stroke-width="1.592"></path>
                            <path d="M202.94867,128.000344 C202.94867,169.393316 169.39322,202.948675 128.000138,202.948675 C86.6070549,202.948675 53.0522938,169.393316 53.0522938,128.000344 C53.0522938,86.6073726 86.6070549,53.0527018 128.000138,53.0527018 C169.39322,53.0527018 202.94867,86.6073726 202.94867,128.000344 Z" id="Stroke-7" stroke="#638DFF" stroke-width="1.388"></path>
                            <path d="M213.558963,128.000344 C213.558963,175.253804 175.253725,213.55894 128.000138,213.55894 C80.7479266,213.55894 42.4420002,175.253804 42.4420002,128.000344 C42.4420002,80.7475719 80.7479266,42.4417485 128.000138,42.4417485 C175.253725,42.4417485 213.558963,80.7475719 213.558963,128.000344 Z" id="Stroke-9" stroke="#638DFF" stroke-width="1.184"></path>
                            <path d="M224.169188,128.000344 C224.169188,181.113605 181.114161,224.169205 128.000069,224.169205 C74.8873532,224.169205 31.8316378,181.113605 31.8316378,128.000344 C31.8316378,74.8877712 74.8873532,31.8314834 128.000069,31.8314834 C181.114161,31.8314834 224.169188,74.8877712 224.169188,128.000344 Z" id="Stroke-11" stroke="#638DFF" stroke-width="0.98"></path>
                            <path d="M234.779482,128.000344 C234.779482,186.973406 186.973289,234.780158 128.000069,234.780158 C69.0275367,234.780158 21.220656,186.973406 21.220656,128.000344 C21.220656,69.0272823 69.0275367,21.2212183 128.000069,21.2212183 C186.973289,21.2212183 234.779482,69.0272823 234.779482,128.000344 Z" id="Stroke-13" stroke="#638DFF" stroke-width="0.776"></path>
                            <path d="M245.389775,128.000344 C245.389775,192.833207 192.833106,245.389735 128.000069,245.389735 C63.1677203,245.389735 10.6103624,192.833207 10.6103624,128.000344 C10.6103624,63.1674816 63.1677203,10.6109533 128.000069,10.6109533 C192.833106,10.6109533 245.389775,63.1674816 245.389775,128.000344 Z" id="Stroke-15" stroke="#638DFF" stroke-width="0.572"></path>
                            <path d="M0,128.000344 C0,57.3069928 57.3071468,0 128,0 C198.693541,0 256,57.3069928 256,128.000344 C256,198.693695 198.693541,256 128,256 C57.3071468,256 0,198.693695 0,128.000344 Z" id="Stroke-17" stroke="#638DFF" stroke-width="0.368"></path>
                        </g>
                        <g id="Group-38" transform="translate(0.000000, 268.000000)">
                            <path d="M112.404506,169.500346 C112.404506,137.966668 137.966949,112.404277 169.5,112.404277 C201.034434,112.404277 226.597568,137.966668 226.597568,169.500346 C226.597568,201.034024 201.034434,226.597106 169.5,226.597106 C137.966949,226.597106 112.404506,201.034024 112.404506,169.500346 Z" id="Stroke-20" stroke="#638DFF" stroke-width="2.636"></path>
                            <path d="M240.647578,169.500346 C240.647578,208.793862 208.794426,240.646949 169.500138,240.646949 C130.207233,240.646949 98.3540813,208.793862 98.3540813,169.500346 C98.3540813,130.206138 130.207233,98.3537424 169.500138,98.3537424 C208.794426,98.3537424 240.647578,130.206138 240.647578,169.500346 Z" id="Stroke-22" stroke="#638DFF" stroke-width="2.367"></path>
                            <path d="M254.69828,169.500346 C254.69828,216.554392 216.554419,254.697484 169.500277,254.697484 C122.446825,254.697484 84.3036563,216.554392 84.3036563,169.500346 C84.3036563,122.446299 122.446825,84.3032078 169.500277,84.3032078 C216.554419,84.3032078 254.69828,122.446299 254.69828,169.500346 Z" id="Stroke-24" stroke="#638DFF" stroke-width="2.098"></path>
                            <path d="M268.748359,169.500346 C268.748359,224.313539 224.31379,268.74871 169.499793,268.74871 C114.687178,268.74871 70.2533004,224.313539 70.2533004,169.500346 C70.2533004,114.686461 114.687178,70.2526732 169.499793,70.2526732 C224.31379,70.2526732 268.748359,114.686461 268.748359,169.500346 Z" id="Stroke-26" stroke="#638DFF" stroke-width="1.829"></path>
                            <path d="M282.79906,169.500346 C282.79906,232.074069 232.074474,282.798553 169.499931,282.798553 C106.926771,282.798553 56.202184,232.074069 56.202184,169.500346 C56.202184,106.926622 106.926771,56.2021385 169.499931,56.2021385 C232.074474,56.2021385 282.79906,106.926622 282.79906,169.500346 Z" id="Stroke-28" stroke="#638DFF" stroke-width="1.561"></path>
                            <path d="M296.84914,169.500346 C296.84914,239.833217 239.833844,296.848396 169.500138,296.848396 C99.1671238,296.848396 42.1518281,239.833217 42.1518281,169.500346 C42.1518281,99.1667833 99.1671238,42.1516039 169.500138,42.1516039 C239.833844,42.1516039 296.84914,99.1667833 296.84914,169.500346 Z" id="Stroke-30" stroke="#638DFF" stroke-width="1.292"></path>
                            <path d="M310.899219,169.500346 C310.899219,247.593055 247.593906,310.898931 169.499654,310.898931 C91.4074767,310.898931 28.1007809,247.593055 28.1007809,169.500346 C28.1007809,91.4062533 91.4074767,28.1010693 169.499654,28.1010693 C247.593906,28.1010693 310.899219,91.4062533 310.899219,169.500346 Z" id="Stroke-32" stroke="#638DFF" stroke-width="1.023"></path>
                            <path d="M324.949921,169.500346 C324.949921,255.353585 255.353899,324.950157 169.499793,324.950157 C83.6477605,324.950157 14.0510472,255.353585 14.0510472,169.500346 C14.0510472,83.6464146 83.6477605,14.0505346 169.499793,14.0505346 C255.353899,14.0505346 324.949921,83.6464146 324.949921,169.500346 Z" id="Stroke-34" stroke="#638DFF" stroke-width="0.754"></path>
                            <path d="M-4.70134629e-15,169.500346 C-4.70134629e-15,75.886576 75.8881135,0 169.5,0 C263.113269,0 339,75.886576 339,169.500346 C339,263.112733 263.113269,339 169.5,339 C75.8881135,339 -4.70134629e-15,263.112733 -4.70134629e-15,169.500346 Z" id="Stroke-36" stroke="#638DFF" stroke-width="0.485"></path>
                        </g>
                        <g id="Group-57" transform="translate(455.000000, 208.000000)">
                            <path d="M60.6790561,91.4993113 C60.6790561,74.4774809 74.4779678,60.6779325 91.5005509,60.6779325 C108.523134,60.6779325 122.322734,74.4774809 122.322734,91.4993113 C122.322734,108.522519 108.523134,122.322068 91.5005509,122.322068 C74.4779678,122.322068 60.6790561,108.522519 60.6790561,91.4993113 Z" id="Stroke-39" stroke="#638DFF" stroke-width="1.5"></path>
                            <path d="M129.90735,91.4993113 C129.90735,112.711692 112.71191,129.907067 91.5001377,129.907067 C70.2890543,129.907067 53.0943032,112.711692 53.0943032,91.4993113 C53.0943032,70.2883077 70.2890543,53.0929327 91.5001377,53.0929327 C112.71191,53.0929327 129.90735,70.2883077 129.90735,91.4993113 Z" id="Stroke-41" stroke="#638DFF" stroke-width="1.345"></path>
                            <path d="M137.492171,91.4993113 C137.492171,116.900177 116.901581,137.491378 91.5006198,137.491378 C66.0996587,137.491378 45.5097569,116.900177 45.5097569,91.4993113 C45.5097569,66.0991345 66.0996587,45.5086215 91.5006198,45.5086215 C116.901581,45.5086215 137.492171,66.0991345 137.492171,91.4993113 Z" id="Stroke-43" stroke="#638DFF" stroke-width="1.191"></path>
                            <path d="M145.076993,91.4993113 C145.076993,121.08935 121.089875,145.076378 91.5004132,145.076378 C61.9109518,145.076378 37.924522,121.08935 37.924522,91.4993113 C37.924522,61.9106499 61.9109518,37.9236217 91.5004132,37.9236217 C121.089875,37.9236217 145.076993,61.9106499 145.076993,91.4993113 Z" id="Stroke-45" stroke="#638DFF" stroke-width="1.036"></path>
                            <path d="M152.661126,91.4993113 C152.661126,125.278523 125.278857,152.660689 91.5002066,152.660689 C57.7222448,152.660689 30.3399757,125.278523 30.3399757,91.4993113 C30.3399757,57.7214767 57.7222448,30.3386219 91.5002066,30.3386219 C125.278857,30.3386219 152.661126,57.7214767 152.661126,91.4993113 Z" id="Stroke-47" stroke="#638DFF" stroke-width="0.881"></path>
                            <path d="M160.245879,91.4993113 C160.245879,129.467008 129.468459,160.245689 91.5006198,160.245689 C53.5327804,160.245689 22.7546719,129.467008 22.7546719,91.4993113 C22.7546719,53.5323035 53.5327804,22.7543108 91.5006198,22.7543108 C129.468459,22.7543108 160.245879,53.5323035 160.245879,91.4993113 Z" id="Stroke-49" stroke="#638DFF" stroke-width="0.727"></path>
                            <path d="M167.830701,91.4993113 C167.830701,133.656181 133.656753,167.830689 91.5004132,167.830689 C49.3440735,167.830689 15.1694369,133.656181 15.1694369,91.4993113 C15.1694369,49.3431302 49.3440735,15.169311 91.5004132,15.169311 C133.656753,15.169311 167.830701,49.3431302 167.830701,91.4993113 Z" id="Stroke-51" stroke="#638DFF" stroke-width="0.572"></path>
                            <path d="M175.415454,91.4993113 C175.415454,137.844666 137.845666,175.415689 91.5001377,175.415689 C45.1552977,175.415689 7.58482175,137.844666 7.58482175,91.4993113 C7.58482175,45.1546457 45.1552977,7.58431114 91.5001377,7.58431114 C137.845666,7.58431114 175.415454,45.1546457 175.415454,91.4993113 Z" id="Stroke-53" stroke="#638DFF" stroke-width="0.417"></path>
                            <path d="M0,91.4993113 C0,40.9654725 40.9656266,0 91.5003443,0 C142.035062,0 183,40.9654725 183,91.4993113 C183,142.033839 142.035062,183 91.5003443,183 C40.9656266,183 0,142.033839 0,91.4993113 Z" id="Stroke-55" stroke="#638DFF" stroke-width="0.263"></path>
                        </g>
                    </g>
                </g>
                <g id="Group-16" opacity="0.5" mask="url(#mask-5)">
                    <g transform="translate(-13.000000, -32.000000)">
                        <g id="Group-6" transform="translate(0.000000, 483.000000)">
                            <mask id="mask-7" fill="white">
                                <use xlink:href="#path-6"></use>
                            </mask>
                            <g id="Clip-5"></g>
                            <polygon id="Fill-4" fill="url(#linearGradient-8)" mask="url(#mask-7)" points="0.432580424 79 0 78.5674231 78.5680557 0 79 0.432576941"></polygon>
                        </g>
                        <g id="Group-9" transform="translate(799.000000, 0.000000)">
                            <mask id="mask-10" fill="white">
                                <use xlink:href="#path-9"></use>
                            </mask>
                            <g id="Clip-8"></g>
                            <path d="" id="Fill-7" stroke="url(#linearGradient-11)" stroke-width="1.5" opacity="0.25" fill-rule="nonzero" mask="url(#mask-10)"></path>
                        </g>
                        <g id="Group-9-Copy-2" transform="translate(379.000000, 132.000000)">
                            <mask id="mask-13" fill="white">
                                <use xlink:href="#path-12"></use>
                            </mask>
                            <g id="Clip-8"></g>
                            <path d="" id="Fill-7" stroke="url(#linearGradient-11)" stroke-width="1.5" opacity="0.25" fill-rule="nonzero" mask="url(#mask-13)"></path>
                        </g>
                        <g id="Group-12" transform="translate(172.000000, 568.000000)">
                            <mask id="mask-15" fill="white">
                                <use xlink:href="#path-14"></use>
                            </mask>
                            <g id="Clip-11"></g>
                            <path d="" id="Fill-10" stroke="url(#linearGradient-11)" stroke-width="1.5" opacity="0.800000012" fill-rule="nonzero" mask="url(#mask-15)"></path>
                        </g>
                        <g id="Group-15" transform="translate(522.000000, 529.000000)">
                            <mask id="mask-17" fill="white">
                                <use xlink:href="#path-16"></use>
                            </mask>
                            <g id="Clip-14"></g>
                            <polygon id="Fill-13" fill="url(#linearGradient-18)" mask="url(#mask-17)" points="0.268463868 49 -2.84217094e-14 48.732158 48.7309074 0 49 0.268470757"></polygon>
                        </g>
                    </g>
                </g>
                <g id="Group-15" mask="url(#mask-5)" fill-rule="nonzero">
                    <g transform="translate(470.721671, 374.540344) scale(-1, -1) rotate(-100.000000) translate(-470.721671, -374.540344) translate(274.981366, 213.249781)">
                        <circle id="Oval-Copy" stroke="url(#linearGradient-19)" stroke-width="3" fill="none" opacity="0.231073289" cx="332.634561" cy="307.081127" r="14"></circle>
                        <circle id="Oval-Copy-14" stroke="none" fill="#C6CAFF" opacity="0.800000012" cx="381.48061" cy="184.195717" r="10"></circle>
                        <circle id="Oval-Copy-15" stroke="#BFC3EB" stroke-width="1" fill="none" opacity="0.600000024" cx="83" cy="83" r="82.5"></circle>
                    </g>
                </g>
                <circle id="blur" fill="#FFFFFF" fill-rule="nonzero" opacity="0.600000024" filter="url(#filter-20)" mask="url(#mask-5)" cx="369" cy="285.5" r="233"></circle>
            </g>
        </g>
    </g>
</svg>