<svg width="23" height="18" viewBox="0 0 23 18" xmlns="http://www.w3.org/2000/svg" xmlns:xlink="http://www.w3.org/1999/xlink">
    <defs>
        <path id="3lw4zkvxra" d="M0 0h22.154v17.041H0z"/>
    </defs>
    <g fill="none" fill-rule="evenodd">
        <g>
            <mask id="p55qs0rplb" fill="#fff">
                <use xlink:href="#3lw4zkvxra"/>
            </mask>
            <path d="M20.208 9.254c-.53.577-.823 1.4-.823 2.317v2.63H2.769v-2.63c0-.917-.292-1.74-.823-2.317a2.151 2.151 0 0 1 .171-3.066 2.043 2.043 0 0 1 1.698-.478c.982.164 1.723 1.133 1.723 2.253V11.36h11.077V7.963c0-1.12.741-2.089 1.723-2.253a2.023 2.023 0 0 1 1.699.477 2.151 2.151 0 0 1 .171 3.067M7.615 1.42h6.924c1.703 0 3.115 1.271 3.4 2.936-1.553.356-2.708 1.865-2.708 3.607V9.94H6.923V7.963c0-1.742-1.155-3.25-2.709-3.607C4.5 2.692 5.912 1.42 7.615 1.42m13.32 3.686a3.394 3.394 0 0 0-1.612-.764C19.018 1.9 17 0 14.538 0H7.615C5.153 0 3.136 1.9 2.831 4.343a3.4 3.4 0 0 0-1.611.763A3.585 3.585 0 0 0 0 7.81c0 .9.333 1.758.938 2.416.288.314.447.79.447 1.344v3.34c0 .393.31.71.692.71h2.077v1.42h1.384v-1.42h11.077v1.42H18v-1.42h2.077a.7.7 0 0 0 .692-.71v-3.34c0-.553.158-1.03.446-1.344a3.56 3.56 0 0 0 .939-2.416 3.585 3.585 0 0 0-1.22-2.705" fill="#787878" fill-rule="nonzero" mask="url(#p55qs0rplb)"/>
        </g>
        <path d="M19.348 8.271a.852.852 0 1 1-1.205-1.205.852.852 0 0 1 1.205 1.205zM4.01 7.066a.852.852 0 1 1-1.204 1.205.852.852 0 0 1 1.205-1.205" fill="#AB001F" fill-rule="nonzero"/>
    </g>
</svg>
