<svg width="16" height="16" viewBox="0 0 16 16" xmlns="http://www.w3.org/2000/svg">
    <g opacity=".7">
        <g opacity=".6" fill="#000" fill-rule="nonzero">
            <path d="M9.86 5.802h-.359a2.364 2.364 0 0 0-.304-.592h.664a.5.5 0 0 0 0-1H7.319c-.018 0-.036-.003-.055-.003H5.942a.5.5 0 1 0 0 1h1.322c.451 0 .873.223 1.128.595h-2.43a.5.5 0 1 0 0 1h2.649a1.368 1.368 0 0 1-1.347 1.144H5.942a.5.5 0 0 0-.363.844l2.704 2.85a.5.5 0 1 0 .725-.688L7.105 8.946h.16a2.372 2.372 0 0 0 2.358-2.144h.238a.5.5 0 0 0 0-1z"/>
            <path d="M8 16a8 8 0 1 1 4.703-14.472.5.5 0 0 1-.588.809 6.99 6.99 0 1 0 2.046 2.338.5.5 0 0 1 .88-.475A8.002 8.002 0 0 1 8 16z"/>
            <path d="M13.707 3.633a.5.5 0 0 1-.38-.174l-.09-.104a.5.5 0 1 1 .747-.664l.102.117a.5.5 0 0 1-.38.825z"/>
        </g>
    </g>
</svg>
