<svg width="87" height="40" viewBox="0 0 87 40" xmlns="http://www.w3.org/2000/svg" xmlns:xlink="http://www.w3.org/1999/xlink">
    <defs>
        <path id="k5wz84nyza" d="M0 40h86.36V0H0z"/>
    </defs>
    <g fill="none" fill-rule="evenodd" opacity=".8">
        <path d="m67.727 9.355-.054.01-.029-.048c-.177-.303-.526-.492-.91-.492-.137 0-.268.023-.393.069l-.06.022-.034-.054c-.228-.362-.661-.586-1.133-.586-.562 0-1.057.314-1.23.782l-.017.048-.05.003a1.104 1.104 0 0 0-.627.248l-.03.027-.04-.01a1.15 1.15 0 0 0-.29-.038c-.566 0-1.026.407-1.026.907s.46.907 1.026.907l5.183-.005c.522-.026.945-.43.945-.902 0-.5-.459-.907-1.025-.907-.068 0-.139.007-.206.02m-6.082.887c0-.587.531-1.065 1.185-1.065.097 0 .195.01.29.033.178-.14.4-.229.635-.255.21-.503.75-.84 1.359-.84.503 0 .969.233 1.232.61.123-.04.255-.06.387-.06.42 0 .806.2 1.02.525.06-.009.12-.013.18-.013.652 0 1.184.478 1.184 1.065 0 .564-.48 1.03-1.1 1.06l-5.187.005c-.654 0-1.185-.478-1.185-1.065" fill="#4B5471"/>
        <path d="m67.727 9.355-.054.01-.029-.048c-.177-.303-.526-.492-.91-.492-.137 0-.268.023-.393.069l-.06.022-.034-.054c-.228-.362-.661-.586-1.133-.586-.562 0-1.057.314-1.23.782l-.017.048-.05.003a1.104 1.104 0 0 0-.627.248l-.03.027-.04-.01a1.15 1.15 0 0 0-.29-.038c-.566 0-1.026.407-1.026.907s.46.907 1.026.907l5.183-.005c.522-.026.945-.43.945-.902 0-.5-.459-.907-1.025-.907-.068 0-.139.007-.206.02zm-6.082.888c0-.587.531-1.065 1.185-1.065.097 0 .195.01.29.033.178-.14.4-.229.635-.255.21-.503.75-.84 1.359-.84.503 0 .969.233 1.232.61.123-.04.255-.06.387-.06.42 0 .806.2 1.02.525.06-.009.12-.013.18-.013.652 0 1.184.478 1.184 1.065 0 .564-.48 1.03-1.1 1.06l-5.187.005c-.654 0-1.185-.478-1.185-1.065z" stroke="#4B5471" stroke-width=".75"/>
        <path d="M30.08 6.374c-.565 0-1.024.407-1.024.906 0 .472.423.877.945.903l5.183.004c.566 0 1.026-.406 1.026-.907 0-.5-.46-.906-1.026-.906-.098 0-.195.012-.29.037l-.04.01-.03-.026a1.103 1.103 0 0 0-.626-.248l-.051-.004-.017-.048c-.173-.468-.668-.782-1.23-.782-.472 0-.906.225-1.133.587l-.033.054-.061-.023a1.137 1.137 0 0 0-.392-.068c-.385 0-.734.188-.911.492l-.029.048-.054-.01a1.138 1.138 0 0 0-.207-.02m5.104 1.973-5.187-.005c-.62-.03-1.1-.497-1.1-1.06 0-.588.532-1.066 1.183-1.066.061 0 .121.005.18.013.215-.324.6-.524 1.02-.524.133 0 .264.02.388.059.263-.376.73-.609 1.232-.609.61 0 1.148.336 1.36.84.233.026.455.115.634.254.095-.022.192-.033.29-.033.653 0 1.185.478 1.185 1.065s-.532 1.066-1.185 1.066" fill="#4B5471"/>
        <path d="M30.08 6.374c-.565 0-1.024.407-1.024.906 0 .472.423.877.945.903l5.183.004c.566 0 1.026-.406 1.026-.907 0-.5-.46-.906-1.026-.906-.098 0-.195.012-.29.037l-.04.01-.03-.026a1.103 1.103 0 0 0-.626-.248l-.051-.004-.017-.048c-.173-.468-.668-.782-1.23-.782-.472 0-.906.225-1.133.587l-.033.054-.061-.023a1.137 1.137 0 0 0-.392-.068c-.385 0-.734.188-.911.492l-.029.048-.054-.01a1.138 1.138 0 0 0-.207-.02zm5.104 1.972-5.187-.005c-.62-.03-1.1-.497-1.1-1.06 0-.588.532-1.066 1.183-1.066.061 0 .121.005.18.013.215-.324.6-.524 1.02-.524.133 0 .264.02.388.059.263-.376.73-.609 1.232-.609.61 0 1.148.336 1.36.84.233.026.455.115.634.254.095-.022.192-.033.29-.033.653 0 1.185.478 1.185 1.065s-.532 1.066-1.185 1.066z" stroke="#4B5471" stroke-width=".75"/>
        <path d="M38.76 29.942h-.85v-.653c.005-.1.066-.284.425-.397.336.108.419.273.426.397v.653zm.242-.656c-.007-.136-.1-.388-.612-.53l-.055-.013-.054.013c-.539.15-.608.42-.612.533v.787h1.333v-.79z" fill="#4B5471"/>
        <path d="M38.76 29.942h-.85v-.653c.005-.1.066-.284.425-.397.336.108.419.273.426.397v.653zm.242-.656c-.007-.136-.1-.388-.612-.53l-.055-.013-.054.013c-.539.15-.608.42-.612.533v.787h1.333v-.79z" stroke="#4B5471" stroke-width=".75"/>
        <path d="M39.4 29.942h-.852v-.653c.005-.1.067-.284.426-.397.336.108.418.273.425.397v.653zm.24-.656c-.007-.136-.099-.388-.612-.53l-.054-.013-.055.013c-.539.15-.607.42-.612.533v.787h1.333v-.79z" fill="#4B5471"/>
        <path d="M39.4 29.942h-.852v-.653c.005-.1.067-.284.426-.397.336.108.418.273.425.397v.653zm.24-.656c-.007-.136-.099-.388-.612-.53l-.054-.013-.055.013c-.539.15-.607.42-.612.533v.787h1.333v-.79z" stroke="#4B5471" stroke-width=".75"/>
        <path d="M38.123 29.942h-.851v-.653c.005-.1.066-.284.425-.397.336.108.419.273.426.397v.653zm.24-.656c-.006-.136-.099-.388-.611-.53l-.055-.013-.054.013c-.54.15-.608.42-.613.533v.787h1.334v-.79z" fill="#4B5471"/>
        <path d="M38.123 29.942h-.851v-.653c.005-.1.066-.284.425-.397.336.108.419.273.426.397v.653zm.24-.656c-.006-.136-.099-.388-.611-.53l-.055-.013-.054.013c-.54.15-.608.42-.613.533v.787h1.334v-.79z" stroke="#4B5471" stroke-width=".75"/>
        <path d="M37.484 29.942h-.85v-.653c.004-.1.065-.284.425-.397.336.108.418.273.425.397v.653zm.242-.656c-.008-.136-.1-.388-.613-.53l-.054-.013-.055.013c-.539.15-.607.42-.612.533v.787h1.334v-.79z" fill="#4B5471"/>
        <path d="M37.484 29.942h-.85v-.653c.004-.1.065-.284.425-.397.336.108.418.273.425.397v.653zm.242-.656c-.008-.136-.1-.388-.613-.53l-.054-.013-.055.013c-.539.15-.607.42-.612.533v.787h1.334v-.79z" stroke="#4B5471" stroke-width=".75"/>
        <path d="M41.527 29.942h-.851v-.653c.005-.1.066-.284.425-.397.336.108.419.273.426.397v.653zm.24-.656c-.006-.136-.098-.388-.611-.53l-.055-.013-.054.013c-.539.147-.607.42-.612.533v.787h1.333v-.79z" fill="#4B5471"/>
        <path d="M41.527 29.942h-.851v-.653c.005-.1.066-.284.425-.397.336.108.419.273.426.397v.653zm.24-.656c-.006-.136-.098-.388-.611-.53l-.055-.013-.054.013c-.539.147-.607.42-.612.533v.787h1.333v-.79z" stroke="#4B5471" stroke-width=".75"/>
        <path d="M42.165 29.942h-.852v-.596l.002-.057c.005-.1.066-.284.422-.397.354.113.42.297.428.397v.653zm.24-.656c-.007-.136-.099-.388-.613-.53l-.055-.013-.054.013c-.448.123-.569.336-.6.464l-.011.856h1.333v-.79z" fill="#4B5471"/>
        <path d="M42.165 29.942h-.852v-.596l.002-.057c.005-.1.066-.284.422-.397.354.113.42.297.428.397v.653zm.24-.656c-.007-.136-.099-.388-.613-.53l-.055-.013-.054.013c-.448.123-.569.336-.6.464l-.011.856h1.333v-.79z" stroke="#4B5471" stroke-width=".75"/>
        <path d="M40.038 29.942v-.653c.004-.1.066-.284.425-.397.357.113.418.297.423.397l.003.653h-.851zm1.092-.653-.003-.069h-.01c-.03-.128-.15-.34-.6-.464l-.054-.013-.054.013c-.54.15-.608.42-.613.533v.787h1.334v-.787z" fill="#4B5471"/>
        <path d="M40.038 29.942v-.653c.004-.1.066-.284.425-.397.357.113.418.297.423.397l.003.653h-.851zm1.092-.653-.003-.069h-.01c-.03-.128-.15-.34-.6-.464l-.054-.013-.054.013c-.54.15-.608.42-.613.533v.787h1.334v-.787z" stroke="#4B5471" stroke-width=".75"/>
        <path d="M40.25 29.942h-.852v-.596l.002-.057c.005-.1.066-.284.425-.397.354.113.418.297.425.397v.653zm.24-.656c-.007-.11-.08-.383-.61-.53l-.055-.013-.054.013c-.451.123-.571.336-.602.464l-.012.856h1.333v-.79z" fill="#4B5471"/>
        <path d="M40.25 29.942h-.852v-.596l.002-.057c.005-.1.066-.284.425-.397.354.113.418.297.425.397v.653zm.24-.656c-.007-.11-.08-.383-.61-.53l-.055-.013-.054.013c-.451.123-.571.336-.602.464l-.012.856h1.333v-.79z" stroke="#4B5471" stroke-width=".75"/>
        <path d="M44.425 29.942h-.851v-.65c.007-.127.09-.292.425-.4.336.108.419.273.426.397v.653zm.24-.656c-.006-.136-.098-.388-.612-.53L44 28.743l-.054.013c-.513.142-.605.394-.612.533v.787h1.333v-.79z" fill="#4B5471"/>
        <path d="M44.425 29.942h-.851v-.65c.007-.127.09-.292.425-.4.336.108.419.273.426.397v.653zm.24-.656c-.006-.136-.098-.388-.612-.53L44 28.743l-.054.013c-.513.142-.605.394-.612.533v.787h1.333v-.79z" stroke="#4B5471" stroke-width=".75"/>
        <path d="M45.057 29.942h-.85v-.653c.004-.1.066-.284.426-.397.357.113.419.297.424.397v.653zm.241-.656c-.005-.11-.073-.383-.61-.53l-.055-.013-.054.013c-.541.147-.61.42-.614.533v.787h1.333v-.79z" fill="#4B5471"/>
        <path d="M45.057 29.942h-.85v-.653c.004-.1.066-.284.426-.397.357.113.419.297.424.397v.653zm.241-.656c-.005-.11-.073-.383-.61-.53l-.055-.013-.054.013c-.541.147-.61.42-.614.533v.787h1.333v-.79z" stroke="#4B5471" stroke-width=".75"/>
        <path d="M45.688 29.942h-.85v-.65c.006-.127.089-.292.425-.4.359.113.42.297.425.397v.653zm.241-.656c-.005-.11-.073-.38-.612-.53l-.054-.013-.055.013c-.512.142-.605.394-.612.533v.787h1.333v-.79z" fill="#4B5471"/>
        <path d="M45.688 29.942h-.85v-.65c.006-.127.089-.292.425-.4.359.113.42.297.425.397v.653zm.241-.656c-.005-.11-.073-.38-.612-.53l-.054-.013-.055.013c-.512.142-.605.394-.612.533v.787h1.333v-.79z" stroke="#4B5471" stroke-width=".75"/>
        <path d="M46.32 29.942h-.852v-.596l.002-.057c.005-.1.066-.284.423-.397.354.113.42.297.427.397v.653zm.24-.656c-.007-.136-.099-.388-.613-.53l-.054-.013-.055.013c-.448.126-.568.336-.6.464l-.011.856h1.333v-.79z" fill="#4B5471"/>
        <path d="M46.32 29.942h-.852v-.596l.002-.057c.005-.1.066-.284.423-.397.354.113.42.297.427.397v.653zm.24-.656c-.007-.136-.099-.388-.613-.53l-.054-.013-.055.013c-.448.126-.568.336-.6.464l-.011.856h1.333v-.79z" stroke="#4B5471" stroke-width=".75"/>
        <path d="M42.941 29.942v-.65c.007-.127.09-.292.427-.4.357.113.418.297.423.397l.002.653h-.852zm1.093-.653-.003-.069h-.01c-.03-.128-.15-.338-.599-.464l-.054-.013-.054.013c-.514.142-.606.394-.614.533v.787h1.334v-.787z" fill="#4B5471"/>
        <path d="M42.941 29.942v-.65c.007-.127.09-.292.427-.4.357.113.418.297.423.397l.002.653h-.852zm1.093-.653-.003-.069h-.01c-.03-.128-.15-.338-.599-.464l-.054-.013-.054.013c-.514.142-.606.394-.614.533v.787h1.334v-.787z" stroke="#4B5471" stroke-width=".75"/>
        <path d="M43.161 29.942h-.85v-.653c.004-.1.066-.284.425-.397.36.113.421.297.425.397v.653zm.242-.656c-.005-.11-.074-.38-.613-.53l-.054-.013-.055.013c-.538.15-.607.42-.612.533v.787h1.334v-.79z" fill="#4B5471"/>
        <path d="M43.161 29.942h-.85v-.653c.004-.1.066-.284.425-.397.36.113.421.297.425.397v.653zm.242-.656c-.005-.11-.074-.38-.613-.53l-.054-.013-.055.013c-.538.15-.607.42-.612.533v.787h1.334v-.79z" stroke="#4B5471" stroke-width=".75"/>
        <path d="M52.607 29.942h-.851v-.65c.007-.127.09-.292.425-.4.36.113.421.297.426.397v.653zm.241-.656c-.005-.11-.073-.38-.612-.53l-.055-.013-.054.013c-.513.142-.605.394-.612.533v.787h1.333v-.79z" fill="#4B5471"/>
        <path d="M52.607 29.942h-.851v-.65c.007-.127.09-.292.425-.4.36.113.421.297.426.397v.653zm.241-.656c-.005-.11-.073-.38-.612-.53l-.055-.013-.054.013c-.513.142-.605.394-.612.533v.787h1.333v-.79z" stroke="#4B5471" stroke-width=".75"/>
        <path d="M53.24 29.942h-.852v-.653c.005-.1.067-.284.426-.397.359.113.42.297.425.397v.653zm.24-.656c-.005-.11-.073-.38-.612-.53l-.054-.013-.055.013c-.539.15-.607.42-.612.533v.787h1.333v-.79z" fill="#4B5471"/>
        <path d="M53.24 29.942h-.852v-.653c.005-.1.067-.284.426-.397.359.113.42.297.425.397v.653zm.24-.656c-.005-.11-.073-.38-.612-.53l-.054-.013-.055.013c-.539.15-.607.42-.612.533v.787h1.333v-.79z" stroke="#4B5471" stroke-width=".75"/>
        <path d="M53.019 29.942v-.65c.007-.127.09-.292.425-.4.358.113.42.297.425.397l.002.653h-.852zm1.093-.653-.003-.069h-.01c-.03-.128-.15-.34-.6-.464l-.055-.013-.054.013c-.512.142-.605.394-.612.533v.787h1.334v-.787z" fill="#4B5471"/>
        <path d="M53.019 29.942v-.65c.007-.127.09-.292.425-.4.358.113.42.297.425.397l.002.653h-.852zm1.093-.653-.003-.069h-.01c-.03-.128-.15-.34-.6-.464l-.055-.013-.054.013c-.512.142-.605.394-.612.533v.787h1.334v-.787z" stroke="#4B5471" stroke-width=".75"/>
        <path d="M54.502 29.942h-.85v-.653c.004-.1.066-.284.425-.397.336.108.418.273.425.397v.653zm.242-.656c-.008-.136-.1-.388-.613-.53l-.054-.013-.055.013c-.538.15-.607.42-.612.533v.787h1.334v-.79z" fill="#4B5471"/>
        <path d="M54.502 29.942h-.85v-.653c.004-.1.066-.284.425-.397.336.108.418.273.425.397v.653zm.242-.656c-.008-.136-.1-.388-.613-.53l-.054-.013-.055.013c-.538.15-.607.42-.612.533v.787h1.334v-.79z" stroke="#4B5471" stroke-width=".75"/>
        <path d="M51.975 29.942h-.852v-.596l.003-.057c.004-.1.066-.284.424-.397.336.108.418.273.425.397v.653zm.241-.656c-.007-.136-.1-.388-.611-.53l-.055-.013-.054.013c-.45.123-.571.336-.602.464l-.011.856h1.333v-.79z" fill="#4B5471"/>
        <path d="M51.975 29.942h-.852v-.596l.003-.057c.004-.1.066-.284.424-.397.336.108.418.273.425.397v.653zm.241-.656c-.007-.136-.1-.388-.611-.53l-.055-.013-.054.013c-.45.123-.571.336-.602.464l-.011.856h1.333v-.79z" stroke="#4B5471" stroke-width=".75"/>
        <path d="M51.344 29.942h-.851v-.65c.007-.127.09-.292.425-.4.36.113.421.297.426.397v.653zm.24-.656c-.004-.11-.072-.38-.611-.53l-.055-.013-.054.013c-.513.142-.605.394-.612.533v.787h1.333v-.79z" fill="#4B5471"/>
        <path d="M51.344 29.942h-.851v-.65c.007-.127.09-.292.425-.4.36.113.421.297.426.397v.653zm.24-.656c-.004-.11-.072-.38-.611-.53l-.055-.013-.054.013c-.513.142-.605.394-.612.533v.787h1.333v-.79z" stroke="#4B5471" stroke-width=".75"/>
        <path d="M48.834 29.942h-.85v-.653c.004-.1.065-.284.425-.397.336.108.419.273.425.397v.653zm.242-.656c-.007-.136-.1-.388-.613-.53l-.054-.013-.054.013c-.54.15-.608.42-.613.533v.787h1.334v-.79z" fill="#4B5471"/>
        <path d="M48.834 29.942h-.85v-.653c.004-.1.065-.284.425-.397.336.108.419.273.425.397v.653zm.242-.656c-.007-.136-.1-.388-.613-.53l-.054-.013-.054.013c-.54.15-.608.42-.613.533v.787h1.334v-.79z" stroke="#4B5471" stroke-width=".75"/>
        <path d="M49.466 29.942h-.851v-.65c.007-.127.09-.292.425-.4.36.113.42.297.426.397v.653zm.24-.656c-.004-.11-.072-.38-.612-.53l-.054-.013-.054.013c-.513.142-.605.394-.613.533v.787h1.334v-.79z" fill="#4B5471"/>
        <path d="M49.466 29.942h-.851v-.65c.007-.127.09-.292.425-.4.36.113.42.297.426.397v.653zm.24-.656c-.004-.11-.072-.38-.612-.53l-.054-.013-.054.013c-.513.142-.605.394-.613.533v.787h1.334v-.79z" stroke="#4B5471" stroke-width=".75"/>
        <path d="M50.098 29.942h-.851v-.653c.005-.1.066-.284.425-.397.336.108.419.273.426.397v.653zm.24-.656c-.006-.136-.098-.388-.611-.53l-.055-.013-.054.013c-.54.15-.607.42-.612.533v.787h1.333v-.79z" fill="#4B5471"/>
        <path d="M50.098 29.942h-.851v-.653c.005-.1.066-.284.425-.397.336.108.419.273.426.397v.653zm.24-.656c-.006-.136-.098-.388-.611-.53l-.055-.013-.054.013c-.54.15-.607.42-.612.533v.787h1.333v-.79z" stroke="#4B5471" stroke-width=".75"/>
        <path d="M48.202 29.942h-.85v-.65c.006-.127.089-.292.425-.4.359.113.42.297.425.397v.653zm.242-.656c-.005-.11-.074-.38-.613-.53l-.054-.013-.055.013c-.513.142-.604.394-.612.533v.787h1.334v-.79z" fill="#4B5471"/>
        <path d="M48.202 29.942h-.85v-.65c.006-.127.089-.292.425-.4.359.113.42.297.425.397v.653zm.242-.656c-.005-.11-.074-.38-.613-.53l-.054-.013-.055.013c-.513.142-.604.394-.612.533v.787h1.334v-.79z" stroke="#4B5471" stroke-width=".75"/>
        <path d="M46.719 29.942v-.596l.002-.057c.004-.1.066-.284.425-.397.357.113.418.297.422.397l.003.653h-.852zm1.092-.653-.002-.069H47.8c-.03-.128-.151-.34-.6-.464l-.054-.013-.054.013c-.451.123-.572.336-.603.464l-.01.856h1.332v-.787z" fill="#4B5471"/>
        <path d="M46.719 29.942v-.596l.002-.057c.004-.1.066-.284.425-.397.357.113.418.297.422.397l.003.653h-.852zm1.092-.653-.002-.069H47.8c-.03-.128-.151-.34-.6-.464l-.054-.013-.054.013c-.451.123-.572.336-.603.464l-.01.856h1.332v-.787z" stroke="#4B5471" stroke-width=".75"/>
        <mask id="g1m822gbjb" fill="#fff">
            <use xlink:href="#k5wz84nyza"/>
        </mask>
        <path d="M42.831 26.668h1.579v-.794H42.83v.794zm-.157.27h1.893v-1.333h-1.893v1.333z" fill="#4B5471" mask="url(#g1m822gbjb)"/>
        <path d="M42.831 26.668h1.579v-.794H42.83v.794zm-.157.27h1.893v-1.333h-1.893v1.333z" stroke="#4B5471" stroke-width=".75" mask="url(#g1m822gbjb)"/>
        <path d="M46.808 26.668h1.938v-.794h-1.938v.794zm-.157.27h2.252v-1.333h-2.252v1.333z" fill="#4B5471" mask="url(#g1m822gbjb)"/>
        <path d="M46.808 26.668h1.938v-.794h-1.938v.794zm-.157.27h2.252v-1.333h-2.252v1.333z" stroke="#4B5471" stroke-width=".75" mask="url(#g1m822gbjb)"/>
        <path d="M49.23 26.668h1.937v-.794h-1.936v.794zm-.157.27h2.252v-1.333h-2.252v1.333z" fill="#4B5471" mask="url(#g1m822gbjb)"/>
        <path d="M49.23 26.668h1.937v-.794h-1.936v.794zm-.157.27h2.252v-1.333h-2.252v1.333z" stroke="#4B5471" stroke-width=".75" mask="url(#g1m822gbjb)"/>
        <path d="M51.718 26.668h1.937v-.794h-1.937v.794zm-.157.27h2.251v-1.333h-2.251v1.333z" fill="#4B5471" mask="url(#g1m822gbjb)"/>
        <path d="M51.718 26.668h1.937v-.794h-1.937v.794zm-.157.27h2.251v-1.333h-2.251v1.333z" stroke="#4B5471" stroke-width=".75" mask="url(#g1m822gbjb)"/>
        <path d="M45.025 26.668h1.299v-.794h-1.3v.794zm-.158.27h1.614v-1.333h-1.614v1.333z" fill="#4B5471" mask="url(#g1m822gbjb)"/>
        <path d="M45.025 26.668h1.299v-.794h-1.3v.794zm-.158.27h1.614v-1.333h-1.614v1.333z" stroke="#4B5471" stroke-width=".75" mask="url(#g1m822gbjb)"/>
        <path d="M55.108 26.138h2.183v-.826h-2.183v.826zm-.157.254h2.498v-1.334H54.95v1.334z" fill="#4B5471" mask="url(#g1m822gbjb)"/>
        <path d="M55.108 26.138h2.183v-.826h-2.183v.826zm-.157.254h2.498v-1.334H54.95v1.334z" stroke="#4B5471" stroke-width=".75" mask="url(#g1m822gbjb)"/>
        <path d="M57.988 26.138h2.69v-.826h-2.69v.826zm-.158.254h3.006v-1.334H57.83v1.334z" fill="#4B5471" mask="url(#g1m822gbjb)"/>
        <path d="M57.988 26.138h2.69v-.826h-2.69v.826zm-.158.254h3.006v-1.334H57.83v1.334z" stroke="#4B5471" stroke-width=".75" mask="url(#g1m822gbjb)"/>
        <path d="M58.465 27.699H57.5v-.436l.482-.421.483.421v.436zm.184-.54-.667-.583-.666.583v.75h1.333v-.75z" fill="#4B5471" mask="url(#g1m822gbjb)"/>
        <path d="M58.465 27.699H57.5v-.436l.482-.421.483.421v.436zm.184-.54-.667-.583-.666.583v.75h1.333v-.75z" stroke="#4B5471" stroke-width=".75" mask="url(#g1m822gbjb)"/>
        <path d="M59.718 27.699h-.965v-.436l.482-.421.483.421v.436zm.184-.54-.667-.583-.666.583v.75h1.333v-.75z" fill="#4B5471" mask="url(#g1m822gbjb)"/>
        <path d="M59.718 27.699h-.965v-.436l.482-.421.483.421v.436zm.184-.54-.667-.583-.666.583v.75h1.333v-.75z" stroke="#4B5471" stroke-width=".75" mask="url(#g1m822gbjb)"/>
        <path d="M60.972 27.699h-.965v-.436l.482-.421.483.421v.436zm.184-.54-.667-.583-.666.583v.75h1.333v-.75z" fill="#4B5471" mask="url(#g1m822gbjb)"/>
        <path d="M60.972 27.699h-.965v-.436l.482-.421.483.421v.436zm.184-.54-.667-.583-.666.583v.75h1.333v-.75z" stroke="#4B5471" stroke-width=".75" mask="url(#g1m822gbjb)"/>
        <path d="M55.626 23.978h.593v-1.373h-.593v1.373zm-.37.158h1.333v-1.688h-1.333v1.688z" fill="#4B5471" mask="url(#g1m822gbjb)"/>
        <path d="M55.626 23.978h.593v-1.373h-.593v1.373zm-.37.158h1.333v-1.688h-1.333v1.688z" stroke="#4B5471" stroke-width=".75" mask="url(#g1m822gbjb)"/>
        <path d="M84.884 29.942h-.851v-.653c.007-.124.09-.29.426-.397.359.113.42.297.425.397v.653zm.241-.653c-.005-.113-.073-.383-.612-.533l-.054-.013-.055.013c-.513.142-.605.394-.612.53v.79h1.333v-.787z" fill="#4B5471" mask="url(#g1m822gbjb)"/>
        <path d="M84.884 29.942h-.851v-.653c.007-.124.09-.29.426-.397.359.113.42.297.425.397v.653zm.241-.653c-.005-.113-.073-.383-.612-.533l-.054-.013-.055.013c-.513.142-.605.394-.612.53v.79h1.333v-.787z" stroke="#4B5471" stroke-width=".75" mask="url(#g1m822gbjb)"/>
        <path d="M84.246 29.942h-.851v-.653c.007-.124.09-.29.425-.397.36.113.421.297.426.397v.653zm.24-.653c-.004-.113-.073-.383-.611-.533l-.055-.013-.054.013c-.513.142-.605.394-.613.53v.79h1.334v-.787z" fill="#4B5471" mask="url(#g1m822gbjb)"/>
        <path d="M84.246 29.942h-.851v-.653c.007-.124.09-.29.425-.397.36.113.421.297.426.397v.653zm.24-.653c-.004-.113-.073-.383-.611-.533l-.055-.013-.054.013c-.513.142-.605.394-.613.53v.79h1.334v-.787z" stroke="#4B5471" stroke-width=".75" mask="url(#g1m822gbjb)"/>
        <path d="M85.522 29.942h-.85v-.653c.006-.124.09-.29.425-.397.359.113.42.297.425.397v.653zm.241-.653c-.005-.113-.073-.383-.612-.533l-.054-.013-.055.013c-.513.142-.605.394-.612.53v.79h1.333v-.787z" fill="#4B5471" mask="url(#g1m822gbjb)"/>
        <path d="M85.522 29.942h-.85v-.653c.006-.124.09-.29.425-.397.359.113.42.297.425.397v.653zm.241-.653c-.005-.113-.073-.383-.612-.533l-.054-.013-.055.013c-.513.142-.605.394-.612.53v.79h1.333v-.787z" stroke="#4B5471" stroke-width=".75" mask="url(#g1m822gbjb)"/>
        <path d="M86.16 29.942h-.85v-.653c.006-.124.09-.29.425-.397.36.113.42.297.426.397v.653zm.242-.653c-.005-.113-.073-.383-.613-.533l-.054-.013-.054.013c-.513.142-.605.394-.613.53v.79h1.334v-.787z" fill="#4B5471" mask="url(#g1m822gbjb)"/>
        <path d="M86.16 29.942h-.85v-.653c.006-.124.09-.29.425-.397.36.113.42.297.426.397v.653zm.242-.653c-.005-.113-.073-.383-.613-.533l-.054-.013-.054.013c-.513.142-.605.394-.613.53v.79h1.334v-.787z" stroke="#4B5471" stroke-width=".75" mask="url(#g1m822gbjb)"/>
        <path d="M82.118 29.942h-.85v-.653c.006-.124.089-.29.424-.397.36.113.421.297.426.397v.653zm.241-.653c-.005-.113-.073-.386-.612-.533l-.055-.013-.054.013c-.513.142-.605.394-.612.53v.79h1.333v-.787z" fill="#4B5471" mask="url(#g1m822gbjb)"/>
        <path d="M82.118 29.942h-.85v-.653c.006-.124.089-.29.424-.397.36.113.421.297.426.397v.653zm.241-.653c-.005-.113-.073-.386-.612-.533l-.055-.013-.054.013c-.513.142-.605.394-.612.53v.79h1.333v-.787z" stroke="#4B5471" stroke-width=".75" mask="url(#g1m822gbjb)"/>
        <path d="M81.48 29.942h-.852v-.653c.007-.1.074-.284.427-.397.357.113.418.297.423.397l.002.057v.596zm.229-.722c-.03-.128-.152-.34-.6-.464l-.054-.013-.054.013c-.514.142-.606.394-.613.53v.79h1.333l-.012-.856z" fill="#4B5471" mask="url(#g1m822gbjb)"/>
        <path d="M81.48 29.942h-.852v-.653c.007-.1.074-.284.427-.397.357.113.418.297.423.397l.002.057v.596zm.229-.722c-.03-.128-.152-.34-.6-.464l-.054-.013-.054.013c-.514.142-.606.394-.613.53v.79h1.333l-.012-.856z" stroke="#4B5471" stroke-width=".75" mask="url(#g1m822gbjb)"/>
        <path d="M82.756 29.942h-.85l.002-.653c.004-.1.066-.284.423-.397.359.113.42.297.425.397v.653zm.241-.653c-.005-.113-.073-.383-.612-.533l-.054-.013-.055.013c-.449.123-.57.336-.6.464h-.01l-.002.069v.787h1.333v-.787z" fill="#4B5471" mask="url(#g1m822gbjb)"/>
        <path d="M82.756 29.942h-.85l.002-.653c.004-.1.066-.284.423-.397.359.113.42.297.425.397v.653zm.241-.653c-.005-.113-.073-.383-.612-.533l-.054-.013-.055.013c-.449.123-.57.336-.6.464h-.01l-.002.069v.787h1.333v-.787z" stroke="#4B5471" stroke-width=".75" mask="url(#g1m822gbjb)"/>
        <path d="M83.395 29.942h-.852v-.653c.007-.1.07-.284.425-.397.359.113.42.297.425.397l.002.057v.596zm.23-.722c-.031-.128-.152-.34-.603-.464l-.054-.013-.054.013c-.531.147-.604.42-.611.53v.79h1.333l-.012-.856z" fill="#4B5471" mask="url(#g1m822gbjb)"/>
        <path d="M83.395 29.942h-.852v-.653c.007-.1.07-.284.425-.397.359.113.42.297.425.397l.002.057v.596zm.23-.722c-.031-.128-.152-.34-.603-.464l-.054-.013-.054.013c-.531.147-.604.42-.611.53v.79h1.333l-.012-.856z" stroke="#4B5471" stroke-width=".75" mask="url(#g1m822gbjb)"/>
        <path d="M79.22 29.942h-.85v-.653c.006-.124.089-.29.424-.397.336.108.42.273.426.4v.65zm.241-.653c-.007-.14-.1-.391-.612-.533l-.055-.013-.054.013c-.513.142-.605.394-.612.53v.79h1.333v-.787z" fill="#4B5471" mask="url(#g1m822gbjb)"/>
        <path d="M79.22 29.942h-.85v-.653c.006-.124.089-.29.424-.397.336.108.42.273.426.4v.65zm.241-.653c-.007-.14-.1-.391-.612-.533l-.055-.013-.054.013c-.513.142-.605.394-.612.53v.79h1.333v-.787z" stroke="#4B5471" stroke-width=".75" mask="url(#g1m822gbjb)"/>
        <path d="M78.588 29.942h-.85v-.653c.005-.1.066-.284.424-.397.36.113.422.297.426.397v.653zm.242-.653c-.005-.113-.073-.386-.613-.533l-.055-.013-.054.013c-.538.147-.607.42-.611.53v.79h1.333v-.787z" fill="#4B5471" mask="url(#g1m822gbjb)"/>
        <path d="M78.588 29.942h-.85v-.653c.005-.1.066-.284.424-.397.36.113.422.297.426.397v.653zm.242-.653c-.005-.113-.073-.386-.613-.533l-.055-.013-.054.013c-.538.147-.607.42-.611.53v.79h1.333v-.787z" stroke="#4B5471" stroke-width=".75" mask="url(#g1m822gbjb)"/>
        <path d="M77.956 29.942h-.85v-.653c.004-.1.066-.284.425-.397.336.108.418.273.425.4v.65zm.242-.653c-.007-.14-.1-.391-.613-.533l-.054-.013-.054.013c-.54.15-.607.42-.612.53v.79h1.333v-.787z" fill="#4B5471" mask="url(#g1m822gbjb)"/>
        <path d="M77.956 29.942h-.85v-.653c.004-.1.066-.284.425-.397.336.108.418.273.425.4v.65zm.242-.653c-.007-.14-.1-.391-.613-.533l-.054-.013-.054.013c-.54.15-.607.42-.612.53v.79h1.333v-.787z" stroke="#4B5471" stroke-width=".75" mask="url(#g1m822gbjb)"/>
        <path d="M77.325 29.942h-.852v-.653c.007-.1.073-.284.427-.397.357.113.418.297.423.397l.002.057v.596zm.23-.722c-.032-.128-.152-.338-.6-.464l-.055-.013-.054.013c-.515.142-.606.394-.613.53v.79h1.333l-.012-.856z" fill="#4B5471" mask="url(#g1m822gbjb)"/>
        <path d="M77.325 29.942h-.852v-.653c.007-.1.073-.284.427-.397.357.113.418.297.423.397l.002.057v.596zm.23-.722c-.032-.128-.152-.338-.6-.464l-.055-.013-.054.013c-.515.142-.606.394-.613.53v.79h1.333l-.012-.856z" stroke="#4B5471" stroke-width=".75" mask="url(#g1m822gbjb)"/>
        <path d="M79.852 29.942H79l.002-.653c.005-.1.066-.284.423-.397.337.108.42.273.427.4v.65zm.24-.653c-.006-.14-.099-.391-.613-.533l-.054-.013-.055.013c-.448.126-.568.336-.6.464h-.009l-.002.069v.787h1.333v-.787z" fill="#4B5471" mask="url(#g1m822gbjb)"/>
        <path d="M79.852 29.942H79l.002-.653c.005-.1.066-.284.423-.397.337.108.42.273.427.4v.65zm.24-.653c-.006-.14-.099-.391-.613-.533l-.054-.013-.055.013c-.448.126-.568.336-.6.464h-.009l-.002.069v.787h1.333v-.787z" stroke="#4B5471" stroke-width=".75" mask="url(#g1m822gbjb)"/>
        <path d="M80.483 29.942h-.85v-.653c.004-.1.066-.284.425-.397.359.113.42.297.425.397v.653zm.242-.653c-.005-.113-.073-.383-.613-.533l-.054-.013-.055.013c-.539.15-.607.42-.612.53v.79h1.334v-.787z" fill="#4B5471" mask="url(#g1m822gbjb)"/>
        <path d="M80.483 29.942h-.85v-.653c.004-.1.066-.284.425-.397.359.113.42.297.425.397v.653zm.242-.653c-.005-.113-.073-.383-.613-.533l-.054-.013-.055.013c-.539.15-.607.42-.612.53v.79h1.334v-.787z" stroke="#4B5471" stroke-width=".75" mask="url(#g1m822gbjb)"/>
        <path d="M71.038 29.942h-.851v-.653c.005-.1.066-.284.425-.397.336.108.419.273.426.4v.65zm.24-.653c-.006-.14-.098-.391-.611-.533l-.055-.013-.054.013c-.54.15-.607.42-.612.53v.79h1.333v-.787z" fill="#4B5471" mask="url(#g1m822gbjb)"/>
        <path d="M71.038 29.942h-.851v-.653c.005-.1.066-.284.425-.397.336.108.419.273.426.4v.65zm.24-.653c-.006-.14-.098-.391-.611-.533l-.055-.013-.054.013c-.54.15-.607.42-.612.53v.79h1.333v-.787z" stroke="#4B5471" stroke-width=".75" mask="url(#g1m822gbjb)"/>
        <path d="M70.405 29.942h-.85v-.653c.004-.1.066-.284.425-.397.36.113.42.297.425.397v.653zm.242-.653c-.005-.113-.073-.383-.613-.533l-.054-.013-.054.013c-.54.15-.608.42-.613.53v.79h1.334v-.787z" fill="#4B5471" mask="url(#g1m822gbjb)"/>
        <path d="M70.405 29.942h-.85v-.653c.004-.1.066-.284.425-.397.36.113.42.297.425.397v.653zm.242-.653c-.005-.113-.073-.383-.613-.533l-.054-.013-.054.013c-.54.15-.608.42-.613.53v.79h1.334v-.787z" stroke="#4B5471" stroke-width=".75" mask="url(#g1m822gbjb)"/>
        <path d="M69.774 29.942h-.852l.002-.653c.005-.1.066-.284.425-.397.336.108.418.273.425.4v.65zm.24-.653c-.006-.14-.098-.391-.61-.533l-.055-.013-.054.013c-.45.123-.571.336-.602.464h-.01l-.002.069v.787h1.334v-.787z" fill="#4B5471" mask="url(#g1m822gbjb)"/>
        <path d="M69.774 29.942h-.852l.002-.653c.005-.1.066-.284.425-.397.336.108.418.273.425.4v.65zm.24-.653c-.006-.14-.098-.391-.61-.533l-.055-.013-.054.013c-.45.123-.571.336-.602.464h-.01l-.002.069v.787h1.334v-.787z" stroke="#4B5471" stroke-width=".75" mask="url(#g1m822gbjb)"/>
        <path d="M69.143 29.942h-.852v-.653c.008-.124.09-.29.426-.397.36.113.42.297.426.397v.653zm.24-.653c-.004-.113-.073-.383-.612-.533l-.054-.013-.054.013c-.513.142-.606.394-.613.53v.79h1.334v-.787z" fill="#4B5471" mask="url(#g1m822gbjb)"/>
        <path d="M69.143 29.942h-.852v-.653c.008-.124.09-.29.426-.397.36.113.42.297.426.397v.653zm.24-.653c-.004-.113-.073-.383-.612-.533l-.054-.013-.054.013c-.513.142-.606.394-.613.53v.79h1.334v-.787z" stroke="#4B5471" stroke-width=".75" mask="url(#g1m822gbjb)"/>
        <path d="M71.67 29.942h-.853v-.653c.008-.124.09-.29.425-.397.36.113.42.297.425.397l.002.057v.596zm.229-.722c-.032-.128-.152-.34-.602-.464l-.055-.013-.054.013c-.512.142-.604.394-.611.53v.79h1.333l-.011-.856z" fill="#4B5471" mask="url(#g1m822gbjb)"/>
        <path d="M71.67 29.942h-.853v-.653c.008-.124.09-.29.425-.397.36.113.42.297.425.397l.002.057v.596zm.229-.722c-.032-.128-.152-.34-.602-.464l-.055-.013-.054.013c-.512.142-.604.394-.611.53v.79h1.333l-.011-.856z" stroke="#4B5471" stroke-width=".75" mask="url(#g1m822gbjb)"/>
        <path d="M72.301 29.942h-.851v-.653c.005-.1.066-.284.426-.397.336.108.418.273.425.4v.65zm.241-.653c-.007-.14-.099-.391-.612-.533l-.054-.013-.054.013c-.54.15-.608.42-.613.53v.79h1.333v-.787z" fill="#4B5471" mask="url(#g1m822gbjb)"/>
        <path d="M72.301 29.942h-.851v-.653c.005-.1.066-.284.426-.397.336.108.418.273.425.4v.65zm.241-.653c-.007-.14-.099-.391-.612-.533l-.054-.013-.054.013c-.54.15-.608.42-.613.53v.79h1.333v-.787z" stroke="#4B5471" stroke-width=".75" mask="url(#g1m822gbjb)"/>
        <path d="M74.81 29.942h-.85v-.653c.006-.124.09-.29.425-.397.359.113.42.297.425.397v.653zm.241-.653c-.005-.113-.073-.383-.612-.533l-.054-.013-.055.013c-.513.142-.605.394-.612.53v.79h1.333v-.787z" fill="#4B5471" mask="url(#g1m822gbjb)"/>
        <path d="M74.81 29.942h-.85v-.653c.006-.124.09-.29.425-.397.359.113.42.297.425.397v.653zm.241-.653c-.005-.113-.073-.383-.612-.533l-.054-.013-.055.013c-.513.142-.605.394-.612.53v.79h1.333v-.787z" stroke="#4B5471" stroke-width=".75" mask="url(#g1m822gbjb)"/>
        <path d="M74.18 29.942h-.852v-.653c.005-.1.066-.284.426-.397.336.108.418.273.426.4v.65zm.24-.653c-.007-.14-.099-.391-.612-.533l-.054-.013-.055.013c-.538.15-.607.42-.612.53v.79h1.333v-.787z" fill="#4B5471" mask="url(#g1m822gbjb)"/>
        <path d="M74.18 29.942h-.852v-.653c.005-.1.066-.284.426-.397.336.108.418.273.426.4v.65zm.24-.653c-.007-.14-.099-.391-.612-.533l-.054-.013-.055.013c-.538.15-.607.42-.612.53v.79h1.333v-.787z" stroke="#4B5471" stroke-width=".75" mask="url(#g1m822gbjb)"/>
        <path d="M73.547 29.942h-.851v-.653c.007-.124.09-.29.425-.397.36.113.421.297.426.397v.653zm.241-.653c-.005-.113-.073-.383-.612-.533l-.055-.013-.054.013c-.513.142-.605.394-.612.53v.79h1.333v-.787z" fill="#4B5471" mask="url(#g1m822gbjb)"/>
        <path d="M73.547 29.942h-.851v-.653c.007-.124.09-.29.425-.397.36.113.421.297.426.397v.653zm.241-.653c-.005-.113-.073-.383-.612-.533l-.055-.013-.054.013c-.513.142-.605.394-.612.53v.79h1.333v-.787z" stroke="#4B5471" stroke-width=".75" mask="url(#g1m822gbjb)"/>
        <path d="M75.442 29.942h-.85v-.653c.004-.1.066-.284.425-.397.336.108.418.273.425.4v.65zm.242-.653c-.008-.14-.1-.391-.613-.533l-.054-.013-.054.013c-.54.15-.608.42-.613.53v.79h1.334v-.787z" fill="#4B5471" mask="url(#g1m822gbjb)"/>
        <path d="M75.442 29.942h-.85v-.653c.004-.1.066-.284.425-.397.336.108.418.273.425.4v.65zm.242-.653c-.008-.14-.1-.391-.613-.533l-.054-.013-.054.013c-.54.15-.608.42-.613.53v.79h1.334v-.787z" stroke="#4B5471" stroke-width=".75" mask="url(#g1m822gbjb)"/>
        <path d="M76.074 29.942h-.852l.002-.653c.005-.1.067-.284.423-.397.358.113.42.297.425.397l.002.057v.596zm.229-.722c-.031-.128-.151-.34-.602-.464l-.054-.013-.054.013c-.449.123-.569.336-.6.464h-.01l-.002.069v.787h1.334l-.012-.856z" fill="#4B5471" mask="url(#g1m822gbjb)"/>
        <path d="M76.074 29.942h-.852l.002-.653c.005-.1.067-.284.423-.397.358.113.42.297.425.397l.002.057v.596zm.229-.722c-.031-.128-.151-.34-.602-.464l-.054-.013-.054.013c-.449.123-.569.336-.6.464h-.01l-.002.069v.787h1.334l-.012-.856z" stroke="#4B5471" stroke-width=".75" mask="url(#g1m822gbjb)"/>
        <path d="M77.628 26.668h1.578v-.794h-1.578v.794zm-.158.27h1.894v-1.334H77.47v1.334z" fill="#4B5471" mask="url(#g1m822gbjb)"/>
        <path d="M77.628 26.668h1.578v-.794h-1.578v.794zm-.158.27h1.894v-1.334H77.47v1.334z" stroke="#4B5471" stroke-width=".75" mask="url(#g1m822gbjb)"/>
        <path d="M73.292 26.668h1.937v-.794h-1.937v.794zm-.158.27h2.253v-1.334h-2.253v1.334z" fill="#4B5471" mask="url(#g1m822gbjb)"/>
        <path d="M73.292 26.668h1.937v-.794h-1.937v.794zm-.158.27h2.253v-1.334h-2.253v1.334z" stroke="#4B5471" stroke-width=".75" mask="url(#g1m822gbjb)"/>
        <path d="M70.87 26.668h1.937v-.794H70.87v.794zm-.157.27h2.251v-1.334h-2.251v1.334z" fill="#4B5471" mask="url(#g1m822gbjb)"/>
        <path d="M70.87 26.668h1.937v-.794H70.87v.794zm-.157.27h2.251v-1.334h-2.251v1.334z" stroke="#4B5471" stroke-width=".75" mask="url(#g1m822gbjb)"/>
        <path d="M68.383 26.668h1.936v-.794h-1.936v.794zm-.158.27h2.252v-1.334h-2.252v1.334z" fill="#4B5471" mask="url(#g1m822gbjb)"/>
        <path d="M68.383 26.668h1.936v-.794h-1.936v.794zm-.158.27h2.252v-1.334h-2.252v1.334z" stroke="#4B5471" stroke-width=".75" mask="url(#g1m822gbjb)"/>
        <path d="M75.714 26.668h1.299v-.794h-1.3v.794zm-.158.27h1.615v-1.334h-1.615v1.334z" fill="#4B5471" mask="url(#g1m822gbjb)"/>
        <path d="M75.714 26.668h1.299v-.794h-1.3v.794zm-.158.27h1.615v-1.334h-1.615v1.334z" stroke="#4B5471" stroke-width=".75" mask="url(#g1m822gbjb)"/>
        <path d="M64.746 26.138h2.183v-.826h-2.183v.826zm-.157.254h2.498v-1.334h-2.498v1.334z" fill="#4B5471" mask="url(#g1m822gbjb)"/>
        <path d="M64.746 26.138h2.183v-.826h-2.183v.826zm-.157.254h2.498v-1.334h-2.498v1.334z" stroke="#4B5471" stroke-width=".75" mask="url(#g1m822gbjb)"/>
        <path d="M61.36 26.138h2.69v-.826h-2.69v.826zm-.158.254h3.005v-1.334h-3.005v1.334z" fill="#4B5471" mask="url(#g1m822gbjb)"/>
        <path d="M61.36 26.138h2.69v-.826h-2.69v.826zm-.158.254h3.005v-1.334h-3.005v1.334z" stroke="#4B5471" stroke-width=".75" mask="url(#g1m822gbjb)"/>
        <path d="M64.72 28.787h-7.402v-.473l.265-.36.343.467.344-.468.344.468.344-.468.343.468.344-.468.344.468.343-.468.344.468.343-.468.342.468.344-.468.344.468.344-.468.343.468.344-.468.344.468.343-.468.344.468.344-.468.265.361v.473zm.157-.555-.422-.573-.344.467-.344-.467-.343.467-.344-.467-.344.467-.343-.467-.344.467-.344-.467-.344.467-.342-.467-.343.467-.344-.467-.343.467-.344-.467-.344.467-.343-.467-.344.467-.344-.467-.344.467-.343-.467-.423.573v.76h7.717v-.76z" fill="#4B5471" mask="url(#g1m822gbjb)"/>
        <path d="M64.72 28.787h-7.402v-.473l.265-.36.343.467.344-.468.344.468.344-.468.343.468.344-.468.344.468.343-.468.344.468.343-.468.342.468.344-.468.344.468.344-.468.343.468.344-.468.344.468.343-.468.344.468.344-.468.265.361v.473zm.157-.555-.422-.573-.344.467-.344-.467-.343.467-.344-.467-.344.467-.343-.467-.344.467-.344-.467-.344.467-.342-.467-.343.467-.344-.467-.343.467-.344-.467-.344.467-.343-.467-.344.467-.344-.467-.344.467-.343-.467-.423.573v.76h7.717v-.76z" stroke="#4B5471" stroke-width=".75" mask="url(#g1m822gbjb)"/>
        <path d="M64.731 27.699h-.964v-.436l.482-.421.482.421v.436zm.184-.54-.666-.583-.667.583v.75h1.333v-.75z" fill="#4B5471" mask="url(#g1m822gbjb)"/>
        <path d="M64.731 27.699h-.964v-.436l.482-.421.482.421v.436zm.184-.54-.666-.583-.667.583v.75h1.333v-.75z" stroke="#4B5471" stroke-width=".75" mask="url(#g1m822gbjb)"/>
        <path d="M63.477 27.699h-.965v-.436l.483-.421.482.421v.436zm.184-.54-.666-.583-.667.583v.75h1.333v-.75z" fill="#4B5471" mask="url(#g1m822gbjb)"/>
        <path d="M63.477 27.699h-.965v-.436l.483-.421.482.421v.436zm.184-.54-.666-.583-.667.583v.75h1.333v-.75z" stroke="#4B5471" stroke-width=".75" mask="url(#g1m822gbjb)"/>
        <path d="M62.224 27.699h-.965v-.436l.483-.421.482.421v.436zm.184-.54-.666-.583-.667.583v.75h1.333v-.75z" fill="#4B5471" mask="url(#g1m822gbjb)"/>
        <path d="M62.224 27.699h-.965v-.436l.483-.421.482.421v.436zm.184-.54-.666-.583-.667.583v.75h1.333v-.75z" stroke="#4B5471" stroke-width=".75" mask="url(#g1m822gbjb)"/>
        <path d="M67.565 30.114h18.597v-1.838H67.565v1.838zm18.597 4.32h-.575l-.005-1.428c-.032-.419-.234-1.102-1.152-1.495l-.03-.013-.031.013c-.916.393-1.12 1.076-1.152 1.495h-.004l-.001.08v1.348h-.391l-.005-1.428c-.032-.419-.234-1.102-1.152-1.495l-.03-.013-.031.013c-.973.417-1.142 1.164-1.156 1.57v1.353h-1.014v-1.348c-.014-.411-.183-1.158-1.156-1.575l-.03-.013-.031.013c-.918.393-1.12 1.076-1.152 1.495h-.004l-.001.08v1.348h-.392l-.004-1.428c-.03-.364-.21-1.092-1.152-1.495l-.03-.013-.031.013c-.918.393-1.12 1.076-1.152 1.495h-.004l-.001.08v1.348h-1.014l-.004-1.428c-.031-.419-.234-1.102-1.152-1.495l-.03-.013-.031.013c-.915.393-1.119 1.076-1.152 1.495h-.004V34.434h-.393l-.004-1.428c-.031-.419-.234-1.102-1.152-1.495l-.03-.013-.031.013c-.916.393-1.119 1.076-1.15 1.495h-.005V34.434h-.576v-4.163h18.597v4.163zm-2.793 0 .001-1.346c.013-.366.164-1.035 1.03-1.42.868.387 1.017 1.054 1.028 1.42l.002.03v1.316h-2.06zm-2.765 0v-1.348c.013-.364.164-1.033 1.03-1.418.868.387 1.017 1.054 1.029 1.42v1.346h-2.059zm-3.387 0v-1.346c.012-.366.161-1.033 1.03-1.42.865.385 1.016 1.054 1.029 1.42v1.346h-2.06zm-2.766 0v-1.346c.012-.366.161-1.033 1.03-1.42.868.387 1.017 1.054 1.029 1.42v1.346h-2.06zm-3.388 0v-1.346c.013-.366.164-1.035 1.03-1.42.868.387 1.018 1.054 1.029 1.42v1.346h-2.06zm-2.765 0v-1.346c.012-.366.161-1.033 1.029-1.42.868.387 1.018 1.054 1.029 1.42v1.346h-2.058zm17.864 3.634h-.575v-2.635h-2.375v2.635h-.391v-2.635h-2.374v2.635h-1.014v-2.635H77.06v2.635h-.39v-2.635h-2.376v2.635H73.28v-2.635h-2.375v2.635h-.39v-2.635H68.14v2.635h-.575v-3.476h18.597v3.476zm-2.793 0h2.06V35.59h-2.06v2.478zm-2.765 0h2.06V35.59h-2.06v2.478zm-3.387 0h2.059V35.59h-2.06v2.478zm-2.766 0h2.06V35.59h-2.06v2.478zm-3.388 0h2.06V35.59h-2.06v2.478zm-2.765 0h2.059V35.59h-2.06v2.478zm-.733 1.734h18.597v-1.577H67.565v1.577zM54.63 26.226h12.778v-1.673H54.63v1.673zm12.778 13.576h-3.02V29.117H57.65v10.685h-3.02V26.384h12.779v13.418zm-3.177-8.281a3.36 3.36 0 0 0-2.249-2.246h2.249v2.246zm-6.424 0v-2.246h2.248a3.36 3.36 0 0 0-2.248 2.246zm6.424 8.281h-6.424v-7.315a3.215 3.215 0 0 1 3.212-3.212 3.215 3.215 0 0 1 3.212 3.212v7.315zm-9.399-15.407h1.414v-2.33h-1.414v2.33zm-.546-2.487c.111-.107.286-.242.467-.268h1.563c.186.028.364.163.475.268h-2.505zm.546-.426h1.414v-.644h-1.414v.644zm.382-1.704h.65c.253.11.415.241.448.401.046.219-.128.434-.189.501h-1.168c-.062-.067-.235-.28-.19-.499.033-.162.196-.292.449-.403zm.009-.237.316-.227.28.21.036.017c.145.02.187.049.195.049a.12.12 0 0 1-.03.03h-.964c-.013-.01-.026-.02-.032-.02 0 0 .028-.035.199-.06zm1.888 2.524v.661h-.535l.543.647v1.022h-.716v-2.33h.708zm8.013.818-.363.432v1.08h-7.484v-1.08l-.363-.432h8.21zm-7.855-.157h7.5v-.898h-7.5v.898zm.132-4.615c.404-.774 1.176-1.328 2.256-1.688h2.723c1.08.36 1.853.914 2.257 1.688.772 1.48.026 3.26-.11 3.56H57.51c-.136-.3-.882-2.08-.11-3.56zm3.35-2.31a.99.99 0 0 0 .132-.323c0-.002.005-.1.035-.18h.202a.69.69 0 0 1 .035.18.99.99 0 0 0 .132.323c.13.217.322.368.494.464h-1.524a1.34 1.34 0 0 0 .494-.464zm4.175 6.264h.708v2.33h-.716v-1.022l.543-.647h-.535v-.66zm.866 2.33h1.413v-2.33h-1.413v2.33zm-.071-2.755h1.563c.18.026.356.161.467.268h-2.505c.112-.105.289-.24.475-.268zm.07-.158h1.414v-.644h-1.413v.644zm.382-1.704h.65c.253.11.416.241.449.403.046.219-.127.432-.19.5h-1.168c-.061-.068-.235-.283-.189-.502.034-.16.196-.29.448-.4zm.01-.237.035-.017.28-.21.316.227c.171.024.199.059.2.059h-.001c-.005 0-.018.01-.032.02h-.964a.113.113 0 0 1-.03-.03c.008 0 .05-.029.195-.05zm1.382 8.578h8.03v-1.342h-8.03v1.342zm8.187 0h3.593v-1.342h-3.593v1.342zm-8.187-1.5h13.033v-1.25H67.565v1.25zm8.187-1.407h3.593V22.09h-3.593v3.122zm-.882-3.28h5.357v-.562H74.87v.562zm1.184-.72h2.988v-7.96h-2.988v7.96zm-.898-8.118h4.785v-.527h-4.785v.527zm1.048-.685h2.689V7.05h-2.69v5.358zm-.778-5.516h4.244v-.448h-4.244v.448zm1.217-1.988v1.383h-.333V4.844c.001-.084.022-.285.166-.41.14.12.164.305.166.412v.059zm1.202-.03v1.413h-.593l.001-1.442a.474.474 0 0 1 .295-.424c.248.119.293.315.296.424v.028zm.942-.03v1.443h-.333V4.844c.002-.105.027-.29.167-.41.137.12.164.305.166.412zm-.123-.574-.043-.029-.043.029c-.247.16-.28.452-.281.57v1.447H78l-.007-1.524a.646.646 0 0 0-.415-.5l-.031-.014-.03.015a.646.646 0 0 0-.415.499h-.007l-.001.08v1.444h-.296l-.005-1.524a.645.645 0 0 0-.275-.493l-.043-.029-.043.029a.518.518 0 0 0-.123.116v-.849h2.477v.847a.532.532 0 0 0-.123-.114zm-2.635-1.126h.174l.004.007h2.682l.004-.007h.175l-.141.236H76.17l-.141-.236zm.078-.54c.013-.129.108-.84.7-.982.153-.053.567-.21.742-.394.173.184.586.341.733.392.6.144.695.855.708.984l-.193.383h-2.498l-.192-.383zM41.439 26.62h13.033v-1.25H41.44v1.25zm5.004 1.5h8.03v-1.342h-8.03v1.342zm-3.75 0h3.593v-1.342h-3.594v1.342zm-6.817 1.995h18.596v-1.838H35.876v1.838zm18.596 4.32h-.575V33.006h-.005c-.032-.419-.234-1.102-1.15-1.495l-.031-.013-.031.013c-.918.393-1.12 1.076-1.152 1.495l-.004 1.428h-.392V33.006h-.005c-.032-.419-.236-1.102-1.152-1.495l-.03-.013-.031.013c-.918.393-1.12 1.076-1.152 1.495l-.004 1.428h-1.014V33.006h-.005c-.031-.419-.234-1.102-1.152-1.495l-.03-.013-.03.013c-.942.403-1.123 1.131-1.153 1.495l-.004 1.428h-.391v-1.348l-.002-.08h-.004c-.031-.419-.234-1.102-1.152-1.495l-.03-.013-.03.013c-.974.417-1.142 1.164-1.157 1.575v1.348h-1.013v-1.352c-.015-.407-.183-1.154-1.156-1.571l-.031-.013-.03.013c-.918.393-1.12 1.076-1.152 1.495l-.006 1.428h-.39v-1.348l-.001-.08h-.004c-.033-.419-.237-1.102-1.152-1.495l-.031-.013-.03.013c-.918.393-1.12 1.076-1.152 1.495l-.006 1.428h-.574v-4.163h18.596v4.163zm-2.791 0V33.088c.012-.366.161-1.033 1.03-1.42.867.387 1.016 1.054 1.028 1.42v1.346h-2.058zm-2.766 0V33.088c.012-.366.161-1.033 1.03-1.42.865.385 1.016 1.054 1.029 1.42v1.346h-2.06zm-3.388 0V33.088c.012-.366.161-1.033 1.03-1.42.868.387 1.018 1.054 1.029 1.42v1.346h-2.06zm-2.765 0v-1.346c.012-.366.164-1.035 1.029-1.42.868.387 1.018 1.054 1.029 1.42v1.346h-2.058zm-3.388 0V33.12l.001-.031c.011-.366.16-1.033 1.029-1.42.865.385 1.017 1.054 1.029 1.418v1.348h-2.06zm-2.766 0V33.12l.001-.031c.011-.366.16-1.033 1.029-1.42.865.385 1.017 1.054 1.03 1.42v1.346h-2.06zm17.864 3.634h-.575v-2.635h-2.374v2.635h-.39v-2.635h-2.376v2.635h-1.013v-2.635H45.37v2.635h-.39v-2.635h-2.375v2.635h-1.013v-2.635h-2.375v2.635h-.39v-2.635H36.45v2.635h-.574v-3.476h18.596v3.476zm-2.791 0h2.059V35.59h-2.06v2.478zm-2.766 0h2.06V35.59h-2.06v2.478zm-3.388 0h2.06V35.59h-2.06v2.478zm-2.765 0h2.059V35.59h-2.06v2.478zm-3.388 0h2.059V35.59h-2.06v2.478zm-2.766 0h2.06V35.59h-2.06v2.478zm17.864 1.734H35.878v-.934h-.002v-.643h18.596v1.577zm-33.984 0h15.23v-.777h-15.23v.777zm.007-.934h.06v-1.664h-.06v1.664zm0-1.821h.06v-.943h-.06v.943zm-.039-1.807a.24.24 0 0 0 .103-.035v.741h-.103v-.706zm-.107.706h-.019v1.1h-.236v-1.793h.255v.693zm-1.205 3.856h1.186v-2.598h-1.186v2.598zm-.402-3.522a1.152 1.152 0 0 0-.365-.22.749.749 0 0 1-.172-.134.236.236 0 0 0-.116-.442h-.26a.237.237 0 0 0-.236.235c0 .088.048.164.122.205a.877.877 0 0 1-.162.133 1.165 1.165 0 0 0-.376.223 1 1 0 0 0-.287-.244l-.115-.063v1.074h-.847V35.24c.08-.016.144-.077.144-.161 0-.029-.018-.05-.03-.072h.03v-.151h3.774v.151h.03c-.012.023-.03.043-.03.072 0 .084.064.145.144.161v1.807h-.846v-1.074l-.116.063a1.001 1.001 0 0 0-.286.244zm.244.767h-.238c-.14-.31-.429-.534-.789-.534-.36 0-.65.225-.79.534h-.237v-.794c.057.047.121.11.16.186l.052.096.076-.078c.106-.112.24-.2.399-.26.022-.011.223-.13.294-.288l.038-.11h-.122a.078.078 0 0 1-.078-.08c0-.043.034-.078.078-.078h.26c.043 0 .078.035.078.078 0 .045-.035.08-.091.08h-.122l.05.11c.072.158.272.277.307.295.145.053.28.14.389.253l.074.078.052-.096a.65.65 0 0 1 .16-.186v.794zm0 2.755h-.132V37.41c0-.074-.025-.137-.04-.205h.172v2.598zm-1.65-2.755a.717.717 0 0 1 .623-.377c.272 0 .497.156.623.377h-1.246zm1.36 2.755h-1.475V37.41c0-.074.021-.14.04-.205h1.395c.02.066.04.131.04.205v2.393zm-1.633-2.393v2.393h-.13v-2.598h.171c-.016.068-.04.131-.04.205zm-1.475 2.393h1.187v-2.598h-1.187v2.598zm-.02-4.55h.256v1.795h-.236v-1.101h-.02v-.693zm-.08.694h-.102v-.74a.24.24 0 0 0 .102.034v.706zm-.098 1.1h.06v-.942h-.06v.943zm0 1.822h.06v-1.664h-.06v1.664zm-15.193.934h15.234v-.777H.197v.777zm1.077-.934H14.63v-1.664H1.274v1.664zm1.475-1.821h.399v-.943h-.4v.943zm.503 0h.256v-1.794h-.256v1.794zm.36 0h1.186v-.943H3.612v.943zm0-1.101v-.706c.08-.016.144-.077.144-.161 0-.029-.018-.05-.03-.072h.03v-.151h.897v.151h.03c-.011.023-.03.043-.03.072 0 .084.065.145.145.161v.706H3.612zm1.29 1.1h.255v-1.793h-.255v1.794zm.359 0h2.332v-.942H5.261v.943zm0-1.1v-.706c.08-.016.144-.077.144-.161 0-.029-.018-.05-.03-.072h.03v-.151H7.45v.151h.03c-.012.023-.03.043-.03.072 0 .084.064.145.144.161v.706H5.261zm2.436 0v-.693h.254v1.794h-.254v-.943h.004v-.158h-.004zm.358 1.1h3.18v-.942h-3.18v.943zm0-1.1v-.706c.081-.016.146-.077.146-.161 0-.029-.019-.05-.03-.072h.03v-.151h2.89v.151h.03c-.011.023-.03.043-.03.072 0 .084.065.143.145.161v.706h-3.18zm3.285 1.1h.256v-1.793h-.256v1.794zm.36 0h2.93v-.942H11.7v.943zm0-1.1v-.706c.08-.016.144-.077.144-.161 0-.029-.018-.05-.03-.072h.03v-.151h2.786v1.09H11.7zm-8.864-1.248H14.63v-.722H2.836v.722zm0-1.6h11.342c.008.002.013.008.022.008.002.002.178.023.43.03v.682H2.836v-.72zm18.26-4.431-.083.444v.176l-.102-.06-.1.06-.002-.184-.085-.448c-.02-.043-.058-.168-.01-.244.03-.047.097-.071.197-.071s.167.024.198.073c.048.074.01.199-.012.254zm-5.467 2.676c.129-.076.674-.323 2.299-.33h.065c1.621.007 2.167.254 2.306.334.233.078.529.119.877.119.279 0 .48-.027.481-.027a.18.18 0 0 1 .205.16.172.172 0 0 1-.036.133.19.19 0 0 1-.122.071c-.002 0-.219.03-.523.03-.394 0-.766-.103-1.124-.202a6.07 6.07 0 0 0-.84-.186 11.208 11.208 0 0 0-1.258-.065c-.487.002-.886.022-1.259.065-.291.037-.57.113-.839.186-.359.099-.729.201-1.125.201-.304 0-.52-.029-.523-.03a.183.183 0 0 1-.158-.203c.013-.1.106-.18.205-.16.009.002.21.027.48.027.35 0 .646-.041.889-.123zm.26-.812c.265-.072.54-.148.823-.182a11.04 11.04 0 0 1 1.247-.066c.482.002.878.023 1.246.066.284.034.559.11.825.182.164.045.333.09.505.127v.636c.035.008.067.016.104.022v-.64c.176.033.355.06.542.06.028 0 .047-.003.072-.005-.022.002-.043.004-.07.004v.624h-.007c-.332 0-.625-.038-.834-.106-.172-.102-.744-.338-2.34-.344h-.078c-1.602.006-2.176.242-2.338.338-.06.02-.135.03-.203.045v-.634h-.003c.172-.037.343-.082.509-.127zm2.353-.816c-.085-.002-.161-.007-.252-.007h-.065l-.137.002-.151-.347c.015-.047.082-.195.322-.195s.307.148.323.195l-.153.347c.039.003.075.003.113.005zm-3.423-1.06c-.02-.043-.058-.168-.01-.244.03-.047.097-.071.197-.071s.167.024.199.073c.048.074.009.199-.014.254l-.084.444v.176l-.1-.06-.102.06-.001-.184-.085-.448zm.039.78h.297l.123.073v.606c-.162.026-.34.045-.538.045h-.006v-.651l.124-.074zm-.118.828c.35 0 .646-.039.889-.123.129-.074.677-.321 2.299-.327h.065c1.618.006 2.167.253 2.306.333.233.078.529.117.877.117.279 0 .48-.025.481-.025a.18.18 0 0 1 .205.158.177.177 0 0 1-.036.135.19.19 0 0 1-.125.071c-.073.009-.27.029-.52.029-.394 0-.766-.102-1.124-.2-.269-.074-.548-.152-.84-.187a10.819 10.819 0 0 0-1.258-.065c-.487 0-.886.023-1.259.065-.291.035-.57.113-.839.187-.359.098-.729.2-1.125.2-.262 0-.464-.022-.522-.03a.183.183 0 1 1 .046-.362c.009 0 .21.024.48.024zm-6.047-6.044h18.532c3.093 3.435 3.707 8.04 3.783 8.722h-9.084c.024-.05.05-.1.042-.156a.289.289 0 0 0-.285-.251c-.013 0-.025.002-.038.004-.002 0-.15.016-.355.02v-.624l-.104.002v.626h-.008c-.332 0-.625-.039-.834-.108-.172-.102-.744-.336-2.34-.344h-.078c-1.602.006-2.176.242-2.338.34-.06.018-.135.028-.203.045v-.636h-.003c.172-.037.343-.08.509-.127.265-.072.54-.147.823-.182.369-.043.765-.064 1.247-.066.482.002.878.023 1.246.066.284.035.559.11.825.182.164.047.333.09.505.127v.636c.035.008.067.016.104.022v-.64c.176.033.355.06.542.06.311 0 .535-.031.536-.031a.284.284 0 0 0 .25-.321.289.289 0 0 0-.286-.252c-.013 0-.025 0-.038.002-.002 0-.149.018-.355.022v-.626c.198-.004.363-.018.43-.026a.288.288 0 0 0-.037-.573c-.013 0-.025 0-.038.002-.002 0-.15.016-.355.022v-.71l-.17-.098-.002-.227.08-.423c.003-.008.09-.205.002-.342-.052-.08-.149-.12-.287-.12-.138 0-.234.04-.285.12-.088.135-.003.33-.001.33l.08.425v.237l-.17.099v.646c.035.006.067.017.104.023v-.608l.124-.074h.297l.124.074v.65h-.008a2.78 2.78 0 0 1-.834-.108c-.163-.094-.696-.307-2.1-.335l.143-.328.006-.014-.003-.016c-.02-.1-.134-.293-.429-.293s-.41.192-.428.295l-.003.014.147.342c-1.402.028-1.935.241-2.089.331-.06.02-.135.03-.203.045v-.644l-.171-.099-.001-.227.08-.423c.003-.008.09-.205.002-.342-.052-.08-.149-.12-.287-.12-.138 0-.234.04-.285.12-.088.135-.003.33-.001.33l.08.425v.237l-.17.099v.71c-.206-.007-.355-.023-.356-.023a.285.285 0 0 0-.323.25.29.29 0 0 0 .252.32c.057.009.265.031.533.031.187 0 .366-.026.542-.059v.64a3.31 3.31 0 0 1-.538.043h-.006v-.624c-.04 0-.066-.004-.104-.004v.626c-.207-.004-.355-.022-.356-.022a.285.285 0 0 0-.323.25.289.289 0 0 0 .25.32c.001 0 .224.031.535.031.187 0 .366-.026.542-.059v.64c-.162.027-.34.045-.538.045h-.006v-.626l-.104-.002v.624a3.16 3.16 0 0 1-.356-.022.288.288 0 0 0-.323.25c-.007.055.019.102.04.149.004.006.004.014.007.02l-.02-.014H4.911c.075-.681.687-5.285 3.782-8.722zm-2.56-8.612h.687v11c-.26.464-.488.927-.688 1.38v-12.38zm0-.956h1.11l-.461.798h-.65v-.798zm.578-1.51.558-.818.556.818v1.353h-.267v-1.287a.291.291 0 0 0-.29-.293c-.16 0-.29.131-.29.293v1.287H6.71V13.14zm.558-2.095.493 1.721-.493-.722-.494.724.494-1.723zm-.134 3.448v-1.287c0-.074.06-.135.134-.135.073 0 .132.061.132.135v1.287h-.266zm3.55.157-.462.798h-2.47l-.459-.798h3.39zm-.533-1.51.558-.818.556.818v1.353H11v-1.287a.292.292 0 0 0-.29-.293c-.16 0-.292.131-.292.293v1.287h-.266V13.14zm.558-2.095.493 1.721-.493-.722-.494.724.494-1.723zm-.134 3.448v-1.287c0-.074.06-.135.134-.135.074 0 .133.061.133.135v1.287h-.267zm1.27.157v.798h-.65l-.46-.798h1.11zm-.688 7.31v-6.354h.687v5.982c-.23.12-.465.237-.687.372zm3.978-1.36h5.646c1.767.362 3.357 1.032 4.723 2.047H10.412c1.367-1.015 2.957-1.685 4.724-2.048zm-.051-.158h5.748v-1.82h-5.748v1.82zm-.534-1.978h6.816v-.66H14.55v.66zm4.587-.817h.687v-2.041h-.687v2.041zm0-2.997h1.11l-.46.798h-.65v-.798zm.579-1.51.557-.818.557.818v1.353h-.267v-1.287a.291.291 0 0 0-.29-.293c-.16 0-.291.131-.291.293v1.287h-.266V13.14zm.557-2.095.493 1.721-.493-.722-.494.724.494-1.723zm-.134 3.448v-1.287c0-.074.06-.135.134-.135.073 0 .132.061.132.135v1.287h-.266zm3.55.157-.462.798H20.76l-.46-.798h3.39zm-.532-1.51.557-.818.557.818v1.353h-.266v-1.287a.292.292 0 0 0-.29-.293c-.161 0-.292.131-.292.293v1.287h-.266V13.14zm.557-2.095.493 1.721-.493-.722-.494.724.494-1.723zm-.134 3.448v-1.287c0-.074.06-.135.134-.135.074 0 .133.061.133.135v1.287h-.267zm1.27.157v.798h-.65l-.46-.798h1.11zm-1.442.798.306-.528.305.528h-.61zm-.449.507a.257.257 0 0 0-.257.258v.223h-.128v-.223a.257.257 0 0 0-.258-.258.258.258 0 0 0-.259.258v.223h-.128v-.223a.257.257 0 0 0-.257-.258.258.258 0 0 0-.26.258v.223h-.127v-.223a.257.257 0 1 0-.516 0v.223h-.048v-.83h2.544v.83h-.048v-.223a.257.257 0 0 0-.258-.258zm-2.977 1.692h.582v-2.041h-.582v2.041zm-.015-2.199.306-.528.304.528h-.61zm3.21 5.256h-.004a1.935 1.935 0 0 0-1.146-1.682l-.033-.016-.034.016c-.528.256-.814.618-.97.97v-1.37h.533v-.975h-.802v-1.106h.153v-.328c0-.086.068-.153.153-.153.085 0 .153.067.153.153v.328h.337v-.328c0-.086.07-.153.155-.153.084 0 .153.067.153.153v.328h.336v-.328c0-.086.07-.153.155-.153.085 0 .153.067.153.153v.328h.337v-.328c0-.086.068-.153.153-.153.085 0 .154.067.154.153v.328h.152v4.66c.052.022.107.04.157.063-.12-.053-.246-.098-.369-.147l.125.05v-.463zm-.458-.266h-.006c-.026-.22-.15-.608-.69-.827l-.03-.012-.029.012c-.528.213-.663.583-.69.827v.1l.024.006c-.064-.014-.125-.039-.19-.053h-.11c.074-.417.307-.963.996-1.311.865.435 1.014 1.19 1.026 1.605v.32c-.1-.041-.199-.084-.3-.121v-.468l-.001-.078zm-.13.495a12.002 12.002 0 0 0-1.165-.352v-.061c.008-.195.092-.545.57-.751.48.206.561.556.567.749v.403l.028.012zm.834.331v-5.658h.582v5.947c.053.026.105.055.157.084v-6.031h.688v6.417a11.394 11.394 0 0 0-1.427-.759zM8.42 20.547v-.026c.008-.195.092-.545.57-.751.48.206.56.556.567.749v.773l.001 1.868c-.238.208-.47.43-.693.66H8.42v-3.273zm1.295-.108h-.006c-.026-.22-.15-.608-.69-.827l-.03-.012-.03.012c-.527.213-.662.583-.69.827v.695H7.96l.001-.348c.012-.415.161-1.17 1.027-1.605.866.435 1.015 1.19 1.026 1.605l.001.348h-.3v-.617l-.001-.078zm.546-4.002h-.048v-.223a.257.257 0 1 0-.516 0v.223H9.57v-.223a.257.257 0 0 0-.257-.258.257.257 0 0 0-.26.258v.223h-.127v-.223a.257.257 0 0 0-.258-.258.257.257 0 0 0-.259.258v.223h-.127v-.223a.257.257 0 1 0-.516 0v.223h-.048v-.83h2.544v.83zm.143-.988.306-.528.305.528h-.61zm.014.158H11v6.462c-.198.127-.391.26-.582.4v-6.862zm-3.455-.158.306-.528.304.528h-.61zm.014.158h.582v9.811c-.207.299-.403.602-.582.907V15.607zm1.512 8.612a13.201 13.201 0 0 0-.772.98v-8.657h.152v-.328c0-.086.069-.153.154-.153.085 0 .153.067.153.153v.328h.337v-.328c0-.086.07-.153.154-.153.085 0 .154.067.154.153v.328h.336v-.328c0-.086.07-.153.155-.153.085 0 .153.067.153.153v.328h.337v-.328c0-.086.068-.153.153-.153.085 0 .153.067.153.153v.328h.153v6.035c-.034.024-.072.045-.105.071h-.004l-.021.017-.181.14h.015c-.085.07-.165.146-.25.218v-1.731h.459l-.001-.587h-.004a1.935 1.935 0 0 0-1.146-1.682l-.034-.016-.033.016a1.935 1.935 0 0 0-1.147 1.682l-.005.587h.463l-.005 2.686h.447c-.028.029-.057.055-.084.084h-.002l-.023.027-.119.13h.008zm18.592-.157H8.837c.429-.46.889-.882 1.369-1.256h15.506c.48.374.94.796 1.369 1.256zm6.001 9.036v.72H21.288v-.683c.251-.006.428-.027.43-.027.007-.002.01-.01.017-.01h11.347zm-11.794 1.6h11.794v-.722H21.288v.722zm11.481 2.349h.4v-.943h-.4v.943zm-.359 0h.255v-1.794h-.255v1.794zm-1.29 0h1.186v-.943H31.12v.943zm.116-2.04h.03v-.151h.895v.151h.03c-.011.023-.03.043-.03.072 0 .084.065.145.145.161v.706H31.12v-.706c.08-.016.145-.077.145-.161 0-.029-.018-.05-.03-.072zm-.475 2.04h.255v-1.794h-.255v1.794zm-2.436 0h2.332v-.943h-2.332v.943zm.115-2.04h.03v-.151h2.042v.151h.03c-.011.023-.03.043-.03.072 0 .084.065.145.145.161v.706h-2.332v-.706c.08-.016.145-.077.145-.161 0-.029-.019-.05-.03-.072zm-.474 2.04h.255v-1.794h-.255v1.794zm-3.284 0h3.18v-.943h-3.18v.943zm.114-2.04h.03v-.151h2.89v.151h.03c-.01.023-.03.043-.03.072 0 .084.065.145.146.161v.706h-3.18v-.706c.08-.016.144-.077.144-.161 0-.029-.018-.05-.03-.072zm-.473 2.04h.255v-1.794h-.255v1.794zm-3.035 0h2.93v-.943h-2.93v.943zm2.816-2.04c-.011.023-.03.043-.03.072 0 .084.065.145.145.161v.706h-2.931v-1.09h2.786v.151h.03zm-9.386-1.87h.018c.128 0 .247-.022.37-.039h.172v5.77h-.544v-5.73h-.016zm1.146-.196.025-.006c.265-.074.54-.15.823-.182.369-.045.765-.066 1.247-.066.482 0 .878.02 1.246.066.284.032.559.108.825.182.009.002.02.002.027.006h-4.193zm-.481 1.757h5.152v-.722h-5.152v.722zm0-.88h5.152v-.72h-5.152v.72zm5.798-.785c-.394 0-.766-.103-1.124-.2l-.06-.015c-.25-.07-.51-.137-.78-.17a10.365 10.365 0 0 0-1.258-.065c-.487 0-.886.02-1.259.065-.291.035-.57.11-.839.184-.134.037-.27.07-.408.103a3.082 3.082 0 0 1-.717.098c-.304 0-.52-.029-.523-.029-.065-.008-.107-.055-.133-.112-.013-.029-.03-.058-.025-.092.013-.1.106-.178.205-.16.009.002.21.027.48.027.35 0 .646-.041.889-.123.129-.076.674-.323 2.299-.33h.065c1.621.007 2.167.254 2.306.334.233.078.529.119.877.119.279 0 .48-.027.481-.027.103-.018.192.06.205.16.005.032-.012.061-.025.092-.004.01-.002.022-.01.032l-.001.01c-.001 0-.003 0-.004.003a.181.181 0 0 1-.118.067c-.002 0-.219.029-.523.029zm-.437.057c.053.008.11.013.163.018.092.009.18.03.274.03h.019-.016v5.73h-.545v-5.77h.125l-.02-.008zm.544 5.778h13.357v-1.664H21.288v1.664zm21.404-13.656h3.594V22.09h-3.594v3.122zm-.881-3.28h5.357v-.562H41.81v.562zm1.184-.72h2.989v-7.96h-2.989v7.96zm-.898-8.118h4.784v-.527h-4.784v.527zm1.047-.685h2.69V7.05h-2.69v5.358zm-.777-5.516h4.244v-.448h-4.244v.448zm1.216-2.05v1.445h-.332V4.846c.002-.107.028-.293.165-.412.14.12.165.305.167.41zm1.202 1.445h-.592V4.846c.004-.109.048-.305.296-.424a.474.474 0 0 1 .295.424l.001 1.442zm.942-1.444v1.444h-.332V4.845c.003-.106.027-.292.166-.41.145.124.165.325.166.409zm-.123-.573-.043-.029-.042.029c-.2.13-.26.341-.276.493l-.005 1.524h-.295V4.844l-.001-.08h-.008a.646.646 0 0 0-.414-.5l-.03-.014-.031.015a.646.646 0 0 0-.416.499l-.007 1.524h-.295V4.842c-.002-.12-.034-.412-.281-.571l-.044-.029-.042.029a.525.525 0 0 0-.123.114v-.847h2.476v.85a.515.515 0 0 0-.123-.117zM42.97 3.145h.175l.005.007h2.682l.004-.007h.174l-.142.236h-2.756l-.142-.236zm.078-.54c.013-.129.109-.84.708-.984.147-.05.56-.208.733-.392.176.184.59.341.743.394.591.142.686.853.7.982l-.192.383H43.24l-.194-.383zM79.503 28.12v-1.342h1.253v-1.565h-1.253V22.09h.881v-.878H79.2v-7.96h.898v-.843H79.05V7.05h.777v-.763h-.884v-2.75h.07l.332-.55h-.373l.177-.35-.001-.02c-.002-.041-.062-.966-.822-1.146-.264-.094-.508-.219-.626-.313.048-.025.08-.06.08-.098 0-.068-.079-.12-.184-.135v-.01a.12.12 0 0 0 .086-.113.121.121 0 0 0-.086-.115V.386c0-.02-.021-.035-.048-.035-.028 0-.05.014-.05.035v.307a.123.123 0 0 0-.074.11c0 .047.03.088.074.108v.015c-.105.014-.184.067-.184.135 0 .039.033.073.08.098-.118.094-.364.219-.634.315-.752.178-.811 1.103-.813 1.144v.02l.176.35h-.373l.331.55h.07v2.75h-.883v.763h.777v5.358H75v.843h.897v7.96h-1.184v.878h.882v3.122h-8.029v-.817h-.202v-2.33h.736l-.103-.129c-.012-.014-.29-.343-.633-.43v-.826h-.084c.089-.125.192-.315.147-.532-.033-.163-.155-.298-.34-.415.013-.012.023-.016.037-.035.03-.035.054-.082.042-.135-.023-.114-.174-.155-.307-.176l-.213-.16a.174.174 0 0 0 .046-.108c0-.092-.069-.157-.154-.178v-1.344c0-.016-.017-.028-.039-.028-.021 0-.038.012-.038.028v1.344c-.085.02-.154.086-.154.178 0 .043.022.078.046.109l-.213.16c-.134.02-.284.06-.308.175-.01.053.013.1.042.135.015.019.024.023.038.035-.185.117-.306.252-.34.415-.045.217.057.407.147.532h-.084v.829c-.346.092-.62.413-.633.427l-.075.092v-.358H64.7c.2-.454.846-2.154.076-3.631-.503-.966-1.52-1.622-3.005-1.966-.198-.127-.402-.323-.46-.612a.615.615 0 0 0-.027-.172c.081-.01.146-.071.146-.155a.162.162 0 0 0-.164-.164h-.172v-1.16c0-.028-.032-.05-.073-.05l-.002.001-.002-.002c-.041 0-.074.023-.074.051v1.16h-.172a.162.162 0 0 0-.163.164c0 .084.064.145.146.155a.622.622 0 0 0-.027.172c-.058.289-.263.485-.46.612-1.486.344-2.502 1-3.005 1.966-.77 1.477-.124 3.177.075 3.631h-.226v.358l-.074-.092c-.013-.014-.288-.335-.634-.427v-.829h-.084c.09-.125.193-.315.148-.532-.034-.163-.156-.298-.34-.415.013-.012.023-.016.038-.035.029-.035.052-.082.041-.135-.024-.114-.174-.155-.308-.176l-.213-.16a.173.173 0 0 0 .046-.108c0-.092-.068-.157-.153-.178v-1.344c0-.016-.017-.028-.039-.028s-.039.012-.039.028v1.344c-.085.02-.153.086-.153.178 0 .043.021.078.046.109l-.213.16c-.134.02-.284.06-.308.175-.011.053.012.1.042.135.014.019.025.023.038.035-.185.117-.307.252-.34.415-.046.217.058.407.146.532h-.083v.827c-.343.086-.621.415-.634.43l-.103.128h.737v2.33h-.203v.817h-8.029V22.09h.882v-.878H46.14v-7.96h.898v-.843H45.99V7.05h.778v-.763h-.884v-2.75h.07l.332-.55h-.374l.177-.35v-.02c-.003-.041-.061-.966-.814-1.144-.27-.096-.515-.22-.633-.315.047-.025.08-.06.08-.098 0-.068-.08-.12-.184-.135V.91a.123.123 0 0 0 .073-.108c0-.05-.03-.09-.073-.11V.386c0-.02-.023-.035-.05-.035-.027 0-.048.014-.048.035v.302a.121.121 0 0 0-.087.115.12.12 0 0 0 .087.113v.01c-.106.014-.185.067-.185.135 0 .039.032.073.08.098-.118.094-.361.219-.626.313-.76.18-.82 1.105-.821 1.146l-.001.02.177.35h-.374l.332.55h.07v2.75h-.884v.763h.778v5.358h-1.048v.843h.899v7.96h-1.185v.878h.882v3.122h-1.253v1.565h1.253v1.342h-6.817v10.749h-.915v-1.821h-1.477v-1.101h-.557v-.706c.08-.016.145-.077.145-.161 0-.029-.018-.05-.03-.072h.03v-.151h.326V32.94h-2.074c-.068-.626-.667-5.233-3.738-8.722h.009l-.12-.13-.023-.027h-.002a12.18 12.18 0 0 0-1.34-1.256h.016l-.181-.141-.022-.017h-.003c-.242-.186-.498-.35-.754-.515v-7.64h-.579V12.98l-.672-2.357h.043c.03 0 .053-.025.053-.053a.052.052 0 0 0-.053-.053h-.036v-.14a.048.048 0 0 0-.049-.049c-.027 0-.049.02-.049.05v.139h-.037a.053.053 0 0 0-.053.053c0 .028.025.053.053.053h.044l-.04.137-.286 1-.344 1.2v.13l-.003.002v1.402h-2.012V12.98l-.672-2.357h.043a.055.055 0 0 0 .054-.053.054.054 0 0 0-.054-.053h-.036v-.14a.048.048 0 0 0-.049-.049c-.027 0-.05.02-.05.05v.139h-.035a.053.053 0 0 0-.054.053c0 .028.025.053.054.053h.043l-.67 2.336v.131l-.003.002v1.402h-.579v3.154h-.933v-.233h.36a.117.117 0 1 0 0-.235h-.36v-.254h.3a.105.105 0 1 0 0-.21h-.3v-.267h.207a.105.105 0 0 0 .105-.106.107.107 0 0 0-.105-.106h-.59a.107.107 0 0 0-.106.106c0 .06.048.106.106.106h.206v.266h-.3a.105.105 0 1 0 0 .211h.3v.254h-.359a.118.118 0 0 0-.117.119c0 .063.053.116.117.116h.36v.233h-3.478v.974h.534v1.87h-.118c-1 .227-1.932.573-2.806 1.013v-7.011h-.58V12.98l-.671-2.357h.043c.03 0 .053-.025.053-.053a.052.052 0 0 0-.053-.053h-.036v-.14a.048.048 0 0 0-.05-.049.048.048 0 0 0-.048.05v.139h-.037a.053.053 0 0 0-.053.053c0 .028.024.053.053.053h.044l-.04.137-.286 1-.344 1.2-.001.13-.002.002v1.402H7.983V12.98l-.672-2.357h.043a.055.055 0 0 0 .054-.053.054.054 0 0 0-.054-.053h-.036v-.14a.048.048 0 0 0-.05-.049c-.027 0-.05.02-.05.05v.139h-.034a.053.053 0 0 0-.054.053c0 .028.024.053.054.053h.043l-.67 2.336-.001.131-.002.002v1.402h-.58v13.854c-.929 2.256-1.178 4.202-1.221 4.593H2.678v1.915h.326v.151h.03c-.011.023-.03.043-.03.072 0 .084.065.145.144.161v.706H2.59v1.1H1.116v1.822H.04v1.092h86.28V28.119h-6.817z" fill="#4B5471" mask="url(#g1m822gbjb)"/>
        <path d="M67.565 30.114h18.597v-1.838H67.565v1.838zm18.597 4.32h-.575l-.005-1.428c-.032-.419-.234-1.102-1.152-1.495l-.03-.013-.031.013c-.916.393-1.12 1.076-1.152 1.495h-.004l-.001.08v1.348h-.391l-.005-1.428c-.032-.419-.234-1.102-1.152-1.495l-.03-.013-.031.013c-.973.417-1.142 1.164-1.156 1.57v1.353h-1.014v-1.348c-.014-.411-.183-1.158-1.156-1.575l-.03-.013-.031.013c-.918.393-1.12 1.076-1.152 1.495h-.004l-.001.08v1.348h-.392l-.004-1.428c-.03-.364-.21-1.092-1.152-1.495l-.03-.013-.031.013c-.918.393-1.12 1.076-1.152 1.495h-.004l-.001.08v1.348h-1.014l-.004-1.428c-.031-.419-.234-1.102-1.152-1.495l-.03-.013-.031.013c-.915.393-1.119 1.076-1.152 1.495h-.004V34.434h-.393l-.004-1.428c-.031-.419-.234-1.102-1.152-1.495l-.03-.013-.031.013c-.916.393-1.119 1.076-1.15 1.495h-.005V34.434h-.576v-4.163h18.597v4.163zm-2.793 0 .001-1.346c.013-.366.164-1.035 1.03-1.42.868.387 1.017 1.054 1.028 1.42l.002.03v1.316h-2.06zm-2.765 0v-1.348c.013-.364.164-1.033 1.03-1.418.868.387 1.017 1.054 1.029 1.42v1.346h-2.059zm-3.387 0v-1.346c.012-.366.161-1.033 1.03-1.42.865.385 1.016 1.054 1.029 1.42v1.346h-2.06zm-2.766 0v-1.346c.012-.366.161-1.033 1.03-1.42.868.387 1.017 1.054 1.029 1.42v1.346h-2.06zm-3.388 0v-1.346c.013-.366.164-1.035 1.03-1.42.868.387 1.018 1.054 1.029 1.42v1.346h-2.06zm-2.765 0v-1.346c.012-.366.161-1.033 1.029-1.42.868.387 1.018 1.054 1.029 1.42v1.346h-2.058zm17.864 3.634h-.575v-2.635h-2.375v2.635h-.391v-2.635h-2.374v2.635h-1.014v-2.635H77.06v2.635h-.39v-2.635h-2.376v2.635H73.28v-2.635h-2.375v2.635h-.39v-2.635H68.14v2.635h-.575v-3.476h18.597v3.476zm-2.793 0h2.06V35.59h-2.06v2.478zm-2.765 0h2.06V35.59h-2.06v2.478zm-3.387 0h2.059V35.59h-2.06v2.478zm-2.766 0h2.06V35.59h-2.06v2.478zm-3.388 0h2.06V35.59h-2.06v2.478zm-2.765 0h2.059V35.59h-2.06v2.478zm-.733 1.734h18.597v-1.577H67.565v1.577zM54.63 26.226h12.778v-1.673H54.63v1.673zm12.778 13.576h-3.02V29.117H57.65v10.685h-3.02V26.384h12.779v13.418zm-3.177-8.281a3.36 3.36 0 0 0-2.249-2.246h2.249v2.246zm-6.424 0v-2.246h2.248a3.36 3.36 0 0 0-2.248 2.246zm6.424 8.281h-6.424v-7.315a3.215 3.215 0 0 1 3.212-3.212 3.215 3.215 0 0 1 3.212 3.212v7.315zm-9.399-15.407h1.414v-2.33h-1.414v2.33zm-.546-2.487c.111-.107.286-.242.467-.268h1.563c.186.028.364.163.475.268h-2.505zm.546-.426h1.414v-.644h-1.414v.644zm.382-1.704h.65c.253.11.415.241.448.401.046.219-.128.434-.189.501h-1.168c-.062-.067-.235-.28-.19-.499.033-.162.196-.292.449-.403zm.009-.237.316-.227.28.21.036.017c.145.02.187.049.195.049a.12.12 0 0 1-.03.03h-.964c-.013-.01-.026-.02-.032-.02 0 0 .028-.035.199-.06zm1.888 2.524v.661h-.535l.543.647v1.022h-.716v-2.33h.708zm8.013.818-.363.432v1.08h-7.484v-1.08l-.363-.432h8.21zm-7.855-.157h7.5v-.898h-7.5v.898zm.132-4.615c.404-.774 1.176-1.328 2.256-1.688h2.723c1.08.36 1.853.914 2.257 1.688.772 1.48.026 3.26-.11 3.56H57.51c-.136-.3-.882-2.08-.11-3.56zm3.35-2.31a.99.99 0 0 0 .132-.323c0-.002.005-.1.035-.18h.202a.69.69 0 0 1 .035.18.99.99 0 0 0 .132.323c.13.217.322.368.494.464h-1.524a1.34 1.34 0 0 0 .494-.464zm4.175 6.264h.708v2.33h-.716v-1.022l.543-.647h-.535v-.66zm.866 2.33h1.413v-2.33h-1.413v2.33zm-.071-2.755h1.563c.18.026.356.161.467.268h-2.505c.112-.105.289-.24.475-.268zm.07-.158h1.414v-.644h-1.413v.644zm.382-1.704h.65c.253.11.416.241.449.403.046.219-.127.432-.19.5h-1.168c-.061-.068-.235-.283-.189-.502.034-.16.196-.29.448-.4zm.01-.237.035-.017.28-.21.316.227c.171.024.199.059.2.059h-.001c-.005 0-.018.01-.032.02h-.964a.113.113 0 0 1-.03-.03c.008 0 .05-.029.195-.05zm1.382 8.578h8.03v-1.342h-8.03v1.342zm8.187 0h3.593v-1.342h-3.593v1.342zm-8.187-1.5h13.033v-1.25H67.565v1.25zm8.187-1.407h3.593V22.09h-3.593v3.122zm-.882-3.28h5.357v-.562H74.87v.562zm1.184-.72h2.988v-7.96h-2.988v7.96zm-.898-8.118h4.785v-.527h-4.785v.527zm1.048-.685h2.689V7.05h-2.69v5.358zm-.778-5.516h4.244v-.448h-4.244v.448zm1.217-1.988v1.383h-.333V4.844c.001-.084.022-.285.166-.41.14.12.164.305.166.412v.059zm1.202-.03v1.413h-.593l.001-1.442a.474.474 0 0 1 .295-.424c.248.119.293.315.296.424v.028zm.942-.03v1.443h-.333V4.844c.002-.105.027-.29.167-.41.137.12.164.305.166.412zm-.123-.574-.043-.029-.043.029c-.247.16-.28.452-.281.57v1.447H78l-.007-1.524a.646.646 0 0 0-.415-.5l-.031-.014-.03.015a.646.646 0 0 0-.415.499h-.007l-.001.08v1.444h-.296l-.005-1.524a.645.645 0 0 0-.275-.493l-.043-.029-.043.029a.518.518 0 0 0-.123.116v-.849h2.477v.847a.532.532 0 0 0-.123-.114zm-2.635-1.126h.174l.004.007h2.682l.004-.007h.175l-.141.236H76.17l-.141-.236zm.078-.54c.013-.129.108-.84.7-.982.153-.053.567-.21.742-.394.173.184.586.341.733.392.6.144.695.855.708.984l-.193.383h-2.498l-.192-.383zM41.439 26.62h13.033v-1.25H41.44v1.25zm5.004 1.5h8.03v-1.342h-8.03v1.342zm-3.75 0h3.593v-1.342h-3.594v1.342zm-6.817 1.995h18.596v-1.838H35.876v1.838zm18.596 4.32h-.575V33.006h-.005c-.032-.419-.234-1.102-1.15-1.495l-.031-.013-.031.013c-.918.393-1.12 1.076-1.152 1.495l-.004 1.428h-.392V33.006h-.005c-.032-.419-.236-1.102-1.152-1.495l-.03-.013-.031.013c-.918.393-1.12 1.076-1.152 1.495l-.004 1.428h-1.014V33.006h-.005c-.031-.419-.234-1.102-1.152-1.495l-.03-.013-.03.013c-.942.403-1.123 1.131-1.153 1.495l-.004 1.428h-.391v-1.348l-.002-.08h-.004c-.031-.419-.234-1.102-1.152-1.495l-.03-.013-.03.013c-.974.417-1.142 1.164-1.157 1.575v1.348h-1.013v-1.352c-.015-.407-.183-1.154-1.156-1.571l-.031-.013-.03.013c-.918.393-1.12 1.076-1.152 1.495l-.006 1.428h-.39v-1.348l-.001-.08h-.004c-.033-.419-.237-1.102-1.152-1.495l-.031-.013-.03.013c-.918.393-1.12 1.076-1.152 1.495l-.006 1.428h-.574v-4.163h18.596v4.163zm-2.791 0V33.088c.012-.366.161-1.033 1.03-1.42.867.387 1.016 1.054 1.028 1.42v1.346h-2.058zm-2.766 0V33.088c.012-.366.161-1.033 1.03-1.42.865.385 1.016 1.054 1.029 1.42v1.346h-2.06zm-3.388 0V33.088c.012-.366.161-1.033 1.03-1.42.868.387 1.018 1.054 1.029 1.42v1.346h-2.06zm-2.765 0v-1.346c.012-.366.164-1.035 1.029-1.42.868.387 1.018 1.054 1.029 1.42v1.346h-2.058zm-3.388 0V33.12l.001-.031c.011-.366.16-1.033 1.029-1.42.865.385 1.017 1.054 1.029 1.418v1.348h-2.06zm-2.766 0V33.12l.001-.031c.011-.366.16-1.033 1.029-1.42.865.385 1.017 1.054 1.03 1.42v1.346h-2.06zm17.864 3.634h-.575v-2.635h-2.374v2.635h-.39v-2.635h-2.376v2.635h-1.013v-2.635H45.37v2.635h-.39v-2.635h-2.375v2.635h-1.013v-2.635h-2.375v2.635h-.39v-2.635H36.45v2.635h-.574v-3.476h18.596v3.476zm-2.791 0h2.059V35.59h-2.06v2.478zm-2.766 0h2.06V35.59h-2.06v2.478zm-3.388 0h2.06V35.59h-2.06v2.478zm-2.765 0h2.059V35.59h-2.06v2.478zm-3.388 0h2.059V35.59h-2.06v2.478zm-2.766 0h2.06V35.59h-2.06v2.478zm17.864 1.734H35.878v-.934h-.002v-.643h18.596v1.577zm-33.984 0h15.23v-.777h-15.23v.777zm.007-.934h.06v-1.664h-.06v1.664zm0-1.821h.06v-.943h-.06v.943zm-.039-1.807a.24.24 0 0 0 .103-.035v.741h-.103v-.706zm-.107.706h-.019v1.1h-.236v-1.793h.255v.693zm-1.205 3.856h1.186v-2.598h-1.186v2.598zm-.402-3.522a1.152 1.152 0 0 0-.365-.22.749.749 0 0 1-.172-.134.236.236 0 0 0-.116-.442h-.26a.237.237 0 0 0-.236.235c0 .088.048.164.122.205a.877.877 0 0 1-.162.133 1.165 1.165 0 0 0-.376.223 1 1 0 0 0-.287-.244l-.115-.063v1.074h-.847V35.24c.08-.016.144-.077.144-.161 0-.029-.018-.05-.03-.072h.03v-.151h3.774v.151h.03c-.012.023-.03.043-.03.072 0 .084.064.145.144.161v1.807h-.846v-1.074l-.116.063a1.001 1.001 0 0 0-.286.244zm.244.767h-.238c-.14-.31-.429-.534-.789-.534-.36 0-.65.225-.79.534h-.237v-.794c.057.047.121.11.16.186l.052.096.076-.078c.106-.112.24-.2.399-.26.022-.011.223-.13.294-.288l.038-.11h-.122a.078.078 0 0 1-.078-.08c0-.043.034-.078.078-.078h.26c.043 0 .078.035.078.078 0 .045-.035.08-.091.08h-.122l.05.11c.072.158.272.277.307.295.145.053.28.14.389.253l.074.078.052-.096a.65.65 0 0 1 .16-.186v.794zm0 2.755h-.132V37.41c0-.074-.025-.137-.04-.205h.172v2.598zm-1.65-2.755a.717.717 0 0 1 .623-.377c.272 0 .497.156.623.377h-1.246zm1.36 2.755h-1.475V37.41c0-.074.021-.14.04-.205h1.395c.02.066.04.131.04.205v2.393zm-1.633-2.393v2.393h-.13v-2.598h.171c-.016.068-.04.131-.04.205zm-1.475 2.393h1.187v-2.598h-1.187v2.598zm-.02-4.55h.256v1.795h-.236v-1.101h-.02v-.693zm-.08.694h-.102v-.74a.24.24 0 0 0 .102.034v.706zm-.098 1.1h.06v-.942h-.06v.943zm0 1.822h.06v-1.664h-.06v1.664zm-15.193.934h15.234v-.777H.197v.777zm1.077-.934H14.63v-1.664H1.274v1.664zm1.475-1.821h.399v-.943h-.4v.943zm.503 0h.256v-1.794h-.256v1.794zm.36 0h1.186v-.943H3.612v.943zm0-1.101v-.706c.08-.016.144-.077.144-.161 0-.029-.018-.05-.03-.072h.03v-.151h.897v.151h.03c-.011.023-.03.043-.03.072 0 .084.065.145.145.161v.706H3.612zm1.29 1.1h.255v-1.793h-.255v1.794zm.359 0h2.332v-.942H5.261v.943zm0-1.1v-.706c.08-.016.144-.077.144-.161 0-.029-.018-.05-.03-.072h.03v-.151H7.45v.151h.03c-.012.023-.03.043-.03.072 0 .084.064.145.144.161v.706H5.261zm2.436 0v-.693h.254v1.794h-.254v-.943h.004v-.158h-.004zm.358 1.1h3.18v-.942h-3.18v.943zm0-1.1v-.706c.081-.016.146-.077.146-.161 0-.029-.019-.05-.03-.072h.03v-.151h2.89v.151h.03c-.011.023-.03.043-.03.072 0 .084.065.143.145.161v.706h-3.18zm3.285 1.1h.256v-1.793h-.256v1.794zm.36 0h2.93v-.942H11.7v.943zm0-1.1v-.706c.08-.016.144-.077.144-.161 0-.029-.018-.05-.03-.072h.03v-.151h2.786v1.09H11.7zm-8.864-1.248H14.63v-.722H2.836v.722zm0-1.6h11.342c.008.002.013.008.022.008.002.002.178.023.43.03v.682H2.836v-.72zm18.26-4.431-.083.444v.176l-.102-.06-.1.06-.002-.184-.085-.448c-.02-.043-.058-.168-.01-.244.03-.047.097-.071.197-.071s.167.024.198.073c.048.074.01.199-.012.254zm-5.467 2.676c.129-.076.674-.323 2.299-.33h.065c1.621.007 2.167.254 2.306.334.233.078.529.119.877.119.279 0 .48-.027.481-.027a.18.18 0 0 1 .205.16.172.172 0 0 1-.036.133.19.19 0 0 1-.122.071c-.002 0-.219.03-.523.03-.394 0-.766-.103-1.124-.202a6.07 6.07 0 0 0-.84-.186 11.208 11.208 0 0 0-1.258-.065c-.487.002-.886.022-1.259.065-.291.037-.57.113-.839.186-.359.099-.729.201-1.125.201-.304 0-.52-.029-.523-.03a.183.183 0 0 1-.158-.203c.013-.1.106-.18.205-.16.009.002.21.027.48.027.35 0 .646-.041.889-.123zm.26-.812c.265-.072.54-.148.823-.182a11.04 11.04 0 0 1 1.247-.066c.482.002.878.023 1.246.066.284.034.559.11.825.182.164.045.333.09.505.127v.636c.035.008.067.016.104.022v-.64c.176.033.355.06.542.06.028 0 .047-.003.072-.005-.022.002-.043.004-.07.004v.624h-.007c-.332 0-.625-.038-.834-.106-.172-.102-.744-.338-2.34-.344h-.078c-1.602.006-2.176.242-2.338.338-.06.02-.135.03-.203.045v-.634h-.003c.172-.037.343-.082.509-.127zm2.353-.816c-.085-.002-.161-.007-.252-.007h-.065l-.137.002-.151-.347c.015-.047.082-.195.322-.195s.307.148.323.195l-.153.347c.039.003.075.003.113.005zm-3.423-1.06c-.02-.043-.058-.168-.01-.244.03-.047.097-.071.197-.071s.167.024.199.073c.048.074.009.199-.014.254l-.084.444v.176l-.1-.06-.102.06-.001-.184-.085-.448zm.039.78h.297l.123.073v.606c-.162.026-.34.045-.538.045h-.006v-.651l.124-.074zm-.118.828c.35 0 .646-.039.889-.123.129-.074.677-.321 2.299-.327h.065c1.618.006 2.167.253 2.306.333.233.078.529.117.877.117.279 0 .48-.025.481-.025a.18.18 0 0 1 .205.158.177.177 0 0 1-.036.135.19.19 0 0 1-.125.071c-.073.009-.27.029-.52.029-.394 0-.766-.102-1.124-.2-.269-.074-.548-.152-.84-.187a10.819 10.819 0 0 0-1.258-.065c-.487 0-.886.023-1.259.065-.291.035-.57.113-.839.187-.359.098-.729.2-1.125.2-.262 0-.464-.022-.522-.03a.183.183 0 1 1 .046-.362c.009 0 .21.024.48.024zm-6.047-6.044h18.532c3.093 3.435 3.707 8.04 3.783 8.722h-9.084c.024-.05.05-.1.042-.156a.289.289 0 0 0-.285-.251c-.013 0-.025.002-.038.004-.002 0-.15.016-.355.02v-.624l-.104.002v.626h-.008c-.332 0-.625-.039-.834-.108-.172-.102-.744-.336-2.34-.344h-.078c-1.602.006-2.176.242-2.338.34-.06.018-.135.028-.203.045v-.636h-.003c.172-.037.343-.08.509-.127.265-.072.54-.147.823-.182.369-.043.765-.064 1.247-.066.482.002.878.023 1.246.066.284.035.559.11.825.182.164.047.333.09.505.127v.636c.035.008.067.016.104.022v-.64c.176.033.355.06.542.06.311 0 .535-.031.536-.031a.284.284 0 0 0 .25-.321.289.289 0 0 0-.286-.252c-.013 0-.025 0-.038.002-.002 0-.149.018-.355.022v-.626c.198-.004.363-.018.43-.026a.288.288 0 0 0-.037-.573c-.013 0-.025 0-.038.002-.002 0-.15.016-.355.022v-.71l-.17-.098-.002-.227.08-.423c.003-.008.09-.205.002-.342-.052-.08-.149-.12-.287-.12-.138 0-.234.04-.285.12-.088.135-.003.33-.001.33l.08.425v.237l-.17.099v.646c.035.006.067.017.104.023v-.608l.124-.074h.297l.124.074v.65h-.008a2.78 2.78 0 0 1-.834-.108c-.163-.094-.696-.307-2.1-.335l.143-.328.006-.014-.003-.016c-.02-.1-.134-.293-.429-.293s-.41.192-.428.295l-.003.014.147.342c-1.402.028-1.935.241-2.089.331-.06.02-.135.03-.203.045v-.644l-.171-.099-.001-.227.08-.423c.003-.008.09-.205.002-.342-.052-.08-.149-.12-.287-.12-.138 0-.234.04-.285.12-.088.135-.003.33-.001.33l.08.425v.237l-.17.099v.71c-.206-.007-.355-.023-.356-.023a.285.285 0 0 0-.323.25.29.29 0 0 0 .252.32c.057.009.265.031.533.031.187 0 .366-.026.542-.059v.64a3.31 3.31 0 0 1-.538.043h-.006v-.624c-.04 0-.066-.004-.104-.004v.626c-.207-.004-.355-.022-.356-.022a.285.285 0 0 0-.323.25.289.289 0 0 0 .25.32c.001 0 .224.031.535.031.187 0 .366-.026.542-.059v.64c-.162.027-.34.045-.538.045h-.006v-.626l-.104-.002v.624a3.16 3.16 0 0 1-.356-.022.288.288 0 0 0-.323.25c-.007.055.019.102.04.149.004.006.004.014.007.02l-.02-.014H4.911c.075-.681.687-5.285 3.782-8.722zm-2.56-8.612h.687v11c-.26.464-.488.927-.688 1.38v-12.38zm0-.956h1.11l-.461.798h-.65v-.798zm.578-1.51.558-.818.556.818v1.353h-.267v-1.287a.291.291 0 0 0-.29-.293c-.16 0-.29.131-.29.293v1.287H6.71V13.14zm.558-2.095.493 1.721-.493-.722-.494.724.494-1.723zm-.134 3.448v-1.287c0-.074.06-.135.134-.135.073 0 .132.061.132.135v1.287h-.266zm3.55.157-.462.798h-2.47l-.459-.798h3.39zm-.533-1.51.558-.818.556.818v1.353H11v-1.287a.292.292 0 0 0-.29-.293c-.16 0-.292.131-.292.293v1.287h-.266V13.14zm.558-2.095.493 1.721-.493-.722-.494.724.494-1.723zm-.134 3.448v-1.287c0-.074.06-.135.134-.135.074 0 .133.061.133.135v1.287h-.267zm1.27.157v.798h-.65l-.46-.798h1.11zm-.688 7.31v-6.354h.687v5.982c-.23.12-.465.237-.687.372zm3.978-1.36h5.646c1.767.362 3.357 1.032 4.723 2.047H10.412c1.367-1.015 2.957-1.685 4.724-2.048zm-.051-.158h5.748v-1.82h-5.748v1.82zm-.534-1.978h6.816v-.66H14.55v.66zm4.587-.817h.687v-2.041h-.687v2.041zm0-2.997h1.11l-.46.798h-.65v-.798zm.579-1.51.557-.818.557.818v1.353h-.267v-1.287a.291.291 0 0 0-.29-.293c-.16 0-.291.131-.291.293v1.287h-.266V13.14zm.557-2.095.493 1.721-.493-.722-.494.724.494-1.723zm-.134 3.448v-1.287c0-.074.06-.135.134-.135.073 0 .132.061.132.135v1.287h-.266zm3.55.157-.462.798H20.76l-.46-.798h3.39zm-.532-1.51.557-.818.557.818v1.353h-.266v-1.287a.292.292 0 0 0-.29-.293c-.161 0-.292.131-.292.293v1.287h-.266V13.14zm.557-2.095.493 1.721-.493-.722-.494.724.494-1.723zm-.134 3.448v-1.287c0-.074.06-.135.134-.135.074 0 .133.061.133.135v1.287h-.267zm1.27.157v.798h-.65l-.46-.798h1.11zm-1.442.798.306-.528.305.528h-.61zm-.449.507a.257.257 0 0 0-.257.258v.223h-.128v-.223a.257.257 0 0 0-.258-.258.258.258 0 0 0-.259.258v.223h-.128v-.223a.257.257 0 0 0-.257-.258.258.258 0 0 0-.26.258v.223h-.127v-.223a.257.257 0 1 0-.516 0v.223h-.048v-.83h2.544v.83h-.048v-.223a.257.257 0 0 0-.258-.258zm-2.977 1.692h.582v-2.041h-.582v2.041zm-.015-2.199.306-.528.304.528h-.61zm3.21 5.256h-.004a1.935 1.935 0 0 0-1.146-1.682l-.033-.016-.034.016c-.528.256-.814.618-.97.97v-1.37h.533v-.975h-.802v-1.106h.153v-.328c0-.086.068-.153.153-.153.085 0 .153.067.153.153v.328h.337v-.328c0-.086.07-.153.155-.153.084 0 .153.067.153.153v.328h.336v-.328c0-.086.07-.153.155-.153.085 0 .153.067.153.153v.328h.337v-.328c0-.086.068-.153.153-.153.085 0 .154.067.154.153v.328h.152v4.66c.052.022.107.04.157.063-.12-.053-.246-.098-.369-.147l.125.05v-.463zm-.458-.266h-.006c-.026-.22-.15-.608-.69-.827l-.03-.012-.029.012c-.528.213-.663.583-.69.827v.1l.024.006c-.064-.014-.125-.039-.19-.053h-.11c.074-.417.307-.963.996-1.311.865.435 1.014 1.19 1.026 1.605v.32c-.1-.041-.199-.084-.3-.121v-.468l-.001-.078zm-.13.495a12.002 12.002 0 0 0-1.165-.352v-.061c.008-.195.092-.545.57-.751.48.206.561.556.567.749v.403l.028.012zm.834.331v-5.658h.582v5.947c.053.026.105.055.157.084v-6.031h.688v6.417a11.394 11.394 0 0 0-1.427-.759zM8.42 20.547v-.026c.008-.195.092-.545.57-.751.48.206.56.556.567.749v.773l.001 1.868c-.238.208-.47.43-.693.66H8.42v-3.273zm1.295-.108h-.006c-.026-.22-.15-.608-.69-.827l-.03-.012-.03.012c-.527.213-.662.583-.69.827v.695H7.96l.001-.348c.012-.415.161-1.17 1.027-1.605.866.435 1.015 1.19 1.026 1.605l.001.348h-.3v-.617l-.001-.078zm.546-4.002h-.048v-.223a.257.257 0 1 0-.516 0v.223H9.57v-.223a.257.257 0 0 0-.257-.258.257.257 0 0 0-.26.258v.223h-.127v-.223a.257.257 0 0 0-.258-.258.257.257 0 0 0-.259.258v.223h-.127v-.223a.257.257 0 1 0-.516 0v.223h-.048v-.83h2.544v.83zm.143-.988.306-.528.305.528h-.61zm.014.158H11v6.462c-.198.127-.391.26-.582.4v-6.862zm-3.455-.158.306-.528.304.528h-.61zm.014.158h.582v9.811c-.207.299-.403.602-.582.907V15.607zm1.512 8.612a13.201 13.201 0 0 0-.772.98v-8.657h.152v-.328c0-.086.069-.153.154-.153.085 0 .153.067.153.153v.328h.337v-.328c0-.086.07-.153.154-.153.085 0 .154.067.154.153v.328h.336v-.328c0-.086.07-.153.155-.153.085 0 .153.067.153.153v.328h.337v-.328c0-.086.068-.153.153-.153.085 0 .153.067.153.153v.328h.153v6.035c-.034.024-.072.045-.105.071h-.004l-.021.017-.181.14h.015c-.085.07-.165.146-.25.218v-1.731h.459l-.001-.587h-.004a1.935 1.935 0 0 0-1.146-1.682l-.034-.016-.033.016a1.935 1.935 0 0 0-1.147 1.682l-.005.587h.463l-.005 2.686h.447c-.028.029-.057.055-.084.084h-.002l-.023.027-.119.13h.008zm18.592-.157H8.837c.429-.46.889-.882 1.369-1.256h15.506c.48.374.94.796 1.369 1.256zm6.001 9.036v.72H21.288v-.683c.251-.006.428-.027.43-.027.007-.002.01-.01.017-.01h11.347zm-11.794 1.6h11.794v-.722H21.288v.722zm11.481 2.349h.4v-.943h-.4v.943zm-.359 0h.255v-1.794h-.255v1.794zm-1.29 0h1.186v-.943H31.12v.943zm.116-2.04h.03v-.151h.895v.151h.03c-.011.023-.03.043-.03.072 0 .084.065.145.145.161v.706H31.12v-.706c.08-.016.145-.077.145-.161 0-.029-.018-.05-.03-.072zm-.475 2.04h.255v-1.794h-.255v1.794zm-2.436 0h2.332v-.943h-2.332v.943zm.115-2.04h.03v-.151h2.042v.151h.03c-.011.023-.03.043-.03.072 0 .084.065.145.145.161v.706h-2.332v-.706c.08-.016.145-.077.145-.161 0-.029-.019-.05-.03-.072zm-.474 2.04h.255v-1.794h-.255v1.794zm-3.284 0h3.18v-.943h-3.18v.943zm.114-2.04h.03v-.151h2.89v.151h.03c-.01.023-.03.043-.03.072 0 .084.065.145.146.161v.706h-3.18v-.706c.08-.016.144-.077.144-.161 0-.029-.018-.05-.03-.072zm-.473 2.04h.255v-1.794h-.255v1.794zm-3.035 0h2.93v-.943h-2.93v.943zm2.816-2.04c-.011.023-.03.043-.03.072 0 .084.065.145.145.161v.706h-2.931v-1.09h2.786v.151h.03zm-9.386-1.87h.018c.128 0 .247-.022.37-.039h.172v5.77h-.544v-5.73h-.016zm1.146-.196.025-.006c.265-.074.54-.15.823-.182.369-.045.765-.066 1.247-.066.482 0 .878.02 1.246.066.284.032.559.108.825.182.009.002.02.002.027.006h-4.193zm-.481 1.757h5.152v-.722h-5.152v.722zm0-.88h5.152v-.72h-5.152v.72zm5.798-.785c-.394 0-.766-.103-1.124-.2l-.06-.015c-.25-.07-.51-.137-.78-.17a10.365 10.365 0 0 0-1.258-.065c-.487 0-.886.02-1.259.065-.291.035-.57.11-.839.184-.134.037-.27.07-.408.103a3.082 3.082 0 0 1-.717.098c-.304 0-.52-.029-.523-.029-.065-.008-.107-.055-.133-.112-.013-.029-.03-.058-.025-.092.013-.1.106-.178.205-.16.009.002.21.027.48.027.35 0 .646-.041.889-.123.129-.076.674-.323 2.299-.33h.065c1.621.007 2.167.254 2.306.334.233.078.529.119.877.119.279 0 .48-.027.481-.027.103-.018.192.06.205.16.005.032-.012.061-.025.092-.004.01-.002.022-.01.032l-.001.01c-.001 0-.003 0-.004.003a.181.181 0 0 1-.118.067c-.002 0-.219.029-.523.029zm-.437.057c.053.008.11.013.163.018.092.009.18.03.274.03h.019-.016v5.73h-.545v-5.77h.125l-.02-.008zm.544 5.778h13.357v-1.664H21.288v1.664zm21.404-13.656h3.594V22.09h-3.594v3.122zm-.881-3.28h5.357v-.562H41.81v.562zm1.184-.72h2.989v-7.96h-2.989v7.96zm-.898-8.118h4.784v-.527h-4.784v.527zm1.047-.685h2.69V7.05h-2.69v5.358zm-.777-5.516h4.244v-.448h-4.244v.448zm1.216-2.05v1.445h-.332V4.846c.002-.107.028-.293.165-.412.14.12.165.305.167.41zm1.202 1.445h-.592V4.846c.004-.109.048-.305.296-.424a.474.474 0 0 1 .295.424l.001 1.442zm.942-1.444v1.444h-.332V4.845c.003-.106.027-.292.166-.41.145.124.165.325.166.409zm-.123-.573-.043-.029-.042.029c-.2.13-.26.341-.276.493l-.005 1.524h-.295V4.844l-.001-.08h-.008a.646.646 0 0 0-.414-.5l-.03-.014-.031.015a.646.646 0 0 0-.416.499l-.007 1.524h-.295V4.842c-.002-.12-.034-.412-.281-.571l-.044-.029-.042.029a.525.525 0 0 0-.123.114v-.847h2.476v.85a.515.515 0 0 0-.123-.117zM42.97 3.145h.175l.005.007h2.682l.004-.007h.174l-.142.236h-2.756l-.142-.236zm.078-.54c.013-.129.109-.84.708-.984.147-.05.56-.208.733-.392.176.184.59.341.743.394.591.142.686.853.7.982l-.192.383H43.24l-.194-.383zM79.503 28.12v-1.342h1.253v-1.565h-1.253V22.09h.881v-.878H79.2v-7.96h.898v-.843H79.05V7.05h.777v-.763h-.884v-2.75h.07l.332-.55h-.373l.177-.35-.001-.02c-.002-.041-.062-.966-.822-1.146-.264-.094-.508-.219-.626-.313.048-.025.08-.06.08-.098 0-.068-.079-.12-.184-.135v-.01a.12.12 0 0 0 .086-.113.121.121 0 0 0-.086-.115V.386c0-.02-.021-.035-.048-.035-.028 0-.05.014-.05.035v.307a.123.123 0 0 0-.074.11c0 .047.03.088.074.108v.015c-.105.014-.184.067-.184.135 0 .039.033.073.08.098-.118.094-.364.219-.634.315-.752.178-.811 1.103-.813 1.144v.02l.176.35h-.373l.331.55h.07v2.75h-.883v.763h.777v5.358H75v.843h.897v7.96h-1.184v.878h.882v3.122h-8.029v-.817h-.202v-2.33h.736l-.103-.129c-.012-.014-.29-.343-.633-.43v-.826h-.084c.089-.125.192-.315.147-.532-.033-.163-.155-.298-.34-.415.013-.012.023-.016.037-.035.03-.035.054-.082.042-.135-.023-.114-.174-.155-.307-.176l-.213-.16a.174.174 0 0 0 .046-.108c0-.092-.069-.157-.154-.178v-1.344c0-.016-.017-.028-.039-.028-.021 0-.038.012-.038.028v1.344c-.085.02-.154.086-.154.178 0 .043.022.078.046.109l-.213.16c-.134.02-.284.06-.308.175-.01.053.013.1.042.135.015.019.024.023.038.035-.185.117-.306.252-.34.415-.045.217.057.407.147.532h-.084v.829c-.346.092-.62.413-.633.427l-.075.092v-.358H64.7c.2-.454.846-2.154.076-3.631-.503-.966-1.52-1.622-3.005-1.966-.198-.127-.402-.323-.46-.612a.615.615 0 0 0-.027-.172c.081-.01.146-.071.146-.155a.162.162 0 0 0-.164-.164h-.172v-1.16c0-.028-.032-.05-.073-.05l-.002.001-.002-.002c-.041 0-.074.023-.074.051v1.16h-.172a.162.162 0 0 0-.163.164c0 .084.064.145.146.155a.622.622 0 0 0-.027.172c-.058.289-.263.485-.46.612-1.486.344-2.502 1-3.005 1.966-.77 1.477-.124 3.177.075 3.631h-.226v.358l-.074-.092c-.013-.014-.288-.335-.634-.427v-.829h-.084c.09-.125.193-.315.148-.532-.034-.163-.156-.298-.34-.415.013-.012.023-.016.038-.035.029-.035.052-.082.041-.135-.024-.114-.174-.155-.308-.176l-.213-.16a.173.173 0 0 0 .046-.108c0-.092-.068-.157-.153-.178v-1.344c0-.016-.017-.028-.039-.028s-.039.012-.039.028v1.344c-.085.02-.153.086-.153.178 0 .043.021.078.046.109l-.213.16c-.134.02-.284.06-.308.175-.011.053.012.1.042.135.014.019.025.023.038.035-.185.117-.307.252-.34.415-.046.217.058.407.146.532h-.083v.827c-.343.086-.621.415-.634.43l-.103.128h.737v2.33h-.203v.817h-8.029V22.09h.882v-.878H46.14v-7.96h.898v-.843H45.99V7.05h.778v-.763h-.884v-2.75h.07l.332-.55h-.374l.177-.35v-.02c-.003-.041-.061-.966-.814-1.144-.27-.096-.515-.22-.633-.315.047-.025.08-.06.08-.098 0-.068-.08-.12-.184-.135V.91a.123.123 0 0 0 .073-.108c0-.05-.03-.09-.073-.11V.386c0-.02-.023-.035-.05-.035-.027 0-.048.014-.048.035v.302a.121.121 0 0 0-.087.115.12.12 0 0 0 .087.113v.01c-.106.014-.185.067-.185.135 0 .039.032.073.08.098-.118.094-.361.219-.626.313-.76.18-.82 1.105-.821 1.146l-.001.02.177.35h-.374l.332.55h.07v2.75h-.884v.763h.778v5.358h-1.048v.843h.899v7.96h-1.185v.878h.882v3.122h-1.253v1.565h1.253v1.342h-6.817v10.749h-.915v-1.821h-1.477v-1.101h-.557v-.706c.08-.016.145-.077.145-.161 0-.029-.018-.05-.03-.072h.03v-.151h.326V32.94h-2.074c-.068-.626-.667-5.233-3.738-8.722h.009l-.12-.13-.023-.027h-.002a12.18 12.18 0 0 0-1.34-1.256h.016l-.181-.141-.022-.017h-.003c-.242-.186-.498-.35-.754-.515v-7.64h-.579V12.98l-.672-2.357h.043c.03 0 .053-.025.053-.053a.052.052 0 0 0-.053-.053h-.036v-.14a.048.048 0 0 0-.049-.049c-.027 0-.049.02-.049.05v.139h-.037a.053.053 0 0 0-.053.053c0 .028.025.053.053.053h.044l-.04.137-.286 1-.344 1.2v.13l-.003.002v1.402h-2.012V12.98l-.672-2.357h.043a.055.055 0 0 0 .054-.053.054.054 0 0 0-.054-.053h-.036v-.14a.048.048 0 0 0-.049-.049c-.027 0-.05.02-.05.05v.139h-.035a.053.053 0 0 0-.054.053c0 .028.025.053.054.053h.043l-.67 2.336v.131l-.003.002v1.402h-.579v3.154h-.933v-.233h.36a.117.117 0 1 0 0-.235h-.36v-.254h.3a.105.105 0 1 0 0-.21h-.3v-.267h.207a.105.105 0 0 0 .105-.106.107.107 0 0 0-.105-.106h-.59a.107.107 0 0 0-.106.106c0 .06.048.106.106.106h.206v.266h-.3a.105.105 0 1 0 0 .211h.3v.254h-.359a.118.118 0 0 0-.117.119c0 .063.053.116.117.116h.36v.233h-3.478v.974h.534v1.87h-.118c-1 .227-1.932.573-2.806 1.013v-7.011h-.58V12.98l-.671-2.357h.043c.03 0 .053-.025.053-.053a.052.052 0 0 0-.053-.053h-.036v-.14a.048.048 0 0 0-.05-.049.048.048 0 0 0-.048.05v.139h-.037a.053.053 0 0 0-.053.053c0 .028.024.053.053.053h.044l-.04.137-.286 1-.344 1.2-.001.13-.002.002v1.402H7.983V12.98l-.672-2.357h.043a.055.055 0 0 0 .054-.053.054.054 0 0 0-.054-.053h-.036v-.14a.048.048 0 0 0-.05-.049c-.027 0-.05.02-.05.05v.139h-.034a.053.053 0 0 0-.054.053c0 .028.024.053.054.053h.043l-.67 2.336-.001.131-.002.002v1.402h-.58v13.854c-.929 2.256-1.178 4.202-1.221 4.593H2.678v1.915h.326v.151h.03c-.011.023-.03.043-.03.072 0 .084.065.145.144.161v.706H2.59v1.1H1.116v1.822H.04v1.092h86.28V28.119h-6.817z" stroke="#4B5471" stroke-width=".6" mask="url(#g1m822gbjb)"/>
        <path d="M66.586 23.978h.592v-1.373h-.592v1.373zm-.371.158h1.333v-1.688h-1.333v1.688z" fill="#4B5471" mask="url(#g1m822gbjb)"/>
        <path d="M66.586 23.978h.592v-1.373h-.592v1.373zm-.371.158h1.333v-1.688h-1.333v1.688z" stroke="#4B5471" stroke-width=".75" mask="url(#g1m822gbjb)"/>
        <path d="M12.837 34.213h.997v-.798h-.997v.798zm-.168.268h1.333v-1.334H12.67v1.334z" fill="#4B5471" mask="url(#g1m822gbjb)"/>
        <path d="M12.837 34.213h.997v-.798h-.997v.798zm-.168.268h1.333v-1.334H12.67v1.334z" stroke="#4B5471" stroke-width=".75" mask="url(#g1m822gbjb)"/>
        <path d="M13.79 34.213h.997v-.798h-.996v.798zm-.168.268h1.334v-1.334h-1.334v1.334z" fill="#4B5471" mask="url(#g1m822gbjb)"/>
        <path d="M13.79 34.213h.997v-.798h-.996v.798zm-.168.268h1.334v-1.334h-1.334v1.334z" stroke="#4B5471" stroke-width=".75" mask="url(#g1m822gbjb)"/>
        <path d="M11.885 34.213h.997v-.798h-.997v.798zm-.168.268h1.333v-1.334h-1.333v1.334z" fill="#4B5471" mask="url(#g1m822gbjb)"/>
        <path d="M11.885 34.213h.997v-.798h-.997v.798zm-.168.268h1.333v-1.334h-1.333v1.334z" stroke="#4B5471" stroke-width=".75" mask="url(#g1m822gbjb)"/>
        <path d="M9.022 34.213h.958v-.798h-.958v.798zm-.188.268h1.333v-1.334H8.834v1.334z" fill="#4B5471" mask="url(#g1m822gbjb)"/>
        <path d="M9.022 34.213h.958v-.798h-.958v.798zm-.188.268h1.333v-1.334H8.834v1.334z" stroke="#4B5471" stroke-width=".75" mask="url(#g1m822gbjb)"/>
        <path d="M9.862 34.213h.958v-.798h-.958v.798zm-.187.268h1.333v-1.334H9.675v1.334z" fill="#4B5471" mask="url(#g1m822gbjb)"/>
        <path d="M9.862 34.213h.958v-.798h-.958v.798zm-.187.268h1.333v-1.334H9.675v1.334z" stroke="#4B5471" stroke-width=".75" mask="url(#g1m822gbjb)"/>
        <path d="M10.702 34.213h.959v-.798h-.959v.798zm-.187.268h1.333v-1.334h-1.333v1.334z" fill="#4B5471" mask="url(#g1m822gbjb)"/>
        <path d="M10.702 34.213h.959v-.798h-.959v.798zm-.187.268h1.333v-1.334h-1.333v1.334z" stroke="#4B5471" stroke-width=".75" mask="url(#g1m822gbjb)"/>
        <path d="M8.18 34.213h.959v-.798H8.18v.798zm-.187.268h1.333v-1.334H7.993v1.334z" fill="#4B5471" mask="url(#g1m822gbjb)"/>
        <path d="M8.18 34.213h.959v-.798H8.18v.798zm-.187.268h1.333v-1.334H7.993v1.334z" stroke="#4B5471" stroke-width=".75" mask="url(#g1m822gbjb)"/>
        <path d="M6.306 34.213h.958v-.798h-.958v.798zm-.188.268h1.333v-1.334H6.118v1.334z" fill="#4B5471" mask="url(#g1m822gbjb)"/>
        <path d="M6.306 34.213h.958v-.798h-.958v.798zm-.188.268h1.333v-1.334H6.118v1.334z" stroke="#4B5471" stroke-width=".75" mask="url(#g1m822gbjb)"/>
        <path d="M7.147 34.213h.958v-.798h-.958v.798zm-.188.268h1.333v-1.334H6.96v1.334z" fill="#4B5471" mask="url(#g1m822gbjb)"/>
        <path d="M7.147 34.213h.958v-.798h-.958v.798zm-.188.268h1.333v-1.334H6.96v1.334z" stroke="#4B5471" stroke-width=".75" mask="url(#g1m822gbjb)"/>
        <path d="M5.465 34.213h.958v-.798h-.958v.798zm-.188.268h1.334v-1.334H5.277v1.334z" fill="#4B5471" mask="url(#g1m822gbjb)"/>
        <path d="M5.465 34.213h.958v-.798h-.958v.798zm-.188.268h1.334v-1.334H5.277v1.334z" stroke="#4B5471" stroke-width=".75" mask="url(#g1m822gbjb)"/>
        <path d="M3.339 34.213h1.29v-.798H3.34v.798zm-.104.268h1.5v-1.334h-1.5v1.334z" fill="#4B5471" mask="url(#g1m822gbjb)"/>
        <path d="M3.339 34.213h1.29v-.798H3.34v.798zm-.104.268h1.5v-1.334h-1.5v1.334z" stroke="#4B5471" stroke-width=".75" mask="url(#g1m822gbjb)"/>
        <path d="M22.54 34.213h.996v-.798h-.996v.798zm-.169.268h1.333v-1.334h-1.333v1.334z" fill="#4B5471" mask="url(#g1m822gbjb)"/>
        <path d="M22.54 34.213h.996v-.798h-.996v.798zm-.169.268h1.333v-1.334h-1.333v1.334z" stroke="#4B5471" stroke-width=".75" mask="url(#g1m822gbjb)"/>
        <path d="M21.587 34.213h.997v-.798h-.997v.798zm-.168.268h1.333v-1.334H21.42v1.334z" fill="#4B5471" mask="url(#g1m822gbjb)"/>
        <path d="M21.587 34.213h.997v-.798h-.997v.798zm-.168.268h1.333v-1.334H21.42v1.334z" stroke="#4B5471" stroke-width=".75" mask="url(#g1m822gbjb)"/>
        <path d="M23.493 34.213h.996v-.798h-.996v.798zm-.169.268h1.334v-1.334h-1.334v1.334z" fill="#4B5471" mask="url(#g1m822gbjb)"/>
        <path d="M23.493 34.213h.996v-.798h-.996v.798zm-.169.268h1.334v-1.334h-1.334v1.334z" stroke="#4B5471" stroke-width=".75" mask="url(#g1m822gbjb)"/>
        <path d="M26.48 34.213h.958v-.798h-.958v.798zm-.188.268h1.333v-1.334h-1.333v1.334z" fill="#4B5471" mask="url(#g1m822gbjb)"/>
        <path d="M26.48 34.213h.958v-.798h-.958v.798zm-.188.268h1.333v-1.334h-1.333v1.334z" stroke="#4B5471" stroke-width=".75" mask="url(#g1m822gbjb)"/>
        <path d="M25.639 34.213h.958v-.798h-.958v.798zm-.188.268h1.334v-1.334H25.45v1.334z" fill="#4B5471" mask="url(#g1m822gbjb)"/>
        <path d="M25.639 34.213h.958v-.798h-.958v.798zm-.188.268h1.334v-1.334H25.45v1.334z" stroke="#4B5471" stroke-width=".75" mask="url(#g1m822gbjb)"/>
        <path d="M24.797 34.213h.96v-.798h-.96v.798zm-.187.268h1.334v-1.334H24.61v1.334z" fill="#4B5471" mask="url(#g1m822gbjb)"/>
        <path d="M24.797 34.213h.96v-.798h-.96v.798zm-.187.268h1.334v-1.334H24.61v1.334z" stroke="#4B5471" stroke-width=".75" mask="url(#g1m822gbjb)"/>
        <path d="M27.32 34.213h.959v-.798h-.959v.798zm-.187.268h1.333v-1.334h-1.333v1.334z" fill="#4B5471" mask="url(#g1m822gbjb)"/>
        <path d="M27.32 34.213h.959v-.798h-.959v.798zm-.187.268h1.333v-1.334h-1.333v1.334z" stroke="#4B5471" stroke-width=".75" mask="url(#g1m822gbjb)"/>
        <path d="M29.194 34.213h.959v-.798h-.959v.798zm-.187.268h1.333v-1.334h-1.333v1.334z" fill="#4B5471" mask="url(#g1m822gbjb)"/>
        <path d="M29.194 34.213h.959v-.798h-.959v.798zm-.187.268h1.333v-1.334h-1.333v1.334z" stroke="#4B5471" stroke-width=".75" mask="url(#g1m822gbjb)"/>
        <path d="M28.355 34.213h.958v-.798h-.958v.798zm-.188.268H29.5v-1.334h-1.333v1.334z" fill="#4B5471" mask="url(#g1m822gbjb)"/>
        <path d="M28.355 34.213h.958v-.798h-.958v.798zm-.188.268H29.5v-1.334h-1.333v1.334z" stroke="#4B5471" stroke-width=".75" mask="url(#g1m822gbjb)"/>
        <path d="M30.035 34.213h.959v-.798h-.959v.798zm-.187.268h1.333v-1.334h-1.333v1.334z" fill="#4B5471" mask="url(#g1m822gbjb)"/>
        <path d="M30.035 34.213h.959v-.798h-.959v.798zm-.187.268h1.333v-1.334h-1.333v1.334z" stroke="#4B5471" stroke-width=".75" mask="url(#g1m822gbjb)"/>
        <path d="M31.238 34.213h1.29v-.798h-1.29v.798zm-.105.268h1.5v-1.334h-1.5v1.334z" fill="#4B5471" mask="url(#g1m822gbjb)"/>
        <path d="M31.238 34.213h1.29v-.798h-1.29v.798zm-.105.268h1.5v-1.334h-1.5v1.334z" stroke="#4B5471" stroke-width=".75" mask="url(#g1m822gbjb)"/>
        <path d="M17.156 34.213h1.025v-.798h-1.025v.798zm-.154.268h1.333v-1.334h-1.333v1.334z" fill="#4B5471" mask="url(#g1m822gbjb)"/>
        <path d="M17.156 34.213h1.025v-.798h-1.025v.798zm-.154.268h1.333v-1.334h-1.333v1.334z" stroke="#4B5471" stroke-width=".75" mask="url(#g1m822gbjb)"/>
        <path d="M18.165 34.213h1.026v-.798h-1.026v.798zm-.153.268h1.333v-1.334h-1.333v1.334z" fill="#4B5471" mask="url(#g1m822gbjb)"/>
        <path d="M18.165 34.213h1.026v-.798h-1.026v.798zm-.153.268h1.333v-1.334h-1.333v1.334z" stroke="#4B5471" stroke-width=".75" mask="url(#g1m822gbjb)"/>
        <path d="M19.175 34.213H20.2v-.798h-1.026v.798zm-.154.268h1.333v-1.334h-1.333v1.334z" fill="#4B5471" mask="url(#g1m822gbjb)"/>
        <path d="M19.175 34.213H20.2v-.798h-1.026v.798zm-.154.268h1.333v-1.334h-1.333v1.334z" stroke="#4B5471" stroke-width=".75" mask="url(#g1m822gbjb)"/>
        <path d="M16.145 34.213h1.026v-.798h-1.026v.798zm-.154.268h1.334v-1.334H15.99v1.334z" fill="#4B5471" mask="url(#g1m822gbjb)"/>
        <path d="M16.145 34.213h1.026v-.798h-1.026v.798zm-.154.268h1.334v-1.334H15.99v1.334z" stroke="#4B5471" stroke-width=".75" mask="url(#g1m822gbjb)"/>
        <path d="M8.99 17.104a.853.853 0 0 1 0 1.704.853.853 0 0 1 0-1.704m0 1.862a1.01 1.01 0 1 0-.002-2.019 1.01 1.01 0 0 0 .001 2.019" fill="#4B5471" mask="url(#g1m822gbjb)"/>
        <path d="M8.99 17.104a.853.853 0 0 1 0 1.704.853.853 0 0 1 0-1.704zm0 1.862a1.01 1.01 0 1 0-.002-2.019 1.01 1.01 0 0 0 .001 2.019z" stroke="#4B5471" stroke-width=".75" mask="url(#g1m822gbjb)"/>
        <path d="M7.774 1.392V1.12h1.08V.144h.27v.976h1.08v.272h-1.08v2.666h-.27V1.392h-1.08zm.786 2.666-1.145 6.841-.009.057.101.352.078-.468 1.108-6.625h.592l1.091 6.53.095.563.1-.352-.033-.2-1.109-6.63-.011-.068h-.19V1.497h1.08v-.481h-1.08V.04H8.75v.976h-1.08v.48h1.08v2.562h-.19z" fill="#4B5471" mask="url(#g1m822gbjb)"/>
        <path d="M7.774 1.392V1.12h1.08V.144h.27v.976h1.08v.272h-1.08v2.666h-.27V1.392h-1.08zm.786 2.666-1.145 6.841-.009.057.101.352.078-.468 1.108-6.625h.592l1.091 6.53.095.563.1-.352-.033-.2-1.109-6.63-.011-.068h-.19V1.497h1.08v-.481h-1.08V.04H8.75v.976h-1.08v.48h1.08v2.562h-.19z" stroke="#4B5471" stroke-width=".75" mask="url(#g1m822gbjb)"/>
        <path d="M20.78 1.392V1.12h1.079V.144h.27v.976h1.08v.272h-1.08v2.666h-.27V1.392h-1.08zm.785 2.666-1.145 6.841-.009.057.102.352.077-.468 1.108-6.625h.592l1.092 6.53.094.563.101-.352-.034-.2-1.108-6.63-.012-.068h-.189V1.497h1.08v-.481h-1.08V.04h-.48v.976h-1.079v.48h1.08v2.562h-.19z" fill="#4B5471" mask="url(#g1m822gbjb)"/>
        <path d="M20.78 1.392V1.12h1.079V.144h.27v.976h1.08v.272h-1.08v2.666h-.27V1.392h-1.08zm.785 2.666-1.145 6.841-.009.057.102.352.077-.468 1.108-6.625h.592l1.092 6.53.094.563.101-.352-.034-.2-1.108-6.63-.012-.068h-.189V1.497h1.08v-.481h-1.08V.04h-.48v.976h-1.079v.48h1.08v2.562h-.19z" stroke="#4B5471" stroke-width=".75" mask="url(#g1m822gbjb)"/>
    </g>
</svg>
