<svg width="50" height="50" viewBox="0 0 50 50" xmlns="http://www.w3.org/2000/svg">
    <g fill="#8F7294" fill-rule="nonzero" opacity=".9">
        <path d="M30.657 25a4.686 4.686 0 1 1 .02 0 .59.59 0 0 0 1.177 0 6.83 6.83 0 1 0-5.56 6.718A6.902 6.902 0 0 0 31.85 25a.59.59 0 0 0-1.177 0h-.016z"/>
        <path d="M25.08 32.21a7.355 7.355 0 0 1-6.256-3.516 7.208 7.208 0 0 1 .629-8.28 7.297 7.297 0 0 1 5.614-2.616 7.016 7.016 0 0 1 2.483.447 7.252 7.252 0 0 1 4.689 6.718v.106a7.437 7.437 0 0 1-1.692 4.543 7.055 7.055 0 0 1-5.467 2.599zm-.012-13.638a6.52 6.52 0 0 0-5.018 2.326 6.437 6.437 0 0 0-.568 7.396 6.546 6.546 0 0 0 6.746 3.044 6.285 6.285 0 0 0 3.728-2.21 6.686 6.686 0 0 0 1.434-3.177c-.144.014-.288 0-.426-.042a6.022 6.022 0 1 1-11.116-4 6.134 6.134 0 0 1 5.216-2.941c.36 0 .721.032 1.076.098a6.1 6.1 0 0 1 4.847 5.014c.133-.037.272-.048.409-.032a6.462 6.462 0 0 0-4.11-5.077 6.25 6.25 0 0 0-2.22-.397l.002-.002zm0 1.16a5.36 5.36 0 0 0-4.563 2.577 5.27 5.27 0 0 0 6.3 7.643A5.322 5.322 0 0 0 30.275 25v-.308a5.337 5.337 0 0 0-4.287-4.864 5.13 5.13 0 0 0-.926-.094l.006-.002zm6 5.266a.19.19 0 0 0 .217.188c.082 0 .18-.024.19-.144v-.056a.205.205 0 0 0-.407.014v-.002z"/>
        <path d="M35.89 25a10.882 10.882 0 0 1-19.246 6.97 10.886 10.886 0 0 1 10.52-17.648 10.998 10.998 0 0 1 8.726 10.675.59.59 0 0 0 1.177 0 12.072 12.072 0 0 0-21.351-7.719 12.085 12.085 0 0 0 11.64 19.576 12.214 12.214 0 0 0 9.71-11.834.59.59 0 0 0-1.176 0V25z"/>
        <path d="M25.06 37.457a12.462 12.462 0 0 1-9.64-20.425 12.674 12.674 0 0 1 9.673-4.472 11.976 11.976 0 0 1 4.257.77 12.45 12.45 0 0 1 5.846 4.58 12.657 12.657 0 0 1 2.26 7.087v.06a12.735 12.735 0 0 1-2.865 7.846 12.328 12.328 0 0 1-7.155 4.332c-.783.149-1.579.223-2.376.222zm.033-24.128a11.668 11.668 0 0 0-10.091 17.726 11.802 11.802 0 0 0 12.283 5.42 11.555 11.555 0 0 0 6.706-4.063 12 12 0 0 0 2.645-6.461c-.136.017-.273.01-.406-.022a11.462 11.462 0 0 1-2.025 5.55 11.038 11.038 0 0 1-5.385 4.138A11.36 11.36 0 0 1 16.36 32.22a11.426 11.426 0 0 1-1.05-12.975 11.212 11.212 0 0 1 4.153-4.045 11.392 11.392 0 0 1 5.58-1.477c.74 0 1.477.075 2.202.223a11.408 11.408 0 0 1 8.989 10.137c.132-.031.27-.038.404-.018a11.885 11.885 0 0 0-2.075-5.72 11.692 11.692 0 0 0-5.486-4.3 11.21 11.21 0 0 0-3.983-.716zm-.05 1.165a10.615 10.615 0 0 0-5.201 1.384 10.443 10.443 0 0 0-3.872 3.759 10.495 10.495 0 0 0 9.077 15.855c1.195 0 2.382-.203 3.509-.603a10.274 10.274 0 0 0 5.012-3.846 10.477 10.477 0 0 0-6.475-16.341 10.162 10.162 0 0 0-2.053-.208h.004zm11.231 10.515a.19.19 0 0 0 .217.179c.122 0 .186-.051.191-.154v-.02a.178.178 0 0 0-.205-.19.182.182 0 0 0-.203.185zM24.564 9.382c.54 0 1.061 0 1.601.038.265.007.53.032.79.077 0 0 .193.02.098 0a.657.657 0 0 1 .192.02c.15.016.298.042.445.077a.605.605 0 0 0 .734-.406.615.615 0 0 0-.407-.734 18.615 18.615 0 0 0-3.437-.27.615.615 0 0 0-.598.598.59.59 0 0 0 .598.598l-.016.002z"/>
        <path d="M27.827 9.992a1.15 1.15 0 0 1-.211-.02h-.023a3.16 3.16 0 0 0-.399-.069h-.038l-.025-.008a.41.41 0 0 1-.064 0c-.033 0-.083 0-.154-.01l-.068-.01a4.77 4.77 0 0 0-.686-.066h-.026c-.526-.037-1.036-.037-1.576-.037a.972.972 0 0 1-.963-.983.997.997 0 0 1 .983-.983h.291a19.01 19.01 0 0 1 3.21.279.854.854 0 0 1 .552.37c.16.24.22.534.166.817v.013a.955.955 0 0 1-.97.707zm-.062-.769a.38.38 0 0 0 .062 0c.018 0 .184 0 .217-.117a.345.345 0 0 0-.051-.23c0-.008-.03-.04-.051-.044a18.052 18.052 0 0 0-3.358-.263.232.232 0 0 0-.22.214.205.205 0 0 0 .213.214c.542 0 1.054 0 1.597.038.262.006.523.031.782.074h.093c.09-.002.18.006.268.026.151.02.3.047.448.083v.005zM30.831 10.483s.136.059.193.077c.038 0 .058.02.096.038.116.059.233.097.348.154.25.116.483.233.714.348.485.251.955.528 1.41.83a.597.597 0 0 0 .81-.212.615.615 0 0 0-.212-.81c-.96-.63-1.983-1.16-3.051-1.583a.592.592 0 0 0-.328 1.138l.02.02z"/>
        <path d="M30.987 8.91c.101 0 .202.02.297.058 1.092.432 2.137.975 3.12 1.618.437.28.586.85.341 1.308a.982.982 0 0 1-.87.503.877.877 0 0 1-.502-.154 14.55 14.55 0 0 0-1.368-.805c-.22-.109-.452-.226-.698-.34h-.011a1.648 1.648 0 0 0-.154-.066 2.763 2.763 0 0 1-.198-.087h-.014l-.034-.011a3.922 3.922 0 0 1-.223-.09l-.06-.033-.025-.025a.99.99 0 0 1-.555-1.135v-.022a1.03 1.03 0 0 1 .954-.718zm2.889 2.718a.23.23 0 0 0 .183-.082v-.01a.23.23 0 0 0-.082-.307 16.643 16.643 0 0 0-2.984-1.549h-.011a.283.283 0 0 0-.208.154c-.015.075-.026.19.188.283l.066.03.017.016.066.026a.53.53 0 0 1 .17.066h.007c.045.023.096.043.154.067a24.533 24.533 0 0 1 .91.435c.5.258.984.543 1.452.854a.12.12 0 0 0 .072.017zM35.811 13.706c.391.369.759.762 1.1 1.177.077.097.174.192.251.29.04.055.085.107.135.153.02.037.046.07.077.097 0 0 .077.097.02.039-.057-.059.02.038.039.058.018.02.038.058.058.077l.116.174c.077.115.173.232.25.347a.615.615 0 0 0 .811.213.597.597 0 0 0 .212-.811 17 17 0 0 0-2.218-2.628.588.588 0 0 0-.83.831l-.02-.017z"/>
        <path d="M36.23 12.345c.256 0 .502.096.692.267.847.818 1.61 1.719 2.275 2.69.14.199.189.447.137.684-.056.278-.223.52-.461.672a.934.934 0 0 1-.482.136 1.05 1.05 0 0 1-.846-.462c-.037-.055-.075-.106-.117-.161-.041-.056-.094-.125-.138-.191l-.096-.143a.615.615 0 0 1-.077-.099.575.575 0 0 1-.086-.127.403.403 0 0 1-.035-.05 1.197 1.197 0 0 1-.137-.161 2.088 2.088 0 0 0-.103-.117 3.562 3.562 0 0 1-.14-.161 12.33 12.33 0 0 0-1.04-1.116.923.923 0 0 1-.29-.697c.004-.25.099-.49.267-.675a.91.91 0 0 1 .677-.29zm2.154 3.681c.029 0 .058-.007.083-.023a.28.28 0 0 0 .109-.168.114.114 0 0 0-.01-.089 16.714 16.714 0 0 0-2.173-2.57.258.258 0 0 0-.166-.06.154.154 0 0 0-.114.04.262.262 0 0 0-.066.17.17.17 0 0 0 .032.108c.401.379.779.783 1.13 1.21.033.042.071.085.113.13.042.044.094.104.14.161l.02.028a.658.658 0 0 0 .088.095l.044.045.02.039.014.013.03.033a.703.703 0 0 1 .075.11l.066.067v.033l.11.164c.031.049.071.101.111.153.04.053.094.125.139.191.048.07.125.113.21.119l-.005.001zM39.307 18.69s.058.136.097.213c.076.174-.039-.097.02.077.058.115.096.25.153.366a14.705 14.705 0 0 1 .695 2.335.59.59 0 0 0 .735.407c.31-.096.49-.42.406-.734a17.475 17.475 0 0 0-1.077-3.263.597.597 0 0 0-.81-.213.615.615 0 0 0-.213.811l-.006.002z"/>
        <path d="M39.816 17.414a.94.94 0 0 1 .863.512c.478 1.075.85 2.194 1.108 3.342a.99.99 0 0 1-.94 1.227.96.96 0 0 1-.951-.738 14.35 14.35 0 0 0-.412-1.539v-.009a8.752 8.752 0 0 0-.339-.91 3.188 3.188 0 0 0-.061-.154l-.013-.025-.009-.026c0-.02-.015-.046-.023-.077a6.255 6.255 0 0 1-.082-.183.998.998 0 0 1 .353-1.282h.012a.948.948 0 0 1 .494-.138zm1.03 4.308a.123.123 0 0 0 .04 0 .223.223 0 0 0 .153-.28 17.077 17.077 0 0 0-1.059-3.194.203.203 0 0 0-.163-.062.23.23 0 0 0-.09.019c-.054.037-.154.117-.068.324v.011c.026.058.063.145.086.19l.028.062c.018.036.03.075.037.114l.047.119c.016.037.042.107.062.153l.015.034c.097.253.197.513.279.77.174.531.32 1.072.434 1.62v.012c.04.072.117.115.2.11v-.002zM40.639 24.458c0 .54 0 1.062-.02 1.602-.007.265-.032.53-.077.79a.657.657 0 0 1-.02.193v.097c-.016.15-.042.298-.077.445a.605.605 0 0 0 .406.733c.314.079.634-.099.734-.406.2-1.134.283-2.285.25-3.437a.615.615 0 0 0-.598-.598.602.602 0 0 0-.598.598v-.017z"/>
        <path d="M41.237 23.495a.997.997 0 0 1 .983.976 17.374 17.374 0 0 1-.256 3.507 1 1 0 0 1-1.188.719h-.012a.98.98 0 0 1-.696-1.179v-.023a3.03 3.03 0 0 0 .066-.375v-.135l.017-.051v-.108l.011-.078a4.77 4.77 0 0 0 .066-.686v-.014c.019-.531.019-1.059.019-1.57v-.012a.985.985 0 0 1 .99-.97zm-.261 4.453c.117 0 .223-.063.23-.103.195-1.107.277-2.23.245-3.353v-.012a.232.232 0 0 0-.214-.214.217.217 0 0 0-.213.214c0 .515 0 1.048-.02 1.59-.006.264-.03.528-.074.788v.024c0 .071-.006.143-.02.213v.096c-.018.16-.046.318-.083.475-.017.102 0 .25.11.279l.039.003zM39.654 30.463c-.058.135-.097.27-.154.406-.02.059-.038.097-.058.154-.02.057-.02.059-.038.097-.116.25-.213.483-.328.714-.237.49-.501.968-.79 1.43a.615.615 0 0 0 .211.81c.284.16.643.066.811-.212a18.277 18.277 0 0 0 1.506-3.09.597.597 0 0 0-.406-.734.615.615 0 0 0-.734.407l-.02.018z"/>
        <path d="M40.253 29.635c.081 0 .162.01.241.03h.011a1 1 0 0 1 .615.521c.12.223.137.487.048.723a18.537 18.537 0 0 1-1.538 3.151.986.986 0 0 1-1.331.346 1.003 1.003 0 0 1-.355-1.335l.007-.013a14.41 14.41 0 0 0 .976-1.827l.11-.246.008-.023v-.022l.01-.034c.013-.037.025-.068.038-.098l.021-.056.031-.04c.025-.057.046-.117.07-.18.022-.063.052-.154.085-.224l.03-.068.018-.018a1 1 0 0 1 .905-.587zm.058.77a.285.285 0 0 0-.058 0 .243.243 0 0 0-.22.173l-.03.079-.023.023a4.809 4.809 0 0 0-.041.115c-.025.068-.05.137-.08.211-.01.03-.022.057-.03.083l-.012.025a.528.528 0 0 1-.066.17l-.112.248c-.07.154-.139.308-.217.462-.241.498-.51.983-.805 1.452a.232.232 0 0 0 .073.282c.102.056.23.022.29-.077.587-.96 1.08-1.973 1.476-3.026v-.008a.14.14 0 0 0-.019-.097.246.246 0 0 0-.126-.115zM36.567 35.52c-.367.386-.734.77-1.139 1.138-.192.174-.406.348-.615.522a.968.968 0 0 0-.154.135c-.02 0-.039.039-.077.059-.115.097.058-.039 0 0-.115.077-.232.174-.348.25a.598.598 0 0 0-.27.348.654.654 0 0 0 .058.462c.167.28.528.375.81.212.932-.67 1.792-1.434 2.568-2.278a.588.588 0 1 0-.83-.831l-.003-.017z"/>
        <path d="M36.951 34.557v.425c.259 0 .508.097.7.27a.878.878 0 0 1 .308.616c.018.283-.081.56-.274.769a17.4 17.4 0 0 1-2.637 2.321.858.858 0 0 1-.504.154 1.032 1.032 0 0 1-.862-.481v-.011c-.126-.23-.16-.5-.095-.754a.983.983 0 0 1 .418-.561h.01l.098-.07v-.012l.209-.138.028-.02.024-.019a.49.49 0 0 1 .05-.04 1.19 1.19 0 0 1 .153-.134c.202-.164.41-.335.591-.498.394-.357.77-.743 1.117-1.119l.666-.698zm-2.4 3.792a.086.086 0 0 0 .054-.015 16.626 16.626 0 0 0 2.506-2.23.278.278 0 0 0 .074-.195.106.106 0 0 0-.037-.083l-.01-.01a.28.28 0 0 0-.182-.073.11.11 0 0 0-.096.039l-.678.801v-.118c-.154.153-.325.318-.497.473-.2.18-.418.359-.63.531l.015.034-.194.13-.062.06h-.021a.495.495 0 0 1-.088.055l-.07.052c-.06.045-.12.09-.185.134-.103.075-.111.103-.117.124v.013a.285.285 0 0 0 .02.161c.045.067.118.11.198.119v-.002zM31.682 39.15c-.112.06-.228.111-.348.155-.077.038-.135.058-.212.097-.135.058.058-.02-.058.02-.251.096-.502.192-.77.289-.52.173-1.042.327-1.563.461a.592.592 0 1 0 .328 1.139 17.538 17.538 0 0 0 3.243-1.159.597.597 0 0 0 .212-.81.615.615 0 0 0-.81-.213l-.022.022z"/>
        <path d="M32.01 38.677c.333 0 .644.17.821.452v.013c.141.241.174.53.091.798a.885.885 0 0 1-.462.562c-1.06.501-2.168.897-3.307 1.181a.97.97 0 0 1-1.199-.663.97.97 0 0 1 .085-.76.955.955 0 0 1 .595-.462c.506-.13 1.022-.284 1.539-.453.264-.094.515-.191.76-.285h.017l.032-.01.103-.047.086-.038.051-.022c.083-.03.163-.065.242-.106l.026-.026.066-.03c.142-.065.297-.1.454-.104zm.177.872a.202.202 0 0 0-.177-.103.342.342 0 0 0-.096.016l-.055.027-.083.042-.07.03c-.055.025-.109.05-.166.071l-.256.113a.47.47 0 0 1-.133.049c-.232.09-.472.181-.726.272h-.008c-.527.176-1.061.334-1.589.47a.185.185 0 0 0-.114.093.197.197 0 0 0-.02.154.206.206 0 0 0 .259.154h.018a17.032 17.032 0 0 0 3.173-1.134.14.14 0 0 0 .055-.085.248.248 0 0 0-.012-.169zM25.948 40.617c-.533.038-1.068.038-1.601 0-.265 0-.53-.02-.791-.059a2.615 2.615 0 0 1-.386-.038.657.657 0 0 1-.193-.02h-.173a.615.615 0 0 0-.734.406.605.605 0 0 0 .406.734c1.137.173 2.288.232 3.437.174a.598.598 0 0 0 0-1.197h.035z"/>
        <path d="M22.687 40.11a1.31 1.31 0 0 1 .137 0h.213l.051.016h.108l.072.01c.095.017.19.026.286.029h.056c.244.035.49.053.737.053h.027c.263.019.517.027.77.028.252.002.487-.008.74-.026a.983.983 0 1 1 .033 1.966 17.538 17.538 0 0 1-3.504-.178h-.01a.846.846 0 0 1-.552-.363 1.105 1.105 0 0 1-.16-.807v-.012a.958.958 0 0 1 .996-.717zm.224.768h-.22c-.035 0-.212 0-.243.111a.345.345 0 0 0 .045.233c.021.03.038.036.047.038a16.77 16.77 0 0 0 3.353.17h.02a.217.217 0 0 0 .214-.215.232.232 0 0 0-.168-.213c-.54.038-1.083.038-1.623 0-.27-.001-.54-.02-.806-.059a2.77 2.77 0 0 1-.368-.035h-.017c-.072 0-.143-.006-.214-.02l-.02-.01zM19.925 39.788c-.25-.097-.521-.193-.77-.29-.058-.02-.096-.038-.153-.058-.057-.02-.077-.02 0 0-.038 0-.077-.038-.097-.038-.115-.059-.232-.097-.348-.154a17.347 17.347 0 0 1-1.447-.753.593.593 0 1 0-.599 1.023c.992.582 2.04 1.06 3.128 1.43a.592.592 0 1 0 .328-1.139l-.042-.021z"/>
        <path d="M19.785 41.354a.856.856 0 0 1-.27-.043 17.257 17.257 0 0 1-3.2-1.462.982.982 0 0 1-.358-1.323.954.954 0 0 1 .85-.494.99.99 0 0 1 .49.13c.454.264.923.512 1.419.736h.01c.047.024.098.045.154.067.057.021.108.044.167.072a.47.47 0 0 1 .061.028h.016l.098.037.055.021h.017l.382.143.39.154.058.026c.477.175.746.68.624 1.174v.01a1.006 1.006 0 0 1-.963.724zm-2.978-2.552a.19.19 0 0 0-.171.086.215.215 0 0 0 .07.3c.968.567 1.99 1.034 3.053 1.394h.026c.09-.007.17-.06.21-.14a.235.235 0 0 0-.167-.279l-.058-.028-.365-.137-.383-.143-.09-.033-.028-.013a.483.483 0 0 1-.07-.007l-.034-.014-.044-.023-.025-.013a1.648 1.648 0 0 0-.154-.066 2.66 2.66 0 0 1-.192-.084 17.34 17.34 0 0 1-1.475-.77.223.223 0 0 0-.103-.03zM14.77 36.834a15.855 15.855 0 0 1-1.159-1.12c-.19-.19-.37-.39-.54-.599-.077-.097-.174-.192-.25-.307-.039-.059-.097-.116-.136-.174 0-.02-.038-.039-.058-.077-.097-.115.077.097 0-.02a.598.598 0 0 0-.348-.27.654.654 0 0 0-.462.058.597.597 0 0 0-.212.81 16.903 16.903 0 0 0 2.335 2.51.588.588 0 1 0 .831-.831l-.001.02z"/>
        <path d="M14.382 38.205a1.05 1.05 0 0 1-.697-.271c-.88-.772-1.679-1.63-2.386-2.563v-.011a.874.874 0 0 1-.14-.69c.056-.277.223-.52.461-.672h.011a1.031 1.031 0 0 1 .754-.095.983.983 0 0 1 .562.419v.01a.615.615 0 0 1 .035.059.442.442 0 0 1 .037.057l.028.034c.033.038.063.078.092.12.042.058.087.114.135.167l.097.114c.161.197.332.386.513.566.278.294.527.543.758.76l.37.308a.878.878 0 0 1 .307.615c.016.278-.08.551-.268.757a.878.878 0 0 1-.669.316zm-2.462-3.296c.672.89 1.431 1.71 2.267 2.446h.007a.28.28 0 0 0 .182.073.11.11 0 0 0 .095-.039l.023-.003a.277.277 0 0 0 .073-.194.154.154 0 0 0 0-.037l-.033-.027c-.413-.36-.808-.742-1.183-1.143a8.288 8.288 0 0 1-.563-.623 2.455 2.455 0 0 0-.078-.093 2.392 2.392 0 0 1-.196-.246c-.007-.012-.026-.034-.043-.054a1.385 1.385 0 0 1-.092-.12.542.542 0 0 1-.05-.066l-.118-.138h-.023a.174.174 0 0 0-.044 0 .205.205 0 0 0-.225.189.117.117 0 0 0-.003.075h.004zM11.045 32.026c-.115-.232-.232-.461-.328-.714-.038-.077-.058-.135-.097-.212-.058-.135.02.058-.02-.058a3.538 3.538 0 0 0-.153-.387 14.41 14.41 0 0 1-.502-1.538.59.59 0 0 0-.734-.406.597.597 0 0 0-.406.734c.304 1.106.716 2.18 1.23 3.204a.593.593 0 0 0 1.024-.598l-.014-.025z"/>
        <path d="M10.568 33.323a.98.98 0 0 1-.87-.508 17.862 17.862 0 0 1-1.262-3.272.98.98 0 0 1 .64-1.197.863.863 0 0 1 .308-.055c.436.01.816.302.936.721.134.505.295 1.003.484 1.49.038.08.067.153.096.236.019.05.037.1.059.154l.01.03.01.03a4.605 4.605 0 0 1 .085.19l.015.033c.083.216.181.416.285.625l.015.015.028.051a.98.98 0 0 1-.343 1.316.878.878 0 0 1-.496.141zm-1.188-4.27a.095.095 0 0 0-.033 0c-.053.02-.222.098-.171.265.299 1.084.704 2.135 1.21 3.139a.23.23 0 0 0 .184.085.122.122 0 0 0 .064-.014l.022-.014a.208.208 0 0 0 .09-.259l-.015-.013-.023-.044a18.435 18.435 0 0 1-.17-.347l-.067-.154-.04-.094-.154-.35a.47.47 0 0 1-.047-.125c-.019-.045-.034-.09-.05-.13a1.875 1.875 0 0 0-.072-.176l-.015-.034a14.805 14.805 0 0 1-.52-1.58.23.23 0 0 0-.193-.154zM9.424 26.332a16.923 16.923 0 0 1 .076-3.281.602.602 0 0 0-.598-.599.615.615 0 0 0-.598.599 16.96 16.96 0 0 0-.077 3.281c.009.327.271.59.598.599a.602.602 0 0 0 .599-.599z"/>
        <path d="M8.825 27.315a.992.992 0 0 1-.983-.958 17.285 17.285 0 0 1 .08-3.352.998.998 0 0 1 .98-.937c.292.004.57.132.762.352.17.183.251.43.224.678a16.583 16.583 0 0 0-.075 3.208.923.923 0 0 1-.257.69c-.19.203-.454.319-.73.32zm.077-4.478c-.168 0-.208.181-.217.258a16.538 16.538 0 0 0-.075 3.21c0 .095.069.24.215.24a.243.243 0 0 0 .165-.079.154.154 0 0 0 .049-.112 17.34 17.34 0 0 1 .08-3.352.122.122 0 0 0-.039-.074.27.27 0 0 0-.178-.091zM10.099 20.283c.077-.25.154-.501.25-.734.04-.115.098-.25.136-.366.02-.077.059-.135.077-.212.018-.077.038-.077 0 0a.154.154 0 0 1 .038-.077c.213-.502.462-.985.714-1.468a.593.593 0 1 0-1.023-.598 17.055 17.055 0 0 0-1.37 3.166c-.079.313.099.634.406.734a.605.605 0 0 0 .733-.406l.039-.039z"/>
        <path d="M9.48 21.137c-.081 0-.163-.01-.243-.03h-.01a.97.97 0 0 1-.593-.485.943.943 0 0 1-.078-.74 17.442 17.442 0 0 1 1.4-3.231.943.943 0 0 1 .837-.491c.171 0 .34.042.49.123a.923.923 0 0 1 .462.57c.076.257.045.534-.085.769a19.29 19.29 0 0 0-.698 1.433l-.035.076c-.014.044-.031.08-.043.109a.495.495 0 0 0-.019.048l-.008.027a5.546 5.546 0 0 1-.073.2c-.027.068-.045.114-.062.167l-.01.026c-.088.214-.16.449-.238.698l-.027.09-.048.049a.986.986 0 0 1-.919.592zm-.06-.77a.22.22 0 0 0 .271-.153l.028-.09.038-.04c.07-.22.142-.449.231-.664.02-.058.045-.123.07-.186l.058-.154c.014-.053.032-.104.054-.154l.015-.038a.526.526 0 0 1 .085-.182c.214-.5.461-.983.707-1.45v-.014a.237.237 0 0 0 .019-.177.166.166 0 0 0-.077-.103.274.274 0 0 0-.126-.033.177.177 0 0 0-.163.086 16.712 16.712 0 0 0-1.343 3.102.185.185 0 0 0 .024.138.226.226 0 0 0 .11.107v.006zM12.936 15.077a15.454 15.454 0 0 1 2.335-2.297.598.598 0 0 0 .174-.425.568.568 0 0 0-.174-.429.606.606 0 0 0-.85 0 17.523 17.523 0 0 0-2.334 2.308.65.65 0 0 0-.174.424.568.568 0 0 0 .174.425.6.6 0 0 0 .83 0l.019-.006z"/>
        <path d="M12.531 15.63a1.077 1.077 0 0 1-.697-.262.94.94 0 0 1-.307-.716c.003-.248.097-.486.263-.67a17.89 17.89 0 0 1 2.389-2.35l.02-.015c.182-.152.41-.238.648-.245.247.008.484.101.67.263a.938.938 0 0 1 .308.72.972.972 0 0 1-.308.72c-.836.664-1.6 1.415-2.277 2.24l-.121.15h-.055a.894.894 0 0 1-.533.164zm2.125-3.396a17.11 17.11 0 0 0-2.274 2.241.268.268 0 0 0-.085.179.23.23 0 0 0 .037.13l.011.01a.298.298 0 0 0 .186.068.115.115 0 0 0 .093-.031l.115-.136h.017c.68-.81 1.44-1.551 2.27-2.21a.308.308 0 0 0 .034-.13.228.228 0 0 0-.036-.13.325.325 0 0 0-.177-.083c-.047 0-.082.016-.191.092zM17.628 11.217c.25-.135.483-.25.734-.366.112-.06.228-.11.348-.154.058-.02.097-.039.154-.059.056-.02.076-.038 0 0a.154.154 0 0 0 .096-.038 14.632 14.632 0 0 1 1.539-.54.592.592 0 1 0-.328-1.138 17.568 17.568 0 0 0-3.184 1.312.597.597 0 0 0-.21.803.615.615 0 0 0 .811.212l.04-.032z"/>
        <path d="M17.297 11.714a.998.998 0 0 1-.843-.462.923.923 0 0 1-.115-.732.983.983 0 0 1 .461-.615h.011a18.026 18.026 0 0 1 3.256-1.342.986.986 0 0 1 .278-.041c.42.01.788.282.923.68a.883.883 0 0 1-.035.695 1.057 1.057 0 0 1-.616.538h-.012c-.496.143-.984.312-1.461.508a.54.54 0 0 1-.2.079l-.013.001-.098.037a2.445 2.445 0 0 0-.297.134h-.01c-.227.104-.44.21-.664.33l-.038.038-.051.027c-.146.08-.31.123-.476.125zm-.12-1.139a.22.22 0 0 0-.09.134.178.178 0 0 0 .015.133.234.234 0 0 0 .265.098l.026-.035.052-.022c.255-.137.494-.257.75-.375a3 3 0 0 1 .392-.173l.055-.021.072-.028a.577.577 0 0 1 .094-.037 14.782 14.782 0 0 1 1.577-.552.286.286 0 0 0 .154-.139.112.112 0 0 0 .01-.093.226.226 0 0 0-.264-.171 17.25 17.25 0 0 0-3.108 1.281zM28.284 9.69a.59.59 0 0 0 0-1.176.59.59 0 0 0 0 1.177z"/>
        <path d="M28.284 10.075a.974.974 0 1 1 .963-.973.948.948 0 0 1-.963.973zm0-1.177a.205.205 0 1 0 .193.205.18.18 0 0 0-.193-.205zM1.393 42.026l5.964-5.964a.586.586 0 0 0 .097-.714 20.59 20.59 0 0 1 0-20.714.583.583 0 0 0-.097-.714L1.393 7.972a.588.588 0 0 0-.831.831l5.966 5.965-.097-.714a21.846 21.846 0 0 0 0 21.89l.097-.713-5.966 5.964a.588.588 0 0 0 .83.831z"/>
        <path d="M.996 42.586a1.015 1.015 0 0 1-.923-.634.923.923 0 0 1 .215-1.029l5.442-5.441a22.248 22.248 0 0 1 0-20.967L.29 9.075a.923.923 0 0 1-.21-1.03c.153-.378.517-.627.924-.634a.934.934 0 0 1 .669.287l5.946 5.942c.32.311.387.8.163 1.186a20.21 20.21 0 0 0 0 20.326.975.975 0 0 1-.154 1.18l-5.963 5.966a.934.934 0 0 1-.67.288zm5.126-6.406L.834 41.468a.154.154 0 0 0-.049.19.258.258 0 0 0 .21.154.17.17 0 0 0 .125-.063l5.213-5.212-.211-.357zm.798-.99-.12.884.284-.283a.202.202 0 0 0 .036-.25 139.7 139.7 0 0 1-.198-.352H6.92zm-.615-20.104a21.483 21.483 0 0 0 0 19.828l.308-.308a20.99 20.99 0 0 1 0-19.22l-.308-.3zm.499-1.18.12.89c.066-.12.134-.238.203-.356a.202.202 0 0 0-.027-.242h-.013l-.283-.292zM.996 8.182a.258.258 0 0 0-.21.153.154.154 0 0 0 .048.191l5.288 5.292.217-.372L1.12 8.245a.17.17 0 0 0-.124-.063zM42.028 48.61l-5.964-5.964a.586.586 0 0 0-.714-.097 20.59 20.59 0 0 1-20.714 0 .583.583 0 0 0-.714.097l-5.966 5.965a.588.588 0 0 0 .83.83l5.965-5.966-.714.097a21.846 21.846 0 0 0 21.891 0l-.714-.097 5.965 5.965a.588.588 0 0 0 .83-.83h.02z"/>
        <path d="M41.582 50a.934.934 0 0 1-.67-.288l-5.445-5.441a22.248 22.248 0 0 1-20.967 0L9.06 49.712a.934.934 0 0 1-.67.288 1.015 1.015 0 0 1-.922-.634.923.923 0 0 1 .215-1.03l5.962-5.958c.18-.19.43-.297.692-.295a.98.98 0 0 1 .494.132 20.206 20.206 0 0 0 20.326 0 .97.97 0 0 1 1.18.154l6.615 6.616h-.386a.94.94 0 0 1-.074.372 1.015 1.015 0 0 1-.909.643zm-5.41-6.115 5.285 5.284a.17.17 0 0 0 .125.063.258.258 0 0 0 .21-.154.154.154 0 0 0-.048-.19l-.657-.657h.02l-4.563-4.563-.374.217h.003zm-22.727-.216-5.217 5.213a.154.154 0 0 0-.05.19.258.258 0 0 0 .212.154.17.17 0 0 0 .124-.063l5.288-5.288-.357-.206zm1.628.033a21.482 21.482 0 0 0 19.827 0l-.307-.308a20.982 20.982 0 0 1-19.22 0l-.3.308zm20.118-.616.891.12-.286-.286a.205.205 0 0 0-.25-.037l-.358.203h.003zm-20.855-.232a.174.174 0 0 0-.13.05l-.009.013-.283.283.885-.12-.352-.2a.21.21 0 0 0-.111-.026zM48.613 7.974l-5.966 5.964a.586.586 0 0 0-.097.714 20.59 20.59 0 0 1 0 20.714.583.583 0 0 0 .097.714l5.966 5.97a.588.588 0 0 0 .83-.832l-5.964-5.964.097.714a21.846 21.846 0 0 0 0-21.891l-.097.714 5.963-5.973a.588.588 0 0 0-.83-.83v-.014z"/>
        <path d="M48.997 7.045v.389c.41.004.778.254.933.634a.923.923 0 0 1-.216 1.029l-5.441 5.438c3.5 6.551 3.5 14.416 0 20.967l5.441 5.441c.28.265.365.675.216 1.03a1.015 1.015 0 0 1-.923.633.934.934 0 0 1-.67-.288l-5.957-5.961a.972.972 0 0 1-.163-1.186 20.21 20.21 0 0 0 0-20.326.975.975 0 0 1 .154-1.18l6.626-6.62zm-5.11 6.79 5.284-5.284a.154.154 0 0 0 .05-.191.258.258 0 0 0-.211-.154.17.17 0 0 0-.125.063l-.657.657v-.024l-4.563 4.563.217.373.005-.003zm-.799.983.12-.89-.29.275a.202.202 0 0 0-.036.25c.07.121.138.243.206.365zm.616 20.119a21.483 21.483 0 0 0 0-19.828l-.308.308a20.99 20.99 0 0 1 0 19.22l.308.3zm-.502 1.16-.12-.885c-.066.118-.132.236-.2.353a.202.202 0 0 0 .022.235l.015.014.283.283zm.683.11-.21.362 5.212 5.213a.17.17 0 0 0 .124.063.258.258 0 0 0 .211-.154.154.154 0 0 0-.05-.191l-5.285-5.297-.002.005zM7.974 1.39l5.966 5.965a.586.586 0 0 0 .714.097 20.59 20.59 0 0 1 20.714 0 .583.583 0 0 0 .714-.097l5.965-5.964a.588.588 0 0 0-.831-.831l-5.963 5.966.714-.097a21.846 21.846 0 0 0-21.891 0l.714.097A1264.328 1264.328 0 0 1 8.805.56a.588.588 0 0 0-.83.83z"/>
        <path d="M8.408 0a.934.934 0 0 1 .67.288c1.782 1.79 3.626 3.627 5.456 5.443a22.248 22.248 0 0 1 20.97 0L40.945.288a.934.934 0 0 1 .67-.288c.406.007.77.257.922.634a.923.923 0 0 1-.215 1.03l-5.968 5.953a.942.942 0 0 1-.692.295.98.98 0 0 1-.494-.132 20.206 20.206 0 0 0-20.326 0 .97.97 0 0 1-1.18-.154l-5.96-5.963a.923.923 0 0 1-.215-1.03c.152-.376.515-.625.921-.633zm5.425 6.118c-1.786-1.766-3.568-3.553-5.3-5.286A.17.17 0 0 0 8.408.77a.258.258 0 0 0-.21.154.154.154 0 0 0 .049.195l5.22 5.22.37-.215-.004-.005zm22.73.213 5.213-5.213a.154.154 0 0 0 .05-.19.258.258 0 0 0-.212-.154.17.17 0 0 0-.124.063L36.2 6.12l.364.21zm-1.627-.033a21.482 21.482 0 0 0-19.828 0l.308.308a20.982 20.982 0 0 1 19.217.008l.303-.316zm-20.12.619-.89-.12.285.286a.205.205 0 0 0 .25.037c.117-.069.236-.136.355-.203zm20.852.23a.174.174 0 0 0 .13-.049l.013-.015.283-.283-.884.12.352.2a.21.21 0 0 0 .106.028zM8.536 9.325l2.243 2.212.308.308a.588.588 0 0 0 .83-.831l-2.243-2.21-.307-.309a.588.588 0 0 0-.831.831v-.001z"/>
        <path d="M8.94 7.943a.99.99 0 0 1 .697.28l.308.308 2.24 2.218c.37.378.375.98.012 1.363a.93.93 0 0 1-.689.291.99.99 0 0 1-.697-.278l-.307-.308-2.239-2.22a.983.983 0 0 1-.012-1.363.93.93 0 0 1 .687-.29zm2.568 3.692a.168.168 0 0 0 .122-.041.217.217 0 0 0 .012-.299L9.087 8.768a.226.226 0 0 0-.154-.054.168.168 0 0 0-.122.041.217.217 0 0 0-.012.299l2.557 2.528a.226.226 0 0 0 .154.053h-.002zM4.616 5.445c.56.54 1.12 1.1 1.66 1.641l.232.232a.588.588 0 1 0 .83-.83c-.56-.54-1.12-1.1-1.66-1.642l-.231-.232a.588.588 0 0 0-.831.83z"/>
        <path d="M5.02 4.063a1 1 0 0 1 .697.279l.233.232c.54.54 1.097 1.097 1.655 1.637.372.377.38.98.017 1.366a.93.93 0 0 1-.69.29.99.99 0 0 1-.696-.278l-.232-.232c-.54-.54-1.097-1.097-1.656-1.637a.985.985 0 0 1-.017-1.366.93.93 0 0 1 .69-.29zm1.913 3.035a.168.168 0 0 0 .126-.041.217.217 0 0 0 0-.299 119.674 119.674 0 0 1-1.66-1.641l-.232-.232a.226.226 0 0 0-.154-.054.168.168 0 0 0-.122.041.217.217 0 0 0-.012.299c.558.538 1.118 1.098 1.66 1.641l.232.233a.226.226 0 0 0 .162.053zM40.697 8.534c-.733.752-1.467 1.486-2.22 2.24l-.307.308a.588.588 0 0 0 .83.83c.734-.752 1.468-1.486 2.22-2.24l.308-.307a.588.588 0 1 0-.83-.831z"/>
        <path d="M41.104 7.983c.253 0 .498.096.684.268a.923.923 0 0 1 .29.666.988.988 0 0 1-.278.72l-.307.308c-.77.769-1.485 1.484-2.217 2.235a.954.954 0 0 1-.682.283 1.01 1.01 0 0 1-.684-.268.923.923 0 0 1-.291-.666.988.988 0 0 1 .278-.72l.308-.307c.77-.77 1.485-1.485 2.217-2.236a.954.954 0 0 1 .682-.283zM38.593 11.7a.182.182 0 0 0 .134-.054c.732-.75 1.455-1.474 2.22-2.24l.307-.308a.23.23 0 0 0 .054-.153.162.162 0 0 0-.041-.116.248.248 0 0 0-.165-.066.182.182 0 0 0-.134.054c-.732.75-1.455 1.474-2.22 2.24l-.308.308a.23.23 0 0 0-.053.153.162.162 0 0 0 .041.116.248.248 0 0 0 .165.066zM44.557 4.614c-.54.56-1.1 1.12-1.641 1.66l-.232.232a.588.588 0 1 0 .83.83c.54-.56 1.1-1.12 1.642-1.66l.232-.231a.588.588 0 0 0-.83-.831z"/>
        <path d="M44.964 4.063c.253 0 .498.096.684.268a.923.923 0 0 1 .29.666.988.988 0 0 1-.278.72l-.232.232c-.54.54-1.097 1.097-1.637 1.656a.955.955 0 0 1-.681.284 1.01 1.01 0 0 1-.685-.267.923.923 0 0 1-.29-.667.988.988 0 0 1 .278-.72l.232-.232c.54-.54 1.097-1.097 1.637-1.655a.954.954 0 0 1 .682-.285zm-1.847 3.055a.182.182 0 0 0 .134-.053c.539-.559 1.099-1.119 1.642-1.66l.232-.233a.23.23 0 0 0 .054-.154.162.162 0 0 0-.05-.115.248.248 0 0 0-.165-.066.182.182 0 0 0-.134.054c-.539.558-1.099 1.118-1.642 1.66l-.232.232a.23.23 0 0 0-.054.154.162.162 0 0 0 .042.12c.045.04.105.062.166.061h.007zM41.47 40.695c-.753-.733-1.486-1.467-2.24-2.22l-.308-.307a.588.588 0 0 0-.83.83c.752.734 1.485 1.468 2.24 2.22l.307.308a.588.588 0 1 0 .83-.83z"/>
        <path d="M41.065 42.077a.99.99 0 0 1-.697-.28l-.308-.308c-.769-.769-1.484-1.484-2.235-2.217a.985.985 0 0 1-.015-1.366.93.93 0 0 1 .689-.29.99.99 0 0 1 .697.28l.308.307c.769.77 1.484 1.485 2.235 2.217.372.377.378.98.015 1.366a.93.93 0 0 1-.689.29zm-2.568-3.692a.168.168 0 0 0-.121.041.217.217 0 0 0-.012.299c.75.732 1.473 1.455 2.24 2.22l.307.307a.226.226 0 0 0 .154.054.168.168 0 0 0 .122-.041.217.217 0 0 0 .012-.299c-.75-.732-1.474-1.455-2.24-2.22l-.308-.308a.226.226 0 0 0-.155-.053h.001zM45.387 44.555c-.56-.54-1.12-1.1-1.66-1.641l-.233-.232a.588.588 0 1 0-.83.83c.56.54 1.12 1.1 1.66 1.642l.232.232a.588.588 0 0 0 .83-.83z"/>
        <path d="M44.982 45.937a.99.99 0 0 1-.697-.28l-.232-.232c-.54-.54-1.097-1.097-1.656-1.637a.985.985 0 0 1-.017-1.366.93.93 0 0 1 .69-.291.99.99 0 0 1 .697.28l.232.232c.54.54 1.098 1.099 1.655 1.637.372.377.38.98.017 1.366a.93.93 0 0 1-.689.29zm-1.912-3.035a.168.168 0 0 0-.122.041.217.217 0 0 0-.012.299c.558.538 1.118 1.098 1.66 1.641l.232.232a.226.226 0 0 0 .154.054.168.168 0 0 0 .122-.041.217.217 0 0 0 .012-.299 128.855 128.855 0 0 1-1.66-1.641l-.232-.233a.226.226 0 0 0-.154-.053zM9.327 41.468l2.212-2.24.308-.308a.588.588 0 0 0-.831-.83l-2.21 2.24-.309.307a.588.588 0 0 0 .831.83h-.001z"/>
        <path d="M8.924 42.018c-.254 0-.499-.095-.685-.267a.923.923 0 0 1-.29-.666.988.988 0 0 1 .278-.72l.307-.308 2.219-2.239a.952.952 0 0 1 .678-.28c.254 0 .498.096.685.268a.923.923 0 0 1 .29.666.988.988 0 0 1-.278.72l-.308.308L9.6 41.738a.952.952 0 0 1-.675.28zm2.509-3.71a.182.182 0 0 0-.134.054l-2.53 2.547a.23.23 0 0 0-.053.154.162.162 0 0 0 .041.115.248.248 0 0 0 .165.067.182.182 0 0 0 .134-.054l2.53-2.548a.23.23 0 0 0 .053-.154.162.162 0 0 0-.042-.115.248.248 0 0 0-.167-.066h.003zM5.447 45.385c.54-.56 1.1-1.12 1.641-1.66l.232-.233a.588.588 0 1 0-.83-.83c-.54.56-1.1 1.12-1.642 1.66l-.232.232a.588.588 0 1 0 .83.83z"/>
        <path d="M5.04 45.937c-.253 0-.498-.096-.684-.268a.923.923 0 0 1-.29-.666.988.988 0 0 1 .278-.72l.232-.232c.54-.54 1.097-1.097 1.637-1.656a.954.954 0 0 1 .681-.284c.254 0 .498.095.685.267a.923.923 0 0 1 .29.667.988.988 0 0 1-.278.72l-.232.232c-.54.54-1.099 1.098-1.637 1.655a.954.954 0 0 1-.682.285zm1.847-3.055a.182.182 0 0 0-.134.053c-.539.559-1.099 1.119-1.642 1.66l-.232.233a.23.23 0 0 0-.054.154.162.162 0 0 0 .042.115.248.248 0 0 0 .164.066.182.182 0 0 0 .134-.054c.539-.557 1.099-1.118 1.642-1.66l.232-.232a.23.23 0 0 0 .054-.154.162.162 0 0 0-.042-.115.248.248 0 0 0-.157-.066h-.007z"/>
    </g>
</svg>
