<svg width="135" height="212" viewBox="0 0 135 212" xmlns="http://www.w3.org/2000/svg" xmlns:xlink="http://www.w3.org/1999/xlink">
    <defs>
        <path id="reum6jxvna" d="M0 0h73.724v91.596H0z"/>
    </defs>
    <g fill="none" fill-rule="evenodd">
        <path d="m95.49 200.487.002-.003c0-2.99-17.979-5.413-40.156-5.413-22.178 0-40.157 2.424-40.157 5.413 0 2.95 17.51 5.347 39.282 5.41l-.001.003c0 2.989 17.978 5.412 40.156 5.412 22.177 0 40.156-2.423 40.156-5.412 0-2.95-17.509-5.347-39.281-5.41" fill="#E2E1DE" opacity=".5"/>
        <path d="M63.924 14.08a1.476 1.476 0 0 0-.197-.313h-.001a1.513 1.513 0 0 0-.191-.194l-.29-.293-.075.056c-1.478-.724-4.53.043-7.618 2.06-3.732 2.436-6.128 5.79-5.437 7.573l-.105.078.415.413.061.062.012.011.004.003c.105.096.225.18.359.25l.001.001c1.46.764 4.545.003 7.667-2.035 3.801-2.482 6.217-5.917 5.395-7.672" fill="#FFA412"/>
        <path d="M55.108 14.951c3.801-2.482 7.55-3.07 8.372-1.315.822 1.755-1.594 5.19-5.395 7.672-3.802 2.482-7.55 3.071-8.372 1.316-.822-1.756 1.593-5.19 5.395-7.673" fill="#FFB93E"/>
        <path d="M60.823 13.544c-1.378 0-3.403.752-5.352 2.028-1.564 1.025-2.909 2.256-3.787 3.468-.846 1.165-1.161 2.202-.867 2.844.14.304.41.516.802.629.22.063.472.094.75.094 1.379 0 3.403-.753 5.352-2.029 1.564-1.024 2.909-2.255 3.788-3.467.845-1.165 1.16-2.202.866-2.845-.14-.304-.409-.515-.801-.628a2.72 2.72 0 0 0-.75-.094m-8.446 9.342a3.03 3.03 0 0 1-.837-.105c-.474-.137-.802-.4-.977-.78-.343-.748-.026-1.857.894-3.125.898-1.239 2.269-2.495 3.86-3.537 2.444-1.6 4.93-2.373 6.333-1.969.474.137.803.399.978.78.342.747.025 1.857-.894 3.125-.899 1.238-2.27 2.494-3.861 3.536-2.013 1.319-4.055 2.075-5.496 2.075M52.608 3.454a.885.885 0 0 0-.226-.295l-.169-.171-.044.032c-.86-.421-2.638.026-4.436 1.2-2.173 1.418-3.569 3.372-3.166 4.41l-.061.045.241.241a.755.755 0 0 0 .036.036l.007.006.002.002a.995.995 0 0 0 .209.145l.001.001c.85.445 2.646.002 4.464-1.185 2.214-1.445 3.62-3.445 3.142-4.467" fill="#FFA412"/>
        <path d="M47.474 3.961c2.214-1.445 4.396-1.788 4.875-.766.479 1.022-.928 3.023-3.141 4.468-2.214 1.445-4.397 1.788-4.875.766-.48-1.022.928-3.023 3.141-4.468" fill="#FFB93E"/>
        <path d="M50.802 3.142c-.803 0-1.982.438-3.116 1.18-.91.597-1.694 1.314-2.206 2.02-.492.678-.676 1.282-.504 1.656.08.177.238.3.466.366.128.037.275.055.437.055.803 0 1.982-.438 3.117-1.182.91-.596 1.694-1.313 2.205-2.018.493-.679.677-1.283.505-1.657-.081-.177-.238-.3-.467-.366a1.59 1.59 0 0 0-.437-.054m-4.917 5.44c-.18 0-.344-.02-.488-.062-.275-.08-.467-.232-.569-.454-.2-.435-.015-1.082.52-1.82.524-.721 1.322-1.452 2.249-2.059 1.423-.932 2.87-1.382 3.687-1.147.276.08.468.233.57.454.2.435.014 1.082-.521 1.82-.523.721-1.321 1.453-2.248 2.06-1.172.767-2.361 1.208-3.2 1.208M60 1.178a1.114 1.114 0 0 1 .29-.377l.215-.218.056.042c1.1-.538 3.37.032 5.666 1.531 2.776 1.812 4.558 4.308 4.044 5.634l.078.058-.308.307a.991.991 0 0 1-.046.046l-.009.008-.003.002a1.278 1.278 0 0 1-.266.186l-.002.001c-1.085.568-3.38.002-5.702-1.513-2.827-1.846-4.624-4.401-4.012-5.707" fill="#FFA412"/>
        <path d="M66.558 1.826C63.73-.02 60.942-.458 60.33.848c-.612 1.306 1.185 3.86 4.012 5.706 2.828 1.846 5.616 2.284 6.227.979.612-1.306-1.185-3.86-4.012-5.707" fill="#FFB93E"/>
        <path d="M61.748.85c-.292.084-.492.24-.596.467-.219.478.016 1.249.645 2.116.653.901 1.654 1.817 2.817 2.578 1.45.95 2.955 1.51 3.98 1.51.207 0 .395-.024.559-.07.291-.085.492-.242.596-.468.219-.478-.016-1.25-.645-2.116-.653-.901-1.654-1.817-2.817-2.579C64.837 1.34 63.332.78 62.307.78c-.208 0-.395.022-.559.07M64.5 6.185c-1.183-.775-2.203-1.71-2.871-2.63-.684-.943-.92-1.769-.665-2.325.13-.283.374-.478.727-.58 1.043-.3 2.892.274 4.71 1.465 1.183.775 2.203 1.709 2.871 2.63.684.943.92 1.768.665 2.324-.13.284-.374.479-.727.58a2.255 2.255 0 0 1-.622.08c-1.072 0-2.59-.564-4.088-1.544" fill="#FFA412"/>
        <path d="M14.407 193.858s-.54-2.661 5.587-10.852c1.321-1.766 5.352-8.42 5.352-8.42 1.593-.387 6.554 2.25 7.863 3.054.263.162.415.26.415.26s2.123 9.203-2.388 8.16a5.499 5.499 0 0 0-.423-.082c-4.361-.68-8.572 3.649-10.486 6.397-1.246 1.786-5.09 1.556-5.92 1.483M46.742 175.972s-.54-2.662 5.586-10.852c1.322-1.767 5.352-8.42 5.352-8.42 1.593-.387 6.555 2.25 7.863 3.053.263.162.415.26.415.26s2.123 9.204-2.388 8.16a5.615 5.615 0 0 0-.423-.082c-4.361-.68-8.572 3.649-10.486 6.397-1.245 1.787-5.09 1.556-5.92 1.484" fill="#233862"/>
        <path d="M115.756 130.412c-1.253-5.385-15.188-22.172-22.325-18.284-7.136 3.888-3.435 25.005 4.005 49.908.114.38.23.758.347 1.133-14.995-2.462-32.843-3.21-32.843-3.21l-1.879 8.672c13.513 3.734 39.764 16.711 50.773 22.299 4.21 1.909 9.153 1.909 10.16-1.795 3.37-12.399-8.238-58.723-8.238-58.723" fill="#ED7D2B"/>
        <path d="M89.148 207.988s-31.896-14.393-51.345-20.209c-2.41-.719-4.624-1.304-6.565-1.718l2.045-8.341s1.905-.034 4.998-.03c12.109.034 42.432.71 47.85 6.655 6.798 7.464 3.017 23.643 3.017 23.643M113.251 10.697c1.047 2.412 1.884 5.575 1.175 7.243-.804 1.891-.583 3.259-.583 3.259l-1.714.42-2.048.499s-.11-.176-.274-.476a15.59 15.59 0 0 1-.6-1.215s-.095-.906-.968-1.32c-.872-.413-1.789-1.465-1.957-2.484-.167-1.017-1.211-2.918-.914-3.117.716-.485 1.793 2.47 2.426 2.603.573.12.755-.286.785-.366l.005-.015c.995-2.416-.842-8.513.614-8.852.544-.125 3.607 2.794 4.053 3.821M2.875 59.378c1.783 1.932 4.338 3.976 6.15 4.002 2.054.029 3.216.784 3.216.784l1.077-1.4 1.284-1.671s-.116-.171-.324-.442c-.206-.27-1.66-1.493-1.685-2.46-.025-.964-.617-2.228-1.481-2.793-.863-.564-2.18-2.287-2.482-2.096-.733.459 1.535 2.639 1.4 3.271-.122.572-.567.575-.651.57-.006 0-.011 0-.017-.002-2.612-.065-7.446-4.21-8.344-3.015-.335.447 1.097 4.428 1.857 5.252" fill="#FFB27D"/>
        <g transform="translate(36.915 116.5)">
            <mask id="j420qvcuyb" fill="#fff">
                <use xlink:href="#reum6jxvna"/>
            </mask>
            <path d="M43.129 17.93c-7.867 2.041-5.893 11.501-4.718 37.466.133 2.938.407 5.775.794 8.481-11.53-2.316-29.258-2.663-37.84-2.688 0 0-1.424 3.17-1.363 5.703.13 5.395 2.885 8.962 2.885 8.962 19.45 5.815 49.346 15.633 49.346 15.633l.005-.022c1.993.517 3.87-.48 5.361-3.336C63.547 76.739 73.724.944 73.724.944c.09-5.528-22.728 14.946-30.595 16.987" fill="#F99746" mask="url(#j420qvcuyb)"/>
        </g>
        <path d="M67.201 76.245s2.766-7.013-2.612-17.015l7.647 1.698 5.195 1.153s.858 1.772 1.983 5.064c.296.866 1.393 4.34 1.716 5.415 1.826.077-.807 2.843-4.556 3.388-4.171.606-9.373.297-9.373.297" fill="#FFB27D"/>
        <path d="M77.431 62.081s.858 1.772 1.983 5.064c-4.464 1.332-12.423-3.007-12.423-3.007 1.795-1.642 3.575-2.66 5.245-3.21l5.195 1.153z" fill="#ED975D"/>
        <path d="M80.865 59.466s-8.86 9.798-14.876 4.187c-6.017-5.611-11.212-8.125-5.81-14.618s8.815-5.55 11.279-4.166c2.464 1.384 11.556 11.904 9.407 14.597" fill="#FFB27D"/>
        <path d="M65.494 63.046s.908-1.006-.406-2.315c-1.314-1.308-2.809-3.195-1.357-3.775 1.452-.58 2.255.313 2.302-.618.047-.931-1.78-3.248 1.583-6.18 3.362-2.931 5.744-2.842 6.8-4.844 1.057-2.002-.808-4.526-.808-4.526s.235 1.243-.24 2.076c0 0-.233-5.853-5.383-5.903-5.15-.05-7.027 4.149-8.754 5.7-3.804 3.414-6.196 5.704-5.416 9.367.78 3.662 7.107 10.527 11.679 11.018" fill="#2B478B"/>
        <path d="m75.33 57.425 3.285-3.093s1.337 2.05.4 2.94c-.939.892-3.686.153-3.686.153" fill="#FFF"/>
        <path d="M119.452 38.893c-1.406-8.695-5.637-18.256-5.637-18.256l-4.608-.21s.512 11.78.399 20.02c-.055 3.957-1.785 7.535-2.255 8.17-1.431 1.913-22.502 22.193-23.207 22.84l-.017.016.003.002c-2.243.382-1.993 4.066-4.297 4.684-3.842 1.03-10.22-.847-13.634.418 0 0-27.36.03-31.523-1.963C30.512 72.62 14.278 60.65 14.278 60.65l-3.008 3.502s11.144 21.453 19.978 25.312c4.81 2.101 15.371 4.63 23.999 6.498a9.67 9.67 0 0 1 7.179 6.602c8.117 26.172 4.032 48.244 4.032 48.244s7.777.871 17.46-1.819c12.591-3.497 21.79-9.163 21.79-9.163 3.548-4.302 1.45-20.075 1.45-20.075s2.45 2.646 3.27 7.065c.592 3.184.91 4.945 1.107 6.063a1.437 1.437 0 0 0 2.27.907c1.819-1.347 4.416-3.444 5.227-4.984 2.834-5.38-3.469-27.288-12.175-42.575a8.552 8.552 0 0 1 .163-8.76c5.356-8.593 13.59-22.218 13.69-24.954.056-1.482-.448-8.622-1.258-13.62" fill="#2B478B"/>
        <path d="M79.232 78.134s7.345 10.422 1.959 20.494c-5.386 10.073-26.545 8.682-30.462 21.264l2.381 7.834 8.845-4.791s.74-6.803 9.443-9.758c16.997-5.77 21.09-15.738 17.522-24.656-3.015-7.538-7.38-11.169-7.38-11.169l-2.308.782zM67.884 72.4l8.519 2.813.42 1.616-10.624-.252s.565-2.443 1.685-4.178M80.348 70.058l.283 4.404s1.117.913 1.102.792c-.015-.121 2.396-3.78 2.396-3.78s-2.003-.96-3.781-1.416" fill="#F99746"/>
        <path d="m76.403 75.213 4.342-1.466c.398-.134.82.131.87.548l.358 2.919a.663.663 0 0 1-.446.709l-1.911.647a.664.664 0 0 1-.612-.098l-2.788-2.1a.663.663 0 0 1 .187-1.159" fill="#ED7D2B"/>
        <path d="m108.993 19.813-.383 3.657s4.616.07 4.616 0 .14-1.813.14-1.813l.77 2.023 1.713-.56-1.962-3.307s-1.958.924-4.894 0M14.278 60.65l-3.008 3.503.883 3.419 1.224-.84-.603-2.568 2.107 1.729 2.728-3.602z" fill="#233862"/>
        <path d="M13.622 63.865a.28.28 0 1 1 .56 0 .28.28 0 0 1-.56 0M112.371 22.117a.221.221 0 1 1 .443 0 .221.221 0 0 1-.443 0M105.113 107.267a.595.595 0 1 1 1.189 0 .595.595 0 0 1-1.19 0M100.391 97.43a.595.595 0 1 1 1.19 0 .595.595 0 0 1-1.19 0M93.886 89.987a.595.595 0 1 1 1.19 0 .595.595 0 0 1-1.19 0" fill="#EBF3FA"/>
    </g>
</svg>
