<?xml version="1.0" encoding="UTF-8"?>
<svg width="31px" height="30px" viewBox="0 0 31 30" version="1.1" xmlns="http://www.w3.org/2000/svg" xmlns:xlink="http://www.w3.org/1999/xlink">
    <title>Pre - Payment</title>
    <g id="Page-1" stroke="none" stroke-width="1" fill="none" fill-rule="evenodd">
        <g id="01_V-2.0_Urban-Money-|-Homepage-(20-Jul-22)" transform="translate(-533.000000, -1521.000000)" fill-rule="nonzero">
            <g id="Group-28-Copy" transform="translate(228.000000, 1127.000000)">
                <g id="Group-20-Copy-8" transform="translate(0.000000, 359.000000)">
                    <g id="my_lead" transform="translate(290.000000, 20.000000)">
                        <g id="Pre---Payment" transform="translate(15.000000, 15.000000)">
                            <path d="M27.0898242,29.4140625 L9.74607422,29.4140625 C8.45167969,29.4140625 7.40232422,28.364707 7.40232422,27.0703125 L7.40232422,2.9296875 C7.40232422,1.63529297 8.45167969,0.5859375 9.74607422,0.5859375 L27.0898242,0.5859375 C28.3842187,0.5859375 29.4335742,1.63529297 29.4335742,2.9296875 L29.4335742,27.0703125 C29.4335742,28.364707 28.3842187,29.4140625 27.0898242,29.4140625 Z" id="XMLID_1391_" fill="#95C6F0"></path>
                            <polygon id="XMLID_1390_" fill="#E2E9EE" points="10.2148242 3.1640625 26.6210742 3.1640625 26.6210742 7.8515625 10.2148242 7.8515625"></polygon>
                            <path d="M19.1210742,20.5078125 L17.7148242,20.5078125 C17.0675977,20.5078125 16.5429492,19.9831641 16.5429492,19.3359375 L16.5429492,17.9296875 C16.5429492,17.2824609 17.0675977,16.7578125 17.7148242,16.7578125 L19.1210742,16.7578125 C19.7683008,16.7578125 20.2929492,17.2824609 20.2929492,17.9296875 L20.2929492,19.3359375 C20.2929492,19.9831055 19.7683008,20.5078125 19.1210742,20.5078125 Z" id="XMLID_1389_" fill="#FFFFFF"></path>
                            <path d="M19.1210742,26.8359375 L17.7148242,26.8359375 C17.0675977,26.8359375 16.5429492,26.3112891 16.5429492,25.6640625 L16.5429492,24.2578125 C16.5429492,23.6105859 17.0675977,23.0859375 17.7148242,23.0859375 L19.1210742,23.0859375 C19.7683008,23.0859375 20.2929492,23.6105859 20.2929492,24.2578125 L20.2929492,25.6640625 C20.2929492,26.3112305 19.7683008,26.8359375 19.1210742,26.8359375 Z" id="XMLID_1388_" fill="#FFFFFF"></path>
                            <path d="M25.4491992,26.8359375 L24.0429492,26.8359375 C23.3957227,26.8359375 22.8710742,26.3112891 22.8710742,25.6640625 L22.8710742,17.9296875 C22.8710742,17.2824609 23.3957227,16.7578125 24.0429492,16.7578125 L25.4491992,16.7578125 C26.0964258,16.7578125 26.6210742,17.2824609 26.6210742,17.9296875 L26.6210742,25.6640625 C26.6210742,26.3112305 26.0964258,26.8359375 25.4491992,26.8359375 Z" id="XMLID_1387_" fill="#A0E4A5"></path>
                            <path d="M12.7929492,14.1796875 L11.3866992,14.1796875 C10.7394727,14.1796875 10.2148242,13.6550391 10.2148242,13.0078125 L10.2148242,11.6015625 C10.2148242,10.9543359 10.7394727,10.4296875 11.3866992,10.4296875 L12.7929492,10.4296875 C13.4401758,10.4296875 13.9648242,10.9543359 13.9648242,11.6015625 L13.9648242,13.0078125 C13.9648242,13.6549805 13.4401758,14.1796875 12.7929492,14.1796875 Z" id="XMLID_1386_" fill="#FFFFFF"></path>
                            <path d="M19.1210742,14.1796875 L17.7148242,14.1796875 C17.0675977,14.1796875 16.5429492,13.6550391 16.5429492,13.0078125 L16.5429492,11.6015625 C16.5429492,10.9543359 17.0675977,10.4296875 17.7148242,10.4296875 L19.1210742,10.4296875 C19.7683008,10.4296875 20.2929492,10.9543359 20.2929492,11.6015625 L20.2929492,13.0078125 C20.2929492,13.6549805 19.7683008,14.1796875 19.1210742,14.1796875 Z" id="XMLID_1385_" fill="#FFFFFF"></path>
                            <path d="M25.4491992,14.1796875 L24.0429492,14.1796875 C23.3957227,14.1796875 22.8710742,13.6550391 22.8710742,13.0078125 L22.8710742,11.6015625 C22.8710742,10.9543359 23.3957227,10.4296875 24.0429492,10.4296875 L25.4491992,10.4296875 C26.0964258,10.4296875 26.6210742,10.9543359 26.6210742,11.6015625 L26.6210742,13.0078125 C26.6210742,13.6549805 26.0964258,14.1796875 25.4491992,14.1796875 Z" id="XMLID_1382_" fill="#FF7D97"></path>
                            <g id="XMLID_1410_">
                                <circle id="XMLID_1560_" fill="#E9EAEB" cx="8.4375" cy="21.5625" r="7.8515625"></circle>
                                <g id="XMLID_248_" fill="#000000">
                                    <path d="M27.0898242,0 L9.74607422,0 C8.13064453,0 6.81638672,1.31425781 6.81638672,2.9296875 L6.81638672,13.2819141 C2.93689453,14.0399414 0,17.4643945 0,21.5625 C0,26.2149609 3.78503906,30 8.4375,30 L27.0898242,30 C28.7052539,30 30.0195117,28.6857422 30.0195117,27.0703125 L30.0195117,2.9296875 C30.0195117,1.31419922 28.7052539,0 27.0898242,0 L27.0898242,0 Z M1.171875,21.5625 C1.171875,17.5562109 4.43121094,14.296875 8.4375,14.296875 C12.4437891,14.296875 15.703125,17.5562109 15.703125,21.5625 C15.703125,25.5687891 12.4437891,28.828125 8.4375,28.828125 C4.43121094,28.828125 1.171875,25.5687891 1.171875,21.5625 Z M10.8007617,13.0078125 L10.8007617,11.6015625 C10.8007617,11.2784766 11.0636133,11.015625 11.3866992,11.015625 L12.7929492,11.015625 C13.1160352,11.015625 13.3788867,11.2784766 13.3788867,11.6015625 L13.3788867,13.0078125 C13.3788867,13.3308984 13.1160352,13.59375 12.7929492,13.59375 L11.3866992,13.59375 C11.0636133,13.59375 10.8007617,13.3308984 10.8007617,13.0078125 Z M28.8476367,27.0703125 C28.8476367,28.0395703 28.059082,28.828125 27.0898242,28.828125 L12.7225195,28.828125 C14.099707,28.012793 15.2265234,26.8176562 15.9570117,25.3874414 L15.9570117,25.6640625 C15.9570117,26.6333203 16.7455664,27.421875 17.7148242,27.421875 L19.1210742,27.421875 C20.090332,27.421875 20.8788867,26.6333203 20.8788867,25.6640625 L20.8788867,24.2578125 C20.8788867,23.2885547 20.090332,22.5 19.1210742,22.5 L17.7148242,22.5 C17.3752734,22.5 17.0581055,22.5970312 16.7889844,22.7644922 C16.8452344,22.3717383 16.875,21.9705469 16.875,21.5625 C16.875,21.3268945 16.8648047,21.0936914 16.8457617,20.8629492 C17.1022852,21.0094922 17.3988281,21.09375 17.7148242,21.09375 L19.1210742,21.09375 C20.090332,21.09375 20.8788867,20.3051953 20.8788867,19.3359375 L20.8788867,17.9296875 C20.8788867,16.9604297 20.090332,16.171875 19.1210742,16.171875 L17.7148242,16.171875 C16.8045117,16.171875 16.0536914,16.8675 15.9657422,17.7550781 C15.3436523,16.5301172 14.431582,15.4761914 13.3200586,14.6847656 C14.0325586,14.460293 14.5507617,13.7934961 14.5507617,13.0078125 L14.5507617,11.6015625 C14.5507617,10.6323047 13.762207,9.84375 12.7929492,9.84375 L11.3866992,9.84375 C10.4174414,9.84375 9.62888672,10.6323047 9.62888672,11.6015625 L9.62888672,13.0078125 C9.62888672,13.0766602 9.63328125,13.1443945 9.64101562,13.2111914 C9.24779297,13.1547656 8.84607422,13.125 8.4375,13.125 C8.28679687,13.125 8.13703125,13.1291602 7.98826172,13.1370117 L7.98826172,2.9296875 C7.98826172,1.96042969 8.77681641,1.171875 9.74607422,1.171875 L27.0898242,1.171875 C28.059082,1.171875 28.8476367,1.96042969 28.8476367,2.9296875 L28.8476367,27.0703125 Z M17.1288867,25.6640625 L17.1288867,24.2578125 C17.1288867,23.9347266 17.3917383,23.671875 17.7148242,23.671875 L19.1210742,23.671875 C19.4441602,23.671875 19.7070117,23.9347266 19.7070117,24.2578125 L19.7070117,25.6640625 C19.7070117,25.9871484 19.4441602,26.25 19.1210742,26.25 L17.7148242,26.25 C17.3917383,26.25 17.1288867,25.9871484 17.1288867,25.6640625 Z M17.1288867,19.3359375 L17.1288867,17.9296875 C17.1288867,17.6066016 17.3917383,17.34375 17.7148242,17.34375 L19.1210742,17.34375 C19.4441602,17.34375 19.7070117,17.6066016 19.7070117,17.9296875 L19.7070117,19.3359375 C19.7070117,19.6590234 19.4441602,19.921875 19.1210742,19.921875 L17.7148242,19.921875 C17.3917383,19.921875 17.1288867,19.6590234 17.1288867,19.3359375 Z" id="XMLID_269_"></path>
                                    <path d="M26.6210742,2.578125 L21.054668,2.578125 C20.7311133,2.578125 20.4687305,2.84044922 20.4687305,3.1640625 C20.4687305,3.48767578 20.7311133,3.75 21.054668,3.75 L26.0351367,3.75 L26.0351367,7.265625 L10.8007617,7.265625 L10.8007617,3.75 L15.7812305,3.75 C16.1047852,3.75 16.367168,3.48767578 16.367168,3.1640625 C16.367168,2.84044922 16.1047852,2.578125 15.7812305,2.578125 L10.2148242,2.578125 C9.89126953,2.578125 9.62888672,2.84044922 9.62888672,3.1640625 L9.62888672,7.8515625 C9.62888672,8.17517578 9.89126953,8.4375 10.2148242,8.4375 L26.6210742,8.4375 C26.9446289,8.4375 27.2070117,8.17517578 27.2070117,7.8515625 L27.2070117,3.1640625 C27.2070117,2.84044922 26.9446289,2.578125 26.6210742,2.578125 Z" id="XMLID_1383_"></path>
                                    <path d="M19.1210742,9.84375 L17.7148242,9.84375 C16.7455664,9.84375 15.9570117,10.6323047 15.9570117,11.6015625 L15.9570117,13.0078125 C15.9570117,13.9770703 16.7455664,14.765625 17.7148242,14.765625 L19.1210742,14.765625 C20.090332,14.765625 20.8788867,13.9770703 20.8788867,13.0078125 L20.8788867,11.6015625 C20.8788867,10.6323047 20.090332,9.84375 19.1210742,9.84375 Z M19.7070117,13.0078125 C19.7070117,13.3308984 19.4441602,13.59375 19.1210742,13.59375 L17.7148242,13.59375 C17.3917383,13.59375 17.1288867,13.3308984 17.1288867,13.0078125 L17.1288867,11.6015625 C17.1288867,11.2784766 17.3917383,11.015625 17.7148242,11.015625 L19.1210742,11.015625 C19.4441602,11.015625 19.7070117,11.2784766 19.7070117,11.6015625 L19.7070117,13.0078125 Z" id="XMLID_1536_"></path>
                                    <path d="M25.4491992,9.84375 L24.0429492,9.84375 C23.0736914,9.84375 22.2851367,10.6323047 22.2851367,11.6015625 L22.2851367,13.0078125 C22.2851367,13.9770703 23.0736914,14.765625 24.0429492,14.765625 L25.4491992,14.765625 C26.418457,14.765625 27.2070117,13.9770703 27.2070117,13.0078125 L27.2070117,11.6015625 C27.2070117,10.6323047 26.418457,9.84375 25.4491992,9.84375 Z M26.0351367,13.0078125 C26.0351367,13.3308984 25.7722852,13.59375 25.4491992,13.59375 L24.0429492,13.59375 C23.7198633,13.59375 23.4570117,13.3308984 23.4570117,13.0078125 L23.4570117,11.6015625 C23.4570117,11.2784766 23.7198633,11.015625 24.0429492,11.015625 L25.4491992,11.015625 C25.7722852,11.015625 26.0351367,11.2784766 26.0351367,11.6015625 L26.0351367,13.0078125 Z" id="XMLID_1558_"></path>
                                    <path d="M25.4491992,16.171875 L24.0429492,16.171875 C23.0736914,16.171875 22.2851367,16.9604297 22.2851367,17.9296875 L22.2851367,25.6640625 C22.2851367,26.6333203 23.0736914,27.421875 24.0429492,27.421875 L25.4491992,27.421875 C26.418457,27.421875 27.2070117,26.6333203 27.2070117,25.6640625 L27.2070117,17.9296875 C27.2070117,16.9604297 26.418457,16.171875 25.4491992,16.171875 Z M26.0351367,25.6640625 C26.0351367,25.9871484 25.7722852,26.25 25.4491992,26.25 L24.0429492,26.25 C23.7198633,26.25 23.4570117,25.9871484 23.4570117,25.6640625 L23.4570117,17.9296875 C23.4570117,17.6066016 23.7198633,17.34375 24.0429492,17.34375 L25.4491992,17.34375 C25.7722852,17.34375 26.0351367,17.6066016 26.0351367,17.9296875 L26.0351367,25.6640625 Z" id="XMLID_1685_"></path>
                                    <path d="M18.4179492,3.75 C18.5720508,3.75 18.7232227,3.68730469 18.8321484,3.57832031 C18.9411328,3.46933594 19.0038867,3.31816406 19.0038867,3.1640625 C19.0038867,3.00996094 18.9411914,2.85878906 18.8321484,2.74980469 C18.7232227,2.64082031 18.5720508,2.578125 18.4179492,2.578125 C18.2638477,2.578125 18.1126758,2.64082031 18.0036914,2.74980469 C17.894707,2.85878906 17.8320117,3.00996094 17.8320117,3.1640625 C17.8320117,3.31816406 17.8946484,3.46933594 18.0036914,3.57832031 C18.1127344,3.68730469 18.2638477,3.75 18.4179492,3.75 Z" id="XMLID_1686_"></path>
                                    <path d="M10.3479492,17.7062695 C10.0569727,17.565 9.70628906,17.6862305 9.56496094,17.9773828 L6.34089844,24.6163477 C6.19951172,24.9074414 6.32091797,25.2580664 6.61201172,25.3993945 C6.69445313,25.4394141 6.78164063,25.4583984 6.86753906,25.4583984 C7.08486328,25.4583984 7.29369141,25.3369336 7.395,25.1282812 L10.6190625,18.4893164 C10.7605078,18.1982227 10.6391016,17.8476562 10.3479492,17.7062695 L10.3479492,17.7062695 Z" id="XMLID_1687_"></path>
                                    <path d="M6.95648437,17.377207 C6.22535156,16.6460742 5.03560547,16.6460156 4.30435547,17.377207 C3.57316406,18.1083984 3.57316406,19.2981445 4.30435547,20.0293359 C4.66998047,20.3949023 5.15021484,20.5776563 5.63039062,20.5776563 C6.110625,20.5776563 6.59091797,20.3948438 6.95648437,20.0293359 C7.68761719,19.2981445 7.68761719,18.1083984 6.95648437,17.377207 L6.95648437,17.377207 Z M6.12779297,19.2007031 C5.85351562,19.4749219 5.40726562,19.4750391 5.13298828,19.2007031 C4.85865234,18.9264258 4.85865234,18.4801758 5.13298828,18.2058984 C5.27009766,18.0687305 5.45021484,18.0001758 5.63039062,18.0001758 C5.81050781,18.0001758 5.990625,18.0687305 6.12773437,18.2058984 C6.40212891,18.4801758 6.40212891,18.9264258 6.12779297,19.2007031 L6.12779297,19.2007031 Z" id="XMLID_1690_"></path>
                                    <path d="M10.0227539,23.0956055 C9.2915625,23.8267969 9.2915625,25.016543 10.0227539,25.7477344 C10.3883203,26.1133008 10.8686133,26.2961133 11.3487891,26.2961133 C11.8290234,26.2961133 12.3093164,26.1133008 12.6748828,25.7477344 C13.4060742,25.016543 13.4060742,23.8267969 12.6748828,23.0956055 C11.9435742,22.3644727 10.7538867,22.3645312 10.0227539,23.0956055 Z M11.8461914,24.919043 C11.5719141,25.1934375 11.1255469,25.1933203 10.8513867,24.919043 C10.5770508,24.6447656 10.5770508,24.1985156 10.8513867,23.9242383 C10.9884961,23.7871289 11.1686133,23.7185156 11.3487891,23.7185156 C11.5289062,23.7185156 11.7090234,23.7870703 11.8461328,23.9242383 C12.1204687,24.1985156 12.1204687,24.6447656 11.8461914,24.919043 Z" id="XMLID_1693_"></path>
                                </g>
                            </g>
                        </g>
                    </g>
                </g>
            </g>
        </g>
    </g>
</svg>