<svg width="59" height="50" viewBox="0 0 59 50" xmlns="http://www.w3.org/2000/svg">
    <g fill="#7196C4" fill-rule="nonzero" opacity=".8">
        <path d="M18.235 3.89V1.018a.619.619 0 0 0-.607-.598.593.593 0 0 0-.607.598V3.9c.01.33.278.593.607.599a.593.593 0 0 0 .607-.599v-.008z"/>
        <path d="M17.628 4.913a1.04 1.04 0 0 1-1.03-1.017V1.017A1.017 1.017 0 0 1 17.627 0a1.04 1.04 0 0 1 1.03 1.017V3.9a1.017 1.017 0 0 1-1.03 1.014zm0-4.069a.17.17 0 0 0-.183.17v2.882c.013.093.09.164.183.17a.17.17 0 0 0 .19-.175V1.017a.197.197 0 0 0-.19-.174v.001zM26.064 3.89V1.018a.632.632 0 0 0-.607-.598.605.605 0 0 0-.607.598V3.9c.01.33.278.593.607.599a.593.593 0 0 0 .607-.599v-.008z"/>
        <path d="M25.457 4.913a1.04 1.04 0 0 1-1.03-1.017V1.017A1.027 1.027 0 0 1 25.456 0c.56.011 1.012.458 1.03 1.017V3.9a1.017 1.017 0 0 1-1.03 1.014zm0-4.069a.181.181 0 0 0-.183.17v2.882c.013.093.09.164.183.17a.17.17 0 0 0 .183-.17V1.017a.217.217 0 0 0-.183-.174v.001zM33.87 3.89V1.018a.619.619 0 0 0-.606-.598.593.593 0 0 0-.607.598V3.9c.01.33.278.593.607.599a.593.593 0 0 0 .607-.599v-.008z"/>
        <path d="M33.264 4.913a1.04 1.04 0 0 1-1.03-1.017V1.017A1.017 1.017 0 0 1 33.263 0a1.04 1.04 0 0 1 1.03 1.017V3.9a1.017 1.017 0 0 1-1.03 1.014zm0-4.069a.17.17 0 0 0-.183.17v2.882c.013.093.09.164.183.17a.17.17 0 0 0 .183-.17V1.017a.197.197 0 0 0-.183-.174v.001zM41.7 3.89V1.018a.619.619 0 0 0-.607-.598.593.593 0 0 0-.607.598V3.9c.01.33.277.593.607.599a.593.593 0 0 0 .607-.599v-.008z"/>
        <path d="M41.093 4.913a1.04 1.04 0 0 1-1.03-1.017V1.017A1.017 1.017 0 0 1 41.092 0a1.04 1.04 0 0 1 1.03 1.017V3.9a1.017 1.017 0 0 1-1.03 1.014zm0-4.069a.17.17 0 0 0-.183.17v2.882c.013.093.09.164.183.17a.17.17 0 0 0 .183-.17V1.017a.197.197 0 0 0-.183-.174v.001zM10.408 3.89V1.018A.619.619 0 0 0 9.8.42a.593.593 0 0 0-.607.598V3.9c.01.33.277.593.607.599a.593.593 0 0 0 .607-.599v-.008z"/>
        <path d="M9.8 4.913a1.04 1.04 0 0 1-1.03-1.017V1.017A1.017 1.017 0 0 1 9.8 0a1.04 1.04 0 0 1 1.031 1.017V3.9a1.017 1.017 0 0 1-1.03 1.014zm0-4.069a.17.17 0 0 0-.182.17v2.882c.012.093.09.164.183.17a.17.17 0 0 0 .19-.175V1.017A.197.197 0 0 0 9.8.843v.001zM49.527 3.89V1.018A.619.619 0 0 0 48.92.42a.593.593 0 0 0-.607.598V3.9c.011.33.278.593.607.599a.593.593 0 0 0 .607-.599v-.008z"/>
        <path d="M48.92 4.913a1.04 1.04 0 0 1-1.03-1.017V1.017A1.017 1.017 0 0 1 48.92 0a1.04 1.04 0 0 1 1.03 1.017V3.9a1.017 1.017 0 0 1-1.03 1.014zm0-4.069a.17.17 0 0 0-.183.17v2.882c.013.093.09.164.183.17a.17.17 0 0 0 .183-.17V1.017a.197.197 0 0 0-.183-.174v.001zM6.493 48.367H.916a.588.588 0 0 0 0 1.177H6.51a.588.588 0 0 0 0-1.177h-.017z"/>
        <path d="M.916 47.944H6.51a1.017 1.017 0 0 1 0 2.024H.916a1.017 1.017 0 0 1 0-2.024zM6.51 49.12a.17.17 0 0 0 0-.329H.916a.17.17 0 0 0 0 .33H6.51zM57.824 48.367h-5.595a.588.588 0 0 0 0 1.177h5.595a.588.588 0 0 0 0-1.177z"/>
        <path d="M52.226 47.944h5.595a1.017 1.017 0 0 1 0 2.024h-5.595a1.017 1.017 0 0 1 0-2.024zm5.595 1.176a.17.17 0 0 0 0-.329h-5.595a.17.17 0 0 0 0 .33h5.595z"/>
        <path d="M51.64 41.944v7.02l.606-.598H6.496l.607.598v-7.02l-.606.598h45.729a.588.588 0 1 0 0-1.176H6.496a.605.605 0 0 0-.606.598v7.02c.003.333.274.6.607.599h45.729a.605.605 0 0 0 .607-.599v-7.02a.597.597 0 0 0-1.187 0l-.007-.02z"/>
        <path d="M7.524 40.932v.01h44.702a1 1 0 0 1 .729.295c.197.19.307.453.302.727v5.98h.03l-.022.022v1.017A1.027 1.027 0 0 1 52.235 50H6.496a1.027 1.027 0 0 1-1.031-1.017v-7.019a1.027 1.027 0 0 1 1.03-1.017h1.018l.01-.015zm43.707.858H7.524v.328h43.692v-.17c0-.052.005-.106.013-.158h.002zm1.187 6.154V42.95c-.061.01-.122.015-.184.015h-.17v4.978h.354zM6.676 42.966H6.31v4.978h.366v-4.978zm44.54 0H7.524v4.978h43.692v-4.978zm0 5.825H7.524v.368h43.692v-.368z"/>
        <path d="M51.64 3.89v38.056l.606-.599H6.496l.607.599V3.89l-.606.598h45.729a.588.588 0 1 0 0-1.176H6.496a.605.605 0 0 0-.606.598v38.055c.003.332.274.6.607.598h45.729a.605.605 0 0 0 .607-.598V3.89a.597.597 0 0 0-1.194 0z"/>
        <path d="M7.524 2.879v.01H52.24a.99.99 0 0 1 1.017 1.002v37.032h.03l-.023.022v1.018a1.027 1.027 0 0 1-1.03 1.017H6.496a1.027 1.027 0 0 1-1.031-1.017V3.91a1.027 1.027 0 0 1 1.03-1.017h1.018l.01-.015zm43.703.858H7.524v.328h43.692v-.17c-.001-.052.002-.106.01-.158h.001zm1.187 37.186V4.898c-.06.01-.122.015-.183.015h-.17v36.01h.353zM6.676 4.913H6.31v36.01h.366V4.913zm44.54 0H7.524v36.01h43.692V4.913zm0 36.858H7.524v.364h43.692v-.364z"/>
        <path d="M5.476 24.258h47.769a.588.588 0 0 0 0-1.176H5.476a.588.588 0 0 0 0 1.176z"/>
        <path d="M53.245 24.682H5.476a1.017 1.017 0 0 1 0-2.024h47.769a1.017 1.017 0 0 1 0 2.024zM5.476 23.506a.17.17 0 0 0 0 .329h47.769a.17.17 0 0 0 0-.33H5.476zM6.747 7.748h45.48a.588.588 0 1 0 0-1.177H6.748a.588.588 0 1 0 0 1.177z"/>
        <path d="M52.228 8.172H6.748a1.017 1.017 0 0 1 0-2.025h45.48a1.017 1.017 0 0 1 0 2.025zM6.748 6.995a.17.17 0 0 0 0 .329h45.48a.17.17 0 0 0 0-.329H6.748zM53.38 41.366h-1.135a.612.612 0 0 0-.431.17.598.598 0 0 0 0 .847.58.58 0 0 0 .43.17h1.136a.612.612 0 0 0 .431-.17.598.598 0 0 0 0-.848.58.58 0 0 0-.43-.17z"/>
        <path d="M52.246 40.942h1.134a1.017 1.017 0 0 1 .728 1.748 1.03 1.03 0 0 1-.728.295h-1.134a1.017 1.017 0 0 1-.727-1.748 1.03 1.03 0 0 1 .727-.295zm1.134 1.195a.19.19 0 0 0 .133-.05.17.17 0 0 0 0-.245.16.16 0 0 0-.133-.05h-1.134a.19.19 0 0 0-.132.05.17.17 0 0 0 0 .244.16.16 0 0 0 .132.051h1.134zM6.493 41.366h-.88a.612.612 0 0 0-.43.17.598.598 0 0 0 0 .847.58.58 0 0 0 .43.17h.88a.612.612 0 0 0 .43-.17.598.598 0 0 0 0-.848.58.58 0 0 0-.43-.17z"/>
        <path d="M5.613 40.942h.88a1.017 1.017 0 0 1 .734 1.748 1.03 1.03 0 0 1-.727.295h-.887a1.017 1.017 0 0 1-.727-1.748 1.03 1.03 0 0 1 .727-.295zm.88 1.195a.19.19 0 0 0 .132-.05.17.17 0 0 0 0-.245.16.16 0 0 0-.132-.05h-.88a.19.19 0 0 0-.132.05.17.17 0 0 0 0 .244.16.16 0 0 0 .132.051h.88zM40.19 7.515V41.83a.597.597 0 0 0 1.188 0V7.515a.597.597 0 0 0-1.187 0z"/>
        <path d="M40.788 6.513a.99.99 0 0 1 1.017 1.002V41.83a1.017 1.017 0 0 1-2.035 0V7.515a.99.99 0 0 1 1.018-1.002zm0 35.47c.17 0 .17-.117.17-.154V7.515c0-.039 0-.154-.17-.154s-.17.117-.17.154V41.83c-.003.039-.003.154.17.154zM28.763 7.515V41.83a.597.597 0 0 0 1.187 0V7.515a.597.597 0 0 0-1.187 0z"/>
        <path d="M29.36 6.513a.99.99 0 0 1 1.017 1.002V41.83a1.017 1.017 0 1 1-2.035 0V7.515a.99.99 0 0 1 1.018-1.002zm0 35.47c.17 0 .17-.117.17-.154V7.515c0-.039 0-.154-.17-.154s-.17.117-.17.154V41.83c-.003.039-.003.154.17.154zM17.335 7.515V41.83a.597.597 0 0 0 1.186 0V7.515a.597.597 0 0 0-1.186 0z"/>
        <path d="M17.931 6.513a.99.99 0 0 1 1.018 1.002V41.83a1.017 1.017 0 1 1-2.035 0V7.515a.99.99 0 0 1 1.017-1.002zm0 35.47c.17 0 .17-.117.17-.154V7.515c0-.039 0-.154-.17-.154s-.17.117-.17.154V41.83c-.002.039-.002.154.17.154zM41.405 15.848a5.118 5.118 0 0 1 10.234 0c0 .753 1.214.771 1.187 0a6.412 6.412 0 0 0-4.108-5.883 6.29 6.29 0 0 0-7.001 1.814 6.366 6.366 0 0 0-1.526 4.069.597.597 0 0 0 1.187 0h.027z"/>
        <path d="M40.788 16.852a.99.99 0 0 1-1.018-1.002 6.781 6.781 0 0 1 6.766-6.717 6.409 6.409 0 0 1 2.345.439 6.834 6.834 0 0 1 4.38 6.272.95.95 0 0 1-.265.702 1.038 1.038 0 0 1-.743.3.993.993 0 0 1-1.034-.995 4.747 4.747 0 0 0-4.67-4.664h-.035a4.613 4.613 0 0 0-3.297 1.397 4.747 4.747 0 0 0-1.39 3.277v.417h-.102a.999.999 0 0 1-.937.574zm5.745-6.872a5.934 5.934 0 0 0-5.918 5.873c0 .032 0 .15.17.15.169 0 .169-.118.169-.155v-.422h.04a5.605 5.605 0 0 1 1.621-3.445 5.454 5.454 0 0 1 3.9-1.641h.037a5.595 5.595 0 0 1 5.51 5.51c0 .134.117.154.186.154a.2.2 0 0 0 .136-.044s.025-.027.023-.093a5.991 5.991 0 0 0-3.84-5.498 5.564 5.564 0 0 0-2.034-.389z"/>
        <path d="M29.956 15.848a5.118 5.118 0 0 1 10.235 0c0 .753 1.214.771 1.187 0a6.412 6.412 0 0 0-4.11-5.883 6.29 6.29 0 0 0-7 1.814 6.366 6.366 0 0 0-1.526 4.069.597.597 0 0 0 1.187 0h.027z"/>
        <path d="M29.34 16.852a.99.99 0 0 1-1.018-1.002 6.781 6.781 0 0 1 6.766-6.717 6.409 6.409 0 0 1 2.345.439 6.834 6.834 0 0 1 4.379 6.272.95.95 0 0 1-.265.702 1.038 1.038 0 0 1-.742.3.993.993 0 0 1-1.034-.995 4.747 4.747 0 0 0-4.671-4.664h-.032a4.613 4.613 0 0 0-3.298 1.397 4.747 4.747 0 0 0-1.39 3.277v.417h-.102a.999.999 0 0 1-.939.574zm5.745-6.872a5.934 5.934 0 0 0-5.919 5.873c0 .032 0 .15.17.15s.17-.118.17-.155v-.422h.05c.12-1.301.691-2.519 1.614-3.443a5.454 5.454 0 0 1 3.9-1.65h.037a5.595 5.595 0 0 1 5.51 5.51c0 .134.116.154.186.154a.2.2 0 0 0 .136-.044s.025-.027.023-.093a5.991 5.991 0 0 0-3.84-5.498 5.564 5.564 0 0 0-2.037-.382z"/>
        <path d="M18.535 15.848a5.118 5.118 0 0 1 10.235 0c0 .753 1.213.771 1.186 0a6.412 6.412 0 0 0-4.11-5.883 6.29 6.29 0 0 0-7.006 1.814 6.366 6.366 0 0 0-1.526 4.069.597.597 0 0 0 1.187 0h.034z"/>
        <path d="M17.911 16.852a.99.99 0 0 1-1.017-1.002 6.781 6.781 0 0 1 6.766-6.717 6.409 6.409 0 0 1 2.345.439 6.834 6.834 0 0 1 4.379 6.272.95.95 0 0 1-.265.702 1.038 1.038 0 0 1-.742.3.993.993 0 0 1-1.035-.995 4.747 4.747 0 0 0-4.67-4.664h-.032a4.613 4.613 0 0 0-3.298 1.397 4.747 4.747 0 0 0-1.39 3.277v.417h-.102a.999.999 0 0 1-.939.574zm5.746-6.872a5.934 5.934 0 0 0-5.919 5.873c0 .032 0 .15.17.15s.17-.118.17-.155v-.422h.04c.12-1.301.691-2.519 1.614-3.443a5.454 5.454 0 0 1 3.9-1.65h.036a5.595 5.595 0 0 1 5.51 5.51c0 .134.117.154.187.154a.2.2 0 0 0 .135-.044s.026-.027.024-.093a5.991 5.991 0 0 0-3.84-5.498 5.564 5.564 0 0 0-2.027-.382z"/>
        <path d="M7.1 15.848a5.184 5.184 0 0 1 5.147-5.086 5.17 5.17 0 0 1 5.086 5.086c0 .753 1.214.771 1.187 0a6.412 6.412 0 0 0-4.11-5.883 6.29 6.29 0 0 0-6.998 1.814 6.366 6.366 0 0 0-1.526 4.069.597.597 0 0 0 1.187 0H7.1z"/>
        <path d="M6.483 16.852a.99.99 0 0 1-1.017-1.002 6.781 6.781 0 0 1 6.762-6.717 6.409 6.409 0 0 1 2.345.439 6.834 6.834 0 0 1 4.379 6.272.95.95 0 0 1-.264.702 1.038 1.038 0 0 1-.743.3.993.993 0 0 1-1.034-.995 4.747 4.747 0 0 0-4.667-4.664h-.033a4.613 4.613 0 0 0-3.297 1.397 4.747 4.747 0 0 0-1.39 3.277v.417h-.102a.999.999 0 0 1-.939.574zm5.745-6.872a5.934 5.934 0 0 0-5.918 5.873c0 .032 0 .15.17.15s.17-.118.17-.155v-.422h.04a5.605 5.605 0 0 1 1.62-3.445 5.454 5.454 0 0 1 3.9-1.65h.037a5.595 5.595 0 0 1 5.508 5.51c0 .134.117.154.187.154a.2.2 0 0 0 .135-.044s.026-.027.024-.093a5.991 5.991 0 0 0-3.836-5.498 5.565 5.565 0 0 0-2.037-.38zM41.405 32.379a5.118 5.118 0 0 1 10.234 0c0 .753 1.214.771 1.187 0a6.412 6.412 0 0 0-4.11-5.883 6.29 6.29 0 0 0-7.004 1.812 6.366 6.366 0 0 0-1.526 4.07.597.597 0 0 0 1.187 0h.032z"/>
        <path d="M40.788 33.383a.99.99 0 0 1-1.018-1.002 6.781 6.781 0 0 1 6.766-6.717 6.409 6.409 0 0 1 2.345.439 6.834 6.834 0 0 1 4.38 6.273.95.95 0 0 1-.265.701 1.038 1.038 0 0 1-.743.3.993.993 0 0 1-1.034-.995 4.747 4.747 0 0 0-4.667-4.669h-.038a4.613 4.613 0 0 0-3.297 1.397 4.747 4.747 0 0 0-1.39 3.277v.417h-.102a.999.999 0 0 1-.937.579zm5.745-6.872a5.934 5.934 0 0 0-5.918 5.875c0 .032 0 .149.17.149.169 0 .169-.117.169-.154v-.424h.04c.12-1.301.692-2.519 1.614-3.443a5.454 5.454 0 0 1 3.9-1.65h.037a5.595 5.595 0 0 1 5.51 5.51c0 .134.117.154.186.154a.2.2 0 0 0 .136-.044s.025-.027.024-.093a5.991 5.991 0 0 0-3.84-5.498 5.564 5.564 0 0 0-2.028-.382z"/>
        <path d="M29.956 32.379a5.118 5.118 0 0 1 10.235 0c0 .753 1.214.771 1.187 0a6.412 6.412 0 0 0-4.11-5.883 6.29 6.29 0 0 0-7.005 1.812 6.366 6.366 0 0 0-1.526 4.07.597.597 0 0 0 1.187 0h.032z"/>
        <path d="M29.34 33.383a.99.99 0 0 1-1.018-1.002 6.781 6.781 0 0 1 6.766-6.717 6.409 6.409 0 0 1 2.345.439 6.834 6.834 0 0 1 4.379 6.273.95.95 0 0 1-.265.701 1.038 1.038 0 0 1-.742.3.993.993 0 0 1-1.034-.995 4.747 4.747 0 0 0-4.668-4.669h-.032a4.613 4.613 0 0 0-3.297 1.397 4.747 4.747 0 0 0-1.39 3.277v.417h-.102a.999.999 0 0 1-.943.579zm5.745-6.872a5.934 5.934 0 0 0-5.919 5.875c0 .032 0 .149.17.149s.17-.117.17-.154v-.424h.05c.12-1.301.691-2.519 1.614-3.443a5.454 5.454 0 0 1 3.9-1.65h.037a5.595 5.595 0 0 1 5.51 5.51c0 .134.116.154.186.154a.2.2 0 0 0 .136-.044s.025-.027.023-.093a5.991 5.991 0 0 0-3.84-5.498 5.564 5.564 0 0 0-2.037-.382z"/>
        <path d="M18.535 32.379a5.118 5.118 0 0 1 10.235 0c0 .753 1.213.771 1.186 0a6.412 6.412 0 0 0-4.11-5.883 6.29 6.29 0 0 0-7.006 1.814 6.366 6.366 0 0 0-1.526 4.069.597.597 0 0 0 1.187 0h.034z"/>
        <path d="M17.911 33.383a.99.99 0 0 1-1.017-1.002 6.781 6.781 0 0 1 6.766-6.717 6.409 6.409 0 0 1 2.345.439 6.834 6.834 0 0 1 4.379 6.273.95.95 0 0 1-.265.701 1.038 1.038 0 0 1-.742.3.993.993 0 0 1-1.035-.995 4.747 4.747 0 0 0-4.667-4.669h-.032a4.613 4.613 0 0 0-3.297 1.397 4.747 4.747 0 0 0-1.39 3.277v.417h-.102a.999.999 0 0 1-.943.579zm5.746-6.872a5.934 5.934 0 0 0-5.919 5.873c0 .032 0 .15.17.15s.17-.118.17-.155v-.424h.04c.12-1.3.691-2.519 1.614-3.443a5.454 5.454 0 0 1 3.9-1.65h.036a5.595 5.595 0 0 1 5.51 5.51c0 .134.117.154.187.154a.2.2 0 0 0 .135-.044s.026-.027.024-.093a5.991 5.991 0 0 0-3.84-5.498 5.564 5.564 0 0 0-2.027-.38z"/>
        <path d="M7.1 32.379a5.184 5.184 0 0 1 5.147-5.086 5.17 5.17 0 0 1 5.086 5.086c0 .753 1.214.771 1.187 0a6.412 6.412 0 0 0-4.11-5.883 6.29 6.29 0 0 0-6.998 1.814 6.366 6.366 0 0 0-1.526 4.069.597.597 0 0 0 1.187 0H7.1z"/>
        <path d="M6.483 33.383a.99.99 0 0 1-1.017-1.002 6.781 6.781 0 0 1 6.766-6.717 6.409 6.409 0 0 1 2.344.439 6.834 6.834 0 0 1 4.38 6.273.95.95 0 0 1-.265.701 1.038 1.038 0 0 1-.743.3.993.993 0 0 1-1.034-.995 4.747 4.747 0 0 0-4.67-4.67h-.033a4.613 4.613 0 0 0-3.297 1.397 4.747 4.747 0 0 0-1.39 3.277v.417h-.102a.999.999 0 0 1-.939.58zm5.745-6.872a5.934 5.934 0 0 0-5.918 5.873c0 .032 0 .15.17.15s.17-.118.17-.155v-.424h.04c.12-1.3.691-2.519 1.614-3.443a5.454 5.454 0 0 1 3.899-1.65h.037a5.595 5.595 0 0 1 5.508 5.51c0 .134.117.154.187.154a.2.2 0 0 0 .135-.044s.026-.027.024-.093a5.991 5.991 0 0 0-3.84-5.498 5.564 5.564 0 0 0-2.026-.38zM48.176 38.358h-3.56l.607.599v-5.764l-.607.598h3.56l-.607-.598v5.764a.597.597 0 0 0 1.187 0v-5.764a.605.605 0 0 0-.607-.599h-3.56a.605.605 0 0 0-.607.599v5.764c.003.332.274.6.607.598h3.56a.588.588 0 0 0 0-1.176l.027-.02z"/>
        <path d="M48.157 39.977h-3.56a1.027 1.027 0 0 1-1.03-1.017v-5.764a1.027 1.027 0 0 1 1.03-1.017h3.56a1.027 1.027 0 0 1 1.031 1.017v.999l.024.022h-.024v3.73h.024l-.024.021v.999a1 1 0 0 1-1.03 1.01zm-2.51-.847h1.513a1.075 1.075 0 0 1-.013-.17v-.154h-.024l.02-.019h-1.497v.343zm2.347-1.196h.34v-3.73h-.34v3.73zm-2.348 0h1.5v-3.73h-1.5v3.73zm-1.232 0h.385v-3.73h-.387l.002 3.73zm1.232-4.577h1.5v-.342h-1.5v.342zM36.727 38.358h-3.56l.607.599v-5.764l-.607.598h3.56l-.607-.598v5.764a.597.597 0 0 0 1.187 0v-5.764a.605.605 0 0 0-.607-.599h-3.56a.605.605 0 0 0-.607.599v5.764c.004.332.275.6.607.598h3.56a.588.588 0 0 0 0-1.176l.027-.02z"/>
        <path d="M36.709 39.977h-3.56a1.027 1.027 0 0 1-1.031-1.017v-5.764a1.027 1.027 0 0 1 1.03-1.017h3.56a1.027 1.027 0 0 1 1.032 1.017v.999l.022.022h-.022v3.73h.022l-.022.021v1a1 1 0 0 1-1.03 1.009h-.001zm-2.511-.847h1.514a1.075 1.075 0 0 1-.014-.17v-.154h-.022l.02-.019H34.2l-.002.343zm2.348-1.196h.34v-3.73h-.34v3.73zm-2.348 0h1.5v-3.73h-1.5v3.73zm-1.232 0h.384v-3.73h-.386l.002 3.73zm1.232-4.577h1.5v-.342h-1.5v.342zM25.3 38.358h-3.56l.606.599v-5.764l-.607.598h3.56l-.607-.598v5.764a.597.597 0 0 0 1.187 0v-5.764a.605.605 0 0 0-.607-.599h-3.56a.605.605 0 0 0-.607.599v5.764c.004.332.275.6.607.598h3.56a.588.588 0 0 0 0-1.176l.027-.02z"/>
        <path d="M25.28 39.977h-3.56a1.027 1.027 0 0 1-1.03-1.017v-5.764a1.027 1.027 0 0 1 1.03-1.017h3.56a1.027 1.027 0 0 1 1.031 1.017v.999l.024.022h-.024v3.73h.022l-.023.021v.999a1 1 0 0 1-1.03 1.01zm-2.51-.847h1.514a1.075 1.075 0 0 1-.014-.17v-.154h-.023l.02-.019h-1.494l-.003.343zm2.348-1.196h.339v-3.73h-.34v3.73zm-2.348 0h1.5v-3.73h-1.497l-.003 3.73zm-1.233 0h.389v-3.73h-.39l.001 3.73zm1.233-4.577h1.5v-.342h-1.497l-.003.342zM13.871 38.358h-3.56l.607.599v-5.764l-.607.598h3.56l-.607-.598v5.764a.597.597 0 0 0 1.187 0v-5.764a.605.605 0 0 0-.607-.599h-3.56a.605.605 0 0 0-.607.599v5.764c.004.332.275.6.607.598h3.56a.588.588 0 0 0 0-1.176l.027-.02z"/>
        <path d="M13.853 39.977h-3.56a1.027 1.027 0 0 1-1.031-1.017v-5.764a1.027 1.027 0 0 1 1.03-1.017h3.56a1.027 1.027 0 0 1 1.031 1.017v.999l.024.022h-.024v3.73h.022l-.023.021v.999a1 1 0 0 1-1.03 1.01zm-2.511-.847h1.514a1.075 1.075 0 0 1-.014-.17v-.154h-.024l.02-.019H11.34l.002.343zm2.348-1.196h.339v-3.73h-.34v3.73zm-2.348 0h1.5v-3.73H11.34l.002 3.73zm-1.233 0h.385v-3.73h-.386l.001 3.73zm1.233-4.577h1.5v-.342H11.34l.002.342zM48.176 20.574h-3.56l.607.599v-5.764l-.607.598h3.56l-.607-.598v5.764a.597.597 0 0 0 1.187 0v-5.764a.605.605 0 0 0-.607-.599h-3.56a.605.605 0 0 0-.607.599v5.764c.003.332.274.6.607.598h3.56a.588.588 0 0 0 0-1.176l.027-.02z"/>
        <path d="M48.157 22.193h-3.56a1.027 1.027 0 0 1-1.03-1.017v-5.764a1.027 1.027 0 0 1 1.03-1.017h3.56a1.027 1.027 0 0 1 1.031 1.017v.989l.024.022h-.024v3.73h.024l-.024.021v.999a.983.983 0 0 1-.302.727 1 1 0 0 1-.729.293zm-2.51-.847h1.513a1.075 1.075 0 0 1-.013-.17v-.154h-.024l.02-.019h-1.497v.343zm2.347-1.195h.34v-3.73h-.34v3.73zm-2.348 0h1.5v-3.73h-1.5v3.73zm-1.232 0h.385v-3.73h-.387l.002 3.73zm1.232-4.578h1.5v-.342h-1.5v.342zM36.727 20.574h-3.56l.607.599v-5.764l-.607.598h3.56l-.607-.598v5.764a.597.597 0 0 0 1.187 0v-5.764a.605.605 0 0 0-.607-.599h-3.56a.605.605 0 0 0-.607.599v5.764c.004.332.275.6.607.598h3.56a.588.588 0 0 0 0-1.176l.027-.02z"/>
        <path d="M36.709 22.193h-3.56a1.027 1.027 0 0 1-1.031-1.017v-5.764a1.027 1.027 0 0 1 1.03-1.017h3.56a1.027 1.027 0 0 1 1.032 1.017v.989l.022.022h-.022v3.73h.022l-.022.021v1a.983.983 0 0 1-.302.728 1 1 0 0 1-.73.291zm-2.511-.847h1.514a1.075 1.075 0 0 1-.014-.17v-.154h-.022l.02-.019H34.2l-.002.343zm2.348-1.195h.34v-3.73h-.34v3.73zm-2.348 0h1.5v-3.73h-1.5v3.73zm-1.232 0h.384v-3.73h-.386l.002 3.73zm1.232-4.578h1.5v-.342h-1.5v.342zM25.3 20.574h-3.56l.606.599v-5.764l-.607.598h3.56l-.607-.598v5.764a.597.597 0 0 0 1.187 0v-5.764a.605.605 0 0 0-.607-.599h-3.56a.605.605 0 0 0-.607.599v5.764c.004.332.275.6.607.598h3.56a.588.588 0 0 0 0-1.176l.027-.02z"/>
        <path d="M25.28 22.193h-3.56a1.027 1.027 0 0 1-1.03-1.017v-5.764a1.027 1.027 0 0 1 1.03-1.017h3.56a1.027 1.027 0 0 1 1.031 1.017v.989l.022.022h-.022v3.73h.022l-.023.021v.999a.983.983 0 0 1-.302.727 1 1 0 0 1-.727.293zm-2.51-.847h1.514a1.075 1.075 0 0 1-.014-.17v-.154h-.023l.02-.019h-1.494l-.003.343zm2.348-1.195h.339v-3.73h-.34v3.73zm-2.348 0h1.5v-3.73h-1.497l-.003 3.73zm-1.233 0h.389v-3.73h-.39l.001 3.73zm1.233-4.578h1.5v-.342h-1.497l-.003.342zM13.871 20.574h-3.56l.607.599v-5.764l-.607.598h3.56l-.607-.598v5.764a.597.597 0 0 0 1.187 0v-5.764a.605.605 0 0 0-.607-.599h-3.56a.605.605 0 0 0-.607.599v5.764c.004.332.275.6.607.598h3.56a.588.588 0 0 0 0-1.176l.027-.02z"/>
        <path d="M13.853 22.193h-3.56a1.027 1.027 0 0 1-1.031-1.017v-5.764a1.027 1.027 0 0 1 1.03-1.017h3.56a1.027 1.027 0 0 1 1.031 1.017v.989l.024.022h-.024v3.73h.022l-.023.021v.999a.983.983 0 0 1-.302.727 1 1 0 0 1-.727.293zm-2.511-.847h1.514a1.075 1.075 0 0 1-.014-.17v-.154h-.024l.02-.019H11.34l.002.343zm2.348-1.195h.339v-3.73h-.34v3.73zm-2.348 0h1.5v-3.73H11.34l.002 3.73zm-1.233 0h.385v-3.73h-.386l.001 3.73zm1.233-4.578h1.5v-.342H11.34l.002.342zM12.206 30.45a.588.588 0 1 0 0-1.177.588.588 0 0 0 0 1.177z"/>
        <path d="M12.206 30.867a1.017 1.017 0 1 1 1.018-1.018.99.99 0 0 1-1.018 1.018zM23.636 30.45a.588.588 0 1 0 0-1.177.588.588 0 0 0 0 1.177z"/>
        <path d="M23.636 30.867a1.017 1.017 0 1 1 1.017-1.018.99.99 0 0 1-1.017 1.018zM35.071 30.45a.588.588 0 1 0 0-1.177.588.588 0 0 0 0 1.177z"/>
        <path d="M35.071 30.867a1.017 1.017 0 1 1 1.017-1.018.99.99 0 0 1-1.017 1.018zM46.513 30.45a.588.588 0 1 0 0-1.177.588.588 0 0 0 0 1.177z"/>
        <path d="M46.513 30.867a1.017 1.017 0 1 1 1.017-1.018.99.99 0 0 1-1.017 1.018zM12.206 13.67a.588.588 0 1 0 0-1.177.588.588 0 0 0 0 1.176z"/>
        <path d="M12.206 14.086a1.017 1.017 0 1 1 1.018-1.017.99.99 0 0 1-1.018 1.017zM23.636 13.67a.588.588 0 1 0 0-1.177.588.588 0 0 0 0 1.176z"/>
        <path d="M23.636 14.086a1.017 1.017 0 1 1 1.017-1.017.99.99 0 0 1-1.017 1.017zM35.071 13.67a.588.588 0 1 0 0-1.177.588.588 0 0 0 0 1.176z"/>
        <path d="M35.071 14.086a1.017 1.017 0 1 1 1.017-1.017.99.99 0 0 1-1.017 1.017zM46.513 13.67a.588.588 0 1 0 0-1.177.588.588 0 0 0 0 1.176z"/>
        <path d="M46.513 14.086a1.017 1.017 0 1 1 1.017-1.017.99.99 0 0 1-1.017 1.017z"/>
    </g>
</svg>
