<?xml version="1.0" encoding="UTF-8"?>
<svg width="17px" height="18px" viewBox="0 0 17 18" version="1.1" xmlns="http://www.w3.org/2000/svg" xmlns:xlink="http://www.w3.org/1999/xlink">
    <title>short-term_deactive</title>
    <g id="Page-1" stroke="none" stroke-width="1" fill="none" fill-rule="evenodd" opacity="0.55">
        <g id="Members-Love-Us-Copy-3" transform="translate(-15.000000, -21.000000)" fill="#000000" fill-rule="nonzero">
            <g id="Group-26" transform="translate(15.000000, 17.000000)">
                <g id="short-term_deactive" transform="translate(0.000000, 4.000000)">
                    <path d="M10.6744001,1.25581178 L7.32556872,1.25581178 C6.97878587,1.25581178 6.69766283,0.974688738 6.69766283,0.62790589 C6.69766283,0.281123043 6.97878587,0 7.32556872,0 L10.6744001,0 C11.021183,0 11.302306,0.281123043 11.302306,0.62790589 C11.302306,0.974688738 11.021183,1.25581178 10.6744001,1.25581178 L10.6744001,1.25581178 Z" id="Path"></path>
                    <path d="M8.99998443,3.76743534 C8.65320158,3.76743534 8.37207854,3.4863123 8.37207854,3.13952945 L8.37207854,0.62790589 C8.37207854,0.281123043 8.65320158,0 8.99998443,0 C9.34676727,0 9.62789032,0.281123043 9.62789032,0.62790589 L9.62789032,3.13952945 C9.62789032,3.4863123 9.34676727,3.76743534 8.99998443,3.76743534 Z" id="Path"></path>
                    <path d="M8.99998443,18 C7.71863633,18.0036815 6.45817261,17.6754417 5.34138611,17.0472263 C5.06858478,16.8638614 4.98336549,16.5011379 5.14597252,16.2154769 C5.30857956,15.9298159 5.66397572,15.8179043 5.96091992,15.9588561 C6.88922257,16.4784377 7.93617631,16.7489729 8.99998443,16.7441571 C12.1929807,16.7433344 14.8769222,14.3463857 15.2373036,11.173792 C15.597685,8.00119817 13.5197355,5.06333656 10.4082735,4.34637763 C7.29681146,3.62941871 4.14274552,5.36169268 3.07841328,8.37207854 C3.00632257,8.58709651 2.82389064,8.74653338 2.60115514,8.78917956 C2.37841964,8.83182574 2.14999594,8.75105357 2.00357846,8.5778724 C1.85716098,8.40469122 1.81550449,8.16601515 1.89460137,7.95347461 C3.17182133,4.34095127 6.95679912,2.26222299 10.6905968,3.122671 C14.4243944,3.98311901 16.9178662,7.50870646 16.4852321,11.3158633 C16.0525979,15.1230202 12.831644,17.9992371 8.99998443,18 L8.99998443,18 Z" id="Path"></path>
                    <path d="M10.6744001,11.3023067 C10.5772994,11.3024471 10.4815213,11.279793 10.3947727,11.2361666 L8.720357,10.3989587 C8.50698749,10.2930538 8.37204796,10.0753989 8.37207853,9.83719228 L8.37207853,7.32556872 C8.37207853,6.97878587 8.65320158,6.69766283 8.99998443,6.69766283 C9.34676727,6.69766283 9.62789032,6.97878587 9.62789032,7.32556872 L9.62789032,9.44956504 L10.9548648,10.1126337 C11.2154486,10.2427511 11.352343,10.5349868 11.2855099,10.818479 C11.2186768,11.1019711 10.9656637,11.3023067 10.6744001,11.3023067 L10.6744001,11.3023067 Z" id="Path"></path>
                    <path d="M5.65115301,10.4650982 L0.62790589,10.4650982 C0.281123043,10.4650982 0,10.1839751 0,9.83719228 C0,9.49040943 0.281123043,9.20928639 0.62790589,9.20928639 L5.65115301,9.20928639 C5.99793586,9.20928639 6.2790589,9.49040943 6.2790589,9.83719228 C6.2790589,10.1839751 5.99793586,10.4650982 5.65115301,10.4650982 Z" id="Path"></path>
                    <path d="M5.65115301,12.9767217 L1.46511374,12.9767217 C1.1183309,12.9767217 0.837207854,12.6955987 0.837207854,12.3488158 C0.837207854,12.002033 1.1183309,11.72091 1.46511374,11.72091 L5.65115301,11.72091 C5.99793586,11.72091 6.2790589,12.002033 6.2790589,12.3488158 C6.2790589,12.6955987 5.99793586,12.9767217 5.65115301,12.9767217 Z" id="Path"></path>
                    <path d="M5.65115301,15.4883453 L3.13952945,15.4883453 C2.7927466,15.4883453 2.51162356,15.2072222 2.51162356,14.8604394 C2.51162356,14.5136566 2.7927466,14.2325335 3.13952945,14.2325335 L5.65115301,14.2325335 C5.99793586,14.2325335 6.2790589,14.5136566 6.2790589,14.8604394 C6.2790589,15.2072222 5.99793586,15.4883453 5.65115301,15.4883453 Z" id="Path"></path>
                </g>
            </g>
        </g>
    </g>
</svg>