<svg width="27" height="30" viewBox="0 0 27 30" xmlns="http://www.w3.org/2000/svg">
    <g fill-rule="nonzero" fill="none">
        <path d="M21.713 2.46H7.169c-1.06 0-1.927.868-1.927 1.928v12.43a4.85 4.85 0 0 1 3.33 1.404h5.901c.274 0 .495.222.495.496v.65a.495.495 0 0 1-.495.495c.274 0 .495.222.495.495v.65a.495.495 0 0 1-.495.496c.274 0 .495.222.495.495v.65a.495.495 0 0 1-.495.495c.274 0 .495.222.495.496v.65a.495.495 0 0 1-.495.495c.274 0 .495.222.495.495v.65a.495.495 0 0 1-.495.496c.274 0 .495.221.495.495v.65a.495.495 0 0 1-.495.495c.274 0 .495.222.495.496v.65a.495.495 0 0 1-.495.495h7.24c1.06 0 1.927-.868 1.927-1.928V4.39c0-1.06-.867-1.928-1.927-1.928z" fill="#C3E0F9"/>
        <circle fill="#9BE5F9" cx="8.747" cy="14.18" r="1.273"/>
        <circle fill="#9BE5F9" cx="12.543" cy="14.18" r="1.273"/>
        <circle fill="#9BE5F9" cx="16.339" cy="14.18" r="1.273"/>
        <circle fill="#9BE5F9" cx="20.135" cy="14.18" r="1.273"/>
        <circle fill="#9BE5F9" cx="16.339" cy="18.008" r="1.273"/>
        <circle fill="#9BE5F9" cx="20.135" cy="18.008" r="1.273"/>
        <circle fill="#9BE5F9" cx="16.339" cy="21.836" r="1.273"/>
        <path d="M20.135 20.563c-.703 0-1.272.57-1.272 1.273v3.828a1.273 1.273 0 1 0 2.545 0v-3.828c0-.703-.57-1.273-1.273-1.273z" fill="#FC657E"/>
        <circle fill="#9BE5F9" cx="16.339" cy="25.664" r="1.273"/>
        <path d="M12.543 16.735a1.273 1.273 0 0 0-1.254 1.488h2.507a1.273 1.273 0 0 0-1.253-1.488zM8.747 16.735c-.512 0-.952.303-1.154.738.357.208.686.46.978.75h1.43a1.273 1.273 0 0 0-1.254-1.488z" fill="#9BE5F9"/>
        <path d="M21.296 5.742H7.586A.586.586 0 0 0 7 6.328v3.926c0 .324.262.586.586.586h13.71a.586.586 0 0 0 .586-.586V6.328a.586.586 0 0 0-.586-.586z" fill="#E9EAEB"/>
        <path d="M7 9.55v.704c0 .324.262.586.586.586h13.71a.586.586 0 0 0 .586-.586V9.55H7z" fill="#D7DEED"/>
        <path d="M14.473 28.066H8.794a4.855 4.855 0 0 1-3.193 1.62.491.491 0 0 0 .136.02h8.736a.495.495 0 0 0 .495-.494v-.65a.495.495 0 0 0-.495-.496zM14.473 26.426h-4.72c-.21.61-.539 1.167-.959 1.64h5.679a.495.495 0 0 0 .495-.495v-.65a.495.495 0 0 0-.495-.495z" fill="#F5C84C"/>
        <path d="M14.473 24.785h-4.455l.002.059c0 .553-.095 1.085-.266 1.582h4.719a.495.495 0 0 0 .495-.496v-.65a.495.495 0 0 0-.495-.495zM14.473 23.144H9.792l-.038.118c.165.478.258.99.264 1.523h4.455a.495.495 0 0 0 .495-.495v-.65a.495.495 0 0 0-.495-.496zM14.473 21.504h-4.458c.002.058.005.117.005.176 0 .51-.082 1.002-.228 1.464h4.681a.495.495 0 0 0 .495-.495V22a.495.495 0 0 0-.495-.495zM14.473 19.863H9.666a4.83 4.83 0 0 1 .349 1.64h4.458a.495.495 0 0 0 .495-.495v-.65a.496.496 0 0 0-.495-.495zM14.473 18.223h-5.9a4.88 4.88 0 0 1 1.093 1.64h4.807a.495.495 0 0 0 .495-.495v-.65a.496.496 0 0 0-.495-.495z" fill="#F5C84C"/>
        <circle fill="#D7DEED" cx="5.156" cy="24.844" r="4.863"/>
        <path d="M5.156 16.816A4.869 4.869 0 0 0 .293 21.68c0 .553.094 1.085.266 1.582a4.87 4.87 0 0 1 4.597-3.282 4.87 4.87 0 0 1 4.598 3.282 4.838 4.838 0 0 0 .266-1.582 4.869 4.869 0 0 0-4.864-4.864z" fill="#D7DEED"/>
        <circle fill="#E9EAEB" cx="5.156" cy="24.844" r="3.691"/>
        <path d="M5.156 17.988a3.696 3.696 0 0 0-3.691 3.692v.003a4.853 4.853 0 0 1 7.383 0v-.003a3.696 3.696 0 0 0-3.692-3.692z" fill="#E9EAEB"/>
        <path d="M17.039.728a.913.913 0 0 1-.732-.716c0-.016-.033-.016-.033 0a.912.912 0 0 1-.732.716c-.016 0-.016.024 0 .033.37.065.658.353.732.715 0 .016.033.016.033 0A.912.912 0 0 1 17.04.76c.017-.009.017-.033 0-.033z" fill="#FC657E"/>
        <path d="M2.929 14.34h-.27v-.269c0-.2-.164-.375-.375-.375a.37.37 0 0 0-.375.375v.27h-.27c-.199 0-.375.164-.375.375 0 .21.165.375.375.375h.27v.269c0 .2.164.375.375.375a.37.37 0 0 0 .375-.375v-.27h.27c.199 0 .375-.164.375-.374a.37.37 0 0 0-.375-.375z" fill="#70D6F9"/>
        <path d="M25.264 22.995a.398.398 0 1 0 0 .797.398.398 0 0 0 0-.797z" fill="#87D147"/>
        <path d="M26.905 20.23a1.3 1.3 0 0 1-1.043-1.02c0-.024-.047-.024-.047 0a1.3 1.3 0 0 1-1.043 1.02c-.023 0-.023.034 0 .046a1.3 1.3 0 0 1 1.043 1.02c0 .023.047.023.047 0a1.3 1.3 0 0 1 1.043-1.02c.023-.012.023-.047 0-.047zM3.35 11.16a.398.398 0 1 0 0 .796.398.398 0 0 0 0-.797z" fill="#F5C84C"/>
        <path d="M15.554 3.867h-2.226a.293.293 0 1 0 0 .586h2.226a.293.293 0 1 0 0-.586zM6.551 23.972v.29a.088.088 0 0 1-.091.09h-.477a1.063 1.063 0 0 1-.366.665c-.201.17-.463.275-.784.312.316.337.75.845 1.304 1.523.026.03.03.062.011.097-.016.034-.043.05-.082.05H5.51a.084.084 0 0 1-.071-.033 37.7 37.7 0 0 0-1.414-1.622.085.085 0 0 1-.026-.062v-.362c0-.024.01-.047.027-.064a.088.088 0 0 1 .064-.027h.318c.25 0 .451-.041.604-.123.144-.07.25-.2.291-.355H4.091a.088.088 0 0 1-.091-.09v-.29c0-.027.008-.049.026-.065a.088.088 0 0 1 .065-.026h1.173c-.108-.214-.362-.32-.76-.32H4.09a.088.088 0 0 1-.064-.028.088.088 0 0 1-.027-.064v-.378a.087.087 0 0 1 .091-.09h2.363a.088.088 0 0 1 .092.091v.29a.088.088 0 0 1-.092.091h-.661c.089.115.15.251.181.408h.486a.088.088 0 0 1 .091.091v.001z" fill="#000"/>
        <path d="M21.713 2.168H7.169c-1.224 0-2.22.996-2.22 2.22v12.346a.293.293 0 1 0 .586 0V4.388c0-.9.733-1.634 1.634-1.634h14.544c.901 0 1.634.733 1.634 1.634V27.78c0 .902-.733 1.635-1.634 1.635h-7.24a.293.293 0 1 0 0 .586h7.24c1.224 0 2.22-.996 2.22-2.22V4.387c0-1.224-.996-2.22-2.22-2.22z" fill="#000"/>
        <path d="M8.747 12.614c-.864 0-1.566.702-1.566 1.566 0 .863.702 1.565 1.566 1.565.863 0 1.565-.702 1.565-1.565 0-.864-.702-1.566-1.565-1.566zm0 2.545a.981.981 0 0 1 0-1.96.981.981 0 0 1 0 1.96zM12.543 12.614c-.864 0-1.566.702-1.566 1.566 0 .863.702 1.565 1.566 1.565.863 0 1.566-.702 1.566-1.565 0-.864-.703-1.566-1.566-1.566zm0 2.545a.981.981 0 0 1 0-1.96.981.981 0 0 1 0 1.96zM16.34 12.614c-.864 0-1.567.702-1.567 1.566 0 .863.703 1.565 1.566 1.565.864 0 1.566-.702 1.566-1.565 0-.864-.703-1.566-1.566-1.566zm0 2.545a.981.981 0 0 1 0-1.96.981.981 0 0 1 0 1.96zM20.135 12.614c-.863 0-1.565.702-1.565 1.566 0 .863.702 1.565 1.565 1.565.864 0 1.566-.702 1.566-1.565 0-.864-.702-1.566-1.566-1.566zm0 2.545a.981.981 0 0 1 0-1.96.981.981 0 0 1 0 1.96zM16.34 16.442c-.864 0-1.567.702-1.567 1.566 0 .863.703 1.566 1.566 1.566.864 0 1.566-.703 1.566-1.566 0-.864-.703-1.566-1.566-1.566zm0 2.546a.981.981 0 0 1 0-1.96.981.981 0 0 1 0 1.96zM20.135 16.442c-.863 0-1.565.702-1.565 1.566 0 .863.702 1.566 1.565 1.566.864 0 1.566-.703 1.566-1.566 0-.864-.702-1.566-1.566-1.566zm0 2.546a.981.981 0 0 1 0-1.96.981.981 0 0 1 0 1.96zM16.34 20.27c-.864 0-1.567.702-1.567 1.566 0 .863.703 1.566 1.566 1.566.864 0 1.566-.703 1.566-1.566 0-.864-.703-1.566-1.566-1.566zm0 2.546a.981.981 0 0 1 0-1.96.981.981 0 0 1 0 1.96zM20.135 20.27c-.863 0-1.565.702-1.565 1.566v3.828c0 .863.702 1.566 1.565 1.566.864 0 1.566-.703 1.566-1.566v-3.828c0-.864-.702-1.566-1.566-1.566zm.98 5.394a.981.981 0 0 1-1.96 0v-3.828a.981.981 0 0 1 1.96 0v3.828zM16.34 24.098c-.864 0-1.567.703-1.567 1.566 0 .863.703 1.566 1.566 1.566.864 0 1.566-.703 1.566-1.566 0-.863-.703-1.566-1.566-1.566zm0 2.546a.981.981 0 0 1 0-1.96.981.981 0 0 1 0 1.96zM12.543 16.442a1.568 1.568 0 0 0-1.559 1.705.293.293 0 1 0 .583-.056.981.981 0 1 1 1.956-.084.855.855 0 0 1-.004.078.293.293 0 1 0 .583.054 1.567 1.567 0 0 0-1.56-1.697zM8.747 16.442c-.557 0-1.077.3-1.356.784a.293.293 0 1 0 .508.293.982.982 0 0 1 .848-.491.981.981 0 0 1 .976 1.064.293.293 0 1 0 .583.054 1.567 1.567 0 0 0-1.56-1.704zM21.296 5.45H7.586a.88.88 0 0 0-.88.878v3.926a.88.88 0 0 0 .88.879h13.71a.88.88 0 0 0 .88-.88V6.329a.88.88 0 0 0-.88-.879zm.293 4.804a.293.293 0 0 1-.293.293H7.586a.293.293 0 0 1-.293-.293V6.328c0-.162.131-.293.293-.293h13.71c.162 0 .293.131.293.293v3.926z" fill="#000"/>
        <path d="M21.801 9.258H7.065a.293.293 0 1 0 0 .586h14.736a.293.293 0 1 0 0-.586zM14.473 27.773H8.88a.293.293 0 1 0 0 .586h5.593c.112 0 .202.091.202.203v.65c0 .111-.09.202-.202.202H5.737a.162.162 0 0 1-.034-.004.293.293 0 0 0-.128.571.734.734 0 0 0 .162.019h8.736a.79.79 0 0 0 .788-.788v-.65a.79.79 0 0 0-.788-.789z" fill="#000"/>
        <path d="M14.473 26.133a.293.293 0 1 0 0 .586c.112 0 .202.09.202.202v.65c0 .112-.09.202-.202.202a.293.293 0 1 0 0 .586.79.79 0 0 0 .788-.788v-.65a.79.79 0 0 0-.788-.788z" fill="#000"/>
        <path d="M14.473 24.492h-4.337a.293.293 0 1 0 0 .586h4.337c.112 0 .202.09.202.202v.65c0 .112-.09.203-.202.203h-4.63a.293.293 0 1 0 0 .586h4.63a.79.79 0 0 0 .788-.789v-.65a.79.79 0 0 0-.788-.788z" fill="#000"/>
        <path d="M14.473 22.851a.293.293 0 1 0 0 .586c.112 0 .202.091.202.203v.65c0 .111-.09.202-.202.202a.293.293 0 1 0 0 .586.79.79 0 0 0 .788-.788v-.65a.79.79 0 0 0-.788-.789z" fill="#000"/>
        <path d="M14.473 21.21h-4.392a.293.293 0 1 0 0 .587h4.392c.112 0 .202.09.202.202v.65c0 .112-.09.203-.202.203H9.848a.293.293 0 1 0 0 .586h4.625a.79.79 0 0 0 .788-.789V22a.79.79 0 0 0-.788-.788z" fill="#000"/>
        <path d="M14.473 19.57a.293.293 0 1 0 0 .586c.112 0 .202.09.202.203v.65c0 .111-.09.202-.202.202a.293.293 0 1 0 0 .586.79.79 0 0 0 .788-.788v-.65a.79.79 0 0 0-.788-.789z" fill="#000"/>
        <path d="M14.473 17.93H8.611a.293.293 0 1 0 0 .586h5.862c.112 0 .202.09.202.202v.65c0 .112-.09.202-.202.202h-4.74a.293.293 0 1 0 0 .586h4.74a.79.79 0 0 0 .788-.788v-.65a.79.79 0 0 0-.788-.788zM5.156 19.687A5.162 5.162 0 0 0 0 24.844 5.162 5.162 0 0 0 5.156 30a5.162 5.162 0 0 0 5.156-5.156 5.162 5.162 0 0 0-5.156-5.157zm0 9.727c-2.52 0-4.57-2.05-4.57-4.57 0-2.52 2.05-4.57 4.57-4.57 2.52 0 4.57 2.05 4.57 4.57 0 2.52-2.05 4.57-4.57 4.57z" fill="#000"/>
        <path d="M5.156 16.523A5.162 5.162 0 0 0 0 21.68c0 .54.085 1.076.253 1.59a.292.292 0 1 0 .557-.18 4.545 4.545 0 0 1-.224-1.41c0-2.52 2.05-4.57 4.57-4.57 2.52 0 4.57 2.05 4.57 4.57 0 .491-.079.978-.235 1.445a.293.293 0 0 0 .556.185 5.133 5.133 0 0 0 .265-1.63 5.162 5.162 0 0 0-5.156-5.157z" fill="#000"/>
        <path d="M5.156 20.86a3.989 3.989 0 0 0-3.984 3.984 3.989 3.989 0 0 0 3.984 3.984 3.989 3.989 0 0 0 3.985-3.984 3.989 3.989 0 0 0-3.985-3.985zm0 7.382a3.402 3.402 0 0 1-3.398-3.398 3.402 3.402 0 0 1 3.398-3.399 3.402 3.402 0 0 1 3.399 3.399 3.402 3.402 0 0 1-3.399 3.398z" fill="#000"/>
        <path d="M5.156 17.695a3.998 3.998 0 0 0-3.984 3.94.293.293 0 0 0 .29.296h.003c.16 0 .291-.13.293-.29a3.41 3.41 0 0 1 3.398-3.36 3.41 3.41 0 0 1 3.399 3.363c.001.16.132.29.293.29h.003a.293.293 0 0 0 .29-.296 3.997 3.997 0 0 0-3.985-3.943z" fill="#000"/>
    </g>
</svg>
