<svg width="15" height="15" viewBox="0 0 15 15" xmlns="http://www.w3.org/2000/svg">
    <g opacity=".7">
        <g opacity=".6" fill-rule="nonzero" fill="none">
            <path d="M5.156 9.14a1.76 1.76 0 0 1-1.758-1.757c0-.97.789-1.758 1.758-1.758.97 0 1.758.789 1.758 1.758A1.76 1.76 0 0 1 5.156 9.14zm0-2.343a.587.587 0 1 0 .002 1.173.587.587 0 0 0-.002-1.173zM9.844 12.656a1.76 1.76 0 0 1-1.758-1.758c0-.969.789-1.757 1.758-1.757s1.758.788 1.758 1.757a1.76 1.76 0 0 1-1.758 1.758zm0-2.344a.587.587 0 1 0 .001 1.174.587.587 0 0 0-.001-1.174zM4.79 12.528a.586.586 0 0 1-.091-.824l4.687-5.86a.586.586 0 1 1 .915.733l-4.687 5.86a.586.586 0 0 1-.824.09z" fill="#000"/>
            <path d="M3.816 13.415a2.341 2.341 0 0 0 1.92 1H3.978a2.344 2.344 0 0 1-2.344-2.345V5.392l1.758-1.56v8.238c0 .5.157.964.424 1.345z" fill="#CEE1F2"/>
            <path d="m14.803 5.89-2.03-1.802v-2.33a.586.586 0 1 0-1.171 0v1.29L8.668.444a1.755 1.755 0 0 0-2.336 0L.197 5.89a.586.586 0 0 0 .778.876l.08-.07v5.374A2.933 2.933 0 0 0 3.985 15h7.03a2.933 2.933 0 0 0 2.93-2.93V8.54a.586.586 0 1 0-1.172 0v3.53a1.76 1.76 0 0 1-1.757 1.758H3.984a1.76 1.76 0 0 1-1.757-1.758V5.655L7.11 1.32a.585.585 0 0 1 .779 0l6.135 5.446a.586.586 0 0 0 .778-.876z" fill="#000"/>
        </g>
    </g>
</svg>
