<svg width="30" height="30" viewBox="0 0 30 30" xmlns="http://www.w3.org/2000/svg">
    <g fill-rule="nonzero" fill="none">
        <path d="M10.74 27.964a9.872 9.872 0 0 0 4.586.45l7.723-1.072h1.83v-7.29l-.172-.084c-3.082-1.835-4.744-1.93-7.652-.662h-4.183a2.04 2.04 0 0 0-2.04 2.04 2.06 2.06 0 0 0 2.04 2.04h4.183v.003h-6.598l-7.076-2.03a1.917 1.917 0 0 0-2.351 1.247c-.32.982.22 2.07 1.195 2.408l8.516 2.95z" fill="#FFDAD5"/>
        <path fill="#F9F5F3" d="M24.878 20.051h3.798v9.363h-3.798z"/>
        <path d="M21.059 14.81a10.21 10.21 0 0 1-.669 3.646c-1.022 0-2.058.293-3.335.85h-4.183a2.04 2.04 0 0 0-2.04 2.04 2.06 2.06 0 0 0 2.04 2.04l-2.415.003-7.076-2.03a1.932 1.932 0 0 0-.488-.074A10.193 10.193 0 0 1 .586 14.81c0-5.654 4.583-10.237 10.236-10.237 5.654 0 10.237 4.583 10.237 10.237z" fill="#FFCAA0"/>
        <g fill="#000">
            <path d="M28.676 19.465h-3.663l-.027-.013c-1.466-.871-2.645-1.374-3.795-1.532.3-1.004.453-2.047.453-3.11 0-5.968-4.854-10.823-10.822-10.823-3.133 0-6.11 1.357-8.168 3.724a.586.586 0 1 0 .884.769 9.652 9.652 0 0 1 7.284-3.32c5.321 0 9.65 4.329 9.65 9.65a9.622 9.622 0 0 1-.498 3.071c-1.057.076-2.073.424-3.04.84h-4.062c-1.43 0-2.626 1.195-2.626 2.625 0 .516.153 1.028.44 1.457h-.147l-6.996-2.008a2.569 2.569 0 0 0-.35-.074 9.671 9.671 0 0 1-1.836-7.8.586.586 0 0 0-1.15-.229 10.852 10.852 0 0 0 1.664 8.203 2.495 2.495 0 0 0-1.398 1.53c-.418 1.282.287 2.702 1.56 3.143l8.516 2.95c1.552.537 3.231.702 4.858.476l7.683-1.066h1.203v1.486c0 .324.262.586.585.586h3.798a.586.586 0 0 0 .586-.586v-9.363a.586.586 0 0 0-.586-.586zm-5.627 7.291a.587.587 0 0 0-.08.006l-7.723 1.072a9.328 9.328 0 0 1-4.314-.424l-8.515-2.95a1.344 1.344 0 0 1-.83-1.672 1.34 1.34 0 0 1 1.633-.866l7.075 2.03a.587.587 0 0 0 .162.023h6.598a.588.588 0 0 0 0-1.175h-4.183a1.468 1.468 0 0 1-1.454-1.454c0-.792.662-1.454 1.454-1.454h4.183c.08 0 .16-.016.234-.049 1.062-.463 2.199-.86 3.373-.793 1.31.074 2.52.7 3.63 1.353v6.353H23.05zm5.04 2.072h-2.625v-8.191h2.626v8.191zM10.822 2.78a.586.586 0 0 0 .586-.585V.585a.586.586 0 1 0-1.172 0v1.61c0 .323.262.586.586.586zM17.838 4.4a.583.583 0 0 0 .825-.08L19.8 2.94a.586.586 0 0 0-.904-.745l-1.138 1.38a.586.586 0 0 0 .08.824zM3.472 4.32a.585.585 0 1 0 .904-.745L3.24 2.195a.586.586 0 1 0-.904.746l1.137 1.38z"/>
            <path d="m16.911 9.994-6.144 6.145a.586.586 0 0 0 0 .828.592.592 0 0 0 .828 0l6.145-6.144a.586.586 0 0 0-.829-.829zM11.993 9.605c-.926 0-1.68.754-1.68 1.68 0 .927.754 1.682 1.68 1.682.927 0 1.682-.755 1.682-1.681 0-.927-.755-1.681-1.682-1.681zm0 2.19a.51.51 0 1 1 .002-1.02.51.51 0 0 1-.002 1.02zM16.477 14.088c-.927 0-1.68.754-1.68 1.681s.753 1.681 1.68 1.681c.927 0 1.681-.754 1.681-1.68 0-.928-.754-1.682-1.68-1.682zm0 2.19a.51.51 0 1 1 .001-1.019.51.51 0 0 1 0 1.02zM6.694 17.139c1.196 0 2.17-.973 2.17-2.17v-3.307c0-1.196-.974-2.17-2.17-2.17h-.788c-1.197 0-2.17.974-2.17 2.17v3.307c0 1.197.973 2.17 2.17 2.17h.788zm-1.786-2.17v-3.307c0-.55.448-.998.998-.998h.788c.55 0 .997.448.997.998v3.307c0 .55-.447.998-.997.998h-.788a.999.999 0 0 1-.998-.998zM1.108 10.487a.59.59 0 0 0 .766.317.591.591 0 0 0 .317-.766.591.591 0 0 0-.766-.317.591.591 0 0 0-.317.766z"/>
        </g>
    </g>
</svg>
