<svg width="21" height="18" viewBox="0 0 21 18" xmlns="http://www.w3.org/2000/svg">
    
        <g fill="#454ec2" fill-rule="nonzero">
            <path d="M4.422 14.87a.392.392 0 0 0-.392.383v.008a.391.391 0 0 0 .783 0v-.008a.392.392 0 0 0-.391-.383z"/>
            <path d="M16.904 9.554V1.957C16.904.686 14.626 0 12.483 0 10.339 0 8.06.686 8.06 1.957v3.55c-.85-.532-2.272-.811-3.64-.811C2.279 4.696 0 5.38 0 6.652v9.391C0 17.314 2.278 18 4.422 18c1.606 0 3.288-.385 4.03-1.113.742.728 2.424 1.113 4.03 1.113.695 0 1.433-.068 2.001-.184a4.31 4.31 0 0 0 5.551-4.12 4.318 4.318 0 0 0-3.13-4.142zm-.782-5.25c0 .173-.25.471-.954.742-.716.275-1.694.432-2.685.432-.991 0-1.97-.157-2.686-.432-.704-.27-.954-.569-.954-.742V3.103c.851.531 2.273.81 3.64.81s2.788-.279 3.639-.81v1.201zM8.843 5.45c.851.532 2.273.81 3.64.81s2.788-.278 3.639-.81v1.202c0 .173-.25.471-.954.742-.716.274-1.694.432-2.685.432-.991 0-1.97-.158-2.686-.432-.704-.27-.954-.569-.954-.742V5.45zM8.061 9c0 .173-.25.471-.954.741-.715.275-1.694.433-2.685.433-.991 0-1.97-.158-2.686-.433C1.032 9.471.783 9.173.783 9V7.798c.85.532 2.272.81 3.639.81s2.788-.278 3.639-.81V9zM.783 10.146c.85.532 2.272.81 3.639.81s2.788-.278 3.639-.81v1.202c0 .173-.25.47-.954.741-.715.275-1.694.433-2.685.433-.991 0-1.97-.158-2.686-.433-.704-.27-.953-.568-.953-.741v-1.202zm8.06 2.316c.651.402 1.626.664 2.607.777a4.335 4.335 0 0 0 .122 1.574c-.695-.077-1.351-.23-1.858-.436-.601-.246-.87-.52-.87-.681v-1.234zm2.761.006c-.738-.08-1.438-.247-1.958-.47-.554-.239-.803-.499-.803-.65v-1.223c.197.12.439.239.737.349.783.289 1.806.462 2.832.48a4.282 4.282 0 0 0-.808 1.514zm1.69-2.32c-.227.017-.46.026-.694.026-1 0-2.002-.158-2.749-.434-.696-.257-1.008-.557-1.008-.74V7.798c.851.532 2.273.81 3.64.81s2.788-.278 3.639-.81V9c0 .12-.093.257-.264.393a4.267 4.267 0 0 0-2.563.754zM9.797 1.215c.716-.275 1.695-.432 2.686-.432.99 0 1.97.157 2.685.432.704.27.954.568.954.742 0 .173-.25.47-.954.741-.716.275-1.694.432-2.685.432-.991 0-1.97-.157-2.686-.432-.704-.27-.954-.568-.954-.741 0-.174.25-.472.954-.742zm-8.06 4.696c.715-.275 1.694-.433 2.685-.433.99 0 1.97.158 2.685.433.704.27.954.568.954.741 0 .173-.25.471-.954.742-.715.274-1.694.432-2.685.432-.991 0-1.97-.158-2.686-.432-.704-.27-.953-.569-.953-.742 0-.173.25-.47.953-.741zm5.37 10.874c-.715.275-1.694.432-2.685.432-.991 0-1.97-.157-2.686-.432-.704-.27-.953-.568-.953-.742v-1.216c.684.425 1.627.623 2.012.69a.392.392 0 1 0 .134-.77C1.523 14.501.83 14 .785 13.726v-.003l-.002-.014v-.004a.25.25 0 0 1 0-.01v-1.202c.85.531 2.272.81 3.639.81s2.788-.279 3.639-.81v1.202a.25.25 0 0 1 0 .01v.005l-.002.01v.003c-.044.277-.738.778-2.144 1.022a.391.391 0 0 0 .134.771c.385-.067 1.327-.265 2.012-.69v1.216c0 .174-.25.472-.954.742zm2.69 0c-.704-.27-.954-.568-.954-.742v-1.232c.73.452 1.875.734 3.04.816.314.626.774 1.16 1.335 1.564-.245.017-.495.026-.735.026-.991 0-1.97-.157-2.686-.432zm5.933.432a3.521 3.521 0 1 1-.002-7.045 3.521 3.521 0 0 1 .002 7.045z"/>
            <path d="M15.73 13.304a.392.392 0 1 1 .277-.667.392.392 0 0 0 .553-.554 1.171 1.171 0 0 0-.438-.277v-.458a.391.391 0 1 0-.783 0v.458a1.175 1.175 0 0 0 .391 2.28.392.392 0 1 1-.276.669.392.392 0 0 0-.554.553c.126.126.276.22.44.278v.457a.391.391 0 1 0 .782 0v-.458a1.175 1.175 0 0 0-.391-2.28z"/>
        </g>
</svg>
