<svg width="45" height="52" viewBox="0 0 45 52" xmlns="http://www.w3.org/2000/svg">
    <path d="M43.107 47.49h-4.411V37.383h.053a2.324 2.324 0 0 0 2.32-2.32 2.324 2.324 0 0 0-2.32-2.322h-.053v-5.743c0-.842-.685-1.527-1.527-1.527h-1.454v-5.744c0-.841-.685-1.526-1.527-1.526H33.4v-5.744c0-.842-.685-1.526-1.527-1.526h-.626v-8.34A2.595 2.595 0 0 0 28.655 0a2.595 2.595 0 0 0-2.593 2.592v1.07H18.24v-1.07A2.595 2.595 0 0 0 15.648 0a2.595 2.595 0 0 0-2.592 2.592v8.34h-.626c-.842 0-1.527.685-1.527 1.527v.967a.761.761 0 0 0 1.523 0l.004-.971h4.832v1.27c0 .713.58 1.293 1.293 1.293h.93v3.184h-7.06v-1.22a.761.761 0 0 0-1.522 0v1.22h-.788c-.842 0-1.527.685-1.527 1.527v5.743H7.134c-.842 0-1.527.685-1.527 1.527v5.743h-.053a2.324 2.324 0 0 0-2.32 2.321 2.324 2.324 0 0 0 2.32 2.322h.053v10.104H1.196c-.66 0-1.196.537-1.196 1.196v2.12C0 51.463.536 52 1.196 52h41.911c.66 0 1.196-.536 1.196-1.196v-2.119c0-.66-.536-1.196-1.196-1.196zm-5.934 0h-6.11V37.383h6.11V47.49zm-12.006-1.714c-.42 0-.762.34-.762.761v.952h-4.507v-4.611a2.256 2.256 0 0 1 2.253-2.254 2.256 2.256 0 0 1 2.254 2.254v.113a.761.761 0 0 0 1.523 0v-.113a3.781 3.781 0 0 0-3.776-3.777 3.781 3.781 0 0 0-3.777 3.777v4.611h-3.612V37.384H29.54V47.49h-3.612v-.952c0-.42-.34-.761-.761-.761zm12.006-18.777v5.743H25.279v-3.184h2.272c.713 0 1.293-.58 1.293-1.293v-1.267h8.329zm-16.626 5.743v-3.184h3.21v3.184h-3.21zm6.775-5.745v1.038h-10.34v-1.039l10.34.001zm-6.775-1.525v-3.21h3.21v3.21h-3.21zm13.645-5.743v5.743H25.28v-3.21h.814c.713 0 1.293-.58 1.293-1.293v-1.242l6.806.002zm-2.315-7.27v5.743h-7.06v-3.184h.931c.713 0 1.293-.58 1.293-1.293v-1.268l4.836.001zm-4.292-9.867a1.07 1.07 0 0 1 2.139 0v1.07h-2.139v-1.07zM26.38 6.407V5.184h3.344v5.748H24.62V7.7h.467c.713 0 1.294-.58 1.294-1.293zm-6.934-1.223h5.41v.993h-5.41v-.993zm3.65 2.516v3.21h-1.89V7.7h1.89zm-8.517-5.108a1.07 1.07 0 0 1 2.139 0v1.07h-2.14v-1.07zm0 8.318V5.184h3.344v1.223c0 .713.58 1.293 1.294 1.293h.467v3.21H14.58zm4.206 2.585v-1.04l6.733.002v1.038h-6.733zm4.51 1.523v3.184h-2.286v-3.184h2.285zm-4.856 4.708 7.424.001v1.012H18.44v-1.013zm-8.324-.001h6.802v1.244c0 .713.58 1.293 1.293 1.293h.814v3.21H10.11l.004-5.747zm-2.981 7.27h8.325v1.27c0 .713.58 1.293 1.293 1.293h2.272v3.184H7.13l.003-5.747zm-2.378 8.068a.8.8 0 0 1 .798-.798H38.75a.8.8 0 0 1 0 1.597l-32.38-.026c-.068 0-.815.026-.815.026a.8.8 0 0 1-.798-.799zm2.374 2.321h6.11V47.49H7.13V37.384zm35.65 13.093H1.523v-1.465H42.78v1.465z" fill="#73B297" fill-rule="nonzero"/>
</svg>
